<?xml version="1.0" encoding="UTF-8" standalone="no"?>
<svg
   version="1.1"
   viewBox="0 0 298 298"
   width="298"
   height="298"
   enable-background="new 0 0 298 298"
   id="svg8"
   sodipodi:docname="2d_contacteur_ouvert_source.svg"
   inkscape:version="1.3 (0e150ed6c4, 2023-07-21)"
   xmlns:inkscape="http://www.inkscape.org/namespaces/inkscape"
   xmlns:sodipodi="http://sodipodi.sourceforge.net/DTD/sodipodi-0.dtd"
   xmlns="http://www.w3.org/2000/svg"
   xmlns:svg="http://www.w3.org/2000/svg">
  <defs
     id="defs12">
    <linearGradient
       id="linearGradient11315"
       inkscape:swatch="solid">
      <stop
         style="stop-color:#ff8080;stop-opacity:1;"
         offset="0"
         id="stop11313" />
    </linearGradient>
  </defs>
  <sodipodi:namedview
     id="namedview10"
     pagecolor="#595959"
     bordercolor="#666666"
     borderopacity="1.0"
     inkscape:showpageshadow="false"
     inkscape:pageopacity="0.0"
     inkscape:pagecheckerboard="true"
     inkscape:deskcolor="#2f2f2f"
     showgrid="true"
     inkscape:zoom="1.9660668"
     inkscape:cx="169.11938"
     inkscape:cy="176.2402"
     inkscape:window-width="1920"
     inkscape:window-height="979"
     inkscape:window-x="0"
     inkscape:window-y="0"
     inkscape:window-maximized="1"
     inkscape:current-layer="g1510"
     showborder="true">
    <inkscape:grid
       id="grid1"
       units="px"
       originx="0"
       originy="0"
       spacingx="1"
       spacingy="1"
       empcolor="#ffffff"
       empopacity="0.14117647"
       color="#f2f2f2"
       opacity="0.14901961"
       empspacing="5"
       dotted="false"
       gridanglex="30"
       gridanglez="30"
       visible="true" />
  </sodipodi:namedview>
  <g
     id="g1510"
     style="display:inline">
    <path
       style="fill:#ffffff;fill-opacity:1;stroke:#000000;stroke-width:1;stroke-linecap:square;stroke-linejoin:miter;stroke-miterlimit:2.1;stroke-dasharray:none;stroke-opacity:1;paint-order:normal"
       d="m 49.074087,268.42933 -0.0087,-29.88199 -2.863107,-1.24007 c -7.625133,-3.3026 -13.38361,-12.39821 -13.38361,-21.13964 0,-10.42065 7.560122,-20.2906 17.515357,-22.8668 19.560474,-5.06182 36.058501,14.87266 27.420455,33.132 -1.904256,4.02526 -6.128314,8.3291 -10.354164,10.54972 l -3.567309,1.87457 v 29.72711 29.7271 h -7.37513 -7.375131 z m 11.75616,-44.14896 c 3.535181,-1.82812 5.595649,-6.46921 4.581319,-10.31918 -0.985107,-3.73906 -3.020995,-5.75943 -6.830329,-6.77827 -7.754094,-2.0739 -14.346798,7.26313 -9.821053,13.90925 2.785964,4.09122 7.775293,5.40911 12.070063,3.1882 z"
       id="path9300" />
    <path
       style="fill:#0000ff;fill-opacity:1;stroke:#000000;stroke-width:1;stroke-linecap:square;stroke-linejoin:miter;stroke-miterlimit:2.1;stroke-dasharray:none;stroke-opacity:1;paint-order:normal"
       d="m 48.404646,105.84928 c -6.30848,-2.65084 -10.526042,-6.511165 -13.297381,-12.171064 -3.71797,-7.593206 -3.104517,-16.568369 1.596062,-23.351307 2.04812,-2.955439 7.069046,-7.318506 9.637171,-8.374477 l 2.229827,-0.916866 0.0019,-29.881996 0.0019,-29.8819957 h 7.883761 7.88376 V 30.996586 60.721599 l 3.163516,1.682873 c 4.330599,2.303716 8.117293,6.290813 10.442079,10.994697 1.885363,3.814774 1.907612,3.931281 1.907612,9.989727 0,6.024032 -0.03264,6.198299 -1.889618,10.087241 -2.401292,5.028878 -6.055895,8.759513 -11.127893,11.359413 -3.621475,1.85635 -3.993639,1.93746 -9.616512,2.09577 -5.275889,0.14854 -6.140067,0.0425 -8.816197,-1.08204 z M 60.828409,91.133719 c 6.161383,-3.250383 6.034489,-12.179667 -0.219313,-15.432548 -1.933006,-1.005443 -6.472559,-0.951941 -8.694575,0.102474 -2.226111,1.056358 -3.749842,3.440026 -4.173135,6.528283 -1.009528,7.365309 6.384017,12.337897 13.087023,8.801791 z"
       id="path9292" />
    <path
       style="fill:#ffffff;fill-opacity:1;stroke:#000000;stroke-width:1;stroke-linecap:square;stroke-linejoin:miter;stroke-miterlimit:2.1;stroke-dasharray:none;stroke-opacity:1;paint-order:normal"
       d="m 256.21938,97.821017 c -8.63845,-1.439321 -16.63253,-8.620445 -19.1504,-17.202885 -1.69257,-5.769331 -0.64741,-14.034172 2.40743,-19.037283 1.96864,-3.224178 6.3766,-7.299589 9.82208,-9.08108 l 3.2324,-1.671316 0.002,-29.627681 0.002,-19.9537822 h 7.62945 7.62945 l 0,19.9712172 v 29.645117 l 3.17893,1.505667 c 8.5099,4.03062 14.41212,14.512614 13.37573,23.754528 -0.67822,6.047984 -3.82155,12.255148 -8.08872,15.972875 -2.8977,2.524584 -8.56797,5.129017 -12.53498,5.757491 -3.70367,0.58675 -3.78858,0.586373 -7.50513,-0.03286 z m 8.91069,-16.554499 c 2.56251,-1.898226 3.68074,-4.114621 3.68074,-7.295413 0,-3.196743 -1.1184,-5.397106 -3.72487,-7.328362 -2.16024,-1.600628 -7.59612,-1.514649 -9.94025,0.157227 -1.99218,1.420862 -3.60116,4.61937 -3.61712,7.190519 -0.017,2.737018 1.9391,6.140015 4.31218,7.501851 2.58196,1.481709 7.13363,1.371057 9.28932,-0.225822 z"
       id="path11402"
       sodipodi:nodetypes="sssscccccccsssssssssssss" />
    <path
       style="fill:#ffffff;fill-opacity:1;stroke:#000000;stroke-width:1;stroke-linecap:square;stroke-linejoin:miter;stroke-miterlimit:2.1;stroke-dasharray:none;stroke-opacity:1;paint-order:normal"
       d="m 253.54523,277.8735 -0.007,-29.62768 -3.17225,-1.52109 c -9.06687,-4.34756 -14.80457,-15.25465 -13.18051,-25.05554 1.93664,-11.68721 11.98355,-20.47613 23.49326,-20.55162 13.66178,-0.0896 24.43177,10.50384 24.46156,24.06054 0.0103,4.68458 -0.62942,7.30642 -2.77056,11.35495 -2.1245,4.01708 -5.97923,7.79494 -10.15896,9.95636 l -3.39651,1.7564 -0.002,29.62768 -0.002,21.07237 h -7.62945 -7.62945 l -0.007,-21.07237 z m 11.40014,-44.8326 c 6.21933,-2.59861 6.4112,-12.33149 0.30503,-15.47326 -4.4759,-2.30296 -10.22297,-0.49771 -12.00677,3.77152 -3.20554,7.67193 4.02981,14.90728 11.70174,11.70174 z"
       id="path11404"
       sodipodi:nodetypes="ccsssssscccccccssss" />
    <rect
       style="display:inline;fill:#0000ff;fill-opacity:1;stroke:#000000;stroke-width:8;stroke-linecap:square;stroke-linejoin:bevel;stroke-miterlimit:2.1;stroke-dasharray:none;stroke-opacity:1;paint-order:stroke fill markers"
       id="rect746-8-7"
       width="94.243935"
       height="73.681717"
       x="102.9236"
       y="-296.64435"
       rx="3.554697"
       ry="14.060455"
       transform="rotate(90)" />
    <text
       xml:space="preserve"
       style="font-weight:bold;font-size:26.6667px;line-height:1.25;font-family:sans-serif;-inkscape-font-specification:'sans-serif, Bold'"
       x="243.3206"
       y="138.29686"
       id="text3455"><tspan
         sodipodi:role="line"
         id="tspan3453"
         x="243.3206"
         y="138.29686">CT</tspan></text>
    <text
       xml:space="preserve"
       style="font-weight:bold;font-size:20.417px;line-height:1.25;font-family:sans-serif;-inkscape-font-specification:'sans-serif, Bold';display:inline;stroke-width:0.765635"
       x="226.51227"
       y="169.17159"
       id="text3455-3"><tspan
         sodipodi:role="line"
         id="tspan3453-6"
         x="226.51227"
         y="169.17159"
         style="stroke-width:0.765635">MONO</tspan></text>
    <path
       style="fill:#0000ff;fill-opacity:1;stroke:#000000;stroke-width:1;stroke-linecap:square;stroke-linejoin:bevel;stroke-miterlimit:2.1;stroke-dasharray:none;stroke-opacity:1;paint-order:stroke fill markers"
       d="m 112.54524,219.90623 c -0.83924,-0.31088 -1.92727,-0.91494 -2.41785,-1.34234 -0.843,-0.73443 -0.88488,-4.46221 -0.76294,-67.90798 l 0.12902,-67.130885 1.37666,-1.027813 c 2.12761,-1.588461 8.62196,-1.832817 11.76465,-0.442656 l 2.37189,1.049202 v 67.663292 67.66329 l -1.65304,0.86189 c -2.00378,1.04476 -8.62949,1.42115 -10.80839,0.614 z"
       id="path3651" />
    <path
       style="fill:#ff0000;fill-opacity:1;stroke:#000000;stroke-width:1;stroke-linecap:square;stroke-linejoin:miter;stroke-miterlimit:2.1;stroke-dasharray:none;stroke-opacity:1;paint-order:normal"
       d="m 157.29982,106.10653 c -14.13255,-4.65177 -20.80935,-21.28844 -13.74948,-34.259749 1.72712,-3.173295 6.70987,-7.845044 10.45413,-9.801626 l 2.90538,-1.518219 0.001,-29.881996 10e-4,-29.88199542 h 7.62944 7.62945 V 30.765272 60.7676 l 1.88447,0.787379 c 7.04369,2.943048 13.23301,11.524115 14.18066,19.660537 1.05519,9.059723 -4.92392,19.236694 -13.91151,23.678594 -3.56566,1.76225 -4.20933,1.90827 -8.9738,2.03574 -3.94648,0.10559 -5.80709,-0.0847 -8.05116,-0.82332 z m 11.30054,-14.934653 c 3.10521,-1.586686 4.22325,-3.311724 4.48415,-6.918672 0.38591,-5.335159 -2.58249,-9.149048 -7.48768,-9.620375 -3.33272,-0.320233 -5.72683,0.570805 -7.85096,2.921971 -3.03495,3.359322 -3.0046,8.130161 0.075,11.790052 2.60438,3.095129 6.87965,3.819749 10.7795,1.827024 z"
       id="path9294" />
    <path
       style="fill:#ffffff;fill-opacity:1;stroke:#000000;stroke-width:1;stroke-linecap:square;stroke-linejoin:miter;stroke-miterlimit:2.1;stroke-dasharray:none;stroke-opacity:1;paint-order:normal"
       d="m 156.91227,268.58632 v -29.72501 l -3.16466,-1.68288 c -5.71831,-3.04082 -9.86852,-8.06971 -12.10869,-14.67234 -2.04153,-6.01714 -0.81202,-13.92599 3.03396,-19.51592 6.35363,-9.23468 17.50908,-13.03477 27.44054,-9.34756 8.56988,3.18169 14.48572,10.20984 15.92987,18.92504 1.52087,9.17814 -3.61833,19.20179 -12.51141,24.40266 l -3.36072,1.96542 v 29.6878 29.6878 h -7.62945 -7.62944 z m 12.716,-45.17072 c 2.38003,-1.62458 3.56015,-4.12603 3.56015,-7.54629 0,-5.99217 -4.9163,-9.60658 -11.40983,-8.38839 -3.67006,0.68851 -6.95919,6.03083 -6.19683,10.06513 0.45194,2.39164 2.07473,4.82795 3.99616,5.99946 2.44076,1.48814 7.78101,1.41912 10.05035,-0.12991 z"
       id="path9302" />
    <rect
       style="fill:#000000;fill-opacity:1;stroke:none;stroke-width:0;stroke-linecap:square;stroke-linejoin:bevel;stroke-miterlimit:2.1;stroke-dasharray:none;stroke-opacity:0.613764;paint-order:stroke fill markers"
       id="rect3782"
       width="40"
       height="13"
       x="22.110126"
       y="141.0444"
       rx="3.5546968"
       ry="13.230925" />
    <rect
       style="fill:#000000;fill-opacity:1;stroke:none;stroke-width:0;stroke-linecap:square;stroke-linejoin:bevel;stroke-miterlimit:2.1;stroke-dasharray:none;stroke-opacity:0.613764;paint-order:stroke fill markers"
       id="rect3782-1"
       width="40"
       height="13"
       x="65.365997"
       y="141.005"
       rx="3.554697"
       ry="13.230925" />
    <rect
       style="fill:#000000;fill-opacity:1;stroke:none;stroke-width:0;stroke-linecap:square;stroke-linejoin:bevel;stroke-miterlimit:2.1;stroke-dasharray:none;stroke-opacity:0.613764;paint-order:stroke fill markers"
       id="rect3782-9"
       width="40"
       height="13"
       x="129.27933"
       y="140.72758"
       rx="3.5546973"
       ry="13.230925" />
    <rect
       style="fill:#000000;fill-opacity:1;stroke:none;stroke-width:0;stroke-linecap:square;stroke-linejoin:bevel;stroke-miterlimit:2.1;stroke-dasharray:none;stroke-opacity:0.613764;paint-order:stroke fill markers"
       id="rect3782-4"
       width="40"
       height="13"
       x="173.65901"
       y="140.75143"
       rx="3.5546966"
       ry="13.230925" />
    <path
       style="fill:#0000ff;fill-opacity:1;stroke:#000000;stroke-width:1;stroke-linecap:square;stroke-linejoin:miter;stroke-miterlimit:2.1;stroke-dasharray:none;stroke-opacity:1;paint-order:normal"
       d="m 111.83242,219.20483 c -1.21464,-0.62281 -1.66544,-1.26037 -1.90177,-2.68969 -0.17036,-1.03037 -0.31227,-31.33686 -0.31535,-67.34775 l -0.006,-65.474351 1.37622,-0.901827 c 1.99686,-1.308532 8.65803,-1.541428 11.62952,-0.406607 l 2.25316,0.860489 v 67.524036 67.52405 l -1.39874,0.6683 c -2.23278,1.06679 -9.72591,1.22348 -11.63744,0.24335 z"
       id="path9296" />
    <path
       style="fill:#0000ff;fill-opacity:1;stroke:#000000;stroke-width:1;stroke-linecap:square;stroke-linejoin:miter;stroke-miterlimit:2.1;stroke-dasharray:none;stroke-opacity:1;paint-order:normal"
       d="m 2.9641528,218.63552 c -1.560933,-0.8076 -1.623928,-0.96915 -1.9330619,-4.95744 C 0.85533981,211.41063 0.78032959,181.05946 0.86440145,146.23104 L 1.0172594,82.906644 2.9935036,81.941743 C 5.5457775,80.695597 10.872848,80.666698 13.86016,81.882793 l 2.161676,0.87999 v 67.510877 67.51089 l -1.398732,0.6683 c -2.234978,1.06784 -9.7213555,1.18514 -11.6589512,0.18267 z"
       id="path9298" />
  </g>
</svg>
