<?xml version="1.0" encoding="UTF-8" standalone="no"?>
<svg
   version="1.1"
   viewBox="0 0 179.47476 297.66516"
   enable-background="new 0 0 298 298"
   id="svg8"
   sodipodi:docname="2d_disj_mono_open_source.svg"
   inkscape:version="1.3 (0e150ed6c4, 2023-07-21)"
   width="179.47476"
   height="297.66516"
   xmlns:inkscape="http://www.inkscape.org/namespaces/inkscape"
   xmlns:sodipodi="http://sodipodi.sourceforge.net/DTD/sodipodi-0.dtd"
   xmlns="http://www.w3.org/2000/svg"
   xmlns:svg="http://www.w3.org/2000/svg"
   xmlns:rdf="http://www.w3.org/1999/02/22-rdf-syntax-ns#"
   xmlns:cc="http://creativecommons.org/ns#"
   xmlns:dc="http://purl.org/dc/elements/1.1/">
  <title
     id="title563">Contacteur Close</title>
  <defs
     id="defs12">
    <linearGradient
       id="linearGradient11315"
       inkscape:swatch="solid">
      <stop
         style="stop-color:#ff8080;stop-opacity:1;"
         offset="0"
         id="stop11313" />
    </linearGradient>
    <clipPath
       clipPathUnits="userSpaceOnUse"
       id="clipPath559">
      <path
         id="path561"
         style="fill:#ffeeaa;stroke:#004eff;stroke-width:0;stroke-linecap:square;stroke-miterlimit:0;stroke-opacity:0.613764;paint-order:markers fill stroke"
         d="m 0,87.251953 v 83.578127 c 0.70085908,0.31914 1.5211244,0.80486 2.5058594,1.51758 2.4248645,-0.98785 4.0643034,-1.45001 5.1660156,-1.50196 0.011061,-0.002 0.021943,-0.003 0.033203,-0.002 1.0980419,-0.0443 1.6621826,0.32697 1.9277344,1.00977 1.1016166,-0.2017 2.2140816,-0.12286 3.3320316,0.0684 1.943015,-0.31823 3.191816,-0.15124 4.048828,0.47851 0.220463,-0.39283 0.458181,-0.6576 0.742187,-0.42773 1.463447,1.18445 2.722765,2.5803 3.931641,4.02929 0.173324,0.10897 0.344552,0.22071 0.517578,0.33008 1.268642,-0.04 2.536464,-0.0634 3.804688,-0.0742 0.541029,-1.84302 0.917477,-3.86163 2.5625,-4.37109 1.13732,-0.35223 2.301372,-0.49823 3.480468,-0.51758 0.807001,-0.67415 1.620534,-1.17157 2.201172,-0.56836 0.13309,0.13826 0.208983,0.23225 0.337891,0.36719 1.434024,-1.0956 3.181556,-1.00536 5.070312,0.084 0.387666,-0.47218 0.815792,-0.71168 1.337891,-0.41015 0.543738,0.31402 1.010246,0.60822 1.5,0.9082 8.253905,-3.32076 10.901169,-2.76453 11.466797,-0.22461 1.085565,0.10832 2.171795,0.25782 3.25,0.44336 2.097963,-0.55254 3.686689,-0.97865 4.746094,-1.16602 0.05481,-0.16648 0.09601,-0.33795 0.158203,-0.50195 0.437502,-1.15361 0.997728,-2.11416 1.662109,-3.05469 0.01582,-0.12738 0.0444,-0.2529 0.0918,-0.37695 0.951061,-2.48898 2.316441,-4.92961 4.232422,-6.78125 0.978485,-0.94562 2.583237,-0.91069 3.929687,-1.10742 0.161469,-0.0236 0.324078,-0.0301 0.486329,-0.0449 3.529755,-4.16377 6.191003,-7.82718 13.677734,-6.46485 0.327509,0.0596 0.627286,0.17886 0.912109,0.32813 1.077841,-3.08643 2.524836,-5.64937 4.574219,-6.64844 1.016957,-0.49576 1.930404,-0.7226 2.753906,-0.73242 2.226416,-0.0266 3.768215,1.47644 4.857422,3.4707 0.437854,-0.27239 0.911769,-0.46841 1.431639,-0.53906 1.2952,-0.17602 2.60158,0.007 3.89648,0.30469 -0.68208,-2.69963 -0.48181,-5.51291 1.13086,-7.90235 1.0047,-1.48863 2.1278,-2.19356 3.48828,-3.21875 2.12041,-1.98497 3.53055,-2.56039 7.48047,-2.32812 0.35017,0.0206 0.68574,0.1028 1.01172,0.22461 0.0689,-0.0381 0.12311,-0.0906 0.20313,-0.11719 1.08357,-0.36081 2.02714,-0.65808 2.9414,-0.93945 -0.0309,-0.62159 0.4965,-1.24406 0.8711,-1.8711 0.047,-0.20454 0.0912,-0.41001 0.14257,-0.61328 -1.51319,0.18625 -3.02264,0.20217 -4.27148,-0.34375 -1.9003,-0.83069 -3.13731,-2.85387 -4.07227,-4.70508 -0.63581,-1.25896 -0.47608,-2.79928 -0.42968,-4.20898 0.0654,-1.98539 1.20579,-4.89725 1.82031,-6.71484 0.93506,-2.31627 1.91779,-5.36752 3.96094,-6.97266 2.23239,-1.75384 4.6482,-1.68695 7.18554,-1.59375 4.90901,0.18023 6.08712,0.39206 11.19727,0.91406 2.53996,0.42833 4.81165,0.73349 7.28711,1.4375 0.35427,0.10076 0.72415,0.21829 1.10156,0.34375 0.49921,-0.6097 1.28216,-1.52453 1.82422,-2.1582 0.15125,-0.19367 0.29752,-0.39041 0.44336,-0.58789 0.10148,-2.004 0.0879,-3.03717 0.0879,-5.77735 v -3.298824 c -0.1441,-0.754612 -0.24302,-1.517471 -0.28125,-2.279297 -0.0649,-1.29329 0.10164,-2.58888 0.15234,-3.882812 0.41781,-1.334769 0.66951,-2.733222 1.25391,-4.003906 0.12807,-0.278461 0.27146,-0.54397 0.41992,-0.804688 z m 180.92969,0 c -0.60068,4.050668 -0.22788,1.630396 -0.4668,2.910156 0.22122,0.73201 0.46136,1.458358 0.6582,2.197266 0.0525,0.196817 0.0987,0.402319 0.084,0.605469 -0.019,0.261823 -0.60669,-0.488215 -0.19727,0.332031 0.28968,0.580346 0.78784,1.115444 1.32031,1.599609 v -7.644531 z m 1.39843,22.130857 c -0.24814,0.44414 -0.5018,0.9056 -0.76367,1.38867 0.0831,0.37387 0.16269,0.74903 0.25782,1.11914 0.1418,1.08674 0.28142,2.17337 0.42578,3.25977 0.0305,0.22972 0.0548,0.46062 0.0801,0.69141 z m 0,16.39063 c -0.28359,0.91589 -0.65538,1.7923 -1.18945,2.58398 -1.53789,2.27972 -5.34394,1.99818 -7.64258,2.04688 -1.44453,-0.0903 -2.89471,-0.11627 -4.33398,-0.26953 -3.22033,-0.34294 -6.37447,-0.97427 -9.41406,-1.97852 -0.55441,0.62982 -1.10808,1.25876 -1.48828,1.91797 -0.49683,0.28025 -0.97972,0.58733 -1.49024,0.8418 -1.09856,0.54759 -3.67865,1.61484 -4.68945,2.00781 -0.33542,0.1304 -0.68195,0.23036 -1.02539,0.33789 -0.10534,0.033 -0.22266,0.0306 -0.32031,0.082 -0.41871,0.22036 -0.81254,0.4859 -1.21876,0.72852 0.0725,-0.0609 0.14432,-0.12264 0.2168,-0.1836 -0.2249,0.11985 -0.45291,0.23458 -0.68164,0.34766 -1.99419,2.65449 -3.86167,5.4091 -6.09961,7.87109 -0.75057,0.80081 -1.15529,2.35765 -2.25195,2.40235 -0.10301,0.004 -0.20729,0.003 -0.31055,0.006 0.10753,1.03634 -0.10537,2.09016 -0.14648,3.13477 -0.87595,2.37209 -1.0555,3.40303 -2.57813,4.43555 0.0554,0.3203 0.11116,0.6406 0.16602,0.96094 0.35155,2.05263 0.67078,4.1106 1.00586,6.16601 2.01293,12.34717 -9.29484,14.15215 -12.90625,3.8418 -0.95212,0.14317 -1.9028,0.30214 -2.85742,0.42578 -0.35736,0.43893 -0.71561,0.8771 -1.07032,1.31836 -1.0391,1.29262 -2.09071,2.80805 -3.43945,3.80664 -0.11911,0.53945 -0.36079,1.10775 -0.67383,1.66211 -0.11733,0.4329 -0.29787,0.85738 -0.46875,1.2832 -0.40186,1.49282 -1.66972,3.19589 -2.05273,4.67969 -1.08547,4.20511 -1.79505,6.90217 -2.51367,9.5957 -0.23988,2.67384 -0.47207,4.70935 -0.50391,4.96875 -0.50659,4.12729 -2.09821,13.68178 -3.70899,19.95117 h 73.6875 z m -32.74609,7.74414 c -0.0743,0.0967 -0.14293,0.19782 -0.2168,0.29492 0.0537,-0.0563 0.10993,-0.11057 0.16016,-0.16992 0.0299,-0.0353 0.0848,-0.1617 0.0566,-0.125 z m -34.9375,3.09961 c 0.0501,-0.11833 -0.20802,0.33123 -0.0996,0.375 0.0236,-0.12774 0.0491,-0.25565 0.0996,-0.375 z m 5.50977,26.70508 c -0.18174,0.32643 -0.37035,0.64957 -0.56641,0.96875 0.58089,0.23217 1.19376,0.37602 1.85742,0.3789 0.74173,0.003 1.06256,-0.43535 1.08985,-1.10937 -0.0622,0.006 -0.12329,0.0218 -0.18555,0.0273 -0.38593,0.0343 -0.77205,-0.0651 -1.15625,-0.11523 -0.34688,-0.0452 -0.69123,-0.10796 -1.03906,-0.15039 z m -56.046878,5.66992 c 0.03051,0.15895 0.09422,0.4125 0.18164,0.71679 0.0019,-0.003 0.004,-0.005 0.0059,-0.008 -0.05182,-0.2351 -0.111337,-0.47131 -0.1875,-0.70898 z m -51.207031,30.91406 c -0.130095,0.17014 -0.166522,0.22056 -0.302735,0.39844 -0.680985,0.88929 -1.032824,3.09515 -2.0625,2.65429 -0.02468,-0.0106 -0.03206,-0.0129 -0.05664,-0.0234 -0.8823446,0.84393 -1.9586312,0.33958 -4.2421879,-1.79688 -0.812723,-0.34132 -1.9275356,-0.80998 -2.5722656,-1.08984 C 2.2585105,200.27575 1.0671443,200.45575 0,200.60156 v 10.14453 h 40.275391 c -1.352601,-0.82079 -2.79973,-1.56017 -4.19336,-2.3457 -2.410562,-0.24237 -4.858307,-0.68581 -7.228515,-0.70508 0.543528,-1.71006 0.604099,-1.91269 0.808593,-2.64062 -0.193705,0.007 -0.405822,-0.0676 -0.638671,-0.22657 -2.847625,2.25743 -5.809904,3.73081 -8.509766,3.23438 -0.347141,-0.0638 -0.626729,-0.16406 -0.929688,-0.25195 -0.283008,0.0453 -0.577551,0.0113 -0.888672,-0.13672 -2.951591,-1.40475 -4.339338,-4.62534 -5.794921,-7.76758 z m 31.652343,6.76758 c -0.291834,0.51207 -0.689991,0.91729 -1.267578,1.13867 -0.07229,0.0277 -0.148085,0.0366 -0.220703,0.0625 -0.285008,0.95686 -0.567348,1.91473 -0.853515,2.87109 h 3.871093 c -0.491588,-1.14983 -0.688566,-2.4695 -0.736328,-3.78125 -0.266574,-0.0932 -0.525137,-0.19992 -0.792969,-0.29101 z" />
    </clipPath>
    <clipPath
       clipPathUnits="userSpaceOnUse"
       id="clipPath559-6">
      <path
         id="path561-7"
         style="fill:#ffeeaa;stroke:#004eff;stroke-width:0;stroke-linecap:square;stroke-miterlimit:0;stroke-opacity:0.613764;paint-order:markers fill stroke"
         d="m 0,87.251953 v 83.578127 c 0.70085908,0.31914 1.5211244,0.80486 2.5058594,1.51758 2.4248645,-0.98785 4.0643034,-1.45001 5.1660156,-1.50196 0.011061,-0.002 0.021943,-0.003 0.033203,-0.002 1.0980419,-0.0443 1.6621826,0.32697 1.9277344,1.00977 1.1016166,-0.2017 2.2140816,-0.12286 3.3320316,0.0684 1.943015,-0.31823 3.191816,-0.15124 4.048828,0.47851 0.220463,-0.39283 0.458181,-0.6576 0.742187,-0.42773 1.463447,1.18445 2.722765,2.5803 3.931641,4.02929 0.173324,0.10897 0.344552,0.22071 0.517578,0.33008 1.268642,-0.04 2.536464,-0.0634 3.804688,-0.0742 0.541029,-1.84302 0.917477,-3.86163 2.5625,-4.37109 1.13732,-0.35223 2.301372,-0.49823 3.480468,-0.51758 0.807001,-0.67415 1.620534,-1.17157 2.201172,-0.56836 0.13309,0.13826 0.208983,0.23225 0.337891,0.36719 1.434024,-1.0956 3.181556,-1.00536 5.070312,0.084 0.387666,-0.47218 0.815792,-0.71168 1.337891,-0.41015 0.543738,0.31402 1.010246,0.60822 1.5,0.9082 8.253905,-3.32076 10.901169,-2.76453 11.466797,-0.22461 1.085565,0.10832 2.171795,0.25782 3.25,0.44336 2.097963,-0.55254 3.686689,-0.97865 4.746094,-1.16602 0.05481,-0.16648 0.09601,-0.33795 0.158203,-0.50195 0.437502,-1.15361 0.997728,-2.11416 1.662109,-3.05469 0.01582,-0.12738 0.0444,-0.2529 0.0918,-0.37695 0.951061,-2.48898 2.316441,-4.92961 4.232422,-6.78125 0.978485,-0.94562 2.583237,-0.91069 3.929687,-1.10742 0.161469,-0.0236 0.324078,-0.0301 0.486329,-0.0449 3.529755,-4.16377 6.191003,-7.82718 13.677734,-6.46485 0.327509,0.0596 0.627286,0.17886 0.912109,0.32813 1.077841,-3.08643 2.524836,-5.64937 4.574219,-6.64844 1.016957,-0.49576 1.930404,-0.7226 2.753906,-0.73242 2.226416,-0.0266 3.768215,1.47644 4.857422,3.4707 0.437854,-0.27239 0.911769,-0.46841 1.431639,-0.53906 1.2952,-0.17602 2.60158,0.007 3.89648,0.30469 -0.68208,-2.69963 -0.48181,-5.51291 1.13086,-7.90235 1.0047,-1.48863 2.1278,-2.19356 3.48828,-3.21875 2.12041,-1.98497 3.53055,-2.56039 7.48047,-2.32812 0.35017,0.0206 0.68574,0.1028 1.01172,0.22461 0.0689,-0.0381 0.12311,-0.0906 0.20313,-0.11719 1.08357,-0.36081 2.02714,-0.65808 2.9414,-0.93945 -0.0309,-0.62159 0.4965,-1.24406 0.8711,-1.8711 0.047,-0.20454 0.0912,-0.41001 0.14257,-0.61328 -1.51319,0.18625 -3.02264,0.20217 -4.27148,-0.34375 -1.9003,-0.83069 -3.13731,-2.85387 -4.07227,-4.70508 -0.63581,-1.25896 -0.47608,-2.79928 -0.42968,-4.20898 0.0654,-1.98539 1.20579,-4.89725 1.82031,-6.71484 0.93506,-2.31627 1.91779,-5.36752 3.96094,-6.97266 2.23239,-1.75384 4.6482,-1.68695 7.18554,-1.59375 4.90901,0.18023 6.08712,0.39206 11.19727,0.91406 2.53996,0.42833 4.81165,0.73349 7.28711,1.4375 0.35427,0.10076 0.72415,0.21829 1.10156,0.34375 0.49921,-0.6097 1.28216,-1.52453 1.82422,-2.1582 0.15125,-0.19367 0.29752,-0.39041 0.44336,-0.58789 0.10148,-2.004 0.0879,-3.03717 0.0879,-5.77735 v -3.298824 c -0.1441,-0.754612 -0.24302,-1.517471 -0.28125,-2.279297 -0.0649,-1.29329 0.10164,-2.58888 0.15234,-3.882812 0.41781,-1.334769 0.66951,-2.733222 1.25391,-4.003906 0.12807,-0.278461 0.27146,-0.54397 0.41992,-0.804688 z m 180.92969,0 c -0.60068,4.050668 -0.22788,1.630396 -0.4668,2.910156 0.22122,0.73201 0.46136,1.458358 0.6582,2.197266 0.0525,0.196817 0.0987,0.402319 0.084,0.605469 -0.019,0.261823 -0.60669,-0.488215 -0.19727,0.332031 0.28968,0.580346 0.78784,1.115444 1.32031,1.599609 v -7.644531 z m 1.39843,22.130857 c -0.24814,0.44414 -0.5018,0.9056 -0.76367,1.38867 0.0831,0.37387 0.16269,0.74903 0.25782,1.11914 0.1418,1.08674 0.28142,2.17337 0.42578,3.25977 0.0305,0.22972 0.0548,0.46062 0.0801,0.69141 z m 0,16.39063 c -0.28359,0.91589 -0.65538,1.7923 -1.18945,2.58398 -1.53789,2.27972 -5.34394,1.99818 -7.64258,2.04688 -1.44453,-0.0903 -2.89471,-0.11627 -4.33398,-0.26953 -3.22033,-0.34294 -6.37447,-0.97427 -9.41406,-1.97852 -0.55441,0.62982 -1.10808,1.25876 -1.48828,1.91797 -0.49683,0.28025 -0.97972,0.58733 -1.49024,0.8418 -1.09856,0.54759 -3.67865,1.61484 -4.68945,2.00781 -0.33542,0.1304 -0.68195,0.23036 -1.02539,0.33789 -0.10534,0.033 -0.22266,0.0306 -0.32031,0.082 -0.41871,0.22036 -0.81254,0.4859 -1.21876,0.72852 0.0725,-0.0609 0.14432,-0.12264 0.2168,-0.1836 -0.2249,0.11985 -0.45291,0.23458 -0.68164,0.34766 -1.99419,2.65449 -3.86167,5.4091 -6.09961,7.87109 -0.75057,0.80081 -1.15529,2.35765 -2.25195,2.40235 -0.10301,0.004 -0.20729,0.003 -0.31055,0.006 0.10753,1.03634 -0.10537,2.09016 -0.14648,3.13477 -0.87595,2.37209 -1.0555,3.40303 -2.57813,4.43555 0.0554,0.3203 0.11116,0.6406 0.16602,0.96094 0.35155,2.05263 0.67078,4.1106 1.00586,6.16601 2.01293,12.34717 -9.29484,14.15215 -12.90625,3.8418 -0.95212,0.14317 -1.9028,0.30214 -2.85742,0.42578 -0.35736,0.43893 -0.71561,0.8771 -1.07032,1.31836 -1.0391,1.29262 -2.09071,2.80805 -3.43945,3.80664 -0.11911,0.53945 -0.36079,1.10775 -0.67383,1.66211 -0.11733,0.4329 -0.29787,0.85738 -0.46875,1.2832 -0.40186,1.49282 -1.66972,3.19589 -2.05273,4.67969 -1.08547,4.20511 -1.79505,6.90217 -2.51367,9.5957 -0.23988,2.67384 -0.47207,4.70935 -0.50391,4.96875 -0.50659,4.12729 -2.09821,13.68178 -3.70899,19.95117 h 73.6875 z m -32.74609,7.74414 c -0.0743,0.0967 -0.14293,0.19782 -0.2168,0.29492 0.0537,-0.0563 0.10993,-0.11057 0.16016,-0.16992 0.0299,-0.0353 0.0848,-0.1617 0.0566,-0.125 z m -34.9375,3.09961 c 0.0501,-0.11833 -0.20802,0.33123 -0.0996,0.375 0.0236,-0.12774 0.0491,-0.25565 0.0996,-0.375 z m 5.50977,26.70508 c -0.18174,0.32643 -0.37035,0.64957 -0.56641,0.96875 0.58089,0.23217 1.19376,0.37602 1.85742,0.3789 0.74173,0.003 1.06256,-0.43535 1.08985,-1.10937 -0.0622,0.006 -0.12329,0.0218 -0.18555,0.0273 -0.38593,0.0343 -0.77205,-0.0651 -1.15625,-0.11523 -0.34688,-0.0452 -0.69123,-0.10796 -1.03906,-0.15039 z m -56.046878,5.66992 c 0.03051,0.15895 0.09422,0.4125 0.18164,0.71679 0.0019,-0.003 0.004,-0.005 0.0059,-0.008 -0.05182,-0.2351 -0.111337,-0.47131 -0.1875,-0.70898 z m -51.207031,30.91406 c -0.130095,0.17014 -0.166522,0.22056 -0.302735,0.39844 -0.680985,0.88929 -1.032824,3.09515 -2.0625,2.65429 -0.02468,-0.0106 -0.03206,-0.0129 -0.05664,-0.0234 -0.8823446,0.84393 -1.9586312,0.33958 -4.2421879,-1.79688 -0.812723,-0.34132 -1.9275356,-0.80998 -2.5722656,-1.08984 C 2.2585105,200.27575 1.0671443,200.45575 0,200.60156 v 10.14453 h 40.275391 c -1.352601,-0.82079 -2.79973,-1.56017 -4.19336,-2.3457 -2.410562,-0.24237 -4.858307,-0.68581 -7.228515,-0.70508 0.543528,-1.71006 0.604099,-1.91269 0.808593,-2.64062 -0.193705,0.007 -0.405822,-0.0676 -0.638671,-0.22657 -2.847625,2.25743 -5.809904,3.73081 -8.509766,3.23438 -0.347141,-0.0638 -0.626729,-0.16406 -0.929688,-0.25195 -0.283008,0.0453 -0.577551,0.0113 -0.888672,-0.13672 -2.951591,-1.40475 -4.339338,-4.62534 -5.794921,-7.76758 z m 31.652343,6.76758 c -0.291834,0.51207 -0.689991,0.91729 -1.267578,1.13867 -0.07229,0.0277 -0.148085,0.0366 -0.220703,0.0625 -0.285008,0.95686 -0.567348,1.91473 -0.853515,2.87109 h 3.871093 c -0.491588,-1.14983 -0.688566,-2.4695 -0.736328,-3.78125 -0.266574,-0.0932 -0.525137,-0.19992 -0.792969,-0.29101 z" />
    </clipPath>
    <clipPath
       clipPathUnits="userSpaceOnUse"
       id="clipPath559-0">
      <path
         id="path561-9"
         style="fill:#ffeeaa;stroke:#004eff;stroke-width:0;stroke-linecap:square;stroke-miterlimit:0;stroke-opacity:0.613764;paint-order:markers fill stroke"
         d="m 0,87.251953 v 83.578127 c 0.70085908,0.31914 1.5211244,0.80486 2.5058594,1.51758 2.4248645,-0.98785 4.0643034,-1.45001 5.1660156,-1.50196 0.011061,-0.002 0.021943,-0.003 0.033203,-0.002 1.0980419,-0.0443 1.6621826,0.32697 1.9277344,1.00977 1.1016166,-0.2017 2.2140816,-0.12286 3.3320316,0.0684 1.943015,-0.31823 3.191816,-0.15124 4.048828,0.47851 0.220463,-0.39283 0.458181,-0.6576 0.742187,-0.42773 1.463447,1.18445 2.722765,2.5803 3.931641,4.02929 0.173324,0.10897 0.344552,0.22071 0.517578,0.33008 1.268642,-0.04 2.536464,-0.0634 3.804688,-0.0742 0.541029,-1.84302 0.917477,-3.86163 2.5625,-4.37109 1.13732,-0.35223 2.301372,-0.49823 3.480468,-0.51758 0.807001,-0.67415 1.620534,-1.17157 2.201172,-0.56836 0.13309,0.13826 0.208983,0.23225 0.337891,0.36719 1.434024,-1.0956 3.181556,-1.00536 5.070312,0.084 0.387666,-0.47218 0.815792,-0.71168 1.337891,-0.41015 0.543738,0.31402 1.010246,0.60822 1.5,0.9082 8.253905,-3.32076 10.901169,-2.76453 11.466797,-0.22461 1.085565,0.10832 2.171795,0.25782 3.25,0.44336 2.097963,-0.55254 3.686689,-0.97865 4.746094,-1.16602 0.05481,-0.16648 0.09601,-0.33795 0.158203,-0.50195 0.437502,-1.15361 0.997728,-2.11416 1.662109,-3.05469 0.01582,-0.12738 0.0444,-0.2529 0.0918,-0.37695 0.951061,-2.48898 2.316441,-4.92961 4.232422,-6.78125 0.978485,-0.94562 2.583237,-0.91069 3.929687,-1.10742 0.161469,-0.0236 0.324078,-0.0301 0.486329,-0.0449 3.529755,-4.16377 6.191003,-7.82718 13.677734,-6.46485 0.327509,0.0596 0.627286,0.17886 0.912109,0.32813 1.077841,-3.08643 2.524836,-5.64937 4.574219,-6.64844 1.016957,-0.49576 1.930404,-0.7226 2.753906,-0.73242 2.226416,-0.0266 3.768215,1.47644 4.857422,3.4707 0.437854,-0.27239 0.911769,-0.46841 1.431639,-0.53906 1.2952,-0.17602 2.60158,0.007 3.89648,0.30469 -0.68208,-2.69963 -0.48181,-5.51291 1.13086,-7.90235 1.0047,-1.48863 2.1278,-2.19356 3.48828,-3.21875 2.12041,-1.98497 3.53055,-2.56039 7.48047,-2.32812 0.35017,0.0206 0.68574,0.1028 1.01172,0.22461 0.0689,-0.0381 0.12311,-0.0906 0.20313,-0.11719 1.08357,-0.36081 2.02714,-0.65808 2.9414,-0.93945 -0.0309,-0.62159 0.4965,-1.24406 0.8711,-1.8711 0.047,-0.20454 0.0912,-0.41001 0.14257,-0.61328 -1.51319,0.18625 -3.02264,0.20217 -4.27148,-0.34375 -1.9003,-0.83069 -3.13731,-2.85387 -4.07227,-4.70508 -0.63581,-1.25896 -0.47608,-2.79928 -0.42968,-4.20898 0.0654,-1.98539 1.20579,-4.89725 1.82031,-6.71484 0.93506,-2.31627 1.91779,-5.36752 3.96094,-6.97266 2.23239,-1.75384 4.6482,-1.68695 7.18554,-1.59375 4.90901,0.18023 6.08712,0.39206 11.19727,0.91406 2.53996,0.42833 4.81165,0.73349 7.28711,1.4375 0.35427,0.10076 0.72415,0.21829 1.10156,0.34375 0.49921,-0.6097 1.28216,-1.52453 1.82422,-2.1582 0.15125,-0.19367 0.29752,-0.39041 0.44336,-0.58789 0.10148,-2.004 0.0879,-3.03717 0.0879,-5.77735 v -3.298824 c -0.1441,-0.754612 -0.24302,-1.517471 -0.28125,-2.279297 -0.0649,-1.29329 0.10164,-2.58888 0.15234,-3.882812 0.41781,-1.334769 0.66951,-2.733222 1.25391,-4.003906 0.12807,-0.278461 0.27146,-0.54397 0.41992,-0.804688 z m 180.92969,0 c -0.60068,4.050668 -0.22788,1.630396 -0.4668,2.910156 0.22122,0.73201 0.46136,1.458358 0.6582,2.197266 0.0525,0.196817 0.0987,0.402319 0.084,0.605469 -0.019,0.261823 -0.60669,-0.488215 -0.19727,0.332031 0.28968,0.580346 0.78784,1.115444 1.32031,1.599609 v -7.644531 z m 1.39843,22.130857 c -0.24814,0.44414 -0.5018,0.9056 -0.76367,1.38867 0.0831,0.37387 0.16269,0.74903 0.25782,1.11914 0.1418,1.08674 0.28142,2.17337 0.42578,3.25977 0.0305,0.22972 0.0548,0.46062 0.0801,0.69141 z m 0,16.39063 c -0.28359,0.91589 -0.65538,1.7923 -1.18945,2.58398 -1.53789,2.27972 -5.34394,1.99818 -7.64258,2.04688 -1.44453,-0.0903 -2.89471,-0.11627 -4.33398,-0.26953 -3.22033,-0.34294 -6.37447,-0.97427 -9.41406,-1.97852 -0.55441,0.62982 -1.10808,1.25876 -1.48828,1.91797 -0.49683,0.28025 -0.97972,0.58733 -1.49024,0.8418 -1.09856,0.54759 -3.67865,1.61484 -4.68945,2.00781 -0.33542,0.1304 -0.68195,0.23036 -1.02539,0.33789 -0.10534,0.033 -0.22266,0.0306 -0.32031,0.082 -0.41871,0.22036 -0.81254,0.4859 -1.21876,0.72852 0.0725,-0.0609 0.14432,-0.12264 0.2168,-0.1836 -0.2249,0.11985 -0.45291,0.23458 -0.68164,0.34766 -1.99419,2.65449 -3.86167,5.4091 -6.09961,7.87109 -0.75057,0.80081 -1.15529,2.35765 -2.25195,2.40235 -0.10301,0.004 -0.20729,0.003 -0.31055,0.006 0.10753,1.03634 -0.10537,2.09016 -0.14648,3.13477 -0.87595,2.37209 -1.0555,3.40303 -2.57813,4.43555 0.0554,0.3203 0.11116,0.6406 0.16602,0.96094 0.35155,2.05263 0.67078,4.1106 1.00586,6.16601 2.01293,12.34717 -9.29484,14.15215 -12.90625,3.8418 -0.95212,0.14317 -1.9028,0.30214 -2.85742,0.42578 -0.35736,0.43893 -0.71561,0.8771 -1.07032,1.31836 -1.0391,1.29262 -2.09071,2.80805 -3.43945,3.80664 -0.11911,0.53945 -0.36079,1.10775 -0.67383,1.66211 -0.11733,0.4329 -0.29787,0.85738 -0.46875,1.2832 -0.40186,1.49282 -1.66972,3.19589 -2.05273,4.67969 -1.08547,4.20511 -1.79505,6.90217 -2.51367,9.5957 -0.23988,2.67384 -0.47207,4.70935 -0.50391,4.96875 -0.50659,4.12729 -2.09821,13.68178 -3.70899,19.95117 h 73.6875 z m -32.74609,7.74414 c -0.0743,0.0967 -0.14293,0.19782 -0.2168,0.29492 0.0537,-0.0563 0.10993,-0.11057 0.16016,-0.16992 0.0299,-0.0353 0.0848,-0.1617 0.0566,-0.125 z m -34.9375,3.09961 c 0.0501,-0.11833 -0.20802,0.33123 -0.0996,0.375 0.0236,-0.12774 0.0491,-0.25565 0.0996,-0.375 z m 5.50977,26.70508 c -0.18174,0.32643 -0.37035,0.64957 -0.56641,0.96875 0.58089,0.23217 1.19376,0.37602 1.85742,0.3789 0.74173,0.003 1.06256,-0.43535 1.08985,-1.10937 -0.0622,0.006 -0.12329,0.0218 -0.18555,0.0273 -0.38593,0.0343 -0.77205,-0.0651 -1.15625,-0.11523 -0.34688,-0.0452 -0.69123,-0.10796 -1.03906,-0.15039 z m -56.046878,5.66992 c 0.03051,0.15895 0.09422,0.4125 0.18164,0.71679 0.0019,-0.003 0.004,-0.005 0.0059,-0.008 -0.05182,-0.2351 -0.111337,-0.47131 -0.1875,-0.70898 z m -51.207031,30.91406 c -0.130095,0.17014 -0.166522,0.22056 -0.302735,0.39844 -0.680985,0.88929 -1.032824,3.09515 -2.0625,2.65429 -0.02468,-0.0106 -0.03206,-0.0129 -0.05664,-0.0234 -0.8823446,0.84393 -1.9586312,0.33958 -4.2421879,-1.79688 -0.812723,-0.34132 -1.9275356,-0.80998 -2.5722656,-1.08984 C 2.2585105,200.27575 1.0671443,200.45575 0,200.60156 v 10.14453 h 40.275391 c -1.352601,-0.82079 -2.79973,-1.56017 -4.19336,-2.3457 -2.410562,-0.24237 -4.858307,-0.68581 -7.228515,-0.70508 0.543528,-1.71006 0.604099,-1.91269 0.808593,-2.64062 -0.193705,0.007 -0.405822,-0.0676 -0.638671,-0.22657 -2.847625,2.25743 -5.809904,3.73081 -8.509766,3.23438 -0.347141,-0.0638 -0.626729,-0.16406 -0.929688,-0.25195 -0.283008,0.0453 -0.577551,0.0113 -0.888672,-0.13672 -2.951591,-1.40475 -4.339338,-4.62534 -5.794921,-7.76758 z m 31.652343,6.76758 c -0.291834,0.51207 -0.689991,0.91729 -1.267578,1.13867 -0.07229,0.0277 -0.148085,0.0366 -0.220703,0.0625 -0.285008,0.95686 -0.567348,1.91473 -0.853515,2.87109 h 3.871093 c -0.491588,-1.14983 -0.688566,-2.4695 -0.736328,-3.78125 -0.266574,-0.0932 -0.525137,-0.19992 -0.792969,-0.29101 z" />
    </clipPath>
    <clipPath
       clipPathUnits="userSpaceOnUse"
       id="clipPath559-6-3">
      <path
         id="path561-7-6"
         style="fill:#ffeeaa;stroke:#004eff;stroke-width:0;stroke-linecap:square;stroke-miterlimit:0;stroke-opacity:0.613764;paint-order:markers fill stroke"
         d="m 0,87.251953 v 83.578127 c 0.70085908,0.31914 1.5211244,0.80486 2.5058594,1.51758 2.4248645,-0.98785 4.0643034,-1.45001 5.1660156,-1.50196 0.011061,-0.002 0.021943,-0.003 0.033203,-0.002 1.0980419,-0.0443 1.6621826,0.32697 1.9277344,1.00977 1.1016166,-0.2017 2.2140816,-0.12286 3.3320316,0.0684 1.943015,-0.31823 3.191816,-0.15124 4.048828,0.47851 0.220463,-0.39283 0.458181,-0.6576 0.742187,-0.42773 1.463447,1.18445 2.722765,2.5803 3.931641,4.02929 0.173324,0.10897 0.344552,0.22071 0.517578,0.33008 1.268642,-0.04 2.536464,-0.0634 3.804688,-0.0742 0.541029,-1.84302 0.917477,-3.86163 2.5625,-4.37109 1.13732,-0.35223 2.301372,-0.49823 3.480468,-0.51758 0.807001,-0.67415 1.620534,-1.17157 2.201172,-0.56836 0.13309,0.13826 0.208983,0.23225 0.337891,0.36719 1.434024,-1.0956 3.181556,-1.00536 5.070312,0.084 0.387666,-0.47218 0.815792,-0.71168 1.337891,-0.41015 0.543738,0.31402 1.010246,0.60822 1.5,0.9082 8.253905,-3.32076 10.901169,-2.76453 11.466797,-0.22461 1.085565,0.10832 2.171795,0.25782 3.25,0.44336 2.097963,-0.55254 3.686689,-0.97865 4.746094,-1.16602 0.05481,-0.16648 0.09601,-0.33795 0.158203,-0.50195 0.437502,-1.15361 0.997728,-2.11416 1.662109,-3.05469 0.01582,-0.12738 0.0444,-0.2529 0.0918,-0.37695 0.951061,-2.48898 2.316441,-4.92961 4.232422,-6.78125 0.978485,-0.94562 2.583237,-0.91069 3.929687,-1.10742 0.161469,-0.0236 0.324078,-0.0301 0.486329,-0.0449 3.529755,-4.16377 6.191003,-7.82718 13.677734,-6.46485 0.327509,0.0596 0.627286,0.17886 0.912109,0.32813 1.077841,-3.08643 2.524836,-5.64937 4.574219,-6.64844 1.016957,-0.49576 1.930404,-0.7226 2.753906,-0.73242 2.226416,-0.0266 3.768215,1.47644 4.857422,3.4707 0.437854,-0.27239 0.911769,-0.46841 1.431639,-0.53906 1.2952,-0.17602 2.60158,0.007 3.89648,0.30469 -0.68208,-2.69963 -0.48181,-5.51291 1.13086,-7.90235 1.0047,-1.48863 2.1278,-2.19356 3.48828,-3.21875 2.12041,-1.98497 3.53055,-2.56039 7.48047,-2.32812 0.35017,0.0206 0.68574,0.1028 1.01172,0.22461 0.0689,-0.0381 0.12311,-0.0906 0.20313,-0.11719 1.08357,-0.36081 2.02714,-0.65808 2.9414,-0.93945 -0.0309,-0.62159 0.4965,-1.24406 0.8711,-1.8711 0.047,-0.20454 0.0912,-0.41001 0.14257,-0.61328 -1.51319,0.18625 -3.02264,0.20217 -4.27148,-0.34375 -1.9003,-0.83069 -3.13731,-2.85387 -4.07227,-4.70508 -0.63581,-1.25896 -0.47608,-2.79928 -0.42968,-4.20898 0.0654,-1.98539 1.20579,-4.89725 1.82031,-6.71484 0.93506,-2.31627 1.91779,-5.36752 3.96094,-6.97266 2.23239,-1.75384 4.6482,-1.68695 7.18554,-1.59375 4.90901,0.18023 6.08712,0.39206 11.19727,0.91406 2.53996,0.42833 4.81165,0.73349 7.28711,1.4375 0.35427,0.10076 0.72415,0.21829 1.10156,0.34375 0.49921,-0.6097 1.28216,-1.52453 1.82422,-2.1582 0.15125,-0.19367 0.29752,-0.39041 0.44336,-0.58789 0.10148,-2.004 0.0879,-3.03717 0.0879,-5.77735 v -3.298824 c -0.1441,-0.754612 -0.24302,-1.517471 -0.28125,-2.279297 -0.0649,-1.29329 0.10164,-2.58888 0.15234,-3.882812 0.41781,-1.334769 0.66951,-2.733222 1.25391,-4.003906 0.12807,-0.278461 0.27146,-0.54397 0.41992,-0.804688 z m 180.92969,0 c -0.60068,4.050668 -0.22788,1.630396 -0.4668,2.910156 0.22122,0.73201 0.46136,1.458358 0.6582,2.197266 0.0525,0.196817 0.0987,0.402319 0.084,0.605469 -0.019,0.261823 -0.60669,-0.488215 -0.19727,0.332031 0.28968,0.580346 0.78784,1.115444 1.32031,1.599609 v -7.644531 z m 1.39843,22.130857 c -0.24814,0.44414 -0.5018,0.9056 -0.76367,1.38867 0.0831,0.37387 0.16269,0.74903 0.25782,1.11914 0.1418,1.08674 0.28142,2.17337 0.42578,3.25977 0.0305,0.22972 0.0548,0.46062 0.0801,0.69141 z m 0,16.39063 c -0.28359,0.91589 -0.65538,1.7923 -1.18945,2.58398 -1.53789,2.27972 -5.34394,1.99818 -7.64258,2.04688 -1.44453,-0.0903 -2.89471,-0.11627 -4.33398,-0.26953 -3.22033,-0.34294 -6.37447,-0.97427 -9.41406,-1.97852 -0.55441,0.62982 -1.10808,1.25876 -1.48828,1.91797 -0.49683,0.28025 -0.97972,0.58733 -1.49024,0.8418 -1.09856,0.54759 -3.67865,1.61484 -4.68945,2.00781 -0.33542,0.1304 -0.68195,0.23036 -1.02539,0.33789 -0.10534,0.033 -0.22266,0.0306 -0.32031,0.082 -0.41871,0.22036 -0.81254,0.4859 -1.21876,0.72852 0.0725,-0.0609 0.14432,-0.12264 0.2168,-0.1836 -0.2249,0.11985 -0.45291,0.23458 -0.68164,0.34766 -1.99419,2.65449 -3.86167,5.4091 -6.09961,7.87109 -0.75057,0.80081 -1.15529,2.35765 -2.25195,2.40235 -0.10301,0.004 -0.20729,0.003 -0.31055,0.006 0.10753,1.03634 -0.10537,2.09016 -0.14648,3.13477 -0.87595,2.37209 -1.0555,3.40303 -2.57813,4.43555 0.0554,0.3203 0.11116,0.6406 0.16602,0.96094 0.35155,2.05263 0.67078,4.1106 1.00586,6.16601 2.01293,12.34717 -9.29484,14.15215 -12.90625,3.8418 -0.95212,0.14317 -1.9028,0.30214 -2.85742,0.42578 -0.35736,0.43893 -0.71561,0.8771 -1.07032,1.31836 -1.0391,1.29262 -2.09071,2.80805 -3.43945,3.80664 -0.11911,0.53945 -0.36079,1.10775 -0.67383,1.66211 -0.11733,0.4329 -0.29787,0.85738 -0.46875,1.2832 -0.40186,1.49282 -1.66972,3.19589 -2.05273,4.67969 -1.08547,4.20511 -1.79505,6.90217 -2.51367,9.5957 -0.23988,2.67384 -0.47207,4.70935 -0.50391,4.96875 -0.50659,4.12729 -2.09821,13.68178 -3.70899,19.95117 h 73.6875 z m -32.74609,7.74414 c -0.0743,0.0967 -0.14293,0.19782 -0.2168,0.29492 0.0537,-0.0563 0.10993,-0.11057 0.16016,-0.16992 0.0299,-0.0353 0.0848,-0.1617 0.0566,-0.125 z m -34.9375,3.09961 c 0.0501,-0.11833 -0.20802,0.33123 -0.0996,0.375 0.0236,-0.12774 0.0491,-0.25565 0.0996,-0.375 z m 5.50977,26.70508 c -0.18174,0.32643 -0.37035,0.64957 -0.56641,0.96875 0.58089,0.23217 1.19376,0.37602 1.85742,0.3789 0.74173,0.003 1.06256,-0.43535 1.08985,-1.10937 -0.0622,0.006 -0.12329,0.0218 -0.18555,0.0273 -0.38593,0.0343 -0.77205,-0.0651 -1.15625,-0.11523 -0.34688,-0.0452 -0.69123,-0.10796 -1.03906,-0.15039 z m -56.046878,5.66992 c 0.03051,0.15895 0.09422,0.4125 0.18164,0.71679 0.0019,-0.003 0.004,-0.005 0.0059,-0.008 -0.05182,-0.2351 -0.111337,-0.47131 -0.1875,-0.70898 z m -51.207031,30.91406 c -0.130095,0.17014 -0.166522,0.22056 -0.302735,0.39844 -0.680985,0.88929 -1.032824,3.09515 -2.0625,2.65429 -0.02468,-0.0106 -0.03206,-0.0129 -0.05664,-0.0234 -0.8823446,0.84393 -1.9586312,0.33958 -4.2421879,-1.79688 -0.812723,-0.34132 -1.9275356,-0.80998 -2.5722656,-1.08984 C 2.2585105,200.27575 1.0671443,200.45575 0,200.60156 v 10.14453 h 40.275391 c -1.352601,-0.82079 -2.79973,-1.56017 -4.19336,-2.3457 -2.410562,-0.24237 -4.858307,-0.68581 -7.228515,-0.70508 0.543528,-1.71006 0.604099,-1.91269 0.808593,-2.64062 -0.193705,0.007 -0.405822,-0.0676 -0.638671,-0.22657 -2.847625,2.25743 -5.809904,3.73081 -8.509766,3.23438 -0.347141,-0.0638 -0.626729,-0.16406 -0.929688,-0.25195 -0.283008,0.0453 -0.577551,0.0113 -0.888672,-0.13672 -2.951591,-1.40475 -4.339338,-4.62534 -5.794921,-7.76758 z m 31.652343,6.76758 c -0.291834,0.51207 -0.689991,0.91729 -1.267578,1.13867 -0.07229,0.0277 -0.148085,0.0366 -0.220703,0.0625 -0.285008,0.95686 -0.567348,1.91473 -0.853515,2.87109 h 3.871093 c -0.491588,-1.14983 -0.688566,-2.4695 -0.736328,-3.78125 -0.266574,-0.0932 -0.525137,-0.19992 -0.792969,-0.29101 z" />
    </clipPath>
  </defs>
  <sodipodi:namedview
     id="namedview10"
     pagecolor="#4a4a4a"
     bordercolor="#666666"
     borderopacity="1.0"
     inkscape:showpageshadow="2"
     inkscape:pageopacity="0.0"
     inkscape:pagecheckerboard="true"
     inkscape:deskcolor="#4c4c4c"
     showgrid="true"
     inkscape:zoom="1.2337665"
     inkscape:cx="82.67367"
     inkscape:cy="141.43682"
     inkscape:window-width="1920"
     inkscape:window-height="1007"
     inkscape:window-x="1920"
     inkscape:window-y="0"
     inkscape:window-maximized="1"
     inkscape:current-layer="g520">
    <inkscape:grid
       type="xygrid"
       id="grid137"
       originx="77.667508"
       originy="-0.57309055"
       spacingy="1"
       spacingx="1"
       units="px"
       visible="true"
       enabled="false" />
  </sodipodi:namedview>
  <g
     id="g520"
     style="display:inline"
     transform="translate(77.66751,-0.573091)">
    <g
       id="g1">
      <rect
         style="display:inline;fill:#000000;fill-opacity:1;stroke:none;stroke-width:0;stroke-linecap:square;stroke-linejoin:bevel;stroke-miterlimit:2.1;stroke-dasharray:none;stroke-opacity:0.613764;paint-order:stroke fill markers"
         id="rect3782-4-6"
         width="40"
         height="13"
         x="-12.67091"
         y="141.0441"
         rx="3.5546966"
         ry="13.230925" />
      <rect
         style="fill:#000000;fill-opacity:1;stroke:none;stroke-width:0;stroke-linecap:square;stroke-linejoin:bevel;stroke-miterlimit:2.1;stroke-dasharray:none;stroke-opacity:0.613764;paint-order:stroke fill markers"
         id="rect3782"
         width="40"
         height="13"
         x="28.110126"
         y="141.0444"
         rx="3.5546968"
         ry="13.230925" />
      <path
         style="display:inline;fill:#00ff00;fill-opacity:1;stroke:none;stroke-width:1;stroke-linecap:square;stroke-linejoin:miter;stroke-miterlimit:2.1;stroke-dasharray:none;stroke-opacity:1;paint-order:normal"
         d="m 157.29982,106.10653 c -14.13255,-4.65177 -20.80935,-21.28844 -13.74948,-34.259749 1.72712,-3.173295 6.70987,-7.845044 10.45413,-9.801626 l 2.90538,-1.518219 0.001,-29.881996 10e-4,-29.88199542 h 7.62944 7.62945 V 30.765272 60.7676 l 1.88447,0.787379 c 7.04369,2.943048 13.23301,11.524115 14.18066,19.660537 1.05519,9.059723 -4.92392,19.236694 -13.91151,23.678594 -3.56566,1.76225 -4.20933,1.90827 -8.9738,2.03574 -3.94648,0.10559 -5.80709,-0.0847 -8.05116,-0.82332 z m 11.30054,-14.934653 c 3.10521,-1.586686 4.22325,-3.311724 4.48415,-6.918672 0.38591,-5.335159 -2.58249,-9.149048 -7.48768,-9.620375 -3.33272,-0.320233 -5.72683,0.570805 -7.85096,2.921971 -3.03495,3.359322 -3.0046,8.130161 0.075,11.790052 2.60438,3.095129 6.87965,3.819749 10.7795,1.827024 z"
         id="path9294-9"
         transform="translate(-218.32992,-0.073091)" />
      <path
         style="display:inline;fill:#00ff00;fill-opacity:1;stroke:#00ff00;stroke-width:1.02407;stroke-linecap:square;stroke-linejoin:round;stroke-miterlimit:2.1;stroke-dasharray:none;stroke-opacity:1;paint-order:normal"
         d="m -63.008959,222.3223 c -1.134637,-0.87307 -1.432854,-1.51831 -1.258131,-2.72189 0.125963,-0.86753 9.134221,-24.8611 20.018391,-53.3189 l 19.788911,-51.74148 1.771599,-0.28111 c 2.570547,-0.40789 9.89613,1.49678 12.7894956,3.32531 l 2.1939254,1.38647 -20.415161,53.35936 -20.415174,53.35938 -1.72553,0.0895 c -2.754417,0.14289 -10.963098,-2.08291 -12.748767,-3.45679 z"
         id="path9296-2"
         inkscape:transform-center-x="-2.0262079"
         inkscape:transform-center-y="-2.4509723" />
      <path
         style="display:inline;fill:#00ff00;fill-opacity:1;stroke:none;stroke-width:1;stroke-linecap:square;stroke-linejoin:miter;stroke-miterlimit:2.1;stroke-dasharray:none;stroke-opacity:1;paint-order:normal"
         d="m 156.91227,268.58632 v -29.72501 l -3.16466,-1.68288 c -5.71831,-3.04082 -9.86852,-8.06971 -12.10869,-14.67234 -2.04153,-6.01714 -0.81202,-13.92599 3.03396,-19.51592 6.35363,-9.23468 17.50908,-13.03477 27.44054,-9.34756 8.56988,3.18169 14.48572,10.20984 15.92987,18.92504 1.52087,9.17814 -3.61833,19.20179 -12.51141,24.40266 l -3.36072,1.96542 v 29.6878 29.6878 h -7.62945 -7.62944 z m 12.716,-45.17072 c 2.38003,-1.62458 3.56015,-4.12603 3.56015,-7.54629 0,-5.99217 -4.9163,-9.60658 -11.40983,-8.38839 -3.67006,0.68851 -6.95919,6.03083 -6.19683,10.06513 0.45194,2.39164 2.07473,4.82795 3.99616,5.99946 2.44076,1.48814 7.78101,1.41912 10.05035,-0.12991 z"
         id="path9302-4"
         inkscape:label="path9302-4"
         transform="translate(-218.32992,-0.073091)" />
      <path
         style="display:inline;fill:#00ff00;fill-opacity:1;stroke:none;stroke-width:1;stroke-linecap:square;stroke-linejoin:miter;stroke-miterlimit:2.1;stroke-dasharray:none;stroke-opacity:1;paint-order:normal"
         d="M 47.9699,105.91668 C 33.83735,101.26491 27.16055,84.628236 34.22042,71.656927 c 1.72712,-3.173295 6.70987,-7.845044 10.45413,-9.801626 l 2.90538,-1.518219 0.001,-29.881996 10e-4,-29.881995 h 7.62944 7.62945 v 30.002327 30.002328 l 1.88447,0.787379 c 7.04369,2.943048 13.23301,11.524115 14.18066,19.660537 1.05519,9.059723 -4.92392,19.236698 -13.91151,23.678598 -3.56566,1.76225 -4.20933,1.90827 -8.9738,2.03574 -3.94648,0.10559 -5.80709,-0.0847 -8.05116,-0.82332 z M 59.27044,90.982023 c 3.10521,-1.586686 4.22325,-3.311724 4.48415,-6.918672 0.38591,-5.335159 -2.58249,-9.149048 -7.48768,-9.620375 -3.33272,-0.320233 -5.72683,0.570805 -7.85096,2.921971 -3.03495,3.359322 -3.0046,8.130161 0.075,11.790052 2.60438,3.095129 6.87965,3.819749 10.7795,1.827024 z"
         id="path9294-9-3" />
      <path
         style="display:inline;fill:#00ff00;fill-opacity:1;stroke:#00ff00;stroke-width:1.02407;stroke-linecap:square;stroke-linejoin:round;stroke-miterlimit:2.1;stroke-dasharray:none;stroke-opacity:1;paint-order:normal"
         d="m 45.991041,222.20554 c -1.134637,-0.87307 -1.432854,-1.51831 -1.258131,-2.72189 0.125963,-0.86753 9.134221,-24.8611 20.018391,-53.3189 l 19.788911,-51.74148 1.771599,-0.28111 c 2.570547,-0.40789 9.89613,1.49678 12.789496,3.32531 l 2.193923,1.38647 -20.415159,53.35936 -20.415174,53.35938 -1.72553,0.0895 C 55.98495,225.80507 47.776269,223.57927 45.9906,222.20539 Z"
         id="path9296-2-7"
         inkscape:transform-center-x="-2.0262079"
         inkscape:transform-center-y="-2.4509723" />
      <path
         style="display:inline;fill:#00ff00;fill-opacity:1;stroke:none;stroke-width:1;stroke-linecap:square;stroke-linejoin:miter;stroke-miterlimit:2.1;stroke-dasharray:none;stroke-opacity:1;paint-order:normal"
         d="m 47.58235,268.39647 v -29.72501 l -3.16466,-1.68288 c -5.71831,-3.04082 -9.86852,-8.06971 -12.10869,-14.67234 -2.04153,-6.01714 -0.81202,-13.92599 3.03396,-19.51592 6.35363,-9.23468 17.50908,-13.03477 27.44054,-9.34756 8.56988,3.18169 14.48572,10.20984 15.92987,18.92504 1.52087,9.17814 -3.61833,19.20179 -12.51141,24.40266 l -3.36072,1.96542 v 29.6878 29.6878 h -7.62945 -7.62944 z m 12.716,-45.17072 c 2.38003,-1.62458 3.56015,-4.12603 3.56015,-7.54629 0,-5.99217 -4.9163,-9.60658 -11.40983,-8.38839 -3.67006,0.68851 -6.95919,6.03083 -6.19683,10.06513 0.45194,2.39164 2.07473,4.82795 3.99616,5.99946 2.44076,1.48814 7.78101,1.41912 10.05035,-0.12991 z"
         id="path9302-4-5"
         inkscape:label="path9302-4" />
    </g>
  </g>
  <metadata
     id="metadata561">
    <rdf:RDF>
      <cc:Work
         rdf:about="">
        <dc:creator>
          <cc:Agent>
            <dc:title>bruno lefevre</dc:title>
          </cc:Agent>
        </dc:creator>
        <dc:date>14/09/2022</dc:date>
        <dc:title>Contacteur Close</dc:title>
        <dc:publisher>
          <cc:Agent>
            <dc:title>connect_ABLS</dc:title>
          </cc:Agent>
        </dc:publisher>
      </cc:Work>
    </rdf:RDF>
  </metadata>
</svg>
