<?xml version="1.0" encoding="UTF-8" standalone="no"?>
<!-- Created with Inkscape (http://www.inkscape.org/) -->

<svg
   width="52.246395mm"
   height="9.3485498mm"
   viewBox="0 0 52.246395 9.3485498"
   version="1.1"
   id="svg1"
   inkscape:version="1.3 (0e150ed6c4, 2023-07-21)"
   sodipodi:docname="2d_elec_Différentiel_A.svg"
   xmlns:inkscape="http://www.inkscape.org/namespaces/inkscape"
   xmlns:sodipodi="http://sodipodi.sourceforge.net/DTD/sodipodi-0.dtd"
   xmlns="http://www.w3.org/2000/svg"
   xmlns:svg="http://www.w3.org/2000/svg">
  <sodipodi:namedview
     id="namedview1"
     pagecolor="#ffffff"
     bordercolor="#666666"
     borderopacity="1.0"
     inkscape:showpageshadow="2"
     inkscape:pageopacity="0.0"
     inkscape:pagecheckerboard="0"
     inkscape:deskcolor="#d1d1d1"
     inkscape:document-units="px"
     inkscape:zoom="4.0059669"
     inkscape:cx="99.22698"
     inkscape:cy="18.34763"
     inkscape:window-width="1920"
     inkscape:window-height="1007"
     inkscape:window-x="1920"
     inkscape:window-y="0"
     inkscape:window-maximized="1"
     inkscape:current-layer="layer1" />
  <defs
     id="defs1">
    <rect
       x="431.64926"
       y="327.79565"
       width="23.331591"
       height="20.578278"
       id="rect30" />
    <rect
       x="320.10678"
       y="310.3082"
       width="7.9817576"
       height="11.466602"
       id="rect8" />
    <clipPath
       clipPathUnits="userSpaceOnUse"
       id="clipPath28">
      <path
         id="path29"
         style="fill:#ff0000;fill-opacity:1;fill-rule:nonzero;stroke:none;stroke-width:0.264583"
         d="m 69.174588,110.36484 v 9.28315 h 4.494818 v -2.20245 c -0.06436,0.004 -0.133683,0.005 -0.208772,0.003 -0.334708,-0.007 -0.591735,-0.31536 -0.900205,-0.44546 -0.05098,-0.0215 0.160517,0.15216 0.118856,0.11576 -0.06627,-0.0579 -0.197554,-0.0924 -0.192754,-0.18035 0.0079,-0.14473 0.02336,-0.28899 0.04238,-0.43253 -0.17794,-0.11551 -0.272258,-0.22949 -0.293004,-0.4899 -0.07775,-0.10988 -0.155705,-0.21947 -0.235646,-0.32762 -0.0011,-0.0325 -0.0027,-0.0652 -0.0041,-0.0977 -0.05475,-0.10429 -0.04966,-0.0966 -5.29e-4,-0.0119 -0.0043,-0.0952 -0.0087,-0.19048 -0.0093,-0.28577 -1.91e-4,-0.0316 0.007,-0.12535 0.01138,-0.094 0.05713,0.40879 -0.01781,0.29381 0.104386,0.55604 0.04344,0.0678 0.08917,0.13358 0.129191,0.18035 -0.0028,-0.13033 0.0083,-0.29359 0.03307,-0.50281 v -5.3e-4 c -0.06116,-0.0315 -0.122259,-0.0631 -0.183968,-0.0935 -0.01437,0.029 -0.02799,0.0586 -0.04341,0.0868 -0.0028,0.005 -0.0058,0.0157 -0.0083,0.0248 0.0097,-0.0492 0.0024,-0.13595 0.04031,-0.11731 0.0038,0.002 0.0076,0.004 0.01138,0.006 0.07424,-0.14989 0.141079,-0.30533 0.232027,-0.44339 -0.05066,-0.14183 -0.09218,-0.29818 -0.121957,-0.47025 -0.149247,-0.14762 -0.145265,-0.25407 -0.04031,-0.33383 -0.0083,-0.12403 -0.01117,-0.27892 0.0021,-0.43098 -0.02143,-0.0391 -0.01932,-0.0673 0.0098,-0.0847 0.02699,-0.2061 0.08756,-0.39479 0.210322,-0.47646 0.383368,-0.25504 0.838121,-0.4297 1.29708,-0.48628 v -2.24689 z m 2.97553,3.72639 c 0.0027,0.0405 0.0058,0.0785 0.0093,0.1111 0.0083,0.0768 0.01863,0.15117 0.031,0.22273 0.06534,0.0646 0.161311,0.13755 0.289906,0.21911 0.08404,-0.11549 0.172265,-0.21258 0.272852,-0.28681 -0.0043,-0.0307 -0.0086,-0.0496 -0.01291,-0.078 -0.101351,-0.11333 -0.205618,-0.21627 -0.298691,-0.30696 -0.125759,0.032 -0.22769,0.0704 -0.291454,0.11886 z m 0.114205,1.341 c 0.06368,0.0328 0.126995,0.066 0.190169,0.0997 0.02445,-0.12098 0.03625,-0.19117 0.04548,-0.2403 -0.03792,-0.0616 -0.07391,-0.12762 -0.106971,-0.19844 -0.02519,-0.0156 -0.05024,-0.0315 -0.07545,-0.047 -0.02109,0.14241 -0.03976,0.27279 -0.05323,0.38602 z m 0.190169,0.0997 c -0.01061,0.0525 -0.02278,0.1107 -0.03927,0.18448 1.61e-4,0.003 -5.3e-4,0.006 -5.3e-4,0.008 0.0024,-0.008 0.0045,-0.0179 0.0067,-0.0227 0.0027,-0.006 -5.29e-4,0.0124 -5.29e-4,0.0196 0.0222,-0.0391 0.04205,-0.0753 0.06201,-0.11163 0.0013,-0.0198 0.0024,-0.0397 0.0052,-0.0594 -0.01122,-0.006 -0.02236,-0.0121 -0.03359,-0.0181 z m 0.03359,0.0181 c 0.0072,0.004 0.0145,0.007 0.0217,0.0114 0.02706,-0.0493 0.05263,-0.0947 0.07855,-0.13849 -0.0185,-0.0247 -0.03608,-0.0505 -0.05375,-0.077 -0.01974,0.0675 -0.03723,0.13513 -0.04651,0.20412 z m -0.256831,0.38552 c 2.65e-4,0.0175 0.0021,0.0322 0.0031,0.0486 0.0034,0.004 0.0064,0.009 0.0098,0.0129 0.0061,0.007 -0.0063,-0.007 -0.0098,-0.0109 5.29e-4,0.0101 7.94e-4,0.0203 0.0016,0.03 0.09904,0.13999 0.198282,0.27994 0.302308,0.416 0.0054,-0.038 0.01201,-0.0758 0.0181,-0.11369 -0.0074,-0.0109 -0.01511,-0.0213 -0.02222,-0.0326 -0.03069,-0.0479 -0.05775,-0.11855 -0.08165,-0.19069 -0.07834,-0.0424 -0.158319,-0.087 -0.216525,-0.15348 -0.0016,-0.002 -0.003,-0.004 -0.0047,-0.006 z m 0.306959,0.49661 c -0.0035,0.0246 -0.0061,0.0493 -0.0093,0.0739 0.03982,0.0258 0.08287,0.0522 0.13126,0.0801 -0.04153,-0.0508 -0.08213,-0.10191 -0.121957,-0.154 z m -0.303858,-0.44597 c -4e-5,-7.9e-4 3.7e-5,-10e-4 0,-0.002 -0.01953,-0.0243 -0.03846,-0.0491 -0.05736,-0.0739 0.01886,0.0311 0.04693,0.0644 0.05736,0.076 z m 0.451136,-0.37879 c -0.0029,0.0149 -0.0053,0.03 -0.0083,0.045 0.05497,0.0304 0.109611,0.0615 0.16433,0.0925 -1.16e-4,-0.0131 -5.29e-4,-0.0266 -5.29e-4,-0.0398 -0.0649,-0.0285 -0.118716,-0.0605 -0.155546,-0.0977 z m -0.264583,0.11473 c -0.0019,0.003 -0.0034,0.006 -0.0052,0.009 -0.0011,0.005 -5.29e-4,0.004 -0.0016,0.008 -0.0016,0.0336 -0.0081,0.0695 -0.0093,0.10283 0.0136,0.0207 0.02756,0.0411 0.04083,0.062 -5.3e-4,-0.0428 -0.02349,-0.13671 -0.02479,-0.1819 z m -0.0067,0.017 c 2.38e-4,-0.005 5.29e-4,-0.01 5.29e-4,-0.0145 -0.0186,0.0607 -0.03458,0.17745 -5.29e-4,0.0145 z m 0.417028,0.2558 c -0.05282,0.0503 -0.1119,0.10043 -0.178284,0.15089 v 5.3e-4 c -0.01,0.008 -0.01611,0.0116 -0.02273,0.016 0.03943,0.0543 0.0855,0.10529 0.135392,0.15605 0.05705,-0.0925 0.114004,-0.18503 0.171048,-0.2775 -0.04511,0.007 -0.09896,0.0198 -0.09818,-0.015 2.06e-4,-0.009 2.27e-4,-0.0164 5.29e-4,-0.0253 -0.0031,-0.002 -0.0051,-0.004 -0.0078,-0.006 z m -0.201022,0.16743 c -0.01349,-0.0186 -0.02627,-0.0377 -0.03824,-0.0574 -0.0019,0.01 -0.0038,0.0195 -0.0057,0.0294 0.0074,0.0124 0.01487,0.0248 0.02223,0.0372 0.0069,-7.9e-4 0.01426,-0.004 0.0217,-0.009 z m 0.686782,-0.13023 c -0.08059,0.16568 -0.15366,0.31702 -0.21911,0.45372 0.03158,0.005 0.05611,0.009 0.0863,0.0145 0.08044,-0.13919 0.160878,-0.27837 0.241329,-0.41754 -0.02863,-0.0166 -0.05718,-0.0334 -0.08578,-0.0501 -0.0076,-1.1e-4 -0.01516,-2.5e-4 -0.02273,-5.3e-4 z m -0.203608,0.58446 c 0.0011,2.6e-4 0.0021,5.3e-4 0.0031,0.001 v -5.3e-4 c -0.0011,-2.4e-4 -0.0021,-2.6e-4 -0.0031,-5.3e-4 z m 0.55604,0.62839 c -0.02085,0.009 -0.04153,0.0187 -0.06201,0.0289 -0.04855,0.0242 -0.0072,0.0199 0.06201,0.008 z" />
    </clipPath>
    <clipPath
       clipPathUnits="userSpaceOnUse"
       id="clipPath28-5">
      <path
         id="path29-9"
         style="fill:#ff0000;fill-opacity:1;fill-rule:nonzero;stroke:none;stroke-width:0.264583"
         d="m 69.174588,110.36484 v 9.28315 h 4.494818 v -2.20245 c -0.06436,0.004 -0.133683,0.005 -0.208772,0.003 -0.334708,-0.007 -0.591735,-0.31536 -0.900205,-0.44546 -0.05098,-0.0215 0.160517,0.15216 0.118856,0.11576 -0.06627,-0.0579 -0.197554,-0.0924 -0.192754,-0.18035 0.0079,-0.14473 0.02336,-0.28899 0.04238,-0.43253 -0.17794,-0.11551 -0.272258,-0.22949 -0.293004,-0.4899 -0.07775,-0.10988 -0.155705,-0.21947 -0.235646,-0.32762 -0.0011,-0.0325 -0.0027,-0.0652 -0.0041,-0.0977 -0.05475,-0.10429 -0.04966,-0.0966 -5.29e-4,-0.0119 -0.0043,-0.0952 -0.0087,-0.19048 -0.0093,-0.28577 -1.91e-4,-0.0316 0.007,-0.12535 0.01138,-0.094 0.05713,0.40879 -0.01781,0.29381 0.104386,0.55604 0.04344,0.0678 0.08917,0.13358 0.129191,0.18035 -0.0028,-0.13033 0.0083,-0.29359 0.03307,-0.50281 v -5.3e-4 c -0.06116,-0.0315 -0.122259,-0.0631 -0.183968,-0.0935 -0.01437,0.029 -0.02799,0.0586 -0.04341,0.0868 -0.0028,0.005 -0.0058,0.0157 -0.0083,0.0248 0.0097,-0.0492 0.0024,-0.13595 0.04031,-0.11731 0.0038,0.002 0.0076,0.004 0.01138,0.006 0.07424,-0.14989 0.141079,-0.30533 0.232027,-0.44339 -0.05066,-0.14183 -0.09218,-0.29818 -0.121957,-0.47025 -0.149247,-0.14762 -0.145265,-0.25407 -0.04031,-0.33383 -0.0083,-0.12403 -0.01117,-0.27892 0.0021,-0.43098 -0.02143,-0.0391 -0.01932,-0.0673 0.0098,-0.0847 0.02699,-0.2061 0.08756,-0.39479 0.210322,-0.47646 0.383368,-0.25504 0.838121,-0.4297 1.29708,-0.48628 v -2.24689 z m 2.97553,3.72639 c 0.0027,0.0405 0.0058,0.0785 0.0093,0.1111 0.0083,0.0768 0.01863,0.15117 0.031,0.22273 0.06534,0.0646 0.161311,0.13755 0.289906,0.21911 0.08404,-0.11549 0.172265,-0.21258 0.272852,-0.28681 -0.0043,-0.0307 -0.0086,-0.0496 -0.01291,-0.078 -0.101351,-0.11333 -0.205618,-0.21627 -0.298691,-0.30696 -0.125759,0.032 -0.22769,0.0704 -0.291454,0.11886 z m 0.114205,1.341 c 0.06368,0.0328 0.126995,0.066 0.190169,0.0997 0.02445,-0.12098 0.03625,-0.19117 0.04548,-0.2403 -0.03792,-0.0616 -0.07391,-0.12762 -0.106971,-0.19844 -0.02519,-0.0156 -0.05024,-0.0315 -0.07545,-0.047 -0.02109,0.14241 -0.03976,0.27279 -0.05323,0.38602 z m 0.190169,0.0997 c -0.01061,0.0525 -0.02278,0.1107 -0.03927,0.18448 1.61e-4,0.003 -5.3e-4,0.006 -5.3e-4,0.008 0.0024,-0.008 0.0045,-0.0179 0.0067,-0.0227 0.0027,-0.006 -5.29e-4,0.0124 -5.29e-4,0.0196 0.0222,-0.0391 0.04205,-0.0753 0.06201,-0.11163 0.0013,-0.0198 0.0024,-0.0397 0.0052,-0.0594 -0.01122,-0.006 -0.02236,-0.0121 -0.03359,-0.0181 z m 0.03359,0.0181 c 0.0072,0.004 0.0145,0.007 0.0217,0.0114 0.02706,-0.0493 0.05263,-0.0947 0.07855,-0.13849 -0.0185,-0.0247 -0.03608,-0.0505 -0.05375,-0.077 -0.01974,0.0675 -0.03723,0.13513 -0.04651,0.20412 z m -0.256831,0.38552 c 2.65e-4,0.0175 0.0021,0.0322 0.0031,0.0486 0.0034,0.004 0.0064,0.009 0.0098,0.0129 0.0061,0.007 -0.0063,-0.007 -0.0098,-0.0109 5.29e-4,0.0101 7.94e-4,0.0203 0.0016,0.03 0.09904,0.13999 0.198282,0.27994 0.302308,0.416 0.0054,-0.038 0.01201,-0.0758 0.0181,-0.11369 -0.0074,-0.0109 -0.01511,-0.0213 -0.02222,-0.0326 -0.03069,-0.0479 -0.05775,-0.11855 -0.08165,-0.19069 -0.07834,-0.0424 -0.158319,-0.087 -0.216525,-0.15348 -0.0016,-0.002 -0.003,-0.004 -0.0047,-0.006 z m 0.306959,0.49661 c -0.0035,0.0246 -0.0061,0.0493 -0.0093,0.0739 0.03982,0.0258 0.08287,0.0522 0.13126,0.0801 -0.04153,-0.0508 -0.08213,-0.10191 -0.121957,-0.154 z m -0.303858,-0.44597 c -4e-5,-7.9e-4 3.7e-5,-10e-4 0,-0.002 -0.01953,-0.0243 -0.03846,-0.0491 -0.05736,-0.0739 0.01886,0.0311 0.04693,0.0644 0.05736,0.076 z m 0.451136,-0.37879 c -0.0029,0.0149 -0.0053,0.03 -0.0083,0.045 0.05497,0.0304 0.109611,0.0615 0.16433,0.0925 -1.16e-4,-0.0131 -5.29e-4,-0.0266 -5.29e-4,-0.0398 -0.0649,-0.0285 -0.118716,-0.0605 -0.155546,-0.0977 z m -0.264583,0.11473 c -0.0019,0.003 -0.0034,0.006 -0.0052,0.009 -0.0011,0.005 -5.29e-4,0.004 -0.0016,0.008 -0.0016,0.0336 -0.0081,0.0695 -0.0093,0.10283 0.0136,0.0207 0.02756,0.0411 0.04083,0.062 -5.3e-4,-0.0428 -0.02349,-0.13671 -0.02479,-0.1819 z m -0.0067,0.017 c 2.38e-4,-0.005 5.29e-4,-0.01 5.29e-4,-0.0145 -0.0186,0.0607 -0.03458,0.17745 -5.29e-4,0.0145 z m 0.417028,0.2558 c -0.05282,0.0503 -0.1119,0.10043 -0.178284,0.15089 v 5.3e-4 c -0.01,0.008 -0.01611,0.0116 -0.02273,0.016 0.03943,0.0543 0.0855,0.10529 0.135392,0.15605 0.05705,-0.0925 0.114004,-0.18503 0.171048,-0.2775 -0.04511,0.007 -0.09896,0.0198 -0.09818,-0.015 2.06e-4,-0.009 2.27e-4,-0.0164 5.29e-4,-0.0253 -0.0031,-0.002 -0.0051,-0.004 -0.0078,-0.006 z m -0.201022,0.16743 c -0.01349,-0.0186 -0.02627,-0.0377 -0.03824,-0.0574 -0.0019,0.01 -0.0038,0.0195 -0.0057,0.0294 0.0074,0.0124 0.01487,0.0248 0.02223,0.0372 0.0069,-7.9e-4 0.01426,-0.004 0.0217,-0.009 z m 0.686782,-0.13023 c -0.08059,0.16568 -0.15366,0.31702 -0.21911,0.45372 0.03158,0.005 0.05611,0.009 0.0863,0.0145 0.08044,-0.13919 0.160878,-0.27837 0.241329,-0.41754 -0.02863,-0.0166 -0.05718,-0.0334 -0.08578,-0.0501 -0.0076,-1.1e-4 -0.01516,-2.5e-4 -0.02273,-5.3e-4 z m -0.203608,0.58446 c 0.0011,2.6e-4 0.0021,5.3e-4 0.0031,0.001 v -5.3e-4 c -0.0011,-2.4e-4 -0.0021,-2.6e-4 -0.0031,-5.3e-4 z m 0.55604,0.62839 c -0.02085,0.009 -0.04153,0.0187 -0.06201,0.0289 -0.04855,0.0242 -0.0072,0.0199 0.06201,0.008 z" />
    </clipPath>
  </defs>
  <g
     inkscape:label="Calque 1"
     inkscape:groupmode="layer"
     id="layer1"
     transform="translate(-68.646609,-111.44678)">
    <g
       id="g30"
       transform="translate(2.1177708,10.093399)">
      <rect
         style="display:inline;fill:#006400;fill-opacity:1;stroke:none;stroke-width:0;stroke-linecap:square;stroke-linejoin:bevel;stroke-miterlimit:2.1;stroke-dasharray:none;stroke-opacity:0.613764;paint-order:stroke fill markers"
         id="rect3782-4-6"
         width="34.003223"
         height="2.1121678"
         x="70.942802"
         y="101.35338"
         rx="0"
         ry="0" />
      <path
         id="path10"
         style="fill:#006400;stroke:#006400;stroke-width:0.137454;stroke-linejoin:round;paint-order:stroke fill markers"
         d="m 73.600676,110.43564 a 4.2307525,4.5729113 0 0 0 -3.766179,2.24017 4.2307525,4.5729113 0 0 0 -0.0083,4.64674 4.2307525,4.5729113 0 0 0 3.758427,2.25516 z m -0.02687,2.21382 -0.0279,4.70823 a 2.1965209,2.3542851 0 0 1 -1.906861,-1.18545 2.1965209,2.3542851 0 0 1 0.01395,-2.36317 2.1965209,2.3542851 0 0 1 1.920813,-1.15961 z"
         clip-path="url(#clipPath28)"
         transform="translate(-2.6458334,-8.9958338)" />
      <path
         id="path10-7"
         style="fill:#006400;stroke:#006400;stroke-width:0.137454;stroke-linejoin:round;paint-order:stroke fill markers"
         d="m 73.600676,110.43564 a 4.2307525,4.5729113 0 0 0 -3.766179,2.24017 4.2307525,4.5729113 0 0 0 -0.0083,4.64674 4.2307525,4.5729113 0 0 0 3.758427,2.25516 z m -0.02687,2.21382 -0.0279,4.70823 a 2.1965209,2.3542851 0 0 1 -1.906861,-1.18545 2.1965209,2.3542851 0 0 1 0.01395,-2.36317 2.1965209,2.3542851 0 0 1 1.920813,-1.15961 z"
         clip-path="url(#clipPath28-5)"
         transform="rotate(180,89.277722,110.5334)" />
      <rect
         style="display:inline;fill:#006400;fill-opacity:1;stroke:none;stroke-width:0;stroke-linecap:square;stroke-linejoin:bevel;stroke-miterlimit:2.1;stroke-dasharray:none;stroke-opacity:0.613764;paint-order:stroke fill markers"
         id="rect3782-4-6-6"
         width="34.003223"
         height="2.1121678"
         x="70.960953"
         y="108.51765"
         rx="0"
         ry="0"
         inkscape:transform-center-x="0.033023654"
         inkscape:transform-center-y="-1.8429916" />
      <rect
         style="fill:#006400;fill-opacity:1;stroke:#000000;stroke-width:0.134995;stroke-linejoin:round;stroke-opacity:1;paint-order:stroke fill markers"
         id="rect29"
         width="6.4795885"
         height="6.4795885"
         x="112.22815"
         y="102.79719" />
      <rect
         style="fill:#006400;fill-opacity:1;stroke:none;stroke-width:0.0372905;stroke-linejoin:round;stroke-opacity:1;paint-order:stroke fill markers"
         id="rect29-9"
         width="3.1377094"
         height="1.0210428"
         x="109.37731"
         y="105.50101" />
      <text
         xml:space="preserve"
         transform="matrix(1.1192291,0,0,1.0643222,-369.9472,-245.77149)"
         id="text30"
         style="font-style:normal;font-variant:normal;font-weight:normal;font-stretch:normal;font-size:5.33334px;line-height:1.25;font-family:'Bitstream Vera Sans';-inkscape-font-specification:'Bitstream Vera Sans, Normal';font-variant-ligatures:none;font-variant-caps:normal;font-variant-numeric:normal;font-variant-east-asian:normal;white-space:pre;shape-inside:url(#rect30)"><tspan
           x="431.64844"
           y="332.51368"
           id="tspan1">D</tspan></text>
    </g>
  </g>
</svg>
