<?xml version="1.0" encoding="UTF-8" standalone="no"?>
<svg
   version="1.1"
   viewBox="0 0 128 143.61144"
   enable-background="new 0 0 298 298"
   id="svg8"
   sodipodi:docname="2d_inter_tri_close_source.svg"
   inkscape:version="1.3 (0e150ed6c4, 2023-07-21)"
   width="128"
   height="143.61143"
   xmlns:inkscape="http://www.inkscape.org/namespaces/inkscape"
   xmlns:sodipodi="http://sodipodi.sourceforge.net/DTD/sodipodi-0.dtd"
   xmlns="http://www.w3.org/2000/svg"
   xmlns:svg="http://www.w3.org/2000/svg"
   xmlns:rdf="http://www.w3.org/1999/02/22-rdf-syntax-ns#"
   xmlns:cc="http://creativecommons.org/ns#"
   xmlns:dc="http://purl.org/dc/elements/1.1/">
  <title
     id="title563">Contacteur Close</title>
  <defs
     id="defs12">
    <linearGradient
       id="linearGradient11315"
       inkscape:swatch="solid">
      <stop
         style="stop-color:#ff8080;stop-opacity:1;"
         offset="0"
         id="stop11313" />
    </linearGradient>
    <clipPath
       clipPathUnits="userSpaceOnUse"
       id="clipPath559">
      <path
         id="path561"
         style="fill:#ffeeaa;stroke:#004eff;stroke-width:0;stroke-linecap:square;stroke-miterlimit:0;stroke-opacity:0.613764;paint-order:markers fill stroke"
         d="m 0,87.251953 v 83.578127 c 0.70085908,0.31914 1.5211244,0.80486 2.5058594,1.51758 2.4248645,-0.98785 4.0643034,-1.45001 5.1660156,-1.50196 0.011061,-0.002 0.021943,-0.003 0.033203,-0.002 1.0980419,-0.0443 1.6621826,0.32697 1.9277344,1.00977 1.1016166,-0.2017 2.2140816,-0.12286 3.3320316,0.0684 1.943015,-0.31823 3.191816,-0.15124 4.048828,0.47851 0.220463,-0.39283 0.458181,-0.6576 0.742187,-0.42773 1.463447,1.18445 2.722765,2.5803 3.931641,4.02929 0.173324,0.10897 0.344552,0.22071 0.517578,0.33008 1.268642,-0.04 2.536464,-0.0634 3.804688,-0.0742 0.541029,-1.84302 0.917477,-3.86163 2.5625,-4.37109 1.13732,-0.35223 2.301372,-0.49823 3.480468,-0.51758 0.807001,-0.67415 1.620534,-1.17157 2.201172,-0.56836 0.13309,0.13826 0.208983,0.23225 0.337891,0.36719 1.434024,-1.0956 3.181556,-1.00536 5.070312,0.084 0.387666,-0.47218 0.815792,-0.71168 1.337891,-0.41015 0.543738,0.31402 1.010246,0.60822 1.5,0.9082 8.253905,-3.32076 10.901169,-2.76453 11.466797,-0.22461 1.085565,0.10832 2.171795,0.25782 3.25,0.44336 2.097963,-0.55254 3.686689,-0.97865 4.746094,-1.16602 0.05481,-0.16648 0.09601,-0.33795 0.158203,-0.50195 0.437502,-1.15361 0.997728,-2.11416 1.662109,-3.05469 0.01582,-0.12738 0.0444,-0.2529 0.0918,-0.37695 0.951061,-2.48898 2.316441,-4.92961 4.232422,-6.78125 0.978485,-0.94562 2.583237,-0.91069 3.929687,-1.10742 0.161469,-0.0236 0.324078,-0.0301 0.486329,-0.0449 3.529755,-4.16377 6.191003,-7.82718 13.677734,-6.46485 0.327509,0.0596 0.627286,0.17886 0.912109,0.32813 1.077841,-3.08643 2.524836,-5.64937 4.574219,-6.64844 1.016957,-0.49576 1.930404,-0.7226 2.753906,-0.73242 2.226416,-0.0266 3.768215,1.47644 4.857422,3.4707 0.437854,-0.27239 0.911769,-0.46841 1.431639,-0.53906 1.2952,-0.17602 2.60158,0.007 3.89648,0.30469 -0.68208,-2.69963 -0.48181,-5.51291 1.13086,-7.90235 1.0047,-1.48863 2.1278,-2.19356 3.48828,-3.21875 2.12041,-1.98497 3.53055,-2.56039 7.48047,-2.32812 0.35017,0.0206 0.68574,0.1028 1.01172,0.22461 0.0689,-0.0381 0.12311,-0.0906 0.20313,-0.11719 1.08357,-0.36081 2.02714,-0.65808 2.9414,-0.93945 -0.0309,-0.62159 0.4965,-1.24406 0.8711,-1.8711 0.047,-0.20454 0.0912,-0.41001 0.14257,-0.61328 -1.51319,0.18625 -3.02264,0.20217 -4.27148,-0.34375 -1.9003,-0.83069 -3.13731,-2.85387 -4.07227,-4.70508 -0.63581,-1.25896 -0.47608,-2.79928 -0.42968,-4.20898 0.0654,-1.98539 1.20579,-4.89725 1.82031,-6.71484 0.93506,-2.31627 1.91779,-5.36752 3.96094,-6.97266 2.23239,-1.75384 4.6482,-1.68695 7.18554,-1.59375 4.90901,0.18023 6.08712,0.39206 11.19727,0.91406 2.53996,0.42833 4.81165,0.73349 7.28711,1.4375 0.35427,0.10076 0.72415,0.21829 1.10156,0.34375 0.49921,-0.6097 1.28216,-1.52453 1.82422,-2.1582 0.15125,-0.19367 0.29752,-0.39041 0.44336,-0.58789 0.10148,-2.004 0.0879,-3.03717 0.0879,-5.77735 v -3.298824 c -0.1441,-0.754612 -0.24302,-1.517471 -0.28125,-2.279297 -0.0649,-1.29329 0.10164,-2.58888 0.15234,-3.882812 0.41781,-1.334769 0.66951,-2.733222 1.25391,-4.003906 0.12807,-0.278461 0.27146,-0.54397 0.41992,-0.804688 z m 180.92969,0 c -0.60068,4.050668 -0.22788,1.630396 -0.4668,2.910156 0.22122,0.73201 0.46136,1.458358 0.6582,2.197266 0.0525,0.196817 0.0987,0.402319 0.084,0.605469 -0.019,0.261823 -0.60669,-0.488215 -0.19727,0.332031 0.28968,0.580346 0.78784,1.115444 1.32031,1.599609 v -7.644531 z m 1.39843,22.130857 c -0.24814,0.44414 -0.5018,0.9056 -0.76367,1.38867 0.0831,0.37387 0.16269,0.74903 0.25782,1.11914 0.1418,1.08674 0.28142,2.17337 0.42578,3.25977 0.0305,0.22972 0.0548,0.46062 0.0801,0.69141 z m 0,16.39063 c -0.28359,0.91589 -0.65538,1.7923 -1.18945,2.58398 -1.53789,2.27972 -5.34394,1.99818 -7.64258,2.04688 -1.44453,-0.0903 -2.89471,-0.11627 -4.33398,-0.26953 -3.22033,-0.34294 -6.37447,-0.97427 -9.41406,-1.97852 -0.55441,0.62982 -1.10808,1.25876 -1.48828,1.91797 -0.49683,0.28025 -0.97972,0.58733 -1.49024,0.8418 -1.09856,0.54759 -3.67865,1.61484 -4.68945,2.00781 -0.33542,0.1304 -0.68195,0.23036 -1.02539,0.33789 -0.10534,0.033 -0.22266,0.0306 -0.32031,0.082 -0.41871,0.22036 -0.81254,0.4859 -1.21876,0.72852 0.0725,-0.0609 0.14432,-0.12264 0.2168,-0.1836 -0.2249,0.11985 -0.45291,0.23458 -0.68164,0.34766 -1.99419,2.65449 -3.86167,5.4091 -6.09961,7.87109 -0.75057,0.80081 -1.15529,2.35765 -2.25195,2.40235 -0.10301,0.004 -0.20729,0.003 -0.31055,0.006 0.10753,1.03634 -0.10537,2.09016 -0.14648,3.13477 -0.87595,2.37209 -1.0555,3.40303 -2.57813,4.43555 0.0554,0.3203 0.11116,0.6406 0.16602,0.96094 0.35155,2.05263 0.67078,4.1106 1.00586,6.16601 2.01293,12.34717 -9.29484,14.15215 -12.90625,3.8418 -0.95212,0.14317 -1.9028,0.30214 -2.85742,0.42578 -0.35736,0.43893 -0.71561,0.8771 -1.07032,1.31836 -1.0391,1.29262 -2.09071,2.80805 -3.43945,3.80664 -0.11911,0.53945 -0.36079,1.10775 -0.67383,1.66211 -0.11733,0.4329 -0.29787,0.85738 -0.46875,1.2832 -0.40186,1.49282 -1.66972,3.19589 -2.05273,4.67969 -1.08547,4.20511 -1.79505,6.90217 -2.51367,9.5957 -0.23988,2.67384 -0.47207,4.70935 -0.50391,4.96875 -0.50659,4.12729 -2.09821,13.68178 -3.70899,19.95117 h 73.6875 z m -32.74609,7.74414 c -0.0743,0.0967 -0.14293,0.19782 -0.2168,0.29492 0.0537,-0.0563 0.10993,-0.11057 0.16016,-0.16992 0.0299,-0.0353 0.0848,-0.1617 0.0566,-0.125 z m -34.9375,3.09961 c 0.0501,-0.11833 -0.20802,0.33123 -0.0996,0.375 0.0236,-0.12774 0.0491,-0.25565 0.0996,-0.375 z m 5.50977,26.70508 c -0.18174,0.32643 -0.37035,0.64957 -0.56641,0.96875 0.58089,0.23217 1.19376,0.37602 1.85742,0.3789 0.74173,0.003 1.06256,-0.43535 1.08985,-1.10937 -0.0622,0.006 -0.12329,0.0218 -0.18555,0.0273 -0.38593,0.0343 -0.77205,-0.0651 -1.15625,-0.11523 -0.34688,-0.0452 -0.69123,-0.10796 -1.03906,-0.15039 z m -56.046878,5.66992 c 0.03051,0.15895 0.09422,0.4125 0.18164,0.71679 0.0019,-0.003 0.004,-0.005 0.0059,-0.008 -0.05182,-0.2351 -0.111337,-0.47131 -0.1875,-0.70898 z m -51.207031,30.91406 c -0.130095,0.17014 -0.166522,0.22056 -0.302735,0.39844 -0.680985,0.88929 -1.032824,3.09515 -2.0625,2.65429 -0.02468,-0.0106 -0.03206,-0.0129 -0.05664,-0.0234 -0.8823446,0.84393 -1.9586312,0.33958 -4.2421879,-1.79688 -0.812723,-0.34132 -1.9275356,-0.80998 -2.5722656,-1.08984 C 2.2585105,200.27575 1.0671443,200.45575 0,200.60156 v 10.14453 h 40.275391 c -1.352601,-0.82079 -2.79973,-1.56017 -4.19336,-2.3457 -2.410562,-0.24237 -4.858307,-0.68581 -7.228515,-0.70508 0.543528,-1.71006 0.604099,-1.91269 0.808593,-2.64062 -0.193705,0.007 -0.405822,-0.0676 -0.638671,-0.22657 -2.847625,2.25743 -5.809904,3.73081 -8.509766,3.23438 -0.347141,-0.0638 -0.626729,-0.16406 -0.929688,-0.25195 -0.283008,0.0453 -0.577551,0.0113 -0.888672,-0.13672 -2.951591,-1.40475 -4.339338,-4.62534 -5.794921,-7.76758 z m 31.652343,6.76758 c -0.291834,0.51207 -0.689991,0.91729 -1.267578,1.13867 -0.07229,0.0277 -0.148085,0.0366 -0.220703,0.0625 -0.285008,0.95686 -0.567348,1.91473 -0.853515,2.87109 h 3.871093 c -0.491588,-1.14983 -0.688566,-2.4695 -0.736328,-3.78125 -0.266574,-0.0932 -0.525137,-0.19992 -0.792969,-0.29101 z" />
    </clipPath>
    <clipPath
       clipPathUnits="userSpaceOnUse"
       id="clipPath559-6">
      <path
         id="path561-7"
         style="fill:#ffeeaa;stroke:#004eff;stroke-width:0;stroke-linecap:square;stroke-miterlimit:0;stroke-opacity:0.613764;paint-order:markers fill stroke"
         d="m 0,87.251953 v 83.578127 c 0.70085908,0.31914 1.5211244,0.80486 2.5058594,1.51758 2.4248645,-0.98785 4.0643034,-1.45001 5.1660156,-1.50196 0.011061,-0.002 0.021943,-0.003 0.033203,-0.002 1.0980419,-0.0443 1.6621826,0.32697 1.9277344,1.00977 1.1016166,-0.2017 2.2140816,-0.12286 3.3320316,0.0684 1.943015,-0.31823 3.191816,-0.15124 4.048828,0.47851 0.220463,-0.39283 0.458181,-0.6576 0.742187,-0.42773 1.463447,1.18445 2.722765,2.5803 3.931641,4.02929 0.173324,0.10897 0.344552,0.22071 0.517578,0.33008 1.268642,-0.04 2.536464,-0.0634 3.804688,-0.0742 0.541029,-1.84302 0.917477,-3.86163 2.5625,-4.37109 1.13732,-0.35223 2.301372,-0.49823 3.480468,-0.51758 0.807001,-0.67415 1.620534,-1.17157 2.201172,-0.56836 0.13309,0.13826 0.208983,0.23225 0.337891,0.36719 1.434024,-1.0956 3.181556,-1.00536 5.070312,0.084 0.387666,-0.47218 0.815792,-0.71168 1.337891,-0.41015 0.543738,0.31402 1.010246,0.60822 1.5,0.9082 8.253905,-3.32076 10.901169,-2.76453 11.466797,-0.22461 1.085565,0.10832 2.171795,0.25782 3.25,0.44336 2.097963,-0.55254 3.686689,-0.97865 4.746094,-1.16602 0.05481,-0.16648 0.09601,-0.33795 0.158203,-0.50195 0.437502,-1.15361 0.997728,-2.11416 1.662109,-3.05469 0.01582,-0.12738 0.0444,-0.2529 0.0918,-0.37695 0.951061,-2.48898 2.316441,-4.92961 4.232422,-6.78125 0.978485,-0.94562 2.583237,-0.91069 3.929687,-1.10742 0.161469,-0.0236 0.324078,-0.0301 0.486329,-0.0449 3.529755,-4.16377 6.191003,-7.82718 13.677734,-6.46485 0.327509,0.0596 0.627286,0.17886 0.912109,0.32813 1.077841,-3.08643 2.524836,-5.64937 4.574219,-6.64844 1.016957,-0.49576 1.930404,-0.7226 2.753906,-0.73242 2.226416,-0.0266 3.768215,1.47644 4.857422,3.4707 0.437854,-0.27239 0.911769,-0.46841 1.431639,-0.53906 1.2952,-0.17602 2.60158,0.007 3.89648,0.30469 -0.68208,-2.69963 -0.48181,-5.51291 1.13086,-7.90235 1.0047,-1.48863 2.1278,-2.19356 3.48828,-3.21875 2.12041,-1.98497 3.53055,-2.56039 7.48047,-2.32812 0.35017,0.0206 0.68574,0.1028 1.01172,0.22461 0.0689,-0.0381 0.12311,-0.0906 0.20313,-0.11719 1.08357,-0.36081 2.02714,-0.65808 2.9414,-0.93945 -0.0309,-0.62159 0.4965,-1.24406 0.8711,-1.8711 0.047,-0.20454 0.0912,-0.41001 0.14257,-0.61328 -1.51319,0.18625 -3.02264,0.20217 -4.27148,-0.34375 -1.9003,-0.83069 -3.13731,-2.85387 -4.07227,-4.70508 -0.63581,-1.25896 -0.47608,-2.79928 -0.42968,-4.20898 0.0654,-1.98539 1.20579,-4.89725 1.82031,-6.71484 0.93506,-2.31627 1.91779,-5.36752 3.96094,-6.97266 2.23239,-1.75384 4.6482,-1.68695 7.18554,-1.59375 4.90901,0.18023 6.08712,0.39206 11.19727,0.91406 2.53996,0.42833 4.81165,0.73349 7.28711,1.4375 0.35427,0.10076 0.72415,0.21829 1.10156,0.34375 0.49921,-0.6097 1.28216,-1.52453 1.82422,-2.1582 0.15125,-0.19367 0.29752,-0.39041 0.44336,-0.58789 0.10148,-2.004 0.0879,-3.03717 0.0879,-5.77735 v -3.298824 c -0.1441,-0.754612 -0.24302,-1.517471 -0.28125,-2.279297 -0.0649,-1.29329 0.10164,-2.58888 0.15234,-3.882812 0.41781,-1.334769 0.66951,-2.733222 1.25391,-4.003906 0.12807,-0.278461 0.27146,-0.54397 0.41992,-0.804688 z m 180.92969,0 c -0.60068,4.050668 -0.22788,1.630396 -0.4668,2.910156 0.22122,0.73201 0.46136,1.458358 0.6582,2.197266 0.0525,0.196817 0.0987,0.402319 0.084,0.605469 -0.019,0.261823 -0.60669,-0.488215 -0.19727,0.332031 0.28968,0.580346 0.78784,1.115444 1.32031,1.599609 v -7.644531 z m 1.39843,22.130857 c -0.24814,0.44414 -0.5018,0.9056 -0.76367,1.38867 0.0831,0.37387 0.16269,0.74903 0.25782,1.11914 0.1418,1.08674 0.28142,2.17337 0.42578,3.25977 0.0305,0.22972 0.0548,0.46062 0.0801,0.69141 z m 0,16.39063 c -0.28359,0.91589 -0.65538,1.7923 -1.18945,2.58398 -1.53789,2.27972 -5.34394,1.99818 -7.64258,2.04688 -1.44453,-0.0903 -2.89471,-0.11627 -4.33398,-0.26953 -3.22033,-0.34294 -6.37447,-0.97427 -9.41406,-1.97852 -0.55441,0.62982 -1.10808,1.25876 -1.48828,1.91797 -0.49683,0.28025 -0.97972,0.58733 -1.49024,0.8418 -1.09856,0.54759 -3.67865,1.61484 -4.68945,2.00781 -0.33542,0.1304 -0.68195,0.23036 -1.02539,0.33789 -0.10534,0.033 -0.22266,0.0306 -0.32031,0.082 -0.41871,0.22036 -0.81254,0.4859 -1.21876,0.72852 0.0725,-0.0609 0.14432,-0.12264 0.2168,-0.1836 -0.2249,0.11985 -0.45291,0.23458 -0.68164,0.34766 -1.99419,2.65449 -3.86167,5.4091 -6.09961,7.87109 -0.75057,0.80081 -1.15529,2.35765 -2.25195,2.40235 -0.10301,0.004 -0.20729,0.003 -0.31055,0.006 0.10753,1.03634 -0.10537,2.09016 -0.14648,3.13477 -0.87595,2.37209 -1.0555,3.40303 -2.57813,4.43555 0.0554,0.3203 0.11116,0.6406 0.16602,0.96094 0.35155,2.05263 0.67078,4.1106 1.00586,6.16601 2.01293,12.34717 -9.29484,14.15215 -12.90625,3.8418 -0.95212,0.14317 -1.9028,0.30214 -2.85742,0.42578 -0.35736,0.43893 -0.71561,0.8771 -1.07032,1.31836 -1.0391,1.29262 -2.09071,2.80805 -3.43945,3.80664 -0.11911,0.53945 -0.36079,1.10775 -0.67383,1.66211 -0.11733,0.4329 -0.29787,0.85738 -0.46875,1.2832 -0.40186,1.49282 -1.66972,3.19589 -2.05273,4.67969 -1.08547,4.20511 -1.79505,6.90217 -2.51367,9.5957 -0.23988,2.67384 -0.47207,4.70935 -0.50391,4.96875 -0.50659,4.12729 -2.09821,13.68178 -3.70899,19.95117 h 73.6875 z m -32.74609,7.74414 c -0.0743,0.0967 -0.14293,0.19782 -0.2168,0.29492 0.0537,-0.0563 0.10993,-0.11057 0.16016,-0.16992 0.0299,-0.0353 0.0848,-0.1617 0.0566,-0.125 z m -34.9375,3.09961 c 0.0501,-0.11833 -0.20802,0.33123 -0.0996,0.375 0.0236,-0.12774 0.0491,-0.25565 0.0996,-0.375 z m 5.50977,26.70508 c -0.18174,0.32643 -0.37035,0.64957 -0.56641,0.96875 0.58089,0.23217 1.19376,0.37602 1.85742,0.3789 0.74173,0.003 1.06256,-0.43535 1.08985,-1.10937 -0.0622,0.006 -0.12329,0.0218 -0.18555,0.0273 -0.38593,0.0343 -0.77205,-0.0651 -1.15625,-0.11523 -0.34688,-0.0452 -0.69123,-0.10796 -1.03906,-0.15039 z m -56.046878,5.66992 c 0.03051,0.15895 0.09422,0.4125 0.18164,0.71679 0.0019,-0.003 0.004,-0.005 0.0059,-0.008 -0.05182,-0.2351 -0.111337,-0.47131 -0.1875,-0.70898 z m -51.207031,30.91406 c -0.130095,0.17014 -0.166522,0.22056 -0.302735,0.39844 -0.680985,0.88929 -1.032824,3.09515 -2.0625,2.65429 -0.02468,-0.0106 -0.03206,-0.0129 -0.05664,-0.0234 -0.8823446,0.84393 -1.9586312,0.33958 -4.2421879,-1.79688 -0.812723,-0.34132 -1.9275356,-0.80998 -2.5722656,-1.08984 C 2.2585105,200.27575 1.0671443,200.45575 0,200.60156 v 10.14453 h 40.275391 c -1.352601,-0.82079 -2.79973,-1.56017 -4.19336,-2.3457 -2.410562,-0.24237 -4.858307,-0.68581 -7.228515,-0.70508 0.543528,-1.71006 0.604099,-1.91269 0.808593,-2.64062 -0.193705,0.007 -0.405822,-0.0676 -0.638671,-0.22657 -2.847625,2.25743 -5.809904,3.73081 -8.509766,3.23438 -0.347141,-0.0638 -0.626729,-0.16406 -0.929688,-0.25195 -0.283008,0.0453 -0.577551,0.0113 -0.888672,-0.13672 -2.951591,-1.40475 -4.339338,-4.62534 -5.794921,-7.76758 z m 31.652343,6.76758 c -0.291834,0.51207 -0.689991,0.91729 -1.267578,1.13867 -0.07229,0.0277 -0.148085,0.0366 -0.220703,0.0625 -0.285008,0.95686 -0.567348,1.91473 -0.853515,2.87109 h 3.871093 c -0.491588,-1.14983 -0.688566,-2.4695 -0.736328,-3.78125 -0.266574,-0.0932 -0.525137,-0.19992 -0.792969,-0.29101 z" />
    </clipPath>
    <clipPath
       clipPathUnits="userSpaceOnUse"
       id="clipPath559-0">
      <path
         id="path561-9"
         style="fill:#ffeeaa;stroke:#004eff;stroke-width:0;stroke-linecap:square;stroke-miterlimit:0;stroke-opacity:0.613764;paint-order:markers fill stroke"
         d="m 0,87.251953 v 83.578127 c 0.70085908,0.31914 1.5211244,0.80486 2.5058594,1.51758 2.4248645,-0.98785 4.0643034,-1.45001 5.1660156,-1.50196 0.011061,-0.002 0.021943,-0.003 0.033203,-0.002 1.0980419,-0.0443 1.6621826,0.32697 1.9277344,1.00977 1.1016166,-0.2017 2.2140816,-0.12286 3.3320316,0.0684 1.943015,-0.31823 3.191816,-0.15124 4.048828,0.47851 0.220463,-0.39283 0.458181,-0.6576 0.742187,-0.42773 1.463447,1.18445 2.722765,2.5803 3.931641,4.02929 0.173324,0.10897 0.344552,0.22071 0.517578,0.33008 1.268642,-0.04 2.536464,-0.0634 3.804688,-0.0742 0.541029,-1.84302 0.917477,-3.86163 2.5625,-4.37109 1.13732,-0.35223 2.301372,-0.49823 3.480468,-0.51758 0.807001,-0.67415 1.620534,-1.17157 2.201172,-0.56836 0.13309,0.13826 0.208983,0.23225 0.337891,0.36719 1.434024,-1.0956 3.181556,-1.00536 5.070312,0.084 0.387666,-0.47218 0.815792,-0.71168 1.337891,-0.41015 0.543738,0.31402 1.010246,0.60822 1.5,0.9082 8.253905,-3.32076 10.901169,-2.76453 11.466797,-0.22461 1.085565,0.10832 2.171795,0.25782 3.25,0.44336 2.097963,-0.55254 3.686689,-0.97865 4.746094,-1.16602 0.05481,-0.16648 0.09601,-0.33795 0.158203,-0.50195 0.437502,-1.15361 0.997728,-2.11416 1.662109,-3.05469 0.01582,-0.12738 0.0444,-0.2529 0.0918,-0.37695 0.951061,-2.48898 2.316441,-4.92961 4.232422,-6.78125 0.978485,-0.94562 2.583237,-0.91069 3.929687,-1.10742 0.161469,-0.0236 0.324078,-0.0301 0.486329,-0.0449 3.529755,-4.16377 6.191003,-7.82718 13.677734,-6.46485 0.327509,0.0596 0.627286,0.17886 0.912109,0.32813 1.077841,-3.08643 2.524836,-5.64937 4.574219,-6.64844 1.016957,-0.49576 1.930404,-0.7226 2.753906,-0.73242 2.226416,-0.0266 3.768215,1.47644 4.857422,3.4707 0.437854,-0.27239 0.911769,-0.46841 1.431639,-0.53906 1.2952,-0.17602 2.60158,0.007 3.89648,0.30469 -0.68208,-2.69963 -0.48181,-5.51291 1.13086,-7.90235 1.0047,-1.48863 2.1278,-2.19356 3.48828,-3.21875 2.12041,-1.98497 3.53055,-2.56039 7.48047,-2.32812 0.35017,0.0206 0.68574,0.1028 1.01172,0.22461 0.0689,-0.0381 0.12311,-0.0906 0.20313,-0.11719 1.08357,-0.36081 2.02714,-0.65808 2.9414,-0.93945 -0.0309,-0.62159 0.4965,-1.24406 0.8711,-1.8711 0.047,-0.20454 0.0912,-0.41001 0.14257,-0.61328 -1.51319,0.18625 -3.02264,0.20217 -4.27148,-0.34375 -1.9003,-0.83069 -3.13731,-2.85387 -4.07227,-4.70508 -0.63581,-1.25896 -0.47608,-2.79928 -0.42968,-4.20898 0.0654,-1.98539 1.20579,-4.89725 1.82031,-6.71484 0.93506,-2.31627 1.91779,-5.36752 3.96094,-6.97266 2.23239,-1.75384 4.6482,-1.68695 7.18554,-1.59375 4.90901,0.18023 6.08712,0.39206 11.19727,0.91406 2.53996,0.42833 4.81165,0.73349 7.28711,1.4375 0.35427,0.10076 0.72415,0.21829 1.10156,0.34375 0.49921,-0.6097 1.28216,-1.52453 1.82422,-2.1582 0.15125,-0.19367 0.29752,-0.39041 0.44336,-0.58789 0.10148,-2.004 0.0879,-3.03717 0.0879,-5.77735 v -3.298824 c -0.1441,-0.754612 -0.24302,-1.517471 -0.28125,-2.279297 -0.0649,-1.29329 0.10164,-2.58888 0.15234,-3.882812 0.41781,-1.334769 0.66951,-2.733222 1.25391,-4.003906 0.12807,-0.278461 0.27146,-0.54397 0.41992,-0.804688 z m 180.92969,0 c -0.60068,4.050668 -0.22788,1.630396 -0.4668,2.910156 0.22122,0.73201 0.46136,1.458358 0.6582,2.197266 0.0525,0.196817 0.0987,0.402319 0.084,0.605469 -0.019,0.261823 -0.60669,-0.488215 -0.19727,0.332031 0.28968,0.580346 0.78784,1.115444 1.32031,1.599609 v -7.644531 z m 1.39843,22.130857 c -0.24814,0.44414 -0.5018,0.9056 -0.76367,1.38867 0.0831,0.37387 0.16269,0.74903 0.25782,1.11914 0.1418,1.08674 0.28142,2.17337 0.42578,3.25977 0.0305,0.22972 0.0548,0.46062 0.0801,0.69141 z m 0,16.39063 c -0.28359,0.91589 -0.65538,1.7923 -1.18945,2.58398 -1.53789,2.27972 -5.34394,1.99818 -7.64258,2.04688 -1.44453,-0.0903 -2.89471,-0.11627 -4.33398,-0.26953 -3.22033,-0.34294 -6.37447,-0.97427 -9.41406,-1.97852 -0.55441,0.62982 -1.10808,1.25876 -1.48828,1.91797 -0.49683,0.28025 -0.97972,0.58733 -1.49024,0.8418 -1.09856,0.54759 -3.67865,1.61484 -4.68945,2.00781 -0.33542,0.1304 -0.68195,0.23036 -1.02539,0.33789 -0.10534,0.033 -0.22266,0.0306 -0.32031,0.082 -0.41871,0.22036 -0.81254,0.4859 -1.21876,0.72852 0.0725,-0.0609 0.14432,-0.12264 0.2168,-0.1836 -0.2249,0.11985 -0.45291,0.23458 -0.68164,0.34766 -1.99419,2.65449 -3.86167,5.4091 -6.09961,7.87109 -0.75057,0.80081 -1.15529,2.35765 -2.25195,2.40235 -0.10301,0.004 -0.20729,0.003 -0.31055,0.006 0.10753,1.03634 -0.10537,2.09016 -0.14648,3.13477 -0.87595,2.37209 -1.0555,3.40303 -2.57813,4.43555 0.0554,0.3203 0.11116,0.6406 0.16602,0.96094 0.35155,2.05263 0.67078,4.1106 1.00586,6.16601 2.01293,12.34717 -9.29484,14.15215 -12.90625,3.8418 -0.95212,0.14317 -1.9028,0.30214 -2.85742,0.42578 -0.35736,0.43893 -0.71561,0.8771 -1.07032,1.31836 -1.0391,1.29262 -2.09071,2.80805 -3.43945,3.80664 -0.11911,0.53945 -0.36079,1.10775 -0.67383,1.66211 -0.11733,0.4329 -0.29787,0.85738 -0.46875,1.2832 -0.40186,1.49282 -1.66972,3.19589 -2.05273,4.67969 -1.08547,4.20511 -1.79505,6.90217 -2.51367,9.5957 -0.23988,2.67384 -0.47207,4.70935 -0.50391,4.96875 -0.50659,4.12729 -2.09821,13.68178 -3.70899,19.95117 h 73.6875 z m -32.74609,7.74414 c -0.0743,0.0967 -0.14293,0.19782 -0.2168,0.29492 0.0537,-0.0563 0.10993,-0.11057 0.16016,-0.16992 0.0299,-0.0353 0.0848,-0.1617 0.0566,-0.125 z m -34.9375,3.09961 c 0.0501,-0.11833 -0.20802,0.33123 -0.0996,0.375 0.0236,-0.12774 0.0491,-0.25565 0.0996,-0.375 z m 5.50977,26.70508 c -0.18174,0.32643 -0.37035,0.64957 -0.56641,0.96875 0.58089,0.23217 1.19376,0.37602 1.85742,0.3789 0.74173,0.003 1.06256,-0.43535 1.08985,-1.10937 -0.0622,0.006 -0.12329,0.0218 -0.18555,0.0273 -0.38593,0.0343 -0.77205,-0.0651 -1.15625,-0.11523 -0.34688,-0.0452 -0.69123,-0.10796 -1.03906,-0.15039 z m -56.046878,5.66992 c 0.03051,0.15895 0.09422,0.4125 0.18164,0.71679 0.0019,-0.003 0.004,-0.005 0.0059,-0.008 -0.05182,-0.2351 -0.111337,-0.47131 -0.1875,-0.70898 z m -51.207031,30.91406 c -0.130095,0.17014 -0.166522,0.22056 -0.302735,0.39844 -0.680985,0.88929 -1.032824,3.09515 -2.0625,2.65429 -0.02468,-0.0106 -0.03206,-0.0129 -0.05664,-0.0234 -0.8823446,0.84393 -1.9586312,0.33958 -4.2421879,-1.79688 -0.812723,-0.34132 -1.9275356,-0.80998 -2.5722656,-1.08984 C 2.2585105,200.27575 1.0671443,200.45575 0,200.60156 v 10.14453 h 40.275391 c -1.352601,-0.82079 -2.79973,-1.56017 -4.19336,-2.3457 -2.410562,-0.24237 -4.858307,-0.68581 -7.228515,-0.70508 0.543528,-1.71006 0.604099,-1.91269 0.808593,-2.64062 -0.193705,0.007 -0.405822,-0.0676 -0.638671,-0.22657 -2.847625,2.25743 -5.809904,3.73081 -8.509766,3.23438 -0.347141,-0.0638 -0.626729,-0.16406 -0.929688,-0.25195 -0.283008,0.0453 -0.577551,0.0113 -0.888672,-0.13672 -2.951591,-1.40475 -4.339338,-4.62534 -5.794921,-7.76758 z m 31.652343,6.76758 c -0.291834,0.51207 -0.689991,0.91729 -1.267578,1.13867 -0.07229,0.0277 -0.148085,0.0366 -0.220703,0.0625 -0.285008,0.95686 -0.567348,1.91473 -0.853515,2.87109 h 3.871093 c -0.491588,-1.14983 -0.688566,-2.4695 -0.736328,-3.78125 -0.266574,-0.0932 -0.525137,-0.19992 -0.792969,-0.29101 z" />
    </clipPath>
    <clipPath
       clipPathUnits="userSpaceOnUse"
       id="clipPath559-6-3">
      <path
         id="path561-7-6"
         style="fill:#ffeeaa;stroke:#004eff;stroke-width:0;stroke-linecap:square;stroke-miterlimit:0;stroke-opacity:0.613764;paint-order:markers fill stroke"
         d="m 0,87.251953 v 83.578127 c 0.70085908,0.31914 1.5211244,0.80486 2.5058594,1.51758 2.4248645,-0.98785 4.0643034,-1.45001 5.1660156,-1.50196 0.011061,-0.002 0.021943,-0.003 0.033203,-0.002 1.0980419,-0.0443 1.6621826,0.32697 1.9277344,1.00977 1.1016166,-0.2017 2.2140816,-0.12286 3.3320316,0.0684 1.943015,-0.31823 3.191816,-0.15124 4.048828,0.47851 0.220463,-0.39283 0.458181,-0.6576 0.742187,-0.42773 1.463447,1.18445 2.722765,2.5803 3.931641,4.02929 0.173324,0.10897 0.344552,0.22071 0.517578,0.33008 1.268642,-0.04 2.536464,-0.0634 3.804688,-0.0742 0.541029,-1.84302 0.917477,-3.86163 2.5625,-4.37109 1.13732,-0.35223 2.301372,-0.49823 3.480468,-0.51758 0.807001,-0.67415 1.620534,-1.17157 2.201172,-0.56836 0.13309,0.13826 0.208983,0.23225 0.337891,0.36719 1.434024,-1.0956 3.181556,-1.00536 5.070312,0.084 0.387666,-0.47218 0.815792,-0.71168 1.337891,-0.41015 0.543738,0.31402 1.010246,0.60822 1.5,0.9082 8.253905,-3.32076 10.901169,-2.76453 11.466797,-0.22461 1.085565,0.10832 2.171795,0.25782 3.25,0.44336 2.097963,-0.55254 3.686689,-0.97865 4.746094,-1.16602 0.05481,-0.16648 0.09601,-0.33795 0.158203,-0.50195 0.437502,-1.15361 0.997728,-2.11416 1.662109,-3.05469 0.01582,-0.12738 0.0444,-0.2529 0.0918,-0.37695 0.951061,-2.48898 2.316441,-4.92961 4.232422,-6.78125 0.978485,-0.94562 2.583237,-0.91069 3.929687,-1.10742 0.161469,-0.0236 0.324078,-0.0301 0.486329,-0.0449 3.529755,-4.16377 6.191003,-7.82718 13.677734,-6.46485 0.327509,0.0596 0.627286,0.17886 0.912109,0.32813 1.077841,-3.08643 2.524836,-5.64937 4.574219,-6.64844 1.016957,-0.49576 1.930404,-0.7226 2.753906,-0.73242 2.226416,-0.0266 3.768215,1.47644 4.857422,3.4707 0.437854,-0.27239 0.911769,-0.46841 1.431639,-0.53906 1.2952,-0.17602 2.60158,0.007 3.89648,0.30469 -0.68208,-2.69963 -0.48181,-5.51291 1.13086,-7.90235 1.0047,-1.48863 2.1278,-2.19356 3.48828,-3.21875 2.12041,-1.98497 3.53055,-2.56039 7.48047,-2.32812 0.35017,0.0206 0.68574,0.1028 1.01172,0.22461 0.0689,-0.0381 0.12311,-0.0906 0.20313,-0.11719 1.08357,-0.36081 2.02714,-0.65808 2.9414,-0.93945 -0.0309,-0.62159 0.4965,-1.24406 0.8711,-1.8711 0.047,-0.20454 0.0912,-0.41001 0.14257,-0.61328 -1.51319,0.18625 -3.02264,0.20217 -4.27148,-0.34375 -1.9003,-0.83069 -3.13731,-2.85387 -4.07227,-4.70508 -0.63581,-1.25896 -0.47608,-2.79928 -0.42968,-4.20898 0.0654,-1.98539 1.20579,-4.89725 1.82031,-6.71484 0.93506,-2.31627 1.91779,-5.36752 3.96094,-6.97266 2.23239,-1.75384 4.6482,-1.68695 7.18554,-1.59375 4.90901,0.18023 6.08712,0.39206 11.19727,0.91406 2.53996,0.42833 4.81165,0.73349 7.28711,1.4375 0.35427,0.10076 0.72415,0.21829 1.10156,0.34375 0.49921,-0.6097 1.28216,-1.52453 1.82422,-2.1582 0.15125,-0.19367 0.29752,-0.39041 0.44336,-0.58789 0.10148,-2.004 0.0879,-3.03717 0.0879,-5.77735 v -3.298824 c -0.1441,-0.754612 -0.24302,-1.517471 -0.28125,-2.279297 -0.0649,-1.29329 0.10164,-2.58888 0.15234,-3.882812 0.41781,-1.334769 0.66951,-2.733222 1.25391,-4.003906 0.12807,-0.278461 0.27146,-0.54397 0.41992,-0.804688 z m 180.92969,0 c -0.60068,4.050668 -0.22788,1.630396 -0.4668,2.910156 0.22122,0.73201 0.46136,1.458358 0.6582,2.197266 0.0525,0.196817 0.0987,0.402319 0.084,0.605469 -0.019,0.261823 -0.60669,-0.488215 -0.19727,0.332031 0.28968,0.580346 0.78784,1.115444 1.32031,1.599609 v -7.644531 z m 1.39843,22.130857 c -0.24814,0.44414 -0.5018,0.9056 -0.76367,1.38867 0.0831,0.37387 0.16269,0.74903 0.25782,1.11914 0.1418,1.08674 0.28142,2.17337 0.42578,3.25977 0.0305,0.22972 0.0548,0.46062 0.0801,0.69141 z m 0,16.39063 c -0.28359,0.91589 -0.65538,1.7923 -1.18945,2.58398 -1.53789,2.27972 -5.34394,1.99818 -7.64258,2.04688 -1.44453,-0.0903 -2.89471,-0.11627 -4.33398,-0.26953 -3.22033,-0.34294 -6.37447,-0.97427 -9.41406,-1.97852 -0.55441,0.62982 -1.10808,1.25876 -1.48828,1.91797 -0.49683,0.28025 -0.97972,0.58733 -1.49024,0.8418 -1.09856,0.54759 -3.67865,1.61484 -4.68945,2.00781 -0.33542,0.1304 -0.68195,0.23036 -1.02539,0.33789 -0.10534,0.033 -0.22266,0.0306 -0.32031,0.082 -0.41871,0.22036 -0.81254,0.4859 -1.21876,0.72852 0.0725,-0.0609 0.14432,-0.12264 0.2168,-0.1836 -0.2249,0.11985 -0.45291,0.23458 -0.68164,0.34766 -1.99419,2.65449 -3.86167,5.4091 -6.09961,7.87109 -0.75057,0.80081 -1.15529,2.35765 -2.25195,2.40235 -0.10301,0.004 -0.20729,0.003 -0.31055,0.006 0.10753,1.03634 -0.10537,2.09016 -0.14648,3.13477 -0.87595,2.37209 -1.0555,3.40303 -2.57813,4.43555 0.0554,0.3203 0.11116,0.6406 0.16602,0.96094 0.35155,2.05263 0.67078,4.1106 1.00586,6.16601 2.01293,12.34717 -9.29484,14.15215 -12.90625,3.8418 -0.95212,0.14317 -1.9028,0.30214 -2.85742,0.42578 -0.35736,0.43893 -0.71561,0.8771 -1.07032,1.31836 -1.0391,1.29262 -2.09071,2.80805 -3.43945,3.80664 -0.11911,0.53945 -0.36079,1.10775 -0.67383,1.66211 -0.11733,0.4329 -0.29787,0.85738 -0.46875,1.2832 -0.40186,1.49282 -1.66972,3.19589 -2.05273,4.67969 -1.08547,4.20511 -1.79505,6.90217 -2.51367,9.5957 -0.23988,2.67384 -0.47207,4.70935 -0.50391,4.96875 -0.50659,4.12729 -2.09821,13.68178 -3.70899,19.95117 h 73.6875 z m -32.74609,7.74414 c -0.0743,0.0967 -0.14293,0.19782 -0.2168,0.29492 0.0537,-0.0563 0.10993,-0.11057 0.16016,-0.16992 0.0299,-0.0353 0.0848,-0.1617 0.0566,-0.125 z m -34.9375,3.09961 c 0.0501,-0.11833 -0.20802,0.33123 -0.0996,0.375 0.0236,-0.12774 0.0491,-0.25565 0.0996,-0.375 z m 5.50977,26.70508 c -0.18174,0.32643 -0.37035,0.64957 -0.56641,0.96875 0.58089,0.23217 1.19376,0.37602 1.85742,0.3789 0.74173,0.003 1.06256,-0.43535 1.08985,-1.10937 -0.0622,0.006 -0.12329,0.0218 -0.18555,0.0273 -0.38593,0.0343 -0.77205,-0.0651 -1.15625,-0.11523 -0.34688,-0.0452 -0.69123,-0.10796 -1.03906,-0.15039 z m -56.046878,5.66992 c 0.03051,0.15895 0.09422,0.4125 0.18164,0.71679 0.0019,-0.003 0.004,-0.005 0.0059,-0.008 -0.05182,-0.2351 -0.111337,-0.47131 -0.1875,-0.70898 z m -51.207031,30.91406 c -0.130095,0.17014 -0.166522,0.22056 -0.302735,0.39844 -0.680985,0.88929 -1.032824,3.09515 -2.0625,2.65429 -0.02468,-0.0106 -0.03206,-0.0129 -0.05664,-0.0234 -0.8823446,0.84393 -1.9586312,0.33958 -4.2421879,-1.79688 -0.812723,-0.34132 -1.9275356,-0.80998 -2.5722656,-1.08984 C 2.2585105,200.27575 1.0671443,200.45575 0,200.60156 v 10.14453 h 40.275391 c -1.352601,-0.82079 -2.79973,-1.56017 -4.19336,-2.3457 -2.410562,-0.24237 -4.858307,-0.68581 -7.228515,-0.70508 0.543528,-1.71006 0.604099,-1.91269 0.808593,-2.64062 -0.193705,0.007 -0.405822,-0.0676 -0.638671,-0.22657 -2.847625,2.25743 -5.809904,3.73081 -8.509766,3.23438 -0.347141,-0.0638 -0.626729,-0.16406 -0.929688,-0.25195 -0.283008,0.0453 -0.577551,0.0113 -0.888672,-0.13672 -2.951591,-1.40475 -4.339338,-4.62534 -5.794921,-7.76758 z m 31.652343,6.76758 c -0.291834,0.51207 -0.689991,0.91729 -1.267578,1.13867 -0.07229,0.0277 -0.148085,0.0366 -0.220703,0.0625 -0.285008,0.95686 -0.567348,1.91473 -0.853515,2.87109 h 3.871093 c -0.491588,-1.14983 -0.688566,-2.4695 -0.736328,-3.78125 -0.266574,-0.0932 -0.525137,-0.19992 -0.792969,-0.29101 z" />
    </clipPath>
  </defs>
  <sodipodi:namedview
     id="namedview10"
     pagecolor="#545454"
     bordercolor="#666666"
     borderopacity="1.0"
     inkscape:showpageshadow="2"
     inkscape:pageopacity="0.0"
     inkscape:pagecheckerboard="true"
     inkscape:deskcolor="#5b5b5b"
     showgrid="true"
     inkscape:zoom="2.3404438"
     inkscape:cx="57.681368"
     inkscape:cy="63.876774"
     inkscape:window-width="1920"
     inkscape:window-height="1043"
     inkscape:window-x="0"
     inkscape:window-y="0"
     inkscape:window-maximized="1"
     inkscape:current-layer="g520">
    <inkscape:grid
       type="xygrid"
       id="grid137"
       originx="9.0748781"
       originy="-77.599944"
       spacingy="1"
       spacingx="1"
       units="px"
       visible="true"
       enabled="false" />
  </sodipodi:namedview>
  <g
     id="g520"
     style="display:inline"
     transform="translate(9.0748796,-77.599944)">
    <rect
       style="display:inline;fill:#000000;fill-opacity:1;stroke:none;stroke-width:0;stroke-linecap:square;stroke-linejoin:bevel;stroke-miterlimit:2.1;stroke-dasharray:none;stroke-opacity:0.613764;paint-order:stroke fill markers"
       id="rect3782-4-6"
       width="19.233772"
       height="6.2509761"
       x="7.9966226"
       y="145.38506"
       rx="3.5546966"
       ry="13.230925" />
    <rect
       style="fill:#000000;fill-opacity:1;stroke:none;stroke-width:0;stroke-linecap:square;stroke-linejoin:bevel;stroke-miterlimit:2.1;stroke-dasharray:none;stroke-opacity:0.613764;paint-order:stroke fill markers"
       id="rect3782"
       width="19.233772"
       height="6.2509761"
       x="29.529329"
       y="145.38519"
       rx="3.5546968"
       ry="13.230925" />
    <path
       style="display:inline;fill:#ff0000;fill-opacity:1;stroke:#000000;stroke-width:0.480844;stroke-linecap:square;stroke-linejoin:miter;stroke-miterlimit:2.1;stroke-dasharray:none;stroke-opacity:1;paint-order:normal"
       d="M -0.83128991,128.55038 C -7.6268465,126.3136 -10.837348,118.31395 -7.4426494,112.07677 c 0.8304758,-1.52586 3.2264029,-3.77224 5.0268091,-4.71306 l 1.3970355,-0.73002 4.809e-4,-14.368592 4.808e-4,-14.368588 h 3.668573 3.6685778 v 14.426449 14.426451 l 0.9061367,0.37861 c 3.3869186,1.41514 6.3630176,5.5413 6.8186896,9.45365 0.507382,4.35632 -2.367639,9.24986 -6.6892704,11.38572 -1.7145274,0.84737 -2.0240324,0.91758 -4.3150008,0.97887 -1.8976426,0.0508 -2.79230633,-0.0407 -3.87135467,-0.39588 z m 5.43380061,-7.18125 c 1.4931226,-0.76295 2.0307258,-1.59242 2.1561781,-3.3268 0.1855626,-2.56538 -1.2417757,-4.39927 -3.6004085,-4.6259 -1.6025195,-0.15399 -2.75371373,0.27446 -3.7750896,1.40501 -1.4593385,1.61531 -1.4447449,3.90934 0.0360633,5.66918 1.25230136,1.48827 3.3080407,1.8367 5.1832615,0.87851 z"
       id="path9294-9" />
    <path
       style="display:inline;fill:#000000;fill-opacity:1;stroke:#000000;stroke-width:0.492418;stroke-linecap:square;stroke-linejoin:round;stroke-miterlimit:2.1;stroke-dasharray:none;stroke-opacity:1;paint-order:normal"
       d="m -0.41884425,185.24973 c -0.65944915,-0.19756 -0.90409265,-0.43626 -1.03206115,-1.00688 -0.09224,-0.41131 -0.1614046,-12.73462 -0.1536832,-27.38509 l 0.01382,-26.63712 0.74759368,-0.43018 c 1.08474105,-0.62416 4.70216132,-1.02517 6.31553922,-0.7001 l 1.2233584,0.24649 -0.017613,27.47131 -0.017613,27.47133 -0.7597629,0.33621 c -1.2127928,0.53666 -5.28199182,0.9449 -6.31979765,0.63404 z"
       id="path9296-2"
       inkscape:transform-center-x="-0.30144711"
       inkscape:transform-center-y="-1.3946503" />
    <path
       style="display:inline;fill:#ff0000;fill-opacity:1;stroke:#000000;stroke-width:0.480844;stroke-linecap:square;stroke-linejoin:miter;stroke-miterlimit:2.1;stroke-dasharray:none;stroke-opacity:1;paint-order:normal"
       d="m -1.0176411,206.67786 v -14.2931 l -1.5217089,-0.8092 c -2.7496169,-1.46217 -4.7452218,-3.88028 -5.8223949,-7.05512 -0.9816581,-2.8933 -0.3904552,-6.69623 1.4588625,-9.38411 3.0551069,-4.44045 8.4191418,-6.2677 13.1946281,-4.49473 4.1207783,1.5299 6.9653763,4.90935 7.6597873,9.1 0.731302,4.41326 -1.739853,9.23307 -6.0160402,11.73388 l -1.6159832,0.94506 v 14.27521 14.27521 H 2.6509318 -1.0176411 Z m 6.1144165,-21.72008 c 1.1444239,-0.78117 1.7118779,-1.98398 1.7118779,-3.62859 0,-2.8813 -2.363975,-4.61927 -5.4863521,-4.03351 -1.7647275,0.33106 -3.346287,2.89989 -2.9797105,4.83976 0.2173128,1.15 0.99762213,2.32149 1.92153085,2.8848 1.17362565,0.71557 3.74145455,0.68238 4.83265385,-0.0625 z"
       id="path9302-4"
       inkscape:label="path9302-4" />
    <path
       style="display:inline;fill:#ff0000;fill-opacity:1;stroke:#000000;stroke-width:0.480844;stroke-linecap:square;stroke-linejoin:miter;stroke-miterlimit:2.1;stroke-dasharray:none;stroke-opacity:1;paint-order:normal"
       d="m 51.099898,128.49423 c -6.795557,-2.23677 -10.006058,-10.23642 -6.61136,-16.4736 0.830476,-1.52587 3.226403,-3.77225 5.026809,-4.71306 l 1.397036,-0.73003 4.81e-4,-14.368586 4.81e-4,-14.368588 h 3.668573 3.668577 v 14.426448 14.426446 l 0.906137,0.37861 c 3.386918,1.41515 6.363018,5.54131 6.81869,9.45366 0.507382,4.35631 -2.367639,9.24986 -6.689271,11.38572 -1.714527,0.84737 -2.024032,0.91758 -4.315001,0.97887 -1.897642,0.0508 -2.792306,-0.0407 -3.871354,-0.39589 z m 5.4338,-7.18124 c 1.493123,-0.76295 2.030726,-1.59243 2.156178,-3.32681 0.185563,-2.56538 -1.241775,-4.39926 -3.600408,-4.6259 -1.60252,-0.15398 -2.753714,0.27447 -3.77509,1.40501 -1.459338,1.61532 -1.444745,3.90935 0.03606,5.66918 1.252301,1.48828 3.30804,1.83671 5.18326,0.87852 z"
       id="path9294-9-0" />
    <path
       style="display:inline;fill:#000000;fill-opacity:1;stroke:#000000;stroke-width:0.492418;stroke-linecap:square;stroke-linejoin:round;stroke-miterlimit:2.1;stroke-dasharray:none;stroke-opacity:1;paint-order:normal"
       d="m 51.512343,185.19358 c -0.659449,-0.19756 -0.904092,-0.43625 -1.032061,-1.00687 -0.09224,-0.41131 -0.161404,-12.73462 -0.153683,-27.38509 l 0.01382,-26.63713 0.747593,-0.43017 c 1.084741,-0.62416 4.702162,-1.02517 6.315539,-0.7001 l 1.223359,0.24649 -0.01761,27.47131 -0.01761,27.47133 -0.759763,0.3362 c -1.212792,0.53667 -5.281991,0.9449 -6.319797,0.63405 z"
       id="path9296-2-6"
       inkscape:transform-center-x="-0.30144694"
       inkscape:transform-center-y="-1.394649" />
    <path
       style="display:inline;fill:#ff0000;fill-opacity:1;stroke:#000000;stroke-width:0.480844;stroke-linecap:square;stroke-linejoin:miter;stroke-miterlimit:2.1;stroke-dasharray:none;stroke-opacity:1;paint-order:normal"
       d="m 50.913547,206.62172 v -14.2931 l -1.521709,-0.80921 c -2.749617,-1.46216 -4.745222,-3.88027 -5.822395,-7.05511 -0.981658,-2.89331 -0.390455,-6.69623 1.458862,-9.38412 3.055107,-4.44044 8.419142,-6.26769 13.194628,-4.49472 4.120779,1.5299 6.965377,4.90934 7.659788,9.1 0.731302,4.41326 -1.739853,9.23307 -6.016041,11.73388 l -1.615983,0.94506 v 14.27521 14.27521 h -3.668578 -3.668572 z m 6.114416,-21.72009 c 1.144424,-0.78117 1.711878,-1.98397 1.711878,-3.62859 0,-2.8813 -2.363975,-4.61927 -5.486352,-4.03351 -1.764728,0.33107 -3.346287,2.89989 -2.979711,4.83976 0.217313,1.15001 0.997622,2.3215 1.921531,2.88481 1.173626,0.71556 3.741455,0.68238 4.832654,-0.0625 z"
       id="path9302-4-2"
       inkscape:label="path9302-4" />
    <rect
       style="display:inline;fill:#000000;fill-opacity:1;stroke:none;stroke-width:0;stroke-linecap:square;stroke-linejoin:bevel;stroke-miterlimit:2.1;stroke-dasharray:none;stroke-opacity:0.613764;paint-order:stroke fill markers"
       id="rect3782-4-6-1"
       width="19.233772"
       height="6.2509761"
       x="60.647549"
       y="145.38506"
       rx="3.5546966"
       ry="13.230925" />
    <rect
       style="display:inline;fill:#000000;fill-opacity:1;stroke:none;stroke-width:0;stroke-linecap:square;stroke-linejoin:bevel;stroke-miterlimit:2.1;stroke-dasharray:none;stroke-opacity:0.613764;paint-order:stroke fill markers"
       id="rect3782-8"
       width="19.233772"
       height="6.2509761"
       x="82.18026"
       y="145.38519"
       rx="3.5546968"
       ry="13.230925" />
    <path
       style="display:inline;fill:#ff0000;fill-opacity:1;stroke:#000000;stroke-width:0.480844;stroke-linecap:square;stroke-linejoin:miter;stroke-miterlimit:2.1;stroke-dasharray:none;stroke-opacity:1;paint-order:normal"
       d="m 103.75082,128.49423 c -6.795554,-2.23677 -10.006055,-10.23642 -6.611357,-16.4736 0.830476,-1.52587 3.226407,-3.77225 5.026807,-4.71306 l 1.39704,-0.73003 4.8e-4,-14.368586 4.8e-4,-14.368588 h 3.66857 3.66858 v 14.426448 14.426446 l 0.90614,0.37861 c 3.38692,1.41515 6.36301,5.54131 6.81869,9.45366 0.50738,4.35631 -2.36764,9.24986 -6.68927,11.38572 -1.71453,0.84737 -2.02404,0.91758 -4.315,0.97887 -1.89765,0.0508 -2.79231,-0.0407 -3.87136,-0.39589 z m 5.4338,-7.18124 c 1.49313,-0.76295 2.03073,-1.59243 2.15618,-3.32681 0.18556,-2.56538 -1.24177,-4.39926 -3.60041,-4.6259 -1.60252,-0.15398 -2.75371,0.27447 -3.77509,1.40501 -1.45934,1.61532 -1.44474,3.90935 0.0361,5.66918 1.2523,1.48828 3.30804,1.83671 5.18326,0.87852 z"
       id="path9294-9-0-7" />
    <path
       style="display:inline;fill:#000000;fill-opacity:1;stroke:#000000;stroke-width:0.492418;stroke-linecap:square;stroke-linejoin:round;stroke-miterlimit:2.1;stroke-dasharray:none;stroke-opacity:1;paint-order:normal"
       d="m 104.16327,185.19358 c -0.65945,-0.19756 -0.9041,-0.43625 -1.03206,-1.00687 -0.0922,-0.41131 -0.16141,-12.73462 -0.15369,-27.38509 l 0.0138,-26.63713 0.7476,-0.43017 c 1.08474,-0.62416 4.70216,-1.02517 6.31554,-0.7001 l 1.22336,0.24649 -0.0176,27.47131 -0.0176,27.47133 -0.75977,0.3362 c -1.21279,0.53667 -5.28199,0.9449 -6.31979,0.63405 z"
       id="path9296-2-6-9"
       inkscape:transform-center-x="-0.30144732"
       inkscape:transform-center-y="-1.394649" />
    <path
       style="display:inline;fill:#ff0000;fill-opacity:1;stroke:#000000;stroke-width:0.480844;stroke-linecap:square;stroke-linejoin:miter;stroke-miterlimit:2.1;stroke-dasharray:none;stroke-opacity:1;paint-order:normal"
       d="m 103.56447,206.62172 v -14.2931 l -1.52171,-0.80921 c -2.749614,-1.46216 -4.745219,-3.88027 -5.822392,-7.05511 -0.981658,-2.89331 -0.390455,-6.69623 1.458862,-9.38412 3.05511,-4.44044 8.41914,-6.26769 13.19463,-4.49472 4.12078,1.5299 6.96537,4.90934 7.65979,9.1 0.7313,4.41326 -1.73986,9.23307 -6.01604,11.73388 l -1.61599,0.94506 v 14.27521 14.27521 h -3.66858 -3.66857 z m 6.11442,-21.72009 c 1.14442,-0.78117 1.71188,-1.98397 1.71188,-3.62859 0,-2.8813 -2.36398,-4.61927 -5.48636,-4.03351 -1.76472,0.33107 -3.34628,2.89989 -2.97971,4.83976 0.21732,1.15001 0.99763,2.3215 1.92153,2.88481 1.17363,0.71556 3.74146,0.68238 4.83266,-0.0625 z"
       id="path9302-4-2-2"
       inkscape:label="path9302-4" />
  </g>
  <metadata
     id="metadata561">
    <rdf:RDF>
      <cc:Work
         rdf:about="">
        <dc:creator>
          <cc:Agent>
            <dc:title>bruno lefevre</dc:title>
          </cc:Agent>
        </dc:creator>
        <dc:date>14/09/2022</dc:date>
        <dc:title>Contacteur Close</dc:title>
        <dc:publisher>
          <cc:Agent>
            <dc:title>connect_ABLS</dc:title>
          </cc:Agent>
        </dc:publisher>
      </cc:Work>
    </rdf:RDF>
  </metadata>
</svg>
