<?xml version="1.0" encoding="UTF-8" standalone="no"?>
<!-- Created with Inkscape (http://www.inkscape.org/) -->

<svg
   width="22.225119mm"
   height="41.885574mm"
   viewBox="0 0 22.225119 41.885574"
   version="1.1"
   id="svg1"
   inkscape:version="1.3 (0e150ed6c4, 2023-07-21)"
   sodipodi:docname="2d_magnetothermique.svg"
   xmlns:inkscape="http://www.inkscape.org/namespaces/inkscape"
   xmlns:sodipodi="http://sodipodi.sourceforge.net/DTD/sodipodi-0.dtd"
   xmlns="http://www.w3.org/2000/svg"
   xmlns:svg="http://www.w3.org/2000/svg"
   xmlns:rdf="http://www.w3.org/1999/02/22-rdf-syntax-ns#"
   xmlns:cc="http://creativecommons.org/ns#"
   xmlns:dc="http://purl.org/dc/elements/1.1/">
  <title
     id="title163">Magnetothermique</title>
  <sodipodi:namedview
     id="namedview1"
     pagecolor="#ffffff"
     bordercolor="#666666"
     borderopacity="1.0"
     inkscape:showpageshadow="2"
     inkscape:pageopacity="0.0"
     inkscape:pagecheckerboard="0"
     inkscape:deskcolor="#d1d1d1"
     inkscape:document-units="px"
     inkscape:zoom="2.9864627"
     inkscape:cx="59.937128"
     inkscape:cy="94.258668"
     inkscape:window-width="1920"
     inkscape:window-height="1007"
     inkscape:window-x="1920"
     inkscape:window-y="0"
     inkscape:window-maximized="1"
     inkscape:current-layer="layer1" />
  <defs
     id="defs1">
    <rect
       x="431.64926"
       y="327.79565"
       width="23.331591"
       height="20.578278"
       id="rect30" />
    <rect
       x="320.10678"
       y="310.3082"
       width="7.9817576"
       height="11.466602"
       id="rect8" />
    <clipPath
       clipPathUnits="userSpaceOnUse"
       id="clipPath28-5">
      <path
         id="path29-9"
         style="fill:#ff0000;fill-opacity:1;fill-rule:nonzero;stroke:none;stroke-width:0.264583"
         d="m 69.174588,110.36484 v 9.28315 h 4.494818 v -2.20245 c -0.06436,0.004 -0.133683,0.005 -0.208772,0.003 -0.334708,-0.007 -0.591735,-0.31536 -0.900205,-0.44546 -0.05098,-0.0215 0.160517,0.15216 0.118856,0.11576 -0.06627,-0.0579 -0.197554,-0.0924 -0.192754,-0.18035 0.0079,-0.14473 0.02336,-0.28899 0.04238,-0.43253 -0.17794,-0.11551 -0.272258,-0.22949 -0.293004,-0.4899 -0.07775,-0.10988 -0.155705,-0.21947 -0.235646,-0.32762 -0.0011,-0.0325 -0.0027,-0.0652 -0.0041,-0.0977 -0.05475,-0.10429 -0.04966,-0.0966 -5.29e-4,-0.0119 -0.0043,-0.0952 -0.0087,-0.19048 -0.0093,-0.28577 -1.91e-4,-0.0316 0.007,-0.12535 0.01138,-0.094 0.05713,0.40879 -0.01781,0.29381 0.104386,0.55604 0.04344,0.0678 0.08917,0.13358 0.129191,0.18035 -0.0028,-0.13033 0.0083,-0.29359 0.03307,-0.50281 v -5.3e-4 c -0.06116,-0.0315 -0.122259,-0.0631 -0.183968,-0.0935 -0.01437,0.029 -0.02799,0.0586 -0.04341,0.0868 -0.0028,0.005 -0.0058,0.0157 -0.0083,0.0248 0.0097,-0.0492 0.0024,-0.13595 0.04031,-0.11731 0.0038,0.002 0.0076,0.004 0.01138,0.006 0.07424,-0.14989 0.141079,-0.30533 0.232027,-0.44339 -0.05066,-0.14183 -0.09218,-0.29818 -0.121957,-0.47025 -0.149247,-0.14762 -0.145265,-0.25407 -0.04031,-0.33383 -0.0083,-0.12403 -0.01117,-0.27892 0.0021,-0.43098 -0.02143,-0.0391 -0.01932,-0.0673 0.0098,-0.0847 0.02699,-0.2061 0.08756,-0.39479 0.210322,-0.47646 0.383368,-0.25504 0.838121,-0.4297 1.29708,-0.48628 v -2.24689 z m 2.97553,3.72639 c 0.0027,0.0405 0.0058,0.0785 0.0093,0.1111 0.0083,0.0768 0.01863,0.15117 0.031,0.22273 0.06534,0.0646 0.161311,0.13755 0.289906,0.21911 0.08404,-0.11549 0.172265,-0.21258 0.272852,-0.28681 -0.0043,-0.0307 -0.0086,-0.0496 -0.01291,-0.078 -0.101351,-0.11333 -0.205618,-0.21627 -0.298691,-0.30696 -0.125759,0.032 -0.22769,0.0704 -0.291454,0.11886 z m 0.114205,1.341 c 0.06368,0.0328 0.126995,0.066 0.190169,0.0997 0.02445,-0.12098 0.03625,-0.19117 0.04548,-0.2403 -0.03792,-0.0616 -0.07391,-0.12762 -0.106971,-0.19844 -0.02519,-0.0156 -0.05024,-0.0315 -0.07545,-0.047 -0.02109,0.14241 -0.03976,0.27279 -0.05323,0.38602 z m 0.190169,0.0997 c -0.01061,0.0525 -0.02278,0.1107 -0.03927,0.18448 1.61e-4,0.003 -5.3e-4,0.006 -5.3e-4,0.008 0.0024,-0.008 0.0045,-0.0179 0.0067,-0.0227 0.0027,-0.006 -5.29e-4,0.0124 -5.29e-4,0.0196 0.0222,-0.0391 0.04205,-0.0753 0.06201,-0.11163 0.0013,-0.0198 0.0024,-0.0397 0.0052,-0.0594 -0.01122,-0.006 -0.02236,-0.0121 -0.03359,-0.0181 z m 0.03359,0.0181 c 0.0072,0.004 0.0145,0.007 0.0217,0.0114 0.02706,-0.0493 0.05263,-0.0947 0.07855,-0.13849 -0.0185,-0.0247 -0.03608,-0.0505 -0.05375,-0.077 -0.01974,0.0675 -0.03723,0.13513 -0.04651,0.20412 z m -0.256831,0.38552 c 2.65e-4,0.0175 0.0021,0.0322 0.0031,0.0486 0.0034,0.004 0.0064,0.009 0.0098,0.0129 0.0061,0.007 -0.0063,-0.007 -0.0098,-0.0109 5.29e-4,0.0101 7.94e-4,0.0203 0.0016,0.03 0.09904,0.13999 0.198282,0.27994 0.302308,0.416 0.0054,-0.038 0.01201,-0.0758 0.0181,-0.11369 -0.0074,-0.0109 -0.01511,-0.0213 -0.02222,-0.0326 -0.03069,-0.0479 -0.05775,-0.11855 -0.08165,-0.19069 -0.07834,-0.0424 -0.158319,-0.087 -0.216525,-0.15348 -0.0016,-0.002 -0.003,-0.004 -0.0047,-0.006 z m 0.306959,0.49661 c -0.0035,0.0246 -0.0061,0.0493 -0.0093,0.0739 0.03982,0.0258 0.08287,0.0522 0.13126,0.0801 -0.04153,-0.0508 -0.08213,-0.10191 -0.121957,-0.154 z m -0.303858,-0.44597 c -4e-5,-7.9e-4 3.7e-5,-10e-4 0,-0.002 -0.01953,-0.0243 -0.03846,-0.0491 -0.05736,-0.0739 0.01886,0.0311 0.04693,0.0644 0.05736,0.076 z m 0.451136,-0.37879 c -0.0029,0.0149 -0.0053,0.03 -0.0083,0.045 0.05497,0.0304 0.109611,0.0615 0.16433,0.0925 -1.16e-4,-0.0131 -5.29e-4,-0.0266 -5.29e-4,-0.0398 -0.0649,-0.0285 -0.118716,-0.0605 -0.155546,-0.0977 z m -0.264583,0.11473 c -0.0019,0.003 -0.0034,0.006 -0.0052,0.009 -0.0011,0.005 -5.29e-4,0.004 -0.0016,0.008 -0.0016,0.0336 -0.0081,0.0695 -0.0093,0.10283 0.0136,0.0207 0.02756,0.0411 0.04083,0.062 -5.3e-4,-0.0428 -0.02349,-0.13671 -0.02479,-0.1819 z m -0.0067,0.017 c 2.38e-4,-0.005 5.29e-4,-0.01 5.29e-4,-0.0145 -0.0186,0.0607 -0.03458,0.17745 -5.29e-4,0.0145 z m 0.417028,0.2558 c -0.05282,0.0503 -0.1119,0.10043 -0.178284,0.15089 v 5.3e-4 c -0.01,0.008 -0.01611,0.0116 -0.02273,0.016 0.03943,0.0543 0.0855,0.10529 0.135392,0.15605 0.05705,-0.0925 0.114004,-0.18503 0.171048,-0.2775 -0.04511,0.007 -0.09896,0.0198 -0.09818,-0.015 2.06e-4,-0.009 2.27e-4,-0.0164 5.29e-4,-0.0253 -0.0031,-0.002 -0.0051,-0.004 -0.0078,-0.006 z m -0.201022,0.16743 c -0.01349,-0.0186 -0.02627,-0.0377 -0.03824,-0.0574 -0.0019,0.01 -0.0038,0.0195 -0.0057,0.0294 0.0074,0.0124 0.01487,0.0248 0.02223,0.0372 0.0069,-7.9e-4 0.01426,-0.004 0.0217,-0.009 z m 0.686782,-0.13023 c -0.08059,0.16568 -0.15366,0.31702 -0.21911,0.45372 0.03158,0.005 0.05611,0.009 0.0863,0.0145 0.08044,-0.13919 0.160878,-0.27837 0.241329,-0.41754 -0.02863,-0.0166 -0.05718,-0.0334 -0.08578,-0.0501 -0.0076,-1.1e-4 -0.01516,-2.5e-4 -0.02273,-5.3e-4 z m -0.203608,0.58446 c 0.0011,2.6e-4 0.0021,5.3e-4 0.0031,0.001 v -5.3e-4 c -0.0011,-2.4e-4 -0.0021,-2.6e-4 -0.0031,-5.3e-4 z m 0.55604,0.62839 c -0.02085,0.009 -0.04153,0.0187 -0.06201,0.0289 -0.04855,0.0242 -0.0072,0.0199 0.06201,0.008 z" />
    </clipPath>
    <clipPath
       clipPathUnits="userSpaceOnUse"
       id="clipPath66">
      <path
         id="path67"
         style="fill:#ff0000;fill-opacity:1;fill-rule:nonzero;stroke:none;stroke-width:0.264583"
         d="m 77.2424,101.35338 c 0.0027,0.005 0.0041,0.0125 0.0067,0.0181 3.97e-4,-0.006 7.93e-4,-0.0121 0.001,-0.0181 z m 4.457092,0 c -0.0059,0.0793 -0.0264,0.16952 -0.04548,0.26045 0.0377,-0.0861 0.07447,-0.17275 0.108521,-0.26045 z m 1.245402,0 c 0.03975,0.0614 0.08159,0.14145 0.126091,0.24443 0.126629,-0.15652 0.32081,-0.33946 0.482141,-0.15038 3.15e-4,3.7e-4 7.86e-4,7.5e-4 10e-4,0.001 0.0095,-0.0308 0.01922,-0.0627 0.02894,-0.0951 z m 4.00544,0 c 0.0059,0.0238 0.01209,0.0475 0.01757,0.0713 0.02907,-0.0237 0.05783,-0.0476 0.08682,-0.0713 z m 1.114144,0 c 0.0061,0.007 0.01194,0.0138 0.01809,0.0212 0.0077,-0.007 0.01555,-0.014 0.02325,-0.0212 z m 4.88394,0 c -0.0062,0.0357 -0.02803,0.0774 -0.04134,0.11369 0.01687,0.008 0.03222,0.0154 0.05013,0.0243 0.06388,0.0318 -0.0198,0.14153 -0.03669,0.21084 -0.130315,0.53473 -0.328488,1.04995 -0.496611,1.57303 -0.02177,0.0681 -0.03831,0.13049 -0.05529,0.18758 1.8e-5,8.8e-4 -1.8e-5,0.002 0,0.003 h 12.577523 v -2.11202 z m -0.701249,0.0279 c -0.03272,0.062 -0.07097,0.1248 -0.101286,0.185 0.01262,0.0114 0.02504,0.0228 0.03721,0.0346 0.0066,-0.0269 0.01367,-0.0537 0.02015,-0.0806 0.01741,-0.0496 0.03082,-0.0949 0.04393,-0.13901 z m -5.864759,0.44338 c -0.01767,0.0157 -0.03554,0.0309 -0.05426,0.0455 0.02199,-0.0129 0.03918,-0.0305 0.05374,-0.0444 2.7e-5,-3.5e-4 4.89e-4,-7.1e-4 5.16e-4,-0.001 z m -1.902209,0.64285 c -0.0087,0.015 -0.01751,0.0296 -0.02635,0.0445 -0.01492,0.0448 -0.02704,0.0774 -0.04082,0.11782 0.01664,-0.0343 0.03329,-0.0696 0.04961,-0.10129 0.0059,-0.0205 0.01229,-0.0421 0.01757,-0.061 z m -11.967228,0.83303 c -0.01936,0.0547 -0.04807,0.0991 -0.100769,0.11782 -8.47e-4,3e-4 -0.0017,2.3e-4 -0.0026,5.2e-4 -0.0036,0.0145 -0.0078,0.0289 -0.01137,0.0434 -0.02763,-0.0106 -0.0573,-0.0186 -0.08785,-0.0258 -0.10396,0.004 -0.21138,-0.0318 -0.318844,-0.0677 -0.01741,-0.006 -0.03481,-0.0109 -0.05219,-0.0165 -0.0081,0.0237 -0.02855,0.0857 -0.03411,0.1018 -0.0011,0.003 -0.0011,0.008 -0.0021,0.0114 h 1.436088 c -0.0018,-0.003 -0.0033,-0.004 -0.0052,-0.006 -0.02779,-0.0188 -0.05581,-0.0373 -0.08475,-0.0553 -0.04359,-0.003 -0.07598,-0.0106 -0.09405,-0.0248 -0.06704,0.006 -0.135031,0.009 -0.202055,0.015 -0.0048,0.0156 -0.0091,0.0314 -0.01395,0.047 -0.02951,-0.0131 -0.06062,-0.024 -0.0925,-0.0341 -0.01147,0.002 -0.02333,0.003 -0.03462,0.005 0.001,-0.005 0.0026,-0.01 0.0036,-0.0145 -0.102693,-0.0303 -0.210181,-0.0542 -0.302824,-0.0971 z m 15.87655,0.009 c -0.01151,0.005 -0.0232,0.0134 -0.03462,0.0171 -0.03029,0.0465 -0.06118,0.0928 -0.09198,0.13901 h 0.201021 c -0.0082,-0.007 -0.01631,-0.0141 -0.02377,-0.0222 -0.02442,-0.0267 -0.03064,-0.0592 -0.02739,-0.0941 -0.0074,-0.0136 -0.01558,-0.0265 -0.02325,-0.0398 z m -5.025533,0.0434 c -0.0085,0.0141 -0.01592,0.0255 -0.02481,0.0403 -0.01432,0.0239 -0.02787,0.048 -0.04134,0.0724 h 0.0098 c 0.02003,-0.0382 0.04012,-0.076 0.05633,-0.11266 z m 0.771012,0.0124 c -0.01221,0.0294 -0.0289,0.0693 -0.04186,0.10026 h 0.10697 c -0.0055,-0.006 -0.01143,-0.0124 -0.01654,-0.0191 -0.0084,-1.1e-4 -0.01698,-6.9e-4 -0.02532,-5.2e-4 0.0039,-0.006 0.0086,-0.0114 0.01292,-0.0171 -0.01163,-0.0169 -0.02292,-0.0345 -0.03204,-0.0532 -0.0017,-0.003 -0.0027,-0.007 -0.0041,-0.0103 z" />
    </clipPath>
    <clipPath
       clipPathUnits="userSpaceOnUse"
       id="clipPath78">
      <path
         id="path79"
         style="fill:#ff0000;fill-opacity:1;fill-rule:nonzero;stroke:none;stroke-width:0.264583"
         d="m 71.123363,186.27478 c -0.0027,0.007 -0.0048,0.0133 -0.0078,0.0202 -0.0031,0.0117 -0.005,0.0236 -0.0083,0.0351 -0.0094,0.0328 -0.03171,0.12919 -0.03772,0.0956 -6.87e-4,-0.004 1.93e-4,-0.008 0,-0.0114 -0.0046,0.0214 -0.0087,0.0282 -0.0217,0.0563 0.108896,0.0205 0.134881,0.0678 0.120406,0.15555 0.05272,0.0292 -0.03427,0.12732 -0.05116,0.18965 -0.04374,0.16138 -0.06524,0.23422 -0.08888,0.3142 -0.0042,0.0729 -0.01195,0.14548 -0.02119,0.21807 v 4.78627 h 4.120679 v -5.85959 z" />
    </clipPath>
    <clipPath
       clipPathUnits="userSpaceOnUse"
       id="clipPath82">
      <path
         id="path83"
         style="fill:#ff0000;fill-opacity:1;fill-rule:nonzero;stroke:none;stroke-width:0.264583"
         d="m 79.355449,108.51728 -0.05633,5.3e-4 c 0.0068,0.0197 0.01358,0.0383 0.02015,0.06 0.01328,-0.003 0.02644,-0.007 0.03876,-0.0114 3.17e-4,-5.3e-4 8.46e-4,-0.001 0.001,-0.002 -0.0013,-0.0206 -0.0025,-0.0308 -0.0036,-0.047 z m 2.402438,0 -0.22531,5.3e-4 c -0.01096,0.017 -0.02376,0.035 -0.03824,0.0537 2.18e-4,10e-4 2.83e-4,0.003 5.16e-4,0.005 -0.0218,0.0406 -0.04375,0.081 -0.06563,0.12144 0.0061,0.002 0.0095,0.002 0.01705,0.004 0.03934,0.01 -0.01613,0.0794 -0.02222,0.11937 -0.01449,0.0951 -0.02758,0.19045 -0.04082,0.28577 0.02502,-0.0421 0.04319,-0.0747 0.07183,-0.12195 0.0963,-0.1589 0.201777,-0.31179 0.302824,-0.46768 z m -7.064168,5.3e-4 c 0.0036,0.02 0.0076,0.0395 0.01085,0.0605 0.0054,-0.0168 0.0099,-0.0339 0.0155,-0.0506 0.001,-0.003 0.0016,-0.007 0.0026,-0.01 z m 2.147155,0 c 0.04388,0.0226 0.07668,0.0428 0.10542,0.0625 0.01007,-0.0209 0.02054,-0.0417 0.03101,-0.0625 z m 1.260905,0 c -0.0013,0.0252 -0.0023,0.0503 -0.0036,0.0755 0.0072,0.009 0.01499,0.0182 0.0217,0.0279 0.04041,-0.0254 0.08195,-0.0492 0.125057,-0.0698 0.0201,-0.01 0.04322,-0.0218 0.06718,-0.0336 z m 2.156974,0 c -0.0015,0.12595 -0.02795,0.26204 -0.02429,0.38602 0.03964,-0.0591 0.07936,-0.11818 0.118856,-0.17725 0.04659,-0.0697 0.09344,-0.13914 0.140043,-0.20877 z m 4.788855,0 c -0.0026,0.007 -0.0051,0.0131 -0.0078,0.0196 0.03692,0.002 0.0726,0.0121 0.108004,0.0232 0.0033,-0.015 0.0065,-0.028 0.0098,-0.0429 z m 7.968506,0 c -1.67e-4,0.001 -3.44e-4,0.002 -5.29e-4,0.003 0.0036,0.0821 -0.01157,0.16666 -0.05219,0.26097 -0.0031,0.0117 -0.005,0.0236 -0.0083,0.0351 -0.0094,0.0328 -0.0317,0.12919 -0.03772,0.0956 -6.87e-4,-0.004 1.95e-4,-0.008 0,-0.0114 -0.0047,0.0218 -0.0087,0.0291 -0.02274,0.0594 0.103627,0.0211 0.135632,0.0664 0.12144,0.15244 0.05272,0.0292 -0.03427,0.12733 -0.05116,0.18966 -0.04374,0.16137 -0.06524,0.23421 -0.08888,0.31419 -0.01982,0.3415 -0.100557,0.67911 -0.186035,1.01286 h 12.2742 v -2.11203 z m -18.39991,0.0672 c -0.0065,3.4e-4 -0.01209,0.002 -0.01499,0.005 -0.0039,0.004 -0.01161,0.0132 -0.01602,0.0181 0.02269,-0.003 0.045,-0.007 0.06614,-0.0124 0.01226,-0.003 -0.01551,-0.0118 -0.03514,-0.0108 z m 11.229805,0.154 c -0.0272,0.0817 -0.0556,0.1629 -0.08578,0.24288 0.02284,-0.0483 0.04467,-0.0971 0.06563,-0.14625 0.0053,-0.0273 0.01463,-0.0689 0.02015,-0.0966 z m -1.899625,0.0977 c -0.01272,0.0327 -0.02618,0.0652 -0.03824,0.0982 0.0062,-0.014 0.01297,-0.0278 0.01912,-0.0419 0.0078,-0.0179 0.0139,-0.0366 0.01912,-0.0563 z m -0.859896,0.47853 c -0.0429,0.0106 -0.08638,0.0202 -0.129708,0.03 -0.0061,0.061 -0.01181,0.12189 -0.01757,0.18294 -0.0041,0.0993 -0.0041,0.17244 -0.0026,0.23461 0.04543,-0.0928 0.07847,-0.1763 0.109037,-0.26407 0.01352,-0.0612 0.02759,-0.12222 0.04083,-0.18345 z m 0.766361,0.14263 c -0.0043,1.3e-4 -0.0086,3.7e-4 -0.01292,5e-4 -0.0041,1.3e-4 0.0095,0.0109 0.01085,0.006 7.04e-4,-0.003 0.0014,-0.004 0.0021,-0.007 z m -4.357873,0.17673 c -0.02499,0.0543 -0.04917,0.10894 -0.07286,0.16381 -0.04834,0.19095 -0.09228,0.35752 -0.110071,0.42117 -0.03854,0.13787 -0.08219,0.27442 -0.127641,0.41031 h 0.121957 c 0.06409,-0.33144 0.129795,-0.66289 0.188619,-0.99529 z m -7.765418,0.54777 c -0.02315,0.0297 -0.04087,0.0675 -0.02584,0.0512 0.01063,-0.0115 0.02175,-0.0227 0.03256,-0.0341 -0.0026,-0.006 -0.0047,-0.0113 -0.0067,-0.017 z m 8.369515,0.154 c -0.0373,0.077 -0.0733,0.15506 -0.105936,0.23461 -0.0076,0.0242 -0.01085,0.0376 -0.01705,0.0589 h 0.02791 c 0.02619,-0.0808 0.05228,-0.15666 0.06563,-0.21033 0.0095,-0.0279 0.01984,-0.0554 0.02946,-0.0832 z m -8.466666,0.0103 c -0.02667,0.0607 -0.05148,0.13031 -0.07855,0.18655 -0.01618,0.0336 -0.03562,0.0652 -0.05581,0.0966 h 0.260449 c -0.05187,-0.0857 -0.08765,-0.1858 -0.12609,-0.28319 z m 9.966833,0.063 c -0.05115,0.0786 -0.103668,0.15254 -0.155546,0.22014 h 0.128157 c 3.1e-5,-0.0702 0.01356,-0.14529 0.02739,-0.22014 z m -7.95507,0.0398 c -0.0092,0.0173 -0.01805,0.036 -0.02739,0.0527 -0.01925,0.0345 -0.0358,0.0876 -0.05736,0.12815 h 0.112138 c -0.02099,-0.0471 -0.02313,-0.12421 -0.02739,-0.18086 z m 9.607166,0.0326 c -0.03091,0.0534 -0.06501,0.10414 -0.104904,0.14831 h 0.486792 c 0.01134,-0.047 0.02227,-0.0885 0.03411,-0.13952 -0.01412,0.008 -0.02929,0.0151 -0.04548,0.0202 -0.119489,0.0357 -0.245111,7.4e-4 -0.37052,-0.0289 z m 5.662703,0.0408 c -0.02052,0.0455 -0.03648,0.0763 -0.05271,0.10748 h 0.128157 c -0.01569,-0.0115 -0.03087,-0.0242 -0.04496,-0.0382 -0.01973,-0.0197 -0.02846,-0.0431 -0.03049,-0.0692 z m -6.504513,0.0491 c -0.0083,0.0148 -0.02508,0.0427 -0.03411,0.0584 h 0.06925 c -0.01267,-0.019 -0.02435,-0.0385 -0.03514,-0.0584 z m 7.833631,0.004 c -0.01125,0.0143 -0.03153,0.0392 -0.04393,0.0548 h 0.03617 c 0.0028,-0.0192 0.005,-0.0355 0.0078,-0.0548 z m -3.680396,0.002 c -0.0056,0.0175 -0.01129,0.0349 -0.01705,0.0522 h 0.03824 c -0.0089,-0.0174 -0.01434,-0.0348 -0.02119,-0.0522 z m -13.379545,0.0129 c -0.0047,0.0132 -0.0093,0.0269 -0.01395,0.0403 h 0.127124 c -0.04118,-0.0136 -0.08007,-0.027 -0.113172,-0.0403 z m 11.779126,0.016 c -0.0042,0.007 -0.0083,0.0159 -0.0124,0.0233 h 0.02429 c -0.0042,-0.008 -0.0083,-0.0153 -0.01189,-0.0233 z" />
    </clipPath>
    <clipPath
       clipPathUnits="userSpaceOnUse"
       id="clipPath85">
      <path
         id="path85"
         style="fill:#ff0000;fill-opacity:1;fill-rule:nonzero;stroke:none;stroke-width:0.264583"
         d="m 112.16068,102.72952 v 1.94304 c 0.0285,-0.01 0.0566,-0.0152 0.0837,-0.0165 0.19164,-0.01 0.33419,0.1786 0.23977,0.44907 0.12763,0.0125 0.24878,0.0349 0.32143,0.12919 0.10397,0.13486 -0.0394,0.33944 -0.0837,0.50385 -0.12778,0.47374 -0.33154,0.86709 -0.56121,1.29397 v 2.31201 h 6.61459 v -6.61459 z" />
    </clipPath>
    <clipPath
       clipPathUnits="userSpaceOnUse"
       id="clipPath86">
      <path
         id="path86"
         style="fill:#ff0000;fill-opacity:1;fill-rule:nonzero;stroke:none;stroke-width:0.264583"
         d="m 109.37739,105.50093 v 1.02113 h 0.10749 c 9e-4,-0.0228 0.005,-0.0495 0.0124,-0.0811 -0.002,-5.9e-4 -0.003,-9.8e-4 -0.005,-0.002 -0.0124,-0.004 0.0151,-0.18332 0.0289,-0.26975 6.9e-4,-0.0311 0.002,-0.0629 0.007,-0.0956 -0.0179,-0.0557 -0.0366,-0.11183 -0.0388,-0.17053 -0.01,-0.0523 -0.0209,-0.10395 -0.0284,-0.15658 -0.007,-0.0527 0.0218,-0.10991 -0.006,-0.16175 -0.001,-0.0156 -0.004,-0.0504 -0.007,-0.0842 z m 3.13779,0.82062 c -0.0292,0.0673 -0.0598,0.13431 -0.0915,0.20051 h 0.0915 z" />
    </clipPath>
    <clipPath
       clipPathUnits="userSpaceOnUse"
       id="clipPath120">
      <path
         id="path121"
         style="fill:#ff0000;fill-opacity:1;fill-rule:nonzero;stroke:none;stroke-width:0.264583"
         d="m 77.663629,119.72431 c -0.03128,0.002 -0.06539,0.002 -0.107487,10e-4 h -5.29e-4 v 4.68861 h 1.5875 v -4.60954 c -0.01558,0.006 -0.03177,0.012 -0.04858,0.0176 -0.282514,0.0933 -0.435672,0.10659 -0.712101,0.0176 -0.099,-0.003 -0.196583,-0.0295 -0.294556,-0.045 -0.141981,-0.0224 -0.28315,-0.0458 -0.424264,-0.0703 z" />
    </clipPath>
    <clipPath
       clipPathUnits="userSpaceOnUse"
       id="clipPath144">
      <path
         id="path145"
         style="fill:#ff0000;fill-opacity:1;fill-rule:nonzero;stroke:none;stroke-width:0.264583"
         d="m 69.871787,110.36487 c 0.01754,0.0468 0.0025,0.103 -0.02945,0.16123 0.0012,0.003 0.0024,0.005 0.0036,0.008 0.05327,0.12353 -0.11763,0.24199 -0.1757,0.36328 -0.194953,0.40738 -0.281526,0.59454 -0.42323,0.89814 0.106588,-0.12355 0.216365,-0.2444 0.329179,-0.36225 0.08839,-0.11364 0.207555,-0.24292 0.252181,-0.29766 0.08903,-0.10919 0.176403,-0.21981 0.264583,-0.32969 0.07568,-0.0927 0.15118,-0.18537 0.22686,-0.27802 0.06031,-0.0738 0.122805,-0.12691 0.183968,-0.16227 z m 0.983919,5e-4 c 0.0811,0.0658 0.119239,0.18417 0.077,0.32763 0.0126,0.003 0.02513,0.007 0.03772,0.009 -0.01435,0.16645 -0.0089,0.33652 -0.03307,0.50126 0.0065,0.006 0.01292,0.0132 0.01912,0.0207 0.113977,-0.0919 0.229719,-0.18147 0.344165,-0.27285 0.131922,-0.0853 0.261749,-0.17397 0.395842,-0.2558 0.03348,-0.0204 0.066,-0.0403 0.09819,-0.0584 0.03821,-0.0755 0.07817,-0.15022 0.115239,-0.22634 0.0522,0.028 0.107866,0.0518 0.163814,0.0749 0.01931,-0.0352 0.02792,-0.0835 0.04651,-0.11989 z m 1.288811,3.44734 c -0.08484,0.0835 -0.177387,0.16026 -0.274919,0.23254 -0.01776,0.028 -0.02953,0.047 -0.04651,0.0739 0.107102,0.3248 0.08915,0.57266 0.0021,0.79685 -0.0041,0.15459 -0.08653,0.3052 -0.195337,0.48576 0.08826,0.0653 0.198012,0.11739 0.281637,0.18552 0.03342,-0.0652 0.05475,-0.10215 0.0801,-0.13695 -0.002,-0.0529 -0.0048,-0.10574 -0.0052,-0.15864 -1.91e-4,-0.0316 0.007,-0.12531 0.01137,-0.0935 0.01368,0.0979 0.01972,0.16478 0.02273,0.21498 0.0041,-0.005 0.0095,-0.0105 0.01395,-0.0155 0.0029,-0.0332 0.0066,-0.0641 0.02222,-0.0672 v 5.1e-4 c 0.0034,-6.9e-4 0.0077,4.5e-4 0.0124,0.002 0.0038,0.002 0.0076,0.004 0.01137,0.006 -0.0033,0.007 -0.0066,0.013 -0.0098,0.0196 0.0043,-0.004 0.01187,-0.0118 0.01654,-0.0165 -0.0023,-10e-4 -0.0044,-0.002 -0.0067,-0.004 0.07416,-0.14976 0.141163,-0.30494 0.232027,-0.44287 -0.05066,-0.14183 -0.09218,-0.29767 -0.121956,-0.46974 v -0.001 -5.3e-4 c -0.148641,-0.14729 -0.1451,-0.25315 -0.04031,-0.3328 0.0027,0.0401 0.0058,0.0777 0.0093,0.11008 0.0083,0.0768 0.01864,0.15116 0.03101,0.22272 0.06534,0.0646 0.161314,0.13755 0.289904,0.21911 0.08404,-0.11549 0.172265,-0.21258 0.272852,-0.28681 -0.0043,-0.0307 -0.0086,-0.0491 -0.01292,-0.0775 -0.101351,-0.11333 -0.205617,-0.21629 -0.29869,-0.30696 -0.125759,0.032 -0.22769,0.0704 -0.291455,0.11886 -0.0055,-0.0821 -0.0081,-0.17775 -0.0057,-0.27699 z m -1.013375,0.23978 c -0.02599,0.0224 -0.05218,0.0446 -0.07803,0.0672 0.0066,0.008 0.01358,0.0157 0.02015,0.0238 0.01989,-0.0313 0.03734,-0.0588 0.05788,-0.0909 z m 0.692464,0.57929 c -6.35e-4,-5.5e-4 -0.0023,4.5e-4 -0.0052,0.002 -0.01943,0.0109 -0.03857,0.0224 -0.05788,0.0336 0.0031,0.006 0.0064,0.0114 0.0093,0.017 0.02374,-0.009 0.05773,-0.0487 0.05374,-0.0522 z m 0.494027,0.41393 c -0.01973,0.13327 -0.0369,0.25322 -0.05013,0.36122 0.01,0.0141 0.01983,0.0283 0.02997,0.0424 0.05246,0.0271 0.104952,0.0539 0.157096,0.0817 0.02445,-0.12098 0.03625,-0.19117 0.04547,-0.2403 -0.03792,-0.0616 -0.07391,-0.12761 -0.10697,-0.19843 -0.02519,-0.0156 -0.05024,-0.031 -0.07545,-0.0465 z m 0.217041,0.30024 c -0.01974,0.0675 -0.03723,0.13513 -0.04651,0.20412 0.0072,0.004 0.0145,0.007 0.0217,0.0114 0.02706,-0.0493 0.05263,-0.0947 0.07855,-0.13849 -0.0185,-0.0247 -0.03607,-0.0505 -0.05374,-0.077 z m -0.0801,0.18655 v 5.3e-4 c -0.0065,0.0323 -0.01589,0.0744 -0.02429,0.11317 0.0056,0.01 0.01079,0.0197 0.01602,0.0295 0.01226,-0.0221 0.02487,-0.0446 0.03669,-0.0661 0.0013,-0.0198 0.0024,-0.0387 0.0052,-0.0584 -0.01122,-0.006 -0.02236,-0.0126 -0.03359,-0.0186 z m 0.230994,0.0749 c -0.0029,0.0149 -0.0053,0.03 -0.0083,0.045 0.05497,0.0304 0.109612,0.0615 0.164331,0.0925 -1.16e-4,-0.0131 -5.3e-4,-0.0266 -5.3e-4,-0.0398 -0.0649,-0.0285 -0.118723,-0.0605 -0.155545,-0.0977 z m 0.145727,0.38654 v 5.3e-4 5e-4 c -0.0084,0.008 -0.01817,0.0158 -0.02687,0.0238 0.0145,0.0613 0.02297,0.12476 0.02894,0.18913 0.03441,-0.0558 0.06892,-0.11162 0.103353,-0.16743 -0.04511,0.007 -0.09892,0.0198 -0.09819,-0.015 2.07e-4,-0.009 9.4e-5,-0.0164 5.29e-4,-0.0253 -0.0031,-0.002 -0.0051,-0.004 -0.0078,-0.006 z m 0.485759,0.0382 c -0.05763,0.11849 -0.106676,0.22082 -0.15658,0.32453 0.01775,0.0339 0.03259,0.0695 0.04547,0.10594 0.07318,-0.12663 0.146434,-0.25321 0.219625,-0.37983 -0.02863,-0.0166 -0.05718,-0.0334 -0.08578,-0.0501 -0.0076,-1.1e-4 -0.01517,-1.4e-4 -0.02274,-5.3e-4 z m -4.142383,1.22784 v 0.6811 c 0.02681,-0.0988 0.08667,-0.22488 0.16123,-0.35967 -0.01014,-0.0373 -0.02005,-0.0737 -0.02997,-0.1173 -0.02031,-0.011 -0.04073,-0.0217 -0.06098,-0.0305 -0.01122,-0.005 0.02106,-0.0128 0.03152,-0.0191 0.0049,-0.006 0.0096,-0.0118 0.01447,-0.0176 -0.0044,-0.0208 -0.0086,-0.0374 -0.01292,-0.0594 -0.0031,-0.0159 -0.0035,-0.0315 -0.0026,-0.047 -0.03713,-0.005 -0.07135,-0.015 -0.100769,-0.0305 z m 1.20096,1.29501 c -0.0313,0.0367 -0.06279,0.0734 -0.09353,0.11059 -0.07793,0.0775 -0.123749,0.22889 -0.233578,0.23255 -0.287685,0.01 -0.437646,-0.0307 -0.499194,-0.10232 -0.114619,0.0458 -0.249455,0.0147 -0.37362,0.0243 -1e-4,-0.007 -0.001,-0.014 -0.001,-0.0207 v 0.84698 h 1.033529 c -0.02228,-0.0326 -0.04494,-0.069 -0.0677,-0.11059 -0.07711,-0.141 0.09408,-0.30816 0.157613,-0.45578 0.03906,-0.0908 0.08114,-0.17707 0.12454,-0.26149 -0.02318,-0.0445 -0.03636,-0.11325 -0.04289,-0.19327 -0.01252,0.0159 -0.02201,0.0244 -0.02636,0.01 -0.0067,-0.0238 0.0058,-0.0455 0.02326,-0.0661 -2.05e-4,-0.005 -9.13e-4,-0.009 -10e-4,-0.014 z m 1.343071,0.81494 c -0.02276,0.0239 -0.04468,0.0485 -0.0677,0.0724 -0.06627,0.0682 -0.129038,0.22928 -0.214458,0.18758 -0.05753,-0.0281 -0.104752,-0.069 -0.147277,-0.11627 -0.03638,0.0444 -0.07276,0.0888 -0.109038,0.13333 h 0.680579 c -0.06125,-0.0551 -0.112497,-0.11634 -0.13901,-0.19327 -0.0097,-0.0283 -0.009,-0.056 -0.0031,-0.0837 z m 0.813387,0.23306 c -0.01423,0.0145 -0.0279,0.0296 -0.04237,0.0439 h 0.05374 c -0.0011,-0.004 -0.0026,-0.008 -0.0036,-0.0114 -0.0135,0.002 -0.02675,0.003 -0.04031,0.004 -0.0067,5.3e-4 0.01207,-0.007 0.01602,-0.0124 0.0064,-0.009 0.0115,-0.0164 0.01654,-0.0238 z" />
    </clipPath>
    <clipPath
       clipPathUnits="userSpaceOnUse"
       id="clipPath160">
      <path
         id="path161"
         style="fill:#ff0000;fill-opacity:1;fill-rule:nonzero;stroke:none;stroke-width:0.264583"
         d="m -100.60366,98.963618 -5.2e-4,-22.225001 h -1.76992 c 0.0243,0.06269 0.0378,0.139953 0.0357,0.232544 -0.003,0.122735 0.0285,0.247744 0.0274,0.371554 -1.7e-4,0.01769 -8.9e-4,0.03561 -0.003,0.05323 -0.003,0.03281 -0.0113,0.06479 -0.0176,0.09715 0.002,-0.0076 0.004,-0.01512 0.006,-0.02274 -0.001,0.04785 -0.0224,0.09083 -0.0351,0.135909 3.7e-4,-0.0038 10e-4,-0.0032 0.004,0.02222 0.009,0.112663 0.002,0.226051 0.003,0.338999 0.01,0.09015 -0.0281,0.195183 -0.0419,0.267165 -0.0382,0.140068 -0.0411,0.182306 -0.12713,0.325046 -0.17252,0.145444 -0.20734,0.219599 -0.50022,0.06201 -0.004,0.0038 -0.008,0.0074 -0.0119,0.01085 -0.0198,0.01619 -0.0459,0.02392 -0.0749,0.02585 -0.0175,0.08026 -0.0354,0.159594 -0.0703,0.283189 -0.0165,0.05846 -0.12239,0.0029 -0.1819,-0.0093 -0.16141,-0.03307 -0.29673,-0.07698 -0.42995,-0.128159 -0.0209,-0.0038 -0.0417,-0.0076 -0.0625,-0.01138 -0.11024,-0.02088 -0.22045,-0.04239 -0.33073,-0.06305 -0.0705,-0.0132 -0.14127,-0.02611 -0.21187,-0.03876 -10e-4,0.0026 -0.003,0.0052 -0.004,0.0078 -0.0516,0.08721 -0.20253,-0.01474 -0.3023,-0.03256 -0.13347,-0.02387 -0.20943,-0.04121 -0.26304,-0.05529 -0.0126,0.02769 -0.0352,0.04973 -0.0656,0.06253 0.11052,0.211683 -0.10626,0.357836 -0.28267,0.136427 -0.0827,-0.103746 -0.16467,-0.207801 -0.24649,-0.312126 -0.14742,-0.01619 -0.26725,-0.02604 -0.37156,-0.02945 -0.13338,0.01638 -0.26453,0.03169 -0.31522,0.03359 -0.0598,0.0021 -0.13848,0.02796 -0.20102,0.02842 -0.0376,0.02191 -0.0763,0.04192 -0.11628,0.05839 -0.004,0.02191 -0.008,0.04373 -0.0124,0.06563 0.0768,0.06849 0.0958,0.14791 -0.0341,0.239263 -0.002,0.04571 -0.009,0.08604 -0.0424,0.07855 -0.0246,-0.0055 -0.0455,-0.01066 -0.0682,-0.01603 -0.0543,0.02614 -0.12155,0.05325 -0.20257,0.08113 -0.005,0.0409 -0.01,0.08197 -0.0134,0.120925 -0.003,0.03728 -0.0655,-0.03654 -0.0982,-0.05478 -0.0129,-0.006 -0.0258,-0.01204 -0.0388,-0.0181 -0.0256,0.0076 -0.0488,0.01508 -0.0765,0.02273 -0.0503,0.01397 -0.10069,0.01214 -0.15038,0.0011 -0.0324,0.08388 -0.0805,0.155104 -0.15451,0.196371 l -5.3e-4,5.29e-4 c -0.009,0.01633 -0.0233,0.02088 -0.0398,0.0181 -0.17654,0.05817 -0.37789,-0.125148 -0.56483,-0.179835 -0.29268,-0.08561 -0.58396,-0.176 -0.87591,-0.264064 -0.30312,-0.0983 -0.60705,-0.194736 -0.90951,-0.295074 -0.0958,-0.0318 -0.19115,-0.06526 -0.2868,-0.09767 5e-4,0.0088 1.1e-4,0.01765 0.002,0.02635 -0.0887,0.03289 -0.17354,0.07922 -0.26613,0.0987 -0.14278,0.03005 -0.35646,0.01151 -0.49868,-0.01963 -0.0218,-0.0048 -0.0455,-0.0083 -0.0682,-0.01344 -0.0372,-0.0071 -0.0878,-0.0036 -0.11421,-0.02739 -0.053,0.06339 -0.10828,0.125627 -0.1571,0.191204 0.005,0.0172 0.0105,0.0345 0.015,0.05168 0.0381,0.141385 0.0472,0.289031 0.0708,0.433564 -0.12997,0.122809 -0.21124,0.380675 -0.38964,0.368454 -0.23525,-0.01611 -0.63211,-0.526587 -0.863,-0.850593 -0.051,0.06735 -0.13494,0.13929 -0.262,0.218591 -0.11453,0.07147 -0.26633,-0.0503 -0.39274,-0.09767 -0.17903,-0.06708 -0.34145,-0.153672 -0.49919,-0.248565 -0.0475,0.02929 -0.0957,0.05799 -0.14263,0.08785 -0.0151,0.05941 -0.0319,0.118768 -0.0398,0.177768 -0.25869,-0.005 -0.52761,0.05685 -0.77618,-0.01498 -0.15632,-0.0452 -0.44857,-0.242083 -0.72502,-0.447 -0.0194,0.0532 -0.0572,0.115369 -0.11937,0.189135 0.11206,0.09158 0.16249,0.200096 0.16019,0.296106 -0.004,0.18144 -0.19777,0.31596 -0.52451,0.193786 -0.43662,-0.163254 -0.87059,-0.328941 -1.30122,-0.506945 -0.0457,0.03367 -0.10377,0.056 -0.15037,0.08889 -0.0749,0.05011 -0.15332,0.09341 -0.23513,0.130222 -0.0214,0.03562 -0.0441,0.07394 -0.0677,0.11834 -0.0492,-0.01394 -0.10684,-0.02429 -0.16795,-0.03256 -0.0908,0.02572 -0.18416,0.04159 -0.27802,0.05271 0.0375,0.171413 -0.11525,0.364117 -0.45888,0.364836 -0.10494,1.99e-4 -0.20981,0.0011 -0.31471,-0.0021 -0.15026,-0.0021 -0.2997,0.03578 -0.44442,-0.03307 -0.0231,-0.01495 -0.0507,-0.02564 -0.0739,-0.04031 -0.0834,0.304736 -0.45599,0.311076 -0.60719,-0.146762 -0.0933,-0.282514 -0.10759,-0.435681 -0.0186,-0.712099 0.003,-0.099 0.0305,-0.196583 0.046,-0.294558 0.0224,-0.141981 0.0468,-0.283149 0.0713,-0.424262 -0.002,-0.03128 -0.002,-0.06539 -0.001,-0.107487 8.2e-4,-0.130684 2.3e-4,-0.26156 -0.002,-0.392224 5e-5,-0.03763 -0.0133,-0.207887 0.009,-0.246497 -0.0234,-0.06069 -0.0347,-0.118459 -0.0388,-0.178801 h -1.65933 v 22.225043 z m -1.75752,-21.354253 c -0.002,0.0057 -0.003,0.01126 -0.005,0.01705 -4.5e-4,0.0022 5.5e-4,0.0088 0.001,0.0067 0.003,-0.0062 0.003,-0.0164 0.004,-0.02377 z m -1.99109,0.95808 h -5.3e-4 l -5.3e-4,-5.29e-4 c -0.001,0.0056 -0.002,0.01148 -0.003,0.01704 0.002,-0.0058 0.002,-0.01087 0.004,-0.01654 z m -0.83406,-1.828828 h -0.12402 c 0.0318,0.01137 0.0633,0.02337 0.0951,0.03462 0.01,-0.01276 0.0192,-0.02283 0.0289,-0.03462 z" />
    </clipPath>
  </defs>
  <g
     inkscape:label="Calque 1"
     inkscape:groupmode="layer"
     id="layer1"
     transform="translate(-50.915304,-102.97078)">
    <path
       id="path10"
       style="fill:#c8c8c8;stroke:#c8c8c8;stroke-width:0.137454;stroke-linejoin:round;paint-order:stroke fill markers"
       d="m 73.600676,110.43564 a 4.2307525,4.5729113 0 0 0 -3.766179,2.24017 4.2307525,4.5729113 0 0 0 -0.0083,4.64674 4.2307525,4.5729113 0 0 0 3.758427,2.25516 z m -0.02687,2.21382 -0.0279,4.70823 a 2.1965209,2.3542851 0 0 1 -1.906861,-1.18545 2.1965209,2.3542851 0 0 1 0.01395,-2.36317 2.1965209,2.3542851 0 0 1 1.920813,-1.15961 z"
       clip-path="url(#clipPath144)"
       transform="translate(-17.990566,-3.664935)" />
    <path
       style="fill:none;fill-rule:evenodd;stroke:#c8c8c8;stroke-width:1.71979;stroke-dasharray:none;stroke-opacity:1"
       id="path88"
       sodipodi:type="arc"
       sodipodi:cx="-111.00971"
       sodipodi:cy="77.571259"
       sodipodi:rx="9.6117821"
       sodipodi:ry="20.598869"
       sodipodi:start="0"
       sodipodi:end="3.143326"
       sodipodi:arc-type="slice"
       d="m -101.39793,77.571259 a 9.6117821,20.598869 0 0 1 -4.8107,17.845092 9.6117821,20.598869 0 0 1 -9.61659,-0.01786 9.6117821,20.598869 0 0 1 -4.79626,-17.862935 l 9.61177,0.0357 z"
       transform="rotate(-90,-2.2621883,23.561125)"
       clip-path="url(#clipPath160)" />
    <rect
       style="fill:#c8c8c8;stroke:none;stroke-width:0.0556926;stroke-linejoin:round;paint-order:stroke fill markers"
       id="rect3-2-2-7"
       width="1.5875"
       height="3.5844157"
       x="51.043541"
       y="141.27194" />
    <rect
       style="fill:#c8c8c8;fill-opacity:1;stroke:none;stroke-width:1.5875;stroke-linejoin:bevel;stroke-dasharray:none;stroke-opacity:1;paint-order:markers stroke fill"
       id="rect161"
       width="0.0077217128"
       height="20.438272"
       x="84.342865"
       y="102.86741" />
    <rect
       style="fill:#c8c8c8;fill-opacity:1;stroke:#c8c8c8;stroke-width:0.954119;stroke-linecap:round;stroke-linejoin:bevel;stroke-dasharray:none;stroke-opacity:1;paint-order:markers stroke fill"
       id="rect162"
       width="0.97133189"
       height="20.160231"
       x="137.41505"
       y="17.964046"
       transform="matrix(0.63263453,0.77445048,-0.92588247,0.37781167,0,0)" />
    <rect
       style="fill:#c8c8c8;fill-opacity:1;stroke:#c8c8c8;stroke-width:0.954119;stroke-linecap:round;stroke-linejoin:bevel;stroke-dasharray:none;stroke-opacity:1;paint-order:markers stroke fill"
       id="rect162-2"
       width="0.97133189"
       height="20.160231"
       x="-82.841805"
       y="-132.51204"
       transform="matrix(0.63263453,-0.77445048,-0.92588247,-0.37781167,0,0)" />
    <rect
       style="fill:#c8c8c8;stroke:none;stroke-width:0.0584902;stroke-linejoin:round;paint-order:stroke fill markers"
       id="rect3-2-2-7-9"
       width="1.5875"
       height="3.9535654"
       x="50.958771"
       y="102.97078" />
    <rect
       style="fill:#c8c8c8;stroke:none;stroke-width:0.054715;stroke-linejoin:round;paint-order:stroke fill markers"
       id="rect3-2-2-7-97"
       width="1.5875"
       height="3.4596732"
       x="51.006378"
       y="120.21043" />
  </g>
  <metadata
     id="metadata163">
    <rdf:RDF>
      <cc:Work
         rdf:about="">
        <dc:title>Magnetothermique</dc:title>
        <dc:date>09_10_2023</dc:date>
        <dc:creator>
          <cc:Agent>
            <dc:title>bruno lefevre</dc:title>
          </cc:Agent>
        </dc:creator>
        <dc:publisher>
          <cc:Agent>
            <dc:title>ABLS-Habitat</dc:title>
          </cc:Agent>
        </dc:publisher>
      </cc:Work>
    </rdf:RDF>
  </metadata>
</svg>
