<?xml version="1.0" encoding="UTF-8" standalone="no"?>
<!-- Created with Inkscape (http://www.inkscape.org/) -->

<svg
   version="1.1"
   id="svg1"
   width="119.41329"
   height="137.25005"
   viewBox="0 0 119.41329 137.25005"
   sodipodi:docname="INKSCAPE_RADIATEUR_1K.svg"
   inkscape:version="1.3.2 (091e20ef0f, 2023-11-25)"
   xmlns:inkscape="http://www.inkscape.org/namespaces/inkscape"
   xmlns:sodipodi="http://sodipodi.sourceforge.net/DTD/sodipodi-0.dtd"
   xmlns="http://www.w3.org/2000/svg"
   xmlns:svg="http://www.w3.org/2000/svg">
  <defs
     id="defs1" />
  <sodipodi:namedview
     id="namedview1"
     pagecolor="#ffffff"
     bordercolor="#666666"
     borderopacity="1.0"
     inkscape:showpageshadow="2"
     inkscape:pageopacity="0.0"
     inkscape:pagecheckerboard="true"
     inkscape:deskcolor="#d1d1d1"
     inkscape:zoom="5.311106"
     inkscape:cx="57.991688"
     inkscape:cy="70.136051"
     inkscape:window-width="1920"
     inkscape:window-height="1056"
     inkscape:window-x="0"
     inkscape:window-y="0"
     inkscape:window-maximized="1"
     inkscape:current-layer="g1" />
  <g
     inkscape:groupmode="layer"
     inkscape:label="Image"
     id="g1"
     style="display:inline"
     transform="translate(-4.1750831,4.5517681)">
    <path
       id="path1"
       style="color:#000000;display:inline;fill:#0000ff;fill-rule:evenodd;stroke:#000000;stroke-width:1.47463;stroke-dasharray:none;stroke-opacity:1;fill-opacity:1"
       d="m 4.9960938,-3.8144531 c -0.026119,0 -0.046875,0.020756 -0.046875,0.046875 V 25.867188 c -0.049437,1.016463 -0.048755,2.043565 0,3.083984 v 0.33789 c 0,0.01306 0.00515,0.02468 0.013672,0.0332 0.017353,0.296911 0.00744,0.588466 0.033203,0.886718 0.055675,0.644606 -0.052423,65.489965 0.1171874,71.23633 0.2288219,7.75233 2.2722403,14.86452 6.1660158,19.38086 2.106516,2.44335 4.80579,3.96237 7.662109,3.95508 2.856319,-0.007 5.54905,-1.53855 7.650391,-3.99023 1.432601,-1.67149 2.613791,-3.69515 3.544922,-5.97266 0.966401,2.5017 2.211366,4.72683 3.763672,6.52734 2.106516,2.44335 4.80579,3.96237 7.662109,3.95508 2.856319,-0.007 5.54905,-1.53855 7.650391,-3.99023 1.453917,-1.69636 2.644591,-3.75908 3.582031,-6.07813 0.935584,2.28084 2.118867,4.30859 3.558594,5.97852 2.106516,2.44335 4.80579,3.96237 7.662109,3.95508 2.856319,-0.007 5.54905,-1.53852 7.650391,-3.99024 1.432601,-1.67149 2.613787,-3.69515 3.544922,-5.97266 0.966401,2.5017 2.211369,4.72684 3.763671,6.52735 2.106516,2.44335 4.805791,3.96237 7.66211,3.95508 2.856319,-0.007 5.549049,-1.53852 7.65039,-3.99024 1.446507,-1.6877 2.635039,-3.73645 3.570313,-6.04101 0.93517,2.27814 2.116336,4.30432 3.554688,5.97265 2.10652,2.44335 4.80577,3.96237 7.66211,3.95508 2.85633,-0.007 5.54904,-1.53853 7.65039,-3.99023 0.19815,-0.2312 0.37201,-0.49583 0.56055,-0.74024 v 11.0625 c 0,0.0261 0.0227,0.0469 0.0488,0.0469 h 5.36914 c 0.0261,0 0.0469,-0.0208 0.0469,-0.0469 v -27.8125 c 0.0333,-0.48736 0.0792,-0.96954 0.0977,-1.46289 0.0294,-0.78393 -0.18644,-70.755274 -0.20704,-71.550783 -2.9e-4,-0.01263 0.95097,-13.321071 -6.04492,-21.4355472 -2.1065,-2.4433432 -4.80577,-3.9623623 -7.66211,-3.9550782 -2.8563,0.00728 -5.54904,1.5384998 -7.65039,3.9902344 -1.40721,1.641866 -2.637602,3.633729 -3.632809,5.865234 C 96.791427,13.503569 95.667995,11.507058 94.158203,9.7558594 92.051684,7.3125206 89.352413,5.7934975 86.496094,5.8007812 83.639775,5.8080612 80.947046,7.3392858 78.845703,9.7910156 77.456814,11.411496 76.240396,13.372277 75.251953,15.568359 74.370612,13.3318 73.178289,11.139922 71.537109,9.2363281 69.43059,6.7929901 66.731319,5.2739659 63.875,5.28125 61.018681,5.28853 58.325952,6.8197543 56.224609,9.2714844 54.810363,10.921549 53.573924,12.924793 52.576172,15.169922 51.71713,13.120173 50.594185,11.122766 49.083984,9.3710938 46.977465,6.9277554 44.278194,5.4087315 41.421875,5.4160156 38.565556,5.4232956 35.872827,6.9545204 33.771484,9.40625 32.382595,11.02673 31.166177,12.987508 30.177734,15.183594 29.296393,12.947031 28.104067,10.755156 26.462891,8.8515625 24.356372,6.4082241 21.6571,4.8892003 18.800781,4.8964844 c -2.856319,0.00728 -5.549047,1.5385043 -7.65039,3.9902344 -0.258081,0.3011139 -0.492108,0.6471108 -0.738282,0.9707031 v -13.625 c 0,-0.026119 -0.02076,-0.046875 -0.04687,-0.046875 z M 18.814453,10.626953 c 1.00908,-0.0026 2.177445,0.479187 3.527344,2.044922 2.699791,3.131478 5.030927,10.091874 5.123047,17.501953 0.289658,23.30038 -0.122237,47.880449 -0.291016,71.646482 -0.329481,6.51188 -2.296028,12.34192 -4.714844,15.16407 -1.349878,1.57492 -2.522168,2.06383 -3.53125,2.0664 -1.00908,0.003 -2.177448,-0.47917 -3.527343,-2.04492 -2.470205,-2.86519 -4.476406,-8.87195 -4.75,-15.54883 -0.02532,-0.61788 -0.297976,-70.073977 -0.294922,-71.304686 0.277474,-0.0033 0.01958,-11.73242 4.927734,-17.458985 1.349879,-1.57496 2.522168,-2.063834 3.53125,-2.066406 z m 45.074219,0.384766 c 1.00908,-0.0026 2.177445,0.479183 3.527344,2.044922 2.699791,3.131474 5.03093,10.09187 5.123046,17.501953 0.289662,23.300376 -0.122236,47.880432 -0.291015,71.646486 -0.329481,6.51184 -2.296028,12.34191 -4.714844,15.16406 -1.349882,1.57496 -2.522168,2.06384 -3.53125,2.06641 -1.00908,0.003 -2.177445,-0.47918 -3.527344,-2.04493 -2.470201,-2.86515 -4.476402,-8.87194 -4.75,-15.54882 -0.02532,-0.61788 -0.297975,-70.073982 -0.294921,-71.304691 0.277474,-0.0033 0.01958,-11.732423 4.927734,-17.458984 1.349879,-1.57496 2.522168,-2.063834 3.53125,-2.066406 z m -22.453125,0.134765 c 1.00908,-0.0026 2.177445,0.479187 3.527344,2.044922 3.903391,4.945814 4.668882,11.329723 5.107421,17.402344 0.163458,23.916355 -0.09562,47.830969 -0.27539,71.74609 -0.329481,6.51188 -2.296028,12.34192 -4.714844,15.16407 -1.349883,1.57492 -2.522168,2.06383 -3.53125,2.0664 -1.00908,0.003 -2.177444,-0.47917 -3.527344,-2.04492 -2.4702,-2.86519 -4.476401,-8.8719 -4.75,-15.54883 -0.02532,-0.61788 -0.297971,-70.073976 -0.294922,-71.304685 0.277479,-0.0033 0.01957,-11.732424 4.927735,-17.458984 1.349879,-1.574965 2.522168,-2.063835 3.53125,-2.066407 z m 67.511723,0.28125 c 1.00906,-0.0026 2.17743,0.479183 3.52734,2.044922 2.6998,3.131484 5.03093,10.093811 5.12305,17.503906 0.27432,22.067136 -0.0761,45.249988 -0.25782,67.833985 h -0.006 c -0.0261,0 -0.0488,0.02076 -0.0488,0.04687 v 4.025393 c -0.3687,6.40463 -2.30744,12.11857 -4.69336,14.90235 -1.34989,1.57494 -2.52216,2.06383 -3.53125,2.0664 -1.00908,0.003 -2.17745,-0.47917 -3.52735,-2.04492 -2.47019,-2.86519 -4.4764,-8.8719 -4.75,-15.54883 -0.0253,-0.61788 -0.29798,-70.073979 -0.29492,-71.30469 0.27748,-0.0033 0.0196,-11.732412 4.92774,-17.458984 1.34986,-1.574967 2.52216,-2.063835 3.53125,-2.066407 z M 86.509766,11.53125 c 1.00908,-0.0026 2.177448,0.479183 3.527343,2.044922 2.355414,2.732032 4.428308,8.380089 4.980469,14.697266 0.0011,0.904794 0.03189,1.816553 0.111328,2.736328 0.03148,0.364448 0.01492,20.87483 0.02148,40 -0.08795,10.60618 -0.206898,21.245142 -0.28125,31.714844 -0.329481,6.51184 -2.296032,12.34191 -4.714844,15.16406 -1.349883,1.57496 -2.522168,2.06384 -3.53125,2.06641 -1.00908,0.003 -2.177444,-0.47921 -3.527344,-2.04492 -2.4702,-2.86519 -4.476401,-8.87194 -4.75,-15.54883 -0.02532,-0.61788 -0.297975,-70.073984 -0.294922,-71.304689 0.277479,-0.0033 0.01959,-11.732421 4.927735,-17.458985 1.349875,-1.574961 2.522168,-2.063834 3.53125,-2.066406 z" />
  </g>
</svg>
