<?xml version="1.0" encoding="UTF-8" standalone="no"?>
<svg
   width="62.278221"
   height="81.021172"
   xml:lang="fr"
   viewBox="0 0 62.278221 81.021172"
   preserveAspectRatio="xMidYMid"
   version="1.1"
   id="svg1"
   sodipodi:docname="2d_tuyau_croix_anime_01_source.svg"
   inkscape:version="1.3 (0e150ed6c4, 2023-07-21)"
   xmlns:inkscape="http://www.inkscape.org/namespaces/inkscape"
   xmlns:sodipodi="http://sodipodi.sourceforge.net/DTD/sodipodi-0.dtd"
   xmlns="http://www.w3.org/2000/svg"
   xmlns:svg="http://www.w3.org/2000/svg"
   xmlns:rdf="http://www.w3.org/1999/02/22-rdf-syntax-ns#"
   xmlns:cc="http://creativecommons.org/ns#"
   xmlns:dc="http://purl.org/dc/elements/1.1/">
  <title
     id="title1">2d_tuyau_croix_81x62_repos</title>
  <defs
     id="defs1" />
  <sodipodi:namedview
     id="namedview1"
     pagecolor="#ffffff"
     bordercolor="#666666"
     borderopacity="1.0"
     inkscape:showpageshadow="2"
     inkscape:pageopacity="0.0"
     inkscape:pagecheckerboard="true"
     inkscape:deskcolor="#d1d1d1"
     inkscape:zoom="7.9995775"
     inkscape:cx="20.751096"
     inkscape:cy="35.564378"
     inkscape:window-width="1920"
     inkscape:window-height="1043"
     inkscape:window-x="0"
     inkscape:window-y="0"
     inkscape:window-maximized="1"
     inkscape:current-layer="svg1" />
  <!-- Intérieur du Tuyau en C8C8C8 -->
  <!-- Extérieur du Tuyau en NOIR -->
  <!-- Extérieur du Tuyau en NOIR -->
  <!-- Bulle 02 à l'Intérieur du Tuyau en VERT -->
  <!-- Petite Bulle 03 à l'Intérieur du Tuyau en ROUGE -->
  <!-- Petite Bulle 04 à l'Intérieur du Tuyau en JAUNE -->
  <!-- Bride du Tuyau et ses Boulons en GRIS -->
  <g
     id="path3"
     transform="rotate(90,-16.4,16.5)"
     style="display:inline">
    <path
       style="color:#000000;display:inline;fill:#000000;-inkscape-stroke:none;paint-order:stroke fill markers"
       d="m 2.3430357,-60.749104 a 0.71439695,0.77823663 0 0 1 -0.3581902,0.674596 0.71439695,0.77823663 0 0 1 -0.7153859,-0.0019 0.71439695,0.77823663 0 0 1 -0.35520956,-0.676463 l 0.71438866,0.0037 z"
       id="path13" />
  </g>
  <g
     id="path3-2"
     transform="rotate(90,-16.45,16.45)"
     style="display:inline">
    <path
       style="color:#000000;display:inline;fill:#000000;-inkscape-stroke:none;paint-order:stroke fill markers"
       d="m 12.958984,-60.785156 v 0.02734 c -0.0013,0.287088 0.137968,0.55203 0.367188,0.697265 0.229215,0.145244 0.514269,0.145984 0.744141,0.002 0.229867,-0.144039 0.371093,-0.40822 0.371093,-0.695312 v -0.02734 h -0.02734 -0.714844 z m 0.06641,0.05273 0.673828,0.0039 H 14.375 c -0.0099,0.257608 -0.127044,0.498504 -0.332031,0.626954 -0.213325,0.133662 -0.474767,0.132846 -0.6875,-0.002 -0.204437,-0.129532 -0.321353,-0.371234 -0.330078,-0.628906 z"
       id="path14" />
    <path
       style="color:#000000;display:inline;fill:#000000;-inkscape-stroke:none;paint-order:stroke fill markers"
       d="m 14.414348,-60.75457 a 0.71439695,0.77823663 0 0 1 -0.35819,0.674595 0.71439695,0.77823663 0 0 1 -0.715386,-0.0019 0.71439695,0.77823663 0 0 1 -0.35521,-0.676463 l 0.714389,0.0037 z"
       id="path15" />
  </g>
  <path
     id="use3"
     style="display:inline;fill:#4c4c4c;stroke-width:0.220896;stroke-linejoin:round;paint-order:stroke fill markers"
     d="m 22.467777,43.544161 v 1.499961 H 1.4692211 v -1.499961 z" />
  <path
     id="use4"
     style="display:inline;fill:#4c4c4c;stroke-width:0.172615;stroke-linejoin:round;paint-order:stroke fill markers"
     d="m 61.528219,48.438 c -0.415499,0 -0.749999,-0.413004 -0.749999,-0.926019 v -13.68596 c 0,-0.513015 0.3345,-0.926019 0.749999,-0.926019 0.415501,0 0.750001,0.413004 0.750001,0.926019 v 13.68596 c 0,0.513015 -0.3345,0.926019 -0.750001,0.926019 z" />
  <path
     id="rect1-5-2-6"
     style="display:inline;fill:#4c4c4c;stroke-width:0.266497;stroke-linejoin:round;paint-order:stroke fill markers"
     d="M 27.847609,79.61064 H 26.347648 V 49.047156 h 1.499961 z" />
  <path
     id="use2-3"
     style="display:inline;fill:#4c4c4c;stroke-width:0.266367;stroke-linejoin:round;paint-order:stroke fill markers"
     d="M 35.264961,79.61064 H 33.765 V 49.077031 h 1.499961 z" />
  <path
     style="color:#000000;display:inline;fill:#4c4c4c;-inkscape-stroke:none;paint-order:stroke fill markers"
     d="m 27.876953,49.116797 c 0.03357,-1.485353 -0.542652,-2.92001 -1.59375,-3.970703 -1.051098,-1.050694 -2.486361,-1.628228 -3.972656,-1.595703 l 0.0332,1.5 c 1.078089,-0.02359 2.116882,0.394519 2.878906,1.15625 0.762024,0.761731 1.17862,1.800659 1.154297,2.876953 z"
     id="path10" />
  <path
     id="use3-7"
     style="display:inline;fill:#4c4c4c;stroke-width:0.223568;stroke-linejoin:round;paint-order:stroke fill markers"
     d="m 39.313976,43.584818 v 1.499961 h 21.509645 v -1.499961 z" />
  <path
     style="color:#000000;display:inline;fill:#4c4c4c;-inkscape-stroke:none;paint-order:stroke fill markers"
     d="m 33.810547,49.146094 c -0.03357,-1.485353 0.542652,-2.92001 1.59375,-3.970703 1.051098,-1.050694 2.486361,-1.626275 3.972656,-1.59375 l -0.0332,1.5 c -1.078089,-0.02359 -2.116882,0.392566 -2.878906,1.154297 -0.762025,0.76173 -1.17862,1.800659 -1.154297,2.876953 z"
     id="path10-6" />
  <g
     id="path3-1"
     transform="rotate(-90,16.45,16.45)"
     style="display:inline">
    <path
       style="color:#000000;fill:#000000;-inkscape-stroke:none;paint-order:stroke fill markers"
       d="m -14.650391,1.4980469 v 0.027344 c -0.0013,0.2870886 0.137968,0.5539835 0.367188,0.6992188 0.22922,0.1452342 0.514274,0.1459931 0.74414,0.00195 0.229868,-0.1440391 0.371094,-0.4101737 0.371094,-0.6972656 v -0.027344 h -0.02734 -0.714843 z m 0.06641,0.052734 0.673828,0.00391 h 0.675781 c -0.0099,0.2576078 -0.127043,0.4985039 -0.332031,0.6269531 -0.21332,0.1336711 -0.474763,0.1328375 -0.6875,-0.00195 -0.204437,-0.1295327 -0.321353,-0.371235 -0.330078,-0.6289063 z"
       id="path20" />
    <path
       style="color:#000000;fill:#000000;-inkscape-stroke:none;paint-order:stroke fill markers"
       d="m -13.194967,1.5291173 a 0.71439695,0.77823663 0 0 1 -0.35819,0.6745953 0.71439695,0.77823663 0 0 1 -0.715386,-0.00187 0.71439695,0.77823663 0 0 1 -0.355209,-0.676463 l 0.714388,0.00374 z"
       id="path21" />
  </g>
  <g
     id="path3-2-9"
     transform="rotate(-90,16.45,16.45)"
     style="display:inline">
    <path
       style="color:#000000;fill:#000000;-inkscape-stroke:none;paint-order:stroke fill markers"
       d="m -2.578125,1.4941406 v 0.025391 c -0.00127,0.2870887 0.1379676,0.5539836 0.3671875,0.6992188 0.2292199,0.1452352 0.5123202,0.1459921 0.7421875,0.00195 0.2298673,-0.144039 0.3710938,-0.4101737 0.3710938,-0.6972656 v -0.025391 h -0.025391 -0.7148437 z m 0.066406,0.052734 0.6738282,0.00391 h 0.6738281 C -1.1744957,1.8076542 -1.2916047,2.047648 -1.4960939,2.1757847 -1.709414,2.3094548 -1.970857,2.308623 -2.183594,2.1738347 -2.3875219,2.044618 -2.5024167,1.8037939 -2.511719,1.5468746 Z"
       id="path22" />
    <path
       style="color:#000000;fill:#000000;-inkscape-stroke:none;paint-order:stroke fill markers"
       d="M -1.1236539,1.5236509 A 0.71439695,0.77823663 0 0 1 -1.4818441,2.1982462 0.71439695,0.77823663 0 0 1 -2.19723,2.1963732 0.71439695,0.77823663 0 0 1 -2.5524395,1.5199102 l 0.7143887,0.00374 z"
       id="path23" />
  </g>
  <path
     id="use4-4"
     style="display:inline;fill:#4c4c4c;stroke-width:0.172615;stroke-linejoin:round;paint-order:stroke fill markers"
     d="M 0.74999995,32.9 C 1.1655,32.9 1.5000001,33.313005 1.5000001,33.826019 v 13.68596 c 0,0.513015 -0.3345001,0.926019 -0.75000015,0.926019 C 0.33450001,48.437998 0,48.024994 0,47.511979 V 33.826019 C 0,33.313005 0.33450001,32.9 0.74999995,32.9 Z" />
  <g
     id="path3-10"
     transform="rotate(180,-1.612016e-8,16.45)"
     style="display:inline">
    <path
       style="color:#000000;fill:#000000;-inkscape-stroke:none;paint-order:stroke fill markers"
       d="m -37.742187,-46.623047 v 0.02734 c -0.0013,0.287088 0.137967,0.553983 0.367187,0.699219 0.229215,0.145243 0.514269,0.145983 0.744141,0.002 0.229867,-0.144039 0.36914,-0.410174 0.36914,-0.697266 v -0.02734 h -0.02539 -0.714844 z m 0.06641,0.05273 0.673828,0.0039 h 0.673828 c -0.0099,0.257607 -0.127044,0.498504 -0.332031,0.626953 -0.213325,0.133662 -0.472814,0.132846 -0.685547,-0.002 -0.204437,-0.129533 -0.321353,-0.371235 -0.330078,-0.628906 z"
       id="path28" />
    <path
       style="color:#000000;fill:#000000;-inkscape-stroke:none;paint-order:stroke fill markers"
       d="m -36.287152,-46.592056 a 0.71439695,0.77823663 0 0 1 -0.35819,0.674595 0.71439695,0.77823663 0 0 1 -0.715386,-0.0019 0.71439695,0.77823663 0 0 1 -0.355209,-0.676463 l 0.714388,0.0037 z"
       id="path29" />
  </g>
  <g
     id="path3-2-6"
     transform="rotate(180,-1.612016e-8,16.45)"
     style="display:inline">
    <path
       style="color:#000000;display:inline;fill:#000000;-inkscape-stroke:none;paint-order:stroke fill markers"
       d="m -25.669922,-46.626953 -0.002,0.02539 c -0.0013,0.287088 0.139921,0.553983 0.369141,0.699218 0.229215,0.145244 0.512315,0.145984 0.742187,0.002 0.229868,-0.144039 0.371094,-0.410173 0.371094,-0.697265 V -46.623 h -0.02734 -0.71289 z m 0.06445,0.05273 0.675782,0.0039 h 0.673828 c -0.01043,0.256869 -0.127542,0.496863 -0.332032,0.625 -0.213324,0.133662 -0.474767,0.132846 -0.6875,-0.002 -0.203939,-0.129217 -0.320788,-0.370017 -0.330078,-0.626953 z"
       id="path30" />
    <path
       style="color:#000000;display:inline;fill:#000000;-inkscape-stroke:none;paint-order:stroke fill markers"
       d="m -24.215844,-46.597523 a 0.71439695,0.77823663 0 0 1 -0.35819,0.674596 0.71439695,0.77823663 0 0 1 -0.715386,-0.0019 0.71439695,0.77823663 0 0 1 -0.355209,-0.676463 l 0.714388,0.0037 z"
       id="path31" />
  </g>
  <path
     id="use4-3"
     style="display:inline;fill:#4c4c4c;stroke-width:0.172615;stroke-linejoin:round;paint-order:stroke fill markers"
     d="m 23.09219,80.271171 c 0,-0.415501 0.413004,-0.75 0.926019,-0.75 h 13.68596 c 0.513014,0 0.926019,0.334499 0.926019,0.75 0,0.4155 -0.413005,0.749999 -0.926019,0.749999 h -13.68596 c -0.513015,0 -0.926019,-0.334499 -0.926019,-0.749999 z" />
  <path
     id="use3-2"
     style="display:inline;fill:#4c4c4c;stroke-width:0.220896;stroke-linejoin:round;paint-order:stroke fill markers"
     d="M 22.398556,37.477009 V 35.977048 H 1.4 v 1.499961 z" />
  <path
     id="rect1-5-2-6-7"
     style="display:inline;fill:#4c4c4c;stroke-width:0.266497;stroke-linejoin:round;paint-order:stroke fill markers"
     d="m 27.778388,1.41053 h -1.499961 v 30.563484 h 1.499961 z" />
  <path
     id="use2-3-0"
     style="display:inline;fill:#4c4c4c;stroke-width:0.266367;stroke-linejoin:round;paint-order:stroke fill markers"
     d="M 35.19574,1.41053 H 33.695779 V 31.944139 H 35.19574 Z" />
  <path
     style="color:#000000;display:inline;fill:#4c4c4c;-inkscape-stroke:none;paint-order:stroke fill markers"
     d="m 27.807732,31.904373 c 0.03357,1.485353 -0.542652,2.92001 -1.59375,3.970703 -1.051098,1.050694 -2.486361,1.628228 -3.972656,1.595703 l 0.0332,-1.5 c 1.078089,0.02359 2.116882,-0.394519 2.878906,-1.15625 0.762024,-0.761731 1.17862,-1.800659 1.154297,-2.876953 z"
     id="path10-9" />
  <path
     id="use3-7-3"
     style="display:inline;fill:#4c4c4c;stroke-width:0.226475;stroke-linejoin:round;paint-order:stroke fill markers"
     d="m 39.244755,37.436352 v -1.499961 h 22.072571 v 1.499961 z" />
  <path
     style="color:#000000;display:inline;fill:#4c4c4c;-inkscape-stroke:none;paint-order:stroke fill markers"
     d="m 33.741326,31.875076 c -0.03357,1.485353 0.542652,2.92001 1.59375,3.970703 1.051098,1.050694 2.486361,1.626275 3.972656,1.59375 l -0.0332,-1.5 c -1.078089,0.02359 -2.116882,-0.392566 -2.878906,-1.154297 -0.762025,-0.76173 -1.17862,-1.800659 -1.154297,-2.876953 z"
     id="path10-6-6" />
  <g
     id="path3-10-6"
     transform="matrix(-1,0,0,1,-0.0692211,48.121171)"
     style="display:inline">
    <path
       style="color:#000000;fill:#000000;-inkscape-stroke:none;paint-order:stroke fill markers"
       d="m -37.742187,-46.623047 v 0.02734 c -0.0013,0.287088 0.137967,0.553983 0.367187,0.699219 0.229215,0.145243 0.514269,0.145983 0.744141,0.002 0.229867,-0.144039 0.36914,-0.410174 0.36914,-0.697266 v -0.02734 h -0.02539 -0.714844 z m 0.06641,0.05273 0.673828,0.0039 h 0.673828 c -0.0099,0.257607 -0.127044,0.498504 -0.332031,0.626953 -0.213325,0.133662 -0.472814,0.132846 -0.685547,-0.002 -0.204437,-0.129533 -0.321353,-0.371235 -0.330078,-0.628906 z"
       id="path28-1" />
    <path
       style="color:#000000;fill:#000000;-inkscape-stroke:none;paint-order:stroke fill markers"
       d="m -36.287152,-46.592056 a 0.71439695,0.77823663 0 0 1 -0.35819,0.674595 0.71439695,0.77823663 0 0 1 -0.715386,-0.0019 0.71439695,0.77823663 0 0 1 -0.355209,-0.676463 l 0.714388,0.0037 z"
       id="path29-8" />
  </g>
  <g
     id="path3-2-6-7"
     transform="matrix(-1,0,0,1,-0.0692211,48.121171)"
     style="display:inline">
    <path
       style="color:#000000;display:inline;fill:#000000;-inkscape-stroke:none;paint-order:stroke fill markers"
       d="m -25.669922,-46.626953 -0.002,0.02539 c -0.0013,0.287088 0.139921,0.553983 0.369141,0.699218 0.229215,0.145244 0.512315,0.145984 0.742187,0.002 0.229868,-0.144039 0.371094,-0.410173 0.371094,-0.697265 V -46.623 h -0.02734 -0.71289 z m 0.06445,0.05273 0.675782,0.0039 h 0.673828 c -0.01043,0.256869 -0.127542,0.496863 -0.332032,0.625 -0.213324,0.133662 -0.474767,0.132846 -0.6875,-0.002 -0.203939,-0.129217 -0.320788,-0.370017 -0.330078,-0.626953 z"
       id="path30-9" />
    <path
       style="color:#000000;display:inline;fill:#000000;-inkscape-stroke:none;paint-order:stroke fill markers"
       d="m -24.215844,-46.597523 a 0.71439695,0.77823663 0 0 1 -0.35819,0.674596 0.71439695,0.77823663 0 0 1 -0.715386,-0.0019 0.71439695,0.77823663 0 0 1 -0.355209,-0.676463 l 0.714388,0.0037 z"
       id="path31-2" />
  </g>
  <path
     id="use4-3-0"
     style="display:inline;fill:#4c4c4c;stroke-width:0.172615;stroke-linejoin:round;paint-order:stroke fill markers"
     d="m 23.022969,0.749999 c 0,0.415501 0.413004,0.75 0.926019,0.75 h 13.68596 c 0.513014,0 0.926019,-0.334499 0.926019,-0.75 C 38.560967,0.334499 38.147962,0 37.634948,0 h -13.68596 c -0.513015,0 -0.926019,0.334499 -0.926019,0.749999 z" />
  <path
     id="rect1"
     style="display:inline;fill:#add8e6;stroke:#add8e6;stroke-width:1.23484;paint-order:stroke fill markers"
     d="m 28.353798,2.0118601 h 4.832054 c 0.0072,0 -0.01965,2.1343011 -0.02012,2.1773585 l -0.08089,7.3967744 v 9.620685 l -0.05521,9.593115 0.115066,2.128149 0.340481,1.188188 0.583077,1.181528 1.096899,1.3062 1.285523,0.838179 1.530607,0.55939 1.698111,0.03062 3.438469,0.01673 4.958186,0.0076 1.493511,-0.02462 1.905215,0.0488 1.446145,0.02478 2.23882,-0.05473 2.27703,0.0073 2.715912,0.02485 0.03785,2.234371 -0.120684,2.580964 -2.541909,0.06908 -1.735928,-0.01887 -2.044278,0.03873 -1.893025,0.04368 -1.811234,-0.04532 -1.654625,0.02526 -2.205725,-0.02162 -2.375198,-0.0071 -2.606518,-0.07981 -2.22808,0.05255 -2.20429,0.449046 -1.542742,1.10445 -1.194608,1.346307 -0.78492,1.998259 -0.03001,2.196164 -0.13192,9.640509 v 9.620685 9.620685 c 0,0.04306 0.108159,0.202008 0.101009,0.202008 h -4.832054 c -0.0072,0 0.196646,0.03364 0.196646,-0.0094 l -0.05698,-4.640252 0.0059,-4.825877 -0.01089,-4.763316 0.01653,-4.919662 -0.02635,-4.899276 0.0024,-4.570322 -0.186854,-3.239493 -0.922838,-1.842863 -0.988956,-1.114884 -1.16575,-0.728419 -1.693086,-0.541246 -4.787236,-0.103871 -3.36141,0.05361 -3.323109,-0.09523 -3.264634,0.01891 -6.6708426,-0.0036 0.0831,-2.383601 -0.1146645,-2.36182 7.0547359,-0.03406 3.2444152,0.04335 2.990999,0.0057 3.110786,-0.05294 3.464291,0.02416 2.20661,-0.25886 1.695718,-0.789798 1.257177,-1.26876 0.913852,-1.660806 0.411978,-1.974891 -0.02335,-5.739818 0.01567,-5.105086 -1.68e-4,-4.838983 -0.03491,-4.640259 0.0141,-4.9028825 -0.0371,-4.7539211 c -3.36e-4,-0.043059 -0.02298,-0.202457 -0.01582,-0.2024573 z"
     sodipodi:nodetypes="csscccccccccccccccccccccccccccccccccccccsssscccccccccccccccccccccccccccccccccsc" />
  <!-- Grosse Bulle 01 à l'Intérieur du Tuyau en BLEU -->
  <ellipse
     cx="4.1109467"
     cy="40.558186"
     rx="2.5000694"
     ry="2.9286528"
     fill="#00fffc"
     stroke="#000000"
     id="ellipse1"
     style="stroke-width:0.142861">
    <animate
       attributeName="cx"
       begin="0s"
       from="4"
       to="58"
       dur="4s"
       repeatCount="indefinite" />
  </ellipse>
  <!-- Grosse Bulle 02 à l'Intérieur du Tuyau en VERT -->
  <ellipse
     cx="4.0959539"
     cy="40.558186"
     rx="2.5000694"
     ry="2.9286528"
     fill="#00fffc"
     stroke="#000000"
     id="ellipse2"
     style="stroke-width:0.142861">
    <animate
       attributeName="cx"
       begin="0.25s"
       from="4"
       to="58"
       dur="3.5"
       repeatCount="indefinite" />
  </ellipse>
  <!-- Petite Bulle 03 à l'Intérieur du Tuyau en JAUNE -->
  <ellipse
     cx="4.0959539"
     cy="40.558186"
     rx="1.7031308"
     ry="1.453892"
     fill="#00fffc"
     stroke="#000000"
     id="ellipse3"
     style="display:inline;stroke-width:0.0830797">
    <animate
       attributeName="cx"
       begin="0.5s"
       from="4"
       to="58"
       dur="3s"
       repeatCount="indefinite" />
  </ellipse>
  <!-- Petite Bulle 04 à l'Intérieur du Tuyau en ROUGE -->
  <ellipse
     cx="4.0959539"
     cy="40.558186"
     rx="1.7031308"
     ry="1.453892"
     fill="#00fffc"
     stroke="#000000"
     id="ellipse4"
     style="display:inline;stroke-width:0.0830797">
    <animate
       attributeName="cx"
       begin="0.75s"
       from="4"
       to="58"
       dur="2.5s"
       repeatCount="indefinite" />
  </ellipse>
  <metadata
     id="metadata1">
    <rdf:RDF>
      <cc:Work
         rdf:about="">
        <dc:title>2d_tuyau_croix_81x62_repos</dc:title>
        <dc:date>30_09_2023</dc:date>
        <dc:creator>
          <cc:Agent>
            <dc:title>bruno lefevre</dc:title>
          </cc:Agent>
        </dc:creator>
        <dc:publisher>
          <cc:Agent>
            <dc:title>abls-habitat</dc:title>
          </cc:Agent>
        </dc:publisher>
      </cc:Work>
    </rdf:RDF>
  </metadata>
</svg>
