<?xml version="1.0" encoding="UTF-8" standalone="no"?>
<svg
   width="41.201687"
   height="51.121254"
   xml:lang="fr"
   viewBox="0 0 41.201687 51.121254"
   preserveAspectRatio="xMidYMid"
   version="1.1"
   id="svg1"
   sodipodi:docname="2d_tuyau_coude_anime_01_source.svg"
   inkscape:version="1.3 (0e150ed6c4, 2023-07-21)"
   xmlns:inkscape="http://www.inkscape.org/namespaces/inkscape"
   xmlns:sodipodi="http://sodipodi.sourceforge.net/DTD/sodipodi-0.dtd"
   xmlns:xlink="http://www.w3.org/1999/xlink"
   xmlns="http://www.w3.org/2000/svg"
   xmlns:svg="http://www.w3.org/2000/svg">
  <defs
     id="defs1" />
  <sodipodi:namedview
     id="namedview1"
     pagecolor="#ffffff"
     bordercolor="#666666"
     borderopacity="1.0"
     inkscape:showpageshadow="2"
     inkscape:pageopacity="0.0"
     inkscape:pagecheckerboard="true"
     inkscape:deskcolor="#d1d1d1"
     inkscape:zoom="10.684993"
     inkscape:cx="25.456264"
     inkscape:cy="26.251772"
     inkscape:window-width="1920"
     inkscape:window-height="1043"
     inkscape:window-x="0"
     inkscape:window-y="0"
     inkscape:window-maximized="1"
     inkscape:current-layer="svg1" />
  <!-- Intérieur du Tuyau en C8C8C8 -->
  <!-- Extérieur du Tuyau en NOIR -->
  <!-- Extérieur du Tuyau en NOIR -->
  <!-- Bulle 02 à l'Intérieur du Tuyau en VERT -->
  <!-- Petite Bulle 03 à l'Intérieur du Tuyau en ROUGE -->
  <!-- Petite Bulle 04 à l'Intérieur du Tuyau en JAUNE -->
  <!-- Bride du Tuyau et ses Boulons en GRIS -->
  <path
     id="use1"
     style="display:inline;fill:#ffbe00;stroke-width:0.747177;stroke-linejoin:round;paint-order:stroke fill markers"
     d="m 27.08081,7.5377502 2.862209,0.9564211 2.008167,1.1057705 1.388898,1.4179572 0.843326,0.982905 0.601821,1.048499 0.564961,0.988832 0.444694,0.82299 0.06987,0.597352 0.135922,0.60121 0.275453,1.124984 0.195618,1.118395 -0.04969,31.40792 -3.02964,-0.06808 -3.006429,-0.04073 -0.174775,-31.36144 -2.858234,-4.017374 -8.297145,-0.56039 -14.9658756,0.143511 -0.070988,-6.2446413 z"
     sodipodi:nodetypes="ccccccccccccccccccccc" />
  <path
     id="use2"
     style="display:inline;fill:#4c4c4c;stroke-width:0.230999;stroke-linejoin:round;paint-order:stroke fill markers"
     d="M 26.966212,6.1325313 V 7.6324921 H 4.0028957 V 6.1325313 Z" />
  <path
     id="use3"
     style="display:inline;fill:#4c4c4c;stroke-width:0.220896;stroke-linejoin:round;paint-order:stroke fill markers"
     d="m 25.039277,13.644244 v 1.499961 H 4.040721 v -1.499961 z" />
  <path
     id="rect1-5-2-6"
     style="display:inline;fill:#4c4c4c;stroke-width:0.266497;stroke-linejoin:round;paint-order:stroke fill markers"
     d="M 30.419109,49.710723 H 28.919148 V 19.147239 h 1.499961 z" />
  <path
     id="use2-3"
     style="display:inline;fill:#4c4c4c;stroke-width:0.271156;stroke-linejoin:round;paint-order:stroke fill markers"
     d="M 37.836461,49.710723 H 36.3365 V 18.069426 h 1.499961 z" />
  <path
     style="color:#000000;display:inline;fill:#4c4c4c;-inkscape-stroke:none;paint-order:stroke fill markers"
     d="m 30.40254,19.242521 c 0.03357,-1.485353 -0.542652,-2.92001 -1.59375,-3.970703 -1.051098,-1.050694 -2.486361,-1.628228 -3.972656,-1.595703 l 0.0332,1.5 c 1.078089,-0.02359 2.116882,0.394519 2.878906,1.15625 0.762024,0.761731 1.17862,1.800659 1.154297,2.876953 z"
     id="path10" />
  <g
     id="path3-1"
     transform="rotate(-90,2.7857916,0.21429169)"
     style="display:inline">
    <path
       style="color:#000000;fill:#000000;-inkscape-stroke:none;paint-order:stroke fill markers"
       d="m -14.650391,1.4980469 v 0.027344 c -0.0013,0.2870886 0.137968,0.5539835 0.367188,0.6992188 0.22922,0.1452342 0.514274,0.1459931 0.74414,0.00195 0.229868,-0.1440391 0.371094,-0.4101737 0.371094,-0.6972656 v -0.027344 h -0.02734 -0.714843 z m 0.06641,0.052734 0.673828,0.00391 h 0.675781 c -0.0099,0.2576078 -0.127043,0.4985039 -0.332031,0.6269531 -0.21332,0.1336711 -0.474763,0.1328375 -0.6875,-0.00195 -0.204437,-0.1295327 -0.321353,-0.371235 -0.330078,-0.6289063 z"
       id="path20" />
    <path
       style="color:#000000;fill:#000000;-inkscape-stroke:none;paint-order:stroke fill markers"
       d="m -13.194967,1.5291173 a 0.71439695,0.77823663 0 0 1 -0.35819,0.6745953 0.71439695,0.77823663 0 0 1 -0.715386,-0.00187 0.71439695,0.77823663 0 0 1 -0.355209,-0.676463 l 0.714388,0.00374 z"
       id="path21" />
  </g>
  <g
     id="path3-2-9"
     transform="rotate(-90,2.7857916,0.21429169)"
     style="display:inline">
    <path
       style="color:#000000;fill:#000000;-inkscape-stroke:none;paint-order:stroke fill markers"
       d="m -2.578125,1.4941406 v 0.025391 c -0.00127,0.2870887 0.1379676,0.5539836 0.3671875,0.6992188 0.2292199,0.1452352 0.5123202,0.1459921 0.7421875,0.00195 0.2298673,-0.144039 0.3710938,-0.4101737 0.3710938,-0.6972656 v -0.025391 h -0.025391 -0.7148437 z m 0.066406,0.052734 0.6738282,0.00391 h 0.6738281 C -1.1744957,1.8076542 -1.2916047,2.047648 -1.4960939,2.1757847 -1.709414,2.3094548 -1.970857,2.308623 -2.183594,2.1738347 -2.3875219,2.044618 -2.5024167,1.8037939 -2.511719,1.5468746 Z"
       id="path22" />
    <path
       style="color:#000000;fill:#000000;-inkscape-stroke:none;paint-order:stroke fill markers"
       d="M -1.1236539,1.5236509 A 0.71439695,0.77823663 0 0 1 -1.4818441,2.1982462 0.71439695,0.77823663 0 0 1 -2.19723,2.1963732 0.71439695,0.77823663 0 0 1 -2.5524395,1.5199102 l 0.7143887,0.00374 z"
       id="path23" />
  </g>
  <path
     id="use4-4"
     style="display:inline;fill:#4c4c4c;stroke-width:0.172615;stroke-linejoin:round;paint-order:stroke fill markers"
     d="m 3.3214998,3.0000833 c 0.4155001,0 0.7500002,0.4130045 0.7500002,0.9260191 V 17.612062 c 0,0.513015 -0.3345001,0.926019 -0.7500002,0.926019 -0.4154999,0 -0.7499999,-0.413004 -0.7499999,-0.926019 V 3.9261024 c 0,-0.5130146 0.3345,-0.9260191 0.7499999,-0.9260191 z" />
  <g
     id="path3-10"
     transform="rotate(180,1.2857499,1.5000416)"
     style="display:inline">
    <path
       style="color:#000000;fill:#000000;-inkscape-stroke:none;paint-order:stroke fill markers"
       d="m -37.742187,-46.623047 v 0.02734 c -0.0013,0.287088 0.137967,0.553983 0.367187,0.699219 0.229215,0.145243 0.514269,0.145983 0.744141,0.002 0.229867,-0.144039 0.36914,-0.410174 0.36914,-0.697266 v -0.02734 h -0.02539 -0.714844 z m 0.06641,0.05273 0.673828,0.0039 h 0.673828 c -0.0099,0.257607 -0.127044,0.498504 -0.332031,0.626953 -0.213325,0.133662 -0.472814,0.132846 -0.685547,-0.002 -0.204437,-0.129533 -0.321353,-0.371235 -0.330078,-0.628906 z"
       id="path28" />
    <path
       style="color:#000000;fill:#000000;-inkscape-stroke:none;paint-order:stroke fill markers"
       d="m -36.287152,-46.592056 a 0.71439695,0.77823663 0 0 1 -0.35819,0.674595 0.71439695,0.77823663 0 0 1 -0.715386,-0.0019 0.71439695,0.77823663 0 0 1 -0.355209,-0.676463 l 0.714388,0.0037 z"
       id="path29" />
  </g>
  <g
     id="path3-2-6"
     transform="rotate(180,1.2857499,1.5000416)"
     style="display:inline">
    <path
       style="color:#000000;display:inline;fill:#000000;-inkscape-stroke:none;paint-order:stroke fill markers"
       d="m -25.669922,-46.626953 -0.002,0.02539 c -0.0013,0.287088 0.139921,0.553983 0.369141,0.699218 0.229215,0.145244 0.512315,0.145984 0.742187,0.002 0.229868,-0.144039 0.371094,-0.410173 0.371094,-0.697265 V -46.623 h -0.02734 -0.71289 z m 0.06445,0.05273 0.675782,0.0039 h 0.673828 c -0.01043,0.256869 -0.127542,0.496863 -0.332032,0.625 -0.213324,0.133662 -0.474767,0.132846 -0.6875,-0.002 -0.203939,-0.129217 -0.320788,-0.370017 -0.330078,-0.626953 z"
       id="path30" />
    <path
       style="color:#000000;display:inline;fill:#000000;-inkscape-stroke:none;paint-order:stroke fill markers"
       d="m -24.215844,-46.597523 a 0.71439695,0.77823663 0 0 1 -0.35819,0.674596 0.71439695,0.77823663 0 0 1 -0.715386,-0.0019 0.71439695,0.77823663 0 0 1 -0.355209,-0.676463 l 0.714388,0.0037 z"
       id="path31" />
  </g>
  <path
     id="use4-3"
     style="display:inline;fill:#4c4c4c;stroke-width:0.172615;stroke-linejoin:round;paint-order:stroke fill markers"
     d="m 25.66369,50.371254 c 0,-0.415501 0.413004,-0.75 0.926019,-0.75 h 13.68596 c 0.513014,0 0.926019,0.334499 0.926019,0.75 0,0.4155 -0.413005,0.749999 -0.926019,0.749999 h -13.68596 c -0.513015,0 -0.926019,-0.334499 -0.926019,-0.749999 z" />
  <path
     style="display:inline;fill:none;fill-rule:evenodd;stroke:#4c4c4c;stroke-width:1.5;stroke-dasharray:none;stroke-opacity:1"
     id="path1"
     transform="rotate(-81.71592)"
     sodipodi:type="arc"
     sodipodi:cx="-14.887217"
     sodipodi:cy="27.577579"
     sodipodi:rx="12.000093"
     sodipodi:ry="12.000093"
     sodipodi:start="0"
     sodipodi:end="1.3795057"
     sodipodi:open="true"
     sodipodi:arc-type="arc"
     d="M -2.8871231,27.577579 A 12.000093,12.000093 0 0 1 -12.605685,39.358787" />
  <!-- MOTIONPATH à l'Intérieur du Tuyau en BLEU -->
  <path
     d="m 33.759079,49.411777 c -0.359412,-5.9301 -0.10863,-11.232316 -0.237039,-14.907154 -0.128409,-3.674839 0.106987,-10.810061 -0.01009,-11.911991 -0.08675,-0.816456 0.16808,-5.103543 -0.439385,-6.244922 -0.497007,-0.933836 -0.785796,-1.950124 -1.560212,-2.699962 -0.751224,-0.727381 -0.702346,-0.590577 -1.37,-1.364746 -0.667655,-0.774169 -0.556777,0.153822 -1.238681,-0.57784 -0.670923,-0.71988 -0.58867,-0.286521 -2.269148,-0.591877 -0.538682,-0.09788 -7.409719,-0.05811 -21.5706605,-0.169657"
     stroke="#d3d3d3"
     stroke-width="0.658912"
     fill="none"
     id="coudePath"
     sodipodi:nodetypes="czssssssc"
     style="fill:none;fill-opacity:1;stroke:none;stroke-opacity:1" />
  <!-- Grosse Bulle 01 qui sera déplacé le long du chemin. -->
  <g
     id="g4"
     transform="translate(2.5714999,3.0000833)">
    <use
       href="#coudePath"
       id="use4"
       transform="translate(-2.5714999,-3.0000833)" />
    <ellipse
       cx="0"
       cy="0"
       rx="2.5000694"
       ry="2.9286528"
       fill="#00fffc"
       stroke="#000000"
       id="ellipse1"
       style="stroke-width:0.142861">
      <animateMotion
         begin="0s"
         dur="4s"
         repeatCount="indefinite"
         rotate="auto">
        <mpath
           xlink:href="#coudePath" />
      </animateMotion>
    </ellipse>
  </g>
  <!-- Grosse Bulle 02 à l'Intérieur du Tuyau en VERT -->
  <g
     id="g5"
     transform="translate(2.5714999,3.0000833)">
    <use
       href="#coudePath"
       id="use5"
       transform="translate(-2.5714999,-3.0000833)" />
    <ellipse
       cx="0"
       cy="0"
       rx="2.5000694"
       ry="2.9286528"
       fill="#00fffc"
       stroke="#000000"
       id="ellipse2"
       style="stroke-width:0.142861">
      <animateMotion
         begin="0.25s"
         dur="3.5s"
         repeatCount="indefinite"
         rotate="auto">
        <mpath
           xlink:href="#coudePath" />
      </animateMotion>
    </ellipse>
  </g>
  <!-- Petite Bulle 03 à l'Intérieur du Tuyau en VERT -->
  <g
     id="g6"
     transform="translate(2.5714999,3.0000833)">
    <use
       href="#coudePath"
       id="use6"
       transform="translate(-2.5714999,-3.0000833)" />
    <ellipse
       cx="0"
       cy="0"
       rx="1.7031308"
       ry="1.453892"
       fill="#00fffc"
       stroke="#000000"
       id="ellipse3"
       style="stroke-width:0.142861">
      <animateMotion
         begin="0.5s"
         dur="3s"
         repeatCount="indefinite"
         rotate="auto">
        <mpath
           xlink:href="#coudePath" />
      </animateMotion>
    </ellipse>
  </g>
  <!-- Petite Bulle 04 à l'Intérieur du Tuyau en VERT -->
  <g
     id="g7"
     transform="translate(2.5714999,3.0000833)">
    <use
       href="#coudePath"
       id="use7"
       transform="translate(-2.5714999,-3.0000833)" />
    <ellipse
       cx="0"
       cy="0"
       rx="1.7031308"
       ry="1.453892"
       fill="#00fffc"
       stroke="#000000"
       id="ellipse4"
       style="stroke-width:0.142861">
      <animateMotion
         begin="0.75s"
         dur="2.5s"
         repeatCount="indefinite"
         rotate="auto">
        <mpath
           xlink:href="#coudePath" />
      </animateMotion>
    </ellipse>
  </g>
</svg>
