<?xml version="1.0" encoding="UTF-8" standalone="no"?>
<!-- Generator: Adobe Illustrator 22.1.0, SVG Export Plug-In . SVG Version: 6.00 Build 0)  -->

<svg
   version="1.1"
   id="Calque_12"
   x="0px"
   y="0px"
   viewBox="0 0 140 140"
   style="enable-background:new 0 0 140 140;"
   xml:space="preserve"
   sodipodi:docname="ampoule_tout_allumer.svg"
   inkscape:version="1.3 (0e150ed6c4, 2023-07-21)"
   xmlns:inkscape="http://www.inkscape.org/namespaces/inkscape"
   xmlns:sodipodi="http://sodipodi.sourceforge.net/DTD/sodipodi-0.dtd"
   xmlns:xlink="http://www.w3.org/1999/xlink"
   xmlns="http://www.w3.org/2000/svg"
   xmlns:svg="http://www.w3.org/2000/svg"><defs
   id="defs563"><linearGradient
   id="SVGID_124_"
   gradientUnits="userSpaceOnUse"
   x1="47.071899"
   y1="79.417603"
   x2="55.6455"
   y2="94.267601"
   gradientTransform="matrix(1.3025551,0,0,1.1837612,35.305057,-6.1687927)">&#10;					<stop
   offset="0"
   style="stop-color:#FFFFFF"
   id="stop2169" />&#10;					<stop
   offset="6.150067e-02"
   style="stop-color:#E9F5F6"
   id="stop2171" />&#10;					<stop
   offset="0.1439"
   style="stop-color:#D3ECEC"
   id="stop2173" />&#10;					<stop
   offset="0.2413"
   style="stop-color:#C2E4E5"
   id="stop2175" />&#10;					<stop
   offset="0.3618"
   style="stop-color:#B7DFE0"
   id="stop2177" />&#10;					<stop
   offset="0.5308"
   style="stop-color:#B0DCDD"
   id="stop2179" />&#10;					<stop
   offset="1"
   style="stop-color:#AEDBDC"
   id="stop2181" />&#10;				</linearGradient><linearGradient
   id="SVGID_93_-1"
   gradientUnits="userSpaceOnUse"
   x1="93.563797"
   y1="83.900703"
   x2="93.563797"
   y2="80.163597"
   gradientTransform="matrix(0.85367819,0,0,0.40410516,-35.173845,19.590785)">&#10;		<stop
   offset="0"
   style="stop-color:#000000;stop-opacity:0;"
   id="stop508-9" />&#10;			&#10;			&#10;			&#10;			&#10;			&#10;			<stop
   offset="1"
   style="stop-color:#565656;stop-opacity:1;"
   id="stop502-3" />&#10;			</linearGradient>&#10;	&#10;	&#10;	&#10;&#10;			<linearGradient
   id="SVGID_48_"
   gradientUnits="userSpaceOnUse"
   x1="19.6762"
   y1="33.0766"
   x2="119.3312"
   y2="43.5507"
   gradientTransform="matrix(1.9879318,0,0,1,-19.165876,0)">&#10;				<stop
   offset="0"
   style="stop-color:#F4F4F4"
   id="stop258" />&#10;				<stop
   offset="0.3911"
   style="stop-color:#F0F0F0"
   id="stop259" />&#10;				<stop
   offset="0.7578"
   style="stop-color:#E5E5E5"
   id="stop260" />&#10;				<stop
   offset="1"
   style="stop-color:#D9D9D9"
   id="stop261" />&#10;			</linearGradient>&#10;			&#10;			<linearGradient
   id="SVGID_49_"
   gradientUnits="userSpaceOnUse"
   x1="44.6707"
   y1="42.5242"
   x2="44.6707"
   y2="40.5457"
   gradientTransform="matrix(1.0030787,0,0,1,-0.0597272,0)">&#10;				<stop
   offset="0"
   style="stop-color:#D9D9D9"
   id="stop262" />&#10;				<stop
   offset="0.1244"
   style="stop-color:#E6E6E6"
   id="stop263" />&#10;				<stop
   offset="0.3309"
   style="stop-color:#F4F4F4"
   id="stop264" />&#10;				<stop
   offset="0.5822"
   style="stop-color:#FCFCFC"
   id="stop265" />&#10;				<stop
   offset="1"
   style="stop-color:#FFFFFF"
   id="stop266" />&#10;			</linearGradient>&#10;			&#10;			<linearGradient
   id="SVGID_50_"
   gradientUnits="userSpaceOnUse"
   x1="69.462"
   y1="43.0924"
   x2="69.462"
   y2="42.5242"
   gradientTransform="matrix(1.9966702,0,0,1,-19.634403,0)">&#10;				<stop
   offset="0"
   style="stop-color:#6C6C6C"
   id="stop267" />&#10;				<stop
   offset="0.1821"
   style="stop-color:#7E7E7E"
   id="stop268" />&#10;				<stop
   offset="0.4602"
   style="stop-color:#929292"
   id="stop269" />&#10;				<stop
   offset="0.7349"
   style="stop-color:#9F9F9F"
   id="stop270" />&#10;				<stop
   offset="1"
   style="stop-color:#A3A3A3"
   id="stop271" />&#10;			</linearGradient>&#10;			&#10;		<linearGradient
   id="SVGID_1_-9"
   gradientUnits="userSpaceOnUse"
   x1="21.742901"
   y1="43.193199"
   x2="67.374603"
   y2="105.888">&#10;			<stop
   offset="0"
   style="stop-color:#FFFFFF"
   id="stop3-3" />&#10;			<stop
   offset="1"
   style="stop-color:#C7C7C7"
   id="stop4-6" />&#10;		</linearGradient><linearGradient
   id="SVGID_2_-0"
   gradientUnits="userSpaceOnUse"
   x1="25.242201"
   y1="103.3701"
   x2="25.242201"
   y2="46.0298">&#10;				<stop
   offset="0"
   style="stop-color:#B1B1B1"
   id="stop5-6" />&#10;				<stop
   offset="0.4904"
   style="stop-color:#B3B3B3"
   id="stop6-2" />&#10;				<stop
   offset="0.667"
   style="stop-color:#BABABA"
   id="stop7-6" />&#10;				<stop
   offset="0.793"
   style="stop-color:#C5C5C5"
   id="stop8-1" />&#10;				<stop
   offset="0.8947"
   style="stop-color:#D6D6D6"
   id="stop9-8" />&#10;				<stop
   offset="0.9809"
   style="stop-color:#ECECEC"
   id="stop10-7" />&#10;				<stop
   offset="1"
   style="stop-color:#F2F2F2"
   id="stop11-9" />&#10;			</linearGradient><linearGradient
   id="SVGID_3_-2"
   gradientUnits="userSpaceOnUse"
   x1="24.980801"
   y1="46.278"
   x2="64.368698"
   y2="46.278">&#10;				<stop
   offset="0"
   style="stop-color:#A0A0A0"
   id="stop12-0" />&#10;				<stop
   offset="0.1269"
   style="stop-color:#A8A8A8"
   id="stop13-2" />&#10;				<stop
   offset="0.3579"
   style="stop-color:#AFAFAF"
   id="stop14-3" />&#10;				<stop
   offset="1"
   style="stop-color:#B1B1B1"
   id="stop15-7" />&#10;			</linearGradient><linearGradient
   id="SVGID_4_-5"
   gradientUnits="userSpaceOnUse"
   x1="64.107201"
   y1="103.3701"
   x2="64.107201"
   y2="46.0298">&#10;				<stop
   offset="0"
   style="stop-color:#F8F8F8"
   id="stop16-9" />&#10;				<stop
   offset="0.2326"
   style="stop-color:#FDFDFD"
   id="stop17-2" />&#10;				<stop
   offset="1"
   style="stop-color:#FFFFFF"
   id="stop18-2" />&#10;			</linearGradient><linearGradient
   id="SVGID_18_-8"
   gradientUnits="userSpaceOnUse"
   x1="44.674702"
   y1="47.4478"
   x2="44.674702"
   y2="45.268902">&#10;				<stop
   offset="0"
   style="stop-color:#FFFFFF"
   id="stop98-9" />&#10;				<stop
   offset="0.1811"
   style="stop-color:#FBFBFB"
   id="stop99-7" />&#10;				<stop
   offset="0.3684"
   style="stop-color:#EEEEEE"
   id="stop100-3" />&#10;				<stop
   offset="0.5"
   style="stop-color:#E1E1E1"
   id="stop101-6" />&#10;				<stop
   offset="0.9"
   style="stop-color:#A3A3A3"
   id="stop102-1" />&#10;				<stop
   offset="1"
   style="stop-color:#A3A3A3"
   id="stop103-2" />&#10;			</linearGradient><linearGradient
   id="SVGID_19_-9"
   gradientUnits="userSpaceOnUse"
   x1="44.674702"
   y1="45.268902"
   x2="44.674702"
   y2="43.090099">&#10;				<stop
   offset="0"
   style="stop-color:#FFFFFF"
   id="stop104-3" />&#10;				<stop
   offset="0.1811"
   style="stop-color:#FBFBFB"
   id="stop105-1" />&#10;				<stop
   offset="0.3684"
   style="stop-color:#EEEEEE"
   id="stop106-9" />&#10;				<stop
   offset="0.5"
   style="stop-color:#E1E1E1"
   id="stop107-4" />&#10;				<stop
   offset="0.9"
   style="stop-color:#A3A3A3"
   id="stop108-7" />&#10;				<stop
   offset="1"
   style="stop-color:#A3A3A3"
   id="stop109-8" />&#10;			</linearGradient><linearGradient
   id="SVGID_33_-4"
   gradientUnits="userSpaceOnUse"
   x1="44.6745"
   y1="47.536999"
   x2="44.6745"
   y2="47.358601">&#10;			<stop
   offset="0"
   style="stop-color:#F4F4F4"
   id="stop162-5" />&#10;			<stop
   offset="0.3911"
   style="stop-color:#F0F0F0"
   id="stop163-0" />&#10;			<stop
   offset="0.7578"
   style="stop-color:#E5E5E5"
   id="stop164-3" />&#10;			<stop
   offset="1"
   style="stop-color:#D9D9D9"
   id="stop165-6" />&#10;		</linearGradient><linearGradient
   id="SVGID_34_-1"
   gradientUnits="userSpaceOnUse"
   x1="44.6745"
   y1="45.358101"
   x2="44.6745"
   y2="45.179699">&#10;			<stop
   offset="0"
   style="stop-color:#F4F4F4"
   id="stop166-0" />&#10;			<stop
   offset="0.3911"
   style="stop-color:#F0F0F0"
   id="stop167-6" />&#10;			<stop
   offset="0.7578"
   style="stop-color:#E5E5E5"
   id="stop168-3" />&#10;			<stop
   offset="1"
   style="stop-color:#D9D9D9"
   id="stop169-2" />&#10;		</linearGradient><linearGradient
   id="SVGID_35_-0"
   gradientUnits="userSpaceOnUse"
   x1="44.674702"
   y1="80.163597"
   x2="44.674702"
   y2="75.773003">&#10;				<stop
   offset="5.405410e-03"
   style="stop-color:#FFFFFF"
   id="stop170-6" />&#10;				<stop
   offset="0.3362"
   style="stop-color:#FBFBFB"
   id="stop171-1" />&#10;				<stop
   offset="0.6468"
   style="stop-color:#F0F0F0"
   id="stop172-5" />&#10;				<stop
   offset="0.9485"
   style="stop-color:#DDDDDD"
   id="stop173-5" />&#10;				<stop
   offset="1"
   style="stop-color:#D9D9D9"
   id="stop174-4" />&#10;			</linearGradient><linearGradient
   id="SVGID_36_-7"
   gradientUnits="userSpaceOnUse"
   x1="44.6745"
   y1="76.052299"
   x2="44.6745"
   y2="75.6838">&#10;				<stop
   offset="0"
   style="stop-color:#BEBEBE"
   id="stop175-6" />&#10;				<stop
   offset="0.5266"
   style="stop-color:#BCBCBC"
   id="stop176-5" />&#10;				<stop
   offset="0.716"
   style="stop-color:#B5B5B5"
   id="stop177-6" />&#10;				<stop
   offset="0.8508"
   style="stop-color:#AAAAAA"
   id="stop178-9" />&#10;				<stop
   offset="0.9"
   style="stop-color:#A3A3A3"
   id="stop179-3" />&#10;			</linearGradient><linearGradient
   id="SVGID_37_-7"
   gradientUnits="userSpaceOnUse"
   x1="44.6745"
   y1="80.163597"
   x2="44.6745"
   y2="79.794899">&#10;				<stop
   offset="0"
   style="stop-color:#BEBEBE"
   id="stop180-4" />&#10;				<stop
   offset="0.5266"
   style="stop-color:#BCBCBC"
   id="stop181-5" />&#10;				<stop
   offset="0.716"
   style="stop-color:#B5B5B5"
   id="stop182-2" />&#10;				<stop
   offset="0.8508"
   style="stop-color:#AAAAAA"
   id="stop183-5" />&#10;				<stop
   offset="0.9"
   style="stop-color:#A3A3A3"
   id="stop184-4" />&#10;			</linearGradient><linearGradient
   id="SVGID_38_-7"
   gradientUnits="userSpaceOnUse"
   x1="27.252899"
   y1="77.214203"
   x2="28.5112"
   y2="78.472504">&#10;						<stop
   offset="0"
   style="stop-color:#C7C7C7"
   id="stop215-4" />&#10;						<stop
   offset="1"
   style="stop-color:#FFFFFF"
   id="stop216-4" />&#10;					</linearGradient><linearGradient
   id="SVGID_39_-3"
   gradientUnits="userSpaceOnUse"
   x1="27.343901"
   y1="77.305298"
   x2="28.420099"
   y2="78.3815">&#10;						<stop
   offset="0"
   style="stop-color:#FFFFFF"
   id="stop217-0" />&#10;						<stop
   offset="1"
   style="stop-color:#C7C7C7"
   id="stop218-7" />&#10;					</linearGradient><linearGradient
   id="SVGID_40_-8"
   gradientUnits="userSpaceOnUse"
   x1="60.2052"
   y1="77.214203"
   x2="61.463501"
   y2="78.472504">&#10;						<stop
   offset="0"
   style="stop-color:#C7C7C7"
   id="stop219-6" />&#10;						<stop
   offset="1"
   style="stop-color:#FFFFFF"
   id="stop220-8" />&#10;					</linearGradient><linearGradient
   id="SVGID_41_-8"
   gradientUnits="userSpaceOnUse"
   x1="60.296299"
   y1="77.305298"
   x2="61.372501"
   y2="78.3815">&#10;						<stop
   offset="0"
   style="stop-color:#FFFFFF"
   id="stop221-4" />&#10;						<stop
   offset="1"
   style="stop-color:#C7C7C7"
   id="stop222-3" />&#10;					</linearGradient><linearGradient
   id="SVGID_43_-1"
   gradientUnits="userSpaceOnUse"
   x1="21.251499"
   y1="106.3099"
   x2="21.251499"
   y2="43.090099">&#10;				<stop
   offset="0"
   style="stop-color:#C7C7C7"
   id="stop231-4" />&#10;				<stop
   offset="1"
   style="stop-color:#FFFFFF"
   id="stop232-9" />&#10;			</linearGradient><linearGradient
   id="SVGID_44_-2"
   gradientUnits="userSpaceOnUse"
   x1="21.8846"
   y1="74.699997"
   x2="24.1003"
   y2="74.699997">&#10;				<stop
   offset="5.000000e-02"
   style="stop-color:#A3A3A3"
   id="stop233-0" />&#10;				<stop
   offset="6.285034e-02"
   style="stop-color:#A9A9A9"
   id="stop234-6" />&#10;				<stop
   offset="0.13"
   style="stop-color:#C4C4C4"
   id="stop235-8" />&#10;				<stop
   offset="0.2073"
   style="stop-color:#DADADA"
   id="stop236-9" />&#10;				<stop
   offset="0.2975"
   style="stop-color:#EBEBEB"
   id="stop237-2" />&#10;				<stop
   offset="0.4091"
   style="stop-color:#F6F6F6"
   id="stop238-6" />&#10;				<stop
   offset="0.5655"
   style="stop-color:#FDFDFD"
   id="stop239-6" />&#10;				<stop
   offset="1"
   style="stop-color:#FFFFFF"
   id="stop240-4" />&#10;			</linearGradient><linearGradient
   id="SVGID_45_-9"
   gradientUnits="userSpaceOnUse"
   x1="224.40739"
   y1="106.3099"
   x2="224.40739"
   y2="43.090099"
   gradientTransform="matrix(-1,0,0,1,292.875,0)">&#10;				<stop
   offset="0"
   style="stop-color:#C7C7C7"
   id="stop241-5" />&#10;				<stop
   offset="1"
   style="stop-color:#FFFFFF"
   id="stop242-0" />&#10;			</linearGradient><linearGradient
   id="SVGID_46_-4"
   gradientUnits="userSpaceOnUse"
   x1="225.40981"
   y1="74.699997"
   x2="227.62579"
   y2="74.699997"
   gradientTransform="matrix(-1,0,0,1,292.875,0)">&#10;				<stop
   offset="5.000000e-02"
   style="stop-color:#A3A3A3"
   id="stop243-8" />&#10;				<stop
   offset="6.285034e-02"
   style="stop-color:#A9A9A9"
   id="stop244-7" />&#10;				<stop
   offset="0.13"
   style="stop-color:#C4C4C4"
   id="stop245-1" />&#10;				<stop
   offset="0.2073"
   style="stop-color:#DADADA"
   id="stop246-7" />&#10;				<stop
   offset="0.2975"
   style="stop-color:#EBEBEB"
   id="stop247-2" />&#10;				<stop
   offset="0.4091"
   style="stop-color:#F6F6F6"
   id="stop248-7" />&#10;				<stop
   offset="0.5655"
   style="stop-color:#FDFDFD"
   id="stop249-2" />&#10;				<stop
   offset="1"
   style="stop-color:#FFFFFF"
   id="stop250-2" />&#10;			</linearGradient><linearGradient
   id="SVGID_48_-6"
   gradientUnits="userSpaceOnUse"
   x1="19.676201"
   y1="33.076599"
   x2="119.3312"
   y2="43.550701"
   gradientTransform="matrix(1.9879318,0,0,1,-19.165876,0)">&#10;				<stop
   offset="0"
   style="stop-color:#F4F4F4"
   id="stop258-1" />&#10;				<stop
   offset="0.3911"
   style="stop-color:#F0F0F0"
   id="stop259-0" />&#10;				<stop
   offset="0.7578"
   style="stop-color:#E5E5E5"
   id="stop260-6" />&#10;				<stop
   offset="1"
   style="stop-color:#D9D9D9"
   id="stop261-1" />&#10;			</linearGradient><linearGradient
   id="SVGID_49_-5"
   gradientUnits="userSpaceOnUse"
   x1="44.6707"
   y1="42.5242"
   x2="44.6707"
   y2="40.5457"
   gradientTransform="matrix(1.0030787,0,0,1,-0.0597272,0)">&#10;				<stop
   offset="0"
   style="stop-color:#D9D9D9"
   id="stop262-9" />&#10;				<stop
   offset="0.1244"
   style="stop-color:#E6E6E6"
   id="stop263-4" />&#10;				<stop
   offset="0.3309"
   style="stop-color:#F4F4F4"
   id="stop264-9" />&#10;				<stop
   offset="0.5822"
   style="stop-color:#FCFCFC"
   id="stop265-0" />&#10;				<stop
   offset="1"
   style="stop-color:#FFFFFF"
   id="stop266-9" />&#10;			</linearGradient><linearGradient
   id="SVGID_50_-1"
   gradientUnits="userSpaceOnUse"
   x1="69.461998"
   y1="43.0924"
   x2="69.461998"
   y2="42.5242"
   gradientTransform="matrix(1.9966702,0,0,1,-19.634403,0)">&#10;				<stop
   offset="0"
   style="stop-color:#6C6C6C"
   id="stop267-7" />&#10;				<stop
   offset="0.1821"
   style="stop-color:#7E7E7E"
   id="stop268-7" />&#10;				<stop
   offset="0.4602"
   style="stop-color:#929292"
   id="stop269-1" />&#10;				<stop
   offset="0.7349"
   style="stop-color:#9F9F9F"
   id="stop270-1" />&#10;				<stop
   offset="1"
   style="stop-color:#A3A3A3"
   id="stop271-5" />&#10;			</linearGradient><linearGradient
   id="SVGID_51_-9"
   gradientUnits="userSpaceOnUse"
   x1="69.5037"
   y1="36.9832"
   x2="69.5037"
   y2="36.0816"
   gradientTransform="matrix(1.9885984,0,0,1,-19.178807,0)">&#10;			<stop
   offset="5.405410e-03"
   style="stop-color:#FFFFFF"
   id="stop272-7" />&#10;			<stop
   offset="0.2619"
   style="stop-color:#FBFBFB"
   id="stop273-7" />&#10;			<stop
   offset="0.5028"
   style="stop-color:#F0F0F0"
   id="stop274-6" />&#10;			<stop
   offset="0.7374"
   style="stop-color:#DDDDDD"
   id="stop275-7" />&#10;			<stop
   offset="0.967"
   style="stop-color:#C2C2C2"
   id="stop276-3" />&#10;			<stop
   offset="1"
   style="stop-color:#BEBEBE"
   id="stop277-6" />&#10;		</linearGradient><linearGradient
   id="SVGID_93_-1-5"
   gradientUnits="userSpaceOnUse"
   x1="93.563797"
   y1="83.900703"
   x2="93.563797"
   y2="80.163597"
   gradientTransform="matrix(0.85367819,0,0,0.40410516,-35.173845,19.590785)">&#10;		<stop
   offset="0"
   style="stop-color:#000000;stop-opacity:0;"
   id="stop508-9-6" />&#10;			&#10;			&#10;			&#10;			&#10;			&#10;			<stop
   offset="1"
   style="stop-color:#565656;stop-opacity:1;"
   id="stop502-3-3" />&#10;			</linearGradient><radialGradient
   id="d"
   cx="-12.895"
   cy="47.333"
   r="15.813"
   gradientTransform="matrix(1,0,0,0.38609,0,29.058)"
   gradientUnits="userSpaceOnUse"><stop
     offset="0"
     id="stop29" /><stop
     stop-opacity=".389"
     offset="1"
     id="stop31" /></radialGradient><filter
   id="k"
   x="-0.1061719"
   y="-0.4152573"
   width="1.2123438"
   height="1.8305146"><feGaussianBlur
     stdDeviation="1.154"
     id="feGaussianBlur2" /></filter><linearGradient
   id="j"
   x1="18.929001"
   x2="25.179001"
   y1="1045.3"
   y2="1045.5"
   gradientUnits="userSpaceOnUse"
   spreadMethod="reflect"><stop
     stop-color="#ffd543"
     offset="0"
     id="stop5" /><stop
     stop-color="#ffeca9"
     offset="1"
     id="stop7" /></linearGradient><linearGradient
   id="h"
   x1="15.536"
   x2="42.623001"
   y1="1010.8"
   y2="1035"
   gradientUnits="userSpaceOnUse"
   xlink:href="#b" /><linearGradient
   id="b"><stop
     stop-color="#fff"
     offset="0"
     id="stop15" /><stop
     stop-color="#fff"
     stop-opacity="0"
     offset="1"
     id="stop17" /></linearGradient><linearGradient
   id="g"
   x1="21.732"
   x2="21.570999"
   y1="21.438"
   y2="31.795"
   gradientTransform="matrix(0.71907,-0.28041,0.46212,1.185,-6.21,1005.7)"
   gradientUnits="userSpaceOnUse"
   xlink:href="#a" /><linearGradient
   id="a"><stop
     stop-color="#fff"
     offset="0"
     id="stop20" /><stop
     stop-color="#837356"
     offset="1"
     id="stop22" /></linearGradient><linearGradient
   id="f"
   x1="21.732"
   x2="21.570999"
   y1="21.438"
   y2="31.795"
   gradientTransform="matrix(-0.71907,-0.28041,-0.46212,1.185,53.825,1005.7)"
   gradientUnits="userSpaceOnUse"
   xlink:href="#a" /><linearGradient
   id="e"
   x1="23.886999"
   x2="26.034"
   y1="1036.2"
   y2="1036.1"
   gradientUnits="userSpaceOnUse"
   xlink:href="#b"
   spreadMethod="reflect" /></defs><sodipodi:namedview
   id="namedview563"
   pagecolor="#3e3e3e"
   bordercolor="#000000"
   borderopacity="0.25"
   inkscape:showpageshadow="2"
   inkscape:pageopacity="0.0"
   inkscape:pagecheckerboard="true"
   inkscape:deskcolor="#686868"
   inkscape:zoom="4"
   inkscape:cx="59.25"
   inkscape:cy="59.375"
   inkscape:window-width="1920"
   inkscape:window-height="1043"
   inkscape:window-x="0"
   inkscape:window-y="0"
   inkscape:window-maximized="1"
   inkscape:current-layer="Calque_12" />&#10;<style
   type="text/css"
   id="style1">&#10;	.st0{fill:#998675;}&#10;	.st1{fill:#736357;}&#10;	.st2{fill:#B1B1B1;}&#10;	.st3{fill:url(#SVGID_1_);}&#10;	.st4{fill:url(#SVGID_2_);}&#10;	.st5{fill:url(#SVGID_3_);}&#10;	.st6{fill:url(#SVGID_4_);}&#10;	.st7{fill:#FFFFFF;}&#10;	.st8{fill:url(#SVGID_5_);}&#10;	.st9{fill:url(#SVGID_6_);}&#10;	.st10{fill:url(#SVGID_7_);}&#10;	.st11{fill:url(#SVGID_8_);}&#10;	.st12{fill:url(#SVGID_9_);}&#10;	.st13{fill:url(#SVGID_10_);}&#10;	.st14{fill:url(#SVGID_11_);}&#10;	.st15{fill:url(#SVGID_12_);}&#10;	.st16{fill:url(#SVGID_13_);}&#10;	.st17{fill:url(#SVGID_14_);}&#10;	.st18{fill:url(#SVGID_15_);}&#10;	.st19{fill:url(#SVGID_16_);}&#10;	.st20{fill:url(#SVGID_17_);}&#10;	.st21{fill:url(#SVGID_18_);}&#10;	.st22{fill:url(#SVGID_19_);}&#10;	.st23{fill:url(#SVGID_20_);}&#10;	.st24{fill:url(#SVGID_21_);}&#10;	.st25{fill:url(#SVGID_22_);}&#10;	.st26{fill:url(#SVGID_23_);}&#10;	.st27{fill:url(#SVGID_24_);}&#10;	.st28{fill:url(#SVGID_25_);}&#10;	.st29{fill:url(#SVGID_26_);}&#10;	.st30{fill:url(#SVGID_27_);}&#10;	.st31{fill:url(#SVGID_28_);}&#10;	.st32{fill:url(#SVGID_29_);}&#10;	.st33{fill:url(#SVGID_30_);}&#10;	.st34{fill:url(#SVGID_31_);}&#10;	.st35{fill:url(#SVGID_32_);}&#10;	.st36{fill:url(#SVGID_33_);}&#10;	.st37{fill:url(#SVGID_34_);}&#10;	.st38{fill:url(#SVGID_35_);}&#10;	.st39{fill:url(#SVGID_36_);}&#10;	.st40{fill:url(#SVGID_37_);}&#10;	.st41{fill:#FBFBFB;}&#10;	.st42{fill:#F6F6F6;}&#10;	.st43{fill:#F2F2F2;}&#10;	.st44{fill:#EEEEEE;}&#10;	.st45{fill:#E9E9E9;}&#10;	.st46{fill:#E5E5E5;}&#10;	.st47{fill:#E1E1E1;}&#10;	.st48{fill:#DCDCDC;}&#10;	.st49{fill:#D8D8D8;}&#10;	.st50{fill:#D4D4D4;}&#10;	.st51{fill:#CFCFCF;}&#10;	.st52{fill:#CBCBCB;}&#10;	.st53{fill:#C7C7C7;}&#10;	.st54{fill:#C2C2C2;}&#10;	.st55{fill:#BEBEBE;}&#10;	.st56{fill:url(#SVGID_38_);}&#10;	.st57{fill:url(#SVGID_39_);}&#10;	.st58{fill:url(#SVGID_40_);}&#10;	.st59{fill:url(#SVGID_41_);}&#10;	.st60{fill:url(#SVGID_42_);}&#10;	.st61{fill:url(#SVGID_43_);}&#10;	.st62{fill:url(#SVGID_44_);}&#10;	.st63{fill:url(#SVGID_45_);}&#10;	.st64{fill:url(#SVGID_46_);}&#10;	.st65{opacity:0.8;fill:url(#SVGID_47_);}&#10;	.st66{fill:url(#SVGID_48_);}&#10;	.st67{fill:url(#SVGID_49_);}&#10;	.st68{fill:url(#SVGID_50_);}&#10;	.st69{fill:url(#SVGID_51_);}&#10;	.st70{fill:url(#SVGID_52_);}&#10;	.st71{fill:url(#SVGID_53_);}&#10;	.st72{fill:url(#SVGID_54_);}&#10;	.st73{fill:url(#SVGID_55_);}&#10;	.st74{fill:url(#SVGID_56_);}&#10;	.st75{fill:url(#SVGID_57_);}&#10;	.st76{fill:url(#SVGID_58_);}&#10;	.st77{fill:url(#SVGID_59_);}&#10;	.st78{fill:url(#SVGID_60_);}&#10;	.st79{fill:url(#SVGID_61_);}&#10;	.st80{fill:url(#SVGID_62_);}&#10;	.st81{fill:url(#SVGID_63_);}&#10;	.st82{fill:url(#SVGID_64_);}&#10;	.st83{fill:url(#SVGID_65_);}&#10;	.st84{fill:url(#SVGID_66_);}&#10;	.st85{fill:url(#SVGID_67_);}&#10;	.st86{fill:url(#SVGID_68_);}&#10;	.st87{fill:url(#SVGID_69_);}&#10;	.st88{fill:url(#SVGID_70_);}&#10;	.st89{fill:url(#SVGID_71_);}&#10;	.st90{fill:url(#SVGID_72_);}&#10;	.st91{fill:url(#SVGID_73_);}&#10;	.st92{fill:url(#SVGID_74_);}&#10;	.st93{fill:url(#SVGID_75_);}&#10;	.st94{fill:url(#SVGID_76_);}&#10;	.st95{fill:url(#SVGID_77_);}&#10;	.st96{fill:url(#SVGID_78_);}&#10;	.st97{fill:url(#SVGID_79_);}&#10;	.st98{fill:url(#SVGID_80_);}&#10;	.st99{fill:url(#SVGID_81_);}&#10;	.st100{fill:url(#SVGID_82_);}&#10;	.st101{fill:url(#SVGID_83_);}&#10;	.st102{fill:url(#SVGID_84_);}&#10;	.st103{fill:url(#SVGID_85_);}&#10;	.st104{fill:url(#SVGID_86_);}&#10;	.st105{fill:url(#SVGID_87_);}&#10;	.st106{fill:url(#SVGID_88_);}&#10;	.st107{fill:url(#SVGID_89_);}&#10;	.st108{fill:url(#SVGID_90_);}&#10;	.st109{fill:url(#SVGID_91_);}&#10;	.st110{fill:url(#SVGID_92_);}&#10;	.st111{fill:url(#SVGID_93_);}&#10;	.st112{fill:url(#SVGID_94_);}&#10;	.st113{fill:url(#SVGID_95_);}&#10;	.st114{fill:url(#SVGID_96_);}&#10;	.st115{fill:url(#SVGID_97_);}&#10;	.st116{opacity:0.8;fill:url(#SVGID_98_);}&#10;	.st117{fill:url(#SVGID_99_);}&#10;	.st118{fill:url(#SVGID_100_);}&#10;	.st119{fill:url(#SVGID_101_);}&#10;	.st120{fill:url(#SVGID_102_);}&#10;	.st121{fill:#221E1F;}&#10;</style>&#10;&#10;&#10;&#10;&#10;&#10;&#10;<path
   class="st121"
   d="M111.3,14.6l-4.1,5.6c16.3,11.8,25.7,30,25.8,50c0.3,34.4-27.8,62.6-62.5,62.9c-16.8,0.1-32.7-6.3-44.7-18  c-12-11.7-18.7-27.3-18.8-44c-0.1-19.3,8.9-37.8,24.2-49.7l6.7,10.2l4.4-20.5L21.6,6.7l5.8,8.9C10.1,28.8-0.2,49.5,0,71.1  c0.1,18.5,7.6,35.9,20.9,48.9c13.2,12.9,30.6,20,49.1,20c0.2,0,0.4,0,0.5,0c38.6-0.3,69.8-31.6,69.5-69.9  C139.8,48.3,129.1,27.5,111.3,14.6z"
   id="path559"
   style="fill:#2c3fe2;fill-opacity:1" />&#10;&#10;<g
   id="g4"
   transform="translate(35.105)"><path
     class="st0"
     d="m 114,13.6 c 0,7.5 -6.1,13.5 -13.7,13.5 C 92.8,27.1 86.6,21 86.6,13.6 86.7,6.1 92.8,0 100.4,0 107.9,0 114,6.1 114,13.6 Z"
     id="path560"
     style="fill:#2c3fe2;fill-opacity:1"
     transform="translate(-30.3)" /><path
     class="st7"
     d="m 100.6,23.7 c 0.4,0 0.8,-0.1 1.2,-0.1 1.4,-0.2 2.7,-0.6 3.9,-1.3 1.9,-1.1 3.3,-2.6 4.3,-4.5 1.1,-2.2 1.3,-4.5 0.8,-6.8 -0.3,-1.4 -0.9,-2.6 -1.7,-3.8 -0.8,-1.1 -1.7,-2 -2.9,-2.7 -0.6,-0.4 -1.3,-0.3 -1.8,0.1 -0.8,0.7 -0.7,1.8 0.2,2.4 0.7,0.4 1.2,1 1.7,1.6 1.2,1.5 1.7,3.1 1.7,5 0,0.7 -0.1,1.3 -0.3,2 -0.5,1.6 -1.5,3 -2.9,3.9 -1.7,1.2 -3.6,1.6 -5.6,1.2 -1.6,-0.3 -3,-1 -4.2,-2.3 -1.6,-1.8 -2.3,-3.9 -2,-6.3 0.3,-1.7 1.1,-3.2 2.4,-4.4 0.3,-0.3 0.7,-0.5 1,-0.8 0.9,-0.7 0.8,-2 -0.2,-2.5 C 95.7,4.1 95.1,4.2 94.6,4.5 94,4.9 93.5,5.4 93,5.9 91.8,7.1 91,8.5 90.5,10 90,11.5 89.8,13 90,14.5 c 0.2,1.9 0.9,3.6 2.1,5.1 1,1.3 2.2,2.3 3.7,3 1.5,0.7 3.1,1.1 4.8,1.1 z"
     id="path561"
     transform="translate(-30.49137,0.29139733)"
     style="fill:#ffffff;fill-opacity:1" /><path
     d="m 99,6.4 c 0,-1.3 0,-2.7 0,-4 0,-0.5 0.2,-0.9 0.6,-1.2 0.5,-0.3 1,-0.4 1.5,-0.2 0.5,0.2 0.8,0.7 0.9,1.2 0,0.1 0,0.2 0,0.2 0,2.6 0,6.3 0,8.9 0,0.7 -0.4,1.2 -1,1.5 -0.9,0.3 -1.9,-0.3 -2,-1.3 0,-0.1 0,-0.2 0,-0.2 0,-1.2 0,-3.6 0,-4.9 z"
     id="path563"
     transform="translate(-30.5,0.4771231)"
     style="fill:#ffffff;fill-opacity:1" /></g>&#10;<g
   id="g1"
   transform="matrix(0.6786053,0,0,0.6786053,53.709228,-626.45626)"><path
     transform="matrix(2.8409537,0,0,2.7806133,60.639756,961.82023)"
     d="m 0.14821,47.333 c 0,1.8418 -5.8395,3.3348 -13.043,3.3348 -7.2035,0 -13.043,-1.493 -13.043,-3.3348 0,-1.8418 5.8395,-3.3348 13.043,-3.3348 7.2035,0 13.043,1.493 13.043,3.3348 z"
     fill="url(#d)"
     filter="url(#k)"
     opacity="0.193"
     id="path41"
     style="fill:url(#d);stroke-width:0.355793" /><path
     d="m 21.035,1049.4 h 6 c 0,4 -6,4 -6,0 z"
     fill="#d0bfac"
     stroke="#5a5249"
     id="path43"
     transform="matrix(2.8409536,0,0,2.7806133,-44.206469,-1836.2991)"
     style="stroke-width:0.355793" /><path
     d="m 17.362,1040.4 c 4.1669,-2.946 8.2706,-2.8962 12.501,0 0.04667,1.0552 0.10078,1.8872 -1.6071,2.4148 2.3909,0.2047 2.2071,1.9163 0.35714,2.8572 2.0521,0.9877 2.7652,1.6946 1.25,3.0962 -4.9037,3.3991 -7.8229,3.2821 -12.501,-0.045 -0.83319,-0.66 -0.22222,-1.5596 2.0536,-1.9356 -2.5859,-0.4353 -2.6813,-2.8088 -0.17858,-3.1696 -1.9932,-1.2189 -1.8069,-2.1317 -1.875,-3.2184 z"
     fill="none"
     stroke="#d59600"
     stroke-linecap="square"
     stroke-linejoin="bevel"
     id="path45"
     transform="matrix(2.8409536,0,0,2.7806133,-44.206469,-1836.2991)"
     style="stroke-width:0.355793" /><path
     d="m 17.804,1040.7 c 4.1669,-2.946 8.0945,-2.4059 11.585,-0.032 0.14137,0.8184 -0.27803,1.5083 -1.1178,2.1622 2.4066,1.057 0.89706,2.5003 0.1993,2.9835 2.2573,1.3191 2.1812,1.663 0.66601,3.0646 -5.2509,3.1939 -7.8229,1.7669 -10.575,0.3023 -1.1331,-0.9599 -2.0216,-1.1177 0.9645,-2.3302 -2.3175,-1.1772 -2.0658,-2.3353 -0.09966,-3.3432 -1.3499,-1.07 -1.5386,-1.7451 -1.6225,-2.8077 z"
     fill="url(#j)"
     id="path47"
     transform="matrix(2.8409536,0,0,2.7806133,-44.206469,-1836.2991)"
     style="fill:url(#j);stroke-width:0.355793" /><path
     d="m 24.013,1005.6 c -8.008,0 -14.5,6.492 -14.5,14.5 0,3.4078 1.1884,6.5247 3.1562,9 l 0.03125,0.031 c 3.0848,5.1457 3.3723,6.1735 3.9062,8.25 0.21377,0.8314 0.45657,2.5914 1.2812,3.4063 1.8461,1.8242 9.1157,2.3353 11.531,0 2.0691,-4.148 3.5291,-8.7439 5.875,-11.625 2.0004,-2.4857 3.2188,-5.6235 3.2188,-9.0625 0,-8.008 -6.492,-14.5 -14.5,-14.5 z"
     fill="#ffc803"
     opacity="0.650308"
     id="path49"
     style="display:inline;fill:#ffff00;stroke-width:0.355793"
     transform="matrix(2.8409536,0,0,2.7806133,-44.206469,-1836.2991)" /><path
     d="m 24.3,1006.5 c -7.7887,0.089 -13.811,6.0526 -13.799,13.897 0.0047,3.2885 1.4722,6.2125 2.8964,8.0208 1.2555,1.8218 3.312,5.4871 4.0109,8.3928 0.38898,0.5498 0.42625,2.5128 1.1292,3.2545 2.0259,1.4954 7.7517,1.9539 10.164,0.089 1.9317,-4.0027 3.2939,-8.4053 5.484,-11.186 1.8295,-2.2157 3.1534,-4.2724 3.3845,-8.7004 0.02317,-7.2372 -5.4716,-13.21 -13.269,-13.768 z"
     fill="none"
     opacity="0.75"
     stroke="url(#h)"
     id="path53"
     transform="matrix(2.8409536,0,0,2.7806133,-44.206469,-1836.2991)"
     style="stroke:url(#h);stroke-width:0.355793" /><g
     transform="matrix(2.8409536,0,0,2.7806133,-43.621631,-1845.9105)"
     fill="none"
     stroke-linecap="round"
     id="g61"
     style="stroke-width:0.355793"><path
       d="m 18.69,1025.9 3.4247,8.782"
       stroke="url(#g)"
       id="path55"
       style="stroke:url(#g);stroke-width:0.126589" /><path
       d="m 28.925,1025.9 -3.4247,8.782"
       stroke="url(#f)"
       id="path57"
       style="stroke:url(#f);stroke-width:0.126589" /><path
       d="m 18.728,1025.9 c 1.0975,0.1673 2.5585,-0.051 3.3482,-1.2723 1.0495,0.5915 2.1224,0.9725 3.3482,-0.022 0.79329,0.7468 1.8776,1.3589 3.4821,1.2946"
       stroke="#ffffff"
       stroke-linejoin="round"
       id="path59"
       style="stroke-width:0.126589" /></g><path
     d="m 20.725,1040.9 0.15264,-8.77 c 1.8754,-1.6856 4.3546,-1.6457 6.4241,0 l -0.05887,8.77"
     fill="url(#e)"
     opacity="0.5"
     stroke="#d3cdc2"
     stroke-linecap="round"
     stroke-linejoin="round"
     id="path63"
     style="display:inline;fill:url(#e);stroke-width:0.355793"
     transform="matrix(2.8409536,0,0,2.7806133,-44.206469,-1836.2991)" /><path
     transform="matrix(3.0918098,-1.3651699,1.4652218,3.1790752,-48.717904,956.54894)"
     d="m 19.761,15.549 c 0,2.8941 -2.8832,5.2402 -6.4397,5.2402 -3.5565,0 -6.4397,-2.3461 -6.4397,-5.2402 0,-2.8941 2.8832,-5.2402 6.4397,-5.2402 3.5565,0 6.4397,2.3461 6.4397,5.2402 z"
     fill="#ffffff"
     opacity="0.37"
     id="path65"
     style="display:inline;stroke-width:0.355793" /><path
     transform="matrix(2.8409536,0,0,2.7806133,-44.206469,956.54894)"
     d="m 19.538,39.271 c 1.2973,0.87453 3.1392,1.4027 8.8164,2.1095 -4.4205,0.49526 -8.4085,-0.6312 -8.8164,-2.1095 z"
     fill="#d59600"
     id="path67"
     style="display:inline;stroke-width:0.355793" /><path
     d="m 19.838,1046.7 c 1.2973,0.8746 3.1392,1.4028 8.8164,2.1095 -4.4205,0.4953 -8.4085,-0.6312 -8.8164,-2.1095 z"
     fill="#d59600"
     id="path69"
     style="display:inline;stroke-width:0.355793"
     transform="matrix(2.8409536,0,0,2.7806133,-44.206469,-1836.2991)" /></g></svg>
