<?xml version="1.0" encoding="UTF-8" standalone="no"?>
<!-- Generator: Adobe Illustrator 22.1.0, SVG Export Plug-In . SVG Version: 6.00 Build 0)  -->

<svg
   version="1.1"
   id="Calque_12"
   x="0px"
   y="0px"
   viewBox="0 0 48.129848 39.94875"
   xml:space="preserve"
   sodipodi:docname="avion.svg"
   width="48.129848"
   height="39.94875"
   inkscape:version="1.3 (0e150ed6c4, 2023-07-21)"
   xmlns:inkscape="http://www.inkscape.org/namespaces/inkscape"
   xmlns:sodipodi="http://sodipodi.sourceforge.net/DTD/sodipodi-0.dtd"
   xmlns="http://www.w3.org/2000/svg"
   xmlns:svg="http://www.w3.org/2000/svg"><defs
   id="defs30">&#10;	&#10;	&#10;	&#10;	&#10;	<linearGradient
   id="SVGID_6_"
   gradientUnits="userSpaceOnUse"
   x1="39.427299"
   y1="92.845497"
   x2="45.131599"
   y2="92.845497">&#10;		<stop
   offset="0"
   style="stop-color:#E54A47"
   id="stop29" />&#10;		<stop
   offset="0.737"
   style="stop-color:#EA5350"
   id="stop30" />&#10;	</linearGradient>&#10;	&#10;</defs><sodipodi:namedview
   id="namedview30"
   pagecolor="#494949"
   bordercolor="#666666"
   borderopacity="1.0"
   inkscape:showpageshadow="2"
   inkscape:pageopacity="0.0"
   inkscape:pagecheckerboard="true"
   inkscape:deskcolor="#4b4b4b"
   inkscape:zoom="6.0390625"
   inkscape:cx="7.9482536"
   inkscape:cy="48.931436"
   inkscape:window-width="1920"
   inkscape:window-height="979"
   inkscape:window-x="0"
   inkscape:window-y="0"
   inkscape:window-maximized="1"
   inkscape:current-layer="Calque_12" />&#10;<style
   type="text/css"
   id="style1">&#10;	.st0{fill:none;}&#10;	.st1{fill:#572A2D;}&#10;	.st2{fill:#455665;}&#10;	.st3{fill:#28313B;}&#10;	.st4{fill:#ED746F;}&#10;	.st5{fill:#E15A5E;}&#10;	.st6{fill:#49A2AF;}&#10;	.st7{fill:#25727D;}&#10;	.st8{fill:#FDFFFF;}&#10;	.st9{fill:#D9D8DA;}&#10;	.st10{fill:#FDFDFC;}&#10;	.st11{fill:#F5F5F4;}&#10;	.st12{fill:#737373;}&#10;	.st13{fill:#33322D;}&#10;	.st14{fill:url(#SVGID_1_);}&#10;	.st15{fill:#EFC659;}&#10;	.st16{fill:none;stroke:url(#SVGID_2_);stroke-width:2;stroke-miterlimit:10;}&#10;	.st17{fill:none;stroke:url(#SVGID_3_);stroke-width:0.75;stroke-miterlimit:10;}&#10;	.st18{fill:url(#SVGID_4_);}&#10;	.st19{fill:url(#SVGID_5_);}&#10;	.st20{fill:url(#SVGID_6_);}&#10;</style>&#10;<pattern
   y="128"
   width="32.2"
   height="34.5"
   patternUnits="userSpaceOnUse"
   id="Nouvelle_nuance_de_motif_11"
   viewBox="0 -34.5 32.2 34.5"
   style="overflow:visible">&#10;	<g
   id="g2">&#10;		<rect
   y="-34.5"
   class="st0"
   width="32.2"
   height="34.5"
   id="rect1" />&#10;		<rect
   y="-34.5"
   class="st1"
   width="32.2"
   height="34.5"
   id="rect2" />&#10;	</g>&#10;</pattern>&#10;<pattern
   y="128"
   width="32.2"
   height="34.5"
   patternUnits="userSpaceOnUse"
   id="Nouvelle_nuance_de_motif_20"
   viewBox="0 -34.5 32.2 34.5"
   style="overflow:visible">&#10;	<g
   id="g4">&#10;		<rect
   y="-34.5"
   class="st0"
   width="32.2"
   height="34.5"
   id="rect3" />&#10;		<rect
   y="-34.5"
   class="st2"
   width="32.2"
   height="34.5"
   id="rect4" />&#10;	</g>&#10;</pattern>&#10;<pattern
   y="128"
   width="32.2"
   height="34.5"
   patternUnits="userSpaceOnUse"
   id="Nouvelle_nuance_de_motif_21"
   viewBox="0 -34.5 32.2 34.5"
   style="overflow:visible">&#10;	<g
   id="g6">&#10;		<rect
   y="-34.5"
   class="st0"
   width="32.2"
   height="34.5"
   id="rect5" />&#10;		<rect
   y="-34.5"
   class="st3"
   width="32.2"
   height="34.5"
   id="rect6" />&#10;	</g>&#10;</pattern>&#10;<pattern
   y="128"
   width="32.2"
   height="34.5"
   patternUnits="userSpaceOnUse"
   id="Nouvelle_nuance_de_motif_8"
   viewBox="0 -34.5 32.2 34.5"
   style="overflow:visible">&#10;	<g
   id="g8">&#10;		<rect
   y="-34.5"
   class="st0"
   width="32.2"
   height="34.5"
   id="rect7" />&#10;		<rect
   y="-34.5"
   class="st4"
   width="32.2"
   height="34.5"
   id="rect8" />&#10;	</g>&#10;</pattern>&#10;<pattern
   y="128"
   width="32.2"
   height="34.5"
   patternUnits="userSpaceOnUse"
   id="Nouvelle_nuance_de_motif_9"
   viewBox="0 -34.5 32.2 34.5"
   style="overflow:visible">&#10;	<g
   id="g10">&#10;		<rect
   y="-34.5"
   class="st0"
   width="32.2"
   height="34.5"
   id="rect9" />&#10;		<rect
   y="-34.5"
   class="st5"
   width="32.2"
   height="34.5"
   id="rect10" />&#10;	</g>&#10;</pattern>&#10;<g
   id="g21"
   transform="translate(-56.033496,-15.077703)">&#10;		<path
   class="st8"
   d="m 77,22.9 c 0.4,0.7 1.8,0.4 3.3,-0.5 1.4,-0.9 2.3,-2.2 1.9,-2.8 -0.4,-0.7 -1.8,-0.4 -3.3,0.5 -1.4,0.8 -2.3,2.1 -1.9,2.8 z"
   id="path11" />&#10;		<path
   class="st8"
   d="m 72.9,20 c 0.4,0.7 1.8,0.4 3.3,-0.5 1.4,-0.9 2.3,-2.2 1.9,-2.8 -0.4,-0.7 -1.8,-0.4 -3.3,0.5 -1.4,0.9 -2.3,2.2 -1.9,2.8 z"
   id="path12" />&#10;		<path
   class="st8"
   d="m 87.8,42 c -0.4,-0.7 0.5,-1.9 1.9,-2.8 1.4,-0.9 2.9,-1.1 3.3,-0.5 0.4,0.7 -0.5,1.9 -1.9,2.8 -1.4,0.9 -2.9,1.2 -3.3,0.5 z"
   id="path13" />&#10;		<path
   class="st8"
   d="m 88.2,47.2 c -0.4,-0.7 0.5,-1.9 1.9,-2.8 1.4,-0.9 2.9,-1.1 3.3,-0.5 0.4,0.7 -0.5,1.9 -1.9,2.8 -1.4,0.9 -2.9,1.1 -3.3,0.5 z"
   id="path14" />&#10;		<path
   class="st9"
   d="m 79,31.3 c 0,-2.3 -5.1,-7.5 -6.7,-9.4 -3,-3.5 -6.5,-5.5 -5.6,-6.5 1.4,-1.6 9.6,3.2 11.2,4.7 1.7,1.5 8.8,6.1 9.8,6.3 1.1,0.3 -8.7,4.9 -8.7,4.9 z"
   id="path15" />&#10;		<path
   class="st9"
   d="m 65.9,40.4 c 0,0 -5,-2.2 -6.8,-2.2 -1.7,0 -4.4,0.7 -2.3,1.9 2.2,1.2 4.2,2.7 5.2,4.3"
   id="path16" />&#10;		<path
   class="st9"
   d="m 81.7,36.1 c 1.9,1.1 3.9,8.3 4.7,10.6 1.5,4.5 1.5,8.7 2.7,8.3 1.9,-0.6 1.8,-10.5 1.4,-12.7 -0.4,-2.2 -0.9,-11.1 -0.6,-12.1 0.3,-1 -8.2,5.9 -8.2,5.9 z"
   id="path17" />&#10;		<path
   class="st9"
   d="m 68,44.2 c 0,0 -0.5,5.7 -1.3,7.4 -0.8,1.6 -2.6,3.7 -2.6,1.2 0,-2.7 -0.3,-5.2 -1.1,-6.9"
   id="path18" />&#10;		<g
   id="g20">&#10;			<path
   class="st10"
   d="m 103.8,18.8 c -0.6,-1.1 -2.7,-2.1 -8,0.9 -4,2.2 -9.1,5.3 -14.4,8.7 -12,7.7 -21,15.3 -20.7,17.6 18.6,-7.3 36.4,-21.5 43.1,-27.2 z"
   id="path19" />&#10;			<path
   class="st11"
   d="M 103.8,18.8 C 97.1,24.5 79.3,38.7 60.7,46 c 0,0.1 0,0.2 0.1,0.3 1.1,1.9 12.1,-3 24.6,-10.9 5.3,-3.4 10.4,-6.5 14.1,-9.3 5.2,-4.1 5,-6.2 4.3,-7.3 0.1,0 0.1,0 0,0 z"
   id="path20" />&#10;		</g>&#10;		<path
   class="st12"
   d="m 100,21.2 c 0.6,1.1 0.7,2.1 1,2 0.3,-0.2 0.6,-1.6 0,-2.6 -0.6,-1.1 -1.9,-1.4 -2.2,-1.2 -0.2,0.1 0.6,0.8 1.2,1.8 z"
   id="path21" />&#10;	</g>&#10;</svg>
