<?xml version="1.0" encoding="UTF-8" standalone="no"?>
<!-- Created with Inkscape (http://www.inkscape.org/) -->

<svg
   version="1.1"
   id="svg1"
   width="172.02892"
   height="170.02621"
   viewBox="0 0 172.02892 170.02621"
   sodipodi:docname="INKSCAPE_CHAUDIERE_CORPS_1j.svg"
   inkscape:version="1.3.2 (091e20ef0f, 2023-11-25)"
   xmlns:inkscape="http://www.inkscape.org/namespaces/inkscape"
   xmlns:sodipodi="http://sodipodi.sourceforge.net/DTD/sodipodi-0.dtd"
   xmlns="http://www.w3.org/2000/svg"
   xmlns:svg="http://www.w3.org/2000/svg">
  <defs
     id="defs1" />
  <sodipodi:namedview
     id="namedview1"
     pagecolor="#ffffff"
     bordercolor="#666666"
     borderopacity="1.0"
     inkscape:showpageshadow="2"
     inkscape:pageopacity="0.0"
     inkscape:pagecheckerboard="0"
     inkscape:deskcolor="#d1d1d1"
     inkscape:zoom="4.0283588"
     inkscape:cx="76.085576"
     inkscape:cy="85.270458"
     inkscape:window-width="1920"
     inkscape:window-height="1056"
     inkscape:window-x="0"
     inkscape:window-y="0"
     inkscape:window-maximized="1"
     inkscape:current-layer="g1" />
  <g
     inkscape:groupmode="layer"
     inkscape:label="Image"
     id="g1"
     transform="translate(-14.093211,-0.40929019)"
     style="display:inline">
    <path
       style="color:#000000;display:inline;fill:#add8e6;-inkscape-stroke:none;fill-opacity:1"
       d="m 96.712249,2.8171624 0.164128,16.0066896 c 0,0 -0.290634,5.850501 1.415535,7.919327 1.420779,1.722773 6.249638,2.412687 6.249638,2.412687 l 66.67639,-0.0075 c 0.10871,1.505331 0.85254,105.799324 -0.17701,102.191174 -47.4733,-0.10548 -94.943942,-0.44908 -142.413873,0.17731 l 0.169599,-20.10321 5.446243,-0.34463 0.313752,-6.90012 -0.645056,-6.588449 -5.083314,-0.150696 -0.182536,-68.647194 39.029583,0.232008 c 0,0 4.543545,-0.387976 5.9634,-1.919189 1.709387,-1.843453 1.762914,-7.333146 1.762914,-7.333146 L 75.320152,2.7919875 Z M 67.703125,0.63867187 C 67.920042,6.7365144 67.995216,12.836902 68.082031,18.9375 H 18.601529 c 0,0 -2.058957,1.284418 -3.040589,2.280388 -0.911784,0.9251 -1.392315,4.344155 -1.392315,4.344155 l -0.01731,118.976047 c 0,0 -0.383046,3.9845 0.817866,5.31548 0.948464,1.05119 4.109805,1.07273 4.109805,1.07273 l 19.088989,0.31202 0.16523,8.90392 c -1.489079,3.11547 -4.33134,6.85364 -5.081213,9.76796 l 30.490234,0.0508 c -1.624325,-2.84422 -3.562098,-6.7016 -5.232861,-9.9035 l -0.148,-8.26252 82.685535,-0.004 0.18794,8.68082 c -1.80803,3.30744 -3.50197,6.69454 -5.36569,9.96371 l 30.64844,-0.54688 c -2.12781,-2.82551 -3.96842,-6.52088 -5.80982,-9.72082 l 0.0442,-8.48621 20.35661,-0.0799 c 0,0 2.90711,0.16168 3.84919,-0.74399 1.22499,-1.17764 1.16386,-4.96311 1.16386,-4.96311 L 185.72535,27.368633 c 0,0 0.45496,-4.817487 -0.84781,-6.621398 -0.81164,-1.123857 -3.74988,-1.798536 -3.74988,-1.798536 L 104.56838,18.482352 104.18166,0.80657063 Z"
       id="path2"
       sodipodi:nodetypes="ccscccccccccccsccccccsccsccccccccccccccsccscccc" />
  </g>
</svg>
