<?xml version="1.0" encoding="UTF-8" standalone="no"?>
<!-- Generator: Adobe Illustrator 22.1.0, SVG Export Plug-In . SVG Version: 6.00 Build 0)  -->

<svg
   version="1.1"
   id="Calque_3"
   x="0px"
   y="0px"
   viewBox="0 0 69.941971 128"
   xml:space="preserve"
   sodipodi:docname="chauffe_eau_source.svg"
   inkscape:version="1.2.2 (b0a8486541, 2022-12-01)"
   width="69.941971"
   height="128"
   xmlns:inkscape="http://www.inkscape.org/namespaces/inkscape"
   xmlns:sodipodi="http://sodipodi.sourceforge.net/DTD/sodipodi-0.dtd"
   xmlns:xlink="http://www.w3.org/1999/xlink"
   xmlns="http://www.w3.org/2000/svg"
   xmlns:svg="http://www.w3.org/2000/svg"><defs
   id="defs450" /><sodipodi:namedview
   id="namedview448"
   pagecolor="#ffffff"
   bordercolor="#666666"
   borderopacity="1.0"
   inkscape:showpageshadow="2"
   inkscape:pageopacity="0.0"
   inkscape:pagecheckerboard="true"
   inkscape:deskcolor="#d1d1d1"
   showgrid="false"
   inkscape:zoom="6.109375"
   inkscape:cx="35.191816"
   inkscape:cy="66.127877"
   inkscape:window-width="1920"
   inkscape:window-height="1043"
   inkscape:window-x="0"
   inkscape:window-y="0"
   inkscape:window-maximized="1"
   inkscape:current-layer="g443" />
<style
   type="text/css"
   id="style2">
	.st0{fill:none;}
	.st1{fill:#572A2D;}
	.st2{display:none;}
	.st3{display:inline;fill:url(#SVGID_2_);}
	.st4{display:inline;fill:#1B681F;}
	.st5{display:inline;fill:#114F12;}
	.st6{display:inline;fill:#1E7224;}
	.st7{display:inline;fill:#2B892F;}
	.st8{display:inline;fill:#33322D;}
	.st9{display:inline;fill:#2A912F;}
	.st10{fill:#13375B;}
	.st11{fill:url(#SVGID_3_);}
	.st12{opacity:6.000000e-02;}
	.st13{fill:#404040;}
	.st14{fill:url(#SVGID_4_);}
	.st15{opacity:0.54;fill:url(#SVGID_5_);enable-background:new    ;}
	.st16{fill:#0200FF;}
	.st17{opacity:0.54;fill:url(#SVGID_6_);enable-background:new    ;}
	.st18{fill:url(#SVGID_7_);}
	.st19{fill:#FF0000;}
	.st20{fill:#FFFFFF;}
	.st21{fill:#F00810;}
	.st22{fill:#FF080B;}
	.st23{fill:url(#SVGID_8_);}
	.st24{fill:url(#SVGID_9_);}
	.st25{opacity:0.62;}
	.st26{opacity:0;fill:#FFFFFF;}
	.st27{opacity:5.882353e-02;fill:#F8F8F8;}
	.st28{opacity:0.1176;fill:#F1F1F1;}
	.st29{opacity:0.1765;fill:#EAEAEA;}
	.st30{opacity:0.2353;fill:#E3E3E3;}
	.st31{opacity:0.2941;fill:#DCDCDC;}
	.st32{opacity:0.3529;fill:#D5D5D5;}
	.st33{opacity:0.4118;fill:#CECECE;}
	.st34{opacity:0.4706;fill:#C7C7C7;}
	.st35{opacity:0.5294;fill:#C0C0C0;}
	.st36{opacity:0.5882;fill:#B9B9B9;}
	.st37{opacity:0.6471;fill:#B2B2B2;}
	.st38{opacity:0.7059;fill:#ABABAB;}
	.st39{opacity:0.7647;fill:#A4A4A4;}
	.st40{opacity:0.8235;fill:#9D9D9D;}
	.st41{opacity:0.8824;fill:#969696;}
	.st42{opacity:0.9412;fill:#8F8F8F;}
	.st43{fill:#888888;}
	.st44{fill:url(#SVGID_10_);}
	.st45{fill:url(#SVGID_11_);}
	.st46{fill:url(#SVGID_12_);}
	.st47{fill:#0603FF;}
	.st48{fill:#1103F4;}
	.st49{fill:#1C03E9;}
	.st50{fill:#2603DE;}
	.st51{fill:#3102D3;}
	.st52{fill:#3C02C8;}
	.st53{fill:#4702BC;}
	.st54{fill:#5202B1;}
	.st55{fill:#5D02A6;}
	.st56{fill:#67029B;}
	.st57{fill:#720290;}
	.st58{fill:#7D0285;}
	.st59{fill:#88017A;}
	.st60{fill:#93016F;}
	.st61{fill:#9E0164;}
	.st62{fill:#A80159;}
	.st63{fill:#B3014E;}
	.st64{fill:#BE0143;}
	.st65{fill:#C90137;}
	.st66{fill:#D4012C;}
	.st67{fill:#DF0021;}
	.st68{fill:#E90016;}
	.st69{fill:#F4000B;}
	.st70{opacity:0.36;}
	.st71{opacity:5.882353e-02;fill:#F2F2F2;}
	.st72{opacity:0.1176;fill:#E5E5E5;}
	.st73{opacity:0.1765;fill:#D8D8D8;}
	.st74{opacity:0.2353;fill:#CBCBCB;}
	.st75{opacity:0.2941;fill:#BEBEBE;}
	.st76{opacity:0.3529;fill:#B1B1B1;}
	.st77{opacity:0.4118;fill:#A4A4A4;}
	.st78{opacity:0.4706;fill:#979797;}
	.st79{opacity:0.5294;fill:#8A8A8A;}
	.st80{opacity:0.5882;fill:#7D7D7D;}
	.st81{opacity:0.6471;fill:#707070;}
	.st82{opacity:0.7059;fill:#636363;}
	.st83{opacity:0.7647;fill:#565656;}
	.st84{opacity:0.8235;fill:#494949;}
	.st85{opacity:0.8824;fill:#3C3C3C;}
	.st86{opacity:0.9412;fill:#2F2F2F;}
	.st87{fill:#222222;}
	.st88{fill:url(#SVGID_13_);}
	.st89{opacity:0.39;fill:#FFFFFF;}
	.st90{fill:url(#SVGID_14_);}
	.st91{fill:url(#SVGID_15_);}
	.st92{fill:url(#SVGID_16_);}
	.st93{opacity:0.76;}
	.st94{opacity:5.882353e-02;fill:#FAFBFB;}
	.st95{opacity:0.1176;fill:#F6F6F7;}
	.st96{opacity:0.1765;fill:#F1F2F3;}
	.st97{opacity:0.2353;fill:#EDEEEF;}
	.st98{opacity:0.2941;fill:#E8EAEB;}
	.st99{opacity:0.3529;fill:#E4E5E7;}
	.st100{opacity:0.4118;fill:#DFE1E3;}
	.st101{opacity:0.4706;fill:#DBDDDF;}
	.st102{opacity:0.5294;fill:#D6D8DB;}
	.st103{opacity:0.5882;fill:#D2D4D7;}
	.st104{opacity:0.6471;fill:#CDD0D3;}
	.st105{opacity:0.7059;fill:#C9CBCF;}
	.st106{opacity:0.7647;fill:#C4C7CB;}
	.st107{opacity:0.8235;fill:#C0C3C7;}
	.st108{opacity:0.8824;fill:#BBBFC3;}
	.st109{opacity:0.9412;fill:#B7BABF;}
	.st110{fill:#B2B6BB;}
	.st111{fill:url(#SVGID_17_);}
	.st112{fill:url(#SVGID_18_);}
	.st113{opacity:0.37;fill:url(#SVGID_19_);enable-background:new    ;}
</style>
<pattern
   y="128"
   width="32.2"
   height="34.5"
   patternUnits="userSpaceOnUse"
   id="SVGID_1_"
   viewBox="0 -34.5 32.2 34.5"
   style="overflow:visible">
	<g
   id="g32">
		<rect
   y="-34.5"
   class="st0"
   width="32.2"
   height="34.5"
   id="rect4" />
		<g
   id="g30">
			<rect
   y="-34.5"
   class="st0"
   width="32.2"
   height="34.5"
   id="rect6" />
			<g
   id="g28">
				<rect
   y="-34.5"
   class="st0"
   width="32.2"
   height="34.5"
   id="rect8" />
				<g
   id="g26">
					<rect
   y="-34.5"
   class="st0"
   width="32.2"
   height="34.5"
   id="rect10" />
					<g
   id="g24">
						<rect
   y="-34.5"
   class="st0"
   width="32.2"
   height="34.5"
   id="rect12" />
						<g
   id="g22">
							<rect
   y="-34.5"
   class="st0"
   width="32.2"
   height="34.5"
   id="rect14" />
							<g
   id="g20">
								<rect
   y="-34.5"
   class="st0"
   width="32.2"
   height="34.5"
   id="rect16" />
								<rect
   y="-34.5"
   class="st1"
   width="32.2"
   height="34.5"
   id="rect18" />
							</g>
						</g>
					</g>
				</g>
			</g>
		</g>
	</g>
</pattern>
<g
   id="g72"
   transform="translate(-39.499997,-25.499998)">
	<g
   id="g70">
		<g
   id="g68">
			<g
   id="g66">
				<g
   class="st2"
   id="g64">
					<pattern
   id="SVGID_2_"
   xlink:href="#SVGID_1_"
   patternTransform="matrix(1.7808 0 0 1.6549 31558.3535 59959.5273)">
					</pattern>
					<path
   class="st3"
   d="M 11.1,68.1 11,68.2 H 3.9 c -0.1,0 -0.1,0 -0.1,-0.1 L 2.7,59 c 0,-0.1 0,-0.1 0.1,-0.1 H 12 c 0.1,0 0.1,0.1 0.1,0.1 z"
   id="path36" />
					<path
   class="st4"
   d="M 4.8,40.6 C 4,37.3 4.2,33.1 5.7,32.8 c 1.4,-0.3 3.6,3.5 4.4,6.7 0.8,3.3 -0.1,4.8 -1.5,5.1 -1.5,0.3 -3,-0.8 -3.8,-4 z"
   id="path38" />
					<path
   class="st5"
   d="m 8.5,58.7 v 0 C 8.4,58.7 8.3,58.6 8.3,58.4 9.1,54.8 9.4,51 9.1,47.3 8.8,43.5 7.9,39.9 6.4,36.4 c 0,-0.1 0,-0.2 0.1,-0.3 0.1,0 0.3,0 0.3,0.1 1.5,3.5 2.4,7.2 2.7,11 0.3,3.8 0.1,7.6 -0.8,11.3 0,0.1 -0.1,0.2 -0.2,0.2 z"
   id="path40" />
					<path
   class="st6"
   d="M 0.1,41.3 C -1.3,38.2 -1.9,34 -0.6,33.5 0.8,33 3.6,36.3 5,39.4 6.4,42.5 5.8,44.1 4.5,44.6 3.1,45.2 1.5,44.4 0.1,41.3 Z"
   id="path42" />
					<path
   class="st6"
   d="M -0.1,48.5 C -1.9,46.4 -3.3,43.3 -2.4,42.6 -1.5,41.9 1.5,43.9 3.2,46 5,48.1 5,49.5 4,50.1 3.1,50.8 1.7,50.5 -0.1,48.5 Z"
   id="path44" />
					<path
   class="st6"
   d="m 16.9,48.5 c 2.2,-1.9 4.2,-4.9 3.4,-5.8 -0.8,-0.8 -4.2,0.8 -6.4,2.7 -2.2,1.9 -2.4,3.3 -1.5,4.2 0.7,0.8 2.3,0.8 4.5,-1.1 z"
   id="path46" />
					<path
   class="st7"
   d="m 12.7,42.4 c 1,-3.2 1.2,-7.5 -0.3,-7.8 -1.4,-0.4 -3.8,3.2 -4.9,6.4 -1,3.2 -0.3,4.8 1.1,5.2 1.5,0.3 3.1,-0.6 4.1,-3.8 z"
   id="path48" />
					<path
   class="st5"
   d="m 8.9,58.7 v 0 c -0.1,0 -0.2,-0.1 -0.2,-0.2 0.2,-2.7 1.1,-5.4 2.6,-7.9 1.5,-2.4 3.6,-4.5 6,-6 0.1,-0.1 0.2,0 0.3,0.1 0.1,0.1 0,0.2 -0.1,0.3 -2.4,1.5 -4.4,3.5 -5.9,5.9 -1.5,2.4 -2.4,5 -2.6,7.7 0.1,0.1 0,0.1 -0.1,0.1 z"
   id="path50" />
					<path
   class="st5"
   d="m 7.1,58.5 v 0 C 7,58.5 6.9,58.4 6.9,58.3 7,54.6 6.6,50.8 5.5,47.2 4.5,43.6 2.8,40.1 0.7,37 c -0.1,-0.1 0,-0.2 0.1,-0.3 0.1,-0.1 0.2,0 0.3,0.1 2.1,3.2 3.8,6.7 4.8,10.4 1.1,3.7 1.5,7.5 1.4,11.2 0.1,0 0,0.1 -0.2,0.1 z"
   id="path52" />
					<path
   class="st5"
   d="m 7.7,58.6 v 0 C 7.6,58.6 7.5,58.5 7.5,58.4 L 8.4,49.2 C 8.7,46 9,42.7 10.2,39.5 c 0,-0.1 0.2,-0.2 0.3,-0.1 0.1,0 0.2,0.2 0.1,0.3 -1.1,3.1 -1.5,6.4 -1.8,9.5 l -0.9,9.2 c 0,0.1 -0.1,0.2 -0.2,0.2 z"
   id="path54" />
					<path
   class="st5"
   d="M 6.9,58.8 C 6.8,58.8 6.7,58.7 6.7,58.6 6.4,53.9 4.1,49.4 0.5,46.1 0.4,46 0.4,45.9 0.5,45.8 c 0.1,-0.1 0.2,-0.1 0.3,0 3.7,3.3 6,8 6.3,12.8 0,0.1 -0.1,0.2 -0.2,0.2 z"
   id="path56" />
					<path
   class="st8"
   d="m 12.4,59.2 c 0,0.1 -0.1,0.1 -0.1,0.1 H 2.6 c -0.1,0 -0.1,0 -0.1,-0.1 v -1.5 c 0,-0.1 0.1,-0.1 0.1,-0.1 h 9.7 c 0.1,0 0.1,0 0.1,0.1 z"
   id="path58" />
					<path
   class="st9"
   d="m -2,53.3 c -1,2.5 -1.3,5.9 0.1,6.4 1.4,0.5 3.7,-2.2 4.7,-4.7 1,-2.4 -3.7,-4.2 -4.8,-1.7 z"
   id="path60" />
					<path
   class="st4"
   d="m -1.4,57.5 0.1,-0.4 C -0.8,55.7 -0.4,54.7 0,53.9 0.5,53 0.9,52.5 1.4,52.3 1.9,52.1 2.4,52.2 3.1,52.5 4.2,53 5,54 5.5,55.4 5.8,56 6,56.8 6,57.6 H 5.6 c -0.2,-1.8 -1,-4 -2.7,-4.8 -0.6,-0.2 -1,-0.3 -1.3,-0.1 -0.9,0.4 -1.5,1.9 -2.5,4.6 L -1,57.6 c 0,0.1 -0.2,0.2 -0.3,0.1 -0.1,0 -0.2,-0.1 -0.1,-0.2 z"
   id="path62" />
				</g>
			</g>
		</g>
	</g>
</g>
<g
   id="g445"
   transform="translate(-39.499997,-25.499998)">
	
	
	<g
   id="g443">
		<g
   class="st12"
   id="g87"
   transform="matrix(1.488127,0,0,1.488127,-19.281019,-12.44724)"
   style="stroke-width:0.671986">
			<path
   class="st13"
   d="m 86.5,33.7 c 0,-0.6 0,-1.1 0,-1.7 0,-0.8 -0.5,-1.5 -1.2,-1.9 -0.3,-0.2 -0.7,-0.3 -1.1,-0.3 -0.6,-0.1 -1.2,-0.1 -1.8,-0.2 -0.1,0 -0.1,0 -0.2,0 -0.1,-0.1 -0.2,-0.1 -0.3,-0.2 -0.2,-0.1 -0.3,-0.3 -0.4,-0.4 -0.1,-0.2 -0.1,-0.4 -0.2,-0.6 -0.1,-0.2 -0.2,-0.3 -0.4,-0.5 -1,-0.8 -3.8,-1.4 -7.2,-1.7 -3.1,-0.4 -6.8,-0.5 -10.6,-0.5 -3.4,0 -6.7,0.1 -9.7,0.4 -4,0.4 -7.1,1 -8.3,1.8 -0.2,0.1 -0.3,0.3 -0.4,0.5 -0.1,0.2 0,0.4 -0.2,0.6 -0.1,0.1 -0.2,0.3 -0.4,0.4 -0.1,0.1 -0.2,0.1 -0.3,0.2 -0.7,0.1 -1.4,0.1 -2,0.2 -0.4,0 -0.8,0.2 -1.1,0.3 -0.7,0.4 -1.2,1.1 -1.2,1.9 0,0.6 0,1.1 0,1.7 0,8.9 0,17.9 0,26.8 0,12.6 0,25.2 0,37.8 0,0.8 0.5,1.5 1.2,1.9 0.3,0.2 0.7,0.3 1.1,0.3 0.3,0 0.5,0.1 0.8,0.1 0,0.1 0,0.1 0,0.2 0,0.2 0,0.3 0,0.5 0,0.2 0,0.3 0,0.5 0,0.1 0,0.2 0.1,0.3 0.2,0.7 0.6,1.2 1.3,1.5 v 0 c 0.2,0.1 0.4,0.2 0.6,0.3 2.5,0.8 5.2,1.4 7.7,1.9 0.6,0.1 1.3,0.2 1.9,0.3 v 1.2 1.5 c -0.1,0 -0.1,0.1 -0.1,0.2 v 1.7 c 0,0.1 0.1,0.3 0.3,0.3 h 1.2 c 0.2,0 0.3,-0.1 0.3,-0.3 V 109 c 0,-0.1 0,-0.2 -0.1,-0.2 v -1.5 -1 c 0.6,0.1 1.1,0.1 1.7,0.2 1.8,0.2 3.6,0.2 5.4,0.2 2.3,0 4.7,-0.1 7,-0.4 v 1 1.5 c -0.1,0 -0.1,0.1 -0.1,0.2 v 1.7 c 0,0.1 0.1,0.3 0.3,0.3 h 1.2 c 0.2,0 0.3,-0.1 0.3,-0.3 V 109 c 0,-0.1 0,-0.2 -0.1,-0.2 v -1.5 -1.2 0 c 0.9,-0.1 1.9,-0.3 2.8,-0.5 1.1,-0.2 2.1,-0.4 3.3,-0.7 1.2,-0.3 2.4,-0.6 3.7,-1 0.2,-0.1 0.4,-0.2 0.6,-0.3 v 0 c 0.6,-0.3 1.1,-0.8 1.3,-1.5 0,-0.1 0,-0.2 0.1,-0.3 0,-0.2 0,-0.3 0,-0.5 0,-0.2 0,-0.3 0,-0.5 0,-0.1 0,-0.1 0,-0.2 0.3,0 0.5,-0.1 0.8,-0.1 0.4,0 0.8,-0.2 1.1,-0.3 0.7,-0.4 1.2,-1.1 1.2,-1.9 0,-12.6 0,-25.2 0,-37.8 0.1,-8.9 0.1,-17.9 0.1,-26.8 z"
   id="path85"
   style="stroke-width:0.671986" />
		</g>
		<g
   id="g127"
   transform="matrix(1.488127,0,0,1.488127,-17.346454,-13.319041)"
   style="stroke-width:0.671986">
			
				<linearGradient
   id="SVGID_4_"
   gradientUnits="userSpaceOnUse"
   x1="-2519.3999"
   y1="1114.75"
   x2="-2517.7673"
   y2="1114.75"
   gradientTransform="matrix(-1,0,0,1,-2448,-1006)">
				<stop
   offset="0"
   style="stop-color:#04C7FF"
   id="stop89" />
				<stop
   offset="0.7567"
   style="stop-color:#F1FFFF"
   id="stop91" />
				<stop
   offset="1"
   style="stop-color:#04C7FF"
   id="stop93" />
			</linearGradient>
			<polygon
   class="st14"
   points="71.4,106.1 69.8,106.1 69.8,111.4 71.4,111.4 "
   id="polygon96"
   style="fill:url(#SVGID_4_);stroke-width:0.671986" />
			
				<linearGradient
   id="SVGID_5_"
   gradientUnits="userSpaceOnUse"
   x1="-2518.6001"
   y1="1113.5212"
   x2="-2518.6001"
   y2="1112.0797"
   gradientTransform="matrix(-1,0,0,1,-2448,-1006)">
				<stop
   offset="0"
   style="stop-color:#FFFFFF"
   id="stop98" />
				<stop
   offset="1"
   style="stop-color:#0B0909"
   id="stop100" />
			</linearGradient>
			
			<path
   class="st16"
   d="M 70.1,112.1 H 71 c 0.3,0 0.5,-0.2 0.5,-0.5 v -1.4 c 0,-0.3 -0.2,-0.5 -0.5,-0.5 h -0.9 c -0.3,0 -0.5,0.2 -0.5,0.5 v 1.4 c 0.1,0.3 0.3,0.5 0.5,0.5 z"
   id="path105"
   style="stroke-width:0.671986" />
			
				<linearGradient
   id="SVGID_6_"
   gradientUnits="userSpaceOnUse"
   x1="-2502.8501"
   y1="1113.5212"
   x2="-2502.8501"
   y2="1112.0797"
   gradientTransform="matrix(-1,0,0,1,-2448,-1006)">
				<stop
   offset="0"
   style="stop-color:#FFFFFF"
   id="stop107" />
				<stop
   offset="1"
   style="stop-color:#0B0909"
   id="stop109" />
			</linearGradient>
			<polygon
   class="st17"
   points="55.7,106.1 54,106.1 54,107.5 55.7,107.5 "
   id="polygon112"
   style="fill:url(#SVGID_6_);stroke-width:0.671986" />
			
				<linearGradient
   id="SVGID_7_"
   gradientUnits="userSpaceOnUse"
   x1="-2503.7036"
   y1="1114.75"
   x2="-2502.0708"
   y2="1114.75"
   gradientTransform="matrix(-1,0,0,1,-2448,-1006)">
				<stop
   offset="0"
   style="stop-color:#FF0101"
   id="stop114" />
				<stop
   offset="8.056870e-02"
   style="stop-color:#FF0000"
   id="stop116" />
				<stop
   offset="0.6082"
   style="stop-color:#FFD1D1"
   id="stop118" />
				<stop
   offset="1"
   style="stop-color:#FF0000"
   id="stop120" />
			</linearGradient>
			<polygon
   class="st18"
   points="55.7,106.1 54,106.1 54,111.4 55.7,111.4 "
   id="polygon123"
   style="fill:url(#SVGID_7_);stroke-width:0.671986" />
			<path
   class="st19"
   d="m 54.4,112.1 h 0.9 c 0.3,0 0.5,-0.2 0.5,-0.5 v -1.4 c 0,-0.3 -0.2,-0.5 -0.5,-0.5 h -0.9 c -0.3,0 -0.5,0.2 -0.5,0.5 v 1.4 c 0,0.3 0.2,0.5 0.5,0.5 z"
   id="path125"
   style="stroke-width:0.671986" />
		</g>
		<path
   class="st20"
   d="m 61.9,25.5 c -3.1,0 -9.4,0.6 -12.7,1 -2,0.3 -4,0.5 -4.7,1.7 -0.2,0.3 -0.3,0.8 -1.3,1.5 -0.4,0.3 -0.9,0.9 -0.8,1.8 v 68.6 c 0,1.7 -0.3,2.7 2.8,4.1 4.9,2.1 14.6,2.7 17.6,2.7 1.8,0 11.948689,-0.96966 17.548689,-2.96966 C 83.853932,103.08935 83.2,102.55345 83.2,100.1 V 31.5 c 0,-0.9 -0.4,-1.5 -0.8,-1.8 -1,-0.7 -1.1,-1.3 -1.3,-1.5 -0.7,-1.2 -2.7,-1.5 -4.7,-1.7 -3.3,-0.4 -9.5,-1 -12.7,-1 z"
   id="path129"
   sodipodi:nodetypes="sccccscscsscccss"
   transform="matrix(1.488127,0,0,1.488127,-17.521567,-12.44724)"
   style="stroke-width:0.671986;fill:#add8e6;fill-opacity:1" />
		<path
   class="st113"
   d="m 82.63764,105.11746 c -6.127866,1.15077 -13.581629,1.56277 -19.722213,1.72956 -6.351645,-0.41601 -12.993581,0.0294 -19.503171,-1.69324 -1.551303,-0.53883 -0.839751,-2.22838 -0.89846,-4.24764 7.03111,0.82449 14.961865,1.12845 20.408671,1.11813 6.837045,-0.18463 14.682797,-0.72421 20.156016,-1.0943 0.09951,2.96052 0.217853,3.74695 -0.440843,4.18749 z"
   id="path441"
   transform="matrix(1.4955972,0,0,3.2887262,-17.932549,-204.80081)"
   style="fill:url(#SVGID_19_);stroke-width:0.450898"
   sodipodi:nodetypes="ccccccc" /><g
   id="g157"
   transform="matrix(3.8683432,0,0,3.8683432,-161.83745,-266.88394)"
   style="stroke-width:0.258508">
			<path
   class="st21"
   d="m 58.4,104.8 c -0.2,0 -0.4,-0.2 -0.4,-0.4 0,-0.2 0.2,-0.4 0.4,-0.4 0.2,0 0.4,0.2 0.4,0.4 0,0.1 -0.2,0.4 -0.4,0.4 z"
   id="path131"
   style="stroke-width:0.258508" />
			<path
   class="st22"
   d="m 58.7,104.3 c 0,0.1 -0.1,0.2 -0.2,0.2 -0.1,0 -0.2,-0.1 -0.2,-0.2 0,-0.1 0.1,-0.2 0.2,-0.2 0.1,0 0.2,0.1 0.2,0.2 z"
   id="path133"
   style="stroke-width:0.258508" />
			
				<radialGradient
   id="SVGID_8_"
   cx="58.463699"
   cy="1171.3966"
   r="0.32319999"
   gradientTransform="matrix(1,0,0,0.9592,0,-1019.2478)"
   gradientUnits="userSpaceOnUse">
				<stop
   offset="0"
   style="stop-color:#FFFFFF"
   id="stop135" />
				<stop
   offset="0.1058"
   style="stop-color:#FF2121"
   id="stop137" />
				<stop
   offset="0.3902"
   style="stop-color:#FF0000"
   id="stop139" />
				<stop
   offset="1"
   style="stop-color:#000000"
   id="stop141" />
			</radialGradient>
			<circle
   class="st23"
   cx="58.400002"
   cy="104.3"
   id="ellipse144"
   style="fill:url(#SVGID_8_);stroke-width:0.258508"
   r="0.30000001" />
			
				<radialGradient
   id="SVGID_9_"
   cx="58.463699"
   cy="1171.3966"
   r="0.71499997"
   gradientTransform="matrix(1,0,0,0.9592,0,-1019.2478)"
   gradientUnits="userSpaceOnUse">
				<stop
   offset="0"
   style="stop-color:#FFFFFF"
   id="stop146" />
				<stop
   offset="0.1058"
   style="stop-color:#FF8621"
   id="stop148" />
				<stop
   offset="0.5387"
   style="stop-color:#FF0000"
   id="stop150" />
				<stop
   offset="1"
   style="stop-color:#000000"
   id="stop152" />
			</radialGradient>
			<path
   class="st24"
   d="m 59.1,104.3 c 0,0.4 -0.3,0.7 -0.7,0.7 -0.4,0 -0.7,-0.3 -0.7,-0.7 0,-0.4 0.3,-0.7 0.7,-0.7 0.4,0 0.7,0.3 0.7,0.7 z"
   id="path155"
   style="fill:url(#SVGID_9_);stroke-width:0.258508" />
		</g>
		<g
   id="g319"
   transform="matrix(3.4123098,0,0,3.4123098,-139.78784,-77.996987)"
   style="stroke-width:0.293057">
			<g
   class="st25"
   id="g195"
   style="stroke-width:0.293057">
				<circle
   class="st26"
   cx="62.900002"
   cy="39.400002"
   r="3.5"
   id="circle159"
   style="stroke-width:0.293057" />
				<circle
   class="st27"
   cx="62.900002"
   cy="39.299999"
   r="3.5"
   id="circle161"
   style="stroke-width:0.293057" />
				<circle
   class="st28"
   cx="62.900002"
   cy="39.299999"
   r="3.5"
   id="circle163"
   style="stroke-width:0.293057" />
				<circle
   class="st29"
   cx="62.900002"
   cy="39.299999"
   r="3.5"
   id="circle165"
   style="stroke-width:0.293057" />
				<circle
   class="st30"
   cx="62.900002"
   cy="39.200001"
   r="3.5"
   id="circle167"
   style="stroke-width:0.293057" />
				<circle
   class="st31"
   cx="62.900002"
   cy="39.200001"
   r="3.5"
   id="circle169"
   style="stroke-width:0.293057" />
				<circle
   class="st32"
   cx="62.799999"
   cy="39.200001"
   r="3.5"
   id="circle171"
   style="stroke-width:0.293057" />
				<circle
   class="st33"
   cx="62.799999"
   cy="39.200001"
   r="3.5"
   id="circle173"
   style="stroke-width:0.293057" />
				<circle
   class="st34"
   cx="62.799999"
   cy="39.099998"
   r="3.5"
   id="circle175"
   style="stroke-width:0.293057" />
				<circle
   class="st35"
   cx="62.799999"
   cy="39.099998"
   r="3.5"
   id="circle177"
   style="stroke-width:0.293057" />
				
					<circle
   transform="matrix(0.05466895,-0.9985,0.9985,0.05466895,20.325,99.6426)"
   class="st36"
   cx="62.799999"
   cy="39.099998"
   id="ellipse179"
   r="3.5"
   style="stroke-width:0.293057" />
				
					<circle
   transform="matrix(0.08728106,-0.9962,0.9962,0.08728106,18.3824,98.1848)"
   class="st37"
   cx="62.799999"
   cy="39.099998"
   id="ellipse181"
   r="3.5"
   style="stroke-width:0.293057" />
				<circle
   transform="matrix(0.1169,-0.9931,0.9931,0.1169,16.6547,96.799)"
   class="st38"
   cx="62.799999"
   cy="39"
   id="ellipse183"
   r="3.5"
   style="stroke-width:0.293057" />
				<circle
   transform="matrix(0.1438,-0.9896,0.9896,0.1438,15.1213,95.4928)"
   class="st39"
   cx="62.700001"
   cy="39"
   id="ellipse185"
   r="3.5"
   style="stroke-width:0.293057" />
				<circle
   transform="matrix(0.1681,-0.9858,0.9858,0.1681,13.7611,94.2689)"
   class="st40"
   cx="62.700001"
   cy="39"
   id="ellipse187"
   r="3.5"
   style="stroke-width:0.293057" />
				<circle
   transform="matrix(0.1901,-0.9818,0.9818,0.1901,12.5538,93.1268)"
   class="st41"
   cx="62.700001"
   cy="39"
   id="ellipse189"
   r="3.5"
   style="stroke-width:0.293057" />
				<circle
   transform="matrix(0.21,-0.9777,0.9777,0.21,11.4804,92.0639)"
   class="st42"
   cx="62.700001"
   cy="38.900002"
   id="ellipse191"
   r="3.5"
   style="stroke-width:0.293057" />
				<circle
   transform="matrix(0.228,-0.9737,0.9737,0.228,10.5242,91.0762)"
   class="st43"
   cx="62.700001"
   cy="38.900002"
   id="ellipse193"
   r="3.5"
   style="stroke-width:0.293057" />
			</g>
			<linearGradient
   id="SVGID_10_"
   gradientUnits="userSpaceOnUse"
   x1="62.693401"
   y1="42.426498"
   x2="62.693401"
   y2="35.3769">
				<stop
   offset="0"
   style="stop-color:#000000"
   id="stop197" />
				<stop
   offset="1"
   style="stop-color:#FFFFFF"
   id="stop199" />
			</linearGradient>
			<circle
   class="st44"
   cx="62.700001"
   cy="38.900002"
   r="3.5"
   id="circle202"
   style="fill:url(#SVGID_10_);stroke-width:0.293057" />
			
				<linearGradient
   id="SVGID_11_"
   gradientUnits="userSpaceOnUse"
   x1="436.75769"
   y1="-75.1819"
   x2="436.75769"
   y2="-81.781303"
   gradientTransform="rotate(180,249.7256,-19.78995)">
				<stop
   offset="7.582940e-02"
   style="stop-color:#888284"
   id="stop204" />
				<stop
   offset="1"
   style="stop-color:#FFFFFF"
   id="stop206" />
			</linearGradient>
			<path
   class="st45"
   d="m 62.7,35.6 c 1.8,0 3.3,1.5 3.3,3.3 0,1.8 -1.5,3.3 -3.3,3.3 -1.8,0 -3.3,-1.5 -3.3,-3.3 0,-1.8 1.5,-3.3 3.3,-3.3 z"
   id="path209"
   style="fill:url(#SVGID_11_);stroke-width:0.293057" />
			<linearGradient
   id="SVGID_12_"
   gradientUnits="userSpaceOnUse"
   x1="62.693401"
   y1="41.976101"
   x2="62.693401"
   y2="35.826599">
				<stop
   offset="7.582940e-02"
   style="stop-color:#FFFFFF"
   id="stop211" />
				<stop
   offset="1"
   style="stop-color:#FFFFFF"
   id="stop213" />
			</linearGradient>
			<path
   class="st46"
   d="m 65.8,38.9 c 0,1.7 -1.4,3.1 -3.1,3.1 -0.9,0 -1.8,-0.4 -2.4,-1.1 -0.3,-0.3 -0.5,-0.7 -0.6,-1.2 0,-0.1 -0.1,-0.3 -0.1,-0.4 v 0 c 0,-0.1 0,-0.3 0,-0.4 0,-1.7 1.4,-3.1 3.1,-3.1 0.8,0 1.6,0.3 2.1,0.9 0.1,0.1 0.2,0.2 0.3,0.3 0.3,0.4 0.5,0.8 0.6,1.3 0.1,0.2 0.1,0.4 0.1,0.6 z"
   id="path216"
   style="fill:url(#SVGID_12_);stroke-width:0.293057" />
			<g
   id="g268"
   style="stroke-width:0.293057">
				<g
   id="g266"
   style="stroke-width:0.293057">
					<path
   class="st47"
   d="m 60.2,38.5 c 0,0 0,0.1 0,0.3 0,0.1 0,0.3 -0.1,0.3 0,0 0,-0.1 0,-0.3 0,-0.2 0.1,-0.3 0.1,-0.3 z"
   id="path218"
   style="stroke-width:0.293057" />
					<path
   class="st48"
   d="m 60.3,38.2 c 0,0 0,0.1 0,0.3 0,0.1 -0.1,0.3 -0.1,0.3 0,0 0,-0.2 0,-0.3 0,-0.2 0,-0.3 0.1,-0.3 z"
   id="path220"
   style="stroke-width:0.293057" />
					<path
   class="st49"
   d="m 60.4,37.9 c 0,0 0,0.2 0,0.3 -0.1,0.1 -0.1,0.3 -0.1,0.2 0,0 0,-0.2 0,-0.3 0,-0.2 0,-0.3 0.1,-0.2 z"
   id="path222"
   style="stroke-width:0.293057" />
					<path
   class="st50"
   d="m 60.5,37.6 c 0,0 0,0.2 -0.1,0.3 -0.1,0.1 -0.1,0.2 -0.2,0.2 0,0 0,-0.2 0,-0.4 0.2,-0.1 0.3,-0.1 0.3,-0.1 z"
   id="path224"
   style="stroke-width:0.293057" />
					<path
   class="st51"
   d="m 60.7,37.4 c 0,0.1 0,0.2 -0.1,0.3 -0.1,0.1 -0.2,0.2 -0.2,0.2 0,0 0,-0.2 0.1,-0.4 0.1,-0.2 0.2,-0.2 0.2,-0.1 z"
   id="path226"
   style="stroke-width:0.293057" />
					<path
   class="st52"
   d="m 60.9,37.1 c 0,0.1 0,0.2 -0.2,0.4 -0.1,0.1 -0.2,0.2 -0.3,0.2 0,-0.1 0,-0.2 0.1,-0.4 0.2,-0.2 0.4,-0.2 0.4,-0.2 z"
   id="path228"
   style="stroke-width:0.293057" />
					<path
   class="st53"
   d="m 61.1,37 c 0,0.1 -0.1,0.2 -0.2,0.4 -0.1,0.1 -0.3,0.2 -0.3,0.1 0,-0.1 0,-0.3 0.2,-0.4 0.1,-0.2 0.3,-0.2 0.3,-0.1 z"
   id="path230"
   style="stroke-width:0.293057" />
					<path
   class="st54"
   d="m 61.4,36.8 c 0,0.1 -0.1,0.3 -0.3,0.4 -0.2,0.1 -0.3,0.2 -0.3,0.1 0,-0.1 0.1,-0.3 0.2,-0.4 0.2,-0.2 0.3,-0.2 0.4,-0.1 z"
   id="path232"
   style="stroke-width:0.293057" />
					<path
   class="st55"
   d="m 61.6,36.7 c 0,0.1 -0.1,0.3 -0.3,0.4 -0.2,0.1 -0.3,0.1 -0.4,0 0,-0.1 0.1,-0.3 0.3,-0.4 0.2,-0.2 0.4,-0.1 0.4,0 z"
   id="path234"
   style="stroke-width:0.293057" />
					<path
   class="st56"
   d="m 61.9,36.6 c 0,0.1 -0.2,0.3 -0.4,0.4 -0.2,0.1 -0.4,0.1 -0.4,0 0,-0.1 0.1,-0.3 0.3,-0.4 0.3,-0.2 0.5,-0.2 0.5,0 z"
   id="path236"
   style="stroke-width:0.293057" />
					<path
   class="st57"
   d="m 62.2,36.5 c 0,0.2 -0.2,0.3 -0.4,0.3 -0.2,0.1 -0.4,0 -0.4,-0.1 0,-0.1 0.2,-0.3 0.4,-0.4 0.2,0 0.4,0.1 0.4,0.2 z"
   id="path238"
   style="stroke-width:0.293057" />
					<path
   class="st58"
   d="m 62.4,36.5 c 0,0.2 -0.3,0.3 -0.5,0.3 -0.2,0 -0.4,0 -0.4,-0.2 0,-0.1 0.2,-0.4 0.5,-0.4 0.3,0 0.5,0.1 0.4,0.3 z"
   id="path240"
   style="stroke-width:0.293057" />
					<path
   class="st59"
   d="m 62.7,36.5 c -0.1,0.2 -0.3,0.3 -0.5,0.3 -0.2,0 -0.4,-0.1 -0.4,-0.2 0,-0.2 0.2,-0.4 0.5,-0.4 0.3,0 0.5,0.1 0.4,0.3 z"
   id="path242"
   style="stroke-width:0.293057" />
					<path
   class="st60"
   d="m 63,36.6 c -0.1,0.2 -0.4,0.3 -0.6,0.2 -0.2,0 -0.4,-0.1 -0.4,-0.3 0,-0.2 0.3,-0.4 0.6,-0.4 0.3,0.1 0.5,0.3 0.4,0.5 z"
   id="path244"
   style="stroke-width:0.293057" />
					<path
   class="st61"
   d="m 63.3,36.6 c -0.1,0.2 -0.4,0.2 -0.7,0.2 -0.3,0 -0.4,-0.2 -0.4,-0.4 0,-0.2 0.3,-0.4 0.7,-0.3 0.3,0.1 0.5,0.4 0.4,0.5 z"
   id="path246"
   style="stroke-width:0.293057" />
					<path
   class="st62"
   d="m 63.6,36.8 c -0.1,0.2 -0.5,0.2 -0.7,0.1 -0.3,-0.1 -0.4,-0.3 -0.4,-0.5 0.1,-0.2 0.4,-0.4 0.7,-0.3 0.4,0.2 0.5,0.5 0.4,0.7 z"
   id="path248"
   style="stroke-width:0.293057" />
					<path
   class="st63"
   d="m 63.8,36.9 c -0.2,0.2 -0.5,0.2 -0.8,0.1 -0.3,-0.1 -0.4,-0.3 -0.3,-0.5 0.1,-0.2 0.5,-0.4 0.8,-0.2 0.4,0.1 0.5,0.4 0.3,0.6 z"
   id="path250"
   style="stroke-width:0.293057" />
					<path
   class="st64"
   d="m 64,37.1 c -0.2,0.2 -0.5,0.1 -0.8,0 -0.3,-0.1 -0.4,-0.4 -0.3,-0.6 0.1,-0.2 0.5,-0.3 0.9,-0.1 0.4,0.1 0.5,0.5 0.2,0.7 z"
   id="path252"
   style="stroke-width:0.293057" />
					<path
   class="st65"
   d="m 64.3,37.3 c -0.2,0.2 -0.6,0.1 -0.8,-0.1 -0.2,-0.2 -0.4,-0.5 -0.2,-0.7 0.1,-0.2 0.6,-0.3 0.9,-0.1 0.3,0.3 0.3,0.8 0.1,0.9 z"
   id="path254"
   style="stroke-width:0.293057" />
					<path
   class="st66"
   d="m 64.5,37.6 c -0.3,0.1 -0.6,0 -0.8,-0.2 -0.2,-0.2 -0.3,-0.5 -0.2,-0.8 0.2,-0.2 0.6,-0.3 1,0 0.2,0.4 0.2,0.8 0,1 z"
   id="path256"
   style="stroke-width:0.293057" />
					<path
   class="st67"
   d="M 64.6,37.9 C 64.3,38 64,37.8 63.8,37.5 c -0.2,-0.3 -0.3,-0.6 -0.1,-0.8 0.2,-0.2 0.7,-0.2 1,0.1 0.3,0.4 0.2,1 -0.1,1.1 z"
   id="path258"
   style="stroke-width:0.293057" />
					<path
   class="st68"
   d="M 64.7,38.2 C 64.4,38.3 64,38 63.9,37.7 c -0.2,-0.3 -0.2,-0.7 0,-0.9 0.2,-0.2 0.7,-0.2 1,0.3 0.3,0.5 0.2,1.1 -0.2,1.1 z"
   id="path260"
   style="stroke-width:0.293057" />
					<path
   class="st69"
   d="m 64.8,38.6 c -0.4,0 -0.7,-0.3 -0.8,-0.7 -0.2,-0.4 -0.2,-0.7 0.1,-1 0.2,-0.2 0.8,-0.1 1,0.4 0.3,0.7 0.1,1.3 -0.3,1.3 z"
   id="path262"
   style="stroke-width:0.293057" />
					<path
   class="st19"
   d="m 64.9,39.1 c -0.4,0 -0.7,-0.4 -0.8,-0.8 -0.1,-0.4 -0.1,-0.8 0.2,-1 0.3,-0.2 0.8,0 1,0.6 0.3,0.5 0,1.2 -0.4,1.2 z"
   id="path264"
   style="stroke-width:0.293057" />
				</g>
			</g>
			<g
   class="st70"
   id="g306"
   style="stroke-width:0.293057">
				<polygon
   class="st26"
   points="62.2,41 61.9,41.1 63.9,36.9 64,36.9 62.4,41.3 "
   id="polygon270"
   style="stroke-width:0.293057" />
				<polygon
   class="st71"
   points="61.9,41.1 63.9,36.9 62.4,41.3 62.2,41 "
   id="polygon272"
   style="stroke-width:0.293057" />
				<polygon
   class="st72"
   points="61.9,41.1 63.9,36.9 62.4,41.3 62.2,41 "
   id="polygon274"
   style="stroke-width:0.293057" />
				<polygon
   class="st73"
   points="61.8,41.1 63.9,36.9 62.3,41.3 62.2,41 "
   id="polygon276"
   style="stroke-width:0.293057" />
				<polygon
   class="st74"
   points="61.8,41.1 63.9,36.9 62.3,41.3 62.2,41 "
   id="polygon278"
   style="stroke-width:0.293057" />
				<polygon
   class="st75"
   points="62.2,41 61.8,41.1 63.9,36.8 63.9,36.9 62.3,41.3 "
   id="polygon280"
   style="stroke-width:0.293057" />
				<polygon
   class="st76"
   points="61.8,41.1 63.9,36.8 62.3,41.3 62.1,40.9 "
   id="polygon282"
   style="stroke-width:0.293057" />
				<polygon
   class="st77"
   points="62.1,40.9 61.8,41 63.8,36.8 63.9,36.8 62.3,41.2 "
   id="polygon284"
   style="stroke-width:0.293057" />
				<polygon
   class="st78"
   points="62.1,40.9 61.8,41 63.8,36.8 63.9,36.8 62.3,41.2 "
   id="polygon286"
   style="stroke-width:0.293057" />
				<polygon
   class="st79"
   points="61.8,41 63.8,36.8 62.3,41.2 62.1,40.9 "
   id="polygon288"
   style="stroke-width:0.293057" />
				<polygon
   class="st80"
   points="61.7,41 63.8,36.8 62.2,41.2 62.1,40.9 "
   id="polygon290"
   style="stroke-width:0.293057" />
				<polygon
   class="st81"
   points="61.7,41 63.8,36.8 62.2,41.2 62.1,40.9 "
   id="polygon292"
   style="stroke-width:0.293057" />
				<polygon
   class="st82"
   points="61.7,41 63.8,36.8 62.2,41.2 62.1,40.9 "
   id="polygon294"
   style="stroke-width:0.293057" />
				<polygon
   class="st83"
   points="62,40.9 61.7,41 63.8,36.7 63.8,36.8 62.2,41.2 "
   id="polygon296"
   style="stroke-width:0.293057" />
				<polygon
   class="st84"
   points="62,40.8 61.7,40.9 63.7,36.7 63.8,36.7 62.2,41.2 "
   id="polygon298"
   style="stroke-width:0.293057" />
				<polygon
   class="st85"
   points="62,40.8 61.7,40.9 63.7,36.7 63.8,36.7 62.2,41.1 "
   id="polygon300"
   style="stroke-width:0.293057" />
				<polygon
   class="st86"
   points="61.7,40.9 63.7,36.7 62.2,41.1 62,40.8 "
   id="polygon302"
   style="stroke-width:0.293057" />
				<polygon
   class="st87"
   points="61.7,40.9 63.7,36.7 62.2,41.1 62,40.8 "
   id="polygon304"
   style="stroke-width:0.293057" />
			</g>
			<linearGradient
   id="SVGID_13_"
   gradientUnits="userSpaceOnUse"
   x1="62.551102"
   y1="38.745098"
   x2="63.048901"
   y2="38.951302">
				<stop
   offset="0"
   style="stop-color:#000000"
   id="stop308" />
				<stop
   offset="0.4976"
   style="stop-color:#FFFFFF"
   id="stop310" />
				<stop
   offset="1"
   style="stop-color:#000000"
   id="stop312" />
			</linearGradient>
			<polygon
   class="st88"
   points="62.2,41.1 62,40.8 61.7,40.9 63.7,36.7 "
   id="polygon315"
   style="fill:url(#SVGID_13_);stroke-width:0.293057" />
			
		</g>
		<g
   id="g434"
   transform="matrix(2.5228655,0,0,2.5228655,-71.368896,-126.49285)"
   style="stroke-width:0.396374">
			<g
   class="st25"
   id="g357"
   style="stroke-width:0.396374">
				<circle
   class="st26"
   cx="62.900002"
   cy="104.6"
   r="1.7"
   id="circle321"
   style="stroke-width:0.396374" />
				<circle
   class="st27"
   cx="62.900002"
   cy="104.6"
   r="1.7"
   id="circle323"
   style="stroke-width:0.396374" />
				<circle
   class="st28"
   cx="62.799999"
   cy="104.6"
   r="1.7"
   id="circle325"
   style="stroke-width:0.396374" />
				<circle
   class="st29"
   cx="62.799999"
   cy="104.6"
   r="1.7"
   id="circle327"
   style="stroke-width:0.396374" />
				<circle
   class="st30"
   cx="62.799999"
   cy="104.5"
   r="1.7"
   id="circle329"
   style="stroke-width:0.396374" />
				<circle
   class="st31"
   cx="62.799999"
   cy="104.5"
   r="1.7"
   id="circle331"
   style="stroke-width:0.396374" />
				<circle
   class="st32"
   cx="62.799999"
   cy="104.5"
   r="1.7"
   id="circle333"
   style="stroke-width:0.396374" />
				<circle
   class="st33"
   cx="62.799999"
   cy="104.5"
   r="1.7"
   id="circle335"
   style="stroke-width:0.396374" />
				<circle
   class="st34"
   cx="62.799999"
   cy="104.5"
   r="1.7"
   id="circle337"
   style="stroke-width:0.396374" />
				<circle
   class="st35"
   cx="62.799999"
   cy="104.5"
   r="1.7"
   id="circle339"
   style="stroke-width:0.396374" />
				
					<circle
   transform="matrix(0.1611,-0.9869,0.9869,0.1611,-50.4173,149.6155)"
   class="st36"
   cx="62.799999"
   cy="104.5"
   id="ellipse341"
   r="1.7"
   style="stroke-width:0.396374" />
				
					<circle
   transform="matrix(0.161,-0.987,0.987,0.161,-50.4062,149.6072)"
   class="st37"
   cx="62.799999"
   cy="104.5"
   id="ellipse343"
   r="1.7"
   style="stroke-width:0.396374" />
				
					<circle
   transform="matrix(0.1609,-0.987,0.987,0.1609,-50.3957,149.5974)"
   class="st38"
   cx="62.799999"
   cy="104.4"
   id="ellipse345"
   r="1.7"
   style="stroke-width:0.396374" />
				
					<circle
   transform="matrix(0.1609,-0.987,0.987,0.1609,-50.3857,149.5863)"
   class="st39"
   cx="62.799999"
   cy="104.4"
   id="ellipse347"
   r="1.7"
   style="stroke-width:0.396374" />
				
					<circle
   transform="matrix(0.1608,-0.987,0.987,0.1608,-50.3761,149.5744)"
   class="st40"
   cx="62.799999"
   cy="104.4"
   id="ellipse349"
   r="1.7"
   style="stroke-width:0.396374" />
				
					<circle
   transform="matrix(0.1608,-0.987,0.987,0.1608,-50.3668,149.5617)"
   class="st41"
   cx="62.799999"
   cy="104.4"
   id="ellipse351"
   r="1.7"
   style="stroke-width:0.396374" />
				
					<circle
   transform="matrix(0.1607,-0.987,0.987,0.1607,-50.3577,149.5484)"
   class="st42"
   cx="62.799999"
   cy="104.4"
   id="ellipse353"
   r="1.7"
   style="stroke-width:0.396374" />
				
					<circle
   transform="matrix(0.1607,-0.987,0.987,0.1607,-50.3488,149.5346)"
   class="st43"
   cx="62.799999"
   cy="104.4"
   id="ellipse355"
   r="1.7"
   style="stroke-width:0.396374" />
			</g>
			<linearGradient
   id="SVGID_14_"
   gradientUnits="userSpaceOnUse"
   x1="62.750401"
   y1="106.1147"
   x2="62.750401"
   y2="102.629">
				<stop
   offset="0"
   style="stop-color:#000000"
   id="stop359" />
				<stop
   offset="1"
   style="stop-color:#FFFFFF"
   id="stop361" />
			</linearGradient>
			<circle
   class="st90"
   cx="62.799999"
   cy="104.4"
   r="1.7"
   id="circle364"
   style="fill:url(#SVGID_14_);stroke-width:0.396374" />
			
				<linearGradient
   id="SVGID_15_"
   gradientUnits="userSpaceOnUse"
   x1="436.70081"
   y1="-142.32021"
   x2="436.70081"
   y2="-145.5833"
   gradientTransform="rotate(180,249.7256,-19.78995)">
				<stop
   offset="7.582940e-02"
   style="stop-color:#888284"
   id="stop366" />
				<stop
   offset="1"
   style="stop-color:#FFFFFF"
   id="stop368" />
			</linearGradient>
			<path
   class="st91"
   d="m 62.8,102.7 c 0.9,0 1.6,0.7 1.6,1.6 0,0.9 -0.7,1.6 -1.6,1.6 -0.9,0 -1.6,-0.7 -1.6,-1.6 -0.1,-0.8 0.7,-1.6 1.6,-1.6 z"
   id="path371"
   style="fill:url(#SVGID_15_);stroke-width:0.396374" />
			<linearGradient
   id="SVGID_16_"
   gradientUnits="userSpaceOnUse"
   x1="62.750301"
   y1="105.892"
   x2="62.750301"
   y2="102.8513">
				<stop
   offset="0"
   style="stop-color:#D4D1D1"
   id="stop373" />
				<stop
   offset="1"
   style="stop-color:#FFFFFF"
   id="stop375" />
			</linearGradient>
			<path
   class="st92"
   d="m 64.3,104.4 c 0,0.8 -0.7,1.5 -1.5,1.5 -0.5,0 -0.9,-0.2 -1.2,-0.5 -0.1,-0.2 -0.2,-0.4 -0.3,-0.6 0,-0.1 0,-0.1 0,-0.2 v 0 c 0,-0.1 0,-0.1 0,-0.2 0,-0.8 0.7,-1.5 1.5,-1.5 0.4,0 0.8,0.2 1,0.4 0.1,0.1 0.1,0.1 0.2,0.2 0.1,0.2 0.3,0.4 0.3,0.7 0,0 0,0.1 0,0.2 z"
   id="path378"
   style="fill:url(#SVGID_16_);stroke-width:0.396374" />
			<g
   class="st93"
   id="g416"
   style="stroke-width:0.396374">
				<path
   class="st26"
   d="m 62.1,105.6 c -0.1,0 -0.2,0 -0.2,-0.1 -0.1,-0.1 -0.1,-0.1 -0.1,-0.2 0,-0.1 0,-0.2 0.1,-0.2 l 1.7,-1.6 c 0.1,-0.1 0.1,-0.1 0.2,-0.1 0.1,0 0.1,0 0.1,0.1 0.1,0.1 0.1,0.1 0.1,0.2 0,0.1 0,0.1 -0.1,0.2 l -1.6,1.7 c -0.1,0 -0.2,0 -0.2,0 z"
   id="path380"
   style="stroke-width:0.396374" />
				<path
   class="st94"
   d="m 62.1,105.6 c -0.1,0 -0.2,0 -0.2,-0.1 -0.1,-0.1 -0.1,-0.1 -0.1,-0.2 0,-0.1 0,-0.2 0.1,-0.2 l 1.7,-1.6 c 0.1,-0.1 0.1,-0.1 0.2,-0.1 0.1,0 0.1,0 0.1,0.1 0.1,0.1 0.1,0.1 0.1,0.2 0,0.1 0,0.1 -0.1,0.2 l -1.6,1.7 c -0.1,0 -0.2,0 -0.2,0 z"
   id="path382"
   style="stroke-width:0.396374" />
				<path
   class="st95"
   d="m 62.1,105.6 c -0.1,0 -0.2,0 -0.2,-0.1 -0.1,-0.1 -0.1,-0.1 -0.1,-0.2 0,-0.1 0,-0.2 0.1,-0.2 l 1.7,-1.6 c 0.1,-0.1 0.1,-0.1 0.2,-0.1 0.1,0 0.1,0 0.1,0.1 0.1,0.1 0.1,0.1 0.1,0.2 0,0.1 0,0.1 -0.1,0.2 l -1.6,1.7 c -0.1,0 -0.2,0 -0.2,0 z"
   id="path384"
   style="stroke-width:0.396374" />
				<path
   class="st96"
   d="m 62,105.6 c -0.1,0 -0.2,0 -0.2,-0.1 -0.1,-0.1 -0.1,-0.1 -0.1,-0.2 0,-0.1 0,-0.2 0.1,-0.2 l 1.7,-1.6 c 0.1,-0.1 0.1,-0.1 0.2,-0.1 0.1,0 0.1,0 0.1,0.1 0.1,0.1 0.1,0.1 0.1,0.2 0,0.1 0,0.1 -0.1,0.2 l -1.6,1.7 c 0,0 -0.1,0 -0.2,0 z"
   id="path386"
   style="stroke-width:0.396374" />
				<path
   class="st97"
   d="m 62,105.6 c -0.1,0 -0.2,0 -0.2,-0.1 -0.1,-0.1 -0.1,-0.1 -0.1,-0.2 0,-0.1 0,-0.2 0.1,-0.2 l 1.7,-1.6 c 0.1,-0.1 0.1,-0.1 0.2,-0.1 0.1,0 0.1,0 0.1,0.1 0.1,0.1 0.1,0.1 0.1,0.2 0,0.1 0,0.1 -0.1,0.2 l -1.6,1.7 c 0,0 -0.1,0 -0.2,0 z"
   id="path388"
   style="stroke-width:0.396374" />
				<path
   class="st98"
   d="m 62,105.6 c -0.1,0 -0.2,0 -0.2,-0.1 -0.1,-0.1 -0.1,-0.1 -0.1,-0.2 0,-0.1 0,-0.2 0.1,-0.2 l 1.7,-1.6 c 0.1,-0.1 0.1,-0.1 0.2,-0.1 0.1,0 0.1,0 0.1,0.1 0.1,0.1 0.1,0.1 0.1,0.2 0,0.1 0,0.1 -0.1,0.2 l -1.6,1.7 c 0,0 -0.1,0 -0.2,0 z"
   id="path390"
   style="stroke-width:0.396374" />
				<path
   class="st99"
   d="m 62,105.6 c -0.1,0 -0.2,0 -0.2,-0.1 -0.1,-0.1 -0.1,-0.1 -0.1,-0.2 0,-0.1 0,-0.2 0.1,-0.2 l 1.7,-1.6 c 0.1,-0.1 0.1,-0.1 0.2,-0.1 0.1,0 0.1,0 0.1,0.1 0.1,0.1 0.1,0.1 0.1,0.2 0,0.1 0,0.1 -0.1,0.2 l -1.6,1.7 c 0,0 -0.1,0 -0.2,0 z"
   id="path392"
   style="stroke-width:0.396374" />
				<path
   class="st100"
   d="m 62,105.6 c -0.1,0 -0.2,0 -0.2,-0.1 -0.1,-0.1 -0.1,-0.1 -0.1,-0.2 0,-0.1 0,-0.2 0.1,-0.2 l 1.7,-1.6 c 0.1,-0.1 0.1,-0.1 0.2,-0.1 0.1,0 0.1,0 0.1,0.1 0.1,0.1 0.1,0.1 0.1,0.2 0,0.1 0,0.1 -0.1,0.2 l -1.6,1.7 c 0,-0.1 -0.1,0 -0.2,0 z"
   id="path394"
   style="stroke-width:0.396374" />
				<path
   class="st101"
   d="m 62,105.6 c -0.1,0 -0.2,0 -0.2,-0.1 -0.1,-0.1 -0.1,-0.1 -0.1,-0.2 0,-0.1 0,-0.2 0.1,-0.2 l 1.7,-1.6 c 0.1,-0.1 0.1,-0.1 0.2,-0.1 0.1,0 0.1,0 0.1,0.1 0.1,0.1 0.1,0.1 0.1,0.2 0,0.1 0,0.1 -0.1,0.2 l -1.6,1.7 c 0,-0.1 -0.1,0 -0.2,0 z"
   id="path396"
   style="stroke-width:0.396374" />
				<path
   class="st102"
   d="m 62,105.6 c -0.1,0 -0.2,0 -0.2,-0.1 -0.1,-0.1 -0.1,-0.1 -0.1,-0.2 0,-0.1 0,-0.2 0.1,-0.2 l 1.7,-1.6 c 0.1,-0.1 0.1,-0.1 0.2,-0.1 0.1,0 0.1,0 0.1,0.1 0.1,0.1 0.1,0.1 0.1,0.2 0,0.1 0,0.1 -0.1,0.2 l -1.6,1.7 c -0.1,-0.1 -0.1,0 -0.2,0 z"
   id="path398"
   style="stroke-width:0.396374" />
				<path
   class="st103"
   d="m 62,105.6 c -0.1,0 -0.2,0 -0.2,-0.1 -0.1,-0.1 -0.1,-0.1 -0.1,-0.2 0,-0.1 0,-0.2 0.1,-0.2 l 1.7,-1.6 c 0.1,-0.1 0.1,-0.1 0.2,-0.1 0.1,0 0.1,0 0.1,0.1 0.1,0.1 0.1,0.1 0.1,0.2 0,0.1 0,0.1 -0.1,0.2 l -1.6,1.7 c -0.1,-0.1 -0.1,0 -0.2,0 z"
   id="path400"
   style="stroke-width:0.396374" />
				<path
   class="st104"
   d="m 62,105.5 c -0.1,0 -0.2,0 -0.2,-0.1 -0.1,-0.1 -0.1,-0.1 -0.1,-0.2 0,-0.1 0,-0.2 0.1,-0.2 l 1.7,-1.6 c 0.1,-0.1 0.1,-0.1 0.2,-0.1 0.1,0 0.1,0 0.1,0.1 0.1,0.1 0.1,0.1 0.1,0.2 0,0.1 0,0.1 -0.1,0.2 l -1.6,1.7 c -0.1,0 -0.1,0 -0.2,0 z"
   id="path402"
   style="stroke-width:0.396374" />
				<path
   class="st105"
   d="m 62,105.5 c -0.1,0 -0.2,0 -0.2,-0.1 -0.1,-0.1 -0.1,-0.1 -0.1,-0.2 0,-0.1 0,-0.2 0.1,-0.2 l 1.7,-1.6 c 0.1,-0.1 0.1,-0.1 0.2,-0.1 0.1,0 0.1,0 0.1,0.1 0.1,0.1 0.1,0.1 0.1,0.2 0,0.1 0,0.1 -0.1,0.2 l -1.6,1.7 c -0.1,0 -0.1,0 -0.2,0 z"
   id="path404"
   style="stroke-width:0.396374" />
				<path
   class="st106"
   d="m 62,105.5 c -0.1,0 -0.2,0 -0.2,-0.1 -0.1,-0.1 -0.1,-0.1 -0.1,-0.2 0,-0.1 0,-0.2 0.1,-0.2 l 1.7,-1.6 c 0.1,-0.1 0.1,-0.1 0.2,-0.1 0.1,0 0.1,0 0.1,0.1 0.1,0.1 0.1,0.1 0.1,0.2 0,0.1 0,0.1 -0.1,0.2 l -1.6,1.7 c -0.1,0 -0.1,0 -0.2,0 z"
   id="path406"
   style="stroke-width:0.396374" />
				<path
   class="st107"
   d="m 62,105.5 c -0.1,0 -0.2,0 -0.2,-0.1 -0.1,-0.1 -0.1,-0.1 -0.1,-0.2 0,-0.1 0,-0.2 0.1,-0.2 l 1.7,-1.6 c 0.1,-0.1 0.1,-0.1 0.2,-0.1 0.1,0 0.1,0 0.1,0.1 0.1,0.1 0.1,0.1 0.1,0.2 0,0.1 0,0.1 -0.1,0.2 l -1.6,1.7 c -0.1,0 -0.2,0 -0.2,0 z"
   id="path408"
   style="stroke-width:0.396374" />
				<path
   class="st108"
   d="m 62,105.5 c -0.1,0 -0.2,0 -0.2,-0.1 -0.1,-0.1 -0.1,-0.1 -0.1,-0.2 0,-0.1 0,-0.2 0.1,-0.2 l 1.7,-1.6 c 0.1,-0.1 0.1,-0.1 0.2,-0.1 0.1,0 0.1,0 0.1,0.1 0.1,0.1 0.1,0.1 0.1,0.2 0,0.1 0,0.1 -0.1,0.2 l -1.6,1.7 c -0.1,0 -0.2,0 -0.2,0 z"
   id="path410"
   style="stroke-width:0.396374" />
				<path
   class="st109"
   d="m 62,105.5 c -0.1,0 -0.2,0 -0.2,-0.1 -0.1,-0.1 -0.1,-0.1 -0.1,-0.2 0,-0.1 0,-0.2 0.1,-0.2 l 1.7,-1.6 c 0.1,-0.1 0.1,-0.1 0.2,-0.1 0.1,0 0.1,0 0.1,0.1 0.1,0.1 0.1,0.1 0.1,0.2 0,0.1 0,0.1 -0.1,0.2 l -1.6,1.7 c -0.1,0 -0.2,0 -0.2,0 z"
   id="path412"
   style="stroke-width:0.396374" />
				<path
   class="st110"
   d="m 62,105.5 c -0.1,0 -0.2,0 -0.2,-0.1 -0.1,-0.1 -0.1,-0.1 -0.1,-0.2 0,-0.1 0,-0.2 0.1,-0.2 l 1.7,-1.6 c 0.1,-0.1 0.1,-0.1 0.2,-0.1 0.1,0 0.1,0 0.1,0.1 0.1,0.1 0.1,0.1 0.1,0.2 0,0.1 0,0.1 -0.1,0.2 l -1.6,1.7 c -0.1,0 -0.2,0 -0.2,0 z"
   id="path414"
   style="stroke-width:0.396374" />
			</g>
			<linearGradient
   id="SVGID_17_"
   gradientUnits="userSpaceOnUse"
   x1="62.665901"
   y1="105.5225"
   x2="62.7803"
   y2="103.4443">
				<stop
   offset="7.582940e-02"
   style="stop-color:#888284"
   id="stop418" />
				<stop
   offset="1"
   style="stop-color:#FFFFFF"
   id="stop420" />
			</linearGradient>
			<path
   class="st111"
   d="m 62,105.5 c -0.1,0 -0.2,0 -0.2,-0.1 -0.1,-0.1 -0.1,-0.1 -0.1,-0.2 0,-0.1 0,-0.2 0.1,-0.2 l 1.7,-1.6 c 0.1,-0.1 0.1,-0.1 0.2,-0.1 0.1,0 0.1,0 0.1,0.1 0.1,0.1 0.1,0.1 0.1,0.2 0,0.1 0,0.1 -0.1,0.2 l -1.6,1.7 c -0.1,0 -0.2,0 -0.2,0 z"
   id="path423"
   style="fill:url(#SVGID_17_);stroke-width:0.396374" />
			<linearGradient
   id="SVGID_18_"
   gradientUnits="userSpaceOnUse"
   x1="62.828899"
   y1="105.4193"
   x2="62.6096"
   y2="102.9503">
				<stop
   offset="7.582940e-02"
   style="stop-color:#888284"
   id="stop425" />
				<stop
   offset="1"
   style="stop-color:#FFFFFF"
   id="stop427" />
			</linearGradient>
			<path
   class="st112"
   d="m 61.8,105.4 v 0 c -0.1,-0.1 -0.1,-0.3 0,-0.3 l 1.7,-1.6 c 0.1,-0.1 0.2,-0.1 0.3,0 v 0 c 0.1,0.1 0.1,0.2 0,0.3 l -1.6,1.7 c -0.2,0 -0.3,0 -0.4,-0.1 z"
   id="path430"
   style="fill:url(#SVGID_18_);stroke-width:0.396374" />
			<path
   class="st20"
   d="m 63.6,103.5 v 0 c 0,0 0,0 0,0 l 0.1,-0.1 c 0,0 0,0 0,0 v 0 c 0,0 0,0 0,0 l -0.1,0.1 c 0,0 0,0 0,0 z"
   id="path432"
   style="stroke-width:0.396374" />
		</g>
		
			<linearGradient
   id="SVGID_19_"
   gradientUnits="userSpaceOnUse"
   x1="62.900002"
   y1="1112.7865"
   x2="62.900002"
   y2="1106.5476"
   gradientTransform="translate(0,-1006)">
			<stop
   offset="0"
   style="stop-color:#FFFFFF"
   id="stop436" />
			<stop
   offset="0.9242"
   style="stop-color:#888284"
   id="stop438" />
		</linearGradient>
		
	</g>
</g>
</svg>
