<?xml version="1.0" encoding="UTF-8" standalone="no"?>
<!-- Created with Inkscape (http://www.inkscape.org/) -->

<svg
   version="1.1"
   id="svg1"
   width="121.43431"
   height="67.935555"
   viewBox="0 0 121.43431 67.935555"
   sodipodi:docname="INKSCAPE_ECHANGEUR_1K.svg"
   inkscape:version="1.3.2 (091e20ef0f, 2023-11-25)"
   xmlns:inkscape="http://www.inkscape.org/namespaces/inkscape"
   xmlns:sodipodi="http://sodipodi.sourceforge.net/DTD/sodipodi-0.dtd"
   xmlns="http://www.w3.org/2000/svg"
   xmlns:svg="http://www.w3.org/2000/svg">
  <defs
     id="defs1" />
  <sodipodi:namedview
     id="namedview1"
     pagecolor="#ffffff"
     bordercolor="#666666"
     borderopacity="1.0"
     inkscape:showpageshadow="2"
     inkscape:pageopacity="0.0"
     inkscape:pagecheckerboard="0"
     inkscape:deskcolor="#d1d1d1"
     inkscape:zoom="7.8697183"
     inkscape:cx="60.357942"
     inkscape:cy="33.991052"
     inkscape:window-width="1920"
     inkscape:window-height="1056"
     inkscape:window-x="0"
     inkscape:window-y="0"
     inkscape:window-maximized="1"
     inkscape:current-layer="g1" />
  <g
     inkscape:groupmode="layer"
     inkscape:label="Image"
     id="g1"
     transform="translate(-0.06050088,0.01824798)">
    <path
       id="path2-1"
       style="color:#000000;fill:#7b7b7b;fill-opacity:1;fill-rule:evenodd;stroke:#000000;stroke-opacity:1;-inkscape-stroke:none"
       d="m 40.718443,26.12114 c -0.595447,0.0045 -1.710783,0.892353 -2.224218,2.469979 -3.147942,9.672269 1.040947,21.212249 -4.582423,31.592474 -1.069097,1.674816 -2.183954,2.402754 -3.205078,2.40625 -1.02117,0.0035 -2.13673,-0.714003 -3.207031,-2.38086 -5.210003,-8.113911 -1.574637,-22.352954 -4.530073,-31.373115 -0.514446,-1.571178 -1.712121,-2.269953 -2.307818,-2.26551 -0.595446,0.0045 -1.639546,0.659444 -2.152981,2.237069 -3.020689,9.281276 0.648985,23.518553 -4.653613,31.825431 -1.069097,1.674817 -2.183954,2.402754 -3.205078,2.40625 -1.0211699,0.0035 -2.1367779,-0.714003 -3.2070779,-2.380859 -1.97109,-3.069721 -3.226073,-8.632161 -3.377543,-14.846647 -0.01303,-0.53444 -0.269604,-44.6213469 -0.266061,-45.16426085 l -3.23389197,-0.04089 c -0.0027,0.41247695 -0.01,44.33304485 2.22e-4,44.75447585 0.162597,6.721347 1.92771797,14.417354 4.13313297,17.852008 1.171847,1.825003 4.443302,3.998185 5.9296339,3.993096 1.486333,-0.0051 4.76592,-2.123599 5.935601,-3.955987 2.067345,-3.238642 3.669212,-10.346911 3.974017,-16.777231 0.03626,-0.765046 0.137336,-10.516562 0.13548,-11.254757 0.157072,-0.0014 -0.340974,6.810452 -0.05477,11.15432 0.383667,5.823174 1.823866,13.46173 4.111291,17.024105 1.171847,1.825003 4.320534,3.85805 5.806864,3.852961 1.486333,-0.0051 4.890643,-1.985416 6.060324,-3.817804 1.64212,-2.572497 3.27986,-10.08349 3.939207,-17.068546 0.421408,-4.464355 0.16652,-8.822359 0.160595,-11.184801 0.07594,-0.0011 -0.514682,5.112013 -0.0809,10.977224 0.471138,6.37036 2.040751,13.650736 4.082668,16.830763 0.95719,1.490703 4.408477,4.11672 6.1299,4.110827 1.486331,-0.0051 4.891826,-1.90344 6.061507,-3.735827 1.274327,-1.996322 3.228917,-9.567978 3.902239,-16.739708 0.454014,-4.835818 -0.173083,-9.489697 -0.09362,-12.130272 0.115122,2.624764 -0.144226,7.381682 0.353411,12.20225 0.735172,7.121565 2.419414,14.51653 3.677811,16.476324 0.952009,1.482633 4.524557,4.253329 6.25005,4.247421 1.486333,-0.0051 4.773625,-2.041986 5.943305,-3.874374 1.60576,-2.515526 3.16728,-10.043254 3.84297,-17.123972 0.45694,-4.788349 0.29376,-9.459659 0.28763,-11.90396 0.0778,-0.0011 -0.35027,5.616793 0.10852,11.863071 0.47476,6.463549 1.86797,13.613354 3.86245,16.719501 1.17185,1.825003 4.487518,4.021027 5.973848,4.015938 1.35799,-0.0046 4.685652,-1.99023 5.981222,-4.019843 1.3471,-2.110312 3.080145,-9.370683 3.799755,-16.483735 0.51388,-5.079458 0.2238,-10.114927 0.21887,-13.004009 0.0859,-0.0012 -0.3545,6.13671 0.16628,12.889468 0.50861,6.595077 1.95602,13.771809 3.89127,16.785729 1.17185,1.825005 4.6085,3.913371 6.09482,3.908282 1.48634,-0.0051 4.60269,-2.040734 5.77237,-3.873126 2.19116,-3.432613 3.65459,-11.010297 3.7882,-17.701067 0.009,-0.452528 0.28629,-44.69025785 0.28297,-45.13311385 l -3.00746,0.002 c 0.003,0.425509 -0.30894,44.44909185 -0.31659,44.87054285 -0.11566,6.368761 -1.45062,12.202756 -3.45611,15.344483 -1.06909,1.674805 -2.18394,2.402754 -3.20507,2.40625 -1.02112,0.0035 -2.13674,-0.714003 -3.20704,-2.38086 -5.3055,-8.262679 -1.53451,-22.423385 -4.56882,-31.690142 -0.51445,-1.571175 -1.64996,-2.58383 -2.24566,-2.579389 -0.59544,0.0045 -1.718318,0.947929 -2.231748,2.52555 -3.02069,9.281269 0.727753,23.230072 -4.574847,31.53695 -0.7374,1.241504 -1.71481,2.119973 -3.11523,2.365234 -1.02112,0.0035 -2.13673,-0.714003 -3.20703,-2.380859 -5.30559,-8.262769 -1.535499,-22.544137 -4.569899,-31.811161 -0.51444,-1.571178 -1.648861,-2.462814 -2.244561,-2.45837 -0.59545,0.0045 -1.707486,0.965459 -2.220926,2.543084 -2.76945,8.525088 0.119796,23.8932 -4.935323,31.81239 -0.499415,0.782369 -1.425598,2.108386 -2.855468,2.113281 -1.02117,0.0035 -2.136731,-0.714003 -3.207032,-2.38086 -5.21032,-8.113882 -1.876377,-22.22907 -4.832194,-31.250053 -0.332833,-1.224727 -1.285851,-2.129268 -2.331937,-2.726327 -0.595446,0.0045 -1.572564,1.135821 -2.085999,2.713446 -3.020689,9.281274 0.582002,23.042174 -4.720595,31.349054 -0.737405,1.241505 -1.714813,2.119973 -3.115231,2.365234 -0.997118,0.0034 -2.083717,-0.687281 -3.130859,-2.271484 C 42.592615,52.17249 45.854523,37.515196 42.920935,28.556111 42.406489,26.984934 41.31414,26.116697 40.718443,26.12114 Z"
       sodipodi:nodetypes="ccssscccssssccssssscssssscssssscssssscsscsscsssssccsssssccssscccssccccssccc" />
  </g>
</svg>
