<?xml version="1.0" encoding="UTF-8" standalone="no"?>
<!--part of the rodentia icon theme by sixsixfive released under CC0 (https://creativecommons.org/publicdomain/zero/1.0/) on openclipart-->

<svg
   viewBox="0 0 48 48"
   version="1.1"
   id="svg1"
   sodipodi:docname="energie_solaire.svg"
   inkscape:version="1.3.2 (091e20ef0f, 2023-11-25)"
   xmlns:inkscape="http://www.inkscape.org/namespaces/inkscape"
   xmlns:sodipodi="http://sodipodi.sourceforge.net/DTD/sodipodi-0.dtd"
   xmlns:xlink="http://www.w3.org/1999/xlink"
   xmlns="http://www.w3.org/2000/svg"
   xmlns:svg="http://www.w3.org/2000/svg">
  <sodipodi:namedview
     id="namedview1"
     pagecolor="#ffffff"
     bordercolor="#666666"
     borderopacity="1.0"
     inkscape:showpageshadow="2"
     inkscape:pageopacity="0.0"
     inkscape:pagecheckerboard="0"
     inkscape:deskcolor="#d1d1d1"
     inkscape:zoom="17.4375"
     inkscape:cx="24"
     inkscape:cy="24"
     inkscape:window-width="1920"
     inkscape:window-height="1043"
     inkscape:window-x="0"
     inkscape:window-y="0"
     inkscape:window-maximized="1"
     inkscape:current-layer="svg1" />
  <defs
     id="0">
    <linearGradient
       id="6">
      <stop
         id="C"
         stop-color="#fff" />
      <stop
         id="D"
         offset="1"
         stop-color="#fff"
         stop-opacity="0" />
    </linearGradient>
    <linearGradient
       id="7">
      <stop
         id="E"
         stop-color="#fff"
         stop-opacity="0.8" />
      <stop
         id="F"
         offset="1"
         stop-color="#fff"
         stop-opacity="0" />
    </linearGradient>
    <linearGradient
       id="8">
      <stop
         id="G"
         stop-color="#2e3436"
         stop-opacity="0.5" />
      <stop
         id="H"
         offset="1"
         stop-color="#2e3436"
         stop-opacity="0.015" />
    </linearGradient>
    <radialGradient
       cx="24.431"
       cy="52.28"
       r="21.578"
       id="9"
       xlink:href="#8"
       gradientUnits="userSpaceOnUse"
       gradientTransform="matrix(1,0,0,0.2975207,0,36.725592)" />
    <linearGradient
       y1="4.076"
       x2="0"
       y2="36.737"
       id="A"
       xlink:href="#7"
       gradientUnits="userSpaceOnUse" />
    <linearGradient
       x1="1.586"
       y1="-16.371"
       x2="24.733"
       y2="27.934"
       id="B"
       xlink:href="#6"
       gradientUnits="userSpaceOnUse" />
  </defs>
  <path
     d="m 46.009577,52.279961 a 21.578135,6.4199409 0 1 1 -43.1562693,0 21.578135,6.4199409 0 1 1 43.1562693,0 z"
     transform="matrix(1.112237,0,0,0.6111111,-3.173554,10.787839)"
     id="1"
     opacity="0.8"
     fill="url(#9)" />
  <path
     d="m -12.902802,20.406656 a 14.923724,17.48874 0 1 1 -29.847449,0 14.923725,17.48874 0 1 1 29.847449,0 z"
     transform="matrix(1.2859056,0,0,1.0973061,59.782286,1.6076516)"
     id="2"
     fill="#7c0000"
     style="fill:#000000;fill-opacity:0.48627451" />
  <path
     d="m -27.8125,4.03125 c -7.531664,0 -13.812499,7.235799 -13.8125,16.375 0,9.139201 6.280837,16.375002 13.8125,16.375 7.531664,0 13.78125,-7.233399 13.78125,-16.375 0,-9.141601 -6.249586,-16.375 -13.78125,-16.375 z"
     transform="matrix(1.2859056,0,0,1.0973061,59.782286,1.6076516)"
     id="3"
     fill="#c00"
     style="fill:#000000;fill-opacity:1" />
  <path
     d="m -27.8125,4.53125 c -7.209936,0 -13.312499,6.965945 -13.3125,15.875 0,8.909055 6.102566,15.875002 13.3125,15.875 7.210042,0 13.28125,-6.96234 13.28125,-15.875 0,-8.91266 -6.071208,-15.875 -13.28125,-15.875 z"
     transform="matrix(1.2859056,0,0,1.0973061,59.782286,1.6076516)"
     id="4"
     opacity="0.8"
     fill="none"
     stroke="url(#A)"
     stroke-width="0.842" />
  <path
     d="M 24.03125,6.03125 C 14.346242,6.0312498 6.2500013,13.971499 6.25,24 c 0,0.0106 -1.8e-5,0.02066 0,0.03125 11.069064,-4.32648 22.427835,-6.570935 33.40625,-8.5 -3.000395,-5.6852283 -8.908826,-9.5 -15.625,-9.5 z"
     id="5"
     opacity="0.6"
     fill="url(#B)" />
  <g
     id="g322"
     transform="matrix(1.4784901,0,0,1.4784901,-32.108699,-113.20388)">
			<polygon
   class="st26"
   points="43.4,98.3 30.1,98.3 31.1,90.1 42.5,90.1 "
   id="polygon264"
   style="fill:#4accd4" />

			<polygon
   class="st27"
   points="30.8,97.8 31.6,90.7 42,90.7 42.8,97.8 "
   id="polygon266"
   style="opacity:0.2;fill:#ffffff" />

			<g
   id="g292">
				<g
   id="g274">
					<rect
   x="36.700001"
   y="90.699997"
   class="st28"
   width="0.2"
   height="7.0999999"
   id="rect268"
   style="fill:#006482" />

					
						<rect
   x="38.599998"
   y="90.699997"
   transform="matrix(0.9992,-0.03898234,0.03898234,0.9992,-3.644,1.5785)"
   class="st28"
   width="0.2"
   height="7.0999999"
   id="rect270"
   style="fill:#006482" />

					
						<rect
   x="40.400002"
   y="90.699997"
   transform="matrix(0.997,-0.0777684,0.0777684,0.997,-7.2055,3.4365)"
   class="st28"
   width="0.2"
   height="7.0999999"
   id="rect272"
   style="fill:#006482" />

				</g>

				<g
   id="g280">
					
						<rect
   x="31.4"
   y="94.099998"
   transform="matrix(0.03903982,-0.9992,0.9992,0.03903982,-60.5975,125.4502)"
   class="st28"
   width="7.0999999"
   height="0.2"
   id="rect276"
   style="fill:#006482" />

					
						<rect
   x="29.5"
   y="94.099998"
   transform="matrix(0.07815756,-0.9969,0.9969,0.07815756,-63.4663,119.8248)"
   class="st28"
   width="7.0999999"
   height="0.2"
   id="rect278"
   style="fill:#006482" />

				</g>

				<g
   id="g290">
					<rect
   x="31.4"
   y="92"
   class="st28"
   width="10.7"
   height="0.2"
   id="rect282"
   style="fill:#006482" />

					<rect
   x="31.299999"
   y="93.400002"
   class="st28"
   width="11"
   height="0.2"
   id="rect284"
   style="fill:#006482" />

					<rect
   x="31.1"
   y="94.800003"
   class="st28"
   width="11.4"
   height="0.2"
   id="rect286"
   style="fill:#006482" />

					<rect
   x="30.9"
   y="96.300003"
   class="st28"
   width="11.7"
   height="0.2"
   id="rect288"
   style="fill:#006482" />

				</g>

			</g>

			<rect
   x="35.799999"
   y="98.300003"
   class="st29"
   width="2"
   height="1.7"
   id="rect294"
   style="fill:#1a1a1a" />

			<rect
   x="35.200001"
   y="99.599998"
   class="st30"
   width="3.3"
   height="0.80000001"
   id="rect296"
   style="fill:#505050" />

			<polygon
   class="st31"
   points="38.4,100.4 38.4,99.6 37.8,99.6 37.8,98.3 43.4,98.3 42.5,90.1 36.8,90.1 36.8,100.4 "
   id="polygon298"
   style="opacity:0.1;fill:#ffffff" />

			<g
   id="g320">
				<circle
   class="st32"
   cx="41.900002"
   cy="89"
   r="1.9"
   id="circle300"
   style="fill:#ffed00" />

				<g
   id="g318">
					<path
   class="st32"
   d="m 41.9,86.9 c 0.2,0 0.3,0 0.5,0 0,0 0,0 0,0 -0.2,-0.4 -0.5,-1.3 -0.5,-1.7 0,0.4 -0.2,1.3 -0.5,1.7 0,0 0,0 0,0 0.2,0 0.3,0 0.5,0 z"
   id="path302"
   style="fill:#ffed00" />

					<path
   class="st32"
   d="m 44.1,89 c 0,0.2 0,0.3 0,0.5 0,0 0,0 0,0 0.4,-0.2 1.3,-0.5 1.7,-0.5 -0.4,0 -1.3,-0.2 -1.7,-0.5 0,0 0,0 0,0 0,0.2 0,0.4 0,0.5 z"
   id="path304"
   style="fill:#ffed00" />

					<path
   class="st32"
   d="m 41.9,91.2 c -0.2,0 -0.3,0 -0.5,0 0,0 0,0 0,0 0.2,0.4 0.5,1.3 0.5,1.7 0,-0.4 0.2,-1.3 0.5,-1.7 0,0 0,0 0,0 -0.2,0 -0.3,0 -0.5,0 z"
   id="path306"
   style="fill:#ffed00" />

					<path
   class="st32"
   d="m 39.7,89 c 0,-0.2 0,-0.3 0,-0.5 0,0 0,0 0,0 -0.4,0.2 -1.3,0.5 -1.7,0.5 0.4,0 1.3,0.2 1.7,0.5 0,0 0,0 0,0 0,-0.1 0,-0.3 0,-0.5 z"
   id="path308"
   style="fill:#ffed00" />

					<path
   class="st32"
   d="m 40.4,87.5 c 0.1,-0.1 0.2,-0.2 0.4,-0.3 0,0 0,0 0,0 -0.5,-0.1 -1.2,-0.6 -1.5,-0.9 0.3,0.3 0.7,1 0.9,1.5 0,0 0,0 0,0 0,-0.1 0,-0.2 0.2,-0.3 z"
   id="path310"
   style="fill:#ffed00" />

					<path
   class="st32"
   d="m 43.4,87.5 c 0.1,0.1 0.2,0.2 0.3,0.4 0,0 0,0 0,0 0.1,-0.5 0.6,-1.2 0.9,-1.5 -0.3,0.3 -1,0.7 -1.5,0.9 0,0 0,0 0,0 0.1,0 0.2,0.1 0.3,0.2 z"
   id="path312"
   style="fill:#ffed00" />

					<path
   class="st32"
   d="m 43.4,90.6 c -0.1,0.1 -0.2,0.2 -0.4,0.3 0,0 0,0 0,0 0.5,0.1 1.2,0.6 1.5,0.9 -0.3,-0.3 -0.7,-1 -0.9,-1.5 0,0 0,0 0,0 0,0.1 -0.1,0.2 -0.2,0.3 z"
   id="path314"
   style="fill:#ffed00" />

					<path
   class="st32"
   d="m 40.4,90.6 c -0.1,-0.1 -0.2,-0.2 -0.3,-0.4 0,0 0,0 0,0 -0.1,0.5 -0.6,1.2 -0.9,1.5 0.3,-0.3 1,-0.7 1.5,-0.9 0,0 0,0 0,0 -0.1,0 -0.2,-0.1 -0.3,-0.2 z"
   id="path316"
   style="fill:#ffed00" />

				</g>

			</g>

		</g>
</svg>
