<?xml version="1.0" encoding="UTF-8" standalone="no"?>
<!--part of the rodentia icon theme by sixsixfive released under CC0 (https://creativecommons.org/publicdomain/zero/1.0/) on openclipart-->

<svg
   viewBox="0 0 48 48"
   version="1.1"
   id="svg1"
   sodipodi:docname="energie_gaz.svg"
   inkscape:version="1.3.2 (091e20ef0f, 2023-11-25)"
   xmlns:inkscape="http://www.inkscape.org/namespaces/inkscape"
   xmlns:sodipodi="http://sodipodi.sourceforge.net/DTD/sodipodi-0.dtd"
   xmlns:xlink="http://www.w3.org/1999/xlink"
   xmlns="http://www.w3.org/2000/svg"
   xmlns:svg="http://www.w3.org/2000/svg">
  <sodipodi:namedview
     id="namedview1"
     pagecolor="#ffffff"
     bordercolor="#666666"
     borderopacity="1.0"
     inkscape:showpageshadow="2"
     inkscape:pageopacity="0.0"
     inkscape:pagecheckerboard="0"
     inkscape:deskcolor="#d1d1d1"
     inkscape:zoom="17.4375"
     inkscape:cx="24"
     inkscape:cy="24"
     inkscape:window-width="1920"
     inkscape:window-height="1043"
     inkscape:window-x="0"
     inkscape:window-y="0"
     inkscape:window-maximized="1"
     inkscape:current-layer="svg1" />
  <defs
     id="0">
    <linearGradient
       id="6">
      <stop
         id="C"
         stop-color="#fff" />
      <stop
         id="D"
         offset="1"
         stop-color="#fff"
         stop-opacity="0" />
    </linearGradient>
    <linearGradient
       id="7">
      <stop
         id="E"
         stop-color="#fff"
         stop-opacity="0.8" />
      <stop
         id="F"
         offset="1"
         stop-color="#fff"
         stop-opacity="0" />
    </linearGradient>
    <linearGradient
       id="8">
      <stop
         id="G"
         stop-color="#2e3436"
         stop-opacity="0.5" />
      <stop
         id="H"
         offset="1"
         stop-color="#2e3436"
         stop-opacity="0.015" />
    </linearGradient>
    <radialGradient
       cx="24.431"
       cy="52.28"
       r="21.578"
       id="9"
       xlink:href="#8"
       gradientUnits="userSpaceOnUse"
       gradientTransform="matrix(1,0,0,0.2975207,0,36.725592)" />
    <linearGradient
       y1="4.076"
       x2="0"
       y2="36.737"
       id="A"
       xlink:href="#7"
       gradientUnits="userSpaceOnUse" />
    <linearGradient
       x1="1.586"
       y1="-16.371"
       x2="24.733"
       y2="27.934"
       id="B"
       xlink:href="#6"
       gradientUnits="userSpaceOnUse" />
  </defs>
  <path
     d="m 46.009577,52.279961 a 21.578135,6.4199409 0 1 1 -43.1562693,0 21.578135,6.4199409 0 1 1 43.1562693,0 z"
     transform="matrix(1.112237,0,0,0.6111111,-3.173554,10.787839)"
     id="1"
     opacity="0.8"
     fill="url(#9)" />
  <path
     d="m -12.902802,20.406656 a 14.923724,17.48874 0 1 1 -29.847449,0 14.923725,17.48874 0 1 1 29.847449,0 z"
     transform="matrix(1.2859056,0,0,1.0973061,59.782286,1.6076516)"
     id="2"
     fill="#7c0000"
     style="fill:#000000;fill-opacity:0.48627451" />
  <path
     d="m -27.8125,4.03125 c -7.531664,0 -13.812499,7.235799 -13.8125,16.375 0,9.139201 6.280837,16.375002 13.8125,16.375 7.531664,0 13.78125,-7.233399 13.78125,-16.375 0,-9.141601 -6.249586,-16.375 -13.78125,-16.375 z"
     transform="matrix(1.2859056,0,0,1.0973061,59.782286,1.6076516)"
     id="3"
     fill="#c00"
     style="fill:#000000;fill-opacity:1" />
  <path
     d="m -27.8125,4.53125 c -7.209936,0 -13.312499,6.965945 -13.3125,15.875 0,8.909055 6.102566,15.875002 13.3125,15.875 7.210042,0 13.28125,-6.96234 13.28125,-15.875 0,-8.91266 -6.071208,-15.875 -13.28125,-15.875 z"
     transform="matrix(1.2859056,0,0,1.0973061,59.782286,1.6076516)"
     id="4"
     opacity="0.8"
     fill="none"
     stroke="url(#A)"
     stroke-width="0.842" />
  <path
     d="M 24.03125,6.03125 C 14.346242,6.0312498 6.2500013,13.971499 6.25,24 c 0,0.0106 -1.8e-5,0.02066 0,0.03125 11.069064,-4.32648 22.427835,-6.570935 33.40625,-8.5 -3.000395,-5.6852283 -8.908826,-9.5 -15.625,-9.5 z"
     id="5"
     opacity="0.6"
     fill="url(#B)" />
  <g
     id="g145"
     transform="matrix(1.3080464,0,0,1.3080464,-58.846947,-75.869343)">
	<path
   class="st13"
   d="m 63.2,75.2 c 3,0 5.4,2.1 5.4,4.7 0,2.2 -1.8,4.1 -4.2,4.5 0,0 -0.8,0 -1.2,0 -0.4,0 -1.1,0 -1.3,0 -2.4,-0.4 -4.1,-2.3 -4.1,-4.5 0,-2.6 2.4,-4.7 5.4,-4.7 z"
   id="path127"
   style="fill:#29abe2" />

	<g
   id="g135">
		<g
   id="g133">
			<g
   id="g131">
				<path
   class="st14"
   d="M 60.2,84 C 59,83.3 57.9,82.3 57.5,79.9 57,77.9 57.4,75.8 58.4,74.1 l 0.6,-0.8 -0.1,1.1 c 0,0.5 0,0.9 0.1,1.3 0.1,-0.6 0.2,-1.1 0.5,-1.4 0.2,-0.7 0.5,-1.4 0.4,-2.4 v -0.5 l 0.5,0.1 c 0.5,0.2 1.1,1.3 1.5,2.4 0,-0.2 0.1,-0.6 0.1,-0.8 0.2,-1.5 0.4,-3.4 2.5,-4.5 l 0.7,-0.4 -0.4,0.8 c -0.2,0.7 0,1.8 0.4,2.7 0.2,0.7 0.5,1.4 0.6,2.1 0.2,-0.8 0.4,-1.7 0.4,-2.4 v -0.9 l 0.5,0.7 c 1.2,1.7 1.4,3.7 1.3,5 0.1,-0.4 0.2,-0.8 0.2,-1.2 l 0.1,-0.7 0.5,0.6 c 0.8,2 0.8,4.5 -0.1,6.5 C 68,82.8 67.1,83.5 66,84 l -0.9,0.3 0.7,-0.8 C 66,82.9 66,82.4 66,81.8 65.9,82 65.6,82.3 65.5,82.4 l -0.7,0.2 0.4,-0.7 c 0.1,-0.2 0.4,-1.1 0,-2 -0.1,0.4 -0.2,0.7 -0.4,1.1 l -0.6,0.6 v -0.8 c 0.1,-0.5 -0.1,-1.1 -0.2,-1.5 -0.1,-0.4 -0.2,-0.7 -0.2,-0.9 -0.4,0.5 -0.5,0.9 -0.6,1.5 0,0.4 -0.1,0.7 -0.2,1.1 L 62.6,81.7 62.5,81 c -0.1,-0.2 -0.2,-0.6 -0.4,-0.8 0,0.2 -0.1,0.4 -0.2,0.6 -0.1,0.5 -0.4,0.8 -0.1,1.4 v 0.7 l -0.5,-0.4 c 0,0 -0.2,-0.4 -0.4,-0.8 -0.2,0.7 0,1.4 0.3,2 l 0.7,0.8 c 0,0 -0.7,-0.1 -1,-0.1 C 60.7,84.2 60.2,84 60.2,84 Z"
   id="path129"
   style="fill:#fcee21" />

			</g>

		</g>

	</g>

	<g
   id="g143">
		<g
   id="g141">
			<g
   id="g139">
				<path
   class="st15"
   d="M 61.9,84.4 C 61.2,84.1 60.6,83 60.4,81.8 60.1,80.4 60.3,79.2 61,78.2 l 0.3,-0.5 v 0.7 c 0,0.3 0,0.5 0,0.9 0,-0.3 0.1,-0.7 0.3,-0.9 0.1,-0.5 0.3,-0.9 0.1,-1.6 v -0.3 l 0.3,0.2 c 0.3,0.2 0.6,0.9 0.9,1.6 0,-0.2 0,-0.3 0,-0.5 0.1,-1 0.3,-2.2 1.3,-2.9 l 0.4,-0.2 -0.1,0.5 c -0.1,0.5 0,1 0.1,1.7 0.1,0.3 0.3,0.9 0.3,1.4 0.1,-0.5 0.1,-1 0.1,-1.6 v -0.5 l 0.3,0.5 c 0.7,1 0.7,2.2 0.7,3.3 0.1,-0.2 0.1,-0.5 0.1,-0.7 v -0.5 l 0.3,0.3 c 0.4,1.2 0.4,2.8 0,4.1 C 66,84 65.8,84 65.1,84.3 l -0.5,0.1 0.2,-0.1 c 0.1,-0.3 0.1,-0.5 0.1,-0.8 0,0.2 -0.1,0.3 -0.3,0.3 l -0.3,0.2 0.1,-0.5 c 0.1,-0.2 0.1,-0.7 0,-1.2 0,0.2 -0.1,0.5 -0.1,0.7 L 64,83.3 v -0.5 c 0,-0.3 0,-0.7 -0.1,-1 0,-0.2 -0.1,-0.3 -0.1,-0.7 -0.1,0.3 -0.3,0.7 -0.3,1 0,0.2 0,0.5 -0.1,0.7 L 62.9,83 62.8,82.5 c 0,-0.2 -0.1,-0.3 -0.1,-0.5 0,0.2 0,0.2 -0.1,0.3 -0.1,0.3 -0.1,0.5 0,0.9 v 0.3 l -0.3,-0.3 c 0,0 -0.1,-0.2 -0.1,-0.5 -0.1,0.5 0,1 0,1.4 l 0.2,0.4 z"
   id="path137"
   style="fill:#f15a24" />

			</g>

		</g>

	</g>

</g>
</svg>
