<?xml version="1.0" encoding="utf-8"?>
<!-- Generator: Adobe Illustrator 22.1.0, SVG Export Plug-In . SVG Version: 6.00 Build 0)  -->
<svg version="1.1" id="Calque_12" xmlns="http://www.w3.org/2000/svg" xmlns:xlink="http://www.w3.org/1999/xlink" x="0px" y="0px"
	 viewBox="0 0 128 128" style="enable-background:new 0 0 128 128;" xml:space="preserve">
<style type="text/css">
	.st0{fill:#415666;}
	.st1{fill:#CCCCCC;}
	.st2{fill:#B3B3B3;}
	.st3{fill:#FFDC00;}
	.st4{fill:#FFF000;}
</style>
<g>
	<path class="st0" d="M128,64c0,35.3-28.7,64-64,64C28.7,128,0,99.3,0,64C0,28.7,28.7,0,64,0C99.3,0,128,28.7,128,64z"/>
	<g>
		<path class="st1" d="M103.6,46.2h-1.5c0.1-1.1,0.2-2.2,0.2-3.3c0-14-11.4-25.4-25.4-25.4c-11,0-20.4,7.1-23.9,16.9
			c-2.2-1-4.6-1.5-7.1-1.5c-8.3,0-15.2,5.7-17.1,13.3h-5c-6.1,0-11,4.9-11,11c0,6.1,4.9,11,11,11h79.8c6.1,0,11-4.9,11-11
			C114.6,51.2,109.6,46.2,103.6,46.2z"/>
		<path class="st2" d="M64,20.9c3.6-2,8.5-3.3,12.9-3.3c14,0,25.4,11.4,25.4,25.4c0,1.1-0.1,2.2-0.2,3.3h1.5c6.1,0,11,4.9,11,11
			c0,6.1-4.9,11-11,11H61.2c0,0-11.4-7.4-10.8-21.5C51.1,30,60.8,23.3,60.8,23.3L64,20.9z"/>
	</g>
	<g>
		<path class="st3" d="M58,74.9l12-35.2L42.3,83.1c9.5,0,10.9,0,20.3,0l-12,35.2c26.5-41.5,21.6-33.9,27.7-43.4
			C68.7,74.9,67.6,74.9,58,74.9z"/>
		<polygon class="st4" points="70,39.7 50.8,79 70,79 50.6,118.3 78.3,74.9 58,74.9 		"/>
	</g>
	<g>
		<path class="st3" d="M85.9,83.6L92,65.7L77.9,87.8c4.8,0,5.6,0,10.3,0l-6.1,17.9c13.5-21.2,11-17.3,14.1-22.1
			C91.4,83.6,90.8,83.6,85.9,83.6z"/>
		<polygon class="st4" points="92,65.7 82.3,85.7 92,85.7 82.2,105.7 96.3,83.6 85.9,83.6 		"/>
	</g>
</g>
</svg>
