<?xml version="1.0" encoding="UTF-8" standalone="no"?>
<!-- Generator: Adobe Illustrator 22.1.0, SVG Export Plug-In . SVG Version: 6.00 Build 0)  -->

<svg
   version="1.1"
   id="Calque_12"
   x="0px"
   y="0px"
   viewBox="0 0 128 128"
   style="enable-background:new 0 0 128 128;"
   xml:space="preserve"
   sodipodi:docname="meteo_orage.svg"
   inkscape:version="1.3 (0e150ed6c4, 2023-07-21)"
   xmlns:inkscape="http://www.inkscape.org/namespaces/inkscape"
   xmlns:sodipodi="http://sodipodi.sourceforge.net/DTD/sodipodi-0.dtd"
   xmlns="http://www.w3.org/2000/svg"
   xmlns:svg="http://www.w3.org/2000/svg"><defs
   id="defs6">&#10;	&#10;	&#10;	&#10;	&#10;</defs><sodipodi:namedview
   id="namedview6"
   pagecolor="#ffffff"
   bordercolor="#666666"
   borderopacity="1.0"
   inkscape:showpageshadow="2"
   inkscape:pageopacity="0.0"
   inkscape:pagecheckerboard="0"
   inkscape:deskcolor="#d1d1d1"
   inkscape:zoom="6.5390625"
   inkscape:cx="63.923536"
   inkscape:cy="64"
   inkscape:window-width="1920"
   inkscape:window-height="1043"
   inkscape:window-x="0"
   inkscape:window-y="0"
   inkscape:window-maximized="1"
   inkscape:current-layer="Calque_12" />&#10;<style
   type="text/css"
   id="style1">&#10;	.st0{fill:#415666;}&#10;	.st1{fill:#CCCCCC;}&#10;	.st2{fill:#B3B3B3;}&#10;	.st3{fill:#FFDC00;}&#10;	.st4{fill:#FFF000;}&#10;</style>&#10;<g
   id="g3">&#10;		<path
   class="st1"
   d="m 103.6,46.2 h -1.5 c 0.1,-1.1 0.2,-2.2 0.2,-3.3 0,-14 -11.4,-25.4 -25.4,-25.4 -11,0 -20.4,7.1 -23.9,16.9 -2.2,-1 -4.6,-1.5 -7.1,-1.5 -8.3,0 -15.2,5.7 -17.1,13.3 h -5 c -6.1,0 -11,4.9 -11,11 0,6.1 4.9,11 11,11 h 79.8 c 6.1,0 11,-4.9 11,-11 0,-6 -5,-11 -11,-11 z"
   id="path2" />&#10;		<path
   class="st2"
   d="m 64,20.9 c 3.6,-2 8.5,-3.3 12.9,-3.3 14,0 25.4,11.4 25.4,25.4 0,1.1 -0.1,2.2 -0.2,3.3 h 1.5 c 6.1,0 11,4.9 11,11 0,6.1 -4.9,11 -11,11 H 61.2 c 0,0 -11.4,-7.4 -10.8,-21.5 C 51.1,30 60.8,23.3 60.8,23.3 Z"
   id="path3" />&#10;	</g><g
   id="g4">&#10;		<path
   class="st3"
   d="M 58,74.9 70,39.7 42.3,83.1 c 9.5,0 10.9,0 20.3,0 l -12,35.2 C 77.1,76.8 72.2,84.4 78.3,74.9 c -9.6,0 -10.7,0 -20.3,0 z"
   id="path4" />&#10;		<polygon
   class="st4"
   points="70,79 50.6,118.3 78.3,74.9 58,74.9 70,39.7 50.8,79 "
   id="polygon4" />&#10;	</g><g
   id="g5">&#10;		<path
   class="st3"
   d="M 85.9,83.6 92,65.7 77.9,87.8 c 4.8,0 5.6,0 10.3,0 l -6.1,17.9 c 13.5,-21.2 11,-17.3 14.1,-22.1 -4.8,0 -5.4,0 -10.3,0 z"
   id="path5" />&#10;		<polygon
   class="st4"
   points="92,85.7 82.2,105.7 96.3,83.6 85.9,83.6 92,65.7 82.3,85.7 "
   id="polygon5" />&#10;	</g>&#10;</svg>
