<?xml version="1.0" encoding="UTF-8" standalone="no"?>
<!-- Generator: Adobe Illustrator 22.1.0, SVG Export Plug-In . SVG Version: 6.00 Build 0)  -->

<svg
   version="1.1"
   id="Calque_12"
   x="0px"
   y="0px"
   viewBox="0 0 128 128"
   style="enable-background:new 0 0 128 128;"
   xml:space="preserve"
   sodipodi:docname="meteo_neige.svg"
   inkscape:version="1.3 (0e150ed6c4, 2023-07-21)"
   xmlns:inkscape="http://www.inkscape.org/namespaces/inkscape"
   xmlns:sodipodi="http://sodipodi.sourceforge.net/DTD/sodipodi-0.dtd"
   xmlns="http://www.w3.org/2000/svg"
   xmlns:svg="http://www.w3.org/2000/svg"><defs
   id="defs19">&#10;	&#10;	&#10;	&#10;	&#10;	&#10;	&#10;	&#10;<linearGradient
   id="linearGradient3751"><stop
     id="stop3753"
     style="stop-color:#ffffff"
     offset="0" /><stop
     id="stop3755"
     style="stop-color:#ffffff;stop-opacity:0"
     offset="1" /></linearGradient></defs><sodipodi:namedview
   id="namedview19"
   pagecolor="#737373"
   bordercolor="#666666"
   borderopacity="1.0"
   inkscape:showpageshadow="2"
   inkscape:pageopacity="0.0"
   inkscape:pagecheckerboard="true"
   inkscape:deskcolor="#666666"
   inkscape:zoom="1.6347656"
   inkscape:cx="61.170848"
   inkscape:cy="114.08363"
   inkscape:window-width="1920"
   inkscape:window-height="1043"
   inkscape:window-x="0"
   inkscape:window-y="0"
   inkscape:window-maximized="1"
   inkscape:current-layer="Calque_12" />&#10;<style
   type="text/css"
   id="style1">&#10;	.st0{fill:#2A717E;}&#10;	.st1{fill:#FFFFFF;}&#10;	.st2{opacity:0.1;}&#10;	.st3{fill:none;stroke:#CCCCCC;stroke-width:3;stroke-linecap:round;stroke-linejoin:round;}&#10;	.st4{fill:none;stroke:#CCCCCC;stroke-width:3;stroke-linecap:round;stroke-linejoin:round;stroke-dasharray:6.0392,6.0392;}&#10;	.st5{fill:none;stroke:#CCCCCC;stroke-width:3;stroke-linecap:round;stroke-linejoin:round;stroke-dasharray:5.3404,5.3404;}&#10;	.st6{fill:none;stroke:#CCCCCC;stroke-width:3;stroke-linecap:round;stroke-linejoin:round;stroke-dasharray:5.8362,5.8362;}&#10;	.st7{fill:none;stroke:#CCCCCC;stroke-width:3;stroke-linecap:round;stroke-linejoin:round;stroke-dasharray:6.1283,6.1283;}&#10;	.st8{fill:none;stroke:#CCCCCC;stroke-width:3;stroke-linecap:round;stroke-linejoin:round;stroke-dasharray:6.5074,6.5074;}&#10;</style>&#10;<g
   id="g3">&#10;		<path
   class="st1"
   d="m 103.6,46.2 h -1.5 c 0.1,-1.1 0.2,-2.2 0.2,-3.3 0,-14 -11.4,-25.4 -25.4,-25.4 -11,0 -20.4,7.1 -23.9,16.9 -2.2,-1 -4.6,-1.5 -7.1,-1.5 -8.3,0 -15.2,5.7 -17.1,13.3 h -5 c -6.1,0 -11,4.9 -11,11 0,6.1 4.9,11 11,11 h 79.8 c 6.1,0 11,-4.9 11,-11 0,-6 -5,-11 -11,-11 z"
   id="path2" />&#10;		<path
   class="st2"
   d="m 64,20.9 c 3.6,-2 8.5,-3.3 12.9,-3.3 14,0 25.4,11.4 25.4,25.4 0,1.1 -0.1,2.2 -0.2,3.3 h 1.5 c 6.1,0 11,4.9 11,11 0,6.1 -4.9,11 -11,11 H 61.2 c 0,0 -11.4,-7.4 -10.8,-21.5 C 51.1,30 60.8,23.3 60.8,23.3 Z"
   id="path3" />&#10;	</g>&#10;<g
   id="g12157"
   transform="matrix(2.3547059,0,0,2.3547059,-374.27057,530.77951)"><circle
     transform="matrix(0.68552,0,0,0.68552,151.7017,27.15827)"
     id="path12159"
     style="opacity:1;fill:#ffffff;fill-opacity:1;stroke:#729fcf;stroke-width:1.45875;stroke-linecap:butt;stroke-linejoin:miter;stroke-miterlimit:0;stroke-dasharray:none;stroke-dashoffset:0;stroke-opacity:1"
     cx="29.610096"
     cy="-316.77872"
     r="2.2097087" /><circle
     transform="matrix(0.915572,0,0,0.915587,152.4091,103.5577)"
     id="path12161"
     style="opacity:1;fill:#ffffff;fill-opacity:1;stroke:#729fcf;stroke-width:1.0922;stroke-linecap:butt;stroke-linejoin:miter;stroke-miterlimit:0;stroke-dasharray:none;stroke-dashoffset:0;stroke-opacity:1"
     cx="29.610096"
     cy="-316.77872"
     r="2.2097087" /><circle
     transform="matrix(0.672406,0,0,0.683742,153.0708,34.62149)"
     id="path12163"
     style="opacity:1;fill:#ffffff;fill-opacity:1;stroke:#729fcf;stroke-width:1.47482;stroke-linecap:butt;stroke-linejoin:miter;stroke-miterlimit:0;stroke-dasharray:none;stroke-dashoffset:0;stroke-opacity:1"
     cx="29.610096"
     cy="-316.77872"
     r="2.2097087" /><circle
     transform="matrix(0.6823,0,0,0.680269,181.797,30.49471)"
     id="path12165"
     style="opacity:1;fill:#ffffff;fill-opacity:1;stroke:#729fcf;stroke-width:1.46782;stroke-linecap:butt;stroke-linejoin:miter;stroke-miterlimit:0;stroke-dasharray:none;stroke-dashoffset:0;stroke-opacity:1"
     cx="29.610096"
     cy="-316.77872"
     r="2.2097087" /><circle
     transform="matrix(1.107132,0,0,1.117168,157.2177,164.9217)"
     id="path12167"
     style="opacity:1;fill:#ffffff;fill-opacity:1;stroke:#729fcf;stroke-width:0.899168;stroke-linecap:butt;stroke-linejoin:miter;stroke-miterlimit:0;stroke-dasharray:none;stroke-dashoffset:0;stroke-opacity:1"
     cx="29.610096"
     cy="-316.77872"
     r="2.2097087" /><circle
     transform="matrix(1.127592,0,0,1.05183,161.6119,151.3731)"
     id="path12169"
     style="opacity:1;fill:#ffffff;fill-opacity:1;stroke:#729fcf;stroke-width:0.918229;stroke-linecap:butt;stroke-linejoin:miter;stroke-miterlimit:0;stroke-dasharray:none;stroke-dashoffset:0;stroke-opacity:1"
     cx="29.610096"
     cy="-316.77872"
     r="2.2097087" /><circle
     transform="matrix(0.685519,0,0,0.680487,164.6869,34.56369)"
     id="path12171"
     style="opacity:1;fill:#ffffff;fill-opacity:1;stroke:#729fcf;stroke-width:1.46413;stroke-linecap:butt;stroke-linejoin:miter;stroke-miterlimit:0;stroke-dasharray:none;stroke-dashoffset:0;stroke-opacity:1"
     cx="29.610096"
     cy="-316.77872"
     r="2.2097087" /></g></svg>
