<?xml version="1.0" encoding="utf-8"?>
<!-- Generator: Adobe Illustrator 22.1.0, SVG Export Plug-In . SVG Version: 6.00 Build 0)  -->
<svg version="1.1" id="Calque_12" xmlns="http://www.w3.org/2000/svg" xmlns:xlink="http://www.w3.org/1999/xlink" x="0px" y="0px"
	 viewBox="0 0 128 128" style="enable-background:new 0 0 128 128;" xml:space="preserve">
<style type="text/css">
	.st0{fill:#2E6480;}
	.st1{fill:#FED766;}
	.st2{fill:#FBB03B;}
	.st3{fill:#FFFFFF;}
	.st4{opacity:0.1;}
</style>
<g>
	<path class="st0" d="M128,64c0,35.3-28.7,64-64,64C28.7,128,0,99.3,0,64C0,28.7,28.7,0,64,0C99.3,0,128,28.7,128,64z"/>
	<g>
		<path class="st1" d="M57.3,56.9c0.9-2.8,9.2-5.5,11.5-6.2c-2.3-0.7-10.6-3.4-11.5-6.2c-1.1-3.3,6-12.3,6-12.3s-10.8,4-13.6,2
			c-2.8-2-2.3-13.5-2.3-13.5s-6.4,9.6-9.8,9.6c-3.4,0-9.8-9.6-9.8-9.6s0.4,11.5-2.3,13.5c-2.8,2-13.6-2-13.6-2s7.1,9,6,12.3
			c-0.9,2.8-9.2,5.5-11.5,6.2c2.3,0.7,10.6,3.4,11.5,6.2c1.1,3.3-6,12.3-6,12.3s10.8-4,13.6-2c2.8,2,2.3,13.5,2.3,13.5
			s6.4-9.6,9.8-9.6c3.4,0,9.8,9.6,9.8,9.6s-0.4-11.5,2.3-13.5c2.8-2,13.6,2,13.6,2S56.3,60.2,57.3,56.9z"/>
		<path class="st2" d="M37.7,42c-4.8,0-8.7,3.9-8.8,8.7c0,4.8,4,8.7,8.8,8.7c4.8,0,8.7-3.9,8.8-8.7C46.4,45.9,42.5,42,37.7,42z"/>
	</g>
	<path class="st3" d="M105.5,70.8H104c0.1-1.1,0.2-2.2,0.2-3.3c0-14-11.4-25.4-25.4-25.4c-11,0-20.4,7.1-23.9,16.9
		c-2.2-1-4.6-1.5-7.1-1.5c-8.3,0-15.2,5.7-17.1,13.3h-5c-6.1,0-11,4.9-11,11c0,6.1,4.9,11,11,11h79.8c6.1,0,11-4.9,11-11
		C116.6,75.7,111.6,70.8,105.5,70.8z"/>
	<path class="st4" d="M66,45.4c3.6-2,8.5-3.3,12.9-3.3c14,0,25.4,11.4,25.4,25.4c0,1.1-0.1,2.2-0.2,3.3h1.5c6.1,0,11,4.9,11,11
		c0,6.1-4.9,11-11,11H63.1c0,0-11.4-7.4-10.8-21.5c0.7-16.9,10.5-23.6,10.5-23.6L66,45.4z"/>
</g>
</svg>
