<?xml version="1.0" encoding="utf-8"?>
<!-- Generator: Adobe Illustrator 22.1.0, SVG Export Plug-In . SVG Version: 6.00 Build 0)  -->
<svg version="1.1" id="Calque_12" xmlns="http://www.w3.org/2000/svg" xmlns:xlink="http://www.w3.org/1999/xlink" x="0px" y="0px"
	 viewBox="0 0 128 128" style="enable-background:new 0 0 128 128;" xml:space="preserve">
<style type="text/css">
	.st0{fill:#2A717E;}
	.st1{fill:#FFFFFF;}
	.st2{opacity:0.1;}
	.st3{fill:none;stroke:#CCCCCC;stroke-width:3;stroke-linecap:round;stroke-linejoin:round;}
	.st4{fill:none;stroke:#CCCCCC;stroke-width:3;stroke-linecap:round;stroke-linejoin:round;stroke-dasharray:6.0392,6.0392;}
	.st5{fill:none;stroke:#CCCCCC;stroke-width:3;stroke-linecap:round;stroke-linejoin:round;stroke-dasharray:5.3404,5.3404;}
	.st6{fill:none;stroke:#CCCCCC;stroke-width:3;stroke-linecap:round;stroke-linejoin:round;stroke-dasharray:5.8362,5.8362;}
	.st7{fill:none;stroke:#CCCCCC;stroke-width:3;stroke-linecap:round;stroke-linejoin:round;stroke-dasharray:6.1283,6.1283;}
	.st8{fill:none;stroke:#CCCCCC;stroke-width:3;stroke-linecap:round;stroke-linejoin:round;stroke-dasharray:6.5074,6.5074;}
</style>
<g>
	<path class="st0" d="M128,64c0,35.3-28.7,64-64,64C28.7,128,0,99.3,0,64C0,28.7,28.7,0,64,0C99.3,0,128,28.7,128,64z"/>
	<g>
		<path class="st1" d="M103.6,46.2h-1.5c0.1-1.1,0.2-2.2,0.2-3.3c0-14-11.4-25.4-25.4-25.4c-11,0-20.4,7.1-23.9,16.9
			c-2.2-1-4.6-1.5-7.1-1.5c-8.3,0-15.2,5.7-17.1,13.3h-5c-6.1,0-11,4.9-11,11c0,6.1,4.9,11,11,11h79.8c6.1,0,11-4.9,11-11
			C114.6,51.2,109.6,46.2,103.6,46.2z"/>
		<path class="st2" d="M64,20.9c3.6-2,8.5-3.3,12.9-3.3c14,0,25.4,11.4,25.4,25.4c0,1.1-0.1,2.2-0.2,3.3h1.5c6.1,0,11,4.9,11,11
			c0,6.1-4.9,11-11,11H61.2c0,0-11.4-7.4-10.8-21.5C51.1,30,60.8,23.3,60.8,23.3L64,20.9z"/>
	</g>
	<g>
		<g>
			<line class="st3" x1="39.1" y1="75.9" x2="41.2" y2="78"/>
			<line class="st4" x1="45.5" y1="82.2" x2="77.9" y2="113.8"/>
			<line class="st3" x1="80.1" y1="115.9" x2="82.2" y2="118"/>
		</g>
	</g>
	<g>
		<g>
			<line class="st3" x1="51.9" y1="75.9" x2="54" y2="78"/>
			<line class="st5" x1="57.8" y1="81.8" x2="86.1" y2="110.1"/>
			<line class="st3" x1="87.9" y1="112" x2="90.1" y2="114.1"/>
		</g>
	</g>
	<g>
		<g>
			<line class="st3" x1="64.7" y1="75.9" x2="66.8" y2="78"/>
			<line class="st6" x1="70.9" y1="82.1" x2="93.7" y2="104.7"/>
			<line class="st3" x1="95.8" y1="106.8" x2="97.9" y2="108.9"/>
		</g>
	</g>
	<g>
		<g>
			<line class="st3" x1="77.5" y1="75.9" x2="79.6" y2="78"/>
			<line class="st7" x1="84" y1="82.2" x2="99.4" y2="97.1"/>
			<line class="st3" x1="101.6" y1="99.3" x2="103.8" y2="101.4"/>
		</g>
	</g>
	<g>
		<g>
			<line class="st3" x1="90" y1="75.9" x2="92.2" y2="78"/>
			<line class="st8" x1="96.8" y1="82.6" x2="103.7" y2="89.4"/>
			<line class="st3" x1="106" y1="91.7" x2="108.2" y2="93.8"/>
		</g>
	</g>
</g>
</svg>
