<?xml version="1.0" encoding="UTF-8" standalone="no"?>
<!-- Generator: Adobe Illustrator 22.1.0, SVG Export Plug-In . SVG Version: 6.00 Build 0)  -->

<svg
   version="1.1"
   id="Calque_12"
   x="0px"
   y="0px"
   viewBox="0 0 128 128"
   style="enable-background:new 0 0 128 128;"
   xml:space="preserve"
   sodipodi:docname="meteo_nuageux.svg"
   inkscape:version="1.3 (0e150ed6c4, 2023-07-21)"
   xmlns:inkscape="http://www.inkscape.org/namespaces/inkscape"
   xmlns:sodipodi="http://sodipodi.sourceforge.net/DTD/sodipodi-0.dtd"
   xmlns="http://www.w3.org/2000/svg"
   xmlns:svg="http://www.w3.org/2000/svg"><defs
   id="defs5">&#10;	&#10;	&#10;	&#10;	&#10;</defs><sodipodi:namedview
   id="namedview5"
   pagecolor="#535353"
   bordercolor="#666666"
   borderopacity="1.0"
   inkscape:showpageshadow="2"
   inkscape:pageopacity="0.0"
   inkscape:pagecheckerboard="true"
   inkscape:deskcolor="#5d5d5d"
   inkscape:zoom="6.5390625"
   inkscape:cx="63.923536"
   inkscape:cy="64"
   inkscape:window-width="1920"
   inkscape:window-height="1043"
   inkscape:window-x="0"
   inkscape:window-y="0"
   inkscape:window-maximized="1"
   inkscape:current-layer="Calque_12" />&#10;<style
   type="text/css"
   id="style1">&#10;	.st0{fill:#2E6480;}&#10;	.st1{fill:#FED766;}&#10;	.st2{fill:#FBB03B;}&#10;	.st3{fill:#FFFFFF;}&#10;	.st4{opacity:0.1;}&#10;</style>&#10;<g
   id="g3">&#10;		<path
   class="st1"
   d="m 57.3,56.9 c 0.9,-2.8 9.2,-5.5 11.5,-6.2 -2.3,-0.7 -10.6,-3.4 -11.5,-6.2 -1.1,-3.3 6,-12.3 6,-12.3 0,0 -10.8,4 -13.6,2 -2.8,-2 -2.3,-13.5 -2.3,-13.5 0,0 -6.4,9.6 -9.8,9.6 -3.4,0 -9.8,-9.6 -9.8,-9.6 0,0 0.4,11.5 -2.3,13.5 -2.8,2 -13.6,-2 -13.6,-2 0,0 7.1,9 6,12.3 -0.9,2.8 -9.2,5.5 -11.5,6.2 2.3,0.7 10.6,3.4 11.5,6.2 1.1,3.3 -6,12.3 -6,12.3 0,0 10.8,-4 13.6,-2 2.8,2 2.3,13.5 2.3,13.5 0,0 6.4,-9.6 9.8,-9.6 3.4,0 9.8,9.6 9.8,9.6 0,0 -0.4,-11.5 2.3,-13.5 2.8,-2 13.6,2 13.6,2 0,0 -7,-9 -6,-12.3 z"
   id="path2" />&#10;		<path
   class="st2"
   d="m 37.7,42 c -4.8,0 -8.7,3.9 -8.8,8.7 0,4.8 4,8.7 8.8,8.7 4.8,0 8.7,-3.9 8.8,-8.7 -0.1,-4.8 -4,-8.7 -8.8,-8.7 z"
   id="path3" />&#10;	</g><path
   class="st3"
   d="M 105.5,70.8 H 104 c 0.1,-1.1 0.2,-2.2 0.2,-3.3 0,-14 -11.4,-25.4 -25.4,-25.4 -11,0 -20.4,7.1 -23.9,16.9 -2.2,-1 -4.6,-1.5 -7.1,-1.5 -8.3,0 -15.2,5.7 -17.1,13.3 h -5 c -6.1,0 -11,4.9 -11,11 0,6.1 4.9,11 11,11 h 79.8 c 6.1,0 11,-4.9 11,-11 0.1,-6.1 -4.9,-11 -11,-11 z"
   id="path4" /><path
   class="st4"
   d="m 66,45.4 c 3.6,-2 8.5,-3.3 12.9,-3.3 14,0 25.4,11.4 25.4,25.4 0,1.1 -0.1,2.2 -0.2,3.3 h 1.5 c 6.1,0 11,4.9 11,11 0,6.1 -4.9,11 -11,11 H 63.1 c 0,0 -11.4,-7.4 -10.8,-21.5 C 53,54.4 62.8,47.7 62.8,47.7 Z"
   id="path5" />&#10;</svg>
