<?xml version="1.0" encoding="UTF-8" standalone="no"?>
<!-- Generator: Adobe Illustrator 22.1.0, SVG Export Plug-In . SVG Version: 6.00 Build 0)  -->

<svg
   version="1.1"
   id="Calque_12"
   x="0px"
   y="0px"
   viewBox="0 0 128 128"
   style="enable-background:new 0 0 128 128;"
   xml:space="preserve"
   sodipodi:docname="meteo_pluie.svg"
   inkscape:version="1.3 (0e150ed6c4, 2023-07-21)"
   xmlns:inkscape="http://www.inkscape.org/namespaces/inkscape"
   xmlns:sodipodi="http://sodipodi.sourceforge.net/DTD/sodipodi-0.dtd"
   xmlns="http://www.w3.org/2000/svg"
   xmlns:svg="http://www.w3.org/2000/svg"><defs
   id="defs19">&#10;	&#10;	&#10;	&#10;	&#10;	&#10;	&#10;	&#10;</defs><sodipodi:namedview
   id="namedview19"
   pagecolor="#737373"
   bordercolor="#666666"
   borderopacity="1.0"
   inkscape:showpageshadow="2"
   inkscape:pageopacity="0.0"
   inkscape:pagecheckerboard="true"
   inkscape:deskcolor="#666666"
   inkscape:zoom="6.5390625"
   inkscape:cx="63.923536"
   inkscape:cy="64"
   inkscape:window-width="1920"
   inkscape:window-height="1043"
   inkscape:window-x="0"
   inkscape:window-y="0"
   inkscape:window-maximized="1"
   inkscape:current-layer="Calque_12" />&#10;<style
   type="text/css"
   id="style1">&#10;	.st0{fill:#2A717E;}&#10;	.st1{fill:#FFFFFF;}&#10;	.st2{opacity:0.1;}&#10;	.st3{fill:none;stroke:#CCCCCC;stroke-width:3;stroke-linecap:round;stroke-linejoin:round;}&#10;	.st4{fill:none;stroke:#CCCCCC;stroke-width:3;stroke-linecap:round;stroke-linejoin:round;stroke-dasharray:6.0392,6.0392;}&#10;	.st5{fill:none;stroke:#CCCCCC;stroke-width:3;stroke-linecap:round;stroke-linejoin:round;stroke-dasharray:5.3404,5.3404;}&#10;	.st6{fill:none;stroke:#CCCCCC;stroke-width:3;stroke-linecap:round;stroke-linejoin:round;stroke-dasharray:5.8362,5.8362;}&#10;	.st7{fill:none;stroke:#CCCCCC;stroke-width:3;stroke-linecap:round;stroke-linejoin:round;stroke-dasharray:6.1283,6.1283;}&#10;	.st8{fill:none;stroke:#CCCCCC;stroke-width:3;stroke-linecap:round;stroke-linejoin:round;stroke-dasharray:6.5074,6.5074;}&#10;</style>&#10;<g
   id="g3">&#10;		<path
   class="st1"
   d="m 103.6,46.2 h -1.5 c 0.1,-1.1 0.2,-2.2 0.2,-3.3 0,-14 -11.4,-25.4 -25.4,-25.4 -11,0 -20.4,7.1 -23.9,16.9 -2.2,-1 -4.6,-1.5 -7.1,-1.5 -8.3,0 -15.2,5.7 -17.1,13.3 h -5 c -6.1,0 -11,4.9 -11,11 0,6.1 4.9,11 11,11 h 79.8 c 6.1,0 11,-4.9 11,-11 0,-6 -5,-11 -11,-11 z"
   id="path2" />&#10;		<path
   class="st2"
   d="m 64,20.9 c 3.6,-2 8.5,-3.3 12.9,-3.3 14,0 25.4,11.4 25.4,25.4 0,1.1 -0.1,2.2 -0.2,3.3 h 1.5 c 6.1,0 11,4.9 11,11 0,6.1 -4.9,11 -11,11 H 61.2 c 0,0 -11.4,-7.4 -10.8,-21.5 C 51.1,30 60.8,23.3 60.8,23.3 Z"
   id="path3" />&#10;	</g><g
   id="g6">&#10;		<g
   id="g5">&#10;			<line
   class="st3"
   x1="39.099998"
   y1="75.900002"
   x2="41.200001"
   y2="78"
   id="line3" />&#10;			<line
   class="st4"
   x1="45.5"
   y1="82.199997"
   x2="77.900002"
   y2="113.8"
   id="line4" />&#10;			<line
   class="st3"
   x1="80.099998"
   y1="115.9"
   x2="82.199997"
   y2="118"
   id="line5" />&#10;		</g>&#10;	</g><g
   id="g9">&#10;		<g
   id="g8">&#10;			<line
   class="st3"
   x1="51.900002"
   y1="75.900002"
   x2="54"
   y2="78"
   id="line6" />&#10;			<line
   class="st5"
   x1="57.799999"
   y1="81.800003"
   x2="86.099998"
   y2="110.1"
   id="line7" />&#10;			<line
   class="st3"
   x1="87.900002"
   y1="112"
   x2="90.099998"
   y2="114.1"
   id="line8" />&#10;		</g>&#10;	</g><g
   id="g12">&#10;		<g
   id="g11">&#10;			<line
   class="st3"
   x1="64.699997"
   y1="75.900002"
   x2="66.800003"
   y2="78"
   id="line9" />&#10;			<line
   class="st6"
   x1="70.900002"
   y1="82.099998"
   x2="93.699997"
   y2="104.7"
   id="line10" />&#10;			<line
   class="st3"
   x1="95.800003"
   y1="106.8"
   x2="97.900002"
   y2="108.9"
   id="line11" />&#10;		</g>&#10;	</g><g
   id="g15">&#10;		<g
   id="g14">&#10;			<line
   class="st3"
   x1="77.5"
   y1="75.900002"
   x2="79.599998"
   y2="78"
   id="line12" />&#10;			<line
   class="st7"
   x1="84"
   y1="82.199997"
   x2="99.400002"
   y2="97.099998"
   id="line13" />&#10;			<line
   class="st3"
   x1="101.6"
   y1="99.300003"
   x2="103.8"
   y2="101.4"
   id="line14" />&#10;		</g>&#10;	</g><g
   id="g18">&#10;		<g
   id="g17">&#10;			<line
   class="st3"
   x1="90"
   y1="75.900002"
   x2="92.199997"
   y2="78"
   id="line15" />&#10;			<line
   class="st8"
   x1="96.800003"
   y1="82.599998"
   x2="103.7"
   y2="89.400002"
   id="line16" />&#10;			<line
   class="st3"
   x1="106"
   y1="91.699997"
   x2="108.2"
   y2="93.800003"
   id="line17" />&#10;		</g>&#10;	</g>&#10;</svg>
