<?xml version="1.0" encoding="utf-8"?>
<!-- Generator: Adobe Illustrator 22.1.0, SVG Export Plug-In . SVG Version: 6.00 Build 0)  -->
<svg version="1.1" id="Calque_12" xmlns="http://www.w3.org/2000/svg" xmlns:xlink="http://www.w3.org/1999/xlink" x="0px" y="0px"
	 viewBox="0 0 128 128" style="enable-background:new 0 0 128 128;" xml:space="preserve">
<style type="text/css">
	.st0{fill:#2E6480;}
	.st1{fill:url(#SVGID_1_);}
	.st2{fill:url(#SVGID_2_);}
	.st3{fill:url(#SVGID_3_);}
	.st4{fill:url(#SVGID_4_);}
	.st5{fill:url(#SVGID_5_);}
	.st6{fill:url(#SVGID_6_);}
	.st7{fill:url(#SVGID_7_);}
</style>
<g>
	<path class="st0" d="M128,64c0,35.3-28.7,64-64,64C28.7,128,0,99.3,0,64C0,28.7,28.7,0,64,0C99.3,0,128,28.7,128,64z"/>
	<g>
		<g>
			<g>
				<linearGradient id="SVGID_1_" gradientUnits="userSpaceOnUse" x1="39.8544" y1="59.943" x2="25.4762" y2="82.801">
					<stop  offset="0" style="stop-color:#9CF2FF"/>
					<stop  offset="0.4019" style="stop-color:#9AF0FF"/>
					<stop  offset="0.6274" style="stop-color:#91E8FF"/>
					<stop  offset="0.8092" style="stop-color:#84DBFF"/>
					<stop  offset="0.9669" style="stop-color:#70C9FF"/>
					<stop  offset="1" style="stop-color:#6BC4FF"/>
				</linearGradient>
				<path class="st1" d="M39.2,88.9c14.5-0.7,13.3-18.7,5.5-26.3c-6.9-6.7-18.6-9.8-30.2-0.2c27-15.8,37.7,17,27.9,20.3
					c-9.2,3.2-12.3-7.4-6.1-12.3c-0.3,0.1-0.5,0.2-0.8,0.3C26.4,77.3,31.7,89.2,39.2,88.9z"/>
				<linearGradient id="SVGID_2_" gradientUnits="userSpaceOnUse" x1="15.972" y1="43.4393" x2="49.955" y2="91.207">
					<stop  offset="0" style="stop-color:#99E8FF"/>
					<stop  offset="0.2786" style="stop-color:#96E6FF"/>
					<stop  offset="0.4778" style="stop-color:#8DE0FF"/>
					<stop  offset="0.6522" style="stop-color:#7DD5FF"/>
					<stop  offset="0.8123" style="stop-color:#67C6FF"/>
					<stop  offset="0.9614" style="stop-color:#4BB3FF"/>
					<stop  offset="1" style="stop-color:#42ADFF"/>
				</linearGradient>
				<path class="st2" d="M53,69.3C48,55.5,27.7,47.3,14.2,62.6c0.1-0.1,0.3-0.2,0.4-0.2c11.5-9.6,23.3-6.5,30.2,0.2
					c7.8,7.6,9,25.6-5.5,26.3c-7.6,0.4-12.9-11.6-3.6-18.2c-12.7,4.3-12,16.3-3.2,21C48.2,100.1,58.3,83.4,53,69.3z"/>
			</g>
			<g>
				<linearGradient id="SVGID_3_" gradientUnits="userSpaceOnUse" x1="59.2601" y1="45.7908" x2="96.1653" y2="97.6662">
					<stop  offset="0" style="stop-color:#99E8FF"/>
					<stop  offset="0.2786" style="stop-color:#96E6FF"/>
					<stop  offset="0.4778" style="stop-color:#8DE0FF"/>
					<stop  offset="0.6522" style="stop-color:#7DD5FF"/>
					<stop  offset="0.8123" style="stop-color:#67C6FF"/>
					<stop  offset="0.9614" style="stop-color:#4BB3FF"/>
					<stop  offset="1" style="stop-color:#42ADFF"/>
				</linearGradient>
				<path class="st3" d="M77.2,90.3c-11-4.6-17.8-17.5-20.2-22.6c-0.2-0.5-0.5-0.9-0.7-1.4c7.8,32.3,45.8,42.7,49.8,15.1
					C100,92.6,89.1,95.3,77.2,90.3z"/>
				<linearGradient id="SVGID_4_" gradientUnits="userSpaceOnUse" x1="57.9603" y1="72.1032" x2="100.7883" y2="89.4089">
					<stop  offset="0" style="stop-color:#9CF2FF"/>
					<stop  offset="0.4019" style="stop-color:#9AF0FF"/>
					<stop  offset="0.6274" style="stop-color:#91E8FF"/>
					<stop  offset="0.8092" style="stop-color:#84DBFF"/>
					<stop  offset="0.9669" style="stop-color:#70C9FF"/>
					<stop  offset="1" style="stop-color:#6BC4FF"/>
				</linearGradient>
				<path class="st4" d="M77.2,90.3c11.9,5,22.8,2.3,29-8.9c0-0.1,0-0.1,0-0.2C95.3,94.6,66.6,86.1,57,67.7
					C59.4,72.8,66.2,85.7,77.2,90.3z"/>
			</g>
			<g>
				<linearGradient id="SVGID_5_" gradientUnits="userSpaceOnUse" x1="11.2723" y1="45.0436" x2="99.496" y2="65.884">
					<stop  offset="0" style="stop-color:#9CF2FF"/>
					<stop  offset="0.4019" style="stop-color:#9AF0FF"/>
					<stop  offset="0.6274" style="stop-color:#91E8FF"/>
					<stop  offset="0.8092" style="stop-color:#84DBFF"/>
					<stop  offset="0.9669" style="stop-color:#70C9FF"/>
					<stop  offset="1" style="stop-color:#6BC4FF"/>
				</linearGradient>
				<path class="st5" d="M34,48.6c16,0.3,28.3,14.6,42.7,23.3c14.8,8.9,28.3,1,29.2-9c0.9-9.7-8.6-17-17.2-17.4
					c-0.1,0-0.1,0-0.2,0.1C102,48.9,98.9,63.2,93,67c-17,11.1-54.9-49.8-80.9-3.7c0.3-0.4,0.7-0.8,1-1.2C16,57.7,23.2,48.4,34,48.6z
					"/>
				<linearGradient id="SVGID_6_" gradientUnits="userSpaceOnUse" x1="32.12" y1="17.2022" x2="85.6414" y2="92.4338">
					<stop  offset="0" style="stop-color:#99E8FF"/>
					<stop  offset="0.2786" style="stop-color:#96E6FF"/>
					<stop  offset="0.4778" style="stop-color:#8DE0FF"/>
					<stop  offset="0.6522" style="stop-color:#7DD5FF"/>
					<stop  offset="0.8123" style="stop-color:#67C6FF"/>
					<stop  offset="0.9614" style="stop-color:#4BB3FF"/>
					<stop  offset="1" style="stop-color:#42ADFF"/>
				</linearGradient>
				<path class="st6" d="M88.7,45.5c8.6,0.5,18.1,7.7,17.2,17.4c-0.9,10-14.3,17.9-29.2,9c-14.4-8.7-26.7-23-42.7-23.3
					c-10.8-0.2-18.1,9-20.9,13.5c9-10.5,17-13.2,26.4-9.9c18.1,6.3,31.3,31.1,52.3,29.4C123.3,79.1,112.6,38.1,88.7,45.5z"/>
			</g>
		</g>
		<linearGradient id="SVGID_7_" gradientUnits="userSpaceOnUse" x1="23.3111" y1="41.62" x2="90.6305" y2="57.5223">
			<stop  offset="0" style="stop-color:#9CF2FF"/>
			<stop  offset="0.4019" style="stop-color:#9AF0FF"/>
			<stop  offset="0.6274" style="stop-color:#91E8FF"/>
			<stop  offset="0.8092" style="stop-color:#84DBFF"/>
			<stop  offset="0.9669" style="stop-color:#70C9FF"/>
			<stop  offset="1" style="stop-color:#6BC4FF"/>
		</linearGradient>
		<path class="st7" d="M26.5,44.8c25.2-15.4,47.8,27.8,65.4,17.7c6.3-3.6,3.2-15.7-8.3-11.3c6.3,0,6,5.1,2.1,6.6
			C77.2,61.1,49.4,25,26.5,44.8z"/>
	</g>
</g>
</svg>
