<?xml version="1.0" encoding="UTF-8" standalone="no"?>
<!-- Generator: Adobe Illustrator 22.1.0, SVG Export Plug-In . SVG Version: 6.00 Build 0)  -->

<svg
   version="1.1"
   id="Calque_12"
   x="0px"
   y="0px"
   viewBox="0 0 128 128"
   style="enable-background:new 0 0 128 128;"
   xml:space="preserve"
   sodipodi:docname="meteo_soleil.svg"
   inkscape:version="1.3 (0e150ed6c4, 2023-07-21)"
   xmlns:inkscape="http://www.inkscape.org/namespaces/inkscape"
   xmlns:sodipodi="http://sodipodi.sourceforge.net/DTD/sodipodi-0.dtd"
   xmlns="http://www.w3.org/2000/svg"
   xmlns:svg="http://www.w3.org/2000/svg"><defs
   id="defs4">&#10;	&#10;	&#10;</defs><sodipodi:namedview
   id="namedview4"
   pagecolor="#ffffff"
   bordercolor="#666666"
   borderopacity="1.0"
   inkscape:showpageshadow="2"
   inkscape:pageopacity="0.0"
   inkscape:pagecheckerboard="0"
   inkscape:deskcolor="#d1d1d1"
   inkscape:zoom="6.5390625"
   inkscape:cx="63.923536"
   inkscape:cy="64"
   inkscape:window-width="1920"
   inkscape:window-height="1043"
   inkscape:window-x="0"
   inkscape:window-y="0"
   inkscape:window-maximized="1"
   inkscape:current-layer="Calque_12" />&#10;<style
   type="text/css"
   id="style1">&#10;	.st0{fill:#50A1AD;}&#10;	.st1{fill:#FED766;}&#10;	.st2{fill:#FBB03B;}&#10;</style>&#10;<g
   id="g3">&#10;		<path
   class="st1"
   d="M 90.6,72.4 C 91.8,68.6 103,65 106.1,64 103,63.1 91.8,59.4 90.6,55.6 89.1,51.2 98.7,39 98.7,39 c 0,0 -14.6,5.4 -18.3,2.6 -3.7,-2.7 -3.1,-18.2 -3.1,-18.2 0,0 -8.7,12.9 -13.3,12.9 -4.6,0 -13.3,-12.9 -13.3,-12.9 0,0 0.6,15.5 -3.1,18.2 C 43.9,44.4 29.3,39 29.3,39 c 0,0 9.6,12.2 8.2,16.6 -1.3,3.8 -12.5,7.5 -15.6,8.4 3.1,0.9 14.3,4.6 15.5,8.4 1.4,4.4 -8.2,16.6 -8.2,16.6 0,0 14.6,-5.4 18.3,-2.6 3.7,2.7 3.1,18.2 3.1,18.2 0,0 8.8,-12.9 13.4,-12.9 4.6,0 13.3,12.9 13.3,12.9 0,0 -0.6,-15.5 3.1,-18.2 3.7,-2.7 18.3,2.6 18.3,2.6 0,0 -9.6,-12.2 -8.1,-16.6 z"
   id="path2" />&#10;		<path
   class="st2"
   d="M 64,52.3 C 57.5,52.3 52.2,57.5 52.1,64 52.2,70.5 57.4,75.7 64,75.7 70.5,75.7 75.8,70.5 75.9,64 75.8,57.5 70.5,52.3 64,52.3 Z"
   id="path3" />&#10;	</g>&#10;</svg>
