<?xml version="1.0" encoding="UTF-8" standalone="no"?>
<!-- Created with Inkscape (http://www.inkscape.org/) -->

<svg
   id="svg2"
   sodipodi:docname="phmetre_piscine.svg"
   viewBox="0 0 130.38568 66.365759"
   sodipodi:version="0.32"
   version="1.0"
   inkscape:output_extension="org.inkscape.output.svg.inkscape"
   inkscape:version="1.3.2 (091e20ef0f, 2023-11-25)"
   width="130.38568"
   height="66.365761"
   xmlns:inkscape="http://www.inkscape.org/namespaces/inkscape"
   xmlns:sodipodi="http://sodipodi.sourceforge.net/DTD/sodipodi-0.dtd"
   xmlns="http://www.w3.org/2000/svg"
   xmlns:svg="http://www.w3.org/2000/svg"
   xmlns:rdf="http://www.w3.org/1999/02/22-rdf-syntax-ns#"
   xmlns:cc="http://creativecommons.org/ns#"
   xmlns:dc="http://purl.org/dc/elements/1.1/">
  <defs
     id="defs4">
    <rect
       x="33.239849"
       y="88.698265"
       width="41.157925"
       height="21.452679"
       id="rect73" />
    <rect
       x="40.948975"
       y="95.312302"
       width="63.081909"
       height="28.291885"
       id="rect53" />
    <inkscape:path-effect
       effect="ruler"
       id="path-effect52"
       is_visible="true"
       lpeversion="1"
       unit="px"
       mark_distance="10.2"
       mark_length="9"
       minor_mark_length="5"
       major_mark_steps="5"
       shift="0"
       offset="0"
       mark_dir="right"
       border_marks="both" />
    <rect
       x="6.4782104"
       y="95.92662"
       width="20.252182"
       height="17.2659"
       id="rect52" />
    <rect
       x="54.766006"
       y="89.834503"
       width="25.920746"
       height="16.294449"
       id="rect51" />
    <rect
       x="32.442719"
       y="97.522598"
       width="27.502335"
       height="14.787247"
       id="rect47" />
    <rect
       x="15.13797"
       y="82.358521"
       width="23.33432"
       height="18.812759"
       id="rect46" />
    <rect
       x="49.879555"
       y="30.742443"
       width="19.214064"
       height="15.771299"
       id="rect44" />
  </defs>
  <sodipodi:namedview
     id="base"
     bordercolor="#2b2b2b"
     inkscape:pageshadow="2"
     guidetolerance="10"
     pagecolor="#545454"
     gridtolerance="10000"
     inkscape:window-height="1043"
     inkscape:zoom="5.6568543"
     objecttolerance="10"
     showgrid="false"
     borderopacity="1"
     inkscape:current-layer="layer1"
     inkscape:cx="65.318989"
     inkscape:cy="45.873552"
     inkscape:window-y="0"
     inkscape:window-x="0"
     inkscape:window-width="1920"
     inkscape:pageopacity="0.0"
     inkscape:document-units="px"
     inkscape:showpageshadow="2"
     inkscape:pagecheckerboard="true"
     inkscape:deskcolor="#d1d1d1"
     inkscape:window-maximized="1" />
  <g
     id="layer1"
     inkscape:label="Layer 1"
     inkscape:groupmode="layer"
     transform="translate(0.20904541,-5.753418)">
    <path
       style="display:inline;fill:#ffffff;fill-opacity:1;stroke:#000000;stroke-width:1.62624"
       id="path1"
       sodipodi:type="arc"
       sodipodi:cx="64.57132"
       sodipodi:cy="71.362724"
       sodipodi:rx="59.293182"
       sodipodi:ry="60.374599"
       sodipodi:start="3.1413207"
       sodipodi:end="6.2822951"
       sodipodi:open="true"
       sodipodi:arc-type="arc"
       d="M 5.2781394,71.379143 A 59.293182,60.374599 0 0 1 64.536865,10.988135 59.293182,60.374599 0 0 1 123.86448,71.308978" />
    <text
       xml:space="preserve"
       id="text46"
       style="font-style:normal;font-weight:normal;font-size:10.6667px;line-height:1.25;font-family:sans-serif;letter-spacing:0px;word-spacing:0px;white-space:pre;shape-inside:url(#rect46);display:inline;fill:#000000;fill-opacity:1;stroke:none"
       transform="translate(11.330939,-51.602115)"><tspan
         x="15.138672"
         y="92.064741"
         id="tspan1">7,2</tspan></text>
    <text
       xml:space="preserve"
       id="text47"
       style="font-style:normal;font-weight:normal;font-size:10.6667px;line-height:1.25;font-family:sans-serif;letter-spacing:0px;word-spacing:0px;white-space:pre;shape-inside:url(#rect47);display:inline;fill:#000000;fill-opacity:1;stroke:none"
       transform="translate(56.560303,-66.798178)"><tspan
         x="32.443359"
         y="107.2288"
         id="tspan2">7,4</tspan></text>
    <text
       xml:space="preserve"
       id="text51"
       style="font-style:normal;font-weight:normal;font-size:10.6667px;line-height:1.25;font-family:sans-serif;letter-spacing:0px;word-spacing:0px;white-space:pre;shape-inside:url(#rect51);display:inline;fill:#000000;fill-opacity:1;stroke:none"
       transform="translate(-42.727882,-29.598175)"><tspan
         x="54.765625"
         y="99.53935"
         id="tspan3">7,1</tspan></text>
    <text
       xml:space="preserve"
       id="text52"
       style="font-style:normal;font-weight:normal;font-size:10.6667px;line-height:1.25;font-family:sans-serif;letter-spacing:0px;word-spacing:0px;white-space:pre;shape-inside:url(#rect52);display:inline;fill:#000000;fill-opacity:1;stroke:none"
       transform="translate(50.573845,-81.554229)"><tspan
         x="6.4785156"
         y="105.63115"
         id="tspan4">7,3</tspan></text>
    <path
       style="fill:none;fill-opacity:1;stroke:#000000;stroke-width:1;stroke-dasharray:none;stroke-opacity:1"
       id="path52"
       sodipodi:type="arc"
       sodipodi:cx="64.983795"
       sodipodi:cy="70.946259"
       sodipodi:rx="64.692841"
       sodipodi:ry="64.692841"
       sodipodi:start="3.1415927"
       sodipodi:end="6.2831853"
       sodipodi:open="true"
       sodipodi:arc-type="arc"
       d="M 0.29095459,70.946259 C 0.29095459,53.78865 7.1067879,37.333773 19.239049,25.201512 31.37131,13.069251 47.826187,6.253418 64.983795,6.253418 c 17.157608,0 33.612485,6.815833 45.744745,18.948094 12.13226,12.132261 18.9481,28.587138 18.9481,45.744747 m -129.38568541,0 H 9.2909546 M 1.0933977,60.788467 6.0313782,61.573545 M 3.4808202,50.882667 8.2342809,52.433348 M 7.3939954,41.474601 11.845013,43.752416 m 0.890833,-10.954754 4.038156,2.94844 m 2.599851,-10.678998 6.345207,6.38266 m 1.424281,-12.975057 2.924625,4.055438 m 5.783602,-9.346131 2.25158,4.464346 M 45.2825,9.3262731 46.80518,14.088777 m 8.396998,-7.0915888 0.756005,4.9425148 m 9.406334,-5.6851647 -0.05297,8.9998437 M 75.51741,7.1167467 74.703285,12.050022 M 85.408988,9.5624241 83.830359,14.306677 m 10.963503,-0.775778 -2.30397,4.437536 m 10.949318,0.955286 -2.97215,4.020734 m 10.66351,2.662653 -6.41989,6.307535 m 12.96645,1.500615 -4.07258,2.900708 m 9.31193,5.838504 -4.47751,2.225269 m 8.27969,7.228203 -4.77139,1.494626 m 7.04205,8.438587 -4.94688,0.726905 m 5.6342,8.678199 h -9"
       inkscape:path-effect="#path-effect52" />
    <text
       xml:space="preserve"
       id="text53"
       style="font-style:normal;font-weight:normal;font-size:10.6667px;line-height:1.25;font-family:sans-serif;letter-spacing:0px;word-spacing:0px;white-space:pre;shape-inside:url(#rect53);display:inline;fill:#000000;fill-opacity:1;stroke:none"
       transform="translate(63.244827,-34.496643)"><tspan
         x="40.949219"
         y="105.01787"
         id="tspan5">7,5</tspan></text>
    <path
       style="fill:none;fill-opacity:1;stroke:#000000;stroke-width:0.926611;stroke-dasharray:none;stroke-opacity:1"
       id="path53"
       sodipodi:type="arc"
       sodipodi:cx="64.860992"
       sodipodi:cy="70.446335"
       sodipodi:rx="59.699196"
       sodipodi:ry="59.699196"
       sodipodi:start="3.1415927"
       sodipodi:end="0"
       sodipodi:arc-type="arc"
       d="M 5.1617966,70.446335 A 59.699196,59.699196 0 0 1 64.860992,10.747139 59.699196,59.699196 0 0 1 124.56019,70.446335"
       sodipodi:open="true" />
    <path
       style="fill:#ff0000;fill-opacity:1;stroke:#000000;stroke-width:0.015625;stroke-dasharray:none;stroke-opacity:1"
       d="m 0.80483935,70.128906 c 8.351e-5,-0.174023 0.00701,-0.5625 0.0153927,-0.863281 0.0697061,-2.501208 0.26333235,-4.825006 0.60513825,-7.26254 0.085641,-0.610738 0.090731,-0.637232 0.1210772,-0.630231 0.017423,0.004 0.8672486,0.13974 1.8885023,0.301602 l 1.8568247,0.294294 -0.00863,0.05469 c -0.049714,0.31517 -0.2009019,1.553468 -0.2661255,2.179688 -0.1993826,1.914296 -0.3213081,4.107408 -0.3216242,5.785156 l -8.61e-5,0.457031 H 2.75 0.8046875 Z"
       id="path54" />
    <path
       style="fill:#ff0000;fill-opacity:1;stroke:#000000;stroke-width:0.03125;stroke-dasharray:none;stroke-opacity:1"
       d="m 3.5226927,60.656929 c -0.984394,-0.158745 -1.7989775,-0.297797 -1.8101855,-0.309005 -0.022809,-0.02281 0.060593,-0.532693 0.2434844,-1.488549 0.3517221,-1.838229 0.7922753,-3.688869 1.3130193,-5.515625 0.2044735,-0.717288 0.5261696,-1.77351 0.5465154,-1.79437 0.00704,-0.0072 0.8078638,0.245909 1.7796131,0.5625 1.3913984,0.453311 1.7639162,0.58558 1.7531662,0.622495 -0.00751,0.02578 -0.1190831,0.405469 -0.2479456,0.84375 -0.6508591,2.213671 -1.2432138,4.798503 -1.5880466,6.929687 -0.065888,0.40721 -0.077519,0.444989 -0.1359331,0.441529 -0.035134,-0.0021 -0.8692936,-0.133667 -1.8536876,-0.292412 z"
       id="path55" />
    <path
       style="fill:#ff0000;fill-opacity:1;stroke:#000000;stroke-width:0.176777;stroke-dasharray:none;stroke-opacity:1"
       d="m 125.01221,67.838057 c -0.061,-1.434101 -0.16289,-3.168505 -0.22633,-3.85423 l -0.11536,-1.246774 1.58955,-0.211634 c 2.52099,-0.335647 2.25902,-0.550699 2.48781,2.042269 0.10937,1.239646 0.24989,3.069285 0.31225,4.065864 l 0.11338,1.811961 h -2.02516 -2.02516 z"
       id="path56" />
    <path
       style="fill:#ff0000;fill-opacity:1;stroke:#000000;stroke-width:0.176777;stroke-dasharray:none;stroke-opacity:1"
       d="m 124.21632,60.14827 c -0.12328,-0.802124 -0.5038,-2.602906 -0.84562,-4.001737 -0.34181,-1.398831 -0.55682,-2.595817 -0.4778,-2.659968 0.33671,-0.273341 3.28655,-1.093708 3.42715,-0.953107 0.34706,0.347056 2.12893,8.227549 1.90988,8.4466 -0.0635,0.06348 -3.42364,0.62662 -3.73895,0.62662 -0.0278,0 -0.15138,-0.656283 -0.27466,-1.458408 z"
       id="path57" />
    <path
       style="fill:#ff6600;fill-opacity:1;stroke:#000000;stroke-width:0.176777;stroke-dasharray:none;stroke-opacity:1"
       d="m 121.7269,50.513609 c -0.33142,-0.947783 -0.99963,-2.659279 -1.48491,-3.803324 -0.48529,-1.144046 -0.85053,-2.10928 -0.81164,-2.144966 0.16464,-0.151099 2.99382,-1.520194 3.14141,-1.520194 0.36711,0 3.52233,7.892555 3.25554,8.143487 -0.16181,0.152193 -2.97239,1.04906 -3.28598,1.04857 -0.11652,-1.82e-4 -0.48301,-0.77579 -0.81442,-1.723573 z"
       id="path58" />
    <path
       style="fill:#ff6600;fill-opacity:1;stroke:#000000;stroke-width:0.176777;stroke-dasharray:none;stroke-opacity:1"
       d="M 5.7894368,51.04969 C 4.9723455,50.791286 4.331029,50.489934 4.331029,50.364391 c 0,-0.600636 3.0782294,-8.026373 3.3272141,-8.026373 0.1020443,0 2.8704899,1.398413 3.0192669,1.525109 0.039,0.03321 -0.289337,0.837229 -0.7296361,1.786706 C 9.5075743,46.59931 8.8064153,48.310861 8.3897427,49.45328 7.9730702,50.5957 7.545686,51.52602 7.4400004,51.520659 7.3343146,51.515297 6.591561,51.303361 5.7894368,51.04969 Z"
       id="path59" />
    <path
       style="fill:#ff6600;fill-opacity:1;stroke:#000000;stroke-width:0.176777;stroke-dasharray:none;stroke-opacity:1"
       d="M 9.7585712,42.046601 C 8.912421,41.62142 8.2201163,41.240587 8.2201163,41.200306 c 0,-0.207212 2.3303677,-4.135364 3.3922107,-5.718032 0.786718,-1.172597 1.295137,-1.774476 1.432697,-1.696064 0.117275,0.06685 0.745298,0.510819 1.395607,0.986598 l 1.182378,0.865055 -1.161043,1.789164 c -0.638574,0.98404 -1.61192,2.599944 -2.162992,3.590898 l -1.001948,1.801734 z"
       id="path60" />
    <path
       style="fill:#ff6600;fill-opacity:1;stroke:#000000;stroke-width:0.176777;stroke-dasharray:none;stroke-opacity:1"
       d="m 118.70555,43.437644 c 0,-0.229613 -2.10344,-3.933527 -3.11896,-5.492133 -0.66192,-1.015894 -0.90807,-1.540081 -0.79,-1.682347 0.0943,-0.11366 0.75711,-0.615518 1.47284,-1.115239 l 1.30132,-0.908584 1.16768,1.795436 c 1.09079,1.677216 3.32588,5.556928 3.32588,5.773142 0,0.05322 -0.75572,0.472158 -1.67938,0.930984 -0.92366,0.458826 -1.67938,0.77326 -1.67938,0.698741 z"
       id="path61" />
    <path
       style="fill:#ff6600;fill-opacity:1;stroke:#000000;stroke-width:0.176777;stroke-dasharray:none;stroke-opacity:1"
       d="m 113.70259,35.206492 c -0.12173,-0.317232 -2.64476,-3.468414 -3.98146,-4.972714 -0.60234,-0.67786 -1.07453,-1.280996 -1.04931,-1.3403 0.0252,-0.05931 0.5938,-0.617907 1.26353,-1.241338 l 1.21768,-1.133511 1.36386,1.454625 c 2.17033,2.314768 4.3144,5.139847 4.09839,5.400133 -0.10048,0.121067 -0.77698,0.635055 -1.50333,1.142197 -0.91639,0.639818 -1.3478,0.851312 -1.40936,0.690908 z"
       id="path62" />
    <path
       style="fill:#ff6600;fill-opacity:1;stroke:#000000;stroke-width:0.176777;stroke-dasharray:none;stroke-opacity:1"
       d="m 14.813829,33.602073 -1.272851,-0.943407 1.501476,-1.874178 c 0.825812,-1.030798 2.146647,-2.555757 2.93519,-3.388798 l 1.433714,-1.51462 0.607158,0.582882 c 0.333937,0.320585 0.843935,0.87925 1.133329,1.241478 l 0.52617,0.658595 -1.521189,1.708563 c -0.836654,0.939709 -2.015155,2.333599 -2.618891,3.097533 -0.603737,0.763934 -1.177252,1.385909 -1.274479,1.382165 -0.09723,-0.0037 -0.74956,-0.431339 -1.449627,-0.950213 z"
       id="path63" />
    <path
       style="fill:#008000;fill-opacity:1;stroke:#000000;stroke-width:0.176777;stroke-dasharray:none;stroke-opacity:1"
       d="m 21.405762,26.267243 -1.187797,-1.196969 1.381503,-1.291358 c 1.555165,-1.453689 5.10942,-4.33348 5.348407,-4.33348 0.184643,0 1.97757,2.419157 1.911786,2.579531 -0.02478,0.06042 -0.761005,0.682166 -1.63605,1.38166 -0.875045,0.699494 -2.274779,1.898606 -3.110522,2.664695 l -1.519532,1.392889 z"
       id="path64" />
    <path
       style="fill:#008000;fill-opacity:1;stroke:#000000;stroke-width:0.176777;stroke-dasharray:none;stroke-opacity:1"
       d="m 28.929346,19.959874 c -0.898355,-1.26622 -0.929465,-1.346123 -0.618719,-1.589141 0.971521,-0.759774 6.898009,-4.316986 7.19231,-4.316986 0.125223,0 1.587665,2.83842 1.498757,2.908903 -0.03045,0.02414 -0.930409,0.544416 -1.999908,1.156171 -1.069499,0.611754 -2.637551,1.578141 -3.484559,2.147525 -0.847008,0.569385 -1.562954,1.033342 -1.59099,1.031016 -0.02804,-0.0023 -0.476638,-0.604196 -0.996891,-1.337488 z"
       id="path65" />
    <path
       style="fill:#008000;fill-opacity:1;stroke:#000000;stroke-width:0.176777;stroke-dasharray:none;stroke-opacity:1"
       d="m 37.379074,14.919338 c -0.396138,-0.787878 -0.691493,-1.461263 -0.656345,-1.496412 0.179203,-0.179203 3.183302,-1.476284 5.516319,-2.381783 l 2.641068,-1.025062 0.510109,1.592963 c 0.280561,0.87613 0.484196,1.611676 0.452524,1.634547 -0.03167,0.02287 -0.693981,0.266551 -1.471799,0.541511 -0.777817,0.274959 -2.482026,0.96496 -3.78713,1.533334 -1.305105,0.568375 -2.398023,1.033408 -2.428707,1.033408 -0.03068,0 -0.379902,-0.644627 -0.776039,-1.432506 z"
       id="path66" />
    <path
       style="fill:#008000;fill-opacity:1;stroke:#000000;stroke-width:0.176777;stroke-dasharray:none;stroke-opacity:1"
       d="m 90.422513,15.888403 c -0.92298,-0.435867 -2.513971,-1.119935 -3.535534,-1.520151 -1.021564,-0.400216 -1.916964,-0.777806 -1.989777,-0.839089 -0.132099,-0.11118 0.67921,-2.79206 0.928507,-3.068154 0.205063,-0.227104 7.476148,2.766448 8.105222,3.336971 0.124581,0.112986 -1.461406,2.907091 -1.64335,2.895164 -0.102808,-0.0067 -0.942088,-0.368873 -1.865068,-0.804741 z"
       id="path67" />
    <path
       style="fill:#008000;fill-opacity:1;stroke:#000000;stroke-width:0.176777;stroke-dasharray:none;stroke-opacity:1"
       d="M 99.171726,20.920453 C 98.491135,20.430456 96.920359,19.427018 95.681112,18.69059 l -2.253176,-1.338959 0.727328,-1.339583 c 0.40003,-0.73677 0.792884,-1.410588 0.87301,-1.497373 0.17123,-0.185462 3.173106,1.525588 5.780426,3.294805 l 1.81375,1.230735 -0.54577,0.732941 c -0.30017,0.403117 -0.75839,1.029553 -1.01825,1.392079 -0.25987,0.362526 -0.51227,0.656209 -0.56088,0.65263 -0.0486,-0.0036 -0.645234,-0.407415 -1.325824,-0.897412 z"
       id="path68" />
    <path
       style="fill:#008000;fill-opacity:1;stroke:#000000;stroke-width:0.176777;stroke-dasharray:none;stroke-opacity:1"
       d="m 106.33118,26.744713 c -0.7292,-0.692751 -2.04177,-1.852306 -2.91681,-2.576788 -0.87505,-0.724482 -1.66191,-1.382706 -1.74858,-1.462719 -0.089,-0.08212 0.287,-0.762963 0.86323,-1.563275 l 1.02082,-1.417796 1.05958,0.832453 c 1.29605,1.018236 2.63105,2.178381 4.35831,3.787477 l 1.31072,1.221053 -1.21759,1.226994 c -0.66968,0.674847 -1.2595,1.223654 -1.31072,1.219571 -0.0512,-0.0041 -0.68975,-0.574219 -1.41896,-1.26697 z"
       id="path69" />
    <path
       style="fill:#00ff00;fill-opacity:1;stroke:#000000;stroke-width:0.176777;stroke-dasharray:none;stroke-opacity:1"
       d="m 46.513199,11.299754 c -0.271638,-0.834105 -0.465241,-1.5452015 -0.43023,-1.5802132 0.299222,-0.2992221 8.374302,-2.16702 8.561104,-1.9802173 0.08242,0.082424 0.609019,3.1907235 0.547015,3.2288305 -0.02022,0.01243 -0.633381,0.123392 -1.362584,0.246594 -0.729204,0.123202 -2.550937,0.533954 -4.048296,0.912783 -1.497359,0.378828 -2.733868,0.688779 -2.747796,0.688779 -0.01393,0 -0.247575,-0.68245 -0.519213,-1.516556 z"
       id="path70" />
    <path
       style="fill:#00ff00;fill-opacity:1;stroke:#000000;stroke-width:0.176777;stroke-dasharray:none;stroke-opacity:1"
       d="M 56.127537,9.2176126 C 55.960438,7.9948479 55.959846,7.6160697 56.124872,7.5140781 56.380785,7.3559147 59.647529,7.0335362 62.623144,6.8727964 l 2.165515,-0.1169791 v 1.6863116 1.6863121 l -2.425471,0.129906 c -1.334008,0.07145 -3.234413,0.220299 -4.223122,0.330777 l -1.797653,0.20087 z"
       id="path71" />
    <path
       style="fill:#00ff00;fill-opacity:1;stroke:#000000;stroke-width:0.176777;stroke-dasharray:none;stroke-opacity:1"
       d="m 71.15262,10.584972 c -1.21534,-0.12922 -2.916344,-0.284675 -3.780009,-0.345456 l -1.570299,-0.11051 0.09014,-1.5808713 c 0.04958,-0.8694794 0.131719,-1.6224537 0.182542,-1.6732763 0.114807,-0.114807 4.855475,0.2113092 7.12352,0.4900355 1.67488,0.2058305 1.681283,0.2085023 1.589987,0.6635251 -0.05042,0.2512743 -0.181333,0.9938216 -0.290928,1.650105 -0.23068,1.381368 0.15043,1.278091 -3.34495,0.906448 z"
       id="path72" />
    <path
       style="fill:#00ff00;fill-opacity:1;stroke:#000000;stroke-width:0.176777;stroke-dasharray:none;stroke-opacity:1"
       d="M 82.024386,12.698155 C 81.246569,12.458445 79.4734,12.003515 78.08401,11.6872 c -1.38939,-0.316315 -2.53282,-0.649077 -2.540957,-0.73947 -0.0081,-0.09039 0.08285,-0.820635 0.202182,-1.6227594 0.171173,-1.1505456 0.278414,-1.457823 0.508024,-1.455638 1.136072,0.010811 8.334389,1.8935998 8.334389,2.1799394 0,0.316108 -0.952016,3.121476 -1.052902,3.102656 -0.05288,-0.0099 -0.732542,-0.214062 -1.51036,-0.453773 z"
       id="path73" />
    <text
       xml:space="preserve"
       id="text73"
       style="font-style:normal;font-weight:normal;font-size:8px;line-height:1.25;font-family:sans-serif;letter-spacing:0px;word-spacing:0px;white-space:pre;shape-inside:url(#rect73);display:inline;fill:#000000;fill-opacity:1;stroke:none"
       transform="matrix(1.8375894,0,0,1.8375894,-5.9843348,-126.18411)"><tspan
         x="33.240234"
         y="95.97822"
         id="tspan6">PH</tspan></text>
  </g>
  <g
     inkscape:groupmode="layer"
     id="layer2"
     inkscape:label="Layer 2"
     style="display:inline"
     transform="translate(0.20904541,-5.753418)">
    <path
       id="path5908"
       inkscape:transform-center-x="17.260593"
       style="fill:#aa0000;stroke-width:0"
       inkscape:transform-center-y="0.32681876"
       d="m 70.905996,56.149578 c -1.988368,-1.924183 -4.839511,-2.900692 -7.765677,-2.367444 -3.873084,0.693698 -6.671067,3.81913 -7.180852,7.524126 l -20.313216,5.006534 -13.022834,3.777234 13.541169,-0.921626 20.777526,-2.42014 c 1.783247,3.274344 5.493038,5.228836 9.360547,4.522195 2.922439,-0.524065 5.25151,-2.447649 6.44182,-4.944281 z"
       sodipodi:nodetypes="cccccccccc" />
    <circle
       id="path5783"
       style="fill:#c8b7b7;stroke-width:0.61768"
       cx="64.934776"
       cy="62.41806"
       r="5.4877205" />
    <circle
       id="path5915"
       style="fill:#000000;stroke-width:0.1469"
       cx="64.934776"
       cy="62.303165"
       r="1.3051194" />
  </g>
  <metadata
     id="metadata1">
    <rdf:RDF>
      <cc:Work>
        <dc:format>image/svg+xml</dc:format>
        <dc:type
           rdf:resource="http://purl.org/dc/dcmitype/StillImage" />
        <cc:license
           rdf:resource="http://creativecommons.org/publicdomain/zero/1.0/" />
        <dc:publisher>
          <cc:Agent
             rdf:about="http://openclipart.org/">
            <dc:title>Openclipart</dc:title>
          </cc:Agent>
        </dc:publisher>
        <dc:date>2009-05-26T12:29:17</dc:date>
        <dc:description>manometer to measure the pressure inside the beer bottles after priming.</dc:description>
        <dc:source>https://openclipart.org/detail/26252/homebrewing-manometer-by-stefanolmo</dc:source>
        <dc:creator>
          <cc:Agent>
            <dc:title>stefanolmo</dc:title>
          </cc:Agent>
        </dc:creator>
        <dc:subject>
          <rdf:Bag>
            <rdf:li>beer</rdf:li>
            <rdf:li>brewing</rdf:li>
            <rdf:li>homebrewing</rdf:li>
            <rdf:li>manometer</rdf:li>
          </rdf:Bag>
        </dc:subject>
      </cc:Work>
      <cc:License
         rdf:about="http://creativecommons.org/publicdomain/zero/1.0/">
        <cc:permits
           rdf:resource="http://creativecommons.org/ns#Reproduction" />
        <cc:permits
           rdf:resource="http://creativecommons.org/ns#Distribution" />
        <cc:permits
           rdf:resource="http://creativecommons.org/ns#DerivativeWorks" />
      </cc:License>
    </rdf:RDF>
  </metadata>
</svg>
