<?xml version="1.0" encoding="UTF-8" standalone="no"?>
<!-- Created with Inkscape (http://www.inkscape.org/) -->

<svg
   id="svg2"
   sodipodi:docname="pressostat_tor_off_source.svg"
   viewBox="0 0 129.66809 129.60345"
   sodipodi:version="0.32"
   version="1.0"
   inkscape:output_extension="org.inkscape.output.svg.inkscape"
   inkscape:version="1.3 (0e150ed6c4, 2023-07-21)"
   width="129.66809"
   height="129.60345"
   xmlns:inkscape="http://www.inkscape.org/namespaces/inkscape"
   xmlns:sodipodi="http://sodipodi.sourceforge.net/DTD/sodipodi-0.dtd"
   xmlns:xlink="http://www.w3.org/1999/xlink"
   xmlns="http://www.w3.org/2000/svg"
   xmlns:svg="http://www.w3.org/2000/svg"
   xmlns:rdf="http://www.w3.org/1999/02/22-rdf-syntax-ns#"
   xmlns:cc="http://creativecommons.org/ns#"
   xmlns:dc="http://purl.org/dc/elements/1.1/">
  <defs
     id="defs4">
    <linearGradient
       id="linearGradient6261">
      <stop
         id="stop6263"
         style="stop-color:#828282"
         offset="0" />
      <stop
         id="stop6273"
         style="stop-color:#ffffff"
         offset=".24496" />
      <stop
         id="stop6265"
         style="stop-color:#ffffff"
         offset=".48993" />
      <stop
         id="stop6267"
         style="stop-color:#bababa"
         offset=".62234" />
      <stop
         id="stop6269"
         style="stop-color:#000000"
         offset=".75" />
      <stop
         id="stop6271"
         style="stop-color:#ffffff"
         offset="1" />
    </linearGradient>
    <linearGradient
       id="linearGradient8150">
      <stop
         id="stop8152"
         style="stop-color:#ffffff"
         offset="0" />
      <stop
         id="stop8154"
         style="stop-color:#ffffff"
         offset=".48993" />
      <stop
         id="stop8156"
         style="stop-color:#bababa"
         offset=".62234" />
      <stop
         id="stop8158"
         style="stop-color:#000000"
         offset=".75" />
      <stop
         id="stop8160"
         style="stop-color:#ffffff"
         offset="1" />
    </linearGradient>
    <radialGradient
       id="radialGradient7149"
       xlink:href="#linearGradient8150"
       gradientUnits="userSpaceOnUse"
       cy="312.26999"
       cx="134.28"
       gradientTransform="matrix(0.98173311,-0.02133768,0.02037402,0.93645426,-86.468232,-237.85964)"
       r="86.807999"
       inkscape:collect="always" />
  </defs>
  <sodipodi:namedview
     id="base"
     bordercolor="#666666"
     inkscape:pageshadow="2"
     guidetolerance="10"
     pagecolor="#ffffff"
     gridtolerance="10000"
     inkscape:window-height="1043"
     inkscape:zoom="3.1054325"
     objecttolerance="10"
     showgrid="false"
     borderopacity="1.0"
     inkscape:current-layer="layer1"
     inkscape:cx="60.861088"
     inkscape:cy="61.988145"
     inkscape:window-y="0"
     inkscape:window-x="0"
     inkscape:window-width="1920"
     inkscape:pageopacity="0.0"
     inkscape:document-units="px"
     inkscape:showpageshadow="2"
     inkscape:pagecheckerboard="0"
     inkscape:deskcolor="#d1d1d1"
     inkscape:window-maximized="1" />
  <g
     id="layer1"
     inkscape:label="Layer 1"
     inkscape:groupmode="layer">
    <ellipse
       id="path2269"
       style="fill:url(#radialGradient7149);fill-rule:evenodd;stroke:#000000;stroke-width:0.100002"
       cx="64.834045"
       cy="64.801727"
       rx="64.784027"
       ry="64.75174" />
    <path
       id="path7187"
       style="opacity:0.2;fill:#ffffff;fill-rule:evenodd;stroke:#000000;stroke-width:0.0999954"
       d="M 6.7199575,92.686542 C 17.632858,114.84995 40.818218,129.81413 67.124148,128.90168 92.864368,127.98923 114.5533,112.20384 124.2344,90.076932 109.57133,100.33287 89.488298,107.00288 67.133278,107.82408 43.674188,108.64529 22.268108,102.75086 6.7199575,92.686542 Z" />
    <circle
       id="path6151"
       style="fill:#ffffff;stroke:#000000;stroke-width:0.099999;stroke-linejoin:round"
       cx="64.832611"
       cy="64.793304"
       r="58.675049" />
    <path
       id="path5597"
       style="fill:none;stroke:#000000;stroke-width:0.2"
       d="m 6.2625275,69.410512 117.1400025,-9.22" />
    <path
       id="path5599"
       style="fill:none;stroke:#000000;stroke-width:0.2"
       d="m 6.8025275,73.990512 116.0600025,-18.38" />
    <path
       id="path5601"
       style="fill:none;stroke:#000000;stroke-width:0.2"
       d="m 7.7025275,78.510512 114.2600025,-27.43" />
    <path
       id="path5603"
       style="fill:none;stroke:#000000;stroke-width:0.2"
       d="m 8.9625275,82.950512 111.7500025,-36.31" />
    <path
       id="path5607"
       style="fill:none;stroke:#000000;stroke-width:0.2"
       d="m 12.482528,91.470512 104.700002,-53.34" />
    <path
       id="path5609"
       style="fill:none;stroke:#000000;stroke-width:0.2"
       d="m 14.742528,95.500512 100.180002,-61.4" />
    <path
       id="path5611"
       style="fill:none;stroke:#000000;stroke-width:0.2"
       d="m 17.302528,99.330512 95.061002,-69.06" />
    <path
       id="path5613"
       style="fill:none;stroke:#000000;stroke-width:0.2"
       d="M 20.162528,102.95051 109.50753,26.640512" />
    <path
       id="path5617"
       style="fill:none;stroke:#000000;stroke-width:0.2"
       d="m 40.762528,92.980512 62.245002,-72.87" />
    <path
       id="path5619"
       style="fill:none;stroke:#000000;stroke-width:0.2"
       d="m 42.962528,94.920512 56.422,-77.67" />
    <path
       id="path5621"
       style="fill:none;stroke:#000000;stroke-width:0.2"
       d="m 44.142528,98.580512 51.404,-83.89" />
    <path
       id="path5623"
       style="fill:none;stroke:#000000;stroke-width:0.2"
       d="m 47.552528,98.740512 43.971,-86.31" />
    <path
       id="path5627"
       style="fill:none;stroke:#000000;stroke-width:0.2"
       d="m 53.202528,100.63051 29.804,-91.7199984" />
    <path
       id="path5629"
       style="fill:none;stroke:#000000;stroke-width:0.2"
       d="m 56.822528,98.230512 21.75,-90.5800004" />
    <path
       id="path5631"
       style="fill:none;stroke:#000000;stroke-width:0.2"
       d="m 59.302528,99.820512 14.74,-93.0700004" />
    <path
       id="path5633"
       style="fill:none;stroke:#000000;stroke-width:0.2"
       d="m 62.042528,100.47051 7.42,-94.2599984" />
    <path
       id="path5637"
       style="fill:none;stroke:#000000;stroke-width:0.2"
       d="m 67.622528,100.47051 -7.42,-94.2599984" />
    <path
       id="path5639"
       style="fill:none;stroke:#000000;stroke-width:0.2"
       d="m 70.162528,98.540512 -14.54,-91.7900004" />
    <path
       id="path5641"
       style="fill:none;stroke:#000000;stroke-width:0.2"
       d="m 73.452528,100.77051 -22.35,-93.1199984" />
    <path
       id="path5643"
       style="fill:none;stroke:#000000;stroke-width:0.2"
       d="m 75.652528,98.130512 -28.99,-89.2300004" />
    <path
       id="path5647"
       style="fill:none;stroke:#000000;stroke-width:0.2"
       d="m 80.692528,95.940512 -42.55,-83.51" />
    <path
       id="path5649"
       style="fill:none;stroke:#000000;stroke-width:0.2"
       d="m 82.876528,94.250512 -48.764,-79.56" />
    <path
       id="path5651"
       style="fill:none;stroke:#000000;stroke-width:0.2"
       d="m 87.526528,96.040512 -57.244,-78.79" />
    <path
       id="path5653"
       style="fill:none;stroke:#000000;stroke-width:0.2"
       d="m 88.697528,92.740512 -62.035,-72.63" />
    <path
       id="path5657"
       style="fill:none;stroke:#000000;stroke-width:0.2"
       d="M 109.50753,102.95051 20.162528,26.640512" />
    <path
       id="path5659"
       style="fill:none;stroke:#000000;stroke-width:0.2"
       d="m 112.36353,99.330512 -95.061002,-69.06" />
    <path
       id="path5661"
       style="fill:none;stroke:#000000;stroke-width:0.2"
       d="m 114.92653,95.500512 -100.180002,-61.4" />
    <path
       id="path5663"
       style="fill:none;stroke:#000000;stroke-width:0.2"
       d="m 117.18053,91.470512 -104.700002,-53.34" />
    <path
       id="path5667"
       style="fill:none;stroke:#000000;stroke-width:0.2"
       d="M 120.70853,82.950512 8.9585275,46.640512" />
    <path
       id="path5669"
       style="fill:none;stroke:#000000;stroke-width:0.2"
       d="M 121.96053,78.510512 7.7005275,51.080512" />
    <path
       id="path5671"
       style="fill:none;stroke:#000000;stroke-width:0.2"
       d="M 122.86053,73.990512 6.8005275,55.610512" />
    <path
       id="path5673"
       style="fill:none;stroke:#000000;stroke-width:0.2"
       d="m 123.40253,69.410512 -117.1400025,-9.22" />
    <circle
       id="path2636"
       style="fill:#ffffff;stroke-width:1.1988"
       cx="64.835594"
       cy="64.782684"
       r="53.7719" />
    <path
       id="path5675"
       style="fill:none;stroke:#000000;stroke-width:1.4"
       d="M 23.292528,106.34051 106.37653,23.260512" />
    <path
       id="path5677"
       style="fill:none;stroke:#000000;stroke-width:1.4"
       d="M 64.832528,97.060512 V 5.9405116" />
    <path
       id="path5679"
       style="fill:none;stroke:#000000;stroke-width:1.4"
       d="M 106.37653,106.34051 23.292528,23.260512" />
    <path
       id="path5691"
       style="fill:none;stroke:#000000;stroke-width:1.4"
       d="M 6.0825275,64.800512 H 123.58253" />
    <path
       id="path5773"
       style="fill:none;stroke:#000000;stroke-width:0.2"
       d="m 10.552528,87.280512 108.560002,-44.96" />
    <path
       id="path5775"
       style="fill:none;stroke:#000000;stroke-width:0.16159"
       d="m 51.002528,98.210512 36.333,-87.71" />
    <path
       id="path5777"
       style="fill:none;stroke:#000000;stroke-width:0.15263"
       d="m 76.642528,93.340512 -34.32,-82.84" />
    <path
       id="path5779"
       style="fill:none;stroke:#000000;stroke-width:0.2"
       d="m 119.11153,87.280512 -108.560002,-44.96" />
    <circle
       id="path5785"
       style="fill:#ffffff;stroke-width:1.1279"
       cx="64.835297"
       cy="64.782074"
       r="50.591698" />
    <path
       id="text5876"
       style="fill:#000000"
       d="m 56.192528,87.950512 v 2.65 h 1.57 c 0.53,0 0.92,-0.11 1.17,-0.33 0.26,-0.22 0.39,-0.55 0.39,-1 0,-0.45 -0.13,-0.79 -0.39,-1 -0.25,-0.22 -0.64,-0.32 -1.17,-0.32 h -1.57 m 0,-2.98 v 2.18 h 1.45 c 0.48,0 0.84,-0.09 1.07,-0.27 0.24,-0.18 0.35,-0.45 0.35,-0.82 0,-0.37 -0.11,-0.64 -0.35,-0.82 -0.23,-0.18 -0.59,-0.27 -1.07,-0.27 h -1.45 m -0.98,-0.81 h 2.51 c 0.74,0 1.32,0.16 1.72,0.47 0.41,0.31 0.61,0.75 0.61,1.32 0,0.45 -0.11,0.8 -0.31,1.06 -0.21,0.26 -0.51,0.42 -0.91,0.49 0.48,0.1 0.85,0.32 1.12,0.65 0.26,0.33 0.4,0.73 0.4,1.23 0,0.64 -0.22,1.14 -0.66,1.49 -0.44,0.36 -1.07,0.53 -1.88,0.53 h -2.6 v -7.24 m 9.23,0.97 -1.33,3.6 h 2.66 l -1.33,-3.6 m -0.55,-0.97 h 1.11 l 2.76,7.24 h -1.02 l -0.66,-1.85 h -3.26 l -0.66,1.85 h -1.04 l 2.77,-7.24 m 8.35,3.85 c 0.21,0.07 0.42,0.22 0.61,0.45 0.2,0.24 0.4,0.56 0.6,0.96 l 1,1.98 h -1.05 l -0.93,-1.85 c -0.24,-0.49 -0.47,-0.81 -0.7,-0.97 -0.22,-0.16 -0.53,-0.24 -0.91,-0.24 h -1.07 v 3.06 h -0.98 v -7.24 h 2.21 c 0.83,0 1.45,0.18 1.85,0.52 0.41,0.35 0.61,0.87 0.61,1.57 0,0.45 -0.1,0.83 -0.32,1.13 -0.21,0.3 -0.51,0.51 -0.92,0.63 m -2.45,-3.04 v 2.57 h 1.23 c 0.47,0 0.83,-0.11 1.07,-0.33 0.24,-0.22 0.36,-0.54 0.36,-0.96 0,-0.43 -0.12,-0.74 -0.36,-0.96 -0.24,-0.21 -0.6,-0.32 -1.07,-0.32 h -1.23" />
    <path
       id="text5880"
       style="fill:#000000"
       d="m 45.655068,104.85049 h 0.94 l 1.19,3.17 1.19,-3.17 h 0.94 v 4.65 h -0.62 v -4.08 l -1.2,3.19 h -0.63 l -1.2,-3.19 v 4.08 h -0.61 v -4.65 m 7.06,0.62 -0.85,2.32 h 1.71 l -0.86,-2.32 m -0.35,-0.62 h 0.71 l 1.77,4.65 h -0.65 l -0.43,-1.19 h -2.09 l -0.42,1.19 h -0.67 l 1.78,-4.65 m 3.16,0 h 0.85 l 2.06,3.89 v -3.89 h 0.61 v 4.65 h -0.85 l -2.06,-3.89 v 3.89 h -0.61 v -4.65 m 6.66,0.43 c -0.46,0 -0.82,0.17 -1.09,0.51 -0.27,0.34 -0.4,0.81 -0.4,1.39 0,0.59 0.13,1.05 0.4,1.39 0.27,0.34 0.63,0.51 1.09,0.51 0.45,0 0.82,-0.17 1.08,-0.51 0.27,-0.34 0.4,-0.8 0.4,-1.39 0,-0.58 -0.13,-1.05 -0.4,-1.39 -0.26,-0.34 -0.63,-0.51 -1.08,-0.51 m 0,-0.51 c 0.65,0 1.17,0.22 1.56,0.66 0.39,0.43 0.59,1.02 0.59,1.75 0,0.74 -0.2,1.32 -0.59,1.76 -0.39,0.44 -0.91,0.65 -1.56,0.65 -0.66,0 -1.18,-0.21 -1.57,-0.65 -0.39,-0.44 -0.59,-1.02 -0.59,-1.76 0,-0.73 0.2,-1.32 0.59,-1.75 0.39,-0.44 0.91,-0.66 1.57,-0.66 m 3.13,0.08 h 0.94 l 1.18,3.17 1.2,-3.17 h 0.93 v 4.65 h -0.61 v -4.08 l -1.2,3.19 h -0.63 l -1.2,-3.19 v 4.08 h -0.61 v -4.65 m 5.51,0 h 2.94 v 0.53 h -2.31 v 1.38 h 2.21 v 0.53 h -2.21 v 1.68 h 2.36 v 0.53 h -2.99 v -4.65 m 3.39,0 h 3.93 v 0.53 h -1.65 v 4.12 h -0.63 v -4.12 h -1.65 v -0.53 m 4.54,0 h 2.94 v 0.53 h -2.31 v 1.38 h 2.22 v 0.53 h -2.22 v 1.68 h 2.37 v 0.53 h -3 v -4.65 m 6.244,2.47 c 0.135,0.05 0.265,0.15 0.392,0.3 0.129,0.15 0.257,0.35 0.386,0.61 l 0.639,1.27 h -0.676 l -0.595,-1.19 c -0.154,-0.31 -0.303,-0.52 -0.448,-0.62 -0.144,-0.1 -0.34,-0.15 -0.589,-0.15 h -0.685 v 1.96 h -0.629 v -4.65 h 1.42 c 0.531,0 0.928,0.11 1.189,0.34 0.262,0.22 0.393,0.55 0.393,1 0,0.29 -0.069,0.54 -0.206,0.73 -0.135,0.19 -0.332,0.33 -0.591,0.4 m -1.576,-1.95 v 1.65 h 0.791 c 0.303,0 0.531,-0.07 0.685,-0.21 0.156,-0.14 0.234,-0.35 0.234,-0.62 0,-0.27 -0.078,-0.47 -0.234,-0.61 -0.154,-0.14 -0.382,-0.21 -0.685,-0.21 h -0.791" />
  </g>
  <g
     inkscape:groupmode="layer"
     id="layer2"
     inkscape:label="Layer 2"
     style="display:inline">
    <path
       id="path5908"
       inkscape:transform-center-x="6.201185"
       style="fill:#a52a2a;stroke-width:0;fill-opacity:1"
       inkscape:transform-center-y="6.3543826"
       d="m 72.16674,40.515373 -5.278052,13.770557 -0.675624,1.752035 c -2.732733,-0.43389 -5.627794,0.403486 -7.717497,2.520074 -2.772908,2.79159 -3.269405,6.957002 -1.559673,10.283215 L 43.178445,84.60275 28.245799,101.741 45.242316,86.643242 60.864835,72.732833 c 3.339948,1.657123 7.499526,1.127521 10.26042,-1.671484 2.091968,-2.106888 2.894517,-5.019073 2.435728,-7.746625 l 1.748259,-0.690019 13.691429,-5.440371 -8.420547,-8.338768 z" />
    <circle
       id="path5783"
       style="fill:#c8b7b7;stroke-width:0.61768"
       cx="64.833954"
       cy="64.797699"
       r="5.4877205" />
    <circle
       id="path5915"
       style="fill:#000000;stroke-width:0.1469"
       cx="64.834541"
       cy="64.802216"
       r="1.3051194" />
  </g>
  <metadata
     id="metadata1">
    <rdf:RDF>
      <cc:Work>
        <dc:format>image/svg+xml</dc:format>
        <dc:type
           rdf:resource="http://purl.org/dc/dcmitype/StillImage" />
        <cc:license
           rdf:resource="http://creativecommons.org/publicdomain/zero/1.0/" />
        <dc:publisher>
          <cc:Agent
             rdf:about="http://openclipart.org/">
            <dc:title>Openclipart</dc:title>
          </cc:Agent>
        </dc:publisher>
        <dc:date>2009-05-26T12:29:17</dc:date>
        <dc:description>manometer to measure the pressure inside the beer bottles after priming.</dc:description>
        <dc:source>https://openclipart.org/detail/26252/homebrewing-manometer-by-stefanolmo</dc:source>
        <dc:creator>
          <cc:Agent>
            <dc:title>stefanolmo</dc:title>
          </cc:Agent>
        </dc:creator>
        <dc:subject>
          <rdf:Bag>
            <rdf:li>beer</rdf:li>
            <rdf:li>brewing</rdf:li>
            <rdf:li>homebrewing</rdf:li>
            <rdf:li>manometer</rdf:li>
          </rdf:Bag>
        </dc:subject>
      </cc:Work>
      <cc:License
         rdf:about="http://creativecommons.org/publicdomain/zero/1.0/">
        <cc:permits
           rdf:resource="http://creativecommons.org/ns#Reproduction" />
        <cc:permits
           rdf:resource="http://creativecommons.org/ns#Distribution" />
        <cc:permits
           rdf:resource="http://creativecommons.org/ns#DerivativeWorks" />
      </cc:License>
    </rdf:RDF>
  </metadata>
  <script
     id="Set_state">&#10;     console.log ( &quot;Inside Set_State of Pressostat_simple. Args = &quot; + state );&#10;     aiguille = this.svggroupe.find(&quot;#path5908&quot;)[0];&#10;/*     console.log ( aiguille );&#10;     console.log ( aiguille.node );*/&#10;     var degree = 270*state.valeur/6;&#10;     aiguille./*animate(2000).*/transform ( { rotate: degree, origin: { x: 64.824, y: 64.774 } } );&#10;     if ( state.color != null ) aiguille.css(&quot;fill&quot;, state.color );&#10;  </script>
</svg>
