<?xml version="1.0" encoding="UTF-8" standalone="no"?>
<!-- Created with Inkscape (http://www.inkscape.org/) -->

<svg
   id="svg2"
   sodipodi:docname="pressostat_simple.svg"
   viewBox="0 0 129.66809 129.60345"
   sodipodi:version="0.32"
   version="1.0"
   inkscape:output_extension="org.inkscape.output.svg.inkscape"
   inkscape:version="1.3 (0e150ed6c4, 2023-07-21)"
   width="129.66809"
   height="129.60345"
   xmlns:inkscape="http://www.inkscape.org/namespaces/inkscape"
   xmlns:sodipodi="http://sodipodi.sourceforge.net/DTD/sodipodi-0.dtd"
   xmlns:xlink="http://www.w3.org/1999/xlink"
   xmlns="http://www.w3.org/2000/svg"
   xmlns:svg="http://www.w3.org/2000/svg"
   xmlns:rdf="http://www.w3.org/1999/02/22-rdf-syntax-ns#"
   xmlns:cc="http://creativecommons.org/ns#"
   xmlns:dc="http://purl.org/dc/elements/1.1/">
  <defs
     id="defs4">
    <linearGradient
       id="linearGradient6261">
      <stop
         id="stop6263"
         style="stop-color:#828282"
         offset="0" />
      <stop
         id="stop6273"
         style="stop-color:#ffffff"
         offset=".24496" />
      <stop
         id="stop6265"
         style="stop-color:#ffffff"
         offset=".48993" />
      <stop
         id="stop6267"
         style="stop-color:#bababa"
         offset=".62234" />
      <stop
         id="stop6269"
         style="stop-color:#000000"
         offset=".75" />
      <stop
         id="stop6271"
         style="stop-color:#ffffff"
         offset="1" />
    </linearGradient>
    <linearGradient
       id="linearGradient8150">
      <stop
         id="stop8152"
         style="stop-color:#ffffff"
         offset="0" />
      <stop
         id="stop8154"
         style="stop-color:#ffffff"
         offset=".48993" />
      <stop
         id="stop8156"
         style="stop-color:#bababa"
         offset=".62234" />
      <stop
         id="stop8158"
         style="stop-color:#000000"
         offset=".75" />
      <stop
         id="stop8160"
         style="stop-color:#ffffff"
         offset="1" />
    </linearGradient>
    <radialGradient
       id="radialGradient7149"
       xlink:href="#linearGradient8150"
       gradientUnits="userSpaceOnUse"
       cy="312.26999"
       cx="134.28"
       gradientTransform="matrix(1.3079,-0.028441,0.027143,1.2482,-50.532,-73.425)"
       r="86.807999"
       inkscape:collect="always" />
  </defs>
  <sodipodi:namedview
     id="base"
     bordercolor="#666666"
     inkscape:pageshadow="2"
     guidetolerance="10"
     pagecolor="#ffffff"
     gridtolerance="10000"
     inkscape:window-height="1043"
     inkscape:zoom="4.3917448"
     objecttolerance="10"
     showgrid="false"
     borderopacity="1.0"
     inkscape:current-layer="g6153"
     inkscape:cx="42.579888"
     inkscape:cy="54.078734"
     inkscape:window-y="0"
     inkscape:window-x="0"
     inkscape:window-width="1920"
     inkscape:pageopacity="0.0"
     inkscape:document-units="px"
     inkscape:showpageshadow="2"
     inkscape:pagecheckerboard="0"
     inkscape:deskcolor="#d1d1d1"
     inkscape:window-maximized="1" />
  <g
     id="layer1"
     inkscape:label="Layer 1"
     inkscape:groupmode="layer"
     transform="translate(-42.734956,-95.553268)">
    <g
       id="g7229"
       transform="translate(-295.1,-504.58)">
      <g
         id="g6153"
         transform="translate(518.08,-66.292)">
        <g
           id="g6145"
           style="stroke:#000000;stroke-width:0.10959"
           transform="matrix(0.91245,0,0,0.91245,-407.42251,-141.39422)">
          <circle
             id="path2269"
             style="fill:url(#radialGradient7149);fill-rule:evenodd;stroke:#000000;stroke-width:0.13326"
             transform="matrix(0.82264,0,0,0.82223,195.78,685.02)"
             cx="151.0383"
             cy="329.99237"
             r="86.307602" />
          <path
             id="path7187"
             style="opacity:0.2;fill:#ffffff;fill-rule:evenodd;stroke:#000000;stroke-width:0.10959"
             d="m 256.34,986.91 c 11.96,24.29 37.37,40.69 66.2,39.69 28.21,-1 51.98,-18.3 62.59,-42.55 -16.07,11.24 -38.08,18.55 -62.58,19.45 -25.71,0.9 -49.17,-5.56 -66.21,-16.59 z" />
        </g>
        <circle
           id="path6151"
           style="fill:#ffffff;stroke:#000000;stroke-width:0.061743;stroke-linejoin:round"
           transform="matrix(1.6196,0,0,1.6196,251.63749,-321.14422)"
           cx="-226.62999"
           cy="649.76709"
           r="36.228111" />
        <g
           id="g5797"
           transform="translate(1.2974938,56.045783)">
          <path
             id="path5597"
             style="fill:none;stroke:#000000;stroke-width:0.2"
             d="m -175.28,679.79 117.14,-9.22" />
          <path
             id="path5599"
             style="fill:none;stroke:#000000;stroke-width:0.2"
             d="M -174.74,684.37 -58.68,665.99" />
          <path
             id="path5601"
             style="fill:none;stroke:#000000;stroke-width:0.2"
             d="M -173.84,688.89 -59.58,661.46" />
          <path
             id="path5603"
             style="fill:none;stroke:#000000;stroke-width:0.2"
             d="M -172.58,693.33 -60.83,657.02" />
          <path
             id="path5607"
             style="fill:none;stroke:#000000;stroke-width:0.2"
             d="m -169.06,701.85 104.7,-53.34" />
          <path
             id="path5609"
             style="fill:none;stroke:#000000;stroke-width:0.2"
             d="m -166.8,705.88 100.18,-61.4" />
          <path
             id="path5611"
             style="fill:none;stroke:#000000;stroke-width:0.2"
             d="m -164.24,709.71 95.061,-69.06" />
          <path
             id="path5613"
             style="fill:none;stroke:#000000;stroke-width:0.2"
             d="m -161.38,713.33 89.345,-76.31" />
          <path
             id="path5617"
             style="fill:none;stroke:#000000;stroke-width:0.2"
             d="m -140.78,703.36 62.245,-72.87" />
          <path
             id="path5619"
             style="fill:none;stroke:#000000;stroke-width:0.2"
             d="m -138.58,705.3 56.422,-77.67" />
          <path
             id="path5621"
             style="fill:none;stroke:#000000;stroke-width:0.2"
             d="m -137.4,708.96 51.404,-83.89" />
          <path
             id="path5623"
             style="fill:none;stroke:#000000;stroke-width:0.2"
             d="m -133.99,709.12 43.971,-86.31" />
          <path
             id="path5627"
             style="fill:none;stroke:#000000;stroke-width:0.2"
             d="m -128.34,711.01 29.804,-91.72" />
          <path
             id="path5629"
             style="fill:none;stroke:#000000;stroke-width:0.2"
             d="m -124.72,708.61 21.75,-90.58" />
          <path
             id="path5631"
             style="fill:none;stroke:#000000;stroke-width:0.2"
             d="m -122.24,710.2 14.74,-93.07" />
          <path
             id="path5633"
             style="fill:none;stroke:#000000;stroke-width:0.2"
             d="m -119.5,710.85 7.42,-94.26" />
          <path
             id="path5637"
             style="fill:none;stroke:#000000;stroke-width:0.2"
             d="m -113.92,710.85 -7.42,-94.26" />
          <path
             id="path5639"
             style="fill:none;stroke:#000000;stroke-width:0.2"
             d="m -111.38,708.92 -14.54,-91.79" />
          <path
             id="path5641"
             style="fill:none;stroke:#000000;stroke-width:0.2"
             d="m -108.09,711.15 -22.35,-93.12" />
          <path
             id="path5643"
             style="fill:none;stroke:#000000;stroke-width:0.2"
             d="m -105.89,708.51 -28.99,-89.23" />
          <path
             id="path5647"
             style="fill:none;stroke:#000000;stroke-width:0.2"
             d="M -100.85,706.32 -143.4,622.81" />
          <path
             id="path5649"
             style="fill:none;stroke:#000000;stroke-width:0.2"
             d="M -98.666,704.63 -147.43,625.07" />
          <path
             id="path5651"
             style="fill:none;stroke:#000000;stroke-width:0.2"
             d="M -94.016,706.42 -151.26,627.63" />
          <path
             id="path5653"
             style="fill:none;stroke:#000000;stroke-width:0.2"
             d="M -92.845,703.12 -154.88,630.49" />
          <path
             id="path5657"
             style="fill:none;stroke:#000000;stroke-width:0.2"
             d="M -72.035,713.33 -161.38,637.02" />
          <path
             id="path5659"
             style="fill:none;stroke:#000000;stroke-width:0.2"
             d="M -69.179,709.71 -164.24,640.65" />
          <path
             id="path5661"
             style="fill:none;stroke:#000000;stroke-width:0.2"
             d="m -66.616,705.88 -100.18,-61.4" />
          <path
             id="path5663"
             style="fill:none;stroke:#000000;stroke-width:0.2"
             d="m -64.362,701.85 -104.7,-53.34" />
          <path
             id="path5667"
             style="fill:none;stroke:#000000;stroke-width:0.2"
             d="m -60.834,693.33 -111.75,-36.31" />
          <path
             id="path5669"
             style="fill:none;stroke:#000000;stroke-width:0.2"
             d="m -59.582,688.89 -114.26,-27.43" />
          <path
             id="path5671"
             style="fill:none;stroke:#000000;stroke-width:0.2"
             d="m -58.682,684.37 -116.06,-18.38" />
          <path
             id="path5673"
             style="fill:none;stroke:#000000;stroke-width:0.2"
             d="m -58.14,679.79 -117.14,-9.22" />
          <circle
             id="path2636"
             style="fill:#ffffff"
             transform="matrix(1.1988,0,0,1.1988,-63.603,140.68)"
             cx="-44.297569"
             cy="445.84766"
             r="44.854771" />
          <path
             id="path5675"
             style="fill:none;stroke:#000000;stroke-width:1.4"
             d="m -158.25,716.72 83.084,-83.08" />
          <path
             id="path5677"
             style="fill:none;stroke:#000000;stroke-width:1.4"
             d="M -116.71,707.44 V 616.32" />
          <path
             id="path5679"
             style="fill:none;stroke:#000000;stroke-width:1.4"
             d="M -75.166,716.72 -158.25,633.64" />
          <path
             id="path5691"
             style="fill:none;stroke:#000000;stroke-width:1.4"
             d="m -175.46,675.18 h 117.5" />
          <path
             id="path5773"
             style="fill:none;stroke:#000000;stroke-width:0.2"
             d="M -170.99,697.66 -62.43,652.7" />
          <path
             id="path5775"
             style="fill:none;stroke:#000000;stroke-width:0.16159"
             d="m -130.54,708.59 36.333,-87.71" />
          <path
             id="path5777"
             style="fill:none;stroke:#000000;stroke-width:0.15263"
             d="m -104.9,703.72 -34.32,-82.84" />
          <path
             id="path5779"
             style="fill:none;stroke:#000000;stroke-width:0.2"
             d="M -62.431,697.66 -170.991,652.7" />
          <circle
             id="path5785"
             style="fill:#ffffff"
             transform="matrix(1.1279,0,0,1.1279,-66.744,172.29)"
             cx="-44.297569"
             cy="445.84766"
             r="44.854771" />
        </g>
        <path
           id="text5841"
           style="fill:#000000"
           d="m -146.15,711.83 c -0.38,0.18 -0.83,0.27 -1.33,0.27 -0.51,0 -0.96,-0.09 -1.34,-0.26 -0.38,-0.17 -0.69,-0.4 -0.93,-0.69 -0.24,-0.3 -0.43,-0.66 -0.59,-1.08 -0.14,-0.44 -0.25,-0.89 -0.31,-1.36 -0.05,-0.46 -0.08,-0.99 -0.08,-1.57 0,-1.8 0.27,-3.06 0.8,-3.77 0.29,-0.39 0.64,-0.69 1.06,-0.89 0.42,-0.21 0.88,-0.31 1.39,-0.31 0.55,0 1.05,0.12 1.49,0.36 0.45,0.24 0.81,0.58 1.08,1.03 0.45,0.72 0.67,1.93 0.67,3.63 0,0.57 -0.03,1.08 -0.09,1.54 -0.05,0.46 -0.15,0.9 -0.3,1.33 -0.15,0.43 -0.34,0.79 -0.58,1.08 -0.24,0.29 -0.55,0.52 -0.94,0.69 m 0.05,-4.68 c 0,-0.72 -0.03,-1.31 -0.1,-1.78 -0.06,-0.47 -0.15,-0.82 -0.28,-1.06 -0.13,-0.25 -0.27,-0.42 -0.43,-0.5 -0.15,-0.09 -0.34,-0.14 -0.57,-0.14 -0.33,0 -0.6,0.1 -0.79,0.31 -0.2,0.2 -0.34,0.55 -0.45,1.06 -0.1,0.51 -0.15,1.2 -0.15,2.09 0,0.69 0.03,1.26 0.09,1.71 0.06,0.45 0.15,0.79 0.28,1.03 0.12,0.24 0.27,0.41 0.43,0.5 0.16,0.09 0.35,0.13 0.59,0.13 0.53,0 0.91,-0.29 1.13,-0.86 0.07,-0.19 0.13,-0.51 0.17,-0.99 0.05,-0.47 0.08,-0.98 0.08,-1.5"
           transform="translate(1.2974938,56.045783)" />
        <path
           id="text5845"
           style="fill:#000000"
           d="m -162.15,673.34 h -2.27 v -1.23 c 1.63,0 2.6,-0.57 2.9,-1.7 h 1.23 v 9.44 h -1.86 v -6.51"
           transform="translate(1.2974938,56.045783)" />
        <path
           id="text5849"
           style="fill:#000000"
           d="m -144.48,642.73 c 0,0.39 -0.06,0.75 -0.18,1.08 -0.12,0.33 -0.28,0.61 -0.48,0.85 -0.2,0.24 -0.43,0.47 -0.67,0.68 -0.25,0.21 -0.51,0.41 -0.78,0.59 -0.27,0.19 -0.53,0.36 -0.77,0.54 -0.24,0.17 -0.47,0.36 -0.68,0.58 -0.21,0.21 -0.36,0.43 -0.47,0.65 h 4 v 1.67 h -6.42 c 0.05,-0.87 0.23,-1.56 0.53,-2.07 0.31,-0.52 0.86,-1.05 1.65,-1.6 0.72,-0.51 1.24,-0.9 1.57,-1.2 0.32,-0.3 0.54,-0.57 0.66,-0.81 0.11,-0.25 0.17,-0.55 0.17,-0.92 0,-0.47 -0.12,-0.84 -0.35,-1.11 -0.24,-0.27 -0.56,-0.4 -0.98,-0.4 -0.42,0 -0.75,0.14 -0.99,0.43 -0.23,0.29 -0.35,0.7 -0.35,1.22 v 0.31 h -1.78 c -0.01,-0.1 -0.01,-0.21 -0.01,-0.32 0,-1 0.27,-1.78 0.82,-2.33 0.55,-0.55 1.31,-0.83 2.28,-0.83 0.99,0 1.78,0.27 2.35,0.81 0.58,0.54 0.88,1.27 0.88,2.18"
           transform="translate(1.2974938,56.045783)" />
        <path
           id="text5853"
           style="fill:#000000"
           d="m -119.72,630.22 c 0,-0.49 0.07,-0.91 0.21,-1.28 0.14,-0.38 0.31,-0.67 0.52,-0.88 0.2,-0.22 0.45,-0.39 0.74,-0.52 0.29,-0.13 0.56,-0.22 0.81,-0.26 0.25,-0.04 0.51,-0.07 0.78,-0.07 0.92,0 1.65,0.24 2.19,0.7 0.54,0.46 0.81,1.09 0.81,1.88 0,0.42 -0.1,0.8 -0.29,1.12 -0.2,0.31 -0.51,0.61 -0.95,0.88 0.53,0.26 0.92,0.58 1.17,0.95 0.25,0.38 0.38,0.84 0.38,1.39 0,0.92 -0.3,1.65 -0.91,2.2 -0.59,0.54 -1.39,0.82 -2.4,0.82 -0.96,0 -1.73,-0.28 -2.3,-0.83 -0.58,-0.55 -0.86,-1.3 -0.87,-2.24 h 1.81 c 0.06,0.98 0.52,1.47 1.4,1.47 0.41,0 0.74,-0.13 1,-0.4 0.27,-0.27 0.4,-0.61 0.4,-1.02 0,-0.34 -0.09,-0.64 -0.28,-0.9 -0.18,-0.26 -0.43,-0.43 -0.74,-0.51 -0.26,-0.06 -0.62,-0.1 -1.09,-0.1 v -1.24 h 0.16 c 1.1,0 1.65,-0.47 1.65,-1.42 0,-0.4 -0.1,-0.7 -0.31,-0.91 -0.2,-0.22 -0.49,-0.33 -0.86,-0.33 -0.49,0 -0.83,0.14 -1.01,0.41 -0.18,0.27 -0.27,0.69 -0.29,1.25 h -1.73 v -0.16"
           transform="translate(1.2974938,56.045783)" />
        <path
           id="text5857"
           style="fill:#000000"
           d="m -82.165,645.73 v 1.55 h -0.99 v 2.09 h -1.863 v -2.09 h -3.777 v -1.56 l 3.445,-5.79 h 2.195 v 5.8 h 0.99 m -2.853,0 v -4.02 l -2.461,4.02 h 2.461"
           transform="translate(1.2974938,56.045783)" />
        <path
           id="text5861"
           style="fill:#000000"
           d="m -69.657,670.26 v 1.67 h -3.902 l -0.303,1.97 c 0.502,-0.38 1.047,-0.57 1.633,-0.57 0.867,0 1.575,0.3 2.121,0.91 0.547,0.6 0.821,1.38 0.821,2.35 0,1.01 -0.316,1.84 -0.946,2.47 -0.626,0.63 -1.446,0.94 -2.461,0.94 -0.917,0 -1.661,-0.25 -2.232,-0.76 -0.572,-0.51 -0.868,-1.18 -0.887,-2.01 h 1.847 c 0.015,0.39 0.133,0.68 0.355,0.88 0.222,0.2 0.535,0.3 0.939,0.3 0.468,0 0.837,-0.16 1.108,-0.48 0.276,-0.31 0.414,-0.74 0.414,-1.3 0,-0.57 -0.135,-1.02 -0.406,-1.34 -0.271,-0.32 -0.643,-0.48 -1.116,-0.48 -0.601,0 -0.998,0.24 -1.19,0.71 h -1.685 l 0.842,-5.26 h 5.048"
           transform="translate(1.2974938,56.045783)" />
        <path
           id="text5865"
           style="fill:#000000"
           d="m -88.266,705.43 c 0,-3.43 1.16,-5.14 3.481,-5.14 0.108,0 0.214,0 0.318,0.01 0.108,0.01 0.251,0.03 0.428,0.06 0.183,0.03 0.35,0.08 0.503,0.14 0.158,0.06 0.325,0.15 0.503,0.27 0.182,0.11 0.34,0.26 0.473,0.42 0.133,0.16 0.256,0.36 0.369,0.61 0.113,0.25 0.192,0.52 0.237,0.83 h -1.722 c -0.124,-0.3 -0.274,-0.52 -0.451,-0.64 -0.178,-0.13 -0.414,-0.2 -0.71,-0.2 -0.374,0 -0.69,0.12 -0.946,0.36 -0.251,0.24 -0.419,0.57 -0.502,0.99 -0.045,0.2 -0.072,0.36 -0.082,0.48 -0.01,0.12 -0.022,0.43 -0.037,0.92 0.291,-0.3 0.577,-0.52 0.858,-0.64 0.285,-0.13 0.625,-0.19 1.02,-0.19 0.808,0 1.465,0.28 1.973,0.85 0.508,0.56 0.761,1.3 0.761,2.2 0,1.03 -0.29,1.86 -0.872,2.5 -0.581,0.64 -1.34,0.96 -2.276,0.96 -0.562,0 -1.077,-0.12 -1.545,-0.37 -0.468,-0.25 -0.838,-0.59 -1.109,-1.03 -0.236,-0.37 -0.409,-0.83 -0.517,-1.36 -0.103,-0.53 -0.155,-1.21 -0.155,-2.03 m 3.281,-0.27 c -0.428,0 -0.778,0.17 -1.049,0.49 -0.266,0.33 -0.399,0.75 -0.399,1.27 0,0.5 0.133,0.91 0.399,1.23 0.266,0.32 0.611,0.47 1.035,0.47 0.414,0 0.756,-0.16 1.027,-0.48 0.276,-0.33 0.414,-0.75 0.414,-1.25 0,-0.53 -0.131,-0.94 -0.392,-1.25 -0.256,-0.32 -0.601,-0.48 -1.035,-0.48"
           transform="translate(1.2974938,56.045783)" />
        <path
           id="text5876"
           style="fill:#000000"
           d="m -125.35,698.33 v 2.65 h 1.57 c 0.53,0 0.92,-0.11 1.17,-0.33 0.26,-0.22 0.39,-0.55 0.39,-1 0,-0.45 -0.13,-0.79 -0.39,-1 -0.25,-0.22 -0.64,-0.32 -1.17,-0.32 h -1.57 m 0,-2.98 v 2.18 h 1.45 c 0.48,0 0.84,-0.09 1.07,-0.27 0.24,-0.18 0.35,-0.45 0.35,-0.82 0,-0.37 -0.11,-0.64 -0.35,-0.82 -0.23,-0.18 -0.59,-0.27 -1.07,-0.27 h -1.45 m -0.98,-0.81 h 2.51 c 0.74,0 1.32,0.16 1.72,0.47 0.41,0.31 0.61,0.75 0.61,1.32 0,0.45 -0.11,0.8 -0.31,1.06 -0.21,0.26 -0.51,0.42 -0.91,0.49 0.48,0.1 0.85,0.32 1.12,0.65 0.26,0.33 0.4,0.73 0.4,1.23 0,0.64 -0.22,1.14 -0.66,1.49 -0.44,0.36 -1.07,0.53 -1.88,0.53 h -2.6 v -7.24 m 9.23,0.97 -1.33,3.6 h 2.66 l -1.33,-3.6 m -0.55,-0.97 h 1.11 l 2.76,7.24 h -1.02 l -0.66,-1.85 h -3.26 l -0.66,1.85 h -1.04 l 2.77,-7.24 m 8.35,3.85 c 0.21,0.07 0.42,0.22 0.61,0.45 0.2,0.24 0.4,0.56 0.6,0.96 l 1,1.98 h -1.05 l -0.93,-1.85 c -0.24,-0.49 -0.47,-0.81 -0.7,-0.97 -0.22,-0.16 -0.53,-0.24 -0.91,-0.24 h -1.07 v 3.06 h -0.98 v -7.24 h 2.21 c 0.83,0 1.45,0.18 1.85,0.52 0.41,0.35 0.61,0.87 0.61,1.57 0,0.45 -0.1,0.83 -0.32,1.13 -0.21,0.3 -0.51,0.51 -0.92,0.63 m -2.45,-3.04 v 2.57 h 1.23 c 0.47,0 0.83,-0.11 1.07,-0.33 0.24,-0.22 0.36,-0.54 0.36,-0.96 0,-0.43 -0.12,-0.74 -0.36,-0.96 -0.24,-0.21 -0.6,-0.32 -1.07,-0.32 h -1.23"
           transform="translate(1.2974938,56.045783)" />
        <path
           id="text5880"
           style="fill:#000000"
           d="m -137.09,655.69 h 0.94 l 1.19,3.17 1.19,-3.17 h 0.94 v 4.65 h -0.62 v -4.08 l -1.2,3.19 h -0.63 l -1.2,-3.19 v 4.08 h -0.61 v -4.65 m 7.06,0.62 -0.85,2.32 h 1.71 l -0.86,-2.32 m -0.35,-0.62 h 0.71 l 1.77,4.65 h -0.65 l -0.43,-1.19 h -2.09 l -0.42,1.19 h -0.67 l 1.78,-4.65 m 3.16,0 h 0.85 l 2.06,3.89 v -3.89 h 0.61 v 4.65 h -0.85 l -2.06,-3.89 v 3.89 h -0.61 v -4.65 m 6.66,0.43 c -0.46,0 -0.82,0.17 -1.09,0.51 -0.27,0.34 -0.4,0.81 -0.4,1.39 0,0.59 0.13,1.05 0.4,1.39 0.27,0.34 0.63,0.51 1.09,0.51 0.45,0 0.82,-0.17 1.08,-0.51 0.27,-0.34 0.4,-0.8 0.4,-1.39 0,-0.58 -0.13,-1.05 -0.4,-1.39 -0.26,-0.34 -0.63,-0.51 -1.08,-0.51 m 0,-0.51 c 0.65,0 1.17,0.22 1.56,0.66 0.39,0.43 0.59,1.02 0.59,1.75 0,0.74 -0.2,1.32 -0.59,1.76 -0.39,0.44 -0.91,0.65 -1.56,0.65 -0.66,0 -1.18,-0.21 -1.57,-0.65 -0.39,-0.44 -0.59,-1.02 -0.59,-1.76 0,-0.73 0.2,-1.32 0.59,-1.75 0.39,-0.44 0.91,-0.66 1.57,-0.66 m 3.13,0.08 h 0.94 l 1.18,3.17 1.2,-3.17 h 0.93 v 4.65 h -0.61 v -4.08 l -1.2,3.19 h -0.63 l -1.2,-3.19 v 4.08 h -0.61 v -4.65 m 5.51,0 h 2.94 v 0.53 h -2.31 v 1.38 h 2.21 v 0.53 h -2.21 v 1.68 h 2.36 v 0.53 h -2.99 v -4.65 m 3.39,0 h 3.93 v 0.53 h -1.65 v 4.12 h -0.63 v -4.12 h -1.65 v -0.53 m 4.54,0 h 2.94 v 0.53 h -2.31 v 1.38 h 2.22 v 0.53 h -2.22 v 1.68 h 2.37 v 0.53 h -3 v -4.65 m 6.244,2.47 c 0.135,0.05 0.265,0.15 0.392,0.3 0.129,0.15 0.257,0.35 0.386,0.61 l 0.639,1.27 h -0.676 l -0.595,-1.19 c -0.154,-0.31 -0.303,-0.52 -0.448,-0.62 -0.144,-0.1 -0.34,-0.15 -0.589,-0.15 h -0.685 v 1.96 h -0.629 v -4.65 h 1.42 c 0.531,0 0.928,0.11 1.189,0.34 0.262,0.22 0.393,0.55 0.393,1 0,0.29 -0.069,0.54 -0.206,0.73 -0.135,0.19 -0.332,0.33 -0.591,0.4 m -1.576,-1.95 v 1.65 h 0.791 c 0.303,0 0.531,-0.07 0.685,-0.21 0.156,-0.14 0.234,-0.35 0.234,-0.62 0,-0.27 -0.078,-0.47 -0.234,-0.61 -0.154,-0.14 -0.382,-0.21 -0.685,-0.21 h -0.791"
           transform="translate(2.5000341,115.58576)" />
        <path
           id="path5908"
           inkscape:transform-center-x="6.2195572"
           style="fill:#aa0000;stroke-width:0"
           inkscape:transform-center-y="6.336091"
           d="m -104,653.23 -8.3,12.19 -1.06,1.55 c -2.56,-1.05 -5.57,-0.9 -8.09,0.68 -3.34,2.08 -4.78,6.02 -3.88,9.65 l -17.01,12.18 -18.47,13.25 20.01,-10.79 18.4,-9.95 c 2.87,2.38 7.04,2.82 10.37,0.73 2.52,-1.57 3.97,-4.22 4.15,-6.98 l 1.86,-0.27 14.575,-2.15 -6.28,-10.05 z"
           transform="rotate(-13.207644,125.984,697.5725)" />
        <circle
           id="path5783"
           style="fill:#c8b7b7"
           transform="matrix(0.61768,0,0,0.61768,-21.371506,261.79578)"
           cx="-152.24643"
           cy="759.98444"
           r="8.884407" />
        <circle
           id="path5915"
           style="fill:#000000"
           transform="matrix(0.1469,0,0,0.1469,-93.045506,619.58578)"
           cx="-152.24643"
           cy="759.98444"
           r="8.884407" />
      </g>
    </g>
  </g>
  <metadata
     id="metadata1">
    <rdf:RDF>
      <cc:Work>
        <dc:format>image/svg+xml</dc:format>
        <dc:type
           rdf:resource="http://purl.org/dc/dcmitype/StillImage" />
        <cc:license
           rdf:resource="http://creativecommons.org/publicdomain/zero/1.0/" />
        <dc:publisher>
          <cc:Agent
             rdf:about="http://openclipart.org/">
            <dc:title>Openclipart</dc:title>
          </cc:Agent>
        </dc:publisher>
        <dc:date>2009-05-26T12:29:17</dc:date>
        <dc:description>manometer to measure the pressure inside the beer bottles after priming.</dc:description>
        <dc:source>https://openclipart.org/detail/26252/homebrewing-manometer-by-stefanolmo</dc:source>
        <dc:creator>
          <cc:Agent>
            <dc:title>stefanolmo</dc:title>
          </cc:Agent>
        </dc:creator>
        <dc:subject>
          <rdf:Bag>
            <rdf:li>beer</rdf:li>
            <rdf:li>brewing</rdf:li>
            <rdf:li>homebrewing</rdf:li>
            <rdf:li>manometer</rdf:li>
          </rdf:Bag>
        </dc:subject>
      </cc:Work>
      <cc:License
         rdf:about="http://creativecommons.org/publicdomain/zero/1.0/">
        <cc:permits
           rdf:resource="http://creativecommons.org/ns#Reproduction" />
        <cc:permits
           rdf:resource="http://creativecommons.org/ns#Distribution" />
        <cc:permits
           rdf:resource="http://creativecommons.org/ns#DerivativeWorks" />
      </cc:License>
    </rdf:RDF>
  </metadata>
</svg>
