<?xml version="1.0" encoding="UTF-8" standalone="no"?>
<svg
   version="1.1"
   id="Layer_1"
   x="0px"
   y="0px"
   viewBox="0 0 128 128"
   enable-background="new 0 0 2193.5505 1994.2324"
   xml:space="preserve"
   sodipodi:docname="prise_fiche_2.svg"
   width="128"
   height="128"
   inkscape:version="1.3.2 (091e20ef0f, 2023-11-25)"
   xmlns:inkscape="http://www.inkscape.org/namespaces/inkscape"
   xmlns:sodipodi="http://sodipodi.sourceforge.net/DTD/sodipodi-0.dtd"
   xmlns="http://www.w3.org/2000/svg"
   xmlns:svg="http://www.w3.org/2000/svg"
   xmlns:rdf="http://www.w3.org/1999/02/22-rdf-syntax-ns#"
   xmlns:cc="http://creativecommons.org/ns#"
   xmlns:dc="http://purl.org/dc/elements/1.1/">
  <metadata
   id="metadata13">
    <rdf:RDF>
      <cc:Work
   rdf:about="">
        <dc:format>
          image/svg+xml
        </dc:format>
        <dc:type
   rdf:resource="http://purl.org/dc/dcmitype/StillImage" />
        
      </cc:Work>
    </rdf:RDF>
  </metadata>
  <defs
   id="defs11" />
  <sodipodi:namedview
   pagecolor="#757575"
   bordercolor="#4d4d4d"
   borderopacity="0.50588235"
   objecttolerance="10"
   gridtolerance="10"
   guidetolerance="10"
   inkscape:pageopacity="0"
   inkscape:pageshadow="2"
   inkscape:window-width="1920"
   inkscape:window-height="1043"
   id="namedview9"
   showgrid="false"
   fit-margin-top="0"
   fit-margin-left="0"
   fit-margin-right="0"
   fit-margin-bottom="0"
   inkscape:zoom="1.4142136"
   inkscape:cx="152.73506"
   inkscape:cy="125.51145"
   inkscape:window-x="0"
   inkscape:window-y="0"
   inkscape:window-maximized="1"
   inkscape:current-layer="g6"
   inkscape:showpageshadow="2"
   inkscape:pagecheckerboard="true"
   inkscape:deskcolor="#535353" />
  <g
   id="g6"
   transform="matrix(0.04833493,0,0,0.04833493,10.987447,15.804453)"
   class="WTD-ActiveStrokeColor"
   style="stroke-width:0.993071;stroke-dasharray:none">
    <path
   d="m 1958.2777,1097.3239 13.8962,0.3253 6e-4,-523.70911 c 0,-99.05228 -43.5456,-185.97535 -95.0257,-267.24629 C 1749.6401,105.39592 1549.7751,41.070451 1359.515,108.47648 1147.2384,183.68274 1004.6201,402.90867 1004.6201,648.21472 V 1688.9214 c 0,74.5528 -22.45688,147.3187 -65.02251,205.3361 -134.00935,182.655 -414.07847,170.2478 -496.76469,-87.8392 -10.85722,-33.8883 -16.10381,-69.6445 -16.10381,-105.5755 v -602.8769 c 0,-24.6874 13.43872,-47.0205 34.14784,-56.5393 C 744.36853,911.11936 881.24763,659.32486 852.94786,270.6596 855.75938,116.62236 779.9844,43.35637 639.83848,36.250676 h -3.83975 V -223.50006 c 0,-57.14925 -42.11904,-103.47783 -94.07526,-103.47783 h -2.6e-4 c -51.95623,0 -94.07502,46.32858 -94.07502,103.47783 V 36.250676 H 179.06163 V -223.50006 c 0,-57.14925 -42.11904,-103.47783 -94.075273,-103.47783 -51.95661,0 -94.0752667,46.32858 -94.0752667,103.47783 V 36.250676 H -66.686224 C -192.56143,69.439587 -233.02902,164.93204 -226.68585,308.67167 c 1.36563,30.94509 0,123.92678 0,123.92678 0,141.81442 44.2034,279.71901 126.57127,388.81998 78.907526,104.51731 180.371593,182.17167 305.44091,231.74487 22.20275,8.8004 37.09184,31.8433 37.09184,57.8022 0,0 0,456.8754 0,609.1669 0,12.7444 2.76058,25.1954 3.87187,37.8809 54.03751,616.879 869.39756,622.5107 934.99886,6.3514 1.7356,-16.3018 5.7225,-32.2227 5.7225,-48.636 V 634.50329 c 0,-45.49058 8.1218,-90.60454 24.4006,-132.42281 122.4219,-314.48692 503.8101,-296.80892 567.8381,35.34375 4.6107,23.91669 6.7712,48.32968 6.7712,72.77772 V 1093.294 h 6e-4 c -274.5255,39.9509 -486.3762,298.3937 -486.3762,611.273 0,340.5627 250.9945,616.6435 560.6119,616.6435 309.6174,0 560.6118,-276.0808 560.6118,-616.6435 2e-4,-303.7825 -199.7093,-556.2518 -462.5917,-607.2431 z m -98.0201,1078.1726 c -236.4544,0 -428.1388,-210.8424 -428.1388,-470.9297 0,-260.0874 191.6844,-470.93 428.1388,-470.93 236.4544,0 428.1387,210.8424 428.1387,470.93 0,260.0875 -191.6843,470.9297 -428.1387,470.9297 z"
   id="path2"
   inkscape:connector-curvature="0"
   style="fill:#a52a2a;fill-opacity:1;stroke-width:1.33314;stroke-dasharray:none" />
    <path
   d="m 1789.6653,1366.0949 h 158.0236 c 25.0698,0 42.9606,26.7239 35.5197,53.0568 l -63.5144,224.7753 107.1619,1.1387 c 28.0964,0.2988 43.4674,36.143 25.8072,60.1814 l -272.739,371.2401 c -14.578,19.8427 -43.2392,2.2545 -35.5455,-21.813 l 80.5954,-252.1203 -84.2667,-1.9722 c -19.4176,-0.4545 -34.3468,-19.0375 -32.3573,-40.2883 7.449,-79.5652 24.2152,-259.0152 31.9816,-345.0566 2.5178,-27.893 23.8504,-49.1419 49.3335,-49.1419 z"
   id="path4"
   inkscape:connector-curvature="0"
   style="fill:#a52a2a;fill-opacity:1;stroke-width:1.33314;stroke-dasharray:none" />
  </g>
  <script
   type="text/javascript"
   id="SetMode">
    { console.log('Appel au svg avec mode='+mode);
    targets = this.getElementsByClassName('WTD-ActiveFillColor');
    for (target of targets)
    { var chg_matrice = { fill: [ this.currentColor, color ] };                                   /* Matrice de changement */
    var chg_timing  = { duration: 500, fill: 'forwards' };                                       /* Timing de changement */
    target.animate ( chg_matrice, chg_timing );                                                          /* Go Animate ! */
    }

    targets = this.getElementsByClassName('WTD-ActiveStrokeColor');
    for (target of targets)
    { var chg_matrice = { stroke: [ this.currentColor, color ] };                                 /* Matrice de changement */
    var chg_timing  = { duration: 500, fill: 'forwards' };                                       /* Timing de changement */
    target.animate ( chg_matrice, chg_timing );                                                          /* Go Animate ! */
    }
    this.currentColor = color;
    }
  </script>
</svg>
