<?xml version="1.0" encoding="UTF-8" standalone="no"?>
<!-- Generator: Adobe Illustrator 16.0.0, SVG Export Plug-In . SVG Version: 6.00 Build 0)  -->

<svg
   version="1.1"
   x="0px"
   y="0px"
   width="239.87988"
   height="464.06451"
   viewBox="0 0 239.87988 464.06451"
   enable-background="new 0 0 248 775"
   xml:space="preserve"
   id="svg76"
   sodipodi:docname="bache2_0.svg"
   inkscape:version="1.3 (0e150ed6c4, 2023-07-21)"
   xmlns:inkscape="http://www.inkscape.org/namespaces/inkscape"
   xmlns:sodipodi="http://sodipodi.sourceforge.net/DTD/sodipodi-0.dtd"
   xmlns="http://www.w3.org/2000/svg"
   xmlns:svg="http://www.w3.org/2000/svg"><defs
   id="defs76">&#10;	&#10;	&#10;	&#10;	&#10;	&#10;	&#10;	&#10;	&#10;	&#10;	&#10;	&#10;	&#10;	&#10;	&#10;	&#10;	&#10;	&#10;	&#10;	&#10;	&#10;	&#10;	&#10;	&#10;	&#10;	&#10;	&#10;	&#10;	&#10;	&#10;		&#10;	&#10;		&#10;	&#10;		&#10;	&#10;		&#10;	&#10;		&#10;	&#10;		&#10;	&#10;		&#10;	&#10;		&#10;	&#10;		&#10;	&#10;		&#10;	&#10;		&#10;	&#10;		&#10;	&#10;		&#10;	&#10;		&#10;	&#10;		&#10;	&#10;		&#10;	&#10;		&#10;	&#10;		&#10;	&#10;		&#10;	&#10;		&#10;	&#10;	&#10;	&#10;	&#10;	&#10;	&#10;	&#10;	&#10;	&#10;	&#10;	&#10;	&#10;	&#10;	&#10;	&#10;	&#10;	&#10;	&#10;	&#10;	&#10;	&#10;	&#10;	&#10;	&#10;	&#10;	&#10;	&#10;	&#10;	&#10;	&#10;</defs><sodipodi:namedview
   id="namedview76"
   pagecolor="#505050"
   bordercolor="#ffffff"
   borderopacity="1"
   inkscape:showpageshadow="0"
   inkscape:pageopacity="0"
   inkscape:pagecheckerboard="1"
   inkscape:deskcolor="#505050"
   inkscape:zoom="1.7346726"
   inkscape:cx="119.90735"
   inkscape:cy="232.03226"
   inkscape:window-width="1920"
   inkscape:window-height="1011"
   inkscape:window-x="0"
   inkscape:window-y="0"
   inkscape:window-maximized="1"
   inkscape:current-layer="svg76" />&#10;<path
   stroke="#a89187"
   stroke-width="3"
   stroke-linecap="round"
   stroke-linejoin="round"
   d="m 21.14984,315.28051 c -5.385,3.138 -10.77,6.275 -16.155,9.413 77.328,0 154.655,0 231.983,0 -7.277,-2.836 -17.478,-4.783 -23.628,-9.586 -4.938,-3.855 -17.4,-1.339 -23.934,-1.339 -20.35,0 -40.699,0 -61.05,0 -18.669,0 -37.339,0 -56.009,0 -16.111,-10e-4 -35.529,-3.102 -51.207,1.512 z"
   id="path7" /><rect
   style="fill:#00a0c6;fill-opacity:1;stroke:#000000;stroke-width:7;stroke-dasharray:none"
   id="rect76"
   width="228.74596"
   height="425.20923"
   x="3.5"
   y="3.5"
   rx="20.000002"
   ry="20" /><rect
   style="fill:#4c717a;fill-opacity:1;stroke:none;stroke-width:7.00002;stroke-dasharray:none"
   id="rect76-3"
   width="222.37454"
   height="404.61188"
   x="6.8240948"
   y="7.1447058"
   rx="16.6"
   ry="16.6" /><path
   fill="#9b6d5d"
   stroke="#000000"
   stroke-width="3"
   stroke-linecap="round"
   stroke-linejoin="round"
   d="m 4.99484,432.69251 c 69.39,0 138.779,0 208.17,0 3.842,0 21.099,-2.661 24.162,0 2.368,2.057 0,20.269 0,23.64 0,4.436 1.532,6.232 -2.733,6.232 -33.636,0 -67.272,0 -100.908,0 -34.843,0 -69.686,0 -104.528,0 -7.821,0 -15.643,0 -23.464,0 -1.495,0 -0.699,-26.311 -0.699,-29.872 z"
   id="path8" /><path
   fill="#5fcdff"
   stroke="#ffffff"
   stroke-width="4"
   stroke-linecap="round"
   stroke-linejoin="round"
   d="m 37.645717,396.49831 c 20.338,-4.15929 127.254003,-9.48847 189.026003,6.83988 0,0 -13.688,9.1713 -30.438,11.60567 -16.75,2.43437 -107.354003,6.06923 -135.177003,3.38308 -27.823,-2.68615 -50.573,-12.77278 -50.573,-12.77278 0,0 6.824,-4.89656 27.162,-9.05585 z"
   id="path49" /><g
   id="g51"
   transform="translate(-2.2276936,0.02921566)">&#10;		<path
   fill="#ffffff"
   d="m 58.229,15.386 c 0,0 1.961,-0.371 5.398,-0.95 1.718,-0.288 3.805,-0.639 6.202,-1.001 1.198,-0.186 2.473,-0.383 3.816,-0.592 0.671,-0.108 1.365,-0.145 2.077,-0.165 0.711,-0.038 1.438,-0.077 2.182,-0.116 2.974,-0.165 6.195,-0.343 9.603,-0.531 1.704,-0.094 3.454,-0.191 5.243,-0.29 1.791,-0.065 3.621,-0.131 5.482,-0.199 1.861,-0.067 3.753,-0.135 5.668,-0.204 1.915,-0.078 3.854,-0.142 5.811,-0.146 3.913,-0.034 7.888,-0.113 11.862,-0.112 3.974,0.058 7.948,0.116 11.86,0.173 3.908,0.105 7.752,0.276 11.473,0.405 3.724,0.114 7.313,0.323 10.718,0.502 3.405,0.18 6.624,0.351 9.596,0.508 0.743,0.041 1.47,0.08 2.181,0.119 0.712,0.01 1.405,0.056 2.078,0.168 1.346,0.2 2.622,0.391 3.821,0.569 2.397,0.371 4.488,0.694 6.209,0.96 3.441,0.554 5.404,0.903 5.404,0.903 0,0 -1.993,0.104 -5.475,0.229 -1.74,0.052 -3.854,0.114 -6.277,0.187 -1.211,0.029 -2.5,0.061 -3.858,0.094 -0.68,0.029 -1.373,-0.011 -2.08,-0.089 -0.709,-0.062 -1.436,-0.104 -2.177,-0.145 -2.965,-0.157 -6.177,-0.327 -9.575,-0.507 -3.397,-0.179 -6.98,-0.388 -10.686,-0.501 -3.706,-0.128 -7.536,-0.299 -11.427,-0.403 -3.891,-0.057 -7.843,-0.114 -11.795,-0.172 -3.952,-10e-4 -7.904,0.078 -11.794,0.112 -1.945,0.004 -3.875,0.068 -5.781,0.146 -1.906,0.069 -3.79,0.137 -5.642,0.204 -1.853,0.067 -3.674,0.133 -5.457,0.198 -1.782,0.099 -3.525,0.195 -5.223,0.289 -3.395,0.188 -6.604,0.365 -9.566,0.529 -1.483,0.03 -2.896,0.292 -4.255,0.268 -1.359,-0.025 -2.649,-0.049 -3.861,-0.071 -2.423,-0.035 -4.538,-0.101 -6.279,-0.154 -3.482,-0.113 -5.476,-0.215 -5.476,-0.215 z"
   id="path51" />&#10;	</g><path
   fill="none"
   d="m 112.61884,150.70651 c 8.772,-0.803 9.491,13.631 0.581,14.412 -9.341,0.819 -10.673,-14.175 -1.046,-14.412"
   id="path52" /><path
   fill="none"
   d="m 131.91184,172.09251 c 11.777,-0.966 12.044,19.061 -0.232,19.061 -11.693,0 -12.345,-17.563 -0.813,-19.061"
   id="path53" /><path
   fill="none"
   d="m 153.41284,166.39651 c 5.84,0.357 5.739,9.569 0,9.88 -5.527,0.299 -7.17,-8.9 -1.278,-9.88"
   id="path54" /><path
   fill="none"
   d="m 65.08284,239.50251 c 5.931,0.427 5.621,9.741 -0.581,8.947 -5.575,-0.713 -4.69,-8.414 0.581,-8.947 z"
   id="path56" /><path
   fill="#ffffff"
   stroke="#ffffff"
   stroke-width="3"
   stroke-linecap="round"
   stroke-linejoin="round"
   d="m 199.36903,14.877462 c 4.592,0.373 6.263,-2.197 10.25,0.382 3.212,2.078 4.354,5.475 5.574,8.912 2.677,7.546 2.713,15.214 1.145,23.132 -3.61,-10.108 -7.13,-26.667 -16.969,-32.426 z"
   id="path74" /><path
   fill="#ffffff"
   stroke="#ffffff"
   stroke-width="3"
   stroke-linecap="round"
   stroke-linejoin="round"
   d="m 23.312502,48.998535 c -0.129,-8.019 1.417,-42.9769995 16.969,-35.797 -12.724,10.815 -13.866,28.997 -16.969,44.165 0,-2.789 0,-5.578 0,-8.368 z"
   id="path75" /><path
   fill="#ffffff"
   stroke="#ffffff"
   stroke-width="2.99999"
   stroke-linecap="round"
   stroke-linejoin="round"
   d="m 29.186317,390.86122 c -10.886,-10.66364 -10.705,-28.20267 -10.683,-44.86538 0.038,-28.52422 0.075,-57.04844 0.112,-85.57266 0.076,-57.51491 0.151,-115.02981 0.227,-172.544707 1.272,59.607057 2.544,119.215487 3.815,178.822547 0.595,27.86042 1.189,55.71945 1.784,83.57987 0.479,22.46443 4.948,36.52851 20.203,45.5554 -6.325,-0.44299 -9.831,-1.3207 -15.458,-4.97507 z"
   id="path76" />&#10;</svg>
