<?xml version="1.0" encoding="UTF-8" standalone="no"?>
<!-- Generator: Adobe Illustrator 22.1.0, SVG Export Plug-In . SVG Version: 6.00 Build 0)  -->

<svg
   version="1.1"
   id="Calque_3"
   x="0px"
   y="0px"
   viewBox="0 0 128 128"
   style="enable-background:new 0 0 128 128;"
   xml:space="preserve"
   sodipodi:docname="syn_congelateur.svg"
   inkscape:version="1.2.2 (b0a8486541, 2022-12-01)"
   xmlns:inkscape="http://www.inkscape.org/namespaces/inkscape"
   xmlns:sodipodi="http://sodipodi.sourceforge.net/DTD/sodipodi-0.dtd"
   xmlns:xlink="http://www.w3.org/1999/xlink"
   xmlns="http://www.w3.org/2000/svg"
   xmlns:svg="http://www.w3.org/2000/svg"><defs
   id="defs911" /><sodipodi:namedview
   id="namedview909"
   pagecolor="#ffffff"
   bordercolor="#666666"
   borderopacity="1.0"
   inkscape:showpageshadow="2"
   inkscape:pageopacity="0.0"
   inkscape:pagecheckerboard="0"
   inkscape:deskcolor="#d1d1d1"
   showgrid="false"
   inkscape:zoom="6.109375"
   inkscape:cx="55.815857"
   inkscape:cy="58.925831"
   inkscape:window-width="1920"
   inkscape:window-height="1043"
   inkscape:window-x="0"
   inkscape:window-y="0"
   inkscape:window-maximized="1"
   inkscape:current-layer="g822" />
<style
   type="text/css"
   id="style2">
	.st0{fill:none;}
	.st1{fill:#572A2D;}
	.st2{display:none;}
	.st3{display:inline;fill:url(#SVGID_1_);}
	.st4{display:inline;fill:#1B681F;}
	.st5{display:inline;fill:#114F12;}
	.st6{display:inline;fill:#1E7224;}
	.st7{display:inline;fill:#2B892F;}
	.st8{display:inline;fill:#33322D;}
	.st9{display:inline;fill:#2A912F;}
	.st10{fill:#184655;}
	.st11{fill:url(#SVGID_2_);}
	.st12{fill:url(#SVGID_3_);}
	.st13{fill:url(#SVGID_4_);}
	.st14{display:none;fill:#666666;}
	.st15{fill:#FFFFFF;}
	.st16{display:none;fill:url(#SVGID_6_);}
	.st17{fill:#4D4D4D;}
	.st18{fill:url(#SVGID_7_);}
	.st19{fill:#1A1A1A;}
	.st20{opacity:0;fill:#FFFFFF;}
	.st21{opacity:1.298701e-02;fill:#FEFEFE;}
	.st22{opacity:2.597403e-02;fill:#FDFDFD;}
	.st23{opacity:3.896104e-02;fill:#FCFCFC;}
	.st24{opacity:5.194805e-02;fill:#FBFBFB;}
	.st25{opacity:6.493507e-02;fill:#FAFAFA;}
	.st26{opacity:7.792208e-02;fill:#F9F9F9;}
	.st27{opacity:9.090909e-02;fill:#F8F8F8;}
	.st28{opacity:0.1039;fill:#F7F7F7;}
	.st29{opacity:0.1169;fill:#F6F6F6;}
	.st30{opacity:0.1299;fill:#F5F5F5;}
	.st31{opacity:0.1429;fill:#F4F4F4;}
	.st32{opacity:0.1558;fill:#F3F3F3;}
	.st33{opacity:0.1688;fill:#F2F2F2;}
	.st34{opacity:0.1818;fill:#F1F1F1;}
	.st35{opacity:0.1948;fill:#F0F0F0;}
	.st36{opacity:0.2078;fill:#EFEFEF;}
	.st37{opacity:0.2208;fill:#EEEEEE;}
	.st38{opacity:0.2338;fill:#EDEDED;}
	.st39{opacity:0.2468;fill:#ECECEC;}
	.st40{opacity:0.2597;fill:#EBEBEB;}
	.st41{opacity:0.2727;fill:#EAEAEA;}
	.st42{opacity:0.2857;fill:#E9E9E9;}
	.st43{opacity:0.2987;fill:#E8E8E8;}
	.st44{opacity:0.3117;fill:#E7E7E7;}
	.st45{opacity:0.3247;fill:#E6E6E6;}
	.st46{opacity:0.3377;fill:#E5E5E5;}
	.st47{opacity:0.3506;fill:#E4E4E4;}
	.st48{opacity:0.3636;fill:#E3E3E3;}
	.st49{opacity:0.3766;fill:#E2E2E2;}
	.st50{opacity:0.3896;fill:#E1E1E1;}
	.st51{opacity:0.4026;fill:#E0E0E0;}
	.st52{opacity:0.4156;fill:#DFDFDF;}
	.st53{opacity:0.4286;fill:#DEDEDE;}
	.st54{opacity:0.4416;fill:#DDDDDD;}
	.st55{opacity:0.4545;fill:#DCDCDC;}
	.st56{opacity:0.4675;fill:#DBDBDB;}
	.st57{opacity:0.4805;fill:#DADADA;}
	.st58{opacity:0.4935;fill:#D9D9D9;}
	.st59{opacity:0.5065;fill:#D9D9D9;}
	.st60{opacity:0.5195;fill:#D8D8D8;}
	.st61{opacity:0.5325;fill:#D7D7D7;}
	.st62{opacity:0.5455;fill:#D6D6D6;}
	.st63{opacity:0.5584;fill:#D5D5D5;}
	.st64{opacity:0.5714;fill:#D4D4D4;}
	.st65{opacity:0.5844;fill:#D3D3D3;}
	.st66{opacity:0.5974;fill:#D2D2D2;}
	.st67{opacity:0.6104;fill:#D1D1D1;}
	.st68{opacity:0.6234;fill:#D0D0D0;}
	.st69{opacity:0.6364;fill:#CFCFCF;}
	.st70{opacity:0.6494;fill:#CECECE;}
	.st71{opacity:0.6623;fill:#CDCDCD;}
	.st72{opacity:0.6753;fill:#CCCCCC;}
	.st73{opacity:0.6883;fill:#CBCBCB;}
	.st74{opacity:0.7013;fill:#CACACA;}
	.st75{opacity:0.7143;fill:#C9C9C9;}
	.st76{opacity:0.7273;fill:#C8C8C8;}
	.st77{opacity:0.7403;fill:#C7C7C7;}
	.st78{opacity:0.7532;fill:#C6C6C6;}
	.st79{opacity:0.7662;fill:#C5C5C5;}
	.st80{opacity:0.7792;fill:#C4C4C4;}
	.st81{opacity:0.7922;fill:#C3C3C3;}
	.st82{opacity:0.8052;fill:#C2C2C2;}
	.st83{opacity:0.8182;fill:#C1C1C1;}
	.st84{opacity:0.8312;fill:#C0C0C0;}
	.st85{opacity:0.8442;fill:#BFBFBF;}
	.st86{opacity:0.8571;fill:#BEBEBE;}
	.st87{opacity:0.8701;fill:#BDBDBD;}
	.st88{opacity:0.8831;fill:#BCBCBC;}
	.st89{opacity:0.8961;fill:#BBBBBB;}
	.st90{opacity:0.9091;fill:#BABABA;}
	.st91{opacity:0.9221;fill:#B9B9B9;}
	.st92{opacity:0.9351;fill:#B8B8B8;}
	.st93{opacity:0.9481;fill:#B7B7B7;}
	.st94{opacity:0.961;fill:#B6B6B6;}
	.st95{opacity:0.974;fill:#B5B5B5;}
	.st96{opacity:0.987;fill:#B4B4B4;}
	.st97{fill:#B3B3B3;}
	.st98{opacity:3.571429e-02;fill:#FCFCFC;}
	.st99{opacity:7.142857e-02;fill:#FAFAFA;}
	.st100{opacity:0.1071;fill:#F7F7F7;}
	.st101{opacity:0.1786;fill:#F1F1F1;}
	.st102{opacity:0.2143;fill:#EFEFEF;}
	.st103{opacity:0.25;fill:#ECECEC;}
	.st104{opacity:0.3214;fill:#E7E7E7;}
	.st105{opacity:0.3571;fill:#E4E4E4;}
	.st106{opacity:0.3929;fill:#E1E1E1;}
	.st107{opacity:0.4643;fill:#DCDCDC;}
	.st108{opacity:0.5;fill:#D9D9D9;}
	.st109{opacity:0.5357;fill:#D6D6D6;}
	.st110{opacity:0.6071;fill:#D1D1D1;}
	.st111{opacity:0.6429;fill:#CECECE;}
	.st112{opacity:0.6786;fill:#CBCBCB;}
	.st113{opacity:0.75;fill:#C6C6C6;}
	.st114{opacity:0.7857;fill:#C3C3C3;}
	.st115{opacity:0.8214;fill:#C1C1C1;}
	.st116{opacity:0.8929;fill:#BBBBBB;}
	.st117{opacity:0.9286;fill:#B8B8B8;}
	.st118{opacity:0.9643;fill:#B6B6B6;}
	.st119{opacity:3.225806e-02;fill:#FAFAFA;}
	.st120{opacity:6.451613e-02;fill:#F5F5F5;}
	.st121{opacity:9.677419e-02;fill:#F0F0F0;}
	.st122{opacity:0.129;fill:#EBEBEB;}
	.st123{opacity:0.1613;fill:#E6E6E6;}
	.st124{opacity:0.1935;fill:#E1E1E1;}
	.st125{opacity:0.2258;fill:#DCDCDC;}
	.st126{opacity:0.2581;fill:#D8D8D8;}
	.st127{opacity:0.2903;fill:#D3D3D3;}
	.st128{opacity:0.3226;fill:#CECECE;}
	.st129{opacity:0.3548;fill:#C9C9C9;}
	.st130{opacity:0.3871;fill:#C4C4C4;}
	.st131{opacity:0.4194;fill:#BFBFBF;}
	.st132{opacity:0.4516;fill:#BABABA;}
	.st133{opacity:0.4839;fill:#B5B5B5;}
	.st134{opacity:0.5161;fill:#B0B0B0;}
	.st135{opacity:0.5484;fill:#ABABAB;}
	.st136{opacity:0.5806;fill:#A6A6A6;}
	.st137{opacity:0.6129;fill:#A1A1A1;}
	.st138{opacity:0.6452;fill:#9C9C9C;}
	.st139{opacity:0.6774;fill:#979797;}
	.st140{opacity:0.7097;fill:#929292;}
	.st141{opacity:0.7419;fill:#8D8D8D;}
	.st142{opacity:0.7742;fill:#898989;}
	.st143{opacity:0.8065;fill:#848484;}
	.st144{opacity:0.8387;fill:#7F7F7F;}
	.st145{opacity:0.871;fill:#7A7A7A;}
	.st146{opacity:0.9032;fill:#757575;}
	.st147{opacity:0.9355;fill:#707070;}
	.st148{opacity:0.9677;fill:#6B6B6B;}
	.st149{fill:#666666;}
	.st150{fill:#CCCCCC;}
	.st151{fill:url(#SVGID_8_);}
	.st152{fill:url(#SVGID_9_);}
	.st153{fill:url(#SVGID_10_);}
	.st154{fill:url(#SVGID_11_);}
	.st155{fill:url(#SVGID_12_);}
	.st156{fill:url(#SVGID_13_);}
	.st157{fill:url(#SVGID_14_);}
	.st158{fill:#29ABE2;}
</style>
<pattern
   y="128"
   width="32.2"
   height="34.5"
   patternUnits="userSpaceOnUse"
   id="SVGID_5_"
   viewBox="0 -34.5 32.2 34.5"
   style="overflow:visible;">
	<g
   id="g20">
		<rect
   y="-34.5"
   class="st0"
   width="32.2"
   height="34.5"
   id="rect4" />
		<g
   id="g18">
			<rect
   y="-34.5"
   class="st0"
   width="32.2"
   height="34.5"
   id="rect6" />
			<g
   id="g16">
				<rect
   y="-34.5"
   class="st0"
   width="32.2"
   height="34.5"
   id="rect8" />
				<g
   id="g14">
					<rect
   y="-34.5"
   class="st0"
   width="32.2"
   height="34.5"
   id="rect10" />
					<rect
   y="-34.5"
   class="st1"
   width="32.2"
   height="34.5"
   id="rect12" />
				</g>
			</g>
		</g>
	</g>
</pattern>
<g
   id="g60">
	<g
   id="g58">
		<g
   id="g56">
			<g
   id="g54">
				<g
   class="st2"
   id="g52">
					<pattern
   id="SVGID_1_"
   xlink:href="#SVGID_5_"
   patternTransform="matrix(1.7808 0 0 -1.6549 12481.9463 -26075.9785)">
					</pattern>
					<path
   class="st3"
   d="M11.1,68.1L11,68.2H3.9c-0.1,0-0.1,0-0.1-0.1L2.7,59c0-0.1,0-0.1,0.1-0.1H12c0.1,0,0.1,0.1,0.1,0.1       L11.1,68.1z"
   id="path24" />
					<path
   class="st4"
   d="M4.8,40.6c-0.8-3.3-0.6-7.5,0.9-7.8c1.4-0.3,3.6,3.5,4.4,6.7c0.8,3.3-0.1,4.8-1.5,5.1       C7.1,44.9,5.6,43.8,4.8,40.6z"
   id="path26" />
					<path
   class="st5"
   d="M8.5,58.7L8.5,58.7c-0.1,0-0.2-0.1-0.2-0.3c0.8-3.6,1.1-7.4,0.8-11.1c-0.3-3.8-1.2-7.4-2.7-10.9       c0-0.1,0-0.2,0.1-0.3c0.1,0,0.3,0,0.3,0.1c1.5,3.5,2.4,7.2,2.7,11s0.1,7.6-0.8,11.3C8.7,58.6,8.6,58.7,8.5,58.7z"
   id="path28" />
					<path
   class="st6"
   d="M0.1,41.3c-1.4-3.1-2-7.3-0.7-7.8C0.8,33,3.6,36.3,5,39.4c1.4,3.1,0.8,4.7-0.5,5.2       C3.1,45.2,1.5,44.4,0.1,41.3z"
   id="path30" />
					<path
   class="st6"
   d="M-0.1,48.5c-1.8-2.1-3.2-5.2-2.3-5.9s3.9,1.3,5.6,3.4C5,48.1,5,49.5,4,50.1C3.1,50.8,1.7,50.5-0.1,48.5z"
   id="path32" />
					<path
   class="st6"
   d="M16.9,48.5c2.2-1.9,4.2-4.9,3.4-5.8c-0.8-0.8-4.2,0.8-6.4,2.7s-2.4,3.3-1.5,4.2       C13.1,50.4,14.7,50.4,16.9,48.5z"
   id="path34" />
					<path
   class="st7"
   d="M12.7,42.4c1-3.2,1.2-7.5-0.3-7.8C11,34.2,8.6,37.8,7.5,41c-1,3.2-0.3,4.8,1.1,5.2       C10.1,46.5,11.7,45.6,12.7,42.4z"
   id="path36" />
					<path
   class="st5"
   d="M8.9,58.7L8.9,58.7c-0.1,0-0.2-0.1-0.2-0.2c0.2-2.7,1.1-5.4,2.6-7.9c1.5-2.4,3.6-4.5,6-6       c0.1-0.1,0.2,0,0.3,0.1c0.1,0.1,0,0.2-0.1,0.3c-2.4,1.5-4.4,3.5-5.9,5.9s-2.4,5-2.6,7.7C9.1,58.7,9,58.7,8.9,58.7z"
   id="path38" />
					<path
   class="st5"
   d="M7.1,58.5L7.1,58.5c-0.1,0-0.2-0.1-0.2-0.2c0.1-3.7-0.3-7.5-1.4-11.1c-1-3.6-2.7-7.1-4.8-10.2       c-0.1-0.1,0-0.2,0.1-0.3s0.2,0,0.3,0.1c2.1,3.2,3.8,6.7,4.8,10.4c1.1,3.7,1.5,7.5,1.4,11.2C7.4,58.4,7.3,58.5,7.1,58.5z"
   id="path40" />
					<path
   class="st5"
   d="M7.7,58.6L7.7,58.6c-0.1,0-0.2-0.1-0.2-0.2l0.9-9.2c0.3-3.2,0.6-6.5,1.8-9.7c0-0.1,0.2-0.2,0.3-0.1       c0.1,0,0.2,0.2,0.1,0.3c-1.1,3.1-1.5,6.4-1.8,9.5l-0.9,9.2C7.9,58.5,7.8,58.6,7.7,58.6z"
   id="path42" />
					<path
   class="st5"
   d="M6.9,58.8c-0.1,0-0.2-0.1-0.2-0.2c-0.3-4.7-2.6-9.2-6.2-12.5c-0.1-0.1-0.1-0.2,0-0.3s0.2-0.1,0.3,0       c3.7,3.3,6,8,6.3,12.8C7.1,58.7,7,58.8,6.9,58.8L6.9,58.8z"
   id="path44" />
					<path
   class="st8"
   d="M12.4,59.2c0,0.1-0.1,0.1-0.1,0.1H2.6c-0.1,0-0.1,0-0.1-0.1v-1.5c0-0.1,0.1-0.1,0.1-0.1h9.7       c0.1,0,0.1,0,0.1,0.1V59.2z"
   id="path46" />
					<path
   class="st9"
   d="M-2,53.3c-1,2.5-1.3,5.9,0.1,6.4s3.7-2.2,4.7-4.7C3.8,52.6-0.9,50.8-2,53.3z"
   id="path48" />
					<path
   class="st4"
   d="M-1.4,57.5l0.1-0.4c0.5-1.4,0.9-2.4,1.3-3.2c0.5-0.9,0.9-1.4,1.4-1.6c0.5-0.2,1-0.1,1.7,0.2       C4.2,53,5,54,5.5,55.4C5.8,56,6,56.8,6,57.6H5.6c-0.2-1.8-1-4-2.7-4.8c-0.6-0.2-1-0.3-1.3-0.1c-0.9,0.4-1.5,1.9-2.5,4.6       L-1,57.6c0,0.1-0.2,0.2-0.3,0.1C-1.4,57.7-1.5,57.6-1.4,57.5z"
   id="path50" />
				</g>
			</g>
		</g>
	</g>
</g>
<g
   id="g906">
	<path
   class="st10"
   d="M128,64c0,35.3-28.7,64-64,64C28.7,128,0,99.3,0,64C0,28.7,28.7,0,64,0C99.3,0,128,28.7,128,64z"
   id="path62" />
	<g
   id="g78">
		
			<linearGradient
   id="SVGID_2_"
   gradientUnits="userSpaceOnUse"
   x1="126.7236"
   y1="107.9805"
   x2="126.7236"
   y2="107.9805"
   gradientTransform="matrix(0.9974 -0.103 0.1027 0.9947 -101.1389 3.519)">
			<stop
   offset="0"
   style="stop-color:#1C1B19;stop-opacity:0"
   id="stop64" />
			<stop
   offset="1"
   style="stop-color:#33322D"
   id="stop66" />
		</linearGradient>
		<path
   class="st11"
   d="M36.3,97.9"
   id="path69" />
		
			<linearGradient
   id="SVGID_3_"
   gradientUnits="userSpaceOnUse"
   x1="223.369"
   y1="104.5101"
   x2="163.6897"
   y2="87.4588"
   gradientTransform="matrix(0.9974 -0.103 0.1027 0.9947 -101.1389 3.519)">
			<stop
   offset="0"
   style="stop-color:#1C1B19;stop-opacity:0"
   id="stop71" />
			<stop
   offset="1"
   style="stop-color:#33322D"
   id="stop73" />
		</linearGradient>
		<path
   class="st12"
   d="M48,39.6l-2.9,3.2L45,101.4L96.7,119c24.6-14.5,32.6-40.1,31-61.2c-0.3-4-0.7-5-1.2-7.7L90.3,36.2l-13.6,10"
   id="path76" />
	</g>
	<g
   id="g904">
		<g
   id="g822">
			<linearGradient
   id="SVGID_4_"
   gradientUnits="userSpaceOnUse"
   x1="37.5177"
   y1="38.4385"
   x2="90.4801"
   y2="38.4385">
				<stop
   offset="0"
   style="stop-color:#999999"
   id="stop80" />
				<stop
   offset="1.001168e-03"
   style="stop-color:#A0A0A0"
   id="stop82" />
				<stop
   offset="6.071331e-03"
   style="stop-color:#BDBDBD"
   id="stop84" />
				<stop
   offset="1.144228e-02"
   style="stop-color:#D5D5D5"
   id="stop86" />
				<stop
   offset="1.718562e-02"
   style="stop-color:#E5E5E5"
   id="stop88" />
				<stop
   offset="2.355640e-02"
   style="stop-color:#EFEFEF"
   id="stop90" />
				<stop
   offset="3.180210e-02"
   style="stop-color:#F2F2F2"
   id="stop92" />
				<stop
   offset="5.501346e-02"
   style="stop-color:#EAEAEA"
   id="stop94" />
				<stop
   offset="8.657240e-02"
   style="stop-color:#E6E6E6"
   id="stop96" />
				<stop
   offset="0.8288"
   style="stop-color:#E6E6E6"
   id="stop98" />
				<stop
   offset="0.9546"
   style="stop-color:#E6E6E6"
   id="stop100" />
				<stop
   offset="0.9675"
   style="stop-color:#F6F6F6"
   id="stop102" />
				<stop
   offset="0.9732"
   style="stop-color:#FFFFFF"
   id="stop104" />
				<stop
   offset="0.9852"
   style="stop-color:#FDFDFD"
   id="stop106" />
				<stop
   offset="0.9895"
   style="stop-color:#F6F6F6"
   id="stop108" />
				<stop
   offset="0.9926"
   style="stop-color:#EBEBEB"
   id="stop110" />
				<stop
   offset="0.9951"
   style="stop-color:#DADADA"
   id="stop112" />
				<stop
   offset="0.9972"
   style="stop-color:#C4C4C4"
   id="stop114" />
				<stop
   offset="0.9991"
   style="stop-color:#A9A9A9"
   id="stop116" />
				<stop
   offset="1"
   style="stop-color:#999999"
   id="stop118" />
			</linearGradient>
			<path
   class="st13"
   d="M 90.3,40.6 H 37.7 c -0.1,0 -0.2,-0.1 -0.2,-0.2 v -4.1 c 0,-0.1 0.1,-0.2 0.2,-0.2 h 52.6 c 0.1,0 0.2,0.1 0.2,0.2 v 4.1 c 0,0.2 -0.1,0.2 -0.2,0.2 z"
   id="path121"
   transform="matrix(1,0,0,1.8772023,0,-35.614415)"
   style="fill:url(#SVGID_4_);stroke-width:0.729868" />
			<rect
   x="38.2"
   y="40.6"
   class="st14"
   width="51.6"
   height="3"
   id="rect123" />
			<rect
   x="38.2"
   y="41.1"
   class="st15"
   width="51.6"
   height="62.9"
   id="rect125" />
			<linearGradient
   id="SVGID_6_"
   gradientUnits="userSpaceOnUse"
   x1="63.9989"
   y1="43.5505"
   x2="63.9989"
   y2="40.7444">
				<stop
   offset="0"
   style="stop-color:#FFFFFF"
   id="stop127" />
				<stop
   offset="0.2506"
   style="stop-color:#FCFCFC"
   id="stop129" />
				<stop
   offset="0.4396"
   style="stop-color:#F2F2F2"
   id="stop131" />
				<stop
   offset="0.6085"
   style="stop-color:#E2E2E2"
   id="stop133" />
				<stop
   offset="0.7655"
   style="stop-color:#CBCBCB"
   id="stop135" />
				<stop
   offset="0.9131"
   style="stop-color:#AEAEAE"
   id="stop137" />
				<stop
   offset="1"
   style="stop-color:#999999"
   id="stop139" />
			</linearGradient>
			<rect
   x="38.2"
   y="40.7"
   class="st16"
   width="51.6"
   height="2.8"
   id="rect142" />
			<g
   id="g193"
   transform="matrix(2.7272728,0,0,2.7272728,-110.68183,-68.224776)"
   style="stroke-width:0.366666">
				<rect
   x="62.400002"
   y="37.5"
   class="st17"
   width="3.3"
   height="1.9"
   id="rect144"
   style="stroke-width:0.366666" />
				<linearGradient
   id="SVGID_7_"
   gradientUnits="userSpaceOnUse"
   x1="62.781601"
   y1="37.2131"
   x2="65.265099"
   y2="39.696602">
					<stop
   offset="0"
   style="stop-color:#D5EDF4"
   id="stop146" />
					<stop
   offset="0.603"
   style="stop-color:#9AE0F4"
   id="stop148" />
					<stop
   offset="0.9922"
   style="stop-color:#78D8F4"
   id="stop150" />
				</linearGradient>
				<rect
   x="62.400002"
   y="37.599998"
   class="st18"
   width="3.2"
   height="1.8"
   id="rect153"
   style="fill:url(#SVGID_7_);stroke-width:0.366666" />
				<g
   id="g191"
   style="stroke-width:0.366666">
					<g
   id="g179"
   style="stroke-width:0.366666">
						<g
   id="g163"
   style="stroke-width:0.366666">
							<polygon
   class="st19"
   points="64.4,38.4 64.3,38.5 64.4,38.5 64.8,38.5 64.8,38.4 "
   id="polygon155"
   style="stroke-width:0.366666" />
							<polygon
   class="st19"
   points="64.4,37.9 64.3,37.8 64.3,37.9 64.3,38.4 64.4,38.4 "
   id="polygon157"
   style="stroke-width:0.366666" />
							<polygon
   class="st19"
   points="64.9,37.9 64.8,37.8 64.8,37.9 64.8,38.4 64.9,38.4 "
   id="polygon159"
   style="stroke-width:0.366666" />
							<polygon
   class="st19"
   points="64.8,39 64.8,39.1 64.9,39 64.9,38.6 64.8,38.5 64.8,38.6 "
   id="polygon161"
   style="stroke-width:0.366666" />
						</g>
						<g
   id="g177"
   style="stroke-width:0.366666">
							<polygon
   class="st19"
   points="64,38 64,37.9 64.1,38 64.1,38.4 64,38.4 "
   id="polygon165"
   style="stroke-width:0.366666" />
							<polygon
   class="st19"
   points="63.5,38.6 63.4,38.5 63.4,38.6 63.4,39 63.5,39 "
   id="polygon167"
   style="stroke-width:0.366666" />
							<polygon
   class="st19"
   points="63.9,37.9 64,37.9 63.9,37.8 63.6,37.8 63.5,37.9 63.6,37.9 "
   id="polygon169"
   style="stroke-width:0.366666" />
							<polygon
   class="st19"
   points="63.9,39.1 64,39.1 63.9,39 63.6,39 63.5,39.1 63.6,39.1 "
   id="polygon171"
   style="stroke-width:0.366666" />
							<polygon
   class="st19"
   points="63.9,38.5 64,38.5 63.9,38.4 63.6,38.4 63.5,38.5 63.6,38.5 "
   id="polygon173"
   style="stroke-width:0.366666" />
							<polygon
   class="st19"
   points="63.1,38.5 63.2,38.5 63.1,38.4 62.8,38.4 62.7,38.5 62.8,38.5 "
   id="polygon175"
   style="stroke-width:0.366666" />
						</g>
					</g>
					<g
   id="g189"
   style="stroke-width:0.366666">
						<polygon
   class="st19"
   points="65.2,37.9 65.1,37.9 65.1,38 65.2,38 "
   id="polygon181"
   style="stroke-width:0.366666" />
						<polygon
   class="st19"
   points="65.3,37.9 65.4,37.9 65.4,38 65.3,38 "
   id="polygon183"
   style="stroke-width:0.366666" />
						<polygon
   class="st19"
   points="65.2,37.8 65.2,37.9 65.3,37.9 65.3,37.8 "
   id="polygon185"
   style="stroke-width:0.366666" />
						<polygon
   class="st19"
   points="65.2,38 65.2,38.1 65.3,38.1 65.3,38 "
   id="polygon187"
   style="stroke-width:0.366666" />
					</g>
				</g>
			</g>
			<g
   id="g351">
				<path
   class="st20"
   d="M39.1,64.8V45.4c0-0.1,0.1-0.3,0.3-0.3h3.2c0.1,0,0.3,0.1,0.3,0.3v19.5c0,0.1-0.1,0.3-0.3,0.3h-3.2      C39.2,65.1,39.1,65,39.1,64.8z"
   id="path195" />
				<path
   class="st21"
   d="M39.1,64.8V45.4c0-0.1,0.1-0.3,0.3-0.3h3.2c0.1,0,0.3,0.1,0.3,0.3v19.4c0,0.1-0.1,0.3-0.3,0.3h-3.2      C39.2,65.1,39.1,65,39.1,64.8z"
   id="path197" />
				<path
   class="st22"
   d="M39.1,64.8V45.4c0-0.1,0.1-0.3,0.3-0.3h3.2c0.1,0,0.3,0.1,0.3,0.3v19.4c0,0.1-0.1,0.3-0.3,0.3h-3.2      C39.2,65.1,39.1,65,39.1,64.8z"
   id="path199" />
				<path
   class="st23"
   d="M39.1,64.8V45.4c0-0.1,0.1-0.3,0.3-0.3h3.2c0.1,0,0.3,0.1,0.3,0.3v19.4c0,0.1-0.1,0.3-0.3,0.3h-3.2      C39.2,65.1,39.1,65,39.1,64.8z"
   id="path201" />
				<path
   class="st24"
   d="M39.1,64.8V45.4c0-0.1,0.1-0.3,0.3-0.3h3.2c0.1,0,0.3,0.1,0.3,0.3v19.4c0,0.1-0.1,0.3-0.3,0.3h-3.2      C39.2,65.1,39.1,65,39.1,64.8z"
   id="path203" />
				<path
   class="st25"
   d="M39.1,64.8V45.4c0-0.1,0.1-0.3,0.3-0.3h3.2c0.1,0,0.3,0.1,0.3,0.3v19.4c0,0.1-0.1,0.3-0.3,0.3h-3.2      C39.2,65.1,39.1,65,39.1,64.8z"
   id="path205" />
				<path
   class="st26"
   d="M39.1,64.8V45.4c0-0.1,0.1-0.3,0.3-0.3h3.2c0.1,0,0.3,0.1,0.3,0.3v19.4c0,0.1-0.1,0.3-0.3,0.3h-3.2      C39.2,65.1,39.1,65,39.1,64.8z"
   id="path207" />
				<path
   class="st27"
   d="M39.1,64.8V45.4c0-0.1,0.1-0.3,0.3-0.3h3.2c0.1,0,0.3,0.1,0.3,0.3v19.4c0,0.1-0.1,0.3-0.3,0.3h-3.2      C39.2,65.1,39.1,64.9,39.1,64.8z"
   id="path209" />
				<path
   class="st28"
   d="M39.1,64.8V45.4c0-0.1,0.1-0.2,0.2-0.2h3.2c0.1,0,0.2,0.1,0.2,0.2v19.4c0,0.1-0.1,0.2-0.2,0.2h-3.2      C39.2,65.1,39.1,64.9,39.1,64.8z"
   id="path211" />
				<path
   class="st29"
   d="M39.1,64.8V45.4c0-0.1,0.1-0.2,0.2-0.2h3.1c0.1,0,0.2,0.1,0.2,0.2v19.4c0,0.1-0.1,0.2-0.2,0.2h-3.1      C39.2,65,39.1,64.9,39.1,64.8z"
   id="path213" />
				<path
   class="st30"
   d="M39.1,64.8V45.5c0-0.1,0.1-0.2,0.2-0.2h3.1c0.1,0,0.2,0.1,0.2,0.2v19.3c0,0.1-0.1,0.2-0.2,0.2h-3.1      C39.3,65,39.1,64.9,39.1,64.8z"
   id="path215" />
				<path
   class="st31"
   d="M39.2,64.8V45.5c0-0.1,0.1-0.2,0.2-0.2h3.1c0.1,0,0.2,0.1,0.2,0.2v19.3c0,0.1-0.1,0.2-0.2,0.2h-3.1      C39.3,65,39.2,64.9,39.2,64.8z"
   id="path217" />
				<path
   class="st32"
   d="M39.2,64.8V45.5c0-0.1,0.1-0.2,0.2-0.2h3.1c0.1,0,0.2,0.1,0.2,0.2v19.3c0,0.1-0.1,0.2-0.2,0.2h-3.1      C39.3,65,39.2,64.9,39.2,64.8z"
   id="path219" />
				<path
   class="st33"
   d="M39.2,64.8V45.5c0-0.1,0.1-0.2,0.2-0.2h3.1c0.1,0,0.2,0.1,0.2,0.2v19.3c0,0.1-0.1,0.2-0.2,0.2h-3.1      C39.3,65,39.2,64.9,39.2,64.8z"
   id="path221" />
				<path
   class="st34"
   d="M39.2,64.8V45.5c0-0.1,0.1-0.2,0.2-0.2h3.1c0.1,0,0.2,0.1,0.2,0.2v19.3c0,0.1-0.1,0.2-0.2,0.2h-3.1      C39.3,65,39.2,64.9,39.2,64.8z"
   id="path223" />
				<path
   class="st35"
   d="M39.2,64.8V45.5c0-0.1,0.1-0.2,0.2-0.2h3.1c0.1,0,0.2,0.1,0.2,0.2v19.3c0,0.1-0.1,0.2-0.2,0.2h-3.1      C39.3,65,39.2,64.9,39.2,64.8z"
   id="path225" />
				<path
   class="st36"
   d="M39.2,64.8V45.5c0-0.1,0.1-0.2,0.2-0.2h3.1c0.1,0,0.2,0.1,0.2,0.2v19.3c0,0.1-0.1,0.2-0.2,0.2h-3.1      C39.3,65,39.2,64.9,39.2,64.8z"
   id="path227" />
				<path
   class="st37"
   d="M39.2,64.8V45.5c0-0.1,0.1-0.2,0.2-0.2h3c0.1,0,0.2,0.1,0.2,0.2v19.3c0,0.1-0.1,0.2-0.2,0.2h-3      C39.3,65,39.2,64.9,39.2,64.8z"
   id="path229" />
				<path
   class="st38"
   d="M39.2,64.7V45.5c0-0.1,0.1-0.2,0.2-0.2h3c0.1,0,0.2,0.1,0.2,0.2v19.2c0,0.1-0.1,0.2-0.2,0.2h-3      C39.3,65,39.2,64.9,39.2,64.7z"
   id="path231" />
				<path
   class="st39"
   d="M39.2,64.7V45.5c0-0.1,0.1-0.2,0.2-0.2h3c0.1,0,0.2,0.1,0.2,0.2v19.2c0,0.1-0.1,0.2-0.2,0.2h-3      C39.3,65,39.2,64.9,39.2,64.7z"
   id="path233" />
				<path
   class="st40"
   d="M39.2,64.7V45.5c0-0.1,0.1-0.2,0.2-0.2h3c0.1,0,0.2,0.1,0.2,0.2v19.2c0,0.1-0.1,0.2-0.2,0.2h-3      C39.3,65,39.2,64.9,39.2,64.7z"
   id="path235" />
				<path
   class="st41"
   d="M39.2,64.7V45.5c0-0.1,0.1-0.2,0.2-0.2h3c0.1,0,0.2,0.1,0.2,0.2v19.2c0,0.1-0.1,0.2-0.2,0.2h-3      C39.3,64.9,39.2,64.8,39.2,64.7z"
   id="path237" />
				<path
   class="st42"
   d="M39.2,64.7V45.5c0-0.1,0.1-0.2,0.2-0.2h3c0.1,0,0.2,0.1,0.2,0.2v19.2c0,0.1-0.1,0.2-0.2,0.2h-3      C39.3,64.9,39.2,64.8,39.2,64.7z"
   id="path239" />
				<path
   class="st43"
   d="M39.2,64.7V45.5c0-0.1,0.1-0.2,0.2-0.2h3c0.1,0,0.2,0.1,0.2,0.2v19.2c0,0.1-0.1,0.2-0.2,0.2h-3      C39.3,64.9,39.2,64.8,39.2,64.7z"
   id="path241" />
				<path
   class="st44"
   d="M39.3,64.7V45.5c0-0.1,0.1-0.2,0.2-0.2h3c0.1,0,0.2,0.1,0.2,0.2v19.2c0,0.1-0.1,0.2-0.2,0.2h-3      C39.4,64.9,39.3,64.8,39.3,64.7z"
   id="path243" />
				<path
   class="st45"
   d="M39.3,64.7V45.5c0-0.1,0.1-0.2,0.2-0.2h3c0.1,0,0.2,0.1,0.2,0.2v19.2c0,0.1-0.1,0.2-0.2,0.2h-3      C39.4,64.9,39.3,64.8,39.3,64.7z"
   id="path245" />
				<path
   class="st46"
   d="M39.3,64.7V45.5c0-0.1,0.1-0.2,0.2-0.2h2.9c0.1,0,0.2,0.1,0.2,0.2v19.2c0,0.1-0.1,0.2-0.2,0.2h-2.9      C39.4,64.9,39.3,64.8,39.3,64.7z"
   id="path247" />
				<path
   class="st47"
   d="M39.3,64.7V45.6c0-0.1,0.1-0.2,0.2-0.2h2.9c0.1,0,0.2,0.1,0.2,0.2v19.1c0,0.1-0.1,0.2-0.2,0.2h-2.9      C39.4,64.9,39.3,64.8,39.3,64.7z"
   id="path249" />
				<path
   class="st48"
   d="M39.3,64.7V45.6c0-0.1,0.1-0.2,0.2-0.2h2.9c0.1,0,0.2,0.1,0.2,0.2v19.1c0,0.1-0.1,0.2-0.2,0.2h-2.9      C39.4,64.9,39.3,64.8,39.3,64.7z"
   id="path251" />
				<path
   class="st49"
   d="M39.3,64.7V45.6c0-0.1,0.1-0.2,0.2-0.2h2.9c0.1,0,0.2,0.1,0.2,0.2v19.1c0,0.1-0.1,0.2-0.2,0.2h-2.9      C39.4,64.9,39.3,64.8,39.3,64.7z"
   id="path253" />
				<path
   class="st50"
   d="M39.3,64.7V45.6c0-0.1,0.1-0.2,0.2-0.2h2.9c0.1,0,0.2,0.1,0.2,0.2v19.1c0,0.1-0.1,0.2-0.2,0.2h-2.9      C39.4,64.9,39.3,64.8,39.3,64.7z"
   id="path255" />
				<path
   class="st51"
   d="M39.3,64.7V45.6c0-0.1,0.1-0.2,0.2-0.2h2.9c0.1,0,0.2,0.1,0.2,0.2v19.1c0,0.1-0.1,0.2-0.2,0.2h-2.9      C39.4,64.9,39.3,64.8,39.3,64.7z"
   id="path257" />
				<path
   class="st52"
   d="M39.3,64.7V45.6c0-0.1,0.1-0.2,0.2-0.2h2.9c0.1,0,0.2,0.1,0.2,0.2v19.1c0,0.1-0.1,0.2-0.2,0.2h-2.9      C39.4,64.9,39.3,64.8,39.3,64.7z"
   id="path259" />
				<path
   class="st53"
   d="M39.3,64.7V45.6c0-0.1,0.1-0.2,0.2-0.2h2.9c0.1,0,0.2,0.1,0.2,0.2v19.1c0,0.1-0.1,0.2-0.2,0.2h-2.9      C39.4,64.8,39.3,64.8,39.3,64.7z"
   id="path261" />
				<path
   class="st54"
   d="M39.3,64.7V45.6c0-0.1,0.1-0.2,0.2-0.2h2.8c0.1,0,0.2,0.1,0.2,0.2v19.1c0,0.1-0.1,0.2-0.2,0.2h-2.8      C39.4,64.8,39.3,64.8,39.3,64.7z"
   id="path263" />
				<path
   class="st55"
   d="M39.3,64.6v-19c0-0.1,0.1-0.2,0.2-0.2h2.8c0.1,0,0.2,0.1,0.2,0.2v19c0,0.1-0.1,0.2-0.2,0.2h-2.8      C39.4,64.8,39.3,64.7,39.3,64.6z"
   id="path265" />
				<path
   class="st56"
   d="M39.4,64.6v-19c0-0.1,0.1-0.2,0.2-0.2h2.8c0.1,0,0.2,0.1,0.2,0.2v19c0,0.1-0.1,0.2-0.2,0.2h-2.8      C39.4,64.8,39.4,64.7,39.4,64.6z"
   id="path267" />
				<path
   class="st57"
   d="M39.4,64.6v-19c0-0.1,0.1-0.2,0.2-0.2h2.8c0.1,0,0.2,0.1,0.2,0.2v19c0,0.1-0.1,0.2-0.2,0.2h-2.8      C39.4,64.8,39.4,64.7,39.4,64.6z"
   id="path269" />
				<path
   class="st58"
   d="M39.4,64.6v-19c0-0.1,0.1-0.2,0.2-0.2h2.8c0.1,0,0.2,0.1,0.2,0.2v19c0,0.1-0.1,0.2-0.2,0.2h-2.8      C39.5,64.8,39.4,64.7,39.4,64.6z"
   id="path271" />
				<path
   class="st59"
   d="M39.4,64.6v-19c0-0.1,0.1-0.2,0.2-0.2h2.8c0.1,0,0.2,0.1,0.2,0.2v19c0,0.1-0.1,0.2-0.2,0.2h-2.8      C39.5,64.8,39.4,64.7,39.4,64.6z"
   id="path273" />
				<path
   class="st60"
   d="M39.4,64.6v-19c0-0.1,0.1-0.2,0.2-0.2h2.8c0.1,0,0.2,0.1,0.2,0.2v19c0,0.1-0.1,0.2-0.2,0.2h-2.8      C39.5,64.8,39.4,64.7,39.4,64.6z"
   id="path275" />
				<path
   class="st61"
   d="M39.4,64.6v-19c0-0.1,0.1-0.2,0.2-0.2h2.8c0.1,0,0.2,0.1,0.2,0.2v19c0,0.1-0.1,0.2-0.2,0.2h-2.8      C39.5,64.8,39.4,64.7,39.4,64.6z"
   id="path277" />
				<path
   class="st62"
   d="M39.4,64.6v-19c0-0.1,0.1-0.2,0.2-0.2h2.8c0.1,0,0.2,0.1,0.2,0.2v19c0,0.1-0.1,0.2-0.2,0.2h-2.8      C39.5,64.8,39.4,64.7,39.4,64.6z"
   id="path279" />
				<path
   class="st63"
   d="M39.4,64.6v-19c0-0.1,0.1-0.2,0.2-0.2h2.7c0.1,0,0.2,0.1,0.2,0.2v19c0,0.1-0.1,0.2-0.2,0.2h-2.7      C39.5,64.8,39.4,64.7,39.4,64.6z"
   id="path281" />
				<path
   class="st64"
   d="M39.4,64.6V45.7c0-0.1,0.1-0.2,0.2-0.2h2.7c0.1,0,0.2,0.1,0.2,0.2v18.9c0,0.1-0.1,0.2-0.2,0.2h-2.7      C39.5,64.8,39.4,64.7,39.4,64.6z"
   id="path283" />
				<path
   class="st65"
   d="M39.4,64.6V45.7c0-0.1,0.1-0.2,0.2-0.2h2.7c0.1,0,0.2,0.1,0.2,0.2v18.9c0,0.1-0.1,0.2-0.2,0.2h-2.7      C39.5,64.7,39.4,64.7,39.4,64.6z"
   id="path285" />
				<path
   class="st66"
   d="M39.4,64.6V45.7c0-0.1,0.1-0.2,0.2-0.2h2.7c0.1,0,0.2,0.1,0.2,0.2v18.9c0,0.1-0.1,0.2-0.2,0.2h-2.7      C39.5,64.7,39.4,64.7,39.4,64.6z"
   id="path287" />
				<path
   class="st67"
   d="M39.4,64.6V45.7c0-0.1,0.1-0.2,0.2-0.2h2.7c0.1,0,0.2,0.1,0.2,0.2v18.9c0,0.1-0.1,0.2-0.2,0.2h-2.7      C39.5,64.7,39.4,64.7,39.4,64.6z"
   id="path289" />
				<path
   class="st68"
   d="M39.5,64.6V45.7c0-0.1,0.1-0.2,0.2-0.2h2.7c0.1,0,0.2,0.1,0.2,0.2v18.9c0,0.1-0.1,0.2-0.2,0.2h-2.7      C39.5,64.7,39.5,64.7,39.5,64.6z"
   id="path291" />
				<path
   class="st69"
   d="M39.5,64.6V45.7c0-0.1,0.1-0.2,0.2-0.2h2.7c0.1,0,0.2,0.1,0.2,0.2v18.9c0,0.1-0.1,0.2-0.2,0.2h-2.7      C39.5,64.7,39.5,64.6,39.5,64.6z"
   id="path293" />
				<path
   class="st70"
   d="M39.5,64.6V45.7c0-0.1,0.1-0.2,0.2-0.2h2.7c0.1,0,0.2,0.1,0.2,0.2v18.9c0,0.1-0.1,0.2-0.2,0.2h-2.7      C39.5,64.7,39.5,64.6,39.5,64.6z"
   id="path295" />
				<path
   class="st71"
   d="M39.5,64.6V45.7c0-0.1,0.1-0.1,0.1-0.1h2.6c0.1,0,0.1,0.1,0.1,0.1v18.9c0,0.1-0.1,0.1-0.1,0.1h-2.6      C39.5,64.7,39.5,64.6,39.5,64.6z"
   id="path297" />
				<path
   class="st72"
   d="M39.5,64.5V45.7c0-0.1,0.1-0.1,0.1-0.1h2.6c0.1,0,0.1,0.1,0.1,0.1v18.8c0,0.1-0.1,0.1-0.1,0.1h-2.6      C39.6,64.7,39.5,64.6,39.5,64.5z"
   id="path299" />
				<path
   class="st73"
   d="M39.5,64.5V45.7c0-0.1,0.1-0.1,0.1-0.1h2.6c0.1,0,0.1,0.1,0.1,0.1v18.8c0,0.1-0.1,0.1-0.1,0.1h-2.6      C39.6,64.7,39.5,64.6,39.5,64.5z"
   id="path301" />
				<path
   class="st74"
   d="M39.5,64.5V45.7c0-0.1,0.1-0.1,0.1-0.1h2.6c0.1,0,0.1,0.1,0.1,0.1v18.8c0,0.1-0.1,0.1-0.1,0.1h-2.6      C39.6,64.7,39.5,64.6,39.5,64.5z"
   id="path303" />
				<path
   class="st75"
   d="M39.5,64.5V45.7c0-0.1,0.1-0.1,0.1-0.1h2.6c0.1,0,0.1,0.1,0.1,0.1v18.8c0,0.1-0.1,0.1-0.1,0.1h-2.6      C39.6,64.7,39.5,64.6,39.5,64.5z"
   id="path305" />
				<path
   class="st76"
   d="M39.5,64.5V45.7c0-0.1,0.1-0.1,0.1-0.1h2.6c0.1,0,0.1,0.1,0.1,0.1v18.8c0,0.1-0.1,0.1-0.1,0.1h-2.6      C39.6,64.7,39.5,64.6,39.5,64.5z"
   id="path307" />
				<path
   class="st77"
   d="M39.5,64.5V45.7c0-0.1,0.1-0.1,0.1-0.1h2.6c0.1,0,0.1,0.1,0.1,0.1v18.8c0,0.1-0.1,0.1-0.1,0.1h-2.6      C39.6,64.7,39.5,64.6,39.5,64.5z"
   id="path309" />
				<path
   class="st78"
   d="M39.5,64.5V45.7c0-0.1,0.1-0.1,0.1-0.1h2.6c0.1,0,0.1,0.1,0.1,0.1v18.8c0,0.1-0.1,0.1-0.1,0.1h-2.6      C39.6,64.6,39.5,64.6,39.5,64.5z"
   id="path311" />
				<path
   class="st79"
   d="M39.5,64.5V45.7c0-0.1,0.1-0.1,0.1-0.1h2.6c0.1,0,0.1,0.1,0.1,0.1v18.8c0,0.1-0.1,0.1-0.1,0.1h-2.6      C39.6,64.6,39.5,64.6,39.5,64.5z"
   id="path313" />
				<path
   class="st80"
   d="M39.6,64.5V45.7c0-0.1,0.1-0.1,0.1-0.1h2.5c0.1,0,0.1,0.1,0.1,0.1v18.8c0,0.1-0.1,0.1-0.1,0.1h-2.5      C39.6,64.6,39.6,64.6,39.6,64.5z"
   id="path315" />
				<path
   class="st81"
   d="M39.6,64.5V45.8c0-0.1,0.1-0.1,0.1-0.1h2.5c0.1,0,0.1,0.1,0.1,0.1v18.7c0,0.1-0.1,0.1-0.1,0.1h-2.5      C39.6,64.6,39.6,64.6,39.6,64.5z"
   id="path317" />
				<path
   class="st82"
   d="M39.6,64.5V45.8c0-0.1,0.1-0.1,0.1-0.1h2.5c0.1,0,0.1,0.1,0.1,0.1v18.7c0,0.1-0.1,0.1-0.1,0.1h-2.5      C39.6,64.6,39.6,64.6,39.6,64.5z"
   id="path319" />
				<path
   class="st83"
   d="M39.6,64.5V45.8c0-0.1,0.1-0.1,0.1-0.1h2.5c0.1,0,0.1,0.1,0.1,0.1v18.7c0,0.1-0.1,0.1-0.1,0.1h-2.5      C39.6,64.6,39.6,64.5,39.6,64.5z"
   id="path321" />
				<path
   class="st84"
   d="M39.6,64.5V45.8c0-0.1,0.1-0.1,0.1-0.1h2.5c0.1,0,0.1,0.1,0.1,0.1v18.7c0,0.1-0.1,0.1-0.1,0.1h-2.5      C39.6,64.6,39.6,64.5,39.6,64.5z"
   id="path323" />
				<path
   class="st85"
   d="M39.6,64.5V45.8c0-0.1,0.1-0.1,0.1-0.1h2.5c0.1,0,0.1,0.1,0.1,0.1v18.7c0,0.1-0.1,0.1-0.1,0.1h-2.5      C39.6,64.6,39.6,64.5,39.6,64.5z"
   id="path325" />
				<path
   class="st86"
   d="M39.6,64.5V45.8c0-0.1,0.1-0.1,0.1-0.1h2.5c0.1,0,0.1,0.1,0.1,0.1v18.7c0,0.1-0.1,0.1-0.1,0.1h-2.5      C39.7,64.6,39.6,64.5,39.6,64.5z"
   id="path327" />
				<path
   class="st87"
   d="M39.6,64.5V45.8c0-0.1,0.1-0.1,0.1-0.1h2.5c0.1,0,0.1,0.1,0.1,0.1v18.7c0,0.1-0.1,0.1-0.1,0.1h-2.5      C39.7,64.6,39.6,64.5,39.6,64.5z"
   id="path329" />
				<path
   class="st88"
   d="M39.6,64.5V45.8c0-0.1,0-0.1,0.1-0.1h2.4c0.1,0,0.1,0,0.1,0.1v18.7c0,0.1,0,0.1-0.1,0.1h-2.4      C39.7,64.6,39.6,64.5,39.6,64.5z"
   id="path331" />
				<path
   class="st89"
   d="M39.6,64.4V45.8c0-0.1,0-0.1,0.1-0.1h2.4c0.1,0,0.1,0,0.1,0.1v18.6c0,0.1,0,0.1-0.1,0.1h-2.4      C39.7,64.6,39.6,64.5,39.6,64.4z"
   id="path333" />
				<path
   class="st90"
   d="M39.6,64.4V45.8c0-0.1,0-0.1,0.1-0.1h2.4c0.1,0,0.1,0,0.1,0.1v18.6c0,0.1,0,0.1-0.1,0.1h-2.4      C39.7,64.5,39.6,64.5,39.6,64.4z"
   id="path335" />
				<path
   class="st91"
   d="M39.6,64.4V45.8c0-0.1,0-0.1,0.1-0.1h2.4c0.1,0,0.1,0,0.1,0.1v18.6c0,0.1,0,0.1-0.1,0.1h-2.4      C39.7,64.5,39.6,64.5,39.6,64.4z"
   id="path337" />
				<path
   class="st92"
   d="M39.6,64.4V45.8c0-0.1,0-0.1,0.1-0.1h2.4c0.1,0,0.1,0,0.1,0.1v18.6c0,0.1,0,0.1-0.1,0.1h-2.4      C39.7,64.5,39.6,64.5,39.6,64.4z"
   id="path339" />
				<path
   class="st93"
   d="M39.7,64.4V45.8c0-0.1,0-0.1,0.1-0.1h2.4c0.1,0,0.1,0,0.1,0.1v18.6c0,0.1,0,0.1-0.1,0.1L39.7,64.4      C39.7,64.5,39.7,64.5,39.7,64.4z"
   id="path341" />
				<path
   class="st94"
   d="M39.7,64.4V45.8c0-0.1,0-0.1,0.1-0.1h2.4c0.1,0,0.1,0,0.1,0.1v18.6c0,0.1,0,0.1-0.1,0.1L39.7,64.4      C39.7,64.5,39.7,64.5,39.7,64.4z"
   id="path343" />
				<path
   class="st95"
   d="M39.7,64.4V45.8c0-0.1,0-0.1,0.1-0.1h2.4c0.1,0,0.1,0,0.1,0.1v18.6c0,0.1,0,0.1-0.1,0.1L39.7,64.4      C39.7,64.5,39.7,64.5,39.7,64.4z"
   id="path345" />
				<path
   class="st96"
   d="M39.7,64.4V45.8c0-0.1,0-0.1,0.1-0.1h2.4c0.1,0,0.1,0,0.1,0.1v18.6c0,0.1,0,0.1-0.1,0.1L39.7,64.4      C39.7,64.5,39.7,64.5,39.7,64.4z"
   id="path347" />
				<path
   class="st97"
   d="M42.1,64.5h-2.3c0,0-0.1,0-0.1-0.1V45.8c0,0,0-0.1,0.1-0.1h2.3c0,0,0.1,0,0.1,0.1L42.1,64.5      C42.2,64.4,42.2,64.5,42.1,64.5z"
   id="path349" />
			</g>
			<g
   id="g411">
				<path
   class="st20"
   d="M37.8,49.7V47c0-0.1,0.1-0.2,0.2-0.2h2.9c0.1,0,0.2,0.1,0.2,0.2v2.7c0,0.1-0.1,0.2-0.2,0.2H38      C37.9,50,37.8,49.9,37.8,49.7z"
   id="path353" />
				<path
   class="st98"
   d="M37.8,49.7V47c0-0.1,0.1-0.2,0.2-0.2h2.9c0.1,0,0.2,0.1,0.2,0.2v2.7c0,0.1-0.1,0.2-0.2,0.2H38      C37.9,49.9,37.8,49.8,37.8,49.7z"
   id="path355" />
				<path
   class="st99"
   d="M37.8,49.7V47c0-0.1,0.1-0.2,0.2-0.2h2.9c0.1,0,0.2,0.1,0.2,0.2v2.6c0,0.1-0.1,0.2-0.2,0.2H38      C37.9,49.9,37.8,49.8,37.8,49.7z"
   id="path357" />
				<path
   class="st100"
   d="M37.8,49.7v-2.6c0-0.1,0.1-0.2,0.2-0.2h2.8c0.1,0,0.2,0.1,0.2,0.2v2.6c0,0.1-0.1,0.2-0.2,0.2h-2.8      C37.9,49.9,37.8,49.8,37.8,49.7z"
   id="path359" />
				<path
   class="st31"
   d="M37.9,49.7v-2.6c0-0.1,0.1-0.2,0.2-0.2h2.8c0.1,0,0.2,0.1,0.2,0.2v2.6c0,0.1-0.1,0.2-0.2,0.2h-2.8      C38,49.9,37.9,49.8,37.9,49.7z"
   id="path361" />
				<path
   class="st101"
   d="M37.9,49.6v-2.6c0-0.1,0.1-0.2,0.2-0.2h2.8c0.1,0,0.2,0.1,0.2,0.2v2.6c0,0.1-0.1,0.2-0.2,0.2h-2.8      C38,49.9,37.9,49.8,37.9,49.6z"
   id="path363" />
				<path
   class="st102"
   d="M37.9,49.6v-2.5c0-0.1,0.1-0.2,0.2-0.2h2.7c0.1,0,0.2,0.1,0.2,0.2v2.5c0,0.1-0.1,0.2-0.2,0.2h-2.7      C38,49.8,37.9,49.7,37.9,49.6z"
   id="path365" />
				<path
   class="st103"
   d="M37.9,49.6v-2.5c0-0.1,0.1-0.2,0.2-0.2h2.7c0.1,0,0.2,0.1,0.2,0.2v2.5c0,0.1-0.1,0.2-0.2,0.2h-2.7      C38,49.8,37.9,49.7,37.9,49.6z"
   id="path367" />
				<path
   class="st42"
   d="M37.9,49.6v-2.5c0-0.1,0.1-0.2,0.2-0.2h2.7c0.1,0,0.2,0.1,0.2,0.2v2.5c0,0.1-0.1,0.2-0.2,0.2h-2.7      C38,49.8,37.9,49.7,37.9,49.6z"
   id="path369" />
				<path
   class="st104"
   d="M38,49.6v-2.4C38,47,38,47,38.1,47h2.7c0.1,0,0.2,0.1,0.2,0.2v2.4c0,0.1-0.1,0.2-0.2,0.2h-2.7      C38,49.8,38,49.7,38,49.6z"
   id="path371" />
				<path
   class="st105"
   d="M38,49.6v-2.4c0-0.1,0.1-0.2,0.2-0.2h2.6c0.1,0,0.2,0.1,0.2,0.2v2.4c0,0.1-0.1,0.2-0.2,0.2h-2.6      C38.1,49.8,38,49.7,38,49.6z"
   id="path373" />
				<path
   class="st106"
   d="M38,49.6v-2.4c0-0.1,0.1-0.2,0.2-0.2h2.6c0.1,0,0.2,0.1,0.2,0.2v2.4c0,0.1-0.1,0.2-0.2,0.2h-2.6      C38.1,49.7,38,49.7,38,49.6z"
   id="path375" />
				<path
   class="st53"
   d="M38,49.5v-2.4c0-0.1,0.1-0.2,0.2-0.2h2.6c0.1,0,0.2,0.1,0.2,0.2v2.4c0,0.1-0.1,0.2-0.2,0.2h-2.6      C38.1,49.7,38,49.6,38,49.5z"
   id="path377" />
				<path
   class="st107"
   d="M38,49.5v-2.3c0-0.1,0.1-0.2,0.2-0.2h2.5c0.1,0,0.2,0.1,0.2,0.2v2.3c0,0.1-0.1,0.2-0.2,0.2h-2.5      C38.1,49.7,38,49.6,38,49.5z"
   id="path379" />
				<path
   class="st108"
   d="M38.1,49.5v-2.3c0-0.1,0.1-0.2,0.2-0.2h2.5c0.1,0,0.2,0.1,0.2,0.2v2.3c0,0.1-0.1,0.2-0.2,0.2h-2.5      C38.1,49.7,38.1,49.6,38.1,49.5z"
   id="path381" />
				<path
   class="st109"
   d="M38.1,49.5v-2.3c0-0.1,0.1-0.2,0.2-0.2h2.5c0.1,0,0.2,0.1,0.2,0.2v2.3c0,0.1-0.1,0.2-0.2,0.2h-2.5      C38.2,49.7,38.1,49.6,38.1,49.5z"
   id="path383" />
				<path
   class="st64"
   d="M38.1,49.5v-2.2c0-0.1,0.1-0.1,0.1-0.1h2.4c0.1,0,0.1,0.1,0.1,0.1v2.2c0,0.1-0.1,0.1-0.1,0.1h-2.4      C38.2,49.6,38.1,49.6,38.1,49.5z"
   id="path385" />
				<path
   class="st110"
   d="M38.1,49.5v-2.2c0-0.1,0.1-0.1,0.1-0.1h2.4c0.1,0,0.1,0.1,0.1,0.1v2.2c0,0.1-0.1,0.1-0.1,0.1h-2.4      C38.2,49.6,38.1,49.6,38.1,49.5z"
   id="path387" />
				<path
   class="st111"
   d="M38.1,49.5v-2.2c0-0.1,0.1-0.1,0.1-0.1h2.4c0.1,0,0.1,0.1,0.1,0.1v2.2c0,0.1-0.1,0.1-0.1,0.1h-2.4      C38.2,49.6,38.1,49.5,38.1,49.5z"
   id="path389" />
				<path
   class="st112"
   d="M38.2,49.4v-2.2c0-0.1,0.1-0.1,0.1-0.1h2.4c0.1,0,0.1,0.1,0.1,0.1v2.2c0,0.1-0.1,0.1-0.1,0.1h-2.4      C38.2,49.6,38.2,49.5,38.2,49.4z"
   id="path391" />
				<path
   class="st75"
   d="M38.2,49.4v-2.1c0-0.1,0.1-0.1,0.1-0.1h2.3c0.1,0,0.1,0.1,0.1,0.1v2.1c0,0.1-0.1,0.1-0.1,0.1h-2.3      C38.2,49.6,38.2,49.5,38.2,49.4z"
   id="path393" />
				<path
   class="st113"
   d="M38.2,49.4v-2.1c0-0.1,0.1-0.1,0.1-0.1h2.3c0.1,0,0.1,0.1,0.1,0.1v2.1c0,0.1-0.1,0.1-0.1,0.1h-2.3      C38.3,49.5,38.2,49.5,38.2,49.4z"
   id="path395" />
				<path
   class="st114"
   d="M38.2,49.4v-2.1c0-0.1,0.1-0.1,0.1-0.1h2.3c0.1,0,0.1,0.1,0.1,0.1v2.1c0,0.1-0.1,0.1-0.1,0.1h-2.3      C38.3,49.5,38.2,49.5,38.2,49.4z"
   id="path397" />
				<path
   class="st115"
   d="M38.2,49.4v-2c0-0.1,0-0.1,0.1-0.1h2.2c0.1,0,0.1,0,0.1,0.1v2c0,0.1,0,0.1-0.1,0.1h-2.2      C38.3,49.5,38.2,49.4,38.2,49.4z"
   id="path399" />
				<path
   class="st86"
   d="M38.3,49.4v-2c0-0.1,0-0.1,0.1-0.1h2.2c0.1,0,0.1,0,0.1,0.1v2c0,0.1,0,0.1-0.1,0.1h-2.2      C38.3,49.5,38.3,49.4,38.3,49.4z"
   id="path401" />
				<path
   class="st116"
   d="M38.3,49.4v-2c0-0.1,0-0.1,0.1-0.1h2.2c0.1,0,0.1,0,0.1,0.1v2c0,0.1,0,0.1-0.1,0.1L38.3,49.4      C38.3,49.5,38.3,49.4,38.3,49.4z"
   id="path403" />
				<path
   class="st117"
   d="M38.3,49.3v-2c0-0.1,0-0.1,0.1-0.1h2.2c0.1,0,0.1,0,0.1,0.1v2c0,0.1,0,0.1-0.1,0.1L38.3,49.3      C38.3,49.4,38.3,49.4,38.3,49.3z"
   id="path405" />
				<path
   class="st118"
   d="M38.3,49.3v-1.9c0,0,0-0.1,0.1-0.1h2.1c0,0,0.1,0,0.1,0.1v1.9c0,0,0,0.1-0.1,0.1L38.3,49.3      C38.4,49.4,38.3,49.4,38.3,49.3z"
   id="path407" />
				<path
   class="st97"
   d="M40.5,49.4h-2.1c0,0-0.1,0-0.1-0.1v-1.9c0,0,0-0.1,0.1-0.1h2.1c0,0,0.1,0,0.1,0.1L40.5,49.4      C40.6,49.4,40.6,49.4,40.5,49.4z"
   id="path409" />
			</g>
			<g
   id="g471">
				<path
   class="st20"
   d="M37.8,63.2v-2.7c0-0.1,0.1-0.2,0.2-0.2h2.9c0.1,0,0.2,0.1,0.2,0.2v2.7c0,0.1-0.1,0.2-0.2,0.2H38      C37.9,63.5,37.8,63.4,37.8,63.2z"
   id="path413" />
				<path
   class="st98"
   d="M37.8,63.2v-2.7c0-0.1,0.1-0.2,0.2-0.2h2.9c0.1,0,0.2,0.1,0.2,0.2v2.7c0,0.1-0.1,0.2-0.2,0.2H38      C37.9,63.5,37.8,63.4,37.8,63.2z"
   id="path415" />
				<path
   class="st99"
   d="M37.8,63.2v-2.6c0-0.1,0.1-0.2,0.2-0.2h2.9c0.1,0,0.2,0.1,0.2,0.2v2.6c0,0.1-0.1,0.2-0.2,0.2H38      C37.9,63.4,37.8,63.3,37.8,63.2z"
   id="path417" />
				<path
   class="st100"
   d="M37.8,63.2v-2.6c0-0.1,0.1-0.2,0.2-0.2h2.8c0.1,0,0.2,0.1,0.2,0.2v2.6c0,0.1-0.1,0.2-0.2,0.2h-2.8      C37.9,63.4,37.8,63.3,37.8,63.2z"
   id="path419" />
				<path
   class="st31"
   d="M37.9,63.2v-2.6c0-0.1,0.1-0.2,0.2-0.2h2.8c0.1,0,0.2,0.1,0.2,0.2v2.6c0,0.1-0.1,0.2-0.2,0.2h-2.8      C38,63.4,37.9,63.3,37.9,63.2z"
   id="path421" />
				<path
   class="st101"
   d="M37.9,63.2v-2.6c0-0.1,0.1-0.2,0.2-0.2h2.8c0.1,0,0.2,0.1,0.2,0.2v2.6c0,0.1-0.1,0.2-0.2,0.2h-2.8      C38,63.4,37.9,63.3,37.9,63.2z"
   id="path423" />
				<path
   class="st102"
   d="M37.9,63.2v-2.5c0-0.1,0.1-0.2,0.2-0.2h2.7c0.1,0,0.2,0.1,0.2,0.2v2.5c0,0.1-0.1,0.2-0.2,0.2h-2.7      C38,63.4,37.9,63.3,37.9,63.2z"
   id="path425" />
				<path
   class="st103"
   d="M37.9,63.1v-2.5c0-0.1,0.1-0.2,0.2-0.2h2.7c0.1,0,0.2,0.1,0.2,0.2v2.5c0,0.1-0.1,0.2-0.2,0.2h-2.7      C38,63.3,37.9,63.3,37.9,63.1z"
   id="path427" />
				<path
   class="st42"
   d="M37.9,63.1v-2.5c0-0.1,0.1-0.2,0.2-0.2h2.7c0.1,0,0.2,0.1,0.2,0.2v2.5c0,0.1-0.1,0.2-0.2,0.2h-2.7      C38,63.3,37.9,63.2,37.9,63.1z"
   id="path429" />
				<path
   class="st104"
   d="M38,63.1v-2.4c0-0.1,0.1-0.2,0.2-0.2h2.7c0.1,0,0.2,0.1,0.2,0.2v2.4c0,0.1-0.1,0.2-0.2,0.2h-2.7      C38,63.3,38,63.2,38,63.1z"
   id="path431" />
				<path
   class="st105"
   d="M38,63.1v-2.4c0-0.1,0.1-0.2,0.2-0.2h2.6c0.1,0,0.2,0.1,0.2,0.2v2.4c0,0.1-0.1,0.2-0.2,0.2h-2.6      C38.1,63.3,38,63.2,38,63.1z"
   id="path433" />
				<path
   class="st106"
   d="M38,63.1v-2.4c0-0.1,0.1-0.2,0.2-0.2h2.6c0.1,0,0.2,0.1,0.2,0.2v2.4c0,0.1-0.1,0.2-0.2,0.2h-2.6      C38.1,63.3,38,63.2,38,63.1z"
   id="path435" />
				<path
   class="st53"
   d="M38,63.1v-2.4c0-0.1,0.1-0.2,0.2-0.2h2.6c0.1,0,0.2,0.1,0.2,0.2v2.4c0,0.1-0.1,0.2-0.2,0.2h-2.6      C38.1,63.2,38,63.2,38,63.1z"
   id="path437" />
				<path
   class="st107"
   d="M38,63.1v-2.3c0-0.1,0.1-0.2,0.2-0.2h2.5c0.1,0,0.2,0.1,0.2,0.2v2.3c0,0.1-0.1,0.2-0.2,0.2h-2.5      C38.1,63.2,38,63.1,38,63.1z"
   id="path439" />
				<path
   class="st108"
   d="M38.1,63v-2.3c0-0.1,0.1-0.2,0.2-0.2h2.5c0.1,0,0.2,0.1,0.2,0.2V63c0,0.1-0.1,0.2-0.2,0.2h-2.5      C38.1,63.2,38.1,63.1,38.1,63z"
   id="path441" />
				<path
   class="st109"
   d="M38.1,63v-2.3c0-0.1,0.1-0.2,0.2-0.2h2.5c0.1,0,0.2,0.1,0.2,0.2V63c0,0.1-0.1,0.2-0.2,0.2h-2.5      C38.2,63.2,38.1,63.1,38.1,63z"
   id="path443" />
				<path
   class="st64"
   d="M38.1,63v-2.2c0-0.1,0.1-0.1,0.1-0.1h2.4c0.1,0,0.1,0.1,0.1,0.1V63c0,0.1-0.1,0.1-0.1,0.1h-2.4      C38.2,63.2,38.1,63.1,38.1,63z"
   id="path445" />
				<path
   class="st110"
   d="M38.1,63v-2.2c0-0.1,0.1-0.1,0.1-0.1h2.4c0.1,0,0.1,0.1,0.1,0.1V63c0,0.1-0.1,0.1-0.1,0.1h-2.4      C38.2,63.1,38.1,63.1,38.1,63z"
   id="path447" />
				<path
   class="st111"
   d="M38.1,63v-2.2c0-0.1,0.1-0.1,0.1-0.1h2.4c0.1,0,0.1,0.1,0.1,0.1V63c0,0.1-0.1,0.1-0.1,0.1h-2.4      C38.2,63.1,38.1,63.1,38.1,63z"
   id="path449" />
				<path
   class="st112"
   d="M38.2,63v-2.2c0-0.1,0.1-0.1,0.1-0.1h2.4c0.1,0,0.1,0.1,0.1,0.1V63c0,0.1-0.1,0.1-0.1,0.1h-2.4      C38.2,63.1,38.2,63,38.2,63z"
   id="path451" />
				<path
   class="st75"
   d="M38.2,63v-2.1c0-0.1,0.1-0.1,0.1-0.1h2.3c0.1,0,0.1,0.1,0.1,0.1V63c0,0.1-0.1,0.1-0.1,0.1h-2.3      C38.2,63.1,38.2,63,38.2,63z"
   id="path453" />
				<path
   class="st113"
   d="M38.2,62.9v-2.1c0-0.1,0.1-0.1,0.1-0.1h2.3c0.1,0,0.1,0.1,0.1,0.1v2.1c0,0.1-0.1,0.1-0.1,0.1h-2.3      C38.3,63.1,38.2,63,38.2,62.9z"
   id="path455" />
				<path
   class="st114"
   d="M38.2,62.9v-2.1c0-0.1,0.1-0.1,0.1-0.1h2.3c0.1,0,0.1,0.1,0.1,0.1v2.1c0,0.1-0.1,0.1-0.1,0.1h-2.3      C38.3,63,38.2,63,38.2,62.9z"
   id="path457" />
				<path
   class="st115"
   d="M38.2,62.9v-2c0-0.1,0-0.1,0.1-0.1h2.2c0.1,0,0.1,0,0.1,0.1v2c0,0.1,0,0.1-0.1,0.1h-2.2      C38.3,63,38.2,63,38.2,62.9z"
   id="path459" />
				<path
   class="st86"
   d="M38.3,62.9v-2c0-0.1,0-0.1,0.1-0.1h2.2c0.1,0,0.1,0,0.1,0.1v2c0,0.1,0,0.1-0.1,0.1h-2.2      C38.3,63,38.3,63,38.3,62.9z"
   id="path461" />
				<path
   class="st116"
   d="M38.3,62.9v-2c0-0.1,0-0.1,0.1-0.1h2.2c0.1,0,0.1,0,0.1,0.1v2c0,0.1,0,0.1-0.1,0.1L38.3,62.9      C38.3,63,38.3,62.9,38.3,62.9z"
   id="path463" />
				<path
   class="st117"
   d="M38.3,62.9v-2c0-0.1,0-0.1,0.1-0.1h2.2c0.1,0,0.1,0,0.1,0.1v2c0,0.1,0,0.1-0.1,0.1L38.3,62.9      C38.3,63,38.3,62.9,38.3,62.9z"
   id="path465" />
				<path
   class="st118"
   d="M38.3,62.9v-1.9c0,0,0-0.1,0.1-0.1h2.1c0,0,0.1,0,0.1,0.1v1.9c0,0,0,0.1-0.1,0.1L38.3,62.9      C38.4,62.9,38.3,62.9,38.3,62.9z"
   id="path467" />
				<path
   class="st97"
   d="M40.5,62.9h-2.1c0,0-0.1,0-0.1-0.1v-1.9c0,0,0-0.1,0.1-0.1h2.1c0,0,0.1,0,0.1,0.1L40.5,62.9      C40.6,62.9,40.6,62.9,40.5,62.9z"
   id="path469" />
			</g>
			<g
   id="g601"
   transform="matrix(3.6,0,0,3.6,-163.04346,-101.5)"
   style="stroke-width:0.277777">
				<g
   id="g537"
   style="stroke-width:0.277777">
					<path
   class="st20"
   d="m 61.1,39.2 h -2.2 c 0,0 -0.1,0 -0.1,-0.1 v -1.5 c 0,0 0,-0.1 0.1,-0.1 h 2.2 c 0,0 0.1,0 0.1,0.1 l -0.1,1.6 c 0.1,0 0.1,0 0,0 z"
   id="path473"
   style="stroke-width:0.277777" />
					<path
   class="st119"
   d="m 61.1,39.2 h -2.2 c 0,0 -0.1,0 -0.1,-0.1 v -1.5 c 0,0 0,-0.1 0.1,-0.1 h 2.2 c 0,0 0.1,0 0.1,0.1 l -0.1,1.6 c 0.1,0 0.1,0 0,0 z"
   id="path475"
   style="stroke-width:0.277777" />
					<path
   class="st120"
   d="m 61.1,39.2 h -2.2 c 0,0 -0.1,0 -0.1,-0.1 v -1.5 c 0,0 0,-0.1 0.1,-0.1 h 2.2 c 0,0 0.1,0 0.1,0.1 l -0.1,1.6 c 0.1,0 0.1,0 0,0 z"
   id="path477"
   style="stroke-width:0.277777" />
					<path
   class="st121"
   d="m 61.1,39.2 h -2.2 c 0,0 -0.1,0 -0.1,-0.1 v -1.5 c 0,0 0,-0.1 0.1,-0.1 h 2.2 c 0,0 0.1,0 0.1,0.1 l -0.1,1.6 c 0.1,0 0.1,0 0,0 z"
   id="path479"
   style="stroke-width:0.277777" />
					<path
   class="st122"
   d="M 61.1,39.2 H 59 c 0,0 -0.1,0 -0.1,-0.1 v -1.5 c 0,0 0,-0.1 0.1,-0.1 h 2.2 c 0,0 0.1,0 0.1,0.1 l -0.2,1.6 c 0.1,0 0.1,0 0,0 z"
   id="path481"
   style="stroke-width:0.277777" />
					<path
   class="st123"
   d="M 61.1,39.2 H 59 c 0,0 -0.1,0 -0.1,-0.1 v -1.5 c 0,0 0,-0.1 0.1,-0.1 h 2.2 c 0,0 0.1,0 0.1,0.1 l -0.2,1.6 c 0.1,0 0.1,0 0,0 z"
   id="path483"
   style="stroke-width:0.277777" />
					<path
   class="st124"
   d="M 61.1,39.2 H 59 c 0,0 -0.1,0 -0.1,-0.1 v -1.4 c 0,0 0,-0.1 0.1,-0.1 h 2.2 c 0,0 0.1,0 0.1,0.1 l -0.2,1.5 c 0.1,0 0.1,0 0,0 z"
   id="path485"
   style="stroke-width:0.277777" />
					<path
   class="st125"
   d="M 61.1,39.2 H 59 c 0,0 -0.1,0 -0.1,-0.1 v -1.4 c 0,0 0,-0.1 0.1,-0.1 h 2.2 c 0,0 0.1,0 0.1,0.1 l -0.2,1.5 c 0.1,0 0,0 0,0 z"
   id="path487"
   style="stroke-width:0.277777" />
					<path
   class="st126"
   d="M 61.1,39.2 H 59 c 0,0 -0.1,0 -0.1,-0.1 v -1.4 c 0,0 0,-0.1 0.1,-0.1 h 2.2 c 0,0 0.1,0 0.1,0.1 l -0.2,1.5 c 0.1,0 0,0 0,0 z"
   id="path489"
   style="stroke-width:0.277777" />
					<path
   class="st127"
   d="M 61.1,39.2 H 59 c 0,0 -0.1,0 -0.1,-0.1 v -1.4 c 0,0 0,-0.1 0.1,-0.1 h 2.2 c 0,0 0.1,0 0.1,0.1 l -0.2,1.5 c 0.1,0 0,0 0,0 z"
   id="path491"
   style="stroke-width:0.277777" />
					<path
   class="st128"
   d="M 61.1,39.2 H 59 c 0,0 -0.1,0 -0.1,-0.1 v -1.4 c 0,0 0,-0.1 0.1,-0.1 h 2.1 c 0,0 0.1,0 0.1,0.1 l -0.1,1.5 c 0.1,0 0,0 0,0 z"
   id="path493"
   style="stroke-width:0.277777" />
					<path
   class="st129"
   d="M 61.1,39.2 H 59 c 0,0 -0.1,0 -0.1,-0.1 v -1.4 c 0,0 0,-0.1 0.1,-0.1 h 2.1 c 0,0 0.1,0 0.1,0.1 l -0.1,1.5 c 0.1,0 0,0 0,0 z"
   id="path495"
   style="stroke-width:0.277777" />
					<path
   class="st130"
   d="M 61.1,39.2 H 59 c 0,0 -0.1,0 -0.1,-0.1 v -1.4 c 0,0 0,-0.1 0.1,-0.1 h 2.1 c 0,0 0.1,0 0.1,0.1 l -0.1,1.5 c 0.1,0 0,0 0,0 z"
   id="path497"
   style="stroke-width:0.277777" />
					<path
   class="st131"
   d="M 61.1,39.2 H 59 c 0,0 -0.1,0 -0.1,-0.1 v -1.4 c 0,0 0,-0.1 0.1,-0.1 h 2.1 c 0,0 0.1,0 0.1,0.1 l -0.1,1.5 c 0.1,0 0,0 0,0 z"
   id="path499"
   style="stroke-width:0.277777" />
					<path
   class="st132"
   d="M 61.1,39.2 H 59 c 0,0 -0.1,0 -0.1,-0.1 v -1.4 c 0,0 0,-0.1 0.1,-0.1 h 2.1 c 0,0 0.1,0 0.1,0.1 l -0.1,1.5 c 0,0 0,0 0,0 z"
   id="path501"
   style="stroke-width:0.277777" />
					<path
   class="st133"
   d="M 61.1,39.2 H 59 c 0,0 -0.1,0 -0.1,-0.1 v -1.4 c 0,0 0,-0.1 0.1,-0.1 h 2.1 c 0,0 0.1,0 0.1,0.1 l -0.1,1.5 c 0,0 0,0 0,0 z"
   id="path503"
   style="stroke-width:0.277777" />
					<path
   class="st134"
   d="M 61.1,39.2 H 59 c 0,0 -0.1,0 -0.1,-0.1 v -1.4 c 0,0 0,-0.1 0.1,-0.1 h 2.1 c 0,0 0.1,0 0.1,0.1 l -0.1,1.5 c 0,0 0,0 0,0 z"
   id="path505"
   style="stroke-width:0.277777" />
					<path
   class="st135"
   d="M 61.1,39.2 H 59 c 0,0 -0.1,0 -0.1,-0.1 v -1.4 c 0,0 0,-0.1 0.1,-0.1 h 2.1 c 0,0 0.1,0 0.1,0.1 l -0.1,1.5 c 0,0 0,0 0,0 z"
   id="path507"
   style="stroke-width:0.277777" />
					<path
   class="st136"
   d="M 61.1,39.2 H 59 c 0,0 -0.1,0 -0.1,-0.1 v -1.4 c 0,0 0,-0.1 0.1,-0.1 h 2.1 c 0,0 0.1,0 0.1,0.1 l -0.1,1.5 c 0,0 0,0 0,0 z"
   id="path509"
   style="stroke-width:0.277777" />
					<path
   class="st137"
   d="M 61.1,39.2 H 59 c 0,0 -0.1,0 -0.1,-0.1 v -1.4 c 0,0 0,-0.1 0.1,-0.1 h 2.1 c 0,0 0.1,0 0.1,0.1 l -0.1,1.5 c 0,-0.1 0,0 0,0 z"
   id="path511"
   style="stroke-width:0.277777" />
					<path
   class="st138"
   d="M 61.1,39.2 H 59 c 0,0 -0.1,0 -0.1,-0.1 v -1.4 c 0,0 0,-0.1 0.1,-0.1 h 2.1 c 0,0 0.1,0 0.1,0.1 l -0.1,1.5 c 0,-0.1 0,0 0,0 z"
   id="path513"
   style="stroke-width:0.277777" />
					<path
   class="st139"
   d="M 61.1,39.2 H 59 c 0,0 -0.1,0 -0.1,-0.1 v -1.4 c 0,0 0,-0.1 0.1,-0.1 h 2.1 c 0,0 0.1,0 0.1,0.1 l -0.1,1.5 c 0,-0.1 0,0 0,0 z"
   id="path515"
   style="stroke-width:0.277777" />
					<path
   class="st140"
   d="M 61.1,39.2 H 59 c 0,0 0,0 0,0 v -1.4 c 0,0 0,0 0,0 h 2.1 c 0,0 0,0 0,0 v 1.4 c 0,-0.1 0,0 0,0 z"
   id="path517"
   style="stroke-width:0.277777" />
					<path
   class="st141"
   d="M 61.1,39.2 H 59 c 0,0 0,0 0,0 v -1.4 c 0,0 0,0 0,0 h 2.1 c 0,0 0,0 0,0 v 1.4 c 0,-0.1 0,0 0,0 z"
   id="path519"
   style="stroke-width:0.277777" />
					<path
   class="st142"
   d="M 61.1,39.2 H 59 c 0,0 0,0 0,0 v -1.3 c 0,0 0,0 0,0 h 2.1 c 0,0 0,0 0,0 v 1.3 c 0,-0.1 0,0 0,0 z"
   id="path521"
   style="stroke-width:0.277777" />
					<path
   class="st143"
   d="M 61.1,39.2 H 59 c 0,0 0,0 0,0 v -1.3 c 0,0 0,0 0,0 h 2.1 c 0,0 0,0 0,0 v 1.3 c 0,-0.1 0,0 0,0 z"
   id="path523"
   style="stroke-width:0.277777" />
					<path
   class="st144"
   d="M 61.1,39.1 H 59 c 0,0 0,0 0,0 v -1.3 c 0,0 0,0 0,0 h 2.1 c 0,0 0,0 0,0 v 1.3 c 0,0 0,0 0,0 z"
   id="path525"
   style="stroke-width:0.277777" />
					<path
   class="st145"
   d="m 61.1,39.1 h -2 c 0,0 0,0 0,0 v -1.3 c 0,0 0,0 0,0 h 2 c 0,0 0,0 0,0 v 1.3 c 0,0 0,0 0,0 z"
   id="path527"
   style="stroke-width:0.277777" />
					<path
   class="st146"
   d="m 61,39.1 h -2 c 0,0 0,0 0,0 v -1.3 c 0,0 0,0 0,0 h 2 c 0,0 0,0 0,0 v 1.3 c 0.1,0 0.1,0 0,0 z"
   id="path529"
   style="stroke-width:0.277777" />
					<path
   class="st147"
   d="m 61,39.1 h -2 c 0,0 0,0 0,0 v -1.3 c 0,0 0,0 0,0 h 2 c 0,0 0,0 0,0 v 1.3 c 0.1,0 0.1,0 0,0 z"
   id="path531"
   style="stroke-width:0.277777" />
					<path
   class="st148"
   d="m 61,39.1 h -2 c 0,0 0,0 0,0 v -1.3 c 0,0 0,0 0,0 h 2 c 0,0 0,0 0,0 v 1.3 c 0.1,0 0.1,0 0,0 z"
   id="path533"
   style="stroke-width:0.277777" />
					<path
   class="st149"
   d="m 61,39.1 h -2 c 0,0 0,0 0,0 v -1.3 c 0,0 0,0 0,0 h 2 c 0,0 0,0 0,0 v 1.3 c 0.1,0 0.1,0 0,0 z"
   id="path535"
   style="stroke-width:0.277777" />
				</g>
				<path
   class="st150"
   d="m 61,39.1 h -2 c 0,0 0,0 0,0 v -1.3 c 0,0 0,0 0,0 h 2 c 0,0 0,0 0,0 v 1.3 c 0.1,0 0.1,0 0,0 z"
   id="path539"
   style="stroke-width:0.277777" />
				<linearGradient
   id="SVGID_8_"
   gradientUnits="userSpaceOnUse"
   x1="58.982201"
   y1="38.435299"
   x2="61.084202"
   y2="38.435299">
					<stop
   offset="0"
   style="stop-color:#CCCCCC"
   id="stop541" />
					<stop
   offset="1.449600e-02"
   style="stop-color:#DEDEDE"
   id="stop543" />
					<stop
   offset="3.518180e-02"
   style="stop-color:#F0F0F0"
   id="stop545" />
					<stop
   offset="5.672836e-02"
   style="stop-color:#FBFBFB"
   id="stop547" />
					<stop
   offset="8.031090e-02"
   style="stop-color:#FFFFFF"
   id="stop549" />
					<stop
   offset="0.1374"
   style="stop-color:#FFFFFF"
   id="stop551" />
					<stop
   offset="0.4845"
   style="stop-color:#FFFFFF"
   id="stop553" />
					<stop
   offset="0.8626"
   style="stop-color:#FFFFFF"
   id="stop555" />
					<stop
   offset="0.9249"
   style="stop-color:#FFFFFF"
   id="stop557" />
					<stop
   offset="0.9464"
   style="stop-color:#FBFBFB"
   id="stop559" />
					<stop
   offset="0.967"
   style="stop-color:#F0F0F0"
   id="stop561" />
					<stop
   offset="0.9871"
   style="stop-color:#DCDCDC"
   id="stop563" />
					<stop
   offset="1"
   style="stop-color:#CCCCCC"
   id="stop565" />
				</linearGradient>
				<path
   class="st151"
   d="m 61,39.1 h -2 c 0,0 0,0 0,0 v -1.3 c 0,0 0,0 0,0 h 2 c 0,0 0,0 0,0 v 1.3 c 0.1,0 0.1,0 0,0 z"
   id="path568"
   style="fill:url(#SVGID_8_);stroke-width:0.277777" />
				<linearGradient
   id="SVGID_9_"
   gradientUnits="userSpaceOnUse"
   x1="60.033199"
   y1="39.140598"
   x2="60.033199"
   y2="37.7365">
					<stop
   offset="0"
   style="stop-color:#CCCCCC"
   id="stop570" />
					<stop
   offset="1.449600e-02"
   style="stop-color:#DEDEDE"
   id="stop572" />
					<stop
   offset="3.518180e-02"
   style="stop-color:#F0F0F0"
   id="stop574" />
					<stop
   offset="5.672836e-02"
   style="stop-color:#FBFBFB"
   id="stop576" />
					<stop
   offset="8.031090e-02"
   style="stop-color:#FFFFFF"
   id="stop578" />
					<stop
   offset="0.1374"
   style="stop-color:#FFFFFF"
   id="stop580" />
					<stop
   offset="0.4845"
   style="stop-color:#FFFFFF"
   id="stop582" />
					<stop
   offset="0.8626"
   style="stop-color:#FFFFFF"
   id="stop584" />
					<stop
   offset="0.9249"
   style="stop-color:#FFFFFF"
   id="stop586" />
					<stop
   offset="0.9464"
   style="stop-color:#FBFBFB"
   id="stop588" />
					<stop
   offset="0.967"
   style="stop-color:#F0F0F0"
   id="stop590" />
					<stop
   offset="0.9871"
   style="stop-color:#DCDCDC"
   id="stop592" />
					<stop
   offset="1"
   style="stop-color:#CCCCCC"
   id="stop594" />
				</linearGradient>
				<path
   class="st152"
   d="m 61,39.1 h -2 c 0,0 0,0 0,0 v -1.3 c 0,0 0,0 0,0 h 2 c 0,0 0,0 0,0 v 1.3 c 0.1,0 0.1,0 0,0 z"
   id="path597"
   style="fill:url(#SVGID_9_);stroke-width:0.277777" />
				<rect
   x="59.599998"
   y="38.299999"
   width="1"
   height="0.2"
   id="rect599"
   style="stroke-width:0.277777" />
			</g>
			<g
   id="g731"
   transform="matrix(3.6,0,0,3.4624639,-168.40737,-96.342396)"
   style="stroke-width:0.283241">
				<g
   id="g667"
   style="stroke-width:0.283241">
					<path
   class="st20"
   d="m 69.1,39.2 h -2.2 c 0,0 -0.1,0 -0.1,-0.1 v -1.5 c 0,0 0,-0.1 0.1,-0.1 h 2.2 c 0,0 0.1,0 0.1,0.1 l -0.1,1.6 c 0,0 0,0 0,0 z"
   id="path603"
   style="stroke-width:0.283241" />
					<path
   class="st119"
   d="m 69.1,39.2 h -2.2 c 0,0 -0.1,0 -0.1,-0.1 v -1.5 c 0,0 0,-0.1 0.1,-0.1 h 2.2 c 0,0 0.1,0 0.1,0.1 l -0.1,1.6 c 0,0 0,0 0,0 z"
   id="path605"
   style="stroke-width:0.283241" />
					<path
   class="st120"
   d="m 69,39.2 h -2.2 c 0,0 -0.1,0 -0.1,-0.1 v -1.5 c 0,0 0,-0.1 0.1,-0.1 H 69 c 0,0 0.1,0 0.1,0.1 L 69,39.2 c 0.1,0 0.1,0 0,0 z"
   id="path607"
   style="stroke-width:0.283241" />
					<path
   class="st121"
   d="m 69,39.2 h -2.2 c 0,0 -0.1,0 -0.1,-0.1 v -1.5 c 0,0 0,-0.1 0.1,-0.1 H 69 c 0,0 0.1,0 0.1,0.1 L 69,39.2 c 0.1,0 0.1,0 0,0 z"
   id="path609"
   style="stroke-width:0.283241" />
					<path
   class="st122"
   d="m 69,39.2 h -2.2 c 0,0 -0.1,0 -0.1,-0.1 v -1.5 c 0,0 0,-0.1 0.1,-0.1 H 69 c 0,0 0.1,0 0.1,0.1 L 69,39.2 c 0.1,0 0.1,0 0,0 z"
   id="path611"
   style="stroke-width:0.283241" />
					<path
   class="st123"
   d="m 69,39.2 h -2.2 c 0,0 -0.1,0 -0.1,-0.1 v -1.5 c 0,0 0,-0.1 0.1,-0.1 H 69 c 0,0 0.1,0 0.1,0.1 L 69,39.2 c 0.1,0 0.1,0 0,0 z"
   id="path613"
   style="stroke-width:0.283241" />
					<path
   class="st124"
   d="m 69,39.2 h -2.2 c 0,0 -0.1,0 -0.1,-0.1 v -1.4 c 0,0 0,-0.1 0.1,-0.1 H 69 c 0,0 0.1,0 0.1,0.1 L 69,39.2 c 0.1,0 0.1,0 0,0 z"
   id="path615"
   style="stroke-width:0.283241" />
					<path
   class="st125"
   d="m 69,39.2 h -2.2 c 0,0 -0.1,0 -0.1,-0.1 v -1.4 c 0,0 0,-0.1 0.1,-0.1 H 69 c 0,0 0.1,0 0.1,0.1 L 69,39.2 c 0.1,0 0.1,0 0,0 z"
   id="path617"
   style="stroke-width:0.283241" />
					<path
   class="st126"
   d="m 69,39.2 h -2.2 c 0,0 -0.1,0 -0.1,-0.1 v -1.4 c 0,0 0,-0.1 0.1,-0.1 H 69 c 0,0 0.1,0 0.1,0.1 L 69,39.2 c 0.1,0 0.1,0 0,0 z"
   id="path619"
   style="stroke-width:0.283241" />
					<path
   class="st127"
   d="m 69,39.2 h -2.2 c 0,0 -0.1,0 -0.1,-0.1 v -1.4 c 0,0 0,-0.1 0.1,-0.1 H 69 c 0,0 0.1,0 0.1,0.1 L 69,39.2 c 0.1,0 0.1,0 0,0 z"
   id="path621"
   style="stroke-width:0.283241" />
					<path
   class="st128"
   d="m 69,39.2 h -2.1 c 0,0 -0.1,0 -0.1,-0.1 v -1.4 c 0,0 0,-0.1 0.1,-0.1 H 69 c 0,0 0.1,0 0.1,0.1 L 69,39.2 c 0.1,0 0.1,0 0,0 z"
   id="path623"
   style="stroke-width:0.283241" />
					<path
   class="st129"
   d="m 69,39.2 h -2.1 c 0,0 -0.1,0 -0.1,-0.1 v -1.4 c 0,0 0,-0.1 0.1,-0.1 H 69 c 0,0 0.1,0 0.1,0.1 L 69,39.2 c 0.1,0 0,0 0,0 z"
   id="path625"
   style="stroke-width:0.283241" />
					<path
   class="st130"
   d="m 69,39.2 h -2.1 c 0,0 -0.1,0 -0.1,-0.1 v -1.4 c 0,0 0,-0.1 0.1,-0.1 H 69 c 0,0 0.1,0 0.1,0.1 L 69,39.2 c 0.1,0 0,0 0,0 z"
   id="path627"
   style="stroke-width:0.283241" />
					<path
   class="st131"
   d="m 69,39.2 h -2.1 c 0,0 -0.1,0 -0.1,-0.1 v -1.4 c 0,0 0,-0.1 0.1,-0.1 H 69 c 0,0 0.1,0 0.1,0.1 L 69,39.2 c 0.1,0 0,0 0,0 z"
   id="path629"
   style="stroke-width:0.283241" />
					<path
   class="st132"
   d="m 69,39.2 h -2.1 c 0,0 -0.1,0 -0.1,-0.1 v -1.4 c 0,0 0,-0.1 0.1,-0.1 H 69 c 0,0 0.1,0 0.1,0.1 L 69,39.2 c 0.1,0 0,0 0,0 z"
   id="path631"
   style="stroke-width:0.283241" />
					<path
   class="st133"
   d="m 69,39.2 h -2.1 c 0,0 -0.1,0 -0.1,-0.1 v -1.4 c 0,0 0,-0.1 0.1,-0.1 H 69 c 0,0 0.1,0 0.1,0.1 L 69,39.2 c 0.1,0 0,0 0,0 z"
   id="path633"
   style="stroke-width:0.283241" />
					<path
   class="st134"
   d="m 69,39.2 h -2.1 c 0,0 -0.1,0 -0.1,-0.1 v -1.4 c 0,0 0,-0.1 0.1,-0.1 H 69 c 0,0 0.1,0 0.1,0.1 L 69,39.2 c 0.1,0 0,0 0,0 z"
   id="path635"
   style="stroke-width:0.283241" />
					<path
   class="st135"
   d="m 69,39.2 h -2.1 c 0,0 -0.1,0 -0.1,-0.1 v -1.4 c 0,0 0,-0.1 0.1,-0.1 H 69 c 0,0 0.1,0 0.1,0.1 L 69,39.2 c 0,0 0,0 0,0 z"
   id="path637"
   style="stroke-width:0.283241" />
					<path
   class="st136"
   d="m 69,39.2 h -2.1 c 0,0 -0.1,0 -0.1,-0.1 v -1.4 c 0,0 0,-0.1 0.1,-0.1 H 69 c 0,0 0.1,0 0.1,0.1 L 69,39.2 c 0,0 0,0 0,0 z"
   id="path639"
   style="stroke-width:0.283241" />
					<path
   class="st137"
   d="m 69,39.2 h -2.1 c 0,0 -0.1,0 -0.1,-0.1 v -1.4 c 0,0 0,-0.1 0.1,-0.1 H 69 c 0,0 0.1,0 0.1,0.1 L 69,39.2 c 0,-0.1 0,0 0,0 z"
   id="path641"
   style="stroke-width:0.283241" />
					<path
   class="st138"
   d="m 69,39.2 h -2.1 c 0,0 -0.1,0 -0.1,-0.1 v -1.4 c 0,0 0,-0.1 0.1,-0.1 H 69 c 0,0 0.1,0 0.1,0.1 L 69,39.2 c 0,-0.1 0,0 0,0 z"
   id="path643"
   style="stroke-width:0.283241" />
					<path
   class="st139"
   d="m 69,39.2 h -2.1 c 0,0 -0.1,0 -0.1,-0.1 v -1.4 c 0,0 0,-0.1 0.1,-0.1 H 69 c 0,0 0.1,0 0.1,0.1 L 69,39.2 c 0,-0.1 0,0 0,0 z"
   id="path645"
   style="stroke-width:0.283241" />
					<path
   class="st140"
   d="m 69,39.2 h -2.1 c 0,0 0,0 0,0 v -1.4 c 0,0 0,0 0,0 H 69 c 0,0 0,0 0,0 v 1.4 c 0,-0.1 0,0 0,0 z"
   id="path647"
   style="stroke-width:0.283241" />
					<path
   class="st141"
   d="m 69,39.2 h -2.1 c 0,0 0,0 0,0 v -1.4 c 0,0 0,0 0,0 H 69 c 0,0 0,0 0,0 v 1.4 c 0,-0.1 0,0 0,0 z"
   id="path649"
   style="stroke-width:0.283241" />
					<path
   class="st142"
   d="m 69,39.2 h -2.1 c 0,0 0,0 0,0 v -1.3 c 0,0 0,0 0,0 H 69 c 0,0 0,0 0,0 v 1.3 c 0,-0.1 0,0 0,0 z"
   id="path651"
   style="stroke-width:0.283241" />
					<path
   class="st143"
   d="m 69,39.2 h -2.1 c 0,0 0,0 0,0 v -1.3 c 0,0 0,0 0,0 H 69 c 0,0 0,0 0,0 v 1.3 c 0,-0.1 0,0 0,0 z"
   id="path653"
   style="stroke-width:0.283241" />
					<path
   class="st144"
   d="m 69,39.1 h -2.1 c 0,0 0,0 0,0 v -1.3 c 0,0 0,0 0,0 H 69 c 0,0 0,0 0,0 v 1.3 c 0,0 0,0 0,0 z"
   id="path655"
   style="stroke-width:0.283241" />
					<path
   class="st145"
   d="m 69,39.1 h -2 c 0,0 0,0 0,0 v -1.3 c 0,0 0,0 0,0 h 2 c 0,0 0,0 0,0 v 1.3 c 0,0 0,0 0,0 z"
   id="path657"
   style="stroke-width:0.283241" />
					<path
   class="st146"
   d="m 69,39.1 h -2 c 0,0 0,0 0,0 v -1.3 c 0,0 0,0 0,0 h 2 c 0,0 0,0 0,0 v 1.3 c 0,0 0,0 0,0 z"
   id="path659"
   style="stroke-width:0.283241" />
					<path
   class="st147"
   d="m 69,39.1 h -2 c 0,0 0,0 0,0 v -1.3 c 0,0 0,0 0,0 h 2 c 0,0 0,0 0,0 v 1.3 c 0,0 0,0 0,0 z"
   id="path661"
   style="stroke-width:0.283241" />
					<path
   class="st148"
   d="m 69,39.1 h -2 c 0,0 0,0 0,0 v -1.3 c 0,0 0,0 0,0 h 2 c 0,0 0,0 0,0 v 1.3 c 0,0 0,0 0,0 z"
   id="path663"
   style="stroke-width:0.283241" />
					<path
   class="st149"
   d="m 68.9,39.1 h -2 c 0,0 0,0 0,0 v -1.3 c 0,0 0,0 0,0 h 2 c 0,0 0,0 0,0 v 1.3 c 0.1,0 0.1,0 0,0 z"
   id="path665"
   style="stroke-width:0.283241" />
				</g>
				<path
   class="st150"
   d="m 68.9,39.1 h -2 c 0,0 0,0 0,0 v -1.3 c 0,0 0,0 0,0 h 2 c 0,0 0,0 0,0 v 1.3 c 0.1,0 0.1,0 0,0 z"
   id="path669"
   style="stroke-width:0.283241" />
				
					<linearGradient
   id="SVGID_10_"
   gradientUnits="userSpaceOnUse"
   x1="31.138901"
   y1="38.435299"
   x2="33.240799"
   y2="38.435299"
   gradientTransform="translate(35.7555)">
					<stop
   offset="0"
   style="stop-color:#CCCCCC"
   id="stop671" />
					<stop
   offset="1.449600e-02"
   style="stop-color:#DEDEDE"
   id="stop673" />
					<stop
   offset="3.518180e-02"
   style="stop-color:#F0F0F0"
   id="stop675" />
					<stop
   offset="5.672836e-02"
   style="stop-color:#FBFBFB"
   id="stop677" />
					<stop
   offset="8.031090e-02"
   style="stop-color:#FFFFFF"
   id="stop679" />
					<stop
   offset="0.1374"
   style="stop-color:#FFFFFF"
   id="stop681" />
					<stop
   offset="0.4845"
   style="stop-color:#FFFFFF"
   id="stop683" />
					<stop
   offset="0.8626"
   style="stop-color:#FFFFFF"
   id="stop685" />
					<stop
   offset="0.9249"
   style="stop-color:#FFFFFF"
   id="stop687" />
					<stop
   offset="0.9464"
   style="stop-color:#FBFBFB"
   id="stop689" />
					<stop
   offset="0.967"
   style="stop-color:#F0F0F0"
   id="stop691" />
					<stop
   offset="0.9871"
   style="stop-color:#DCDCDC"
   id="stop693" />
					<stop
   offset="1"
   style="stop-color:#CCCCCC"
   id="stop695" />
				</linearGradient>
				<path
   class="st153"
   d="m 68.9,39.1 h -2 c 0,0 0,0 0,0 v -1.3 c 0,0 0,0 0,0 h 2 c 0,0 0,0 0,0 v 1.3 c 0.1,0 0.1,0 0,0 z"
   id="path698"
   style="fill:url(#SVGID_10_);stroke-width:0.283241" />
				
					<linearGradient
   id="SVGID_11_"
   gradientUnits="userSpaceOnUse"
   x1="32.189899"
   y1="39.137402"
   x2="32.189899"
   y2="37.733299"
   gradientTransform="translate(35.7555)">
					<stop
   offset="0"
   style="stop-color:#CCCCCC"
   id="stop700" />
					<stop
   offset="1.449600e-02"
   style="stop-color:#DEDEDE"
   id="stop702" />
					<stop
   offset="3.518180e-02"
   style="stop-color:#F0F0F0"
   id="stop704" />
					<stop
   offset="5.672836e-02"
   style="stop-color:#FBFBFB"
   id="stop706" />
					<stop
   offset="8.031090e-02"
   style="stop-color:#FFFFFF"
   id="stop708" />
					<stop
   offset="0.1374"
   style="stop-color:#FFFFFF"
   id="stop710" />
					<stop
   offset="0.4845"
   style="stop-color:#FFFFFF"
   id="stop712" />
					<stop
   offset="0.8626"
   style="stop-color:#FFFFFF"
   id="stop714" />
					<stop
   offset="0.9249"
   style="stop-color:#FFFFFF"
   id="stop716" />
					<stop
   offset="0.9464"
   style="stop-color:#FBFBFB"
   id="stop718" />
					<stop
   offset="0.967"
   style="stop-color:#F0F0F0"
   id="stop720" />
					<stop
   offset="0.9871"
   style="stop-color:#DCDCDC"
   id="stop722" />
					<stop
   offset="1"
   style="stop-color:#CCCCCC"
   id="stop724" />
				</linearGradient>
				<path
   class="st154"
   d="m 68.9,39.1 h -2 c 0,0 0,0 0,0 v -1.3 c 0,0 0,0 0,0 h 2 c 0,0 0,0 0,0 v 1.3 c 0.1,0 0.1,0 0,0 z"
   id="path727"
   style="fill:url(#SVGID_11_);stroke-width:0.283241" />
				<polygon
   points="68.4,38.3 68,38.3 68,38 67.9,38 67.9,38.3 67.5,38.3 67.5,38.5 67.9,38.5 67.9,38.9 68,38.9 68,38.5 68.4,38.5 "
   id="polygon729"
   style="stroke-width:0.283241" />
			</g>
			<linearGradient
   id="SVGID_12_"
   gradientUnits="userSpaceOnUse"
   x1="40.0196"
   y1="55.1218"
   x2="42.692"
   y2="55.1218">
				<stop
   offset="0"
   style="stop-color:#808080"
   id="stop733" />
				<stop
   offset="9.629603e-03"
   style="stop-color:#A0A0A0"
   id="stop735" />
				<stop
   offset="2.091324e-02"
   style="stop-color:#BDBDBD"
   id="stop737" />
				<stop
   offset="3.288168e-02"
   style="stop-color:#D5D5D5"
   id="stop739" />
				<stop
   offset="4.567169e-02"
   style="stop-color:#E5E5E5"
   id="stop741" />
				<stop
   offset="5.985850e-02"
   style="stop-color:#EFEFEF"
   id="stop743" />
				<stop
   offset="7.822311e-02"
   style="stop-color:#F2F2F2"
   id="stop745" />
				<stop
   offset="0.2193"
   style="stop-color:#EAEAEA"
   id="stop747" />
				<stop
   offset="0.6668"
   style="stop-color:#D4D4D4"
   id="stop749" />
				<stop
   offset="0.9564"
   style="stop-color:#CCCCCC"
   id="stop751" />
			</linearGradient>
			<path
   class="st155"
   d="M42.1,64.5h-2.3c0,0-0.1,0-0.1-0.1V45.8c0,0,0-0.1,0.1-0.1h2.3c0,0,0.1,0,0.1,0.1L42.1,64.5     C42.2,64.4,42.2,64.5,42.1,64.5z"
   id="path754" />
			<linearGradient
   id="SVGID_13_"
   gradientUnits="userSpaceOnUse"
   x1="37.7776"
   y1="48.3539"
   x2="39.6898"
   y2="48.3539">
				<stop
   offset="0"
   style="stop-color:#808080"
   id="stop756" />
				<stop
   offset="1.371041e-02"
   style="stop-color:#888888"
   id="stop758" />
				<stop
   offset="8.252730e-02"
   style="stop-color:#ACACAC"
   id="stop760" />
				<stop
   offset="0.155"
   style="stop-color:#CACACA"
   id="stop762" />
				<stop
   offset="0.2311"
   style="stop-color:#E2E2E2"
   id="stop764" />
				<stop
   offset="0.3124"
   style="stop-color:#F2F2F2"
   id="stop766" />
				<stop
   offset="0.4027"
   style="stop-color:#FCFCFC"
   id="stop768" />
				<stop
   offset="0.5194"
   style="stop-color:#FFFFFF"
   id="stop770" />
				<stop
   offset="0.7347"
   style="stop-color:#FDFDFD"
   id="stop772" />
				<stop
   offset="0.8122"
   style="stop-color:#F6F6F6"
   id="stop774" />
				<stop
   offset="0.8675"
   style="stop-color:#EBEBEB"
   id="stop776" />
				<stop
   offset="0.9122"
   style="stop-color:#DADADA"
   id="stop778" />
				<stop
   offset="0.9505"
   style="stop-color:#C4C4C4"
   id="stop780" />
				<stop
   offset="0.9838"
   style="stop-color:#A9A9A9"
   id="stop782" />
				<stop
   offset="1"
   style="stop-color:#999999"
   id="stop784" />
			</linearGradient>
			<path
   class="st156"
   d="M39.7,49.4h-1.8c0,0-0.1,0-0.1-0.1v-1.9c0,0,0-0.1,0.1-0.1h1.8V49.4z"
   id="path787" />
			
				<linearGradient
   id="SVGID_14_"
   gradientUnits="userSpaceOnUse"
   x1="37.7776"
   y1="191.3269"
   x2="39.6898"
   y2="191.3269"
   gradientTransform="matrix(1 0 0 -1 0 253.2165)">
				<stop
   offset="0"
   style="stop-color:#808080"
   id="stop789" />
				<stop
   offset="1.371041e-02"
   style="stop-color:#888888"
   id="stop791" />
				<stop
   offset="8.252730e-02"
   style="stop-color:#ACACAC"
   id="stop793" />
				<stop
   offset="0.155"
   style="stop-color:#CACACA"
   id="stop795" />
				<stop
   offset="0.2311"
   style="stop-color:#E2E2E2"
   id="stop797" />
				<stop
   offset="0.3124"
   style="stop-color:#F2F2F2"
   id="stop799" />
				<stop
   offset="0.4027"
   style="stop-color:#FCFCFC"
   id="stop801" />
				<stop
   offset="0.5194"
   style="stop-color:#FFFFFF"
   id="stop803" />
				<stop
   offset="0.7347"
   style="stop-color:#FDFDFD"
   id="stop805" />
				<stop
   offset="0.8122"
   style="stop-color:#F6F6F6"
   id="stop807" />
				<stop
   offset="0.8675"
   style="stop-color:#EBEBEB"
   id="stop809" />
				<stop
   offset="0.9122"
   style="stop-color:#DADADA"
   id="stop811" />
				<stop
   offset="0.9505"
   style="stop-color:#C4C4C4"
   id="stop813" />
				<stop
   offset="0.9838"
   style="stop-color:#A9A9A9"
   id="stop815" />
				<stop
   offset="1"
   style="stop-color:#999999"
   id="stop817" />
			</linearGradient>
			<path
   class="st157"
   d="M39.7,60.9h-1.8c0,0-0.1,0-0.1,0.1v1.9c0,0,0,0.1,0.1,0.1h1.8V60.9z"
   id="path820" />
		</g>
		<g
   id="g902">
			<g
   id="g848">
				<g
   id="g826">
					<path
   class="st158"
   d="M74.6,78c-0.1,0-0.2,0-0.3-0.1L53.1,65.7c-0.3-0.2-0.4-0.5-0.2-0.8c0.2-0.3,0.5-0.4,0.8-0.2L74.9,77       c0.3,0.2,0.4,0.5,0.2,0.8C75,77.9,74.8,78,74.6,78z"
   id="path824" />
				</g>
				<g
   id="g836">
					<g
   id="g830">
						<path
   class="st158"
   d="M70.9,81.2c-0.3,0-0.6-0.2-0.6-0.6l-0.1-5.3c0-0.3,0.2-0.6,0.6-0.6c0.3,0,0.6,0.2,0.6,0.6l0.1,5.3        C71.5,80.9,71.3,81.2,70.9,81.2C70.9,81.2,70.9,81.2,70.9,81.2z"
   id="path828" />
					</g>
					<g
   id="g834">
						<path
   class="st158"
   d="M70.8,75.8c-0.2,0-0.4-0.1-0.5-0.3c-0.2-0.3-0.1-0.6,0.2-0.8l4.7-2.6c0.3-0.2,0.6-0.1,0.8,0.2        c0.2,0.3,0.1,0.6-0.2,0.8l-4.7,2.6C71,75.8,70.9,75.8,70.8,75.8z"
   id="path832" />
					</g>
				</g>
				<g
   id="g846">
					<g
   id="g840">
						<path
   class="st158"
   d="M52.5,70.5c-0.2,0-0.4-0.1-0.5-0.3c-0.2-0.3-0.1-0.6,0.2-0.8l4.7-2.6c0.3-0.2,0.6-0.1,0.8,0.2        c0.2,0.3,0.1,0.6-0.2,0.8l-4.7,2.6C52.7,70.5,52.6,70.5,52.5,70.5z"
   id="path838" />
					</g>
					<g
   id="g844">
						<path
   class="st158"
   d="M57.2,68c-0.3,0-0.6-0.2-0.6-0.6l-0.1-5.3c0-0.3,0.2-0.6,0.6-0.6c0.3,0,0.6,0.2,0.6,0.6l0.1,5.3        C57.7,67.7,57.5,68,57.2,68C57.2,68,57.2,68,57.2,68z"
   id="path842" />
					</g>
				</g>
			</g>
			<g
   id="g874">
				<g
   id="g852">
					<path
   class="st158"
   d="M53.4,78c-0.2,0-0.4-0.1-0.5-0.3c-0.2-0.3-0.1-0.6,0.2-0.8l21.2-12.2c0.3-0.2,0.6-0.1,0.8,0.2       c0.2,0.3,0.1,0.6-0.2,0.8L53.7,78C53.6,78,53.5,78,53.4,78z"
   id="path850" />
				</g>
				<g
   id="g862">
					<g
   id="g856">
						<path
   class="st158"
   d="M70.8,68C70.8,68,70.8,68,70.8,68c-0.3,0-0.6-0.3-0.6-0.6l0.1-5.3c0-0.3,0.3-0.6,0.6-0.6        c0.3,0,0.6,0.3,0.6,0.6l-0.1,5.3C71.4,67.7,71.1,68,70.8,68z"
   id="path854" />
					</g>
					<g
   id="g860">
						<path
   class="st158"
   d="M75.5,70.5c-0.1,0-0.2,0-0.3-0.1l-4.7-2.6c-0.3-0.2-0.4-0.5-0.2-0.8c0.2-0.3,0.5-0.4,0.8-0.2l4.7,2.6        c0.3,0.2,0.4,0.5,0.2,0.8C75.9,70.4,75.7,70.5,75.5,70.5z"
   id="path858" />
					</g>
				</g>
				<g
   id="g872">
					<g
   id="g866">
						<path
   class="st158"
   d="M57.2,75.8c-0.1,0-0.2,0-0.3-0.1l-4.7-2.6C52,73,51.9,72.7,52,72.4s0.5-0.4,0.8-0.2l4.7,2.6        c0.3,0.2,0.4,0.5,0.2,0.8C57.6,75.7,57.4,75.8,57.2,75.8z"
   id="path864" />
					</g>
					<g
   id="g870">
						<path
   class="st158"
   d="M57.1,81.2C57.1,81.2,57.1,81.2,57.1,81.2c-0.3,0-0.6-0.3-0.6-0.6l0.1-5.3c0-0.3,0.3-0.6,0.6-0.6        c0.3,0,0.6,0.3,0.6,0.6l-0.1,5.3C57.6,80.9,57.4,81.2,57.1,81.2z"
   id="path868" />
					</g>
				</g>
			</g>
			<g
   id="g900">
				<g
   id="g878">
					<path
   class="st158"
   d="M64,84.2c-0.3,0-0.6-0.3-0.6-0.6V59.1c0-0.3,0.3-0.6,0.6-0.6s0.6,0.3,0.6,0.6v24.5       C64.6,83.9,64.3,84.2,64,84.2z"
   id="path876" />
				</g>
				<g
   id="g888">
					<g
   id="g882">
						<path
   class="st158"
   d="M64,64c-0.1,0-0.2,0-0.3-0.1l-4.6-2.7c-0.3-0.2-0.4-0.5-0.2-0.8c0.2-0.3,0.5-0.4,0.8-0.2l4.6,2.7        c0.3,0.2,0.4,0.5,0.2,0.8C64.4,63.9,64.2,64,64,64z"
   id="path880" />
					</g>
					<g
   id="g886">
						<path
   class="st158"
   d="M64,64c-0.2,0-0.4-0.1-0.5-0.3c-0.2-0.3-0.1-0.6,0.2-0.8l4.6-2.7c0.3-0.2,0.6-0.1,0.8,0.2        c0.2,0.3,0.1,0.6-0.2,0.8l-4.6,2.7C64.2,64,64.1,64,64,64z"
   id="path884" />
					</g>
				</g>
				<g
   id="g898">
					<g
   id="g892">
						<path
   class="st158"
   d="M59.4,82.5c-0.2,0-0.4-0.1-0.5-0.3c-0.2-0.3-0.1-0.6,0.2-0.8l4.6-2.7c0.3-0.2,0.6-0.1,0.8,0.2        c0.2,0.3,0.1,0.6-0.2,0.8l-4.6,2.7C59.6,82.5,59.5,82.5,59.4,82.5z"
   id="path890" />
					</g>
					<g
   id="g896">
						<path
   class="st158"
   d="M68.6,82.5c-0.1,0-0.2,0-0.3-0.1l-4.6-2.7c-0.3-0.2-0.4-0.5-0.2-0.8c0.2-0.3,0.5-0.4,0.8-0.2l4.6,2.7        c0.3,0.2,0.4,0.5,0.2,0.8C68.9,82.5,68.8,82.5,68.6,82.5z"
   id="path894" />
					</g>
				</g>
			</g>
		</g>
	</g>
</g>
</svg>
