<?xml version="1.0" encoding="UTF-8" standalone="no"?>
<!-- Generator: Adobe Illustrator 22.1.0, SVG Export Plug-In . SVG Version: 6.00 Build 0)  -->

<svg
   version="1.1"
   id="Calque_3"
   x="0px"
   y="0px"
   viewBox="0 0 128 128"
   style="enable-background:new 0 0 128 128;"
   xml:space="preserve"
   sodipodi:docname="syn_chambre_simple.svg"
   inkscape:version="1.2.2 (b0a8486541, 2022-12-01)"
   xmlns:inkscape="http://www.inkscape.org/namespaces/inkscape"
   xmlns:sodipodi="http://sodipodi.sourceforge.net/DTD/sodipodi-0.dtd"
   xmlns:xlink="http://www.w3.org/1999/xlink"
   xmlns="http://www.w3.org/2000/svg"
   xmlns:svg="http://www.w3.org/2000/svg"><defs
   id="defs247" /><sodipodi:namedview
   id="namedview245"
   pagecolor="#ffffff"
   bordercolor="#666666"
   borderopacity="1.0"
   inkscape:showpageshadow="2"
   inkscape:pageopacity="0.0"
   inkscape:pagecheckerboard="0"
   inkscape:deskcolor="#d1d1d1"
   showgrid="false"
   inkscape:zoom="4.3199805"
   inkscape:cx="46.875212"
   inkscape:cy="66.89845"
   inkscape:window-width="1920"
   inkscape:window-height="1043"
   inkscape:window-x="0"
   inkscape:window-y="0"
   inkscape:window-maximized="1"
   inkscape:current-layer="g242" />
<style
   type="text/css"
   id="style173">
	.st0{fill:none;}
	.st1{fill:#EEC855;}
	.st2{fill:#4EBAD3;}
	.st3{fill:url(#SVGID_1_);}
	.st4{fill:url(#SVGID_2_);}
	.st5{fill:#B6FFFF;}
	.st6{fill:#754C24;}
	.st7{fill:#7CDAA6;}
	.st8{fill:none;stroke:#C69C6D;stroke-linecap:round;stroke-linejoin:round;stroke-miterlimit:10;}
	.st9{fill:none;stroke:#A27F47;stroke-linecap:round;stroke-linejoin:round;stroke-miterlimit:10;}
	.st10{fill:url(#SVGID_3_);}
	.st11{fill:#E8EC7A;}
	.st12{fill:#FAFFC4;}
	.st13{fill:url(#SVGID_4_);}
	.st14{opacity:0.6;fill:url(#SVGID_5_);}
</style>
<pattern
   y="128"
   width="32.2"
   height="34.5"
   patternUnits="userSpaceOnUse"
   id="Nouvelle_nuance_de_motif_18"
   viewBox="0 -34.5 32.2 34.5"
   style="overflow:visible;">
	<g
   id="g179">
		<rect
   y="-34.5"
   class="st0"
   width="32.2"
   height="34.5"
   id="rect175" />
		<rect
   y="-34.5"
   class="st1"
   width="32.2"
   height="34.5"
   id="rect177" />
	</g>
</pattern>
<g
   id="g242">
	<ellipse
   transform="matrix(0.9703 -0.2421 0.2421 0.9703 -13.5881 17.3944)"
   class="st2"
   cx="64"
   cy="64"
   rx="64"
   ry="64"
   id="ellipse182" />
	<linearGradient
   id="SVGID_1_"
   gradientUnits="userSpaceOnUse"
   x1="134.1689"
   y1="95.1419"
   x2="49.1702"
   y2="60.6113">
		<stop
   offset="0"
   style="stop-color:#2A717E;stop-opacity:0"
   id="stop184" />
		<stop
   offset="1"
   style="stop-color:#2A717E"
   id="stop186" />
	</linearGradient>
	<path
   class="st3"
   d="M99.8,117.1c17-11.5,28.2-31,28.2-53.1c0-3.1-0.2-6.2-0.6-9.2L83.3,38.1l-31.7,6.3l-9.3,51L99.8,117.1z"
   id="path189" />
	<linearGradient
   id="SVGID_2_"
   gradientUnits="userSpaceOnUse"
   x1="63.4856"
   y1="44.9249"
   x2="12.6698"
   y2="24.281">
		<stop
   offset="0"
   style="stop-color:#2A717E;stop-opacity:0"
   id="stop191" />
		<stop
   offset="1"
   style="stop-color:#2A717E"
   id="stop193" />
	</linearGradient>
	<path
   class="st4"
   d="M50.9,51.5c11.4,5.5,21.5,4,21.5-2.9c0-1,7.2-8.8,7-9.8L34.1,23.4l2,12.9l-11.3,5.5L50.9,51.5z"
   id="path196" />
	<path
   class="st5"
   d="M64,71.3C64,71.3,64,71.3,64,71.3"
   id="path198" />
	<g
   id="g207">
		<g
   id="XMLID_3_">
			<g
   id="g204">
				<path
   class="st6"
   d="M91.5,86.7v9.2H85l-2.9-9.2H45.8L43,95.9h-6.5v-9.2v-2.8V69.9h2.6l5.7-15.2V38.1h38.5v16.7l5.6,15.2h2.6      v13.9V86.7z"
   id="path200" />
				<path
   class="st7"
   d="M82.1,68.6l0.3,1.4H45.5l0.4-1.4l2.7-7.3c0.5-2.8,2.7-5.3,5.9-5.3h19c3.3,0,5.1,2.1,5.9,5.3L82.1,68.6z"
   id="path202" />
			</g>
		</g>
	</g>
	<line
   class="st8"
   x1="48.6"
   y1="79.9"
   x2="79.4"
   y2="79.9"
   id="line209" />
	<line
   class="st9"
   x1="48.599998"
   y1="44.200001"
   x2="79.400002"
   y2="44.200001"
   id="line211"
   transform="matrix(0.88973098,0,0,0.88973098,6.9991209,4.873891)"
   style="stroke-width:1.12394" />
	<line
   class="st8"
   x1="45.9"
   y1="76.6"
   x2="82.1"
   y2="76.6"
   id="line213" />
	<g
   id="g220">
		<g
   id="g218">
			
				<pattern
   id="SVGID_3_"
   xlink:href="#Nouvelle_nuance_de_motif_18"
   patternTransform="matrix(1.3281 0 0 1.3281 2655.5723 2695.4775)">
			</pattern>
			<path
   class="st10"
   d="M32.7,23.4c1.3,1.7,1.9,3.9,1.9,6.2c0,5.7-4.6,10.3-10.3,10.3c-1,0-2-0.5-2.9-0.8c1.9,2.4,4.9,4.4,8.2,4.4     c5.7,0,10.3-4.6,10.3-10.3C39.9,28.6,37,24.6,32.7,23.4z"
   id="path216" />
		</g>
	</g>
	<g
   id="g224">
		<path
   class="st11"
   d="M32.3,22.8c1.3,1.7,2.1,3.9,2.1,6.2c0,5.7-4.6,10.3-10.3,10.3c-1,0-1.9-0.1-2.8-0.4c1.9,2.4,4.8,4,8.1,4    c5.7,0,10.3-4.6,10.3-10.3C39.7,28,36.6,24,32.3,22.8z"
   id="path222" />
	</g>
	<g
   id="g240">
		<polygon
   class="st12"
   points="79.8,55.3 48.1,55.3 42.5,67.8 85.4,67.8   "
   id="polygon226" />
		
			<pattern
   id="SVGID_4_"
   xlink:href="#Nouvelle_nuance_de_motif_18"
   patternTransform="matrix(1.3281 0 0 1.3281 2657.8965 2694.8818)">
		</pattern>
		<path
   class="st13"
   d="M85.6,70.2v-1.1c0-2-1.6-3.6-3.6-3.6H45.9c-2,0-3.6,1.6-3.6,3.6v1.1H85.6z"
   id="path229" />
		<g
   id="g238">
			<g
   id="g236">
				<path
   class="st12"
   d="M73.6,58c0.2,0.8-0.3,1.4-1.2,1.5c-5.8,0.4-11.7,0.4-17.5,0c-0.8-0.1-1.4-0.7-1.2-1.5c0.5-2.7,0.5-5.3,0-8      c-0.2-0.8,0.4-1.4,1.2-1.5c5.8-0.4,11.7-0.4,17.5,0c0.8,0.1,1.3,0.7,1.2,1.5C73,52.7,73,55.4,73.6,58z"
   id="path231" />
				
					<pattern
   id="SVGID_5_"
   xlink:href="#Nouvelle_nuance_de_motif_18"
   patternTransform="matrix(1.3281 0 0 1.3281 2663.6604 2694.8818)">
				</pattern>
				<path
   class="st14"
   d="M73.6,50.1c0.2-0.8-0.3-1.4-1.2-1.5c-0.3,0-0.5,0-0.8,0c-0.4,5.2-4.8,9.3-10.1,9.3c-2.9,0-5.6-1.3-7.5-3.4      c0,1.2-0.1,2.4-0.4,3.5c-0.2,0.8,0.4,1.4,1.2,1.5c5.8,0.4,11.7,0.4,17.5,0c0.8-0.1,1.3-0.7,1.2-1.5C73,55.4,73,52.7,73.6,50.1z"
   id="path234" />
			</g>
		</g>
	</g><rect
   x="34.400002"
   y="38.200001"
   class="st15"
   width="59.700001"
   height="4.3000002"
   id="rect82"
   style="fill:#633d36;stroke-width:1.66297"
   transform="matrix(0.59082261,0,0,0.61203131,26.113668,14.725538)" /><g
   id="g94"
   transform="matrix(0.59082261,0,0,0.91789188,26.113668,3.0416637)"
   style="stroke-width:1.35792">
		<g
   id="g92"
   style="stroke-width:1.35792">
			<rect
   x="31.700001"
   y="38.200001"
   class="st15"
   width="4"
   height="17.4"
   id="rect88"
   style="fill:#633d36;stroke-width:1.35792" />
			<rect
   x="92.699997"
   y="38.200001"
   class="st15"
   width="4"
   height="17.4"
   id="rect90"
   style="fill:#633d36;stroke-width:1.35792" />
		</g>
	</g>
</g>
</svg>
