<?xml version="1.0" encoding="utf-8"?>
<!-- Generator: Adobe Illustrator 22.1.0, SVG Export Plug-In . SVG Version: 6.00 Build 0)  -->
<svg version="1.1" id="Calque_3" xmlns="http://www.w3.org/2000/svg" xmlns:xlink="http://www.w3.org/1999/xlink" x="0px" y="0px"
	 viewBox="0 0 128 128" style="enable-background:new 0 0 128 128;" xml:space="preserve">
<style type="text/css">
	.st0{fill:none;}
	.st1{fill:#572A2D;}
	.st2{display:none;}
	.st3{display:inline;fill:url(#SVGID_1_);}
	.st4{display:inline;fill:#1B681F;}
	.st5{display:inline;fill:#114F12;}
	.st6{display:inline;fill:#1E7224;}
	.st7{display:inline;fill:#2B892F;}
	.st8{display:inline;fill:#33322D;}
	.st9{display:inline;fill:#2A912F;}
	.st10{fill:#1B1464;}
	.st11{fill:#1B1440;}
	.st12{fill:url(#SVGID_2_);}
	.st13{fill:url(#SVGID_3_);}
	.st14{fill:url(#SVGID_4_);}
	.st15{fill:url(#SVGID_6_);}
	.st16{fill:url(#SVGID_7_);}
	.st17{fill:url(#SVGID_8_);}
	.st18{fill:url(#SVGID_9_);}
	.st19{fill:url(#SVGID_10_);}
	.st20{fill:url(#SVGID_11_);}
	.st21{fill:url(#SVGID_12_);}
	.st22{fill:url(#SVGID_13_);}
	.st23{fill:#FFCC01;}
	.st24{fill:#FFDB53;}
	.st25{fill:#FCBD11;}
</style>
<pattern  y="128" width="32.2" height="34.5" patternUnits="userSpaceOnUse" id="SVGID_5_" viewBox="0 -34.5 32.2 34.5" style="overflow:visible;">
	<g>
		<rect y="-34.5" class="st0" width="32.2" height="34.5"/>
		<g>
			<rect y="-34.5" class="st0" width="32.2" height="34.5"/>
			<g>
				<rect y="-34.5" class="st0" width="32.2" height="34.5"/>
				<g>
					<rect y="-34.5" class="st0" width="32.2" height="34.5"/>
					<rect y="-34.5" class="st1" width="32.2" height="34.5"/>
				</g>
			</g>
		</g>
	</g>
</pattern>
<g>
	<g>
		<g>
			<g>
				<g class="st2">
					<pattern  id="SVGID_1_" xlink:href="#SVGID_5_" patternTransform="matrix(1.7808 0 0 -1.6549 12481.9463 -26075.9785)">
					</pattern>
					<path class="st3" d="M11.1,68.1L11,68.2H3.9c-0.1,0-0.1,0-0.1-0.1L2.7,59c0-0.1,0-0.1,0.1-0.1H12c0.1,0,0.1,0.1,0.1,0.1
						L11.1,68.1z"/>
					<path class="st4" d="M4.8,40.6c-0.8-3.3-0.6-7.5,0.9-7.8c1.4-0.3,3.6,3.5,4.4,6.7c0.8,3.3-0.1,4.8-1.5,5.1
						C7.1,44.9,5.6,43.8,4.8,40.6z"/>
					<path class="st5" d="M8.5,58.7L8.5,58.7c-0.1,0-0.2-0.1-0.2-0.3c0.8-3.6,1.1-7.4,0.8-11.1c-0.3-3.8-1.2-7.4-2.7-10.9
						c0-0.1,0-0.2,0.1-0.3c0.1,0,0.3,0,0.3,0.1c1.5,3.5,2.4,7.2,2.7,11s0.1,7.6-0.8,11.3C8.7,58.6,8.6,58.7,8.5,58.7z"/>
					<path class="st6" d="M0.1,41.3c-1.4-3.1-2-7.3-0.7-7.8C0.8,33,3.6,36.3,5,39.4c1.4,3.1,0.8,4.7-0.5,5.2
						C3.1,45.2,1.5,44.4,0.1,41.3z"/>
					<path class="st6" d="M-0.1,48.5c-1.8-2.1-3.2-5.2-2.3-5.9s3.9,1.3,5.6,3.4C5,48.1,5,49.5,4,50.1C3.1,50.8,1.7,50.5-0.1,48.5z"
						/>
					<path class="st6" d="M16.9,48.5c2.2-1.9,4.2-4.9,3.4-5.8c-0.8-0.8-4.2,0.8-6.4,2.7s-2.4,3.3-1.5,4.2
						C13.1,50.4,14.7,50.4,16.9,48.5z"/>
					<path class="st7" d="M12.7,42.4c1-3.2,1.2-7.5-0.3-7.8C11,34.2,8.6,37.8,7.5,41c-1,3.2-0.3,4.8,1.1,5.2
						C10.1,46.5,11.7,45.6,12.7,42.4z"/>
					<path class="st5" d="M8.9,58.7L8.9,58.7c-0.1,0-0.2-0.1-0.2-0.2c0.2-2.7,1.1-5.4,2.6-7.9c1.5-2.4,3.6-4.5,6-6
						c0.1-0.1,0.2,0,0.3,0.1c0.1,0.1,0,0.2-0.1,0.3c-2.4,1.5-4.4,3.5-5.9,5.9s-2.4,5-2.6,7.7C9.1,58.7,9,58.7,8.9,58.7z"/>
					<path class="st5" d="M7.1,58.5L7.1,58.5c-0.1,0-0.2-0.1-0.2-0.2c0.1-3.7-0.3-7.5-1.4-11.1c-1-3.6-2.7-7.1-4.8-10.2
						c-0.1-0.1,0-0.2,0.1-0.3s0.2,0,0.3,0.1c2.1,3.2,3.8,6.7,4.8,10.4c1.1,3.7,1.5,7.5,1.4,11.2C7.4,58.4,7.3,58.5,7.1,58.5z"/>
					<path class="st5" d="M7.7,58.6L7.7,58.6c-0.1,0-0.2-0.1-0.2-0.2l0.9-9.2c0.3-3.2,0.6-6.5,1.8-9.7c0-0.1,0.2-0.2,0.3-0.1
						c0.1,0,0.2,0.2,0.1,0.3c-1.1,3.1-1.5,6.4-1.8,9.5l-0.9,9.2C7.9,58.5,7.8,58.6,7.7,58.6z"/>
					<path class="st5" d="M6.9,58.8c-0.1,0-0.2-0.1-0.2-0.2c-0.3-4.7-2.6-9.2-6.2-12.5c-0.1-0.1-0.1-0.2,0-0.3s0.2-0.1,0.3,0
						c3.7,3.3,6,8,6.3,12.8C7.1,58.7,7,58.8,6.9,58.8L6.9,58.8z"/>
					<path class="st8" d="M12.4,59.2c0,0.1-0.1,0.1-0.1,0.1H2.6c-0.1,0-0.1,0-0.1-0.1v-1.5c0-0.1,0.1-0.1,0.1-0.1h9.7
						c0.1,0,0.1,0,0.1,0.1V59.2z"/>
					<path class="st9" d="M-2,53.3c-1,2.5-1.3,5.9,0.1,6.4s3.7-2.2,4.7-4.7C3.8,52.6-0.9,50.8-2,53.3z"/>
					<path class="st4" d="M-1.4,57.5l0.1-0.4c0.5-1.4,0.9-2.4,1.3-3.2c0.5-0.9,0.9-1.4,1.4-1.6c0.5-0.2,1-0.1,1.7,0.2
						C4.2,53,5,54,5.5,55.4C5.8,56,6,56.8,6,57.6H5.6c-0.2-1.8-1-4-2.7-4.8c-0.6-0.2-1-0.3-1.3-0.1c-0.9,0.4-1.5,1.9-2.5,4.6
						L-1,57.6c0,0.1-0.2,0.2-0.3,0.1C-1.4,57.7-1.5,57.6-1.4,57.5z"/>
				</g>
			</g>
		</g>
	</g>
</g>
<g>
	<g>
		<path class="st10" d="M128,64c0,35.3-28.7,64-64,64C28.7,128,0,99.3,0,64C0,28.7,28.7,0,64,0C99.3,0,128,28.7,128,64z"/>
		<g>
			<g>
				<path class="st11" d="M98.3,42.6l29.5,16.4c0.1,0.6,0.3,5.7,0.1,8.8c-1.2,21.8-13.6,42.9-36.4,54.2L53.5,99.4l16.7-0.8l10.5-4.2
					L99.3,81L98.3,42.6z"/>
			</g>
		</g>
	</g>
	
		<radialGradient id="SVGID_2_" cx="199.5056" cy="-118.0712" r="46.4673" gradientTransform="matrix(0.7593 0 0 0.7593 -87.9043 153.7396)" gradientUnits="userSpaceOnUse">
		<stop  offset="0" style="stop-color:#01598E"/>
		<stop  offset="0.9942" style="stop-color:#141B30"/>
	</radialGradient>
	<path class="st12" d="M31.2,80.4c5.7,13,24,16.3,32.7,20C72.6,96.6,90.2,94,95.9,81c5.4-12.2-1.8-32.1-3.9-41.5
		C83.9,36,73.7,27.8,63.5,27.8S43.8,36,35.6,39.6C33.6,48.9,25.8,68.2,31.2,80.4z"/>
	<g>
		<linearGradient id="SVGID_3_" gradientUnits="userSpaceOnUse" x1="81.9269" y1="33.5252" x2="45.9238" y2="94.7304">
			<stop  offset="0" style="stop-color:#5B5B5B"/>
			<stop  offset="0.2336" style="stop-color:#DFDFE1"/>
			<stop  offset="0.4035" style="stop-color:#8B8D95"/>
			<stop  offset="0.4036" style="stop-color:#8B8D95"/>
			<stop  offset="0.4187" style="stop-color:#6F7176"/>
			<stop  offset="0.4351" style="stop-color:#595A5D"/>
			<stop  offset="0.4534" style="stop-color:#48484A"/>
			<stop  offset="0.4747" style="stop-color:#3B3B3C"/>
			<stop  offset="0.5012" style="stop-color:#343434"/>
			<stop  offset="0.5502" style="stop-color:#323232"/>
			<stop  offset="0.5522" style="stop-color:#3B3C3C"/>
			<stop  offset="0.5595" style="stop-color:#595A5B"/>
			<stop  offset="0.5679" style="stop-color:#727377"/>
			<stop  offset="0.5773" style="stop-color:#87888D"/>
			<stop  offset="0.5882" style="stop-color:#97989E"/>
			<stop  offset="0.6018" style="stop-color:#A2A4A9"/>
			<stop  offset="0.6209" style="stop-color:#A8AAB0"/>
			<stop  offset="0.6737" style="stop-color:#AAACB2"/>
			<stop  offset="0.8784" style="stop-color:#FFFFFF"/>
			<stop  offset="1" style="stop-color:#3A3A3A"/>
		</linearGradient>
		<path class="st13" d="M95.6,40.8L68.3,25c-2.7-1.5-5.9-1.5-8.6,0L32.4,40.8c-2.7,1.5-4.3,4.4-4.3,7.5v31.5c0,3.1,1.6,5.9,4.3,7.5
			L59.7,103c2.7,1.5,5.9,1.5,8.6,0l27.3-15.8c2.7-1.5,4.3-4.4,4.3-7.5V48.2C99.9,45.2,98.3,42.3,95.6,40.8z M95.4,77.8
			c0,2.7-1.4,5.2-3.8,6.5L67.8,98.1c-2.3,1.3-5.2,1.3-7.5,0L36.4,84.3c-2.3-1.3-3.8-3.8-3.8-6.5V50.2c0-2.7,1.4-5.2,3.8-6.5
			l23.9-13.8c2.3-1.3,5.2-1.3,7.5,0l23.9,13.8c2.3,1.3,3.8,3.8,3.8,6.5V77.8z"/>
		<linearGradient id="SVGID_4_" gradientUnits="userSpaceOnUse" x1="64.0011" y1="37.7896" x2="64.0011" y2="89.2133">
			<stop  offset="0" style="stop-color:#CACBCE"/>
			<stop  offset="0.2683" style="stop-color:#E9E9EB"/>
			<stop  offset="0.4614" style="stop-color:#FFFFFF"/>
			<stop  offset="0.473" style="stop-color:#4A4A4A"/>
			<stop  offset="0.6274" style="stop-color:#8B8D95"/>
			<stop  offset="0.7857" style="stop-color:#AAACB2"/>
			<stop  offset="0.9035" style="stop-color:#F4F4F4"/>
			<stop  offset="1" style="stop-color:#BFC0C5"/>
		</linearGradient>
		<path class="st14" d="M95.3,41L68.3,25.4c-2.6-1.5-5.9-1.5-8.5,0L32.7,41c-2.6,1.5-4.3,4.3-4.3,7.4v31.2c0,3.1,1.6,5.9,4.3,7.4
			l27.1,15.6c2.6,1.5,5.9,1.5,8.5,0L95.3,87c2.6-1.5,4.3-4.3,4.3-7.4V48.4C99.6,45.3,98,42.5,95.3,41z M96.5,78.3
			c0,2.8-1.5,5.4-3.9,6.8L67.9,99.3c-2.4,1.4-5.4,1.4-7.8,0L35.4,85c-2.4-1.4-3.9-4-3.9-6.8V49.7c0-2.8,1.5-5.4,3.9-6.8l24.7-14.3
			c2.4-1.4,5.4-1.4,7.8,0L92.6,43c2.4,1.4,3.9,4,3.9,6.8V78.3z"/>
		<linearGradient id="SVGID_6_" gradientUnits="userSpaceOnUse" x1="81.9269" y1="33.5252" x2="45.9238" y2="94.7304">
			<stop  offset="0" style="stop-color:#5B5B5B"/>
			<stop  offset="0.2336" style="stop-color:#DFDFE1"/>
			<stop  offset="0.4035" style="stop-color:#8B8D95"/>
			<stop  offset="0.4036" style="stop-color:#8B8D95"/>
			<stop  offset="0.4187" style="stop-color:#6F7176"/>
			<stop  offset="0.4351" style="stop-color:#595A5D"/>
			<stop  offset="0.4534" style="stop-color:#48484A"/>
			<stop  offset="0.4747" style="stop-color:#3B3B3C"/>
			<stop  offset="0.5012" style="stop-color:#343434"/>
			<stop  offset="0.5502" style="stop-color:#323232"/>
			<stop  offset="0.5522" style="stop-color:#3B3C3C"/>
			<stop  offset="0.5595" style="stop-color:#595A5B"/>
			<stop  offset="0.5679" style="stop-color:#727377"/>
			<stop  offset="0.5773" style="stop-color:#87888D"/>
			<stop  offset="0.5882" style="stop-color:#97989E"/>
			<stop  offset="0.6018" style="stop-color:#A2A4A9"/>
			<stop  offset="0.6209" style="stop-color:#A8AAB0"/>
			<stop  offset="0.6737" style="stop-color:#AAACB2"/>
			<stop  offset="0.8784" style="stop-color:#FFFFFF"/>
			<stop  offset="1" style="stop-color:#3A3A3A"/>
		</linearGradient>
		<path class="st15" d="M95.6,40.8L68.3,25c-2.7-1.5-5.9-1.5-8.6,0L32.4,40.8c-2.7,1.5-4.3,4.4-4.3,7.5v31.5c0,3.1,1.6,5.9,4.3,7.5
			L59.7,103c2.7,1.5,5.9,1.5,8.6,0l27.3-15.8c2.7-1.5,4.3-4.4,4.3-7.5V48.2C99.9,45.2,98.3,42.3,95.6,40.8z M95.6,77.9
			c0,2.7-1.4,5.2-3.8,6.6l-24,13.9c-2.3,1.4-5.2,1.4-7.6,0l-24-13.9c-2.3-1.4-3.8-3.9-3.8-6.6V50.1c0-2.7,1.4-5.2,3.8-6.6l24-13.9
			c2.3-1.4,5.2-1.4,7.6,0l24,13.9c2.3,1.4,3.8,3.9,3.8,6.6V77.9z"/>
		<linearGradient id="SVGID_7_" gradientUnits="userSpaceOnUse" x1="64.0011" y1="37.7896" x2="64.0011" y2="89.2133">
			<stop  offset="0" style="stop-color:#CACBCE"/>
			<stop  offset="0.2683" style="stop-color:#E9E9EB"/>
			<stop  offset="0.4614" style="stop-color:#FFFFFF"/>
			<stop  offset="0.473" style="stop-color:#4A4A4A"/>
			<stop  offset="0.6274" style="stop-color:#8B8D95"/>
			<stop  offset="0.7857" style="stop-color:#AAACB2"/>
			<stop  offset="0.9035" style="stop-color:#F4F4F4"/>
			<stop  offset="1" style="stop-color:#BFC0C5"/>
		</linearGradient>
		<path class="st16" d="M95.3,41L68.3,25.4c-2.6-1.5-5.9-1.5-8.5,0L32.7,41c-2.6,1.5-4.3,4.3-4.3,7.4v31.2c0,3.1,1.6,5.9,4.3,7.4
			l27.1,15.6c2.6,1.5,5.9,1.5,8.5,0L95.3,87c2.6-1.5,4.3-4.3,4.3-7.4V48.4C99.6,45.3,98,42.5,95.3,41z M96.5,78.3
			c0,2.8-1.5,5.4-3.9,6.8L67.9,99.3c-2.4,1.4-5.4,1.4-7.8,0L35.4,85c-2.4-1.4-3.9-4-3.9-6.8V49.7c0-2.8,1.5-5.4,3.9-6.8l24.7-14.3
			c2.4-1.4,5.4-1.4,7.8,0L92.6,43c2.4,1.4,3.9,4,3.9,6.8V78.3z"/>
		<linearGradient id="SVGID_8_" gradientUnits="userSpaceOnUse" x1="81.9269" y1="33.5252" x2="45.9238" y2="94.7304">
			<stop  offset="0" style="stop-color:#5B5B5B"/>
			<stop  offset="0.2336" style="stop-color:#DFDFE1"/>
			<stop  offset="0.4035" style="stop-color:#8B8D95"/>
			<stop  offset="0.4036" style="stop-color:#8B8D95"/>
			<stop  offset="0.4187" style="stop-color:#6F7176"/>
			<stop  offset="0.4351" style="stop-color:#595A5D"/>
			<stop  offset="0.4534" style="stop-color:#48484A"/>
			<stop  offset="0.4747" style="stop-color:#3B3B3C"/>
			<stop  offset="0.5012" style="stop-color:#343434"/>
			<stop  offset="0.5502" style="stop-color:#323232"/>
			<stop  offset="0.5522" style="stop-color:#3B3C3C"/>
			<stop  offset="0.5595" style="stop-color:#595A5B"/>
			<stop  offset="0.5679" style="stop-color:#727377"/>
			<stop  offset="0.5773" style="stop-color:#87888D"/>
			<stop  offset="0.5882" style="stop-color:#97989E"/>
			<stop  offset="0.6018" style="stop-color:#A2A4A9"/>
			<stop  offset="0.6209" style="stop-color:#A8AAB0"/>
			<stop  offset="0.6737" style="stop-color:#AAACB2"/>
			<stop  offset="0.8784" style="stop-color:#FFFFFF"/>
			<stop  offset="1" style="stop-color:#3A3A3A"/>
		</linearGradient>
		<path class="st17" d="M95.6,40.8L68.3,25c-2.7-1.5-5.9-1.5-8.6,0L32.4,40.8c-2.7,1.5-4.3,4.4-4.3,7.5v31.5c0,3.1,1.6,5.9,4.3,7.5
			L59.7,103c2.7,1.5,5.9,1.5,8.6,0l27.3-15.8c2.7-1.5,4.3-4.4,4.3-7.5V48.2C99.9,45.2,98.3,42.3,95.6,40.8z M95.2,77.7
			c0,2.7-1.4,5.1-3.7,6.5L67.7,97.9c-2.3,1.3-5.2,1.3-7.5,0L36.5,84.2c-2.3-1.3-3.7-3.8-3.7-6.5V50.3c0-2.7,1.4-5.1,3.7-6.5
			l23.7-13.7c2.3-1.3,5.2-1.3,7.5,0l23.7,13.7c2.3,1.3,3.7,3.8,3.7,6.5V77.7z"/>
		<linearGradient id="SVGID_9_" gradientUnits="userSpaceOnUse" x1="64.0011" y1="37.7896" x2="64.0011" y2="89.2133">
			<stop  offset="0" style="stop-color:#CACBCE"/>
			<stop  offset="0.2683" style="stop-color:#E9E9EB"/>
			<stop  offset="0.4614" style="stop-color:#FFFFFF"/>
			<stop  offset="0.473" style="stop-color:#4A4A4A"/>
			<stop  offset="0.6274" style="stop-color:#8B8D95"/>
			<stop  offset="0.7857" style="stop-color:#AAACB2"/>
			<stop  offset="0.9035" style="stop-color:#F4F4F4"/>
			<stop  offset="1" style="stop-color:#BFC0C5"/>
		</linearGradient>
		<path class="st18" d="M95.3,41L68.3,25.4c-2.6-1.5-5.9-1.5-8.5,0L32.7,41c-2.6,1.5-4.3,4.3-4.3,7.4v31.2c0,3.1,1.6,5.9,4.3,7.4
			l27.1,15.6c2.6,1.5,5.9,1.5,8.5,0L95.3,87c2.6-1.5,4.3-4.3,4.3-7.4V48.4C99.6,45.3,98,42.5,95.3,41z M96.5,78.3
			c0,2.8-1.5,5.4-3.9,6.8L67.9,99.3c-2.4,1.4-5.4,1.4-7.8,0L35.4,85c-2.4-1.4-3.9-4-3.9-6.8V49.7c0-2.8,1.5-5.4,3.9-6.8l24.7-14.3
			c2.4-1.4,5.4-1.4,7.8,0L92.6,43c2.4,1.4,3.9,4,3.9,6.8V78.3z"/>
		<linearGradient id="SVGID_10_" gradientUnits="userSpaceOnUse" x1="81.9269" y1="33.5252" x2="45.9238" y2="94.7304">
			<stop  offset="0" style="stop-color:#5B5B5B"/>
			<stop  offset="0.2336" style="stop-color:#DFDFE1"/>
			<stop  offset="0.4035" style="stop-color:#8B8D95"/>
			<stop  offset="0.4036" style="stop-color:#8B8D95"/>
			<stop  offset="0.4187" style="stop-color:#6F7176"/>
			<stop  offset="0.4351" style="stop-color:#595A5D"/>
			<stop  offset="0.4534" style="stop-color:#48484A"/>
			<stop  offset="0.4747" style="stop-color:#3B3B3C"/>
			<stop  offset="0.5012" style="stop-color:#343434"/>
			<stop  offset="0.5502" style="stop-color:#323232"/>
			<stop  offset="0.5522" style="stop-color:#3B3C3C"/>
			<stop  offset="0.5595" style="stop-color:#595A5B"/>
			<stop  offset="0.5679" style="stop-color:#727377"/>
			<stop  offset="0.5773" style="stop-color:#87888D"/>
			<stop  offset="0.5882" style="stop-color:#97989E"/>
			<stop  offset="0.6018" style="stop-color:#A2A4A9"/>
			<stop  offset="0.6209" style="stop-color:#A8AAB0"/>
			<stop  offset="0.6737" style="stop-color:#AAACB2"/>
			<stop  offset="0.8784" style="stop-color:#FFFFFF"/>
			<stop  offset="1" style="stop-color:#3A3A3A"/>
		</linearGradient>
		<path class="st19" d="M95.6,40.8L68.3,25c-2.7-1.5-5.9-1.5-8.6,0L32.4,40.8c-2.7,1.5-4.3,4.4-4.3,7.5v31.5c0,3.1,1.6,5.9,4.3,7.5
			L59.7,103c2.7,1.5,5.9,1.5,8.6,0l27.3-15.8c2.7-1.5,4.3-4.4,4.3-7.5V48.2C99.9,45.2,98.3,42.3,95.6,40.8z M95.2,77.7
			c0,2.7-1.4,5.1-3.7,6.5L67.7,97.9c-2.3,1.3-5.2,1.3-7.5,0L36.5,84.2c-2.3-1.3-3.7-3.8-3.7-6.5V50.3c0-2.7,1.4-5.1,3.7-6.5
			l23.7-13.7c2.3-1.3,5.2-1.3,7.5,0l23.7,13.7c2.3,1.3,3.7,3.8,3.7,6.5V77.7z"/>
		<linearGradient id="SVGID_11_" gradientUnits="userSpaceOnUse" x1="64.0011" y1="37.7896" x2="64.0011" y2="89.2133">
			<stop  offset="0" style="stop-color:#CACBCE"/>
			<stop  offset="0.2683" style="stop-color:#E9E9EB"/>
			<stop  offset="0.4614" style="stop-color:#FFFFFF"/>
			<stop  offset="0.473" style="stop-color:#4A4A4A"/>
			<stop  offset="0.6274" style="stop-color:#8B8D95"/>
			<stop  offset="0.7857" style="stop-color:#AAACB2"/>
			<stop  offset="0.9035" style="stop-color:#F4F4F4"/>
			<stop  offset="1" style="stop-color:#BFC0C5"/>
		</linearGradient>
		<path class="st20" d="M95.3,41L68.3,25.4c-2.6-1.5-5.9-1.5-8.5,0L32.7,41c-2.6,1.5-4.3,4.3-4.3,7.4v31.2c0,3.1,1.6,5.9,4.3,7.4
			l27.1,15.6c2.6,1.5,5.9,1.5,8.5,0L95.3,87c2.6-1.5,4.3-4.3,4.3-7.4V48.4C99.6,45.3,98,42.5,95.3,41z M96.5,78.3
			c0,2.8-1.5,5.4-3.9,6.8L67.9,99.3c-2.4,1.4-5.4,1.4-7.8,0L35.4,85c-2.4-1.4-3.9-4-3.9-6.8V49.7c0-2.8,1.5-5.4,3.9-6.8l24.7-14.3
			c2.4-1.4,5.4-1.4,7.8,0L92.6,43c2.4,1.4,3.9,4,3.9,6.8V78.3z"/>
		<linearGradient id="SVGID_12_" gradientUnits="userSpaceOnUse" x1="81.9471" y1="33.4909" x2="45.9035" y2="94.765">
			<stop  offset="0" style="stop-color:#5B5B5B"/>
			<stop  offset="0.2336" style="stop-color:#DFDFE1"/>
			<stop  offset="0.4035" style="stop-color:#8B8D95"/>
			<stop  offset="0.4036" style="stop-color:#8B8D95"/>
			<stop  offset="0.4187" style="stop-color:#6F7176"/>
			<stop  offset="0.4351" style="stop-color:#595A5D"/>
			<stop  offset="0.4534" style="stop-color:#48484A"/>
			<stop  offset="0.4747" style="stop-color:#3B3B3C"/>
			<stop  offset="0.5012" style="stop-color:#343434"/>
			<stop  offset="0.5502" style="stop-color:#323232"/>
			<stop  offset="0.5522" style="stop-color:#3B3C3C"/>
			<stop  offset="0.5595" style="stop-color:#595A5B"/>
			<stop  offset="0.5679" style="stop-color:#727377"/>
			<stop  offset="0.5773" style="stop-color:#87888D"/>
			<stop  offset="0.5882" style="stop-color:#97989E"/>
			<stop  offset="0.6018" style="stop-color:#A2A4A9"/>
			<stop  offset="0.6209" style="stop-color:#A8AAB0"/>
			<stop  offset="0.6737" style="stop-color:#AAACB2"/>
			<stop  offset="0.8784" style="stop-color:#FFFFFF"/>
			<stop  offset="1" style="stop-color:#3A3A3A"/>
		</linearGradient>
		<path class="st21" d="M95.6,40.8L68.3,25c-2.7-1.5-6-1.5-8.6,0L32.4,40.8c-2.7,1.5-4.3,4.4-4.3,7.5v31.5c0,3.1,1.6,5.9,4.3,7.5
			L59.7,103c2.7,1.5,6,1.5,8.6,0l27.3-15.8c2.7-1.5,4.3-4.4,4.3-7.5V48.2C99.9,45.1,98.3,42.3,95.6,40.8z M95.1,77.6
			c0,2.7-1.4,5.1-3.7,6.5L67.7,97.7c-2.3,1.3-5.2,1.3-7.5,0L36.6,84.1c-2.3-1.3-3.7-3.8-3.7-6.5V50.4c0-2.7,1.4-5.1,3.7-6.5
			l23.6-13.6c2.3-1.3,5.2-1.3,7.5,0l23.6,13.6c2.3,1.3,3.7,3.8,3.7,6.5V77.6z"/>
		<linearGradient id="SVGID_13_" gradientUnits="userSpaceOnUse" x1="64.0011" y1="37.7896" x2="64.0011" y2="89.2133">
			<stop  offset="0" style="stop-color:#CACBCE"/>
			<stop  offset="0.2683" style="stop-color:#E9E9EB"/>
			<stop  offset="0.4614" style="stop-color:#FFFFFF"/>
			<stop  offset="0.7857" style="stop-color:#AAACB2"/>
			<stop  offset="0.9035" style="stop-color:#F4F4F4"/>
			<stop  offset="1" style="stop-color:#BFC0C5"/>
		</linearGradient>
		<path class="st22" d="M95.3,41L68.3,25.4c-2.6-1.5-5.9-1.5-8.5,0L32.7,41c-2.6,1.5-4.3,4.3-4.3,7.4v31.2c0,3.1,1.6,5.9,4.3,7.4
			l27.1,15.6c2.6,1.5,5.9,1.5,8.5,0L95.3,87c2.6-1.5,4.3-4.3,4.3-7.4V48.4C99.6,45.3,98,42.5,95.3,41z M96.5,78.3
			c0,2.8-1.5,5.4-3.9,6.8L67.9,99.3c-2.4,1.4-5.4,1.4-7.8,0L35.4,85c-2.4-1.4-3.9-4-3.9-6.8V49.7c0-2.8,1.5-5.4,3.9-6.8l24.7-14.3
			c2.4-1.4,5.4-1.4,7.8,0L92.6,43c2.4,1.4,3.9,4,3.9,6.8V78.3z"/>
	</g>
	<g>
		<path class="st23" d="M64.7,37.6l7,14.2c0.1,0.2,0.3,0.4,0.6,0.4L88,54.6c0.7,0.1,0.9,0.9,0.4,1.4L77.1,67
			c-0.2,0.2-0.3,0.4-0.2,0.7l2.7,15.6c0.1,0.6-0.6,1.1-1.2,0.8l-14.1-7.4c-0.2-0.1-0.5-0.1-0.7,0l-14.1,7.4
			c-0.6,0.3-1.3-0.2-1.2-0.8l2.7-15.6c0-0.3,0-0.5-0.2-0.7L39.5,55.9c-0.5-0.5-0.2-1.3,0.4-1.4l15.7-2.3c0.3,0,0.5-0.2,0.6-0.4
			l7-14.2C63.6,37,64.4,37,64.7,37.6z"/>
		<g>
			<path class="st24" d="M64,40.9L57.7,53c-0.3,0.6-1,1.1-1.7,1.1l-13.6,1.2l14.4,0.7c0.9,0,1.7-0.5,2.1-1.4L64,40.9z"/>
		</g>
		<path class="st25" d="M48.7,81.6l-0.3,1.8c-0.1,0.6,0.6,1.1,1.2,0.8l14.1-7.4c0.2-0.1,0.5-0.1,0.7,0l14.1,7.4
			c0.6,0.3,1.3-0.2,1.2-0.8l-2.7-15.6c0-0.3,0-0.5,0.2-0.7l11.4-11.1c0.5-0.5,0.2-1.3-0.4-1.4l-5.3-0.8
			C74.3,69.1,61.2,77.1,48.7,81.6z"/>
	</g>
</g>
</svg>
