<?xml version="1.0" encoding="utf-8"?>
<!-- Generator: Adobe Illustrator 22.1.0, SVG Export Plug-In . SVG Version: 6.00 Build 0)  -->
<svg version="1.1" id="Calque_3" xmlns="http://www.w3.org/2000/svg" xmlns:xlink="http://www.w3.org/1999/xlink" x="0px" y="0px"
	 viewBox="0 0 128 128" style="enable-background:new 0 0 128 128;" xml:space="preserve">
<style type="text/css">
	.st0{fill:none;}
	.st1{fill:#572A2D;}
	.st2{display:none;}
	.st3{display:inline;fill:url(#SVGID_1_);}
	.st4{display:inline;fill:#1B681F;}
	.st5{display:inline;fill:#114F12;}
	.st6{display:inline;fill:#1E7224;}
	.st7{display:inline;fill:#2B892F;}
	.st8{display:inline;fill:#33322D;}
	.st9{display:inline;fill:#2A912F;}
	.st10{fill:#F7931E;}
	.st11{fill:#D98121;}
	.st12{fill:#374354;}
	.st13{fill:#556E87;}
	.st14{fill:#4D5E77;}
	.st15{fill:#252E3E;stroke:#252E3E;stroke-width:0.5;stroke-miterlimit:10;}
	.st16{fill:#E1DFDB;}
	.st17{fill:#D12832;}
	.st18{fill:#FCC860;}
	.st19{fill:#FFFFFF;}
	.st20{fill:none;stroke:#252E3E;stroke-width:3;stroke-linecap:round;stroke-miterlimit:10;}
	.st21{fill:#252E3E;}
</style>
<pattern  y="128" width="32.2" height="34.5" patternUnits="userSpaceOnUse" id="SVGID_5_" viewBox="0 -34.5 32.2 34.5" style="overflow:visible;">
	<g>
		<rect y="-34.5" class="st0" width="32.2" height="34.5"/>
		<g>
			<rect y="-34.5" class="st0" width="32.2" height="34.5"/>
			<g>
				<rect y="-34.5" class="st0" width="32.2" height="34.5"/>
				<g>
					<rect y="-34.5" class="st0" width="32.2" height="34.5"/>
					<rect y="-34.5" class="st1" width="32.2" height="34.5"/>
				</g>
			</g>
		</g>
	</g>
</pattern>
<g>
	<g>
		<g>
			<g>
				<g class="st2">
					<pattern  id="SVGID_1_" xlink:href="#SVGID_5_" patternTransform="matrix(1.7808 0 0 -1.6549 12481.9463 -26075.9785)">
					</pattern>
					<path class="st3" d="M11.1,68.1L11,68.2H3.9c-0.1,0-0.1,0-0.1-0.1L2.7,59c0-0.1,0-0.1,0.1-0.1H12c0.1,0,0.1,0.1,0.1,0.1
						L11.1,68.1z"/>
					<path class="st4" d="M4.8,40.6c-0.8-3.3-0.6-7.5,0.9-7.8c1.4-0.3,3.6,3.5,4.4,6.7c0.8,3.3-0.1,4.8-1.5,5.1
						C7.1,44.9,5.6,43.8,4.8,40.6z"/>
					<path class="st5" d="M8.5,58.7L8.5,58.7c-0.1,0-0.2-0.1-0.2-0.3c0.8-3.6,1.1-7.4,0.8-11.1c-0.3-3.8-1.2-7.4-2.7-10.9
						c0-0.1,0-0.2,0.1-0.3c0.1,0,0.3,0,0.3,0.1c1.5,3.5,2.4,7.2,2.7,11s0.1,7.6-0.8,11.3C8.7,58.6,8.6,58.7,8.5,58.7z"/>
					<path class="st6" d="M0.1,41.3c-1.4-3.1-2-7.3-0.7-7.8C0.8,33,3.6,36.3,5,39.4c1.4,3.1,0.8,4.7-0.5,5.2
						C3.1,45.2,1.5,44.4,0.1,41.3z"/>
					<path class="st6" d="M-0.1,48.5c-1.8-2.1-3.2-5.2-2.3-5.9s3.9,1.3,5.6,3.4C5,48.1,5,49.5,4,50.1C3.1,50.8,1.7,50.5-0.1,48.5z"
						/>
					<path class="st6" d="M16.9,48.5c2.2-1.9,4.2-4.9,3.4-5.8c-0.8-0.8-4.2,0.8-6.4,2.7s-2.4,3.3-1.5,4.2
						C13.1,50.4,14.7,50.4,16.9,48.5z"/>
					<path class="st7" d="M12.7,42.4c1-3.2,1.2-7.5-0.3-7.8C11,34.2,8.6,37.8,7.5,41c-1,3.2-0.3,4.8,1.1,5.2
						C10.1,46.5,11.7,45.6,12.7,42.4z"/>
					<path class="st5" d="M8.9,58.7L8.9,58.7c-0.1,0-0.2-0.1-0.2-0.2c0.2-2.7,1.1-5.4,2.6-7.9c1.5-2.4,3.6-4.5,6-6
						c0.1-0.1,0.2,0,0.3,0.1c0.1,0.1,0,0.2-0.1,0.3c-2.4,1.5-4.4,3.5-5.9,5.9s-2.4,5-2.6,7.7C9.1,58.7,9,58.7,8.9,58.7z"/>
					<path class="st5" d="M7.1,58.5L7.1,58.5c-0.1,0-0.2-0.1-0.2-0.2c0.1-3.7-0.3-7.5-1.4-11.1c-1-3.6-2.7-7.1-4.8-10.2
						c-0.1-0.1,0-0.2,0.1-0.3s0.2,0,0.3,0.1c2.1,3.2,3.8,6.7,4.8,10.4c1.1,3.7,1.5,7.5,1.4,11.2C7.4,58.4,7.3,58.5,7.1,58.5z"/>
					<path class="st5" d="M7.7,58.6L7.7,58.6c-0.1,0-0.2-0.1-0.2-0.2l0.9-9.2c0.3-3.2,0.6-6.5,1.8-9.7c0-0.1,0.2-0.2,0.3-0.1
						c0.1,0,0.2,0.2,0.1,0.3c-1.1,3.1-1.5,6.4-1.8,9.5l-0.9,9.2C7.9,58.5,7.8,58.6,7.7,58.6z"/>
					<path class="st5" d="M6.9,58.8c-0.1,0-0.2-0.1-0.2-0.2c-0.3-4.7-2.6-9.2-6.2-12.5c-0.1-0.1-0.1-0.2,0-0.3s0.2-0.1,0.3,0
						c3.7,3.3,6,8,6.3,12.8C7.1,58.7,7,58.8,6.9,58.8L6.9,58.8z"/>
					<path class="st8" d="M12.4,59.2c0,0.1-0.1,0.1-0.1,0.1H2.6c-0.1,0-0.1,0-0.1-0.1v-1.5c0-0.1,0.1-0.1,0.1-0.1h9.7
						c0.1,0,0.1,0,0.1,0.1V59.2z"/>
					<path class="st9" d="M-2,53.3c-1,2.5-1.3,5.9,0.1,6.4s3.7-2.2,4.7-4.7C3.8,52.6-0.9,50.8-2,53.3z"/>
					<path class="st4" d="M-1.4,57.5l0.1-0.4c0.5-1.4,0.9-2.4,1.3-3.2c0.5-0.9,0.9-1.4,1.4-1.6c0.5-0.2,1-0.1,1.7,0.2
						C4.2,53,5,54,5.5,55.4C5.8,56,6,56.8,6,57.6H5.6c-0.2-1.8-1-4-2.7-4.8c-0.6-0.2-1-0.3-1.3-0.1c-0.9,0.4-1.5,1.9-2.5,4.6
						L-1,57.6c0,0.1-0.2,0.2-0.3,0.1C-1.4,57.7-1.5,57.6-1.4,57.5z"/>
				</g>
			</g>
		</g>
	</g>
</g>
<g>
	<path class="st10" d="M128,64c0,35.3-28.7,64-64,64C28.7,128,0,99.3,0,64C0,28.7,28.7,0,64,0C99.3,0,128,28.7,128,64z"/>
	<g>
		<path class="st11" d="M76.9,89.3l-28.4,0.3l-0.3-36.4l-2.6-11.7l9.2-3l4.1-2.2L58,31.9l13.9,4.3l6.4,4.8L83,29.7L125.2,45
			c1.3,3.7,0.5,1.1,1.4,5.5c4.2,18.9-0.7,48.3-25.3,65.5l-35.7-13.2"/>
	</g>
	<g>
		<g>
			<rect x="85.5" y="39.6" class="st12" width="4.8" height="25.9"/>
			<g>
				<path class="st13" d="M97.7,48c0,0-1.1-6.1-7-6.6v1.9c0,0,4.4,1.2,4.3,4.6H97.7z"/>
				<polygon class="st14" points="100.4,61.7 97.7,63.7 92.8,63.7 91.5,51.6 94.2,48 98.5,48 				"/>
			</g>
			<g>
				<path class="st15" d="M90.8,93.8c-0.6,0-1.7-0.1-2.7-0.9c-1.1-0.8-1.7-2.2-1.9-4.1l0-23h1.1v22.9c0.1,1.5,0.6,2.6,1.4,3.3
					c1.1,0.9,2.5,0.6,2.5,0.6c1.5,0,2.6-0.4,3.3-1.1c0.9-1,0.9-2.4,0.9-2.4l0-25.1h1.1v25.1c0,0,0.1,1.8-1.1,3.1
					c-0.9,1-2.2,1.5-4,1.5h0C91.4,93.8,91.2,93.8,90.8,93.8z"/>
			</g>
			<g>
				<path class="st16" d="M58.7,78c0,3.7,2.3,5.6,5.2,5.6c2.9,0,5.2-1.9,5.2-5.6c0-3.7-5.2-9.2-5.2-9.2S58.7,74.3,58.7,78z"/>
				<path class="st17" d="M80.9,29.2H46.8c-2.5,0-4.6,2.1-4.6,4.6v57.6c0,2.5,2.1,4.6,4.6,4.6h34.1c2.5,0,4.6-2.1,4.6-4.6V33.8
					C85.5,31.2,83.5,29.2,80.9,29.2z M63.9,86.9c-5.7,0-10.3-4.6-10.3-10.3c0-5.7,4.6-10.3,10.3-10.3c5.7,0,10.3,4.6,10.3,10.3
					C74.2,82.3,69.6,86.9,63.9,86.9z M82,53.1c0,2.5-2.1,4.6-4.6,4.6h-27c-2.5,0-4.6-2.1-4.6-4.6V39.6c0-2.5,2.1-4.6,4.6-4.6h27
					c2.5,0,4.6,2.1,4.6,4.6V53.1z"/>
			</g>
		</g>
		<path class="st18" d="M81.8,53c0,2.6-2.2,4.7-4.8,4.7H50.7c-2.7,0-4.8-2.1-4.8-4.7V39.4c0-2.6,2.2-4.7,4.8-4.7H77
			c2.7,0,4.8,2.1,4.8,4.7V53z"/>
		<path class="st19" d="M71.7,37c1.3,0,2.3,0.4,2.3,0.8v1.1c0,0.4-1,0.8-2.3,0.8H51c-1.3,0-2.3-0.4-2.3-0.8v-1.1
			c0-0.4,1-0.8,2.3-0.8H71.7z"/>
		<path class="st20" d="M80.1,100.9"/>
		<path class="st20" d="M47.6,100.9"/>
		<rect x="47.9" y="96.6" class="st21" width="32.6" height="2.3"/>
		<g>
			<path class="st17" d="M85.5,100.9c0-0.8-0.6-1.4-1.4-1.4H43.6c-0.8,0-1.4,0.6-1.4,1.4v3.3c0,0.8,0.6,1.4,1.4,1.4h40.5
				c0.8,0,1.4-0.6,1.4-1.4V100.9z"/>
		</g>
	</g>
</g>
</svg>
