<?xml version="1.0" encoding="utf-8"?>
<!-- Generator: Adobe Illustrator 22.1.0, SVG Export Plug-In . SVG Version: 6.00 Build 0)  -->
<svg version="1.1" id="Calque_3" xmlns="http://www.w3.org/2000/svg" xmlns:xlink="http://www.w3.org/1999/xlink" x="0px" y="0px"
	 viewBox="0 0 128 128" style="enable-background:new 0 0 128 128;" xml:space="preserve">
<style type="text/css">
	.st0{fill:none;}
	.st1{fill:#572A2D;}
	.st2{display:none;}
	.st3{display:inline;fill:url(#SVGID_2_);}
	.st4{display:inline;fill:#1B681F;}
	.st5{display:inline;fill:#114F12;}
	.st6{display:inline;fill:#1E7224;}
	.st7{display:inline;fill:#2B892F;}
	.st8{display:inline;fill:#33322D;}
	.st9{display:inline;fill:#2A912F;}
	.st10{fill:#B6FFFF;}
	.st11{fill:url(#SVGID_3_);}
	.st12{fill:#1B5741;}
	.st13{fill:#006837;}
	.st14{fill:#00582B;}
	.st15{fill:#009245;}
	.st16{fill:url(#SVGID_4_);}
	.st17{fill:url(#SVGID_5_);}
	.st18{fill:none;stroke:#1B5741;stroke-width:4.6;stroke-miterlimit:10;}
	.st19{fill:#39974A;}
	.st20{fill:#0B3827;}
	.st21{fill:#55B539;}
	.st22{fill:#4F8C3C;}
	.st23{fill:#11422F;}
	.st24{fill:#3C702B;}
	.st25{opacity:0.63;fill:#C1FCB0;}
	.st26{opacity:0.63;}
	.st27{fill:#C1FCB0;}
	.st28{fill:none;stroke:#0071BC;stroke-width:0.1;stroke-miterlimit:10;stroke-dasharray:2,0.6;}
</style>
<pattern  y="128" width="32.2" height="34.5" patternUnits="userSpaceOnUse" id="SVGID_1_" viewBox="0 -34.5 32.2 34.5" style="overflow:visible;">
	<g>
		<rect y="-34.5" class="st0" width="32.2" height="34.5"/>
		<g>
			<rect y="-34.5" class="st0" width="32.2" height="34.5"/>
			<g>
				<rect y="-34.5" class="st0" width="32.2" height="34.5"/>
				<g>
					<rect y="-34.5" class="st0" width="32.2" height="34.5"/>
					<g>
						<rect y="-34.5" class="st0" width="32.2" height="34.5"/>
						<rect y="-34.5" class="st1" width="32.2" height="34.5"/>
					</g>
				</g>
			</g>
		</g>
	</g>
</pattern>
<g>
	<g>
		<g>
			<g>
				<g class="st2">
					<pattern  id="SVGID_2_" xlink:href="#SVGID_1_" patternTransform="matrix(1.7808 0 0 1.6549 18840.748 32522.4707)">
					</pattern>
					<path class="st3" d="M11.1,68.1L11,68.2H3.9c-0.1,0-0.1,0-0.1-0.1L2.7,59c0-0.1,0-0.1,0.1-0.1H12c0.1,0,0.1,0.1,0.1,0.1
						L11.1,68.1z"/>
					<path class="st4" d="M4.8,40.6c-0.8-3.3-0.6-7.5,0.9-7.8c1.4-0.3,3.6,3.5,4.4,6.7c0.8,3.3-0.1,4.8-1.5,5.1
						C7.1,44.9,5.6,43.8,4.8,40.6z"/>
					<path class="st5" d="M8.5,58.7L8.5,58.7c-0.1,0-0.2-0.1-0.2-0.3c0.8-3.6,1.1-7.4,0.8-11.1c-0.3-3.8-1.2-7.4-2.7-10.9
						c0-0.1,0-0.2,0.1-0.3c0.1,0,0.3,0,0.3,0.1c1.5,3.5,2.4,7.2,2.7,11s0.1,7.6-0.8,11.3C8.7,58.6,8.6,58.7,8.5,58.7z"/>
					<path class="st6" d="M0.1,41.3c-1.4-3.1-2-7.3-0.7-7.8C0.8,33,3.6,36.3,5,39.4c1.4,3.1,0.8,4.7-0.5,5.2
						C3.1,45.2,1.5,44.4,0.1,41.3z"/>
					<path class="st6" d="M-0.1,48.5c-1.8-2.1-3.2-5.2-2.3-5.9s3.9,1.3,5.6,3.4C5,48.1,5,49.5,4,50.1C3.1,50.8,1.7,50.5-0.1,48.5z"
						/>
					<path class="st6" d="M16.9,48.5c2.2-1.9,4.2-4.9,3.4-5.8c-0.8-0.8-4.2,0.8-6.4,2.7s-2.4,3.3-1.5,4.2
						C13.1,50.4,14.7,50.4,16.9,48.5z"/>
					<path class="st7" d="M12.7,42.4c1-3.2,1.2-7.5-0.3-7.8C11,34.2,8.6,37.8,7.5,41c-1,3.2-0.3,4.8,1.1,5.2
						C10.1,46.5,11.7,45.6,12.7,42.4z"/>
					<path class="st5" d="M8.9,58.7L8.9,58.7c-0.1,0-0.2-0.1-0.2-0.2c0.2-2.7,1.1-5.4,2.6-7.9c1.5-2.4,3.6-4.5,6-6
						c0.1-0.1,0.2,0,0.3,0.1c0.1,0.1,0,0.2-0.1,0.3c-2.4,1.5-4.4,3.5-5.9,5.9s-2.4,5-2.6,7.7C9.1,58.7,9,58.7,8.9,58.7z"/>
					<path class="st5" d="M7.1,58.5L7.1,58.5c-0.1,0-0.2-0.1-0.2-0.2c0.1-3.7-0.3-7.5-1.4-11.1c-1-3.6-2.7-7.1-4.8-10.2
						c-0.1-0.1,0-0.2,0.1-0.3s0.2,0,0.3,0.1c2.1,3.2,3.8,6.7,4.8,10.4c1.1,3.7,1.5,7.5,1.4,11.2C7.4,58.4,7.3,58.5,7.1,58.5z"/>
					<path class="st5" d="M7.7,58.6L7.7,58.6c-0.1,0-0.2-0.1-0.2-0.2l0.9-9.2c0.3-3.2,0.6-6.5,1.8-9.7c0-0.1,0.2-0.2,0.3-0.1
						c0.1,0,0.2,0.2,0.1,0.3c-1.1,3.1-1.5,6.4-1.8,9.5l-0.9,9.2C7.9,58.5,7.8,58.6,7.7,58.6z"/>
					<path class="st5" d="M6.9,58.8c-0.1,0-0.2-0.1-0.2-0.2c-0.3-4.7-2.6-9.2-6.2-12.5c-0.1-0.1-0.1-0.2,0-0.3s0.2-0.1,0.3,0
						c3.7,3.3,6,8,6.3,12.8C7.1,58.7,7,58.8,6.9,58.8L6.9,58.8z"/>
					<path class="st8" d="M12.4,59.2c0,0.1-0.1,0.1-0.1,0.1H2.6c-0.1,0-0.1,0-0.1-0.1v-1.5c0-0.1,0.1-0.1,0.1-0.1h9.7
						c0.1,0,0.1,0,0.1,0.1V59.2z"/>
					<path class="st9" d="M-2,53.3c-1,2.5-1.3,5.9,0.1,6.4s3.7-2.2,4.7-4.7C3.8,52.6-0.9,50.8-2,53.3z"/>
					<path class="st4" d="M-1.4,57.5l0.1-0.4c0.5-1.4,0.9-2.4,1.3-3.2c0.5-0.9,0.9-1.4,1.4-1.6c0.5-0.2,1-0.1,1.7,0.2
						C4.2,53,5,54,5.5,55.4C5.8,56,6,56.8,6,57.6H5.6c-0.2-1.8-1-4-2.7-4.8c-0.6-0.2-1-0.3-1.3-0.1c-0.9,0.4-1.5,1.9-2.5,4.6
						L-1,57.6c0,0.1-0.2,0.2-0.3,0.1C-1.4,57.7-1.5,57.6-1.4,57.5z"/>
				</g>
			</g>
		</g>
	</g>
</g>
<g>
	<path class="st10" d="M128,64c0,35.3-28.7,64-64,64C28.7,128,0,99.3,0,64C0,28.7,28.7,0,64,0C99.3,0,128,28.7,128,64z"/>
	<linearGradient id="SVGID_3_" gradientUnits="userSpaceOnUse" x1="156.5421" y1="97.482" x2="80.836" y2="69.2184">
		<stop  offset="0" style="stop-color:#65C8D0;stop-opacity:0"/>
		<stop  offset="1" style="stop-color:#84E9D9"/>
	</linearGradient>
	<path class="st11" d="M48,2.1c33.8-8.7,68.4,11.3,77.7,45.1c9.3,34.1-10.7,69.3-44.8,78.6c-7.7,2.1-13.9,2.4-22.9,2l-25.4-13.1
		l37.3-8.1l16.2-41.9L73.5,53.4l-4.9-13.7L48,2.1"/>
	<path class="st12" d="M54.2,106"/>
	<path class="st13" d="M42.5,115.5c5.1,3.4,13.8,5.7,23.6,5.7c9.7,0,18.2-2.2,23.4-5.6l0.3-0.2L42.5,115.5z"/>
	<g>
		<g>
			<g id="XMLID_186_">
				<g id="XMLID_194_">
					<path id="XMLID_220_" class="st14" d="M30.1,108.7c0,0,4.5,0.4,5.5,4.2l-1.2,0C34.5,112.8,33.1,109.6,30.1,108.7z"/>
					<path id="XMLID_219_" class="st14" d="M30.9,103.3c0,0,4,2.7,4,9.6l1.5,0C36.4,112.9,36.2,105.9,30.9,103.3z"/>
					<path id="XMLID_218_" class="st14" d="M31.5,106.2c0,0,4.2,1.7,4.8,6.7l-1.2,0C35.2,112.9,35.3,108.8,31.5,106.2z"/>
					<path id="XMLID_217_" class="st14" d="M43.3,104.9c0,0-6,0.8-6.2,8.1l-1.7-0.1C35.5,112.9,35.6,105.3,43.3,104.9z"/>
					<path id="XMLID_196_" class="st14" d="M36.2,112.9l1.7,0.1c0,0-0.9-5.4,1.8-9.6C39.7,103.3,35.9,107.4,36.2,112.9z"/>
					<path id="XMLID_195_" class="st14" d="M42.6,106.9c0,0-4.4,2.6-4,6l-1.6-0.1C36.9,112.9,36.6,109.1,42.6,106.9z"/>
				</g>
				<g id="XMLID_187_">
					<path id="XMLID_193_" class="st14" d="M46.1,109.2c0,0-4.5,0.1-5.8,3.8l1.2,0C41.4,113,43,110,46.1,109.2z"/>
					<path id="XMLID_192_" class="st14" d="M45.6,103.7c0,0-4.2,2.5-4.6,9.3l-1.5,0C39.5,113,40.1,106,45.6,103.7z"/>
					<path id="XMLID_191_" class="st14" d="M44.8,106.6c0,0-4.3,1.5-5.2,6.4l1.2,0C40.7,113,40.9,109,44.8,106.6z"/>
					<path id="XMLID_190_" class="st14" d="M33.1,104.5c0,0,6,1.2,5.6,8.4l1.7,0.1C40.4,113,40.8,105.5,33.1,104.5z"/>
					<path id="XMLID_189_" class="st15" d="M39.7,113l-1.7-0.1c0,0,1.2-5.3-1.2-9.7C36.8,103.2,40.4,107.6,39.7,113z"/>
					<path id="XMLID_188_" class="st14" d="M33.7,106.6c0,0,4.2,2.9,3.6,6.3L39,113C39,113,39.5,109.2,33.7,106.6z"/>
				</g>
			</g>
		</g>
		<g>
			<g id="XMLID_178_">
				<g id="XMLID_182_">
					<path id="XMLID_185_" class="st15" d="M23.8,108.5c0,0,4.5,0.4,5.5,4.2l-1.2,0C28.2,112.6,26.8,109.4,23.8,108.5z"/>
					<path id="XMLID_184_" class="st15" d="M25.2,106c0,0,4.2,1.7,4.8,6.7l-1.2,0C28.9,112.7,29,108.7,25.2,106z"/>
					<path id="XMLID_183_" class="st15" d="M36.3,106.7c0,0-4.4,2.6-4,6l-1.6-0.1C30.6,112.7,30.3,108.9,36.3,106.7z"/>
				</g>
				<g id="XMLID_179_">
					<path id="XMLID_181_" class="st15" d="M26.8,104.3c0,0,6,1.2,5.6,8.4l1.7,0.1C34.1,112.8,34.5,105.3,26.8,104.3z"/>
					<path id="XMLID_180_" class="st14" d="M27.4,106.4c0,0,4.2,2.9,3.6,6.3l1.6,0.1C32.7,112.8,33.3,109,27.4,106.4z"/>
				</g>
			</g>
			<path id="XMLID_177_" class="st15" d="M26.6,112.6c-0.2,0-0.4,0-0.6,0c-0.2,0-0.3,0-0.4,0c-0.1,0-0.1,0-0.1,0s0,0,0.1,0
				c0.1,0,0.2,0,0.4,0c0.2,0,0.4,0,0.6,0c0.2,0,0.5,0,0.8,0c0.1,0,0.3,0,0.5,0c0.2,0,0.3,0,0.5,0c0.3,0,0.7,0,1.1,0
				c0.2,0,0.4,0,0.6,0c0.2,0,0.4,0,0.6,0c0.4,0,0.8,0,1.2,0c0.4,0,0.8,0,1.2,0c0.2,0,0.4,0,0.6,0c0.2,0,0.4,0,0.6,0
				c0.4,0,0.7,0,1.1,0.1c0.2,0,0.3,0,0.5,0c0.2,0,0.3,0,0.5,0c0.3,0,0.6,0,0.8,0.1c0.2,0,0.4,0,0.6,0c0.2,0,0.3,0,0.4,0
				c0.1,0,4.3,0.1,4.3,0.1s-4.2-0.1-4.3-0.1c-0.1,0,3.9,0.1,3.7,0.1c-0.2,0-0.4,0-0.6,0"/>
		</g>
	</g>
	<g>
		
			<linearGradient id="SVGID_4_" gradientUnits="userSpaceOnUse" x1="1310.6057" y1="302.2343" x2="1301.0277" y2="326.0499" gradientTransform="matrix(0.6643 -0.7475 0.7475 0.6643 -1062.7729 812.096)">
			<stop  offset="0" style="stop-color:#65C8D0;stop-opacity:0"/>
			<stop  offset="0.5981" style="stop-color:#7BDFD6;stop-opacity:0.5981"/>
			<stop  offset="1" style="stop-color:#84E9D9"/>
		</linearGradient>
		<path class="st16" d="M68.3,39.1L47.9,2.1L48.1,2c-8.4,1.7-19.6,7.5-26.8,14.3C12.8,24.3,9.9,28.6,5,38.9l47.9,17.4L68.3,39.1z"/>
	</g>
	<linearGradient id="SVGID_5_" gradientUnits="userSpaceOnUse" x1="37.4035" y1="117.4241" x2="37.4035" y2="117.4241">
		<stop  offset="0" style="stop-color:#65C8D0;stop-opacity:0"/>
		<stop  offset="1" style="stop-color:#84E9D9"/>
	</linearGradient>
	<path class="st17" d="M37.4,117.4"/>
	<g>
		<g id="XMLID_154_">
			<g id="XMLID_162_">
				<path id="XMLID_175_" class="st14" d="M88.2,103.7c0,0,4.7,2.5,4.9,9h1.7C94.8,112.7,94.4,106.1,88.2,103.7z"/>
				<path id="XMLID_174_" class="st14" d="M89,106.5c0,0,4.9,1.5,5.8,6.2h-1.4C93.5,112.7,93.4,108.9,89,106.5z"/>
				<path id="XMLID_173_" class="st14" d="M102.5,104.9c0,0-6.9,1-6.8,7.9h-1.9C93.8,112.7,93.7,105.5,102.5,104.9z"/>
				<path id="XMLID_172_" class="st14" d="M94.7,112.7h2c0,0-1.2-5.1,1.7-9.3C98.3,103.5,94.1,107.6,94.7,112.7z"/>
				<path id="XMLID_171_" class="st14" d="M101.8,106.9c0,0-4.9,2.6-4.4,5.9h-1.9C95.5,112.7,95,109.2,101.8,106.9z"/>
			</g>
			<g id="XMLID_155_">
				<path id="XMLID_161_" class="st14" d="M105.8,108.9c0,0-5.1,0.2-6.5,3.8h1.3C100.7,112.7,102.3,109.7,105.8,108.9z"/>
				<path id="XMLID_160_" class="st14" d="M105.1,103.7c0,0-4.7,2.5-4.9,9h-1.7C98.5,112.7,98.9,106.1,105.1,103.7z"/>
				<path id="XMLID_159_" class="st14" d="M104.3,106.5c0,0-4.9,1.5-5.8,6.2h1.4C99.9,112.7,99.9,108.9,104.3,106.5z"/>
				<path id="XMLID_158_" class="st14" d="M90.8,104.9c0,0,6.9,1,6.8,7.9h1.9C99.5,112.7,99.7,105.5,90.8,104.9z"/>
				<path id="XMLID_157_" class="st15" d="M98.7,112.7h-2c0,0,1.2-5.1-1.7-9.3C95,103.5,99.2,107.6,98.7,112.7z"/>
				<path id="XMLID_156_" class="st14" d="M91.6,106.9c0,0,4.9,2.6,4.4,5.9h1.9C97.8,112.7,98.3,109.2,91.6,106.9z"/>
			</g>
		</g>
	</g>
	<path class="st18" d="M70.1,115.6"/>
	<path class="st19" d="M100.7,112.7l-0.4,0.3c-8,5.2-21.2,8.7-36.3,8.7c-15.2,0-28.6-3.5-36.6-8.9c0,0,41.9-11.8,71.9-0.3
		L100.7,112.7z"/>
	<path class="st12" d="M50.3,101.7c2,2.8,3.6,5.3,7.4,5.9c4.3,0.6,10.5,0.2,15.7-13.8l6.6-17.2l6,2.2l-7.8,16.6
		c-7.1,16.8-15.2,18.5-22.6,17c-5.3-1.1-9-6.7-10.9-10.5c-3.2-6.4-5.7-7.1-9.6-4.1c-3.8,2.8-15.2,11.5-15.8,12.2
		c-0.9-0.8-2.8-2.8-3.5-3.8c0,0,11.5-9,16.1-12.4c5.1-3.9,8.1-3.8,11.7-1.7C46.3,93.6,48.8,99.5,50.3,101.7z"/>
	<g>
		<polygon class="st20" points="70.3,94.8 69.1,98.6 77.2,101.7 78.5,97.7 		"/>
		<path class="st12" d="M89.6,70.8L78,97.2c-0.2,0.4-0.6,0.6-1,0.4l-5.2-1.9c-0.4-0.2-0.7-0.6-0.5-1.1l5.2-14.2l6-14.9L89.6,70.8z"
			/>
		<path class="st20" d="M80.6,64.1l-3.4,5l-13.3,21c-0.4,0.7-0.2,1.5,0.5,2l0.6,0.4c0.6,0.4,1.5,0.2,1.9-0.4l8.5-12.9l1.3,0.9
			l5.8-14.5L80.6,64.1z"/>
		<path class="st21" d="M91.9,65.8l-1.2-3.5l1.3-0.4c0.3-0.1,0.6,0.1,0.7,0.3l0.8,2.5c0.1,0.3-0.1,0.6-0.3,0.7L91.9,65.8z"/>
		<path class="st12" d="M54.5,57.3l-0.7-0.6c-0.2-0.1-0.2-0.4,0-0.6l14.5-16.5c0.1-0.2,0.4-0.2,0.6,0l0.7,0.6L54.5,57.3z"/>
		<path class="st22" d="M56.6,60.5l-2.2-1.9c-0.3-0.3-0.3-0.7-0.1-1L69.8,40c0.3-0.3,0.7-0.3,1-0.1l2.2,1.9c0.2,0.2,0.2,0.5,0,0.7
			L57.3,60.5C57.1,60.7,56.8,60.7,56.6,60.5z"/>
		<path class="st23" d="M58.6,60.9l-0.9-0.8L72.7,43l0.9,0.8c0.2,0.2,0.2,0.5,0,0.7L59.3,60.8C59.1,61,58.8,61.1,58.6,60.9z"/>
		<polygon class="st24" points="65.8,61.4 59.7,60.3 73.2,45 75.1,50.9 		"/>
		<path class="st22" d="M66.7,62.2l-0.9-0.8l9.2-10.5l0.9,0.8c0.2,0.2,0.2,0.5,0,0.7l-8.6,9.8C67.2,62.3,66.9,62.3,66.7,62.2z"/>
		
			<rect x="70.2" y="55.9" transform="matrix(0.7512 0.6601 -0.6601 0.7512 59.3325 -35.0553)" class="st12" width="12" height="10.5"/>
		
			<rect x="68.4" y="60.5" transform="matrix(0.7512 0.6601 -0.6601 0.7512 60.1994 -33.4274)" class="st23" width="12" height="5.2"/>
		<circle class="st22" cx="85.9" cy="66" r="6.1"/>
		<circle class="st21" cx="85.9" cy="65.8" r="3.2"/>
		<g>
			<path class="st23" d="M70.4,45.5l-2.3-2c0,0,0-0.1,0-0.1l0.3-0.4c0,0,0.1,0,0.1,0l2.3,2c0,0,0,0.1,0,0.1l-0.3,0.4
				C70.5,45.5,70.4,45.5,70.4,45.5z"/>
			<path class="st23" d="M71.7,43.9l-2.3-2c0,0,0-0.1,0-0.1l0.3-0.4c0,0,0.1,0,0.1,0l2.3,2c0,0,0,0.1,0,0.1l-0.3,0.4
				C71.8,44,71.8,44,71.7,43.9z"/>
			<path class="st23" d="M67.6,48.6l-2.3-2c0,0,0-0.1,0-0.1l0.3-0.4c0,0,0.1,0,0.1,0l2.3,2c0,0,0,0.1,0,0.1l-0.3,0.4
				C67.7,48.6,67.7,48.7,67.6,48.6z"/>
			<path class="st23" d="M69,47.1l-2.3-2c0,0,0-0.1,0-0.1l0.3-0.4c0,0,0.1,0,0.1,0l2.3,2c0,0,0,0.1,0,0.1L69.1,47
				C69.1,47.1,69,47.1,69,47.1z"/>
			<path class="st23" d="M64.9,51.7l-2.3-2c0,0,0-0.1,0-0.1l0.3-0.4c0,0,0.1,0,0.1,0l2.3,2c0,0,0,0.1,0,0.1L65,51.7
				C65,51.8,64.9,51.8,64.9,51.7z"/>
			<path class="st23" d="M66.2,50.2l-2.3-2c0,0,0-0.1,0-0.1l0.3-0.4c0,0,0.1,0,0.1,0l2.3,2c0,0,0,0.1,0,0.1l-0.3,0.4
				C66.4,50.2,66.3,50.2,66.2,50.2z"/>
			<path class="st23" d="M62.1,54.8l-2.3-2c0,0,0-0.1,0-0.1l0.3-0.4c0,0,0.1,0,0.1,0l2.3,2c0,0,0,0.1,0,0.1l-0.3,0.4
				C62.2,54.9,62.2,54.9,62.1,54.8z"/>
			<path class="st23" d="M63.5,53.3l-2.3-2c0,0,0-0.1,0-0.1l0.3-0.4c0,0,0.1,0,0.1,0l2.3,2c0,0,0,0.1,0,0.1l-0.3,0.4
				C63.6,53.3,63.5,53.3,63.5,53.3z"/>
			<path class="st23" d="M60.7,56.3l-2.3-2c0,0,0-0.1,0-0.1l0.3-0.4c0,0,0.1,0,0.1,0l2.3,2c0,0,0,0.1,0,0.1l-0.3,0.4
				C60.8,56.3,60.7,56.3,60.7,56.3z"/>
			<path class="st23" d="M57.9,59.4l-2.3-2c0,0,0-0.1,0-0.1l0.3-0.4c0,0,0.1,0,0.1,0l2.3,2c0,0,0,0.1,0,0.1l-0.3,0.4
				C58,59.5,58,59.5,57.9,59.4z"/>
			<path class="st23" d="M59.3,57.9l-2.3-2c0,0,0-0.1,0-0.1l0.3-0.4c0,0,0.1,0,0.1,0l2.3,2c0,0,0,0.1,0,0.1l-0.3,0.4
				C59.4,57.9,59.3,57.9,59.3,57.9z"/>
		</g>
		<path class="st25" d="M80.8,60.9L75,55.8c-0.1-0.1-0.1-0.2,0-0.3l0.6-0.7c0.1-0.1,0.2-0.1,0.3,0l5.8,5.1c0.1,0.1,0.1,0.2,0,0.3
			l-0.6,0.7C81,61,80.9,61,80.8,60.9z"/>
		<path class="st25" d="M78.7,91.7l-0.4-0.2c-0.2-0.1-0.4-0.4-0.3-0.6l6.7-16.5c0.1-0.2,0.4-0.4,0.6-0.3l0.4,0.2
			c0.2,0.1,0.4,0.4,0.3,0.6l-6.7,16.5C79.2,91.7,78.9,91.8,78.7,91.7z"/>
		<g class="st26">
			<path class="st27" d="M82.2,63c-0.2-0.1-0.2-0.4,0-0.6c1.8-2.1,5-2.3,7.1-0.5c0.2,0.1,0.2,0.4,0,0.6c-0.1,0.2-0.4,0.2-0.6,0
				c-1.8-1.6-4.5-1.4-6,0.4C82.6,63.2,82.3,63.2,82.2,63z"/>
		</g>
	</g>
</g>
<g>
	<line class="st28" x1="63.3" y1="43.7" x2="54.9" y2="27.2"/>
	<line class="st28" x1="56" y1="51.3" x2="38.6" y2="45.1"/>
	<line class="st28" x1="59.4" y1="47.3" x2="45.3" y2="35"/>
	<line class="st28" x1="61.2" y1="45.1" x2="50.3" y2="30.9"/>
	<line class="st28" x1="57.6" y1="49.3" x2="42" y2="40.3"/>
</g>
</svg>
