<?xml version="1.0" encoding="UTF-8" standalone="no"?>
<svg
   viewBox="0 0 115.8732 115.8732"
   version="1.1"
   id="svg107"
   sodipodi:docname="techskills(1).svg"
   width="115.8732"
   height="115.8732"
   inkscape:version="1.3 (0e150ed6c4, 2023-07-21)"
   xmlns:inkscape="http://www.inkscape.org/namespaces/inkscape"
   xmlns:sodipodi="http://sodipodi.sourceforge.net/DTD/sodipodi-0.dtd"
   xmlns:xlink="http://www.w3.org/1999/xlink"
   xmlns="http://www.w3.org/2000/svg"
   xmlns:svg="http://www.w3.org/2000/svg">
  <sodipodi:namedview
     id="namedview107"
     pagecolor="#5c5c5c"
     bordercolor="#000000"
     borderopacity="0.25"
     inkscape:showpageshadow="2"
     inkscape:pageopacity="0.0"
     inkscape:pagecheckerboard="true"
     inkscape:deskcolor="#5b5b5b"
     inkscape:zoom="5.0807085"
     inkscape:cx="43.694693"
     inkscape:cy="45.170865"
     inkscape:window-width="1920"
     inkscape:window-height="1011"
     inkscape:window-x="0"
     inkscape:window-y="0"
     inkscape:window-maximized="1"
     inkscape:current-layer="svg107" />
  <defs
     id="defs99">
    <path
       id="0"
       d="m 450.95,201.15 c 0,4.112 -3.333,7.445 -7.445,7.445 -4.112,0 -7.445,-3.333 -7.445,-7.445 0,-4.112 3.333,-7.445 7.445,-7.445 4.112,0 7.445,3.333 7.445,7.445" />
    <clipPath
       id="clipPath1">
      <path
         d="m 2174.69,1733.84 c -1.307,-0.117 -5.762,2.2 -2.737,2.898 1.249,0.288 3.473,-2.832 2.737,-2.898"
         id="path1" />
    </clipPath>
    <clipPath
       id="clipPath2">
      <path
         d="m 2036.08,2003.71 c 0.837,0.33 1.495,0.254 2.01,-0.012 0.725,0.59 2.153,0.171 2.153,0.171 0,0 -0.01,-8.755 -0.238,-12.01 -0.185,-2.487 -0.467,-5.886 -0.648,-6.82 -0.484,-2.508 -2.227,1.185 -2.096,2.245 0.074,0.597 0.166,3.956 0.384,5.98 0.23,0.693 0.089,4.459 0.034,7.116 -3.098,-1.637 -9.193,-4.84 -13.825,-7.165 0.425,-2.82 1.043,-7.086 1.223,-9.156 0.206,-2.485 0.459,-5.886 0.427,-6.837 -0.086,-2.553 -2.385,0.822 -2.421,1.89 -0.021,0.602 -0.455,3.933 -0.556,5.967 l 0.111,-0.047 c 0.01,0.76 -0.706,4.389 -1.176,6.999 -0.576,-0.28 -1.102,-0.532 -1.566,-0.747 -4.21,-1.939 -9.986,-4.556 -11.66,-5.152 -4.493,-1.599 0.081,3.703 1.919,4.468 1.035,0.431 6.589,3.24 10.07,4.738 l -0.02,-0.179 c 1.969,0.741 14.05,7.826 15.874,8.546"
         id="path2" />
    </clipPath>
    <clipPath
       id="clipPath3">
      <path
         d="m 2220.59,1784.78 c -1.524,-0.845 -28.11,-17.84 -33.806,-19.707 -3.548,-1.164 -0.736,1.605 1.872,3.03 1.576,0.861 3.085,1.631 3.085,1.631 0,0 23.709,14.416 27.42,16.239 3.711,1.823 2.953,-0.348 1.428,-1.193"
         id="path3" />
    </clipPath>
    <clipPath
       id="clipPath4">
      <path
         d="m 2232.1,1778.52 c -1.524,-0.845 -28.11,-17.84 -33.806,-19.707 -3.548,-1.164 -0.736,1.606 1.872,3.03 1.576,0.861 3.085,1.631 3.085,1.631 0,0 23.709,14.416 27.42,16.239 3.711,1.823 2.953,-0.348 1.428,-1.193"
         id="path4" />
    </clipPath>
    <clipPath
       id="clipPath5">
      <path
         d="m 2226.34,1781.65 c -1.524,-0.845 -28.11,-17.84 -33.806,-19.707 -3.548,-1.164 -0.736,1.605 1.872,3.03 1.576,0.861 3.085,1.631 3.085,1.631 0,0 23.709,14.416 27.42,16.239 3.711,1.823 2.953,-0.348 1.428,-1.193"
         id="path5" />
    </clipPath>
    <clipPath
       id="clipPath6">
      <path
         d="m 2194.14,1722.73 c -1.307,-0.117 -5.762,2.2 -2.737,2.898 1.25,0.288 3.473,-2.832 2.737,-2.898"
         id="path6" />
    </clipPath>
    <clipPath
       id="clipPath7">
      <path
         d="m 2085.27,1677.41 c -1.572,-0.844 -6.653,-6.697 -2.834,-5.03 1.577,0.688 5.125,2.788 8.747,5.02 0.031,1.422 0.25,2.942 0.372,3.977 -2.983,-1.673 -5.399,-3.487 -6.285,-3.962"
         id="path7" />
    </clipPath>
    <clipPath
       id="clipPath8">
      <path
         d="m 2244.05,1740.52 c 1.307,-0.117 5.762,2.2 2.737,2.898 -1.25,0.288 -3.473,-2.832 -2.737,-2.898"
         id="path8" />
    </clipPath>
    <clipPath
       id="clipPath9">
      <path
         d="m 1976.57,1672.51 c -6.657,0 -11.49,-3.102 -11.49,-6.394 0,-3.293 4.833,-6.394 11.49,-6.394 6.657,0 11.49,3.102 11.49,6.394 0,3.293 -4.833,6.394 -11.49,6.394"
         id="path9" />
    </clipPath>
    <clipPath
       id="clipPath10">
      <path
         d="m 2209.24,1720.41 c 1.307,-0.117 5.762,2.2 2.737,2.898 -1.249,0.288 -3.473,-2.832 -2.737,-2.898"
         id="path10" />
    </clipPath>
    <clipPath
       id="clipPath11">
      <path
         d="m 1967.23,1690.52 c -6.657,0 -11.49,-3.102 -11.49,-6.394 0,-3.293 4.833,-6.394 11.49,-6.394 6.657,0 11.49,3.102 11.49,6.394 0,3.293 -4.833,6.394 -11.49,6.394"
         id="path11" />
    </clipPath>
    <clipPath
       id="clipPath12">
      <path
         d="m 2237.85,1775.39 c -1.524,-0.845 -28.11,-17.84 -33.806,-19.707 -3.548,-1.164 -0.736,1.606 1.872,3.03 1.576,0.861 3.085,1.631 3.085,1.631 0,0 23.709,14.416 27.42,16.239 3.711,1.823 2.953,-0.348 1.428,-1.193"
         id="path12" />
    </clipPath>
    <clipPath
       id="clipPath13">
      <path
         d="m 2068.57,1858.24 c -1.155,-12.553 21.853,-22.532 48.659,-22.491 27.21,-0.041 50.21,9.939 48.656,22.491 1.559,0.586 -0.664,0.586 -2.162,0 1.498,-10.843 -19.284,-20.781 -46.49,-20.787 -26.806,0.01 -47.59,9.944 -46.5,20.787 -1.094,0.586 -3.317,0.586 -2.162,0"
         id="path13" />
    </clipPath>
    <clipPath
       id="clipPath14">
      <path
         d="m 2176.46,1757.7 c 1.445,-0.569 10.994,-6.171 12.552,-6.757 l -0.015,0.141 c 2.755,-1.185 7.145,-3.406 7.964,-3.746 1.453,-0.604 5.07,-4.797 1.517,-3.533 -1.323,0.471 -5.891,2.54 -9.22,4.073 -4.343,2.02 -15.638,8.03 -15.638,8.03 0,0 0.646,2.658 2.84,1.794"
         id="path14" />
    </clipPath>
    <clipPath
       id="clipPath15">
      <path
         d="m 2079.38,1764.68 c -0.902,-12.553 17.08,-22.532 38.02,-22.491 21.262,-0.041 39.24,9.939 38.02,22.491 1.218,0.587 -0.519,0.587 -1.69,0 1.171,-10.843 -15.07,-20.78 -36.33,-20.787 -20.946,0.01 -37.19,9.944 -36.33,20.787 -0.855,0.587 -2.592,0.587 -1.69,0"
         id="path15" />
    </clipPath>
    <clipPath
       id="clipPath16">
      <path
         d="m 2107.52,1769.95 c -0.07,2.023 0.935,38.67 -0.599,45.46 -0.956,4.23 -2.022,-0.228 -1.881,-3.677 0.085,-2.085 0.22,-4.048 0.22,-4.048 0,0 -0.167,-32.24 0.235,-37.02 0.402,-4.786 2.096,-2.732 2.026,-0.709"
         id="path16" />
    </clipPath>
    <clipPath
       id="clipPath17">
      <path
         d="m 2080.31,1830.8 c 0,0 12.693,-11.276 37.17,-11.276 24.479,0 37.475,11.885 37.475,11.885 0,0 0.334,-1.585 -1.495,-3.383 -1.829,-1.798 -15.731,-11.09 -35.98,-11.09 -20.249,0 -35.98,11.08 -35.98,11.08 l -1.193,2.788"
         id="path17" />
    </clipPath>
    <clipPath
       id="clipPath18">
      <path
         d="m 2102.44,1877.74 c 0,0 4.873,-5.353 14.271,-5.353 9.398,0 14.386,5.642 14.386,5.642 0,0 0.128,-0.752 -0.574,-1.606 -0.702,-0.853 -6.04,-5.266 -13.813,-5.266 -7.773,0 -13.813,5.259 -13.813,5.259 l -0.458,1.323"
         id="path18" />
    </clipPath>
    <clipPath
       id="clipPath19">
      <path
         d="m 2245.85,1767 c -1.509,-0.871 -5.956,-4.314 -11.616,-6.281 -3.527,-1.225 -0.764,1.592 1.819,3.062 1.561,0.888 3.056,1.685 3.056,1.685 0,0 1.613,0.814 5.291,2.701 3.679,1.887 2.958,-0.297 1.449,-1.168"
         id="path19" />
    </clipPath>
    <clipPath
       id="clipPath20">
      <path
         d="m 2086.65,1875.29 c 0.907,-3.047 8.16,-5.18 10.275,-12.799 2.115,-7.618 3.324,-12.189 -4.533,-31.692 -7.858,-19.503 1.209,-40.53 -0.302,-52.41 -1.511,-11.884 -1.511,-12.189 -7.555,-21.636 -6.04,-9.447 3.02,-15.846 4.533,-20.11 1.511,-4.266 -4.231,-10.97 -4.231,-10.97 0,0 -8.16,4.57 -8.764,13.1 -0.604,8.533 0.907,24.07 0.907,24.07 0,0 4.231,3.961 4.231,9.447 0,5.485 1.177,59.04 0.286,60.15 -0.89,1.106 -6.633,5.982 -8.144,12.991 -1.511,7.01 -3.324,12.189 -1.813,15.541 1.511,3.352 3.627,8.228 7.555,11.275 3.929,3.047 7.555,3.047 7.555,3.047"
         id="path20" />
    </clipPath>
    <clipPath
       id="clipPath21">
      <path
         d="m 2173.95,1761.06 c 1.49,-0.787 19.21,-11.373 24.558,-12.833 3.334,-0.91 2.174,1.278 -0.371,2.6 -1.538,0.799 -3,1.502 -3,1.502 0,0 -14.741,7.973 -18.329,9.62 -3.588,1.647 -4.345,-0.101 -2.856,-0.888"
         id="path21" />
    </clipPath>
    <clipPath
       id="clipPath22">
      <path
         d="m 2228.43,1742.76 c -1.509,-0.871 -19.247,-12.283 -24.906,-14.249 -3.527,-1.225 -0.764,1.592 1.819,3.062 1.561,0.888 3.056,1.685 3.056,1.685 0,0 14.903,8.782 18.582,10.67 3.679,1.887 2.958,-0.297 1.449,-1.168"
         id="path22" />
    </clipPath>
    <clipPath
       id="clipPath23">
      <path
         d="m 2207.63,1747.03 c -1.508,-0.81 -6.386,-6.428 -2.72,-4.83 1.514,0.66 4.919,2.676 8.395,4.815 0.03,1.365 0.24,2.824 0.357,3.817 -2.863,-1.606 -5.182,-3.347 -6.03,-3.803"
         id="path23" />
    </clipPath>
    <clipPath
       id="clipPath24">
      <path
         d="m 2171.68,1741.11 c 1.49,-0.787 19.21,-11.373 24.558,-12.834 3.334,-0.91 2.174,1.278 -0.371,2.6 -1.538,0.799 -3,1.502 -3,1.502 0,0 -14.741,7.973 -18.329,9.62 -3.588,1.647 -4.345,-0.101 -2.856,-0.888"
         id="path24" />
    </clipPath>
    <clipPath
       id="clipPath25">
      <path
         d="m 2106.94,1672.96 c -1.573,-0.908 -20.05,-12.797 -25.95,-14.845 -3.675,-1.277 -0.796,1.659 1.895,3.19 1.626,0.925 3.184,1.755 3.184,1.755 0,0 15.528,9.15 19.361,11.12 3.833,1.966 3.082,-0.309 1.51,-1.217"
         id="path25" />
    </clipPath>
    <clipPath
       id="clipPath26">
      <path
         d="m 2007.45,2016.2 2.02,-1.227 c 0,0 1.908,-0.975 3.901,-2.063 3.298,-1.801 6.855,-5.303 2.368,-3.832 -2.022,0.663 -6.13,2.836 -11.03,5.641 l 2.743,1.48"
         id="path26" />
    </clipPath>
    <clipPath
       id="clipPath27">
      <path
         d="m 2047.81,1671.24 c 1.552,-0.82 20.01,-11.85 25.588,-13.371 3.474,-0.948 2.266,1.332 -0.386,2.708 -1.603,0.832 -3.128,1.565 -3.128,1.565 0,0 -15.36,8.306 -19.1,10.02 -3.738,1.716 -4.528,-0.105 -2.976,-0.925"
         id="path27" />
    </clipPath>
    <clipPath
       id="clipPath28">
      <path
         d="m 2000.15,2012.26 2.05,-1.244 c 0,0 1.908,-0.975 3.901,-2.063 3.298,-1.801 6.855,-5.303 2.368,-3.832 -2.026,0.665 -6.146,2.844 -11.06,5.658 l 2.744,1.481"
         id="path28" />
    </clipPath>
    <clipPath
       id="clipPath29">
      <path
         d="m 2042.12,1982.73 c -1.884,-0.995 -24.292,-14.384 -31.06,-16.231 -4.217,-1.151 -2.75,1.617 0.469,3.288 1.946,1.01 3.796,1.9 3.796,1.9 0,0 18.643,10.08 23.18,12.166 4.537,2.083 5.496,-0.128 3.612,-1.123"
         id="path29" />
    </clipPath>
    <clipPath
       id="clipPath30">
      <path
         d="m 1992.84,2008.32 2.078,-1.261 c 0,0 1.908,-0.975 3.901,-2.063 3.299,-1.801 6.855,-5.303 2.368,-3.832 -2.03,0.666 -6.162,2.853 -11.09,5.675 l 2.745,1.481"
         id="path30" />
    </clipPath>
    <clipPath
       id="clipPath31">
      <path
         d="m 2014.76,2020.14 1.993,-1.21 c 0,0 1.908,-0.975 3.901,-2.063 3.298,-1.801 6.855,-5.303 2.368,-3.832 -2.02,0.662 -6.113,2.827 -11,5.625 l 2.742,1.48"
         id="path31" />
    </clipPath>
    <clipPath
       id="clipPath32">
      <path
         d="m 2039.25,2007.95 c -1.884,-0.995 -24.292,-14.384 -31.06,-16.231 -4.217,-1.151 -2.75,1.617 0.469,3.288 1.946,1.01 3.796,1.9 3.796,1.9 0,0 18.643,10.08 23.18,12.166 4.537,2.083 5.496,-0.128 3.612,-1.123"
         id="path32" />
    </clipPath>
    <clipPath
       id="clipPath33">
      <path
         d="m 2038.31,1973.54 c -0.931,0.083 1.881,4.03 3.461,3.665 3.826,-0.882 -1.808,-3.812 -3.461,-3.665"
         id="path33" />
    </clipPath>
    <clipPath
       id="clipPath34">
      <path
         d="m 1994.62,1956.55 c -1.653,-0.148 -7.287,2.782 -3.461,3.665 1.58,0.365 4.392,-3.581 3.461,-3.665"
         id="path34" />
    </clipPath>
    <clipPath
       id="clipPath35">
      <path
         d="m 2013.72,1959.49 c -0.931,0.083 1.881,4.03 3.461,3.665 3.826,-0.882 -1.808,-3.812 -3.461,-3.665"
         id="path35" />
    </clipPath>
    <clipPath
       id="clipPath36">
      <path
         d="m 1950.59,1981.98 c -1.653,-0.148 -7.287,2.782 -3.461,3.665 1.58,0.364 4.392,-3.581 3.461,-3.665"
         id="path36" />
    </clipPath>
    <clipPath
       id="clipPath37">
      <path
         d="m 1970.35,1984.82 c -1.535,0.887 -2.425,2.847 -0.293,2.338 l 9.854,-5.172 c 7.04,-4.04 15.772,-9.183 15.772,-9.183 0,0 1.891,-1.01 3.865,-2.131 3.266,-1.859 6.762,-5.422 2.301,-3.873 -7.157,2.486 -29.589,16.918 -31.498,18.02"
         id="path37" />
    </clipPath>
    <clipPath
       id="clipPath38">
      <path
         d="m 2116.76,1706.95 c -1.588,-0.88 -29.29,-18.587 -35.22,-20.532 -3.697,-1.212 -0.767,1.673 1.951,3.157 1.642,0.897 3.214,1.7 3.214,1.7 0,0 24.703,15.02 28.57,16.918 3.867,1.899 3.076,-0.363 1.488,-1.243"
         id="path38" />
    </clipPath>
    <clipPath
       id="clipPath39">
      <path
         d="m 1996.66,1990.22 c 1.908,-1.024 8.08,-8.129 3.44,-6.108 -1.915,0.835 -6.221,3.384 -10.617,6.09 -0.038,1.726 -0.303,3.572 -0.452,4.828 3.621,-2.031 6.554,-4.232 7.629,-4.81"
         id="path39" />
    </clipPath>
    <clipPath
       id="clipPath40">
      <path
         d="m 2052.79,1688.52 c 1.505,-0.593 11.455,-6.43 13.08,-7.04 l -0.016,0.147 c 2.87,-1.235 7.445,-3.549 8.298,-3.903 1.514,-0.63 5.282,-4.998 1.581,-3.68 -1.379,0.491 -6.138,2.646 -9.606,4.244 -4.525,2.102 -16.294,8.363 -16.294,8.363 0,0 0.673,2.77 2.959,1.869"
         id="path40" />
    </clipPath>
    <clipPath
       id="clipPath41">
      <path
         d="m 2050.18,1692.02 c 1.552,-0.82 20.01,-11.85 25.588,-13.371 3.474,-0.948 2.265,1.332 -0.387,2.708 -1.603,0.832 -3.128,1.565 -3.128,1.565 0,0 -15.36,8.306 -19.1,10.02 -3.738,1.716 -4.528,-0.105 -2.976,-0.925"
         id="path41" />
    </clipPath>
    <clipPath
       id="clipPath42">
      <path
         d="m 2125.1,1698.21 c -1.573,-0.908 -6.206,-4.495 -12.1,-6.543 -3.675,-1.277 -0.796,1.659 1.895,3.19 1.627,0.925 3.184,1.755 3.184,1.755 0,0 1.68,0.848 5.513,2.815 3.833,1.966 3.082,-0.309 1.51,-1.217"
         id="path42" />
    </clipPath>
    <clipPath
       id="clipPath43">
      <path
         d="m 2110.76,1710.22 c -1.588,-0.88 -29.29,-18.586 -35.22,-20.532 -3.697,-1.212 -0.767,1.673 1.951,3.157 1.642,0.897 3.214,1.7 3.214,1.7 0,0 24.704,15.02 28.57,16.918 3.867,1.899 3.076,-0.363 1.488,-1.243"
         id="path43" />
    </clipPath>
    <clipPath
       id="clipPath44">
      <path
         d="m 2086.95,1649.68 c 1.362,-0.121 6,2.292 2.851,3.02 -1.302,0.3 -3.619,-2.95 -2.851,-3.02"
         id="path44" />
    </clipPath>
    <clipPath
       id="clipPath45">
      <path
         d="m 2104.77,1713.48 c -1.588,-0.88 -29.29,-18.587 -35.22,-20.532 -3.697,-1.212 -0.767,1.673 1.951,3.157 1.642,0.897 3.214,1.7 3.214,1.7 0,0 24.703,15.02 28.57,16.918 3.867,1.899 3.076,-0.363 1.488,-1.243"
         id="path45" />
    </clipPath>
    <clipPath
       id="clipPath46">
      <path
         d="m 2123.22,1670.62 c 1.362,-0.122 6,2.292 2.851,3.02 -1.302,0.3 -3.619,-2.95 -2.851,-3.02"
         id="path46" />
    </clipPath>
    <clipPath
       id="clipPath47">
      <path
         d="m 2050.95,1663.67 c -1.362,-0.121 -6,2.292 -2.851,3.02 1.302,0.3 3.619,-2.95 2.851,-3.02"
         id="path47" />
    </clipPath>
    <clipPath
       id="clipPath48">
      <path
         d="m 2098.77,1716.74 c -1.588,-0.88 -29.29,-18.587 -35.22,-20.532 -3.697,-1.212 -0.767,1.673 1.951,3.157 1.642,0.897 3.214,1.7 3.214,1.7 0,0 24.703,15.02 28.57,16.918 3.867,1.899 3.076,-0.363 1.488,-1.243"
         id="path48" />
    </clipPath>
    <clipPath
       id="clipPath49">
      <path
         d="m 2071.21,1652.09 c -1.362,-0.122 -6,2.292 -2.851,3.02 1.302,0.3 3.619,-2.95 2.851,-3.02"
         id="path49" />
    </clipPath>
    <clipPath
       id="clipPath50">
      <path
         d="m 2151.23,1797.41 c -1.756,0.982 -32.392,20.726 -38.952,22.894 -4.088,1.352 -0.848,-1.865 2.157,-3.52 1.816,-1 3.554,-1.895 3.554,-1.895 0,0 27.318,-16.748 31.594,-18.865 4.276,-2.118 3.402,0.405 1.646,1.386"
         id="path50" />
    </clipPath>
    <clipPath
       id="clipPath51">
      <path
         d="m 2202.14,2011.69 c -0.731,0.065 1.476,3.162 2.716,2.876 3,-0.693 -1.419,-2.992 -2.716,-2.876"
         id="path51" />
    </clipPath>
    <clipPath
       id="clipPath52">
      <path
         d="m 2160.84,1743.35 c -0.07,2.023 0.935,38.67 -0.599,45.46 -0.956,4.23 -2.022,-0.228 -1.881,-3.677 0.085,-2.085 0.22,-4.048 0.22,-4.048 0,0 -0.167,-32.24 0.235,-37.02 0.402,-4.786 2.096,-2.732 2.026,-0.708"
         id="path52" />
    </clipPath>
    <clipPath
       id="clipPath53">
      <path
         d="m 2221.43,2022.71 c -0.731,0.065 1.476,3.162 2.716,2.876 3,-0.693 -1.419,-2.992 -2.716,-2.876"
         id="path53" />
    </clipPath>
    <clipPath
       id="clipPath54">
      <path
         d="m 2197.21,2056.2 1.586,-0.963 c 0,0 1.497,-0.765 3.062,-1.619 2.589,-1.414 5.38,-4.162 1.858,-3.01 -1.587,0.521 -4.811,2.226 -8.66,4.427 l 2.153,1.162"
         id="path54" />
    </clipPath>
    <clipPath
       id="clipPath55">
      <path
         d="m 2202.95,2059.29 1.564,-0.949 c 0,0 1.497,-0.765 3.062,-1.619 2.589,-1.414 5.38,-4.162 1.858,-3.01 -1.584,0.519 -4.798,2.219 -8.637,4.414 l 2.152,1.162"
         id="path55" />
    </clipPath>
    <clipPath
       id="clipPath56">
      <path
         d="m 2152.59,2029.34 c -1.297,-0.116 -5.719,2.183 -2.716,2.876 1.24,0.286 3.447,-2.811 2.716,-2.876"
         id="path56" />
    </clipPath>
    <clipPath
       id="clipPath57">
      <path
         d="m 2139.15,2049.09 c 0.224,-2.33 2.866,-1.703 2.866,-1.703 0,0 0.225,12.697 0.053,17.447 -0.144,3.635 -0.372,8.606 -0.552,9.989 -0.483,3.711 -2.561,-1.376 -2.441,-2.934 0.068,-0.878 0.082,-5.762 0.276,-8.731 l 0.118,0.077 c 0.184,-1.641 -0.468,-12.611 -0.32,-14.14"
         id="path57" />
    </clipPath>
    <clipPath
       id="clipPath58">
      <path
         d="m 2187.14,2009.39 c -1.297,-0.116 -5.719,2.183 -2.716,2.876 1.24,0.286 3.447,-2.811 2.716,-2.876"
         id="path58" />
    </clipPath>
    <clipPath
       id="clipPath59">
      <path
         d="m 2139.75,2051.91 c -2.178,0.858 -2.819,-1.781 -2.819,-1.781 0,0 11.211,-5.965 15.522,-7.968 3.304,-1.522 7.838,-3.575 9.151,-4.04 3.526,-1.255 -0.064,2.906 -1.506,3.506 -0.813,0.338 -5.171,2.543 -7.905,3.719 l 0.015,-0.14 c -1.546,0.582 -11.02,6.142 -12.459,6.707"
         id="path59" />
    </clipPath>
    <clipPath
       id="clipPath60">
      <path
         d="m 2222.17,2049.73 c -1.479,-0.781 -19.07,-11.289 -24.376,-12.738 -3.31,-0.903 -2.158,1.269 0.368,2.58 1.527,0.793 2.979,1.491 2.979,1.491 0,0 14.632,7.913 18.19,9.548 3.561,1.635 4.313,-0.1 2.835,-0.881"
         id="path60" />
    </clipPath>
    <clipPath
       id="clipPath61">
      <path
         d="m 2178.25,2025.04 -5.322,-3.389 -45.11,64.68 c 0,0 32.987,16.13 35.11,17 4.527,1.862 22.685,-6.393 45.85,-22.884 0.966,-0.687 1.768,-6.714 1.505,-13.652 -0.072,-1.896 -0.246,-3.896 -0.451,-5.764 l -1.666,1.078 -30.596,-16.511 v -17.292 l 0.677,-3.264"
         id="path61" />
    </clipPath>
    <clipPath
       id="clipPath62">
      <path
         d="m 2191.48,2053.1 1.609,-0.976 c 0,0 1.497,-0.765 3.062,-1.619 2.589,-1.414 5.38,-4.162 1.858,-3.01 -1.59,0.522 -4.824,2.232 -8.683,4.441 l 2.154,1.162"
         id="path62" />
    </clipPath>
    <clipPath
       id="clipPath63">
      <path
         d="m 1874.95,1862.54 c -0.045,-0.207 -0.082,-0.499 -0.358,-0.339 -0.16,0.106 -20.563,11.865 -20.563,11.865 l -43.37,25.04 c -0.083,0.058 -0.143,0.091 -0.203,0.125 -0.174,0.1 -0.315,0.345 -0.315,0.546 0,0.141 0.01,6.47 0.541,10.513 0.086,0.649 0.02,2.787 0.311,5.157 l 36.854,21.334 15.427,-8.498 -22.959,-12.509 c 3.927,-2.266 8.387,-5.137 13.452,-8.743 1.852,-1.319 2.238,-2.841 2.3,-4.953 0.109,-3.688 0.888,-11.564 3.136,-13.858 3.264,-3.33 7.322,-5.109 10.876,-8.428 1.055,-0.837 2.022,-1.914 2.848,-3.184 0.469,-0.675 0.858,-1.392 1.097,-2.02 0.681,-1.533 1.098,-3.19 1.098,-4.682 0,-0.459 -0.11,-4.991 -0.168,-7.374"
         id="path63" />
    </clipPath>
    <clipPath
       id="clipPath64">
      <path
         d="m 2185.75,2050.01 1.631,-0.99 c 0,0 1.497,-0.765 3.062,-1.619 2.589,-1.414 5.38,-4.162 1.858,-3.01 -1.593,0.523 -4.836,2.239 -8.706,4.454 l 2.154,1.163"
         id="path64" />
    </clipPath>
    <clipPath
       id="clipPath65">
      <path
         d="m 1845.5,1908.87 c 0,0 5.125,-2.37 6.06,-2.759 1.664,-0.692 5.804,-5.492 1.737,-4.045 -1.515,0.539 -3.706,1.54 -7.518,3.296 -4.972,2.31 -2.065,4.179 -0.282,3.509"
         id="path65" />
    </clipPath>
    <clipPath
       id="clipPath66">
      <path
         d="m 1910.73,1882.1 c -0.045,-0.207 -0.082,-0.499 -0.358,-0.339 -0.136,0.089 -25.865,-14.875 -33.712,-19.367 0.038,1.829 0.087,5.71 0.087,6.574 0,1.872 -0.498,3.9 -1.349,5.83 -0.368,0.947 -0.877,1.854 -1.47,2.71 -0.981,1.504 -2.166,2.853 -3.467,3.895 -1.22,1.136 -2.561,2.227 -3.906,3.257 -1.141,0.873 -7.081,5.727 -7.696,6.792 -1.366,2.367 0.804,13.277 -4.914,17.348 -4.59,3.267 -8.714,5.953 -12.42,8.142 l 36.21,18.346 c 3.79,-2.305 7.658,-4.852 11.292,-7.439 1.852,-1.319 2.238,-2.841 2.3,-4.953 0.109,-3.688 0.711,-11.903 3.135,-13.858 3.63,-2.927 7.322,-5.109 10.876,-8.428 1.056,-0.837 2.022,-1.914 2.848,-3.184 0.469,-0.675 0.859,-1.392 1.097,-2.02 0.681,-1.533 1.098,-3.19 1.098,-4.682 0,-0.459 0.406,-6.245 0.348,-8.627"
         id="path66" />
    </clipPath>
    <clipPath
       id="clipPath67">
      <path
         d="m 1907,1893.36 c -1.772,-0.998 -22.598,-14.06 -29.24,-16.315 -4.142,-1.403 -0.897,0.566 2.136,2.249 1.833,1.017 3.588,1.929 3.588,1.929 0,0 17.498,10.06 21.818,12.217 4.319,2.161 3.473,0.918 1.701,-0.08"
         id="path67" />
    </clipPath>
    <clipPath
       id="clipPath68">
      <path
         d="m 1886.19,1921.73 c 2.512,0.989 3.252,-2.054 3.252,-2.054 0,0 -12.933,-6.881 -17.905,-9.191 -3.811,-1.756 -9.04,-4.125 -10.556,-4.664 -4.067,-1.448 0.073,3.353 1.737,4.045 0.938,0.39 5.965,2.933 9.119,4.29 l -0.018,-0.162 c 1.783,0.671 12.717,7.086 14.371,7.737"
         id="path68" />
    </clipPath>
    <clipPath
       id="clipPath69">
      <path
         d="m 2224.43,2029.93 c -1.479,-0.781 -19.07,-11.289 -24.376,-12.738 -3.31,-0.903 -2.158,1.269 0.368,2.58 1.527,0.793 2.979,1.491 2.979,1.491 0,0 14.632,7.913 18.19,9.548 3.561,1.635 4.313,-0.1 2.835,-0.881"
         id="path69" />
    </clipPath>
    <clipPath
       id="clipPath70">
      <path
         d="m 1823.62,1890.73 c -1.496,-0.133 -6.597,2.519 -3.133,3.318 1.431,0.33 3.977,-3.242 3.133,-3.318"
         id="path70" />
    </clipPath>
    <clipPath
       id="clipPath71">
      <path
         d="m 2168.1,2031.57 c -1.205,0.696 -1.903,2.234 -0.23,1.835 l 7.734,-4.059 c 5.528,-3.17 12.379,-7.207 12.379,-7.207 0,0 1.484,-0.791 3.033,-1.672 2.564,-1.459 5.307,-4.255 1.806,-3.039 -5.617,1.951 -23.22,13.278 -24.721,14.14"
         id="path71" />
    </clipPath>
    <clipPath
       id="clipPath72">
      <path
         d="m 1863.48,1867.72 c -1.496,-0.134 -6.597,2.519 -3.133,3.318 1.431,0.33 3.977,-3.242 3.133,-3.318"
         id="path72" />
    </clipPath>
    <clipPath
       id="clipPath73">
      <path
         d="m 1825.71,1906.22 c -1.728,0.998 -2.553,2.241 1.659,0.08 4.212,-2.161 21.275,-12.217 21.275,-12.217 0,0 1.712,-0.912 3.499,-1.929 2.957,-1.683 6.122,-3.652 2.083,-2.249 -6.48,2.251 -26.788,15.317 -28.516,16.314"
         id="path73" />
    </clipPath>
    <clipPath
       id="clipPath74">
      <path
         d="m 2188.74,2035.8 c 1.497,-0.804 6.338,-6.38 2.7,-4.794 -1.503,0.655 -4.883,2.656 -8.333,4.78 -0.03,1.354 -0.238,2.803 -0.354,3.789 2.842,-1.594 5.144,-3.322 5.987,-3.775"
         id="path74" />
    </clipPath>
    <clipPath
       id="clipPath75">
      <path
         d="m 2140.75,2074.96 c -2.178,0.858 -2.819,-1.781 -2.819,-1.781 0,0 2.626,-1.738 6.936,-3.741 3.304,-1.522 7.838,-3.575 9.151,-4.04 3.526,-1.255 -0.064,2.906 -1.506,3.506 -0.813,0.338 -5.171,2.543 -7.905,3.719 l 0.015,-0.14 c -1.546,0.581 -2.439,1.916 -3.873,2.48"
         id="path75" />
    </clipPath>
    <clipPath
       id="clipPath76">
      <path
         d="m 2078.59,2026.22 c 6.465,-0.226 11.05,-3.402 10.941,-6.599 -0.112,-3.197 -4.91,-6.05 -11.375,-5.82 -6.465,0.226 -11.05,3.402 -10.941,6.599 0.112,3.197 4.91,6.05 11.375,5.82"
         id="path76" />
    </clipPath>
    <clipPath
       id="clipPath77">
      <path
         d="m 2219.68,2046.39 c 0.657,0.259 1.174,0.199 1.575,-0.01 0.569,0.463 1.69,0.134 1.69,0.134 0,0 -0.01,-6.871 -0.186,-9.423 -0.146,-1.952 -0.367,-4.619 -0.508,-5.352 -0.38,-1.968 -1.748,0.93 -1.645,1.762 0.058,0.469 0.13,3.104 0.301,4.694 0.181,0.544 0.07,3.5 0.027,5.584 -2.431,-1.285 -7.215,-3.799 -10.851,-5.623 0.333,-2.213 0.819,-5.561 0.96,-7.186 0.162,-1.95 0.36,-4.62 0.335,-5.366 -0.068,-2 -1.872,0.646 -1.9,1.483 -0.016,0.472 -0.357,3.086 -0.436,4.683 l 0.087,-0.037 c 0.01,0.596 -0.554,3.445 -0.923,5.493 -0.452,-0.22 -0.865,-0.417 -1.229,-0.586 -3.304,-1.522 -7.838,-3.575 -9.151,-4.04 -3.526,-1.255 0.064,2.906 1.506,3.506 0.813,0.338 5.171,2.543 7.905,3.719 l -0.015,-0.14 c 1.546,0.582 11.02,6.142 12.459,6.707"
         id="path77" />
    </clipPath>
    <clipPath
       id="clipPath78">
      <path
         d="m 2092.57,2035.22 c 6.469,0 11.165,-3.01 11.165,-6.213 0,-3.199 -4.696,-6.213 -11.165,-6.213 -6.469,0 -11.165,3.01 -11.165,6.213 0,3.199 4.696,6.213 11.165,6.213"
         id="path78" />
    </clipPath>
    <clipPath
       id="clipPath79">
      <path
         d="m 2093.73,1998.23 c 0,0 4.196,-1.94 4.963,-2.259 1.362,-0.567 4.752,-4.497 1.422,-3.312 -1.24,0.442 -3.035,1.261 -6.155,2.698 -4.071,1.891 -1.691,3.422 -0.231,2.872"
         id="path79" />
    </clipPath>
    <clipPath
       id="clipPath80">
      <path
         d="m 2144.08,1985.53 c -1.451,-0.817 -18.502,-11.514 -23.942,-13.357 -3.391,-1.149 -0.734,0.463 1.749,1.841 1.501,0.833 2.938,1.58 2.938,1.58 0,0 14.326,8.233 17.863,10 3.536,1.769 2.844,0.751 1.393,-0.065"
         id="path80" />
    </clipPath>
    <clipPath
       id="clipPath81">
      <path
         d="m 2097.75,2021.21 c 6.436,0 11.12,-2.984 11.164,-6.165 l -11.438,-6.259 c -6.327,0.083 -10.891,3.057 -10.891,6.211 0,3.199 4.696,6.213 11.165,6.213"
         id="path81" />
    </clipPath>
    <clipPath
       id="clipPath82">
      <path
         d="m 2198.64,1818.36 c -1.756,-0.982 -32.392,-20.726 -38.951,-22.894 -4.088,-1.352 -0.848,1.865 2.157,3.52 1.816,1 3.555,1.895 3.555,1.895 0,0 27.318,16.748 31.594,18.865 4.276,2.118 3.402,-0.405 1.646,-1.386"
         id="path82" />
    </clipPath>
    <clipPath
       id="clipPath83">
      <path
         d="m 2047.95,2199.07 c 6.873,-5.977 11.251,-9.398 19.19,-14.547 7.936,-5.148 20.319,-8.04 23.681,-8.498 3.362,-0.462 25.506,-14.203 32.992,-21.661 7.486,-7.458 20.278,-11.403 25.67,-17.994 5.392,-6.591 0.927,-2.839 6.811,-3.542 5.885,-0.703 6.398,-12.263 6.398,-12.263 l -0.231,-1.681 c 0,0 -45.32,23.564 -50.11,27.411 -4.794,3.847 -41.18,23.23 -44.505,26.853 -3.324,3.619 -20.265,12.455 -21.707,14.999 -1.442,2.543 -0.475,12.845 -0.475,12.845 l 2.292,-1.922"
         id="path83" />
    </clipPath>
    <clipPath
       id="clipPath84">
      <path
         d="m 2095.34,2159.47 c -2.568,-0.229 -11.321,4.322 -5.377,5.693 2.455,0.566 6.824,-5.564 5.377,-5.693"
         id="path84" />
    </clipPath>
    <clipPath
       id="clipPath85">
      <path
         d="m 2147.34,2129.72 c -2.568,-0.229 -11.321,4.322 -5.377,5.693 2.455,0.566 6.824,-5.564 5.377,-5.693"
         id="path85" />
    </clipPath>
    <clipPath
       id="clipPath86">
      <path
         d="m 2072.09,2173.72 c -2.568,-0.229 -11.321,4.322 -5.377,5.693 2.455,0.566 6.824,-5.564 5.377,-5.693"
         id="path86" />
    </clipPath>
    <clipPath
       id="clipPath87">
      <path
         d="m 2127.04,2008.76 c 2.057,0.81 2.662,-1.682 2.662,-1.682 0,0 -10.588,-5.634 -14.659,-7.525 -3.12,-1.438 -7.402,-3.377 -8.643,-3.818 -3.33,-1.185 0.06,2.745 1.422,3.312 0.768,0.319 4.884,2.401 7.466,3.512 l -0.014,-0.133 c 1.46,0.549 10.412,5.801 11.766,6.334"
         id="path87" />
    </clipPath>
    <clipPath
       id="clipPath88">
      <path
         d="m 1990.8,2030.78 c 2.53,-0.226 11.153,4.258 5.297,5.609 -2.419,0.558 -6.723,-5.482 -5.297,-5.609"
         id="path88" />
    </clipPath>
    <clipPath
       id="clipPath89">
      <path
         d="m 2077.52,1996.06 c -1.415,0.817 -2.09,1.835 1.358,0.065 3.448,-1.769 17.419,-10 17.419,-10 0,0 1.401,-0.747 2.865,-1.58 2.421,-1.378 5.01,-2.99 1.705,-1.841 -5.305,1.843 -21.932,12.54 -23.347,13.357"
         id="path89" />
    </clipPath>
    <clipPath
       id="clipPath90">
      <path
         d="m 1967.89,2016.74 c 2.53,-0.226 11.153,4.258 5.297,5.609 -2.419,0.558 -6.723,-5.482 -5.297,-5.609"
         id="path90" />
    </clipPath>
    <clipPath
       id="clipPath91">
      <path
         d="m 2014.58,2055.75 c -6.771,-5.889 -11.09,-9.26 -18.903,-14.332 -7.818,-5.072 -20.02,-7.917 -23.331,-8.372 -3.312,-0.455 -25.13,-13.994 -32.504,-21.342 -7.376,-7.348 -19.978,-11.235 -25.29,-17.728 -5.313,-6.494 -0.913,-2.797 -6.711,-3.49 -5.798,-0.693 -6.304,-12.08 -6.304,-12.08 l 0.228,-1.656 c 0,0 44.649,23.22 49.37,27.01 4.723,3.79 40.573,22.892 43.847,26.457 3.274,3.565 19.965,12.272 21.386,14.777 1.421,2.506 0.468,12.656 0.468,12.656 l -2.258,-1.894"
         id="path91" />
    </clipPath>
    <clipPath
       id="clipPath92">
      <path
         d="m 1916.66,1987.43 c 2.53,-0.226 11.153,4.258 5.297,5.609 -2.419,0.558 -6.723,-5.482 -5.297,-5.609"
         id="path92" />
    </clipPath>
    <clipPath
       id="clipPath93">
      <path
         d="m 1848.48,2090.74 c 1.513,-0.799 30.26,-17.758 35.697,-19.241 3.386,-0.924 2.208,1.298 -0.377,2.64 -1.562,0.811 -3.048,1.525 -3.048,1.525 0,0 -25.729,14.305 -29.372,15.977 -3.643,1.672 -4.413,-0.103 -2.9,-0.902"
         id="path93" />
    </clipPath>
    <clipPath
       id="clipPath94">
      <path
         d="m 2108.44,1964.54 c -1.225,-0.109 -5.401,2.062 -2.565,2.716 1.171,0.27 3.256,-2.655 2.565,-2.716"
         id="path94" />
    </clipPath>
    <clipPath
       id="clipPath95">
      <path
         d="m 1969.95,2154.71 c 1.513,-0.799 30.26,-17.758 35.697,-19.241 3.386,-0.924 2.208,1.298 -0.377,2.64 -1.562,0.811 -3.048,1.526 -3.048,1.526 0,0 -25.729,14.305 -29.372,15.977 -3.643,1.672 -4.413,-0.103 -2.9,-0.902"
         id="path95" />
    </clipPath>
    <clipPath
       id="clipPath96">
      <path
         d="m 2075.81,1983.38 c -1.225,-0.109 -5.401,2.062 -2.565,2.716 1.171,0.27 3.256,-2.655 2.565,-2.716"
         id="path96" />
    </clipPath>
    <clipPath
       id="clipPath97">
      <path
         d="m 2147.13,1976.31 c -0.037,-0.169 -0.067,-0.408 -0.293,-0.278 -0.111,0.073 -21.18,-12.178 -27.601,-15.857 0.031,1.498 0.072,4.675 0.072,5.382 0,1.533 -0.407,3.193 -1.104,4.774 -0.301,0.775 -0.718,1.518 -1.203,2.219 -0.803,1.231 -1.773,2.336 -2.838,3.189 -0.999,0.93 -2.097,1.823 -3.198,2.666 -0.934,0.715 -5.797,4.689 -6.301,5.561 -1.119,1.938 0.658,10.87 -4.02,14.203 -3.758,2.675 -7.134,4.873 -10.168,6.666 l 29.645,15.02 c 3.103,-1.887 6.27,-3.973 9.245,-6.091 1.517,-1.08 1.832,-2.326 1.883,-4.055 0.089,-3.02 0.582,-9.745 2.567,-11.345 2.972,-2.397 5.995,-4.183 8.904,-6.9 0.864,-0.686 1.656,-1.567 2.332,-2.607 0.384,-0.552 0.703,-1.14 0.898,-1.65 0.557,-1.255 0.899,-2.612 0.899,-3.833 0,-0.376 0.332,-5.113 0.285,-7.06"
         id="path97" />
    </clipPath>
    <clipPath
       id="clipPath98">
      <path
         d="m 2010.55,2092.51 c 1.233,0.712 1.947,2.286 0.236,1.877 l -56.33,-32.17 c -5.655,-3.243 -12.664,-7.373 -12.664,-7.373 0,0 -1.518,-0.809 -3.103,-1.711 -2.623,-1.492 -5.429,-4.354 -1.847,-3.109 5.747,1.996 72.18,41.599 73.71,42.484"
         id="path98" />
    </clipPath>
    <clipPath
       id="clipPath99">
      <path
         d="m 2117.83,1960.29 c -0.037,-0.169 -0.067,-0.408 -0.293,-0.278 -0.131,0.086 -16.836,9.714 -16.836,9.714 l -35.512,20.504 c -0.068,0.047 -0.117,0.074 -0.166,0.102 -0.142,0.082 -0.258,0.282 -0.258,0.447 0,0.115 0.01,5.297 0.443,8.607 0.07,0.531 0.017,2.281 0.255,4.223 l 30.17,17.466 12.631,-6.958 -18.798,-10.241 c 3.215,-1.856 6.867,-4.206 11.01,-7.158 1.517,-1.08 1.832,-2.326 1.883,-4.055 0.089,-3.02 0.727,-9.468 2.567,-11.345 2.672,-2.727 5.995,-4.183 8.904,-6.9 0.864,-0.686 1.656,-1.567 2.332,-2.607 0.384,-0.552 0.703,-1.14 0.898,-1.651 0.557,-1.255 0.899,-2.612 0.899,-3.833 0,-0.376 -0.09,-4.086 -0.138,-6.04"
         id="path99" />
    </clipPath>
  </defs>
  <circle
     style="fill:#55b5ce;fill-opacity:1;stroke-width:4.58946"
     id="path107"
     cx="57.9366"
     cy="57.9366"
     r="57.9366" />
  <g
     transform="matrix(1.1511055,0,0,1.1511055,29.445621,-1110.2765)"
     id="g107">
    <path
       d="m 46.545,1034.52 0.902,8.721 -6.917,6.616 H 13.163 l -9.323,-3.91 -1.804,-8.721 6.917,-11.428 c 17.638,11.336 25.904,-5.67 37.592,8.721"
       fill="#ffdb00"
       id="path100" />
    <path
       d="m 16.998,997.89 v 19 l -12.737,15.464 c -2.098,2.547 -2.717,6.185 -1.864,9.379 0.047,0.175 0.095,0.349 0.151,0.521 0.042,0.13 0.086,0.26 0.133,0.388 0.015,0.042 0.031,0.085 0.046,0.127 0.054,0.141 0.108,0.279 0.168,0.417 1.604,3.822 5.319,6.563 9.715,6.803 l 0.006,0.01 h 0.046 c 0.191,0.01 0.386,0.011 0.579,0.011 0.193,0 0.382,0 0.573,-0.011 h 6.369 9.136 6.369 c 0.191,0.01 0.38,0.011 0.573,0.011 0.193,0 0.388,0 0.579,-0.011 h 0.046 l 0.006,-0.01 c 4.396,-0.24 8.111,-2.981 9.715,-6.803 0.06,-0.138 0.114,-0.276 0.168,-0.417 0.016,-0.042 0.031,-0.085 0.046,-0.127 0.047,-0.128 0.091,-0.258 0.133,-0.388 0.056,-0.172 0.104,-0.346 0.151,-0.521 0.853,-3.195 0.234,-6.832 -1.864,-9.379 L 32.504,1016.89 v -19 H 29.32 20.184 17 Z"
       fill="none"
       stroke="#262626"
       stroke-width="3.705"
       id="path101" />
    <path
       fill="#262626"
       color="#000000"
       d="m 12.699,995.11 h 24.1 v 3.554 h -24.1 z"
       id="path102" />
    <path
       d="m 31.03,980.33 c -1.23,0 -2.219,0.989 -2.219,2.219 0,1.23 0.989,2.25 2.219,2.25 1.23,0 2.25,-1.02 2.25,-2.25 0,-1.23 -1.02,-2.219 -2.25,-2.219 m -6.437,5.656 c -2.324,0 -4.219,1.864 -4.219,4.188 0,2.324 1.895,4.219 4.219,4.219 2.324,0 4.188,-1.895 4.188,-4.219 0,-2.324 -1.864,-4.188 -4.188,-4.188 m 4.844,40.531 c -1.977,0 -3.594,1.585 -3.594,3.563 0,1.977 1.617,3.594 3.594,3.594 1.977,0 3.562,-1.617 3.562,-3.594 0,-1.977 -1.585,-3.563 -3.563,-3.563 m 5.531,10.875 c -1.056,0 -1.906,0.85 -1.906,1.906 0,1.056 0.85,1.906 1.906,1.906 1.056,0 1.938,-0.85 1.938,-1.906 0,-1.056 -0.881,-1.906 -1.938,-1.906"
       fill="#f2b827"
       id="path103" />
    <g
       transform="translate(-12.75)"
       fill="#fef47d"
       id="g106">
      <use
         transform="matrix(0.35968,0,0,0.35968,-127.77,955.5)"
         xlink:href="#0"
         id="use103" />
      <use
         transform="matrix(0.56521,0,0,0.56521,-224.03,924.55)"
         xlink:href="#0"
         id="use104" />
      <use
         transform="matrix(-0.56521,0,0,-0.56521,288,1129.99)"
         xlink:href="#0"
         id="use105" />
      <use
         transform="matrix(-0.44047,0,0,0.44047,228.33,892.54)"
         xlink:href="#0"
         id="use106" />
    </g>
  </g>
</svg>
