<?xml version="1.0" encoding="utf-8"?>
<!-- Generator: Adobe Illustrator 22.1.0, SVG Export Plug-In . SVG Version: 6.00 Build 0)  -->
<svg version="1.1" id="Calque_3" xmlns="http://www.w3.org/2000/svg" xmlns:xlink="http://www.w3.org/1999/xlink" x="0px" y="0px"
	 viewBox="0 0 128 128" style="enable-background:new 0 0 128 128;" xml:space="preserve">
<style type="text/css">
	.st0{fill:none;}
	.st1{fill:#572A2D;}
	.st2{display:none;}
	.st3{display:inline;fill:url(#SVGID_1_);}
	.st4{display:inline;fill:#1B681F;}
	.st5{display:inline;fill:#114F12;}
	.st6{display:inline;fill:#1E7224;}
	.st7{display:inline;fill:#2B892F;}
	.st8{display:inline;fill:#33322D;}
	.st9{display:inline;fill:#2A912F;}
	.st10{fill:#4EBAD3;}
	.st11{fill:#00582B;}
	.st12{fill:#009245;}
	.st13{fill:url(#SVGID_2_);}
	.st14{fill-rule:evenodd;clip-rule:evenodd;fill:#633D36;}
	.st15{fill-rule:evenodd;clip-rule:evenodd;fill:#D1DFDB;}
	.st16{fill-rule:evenodd;clip-rule:evenodd;fill:#BFC3C6;}
	.st17{fill-rule:evenodd;clip-rule:evenodd;fill:#DADADA;}
	.st18{fill-rule:evenodd;clip-rule:evenodd;fill:#090204;}
	.st19{fill-rule:evenodd;clip-rule:evenodd;fill:#C1272D;}
	.st20{fill-rule:evenodd;clip-rule:evenodd;fill:#B2B2B2;}
	.st21{fill-rule:evenodd;clip-rule:evenodd;fill:#1D1D1B;}
	.st22{fill-rule:evenodd;clip-rule:evenodd;fill:#D9E5EC;}
	.st23{fill:none;stroke:#000000;stroke-width:0.25;stroke-miterlimit:10;}
</style>
<pattern  y="128" width="32.2" height="34.5" patternUnits="userSpaceOnUse" id="SVGID_5_" viewBox="0 -34.5 32.2 34.5" style="overflow:visible;">
	<g>
		<rect y="-34.5" class="st0" width="32.2" height="34.5"/>
		<g>
			<rect y="-34.5" class="st0" width="32.2" height="34.5"/>
			<g>
				<rect y="-34.5" class="st0" width="32.2" height="34.5"/>
				<g>
					<rect y="-34.5" class="st0" width="32.2" height="34.5"/>
					<rect y="-34.5" class="st1" width="32.2" height="34.5"/>
				</g>
			</g>
		</g>
	</g>
</pattern>
<g>
	<g>
		<g>
			<g>
				<g class="st2">
					<pattern  id="SVGID_1_" xlink:href="#SVGID_5_" patternTransform="matrix(1.7808 0 0 -1.6549 12481.9463 -26075.9785)">
					</pattern>
					<path class="st3" d="M11.1,68.1L11,68.2H3.9c-0.1,0-0.1,0-0.1-0.1L2.7,59c0-0.1,0-0.1,0.1-0.1H12c0.1,0,0.1,0.1,0.1,0.1
						L11.1,68.1z"/>
					<path class="st4" d="M4.8,40.6c-0.8-3.3-0.6-7.5,0.9-7.8c1.4-0.3,3.6,3.5,4.4,6.7c0.8,3.3-0.1,4.8-1.5,5.1
						C7.1,44.9,5.6,43.8,4.8,40.6z"/>
					<path class="st5" d="M8.5,58.7L8.5,58.7c-0.1,0-0.2-0.1-0.2-0.3c0.8-3.6,1.1-7.4,0.8-11.1c-0.3-3.8-1.2-7.4-2.7-10.9
						c0-0.1,0-0.2,0.1-0.3c0.1,0,0.3,0,0.3,0.1c1.5,3.5,2.4,7.2,2.7,11s0.1,7.6-0.8,11.3C8.7,58.6,8.6,58.7,8.5,58.7z"/>
					<path class="st6" d="M0.1,41.3c-1.4-3.1-2-7.3-0.7-7.8C0.8,33,3.6,36.3,5,39.4c1.4,3.1,0.8,4.7-0.5,5.2
						C3.1,45.2,1.5,44.4,0.1,41.3z"/>
					<path class="st6" d="M-0.1,48.5c-1.8-2.1-3.2-5.2-2.3-5.9s3.9,1.3,5.6,3.4C5,48.1,5,49.5,4,50.1C3.1,50.8,1.7,50.5-0.1,48.5z"
						/>
					<path class="st6" d="M16.9,48.5c2.2-1.9,4.2-4.9,3.4-5.8c-0.8-0.8-4.2,0.8-6.4,2.7s-2.4,3.3-1.5,4.2
						C13.1,50.4,14.7,50.4,16.9,48.5z"/>
					<path class="st7" d="M12.7,42.4c1-3.2,1.2-7.5-0.3-7.8C11,34.2,8.6,37.8,7.5,41c-1,3.2-0.3,4.8,1.1,5.2
						C10.1,46.5,11.7,45.6,12.7,42.4z"/>
					<path class="st5" d="M8.9,58.7L8.9,58.7c-0.1,0-0.2-0.1-0.2-0.2c0.2-2.7,1.1-5.4,2.6-7.9c1.5-2.4,3.6-4.5,6-6
						c0.1-0.1,0.2,0,0.3,0.1c0.1,0.1,0,0.2-0.1,0.3c-2.4,1.5-4.4,3.5-5.9,5.9s-2.4,5-2.6,7.7C9.1,58.7,9,58.7,8.9,58.7z"/>
					<path class="st5" d="M7.1,58.5L7.1,58.5c-0.1,0-0.2-0.1-0.2-0.2c0.1-3.7-0.3-7.5-1.4-11.1c-1-3.6-2.7-7.1-4.8-10.2
						c-0.1-0.1,0-0.2,0.1-0.3s0.2,0,0.3,0.1c2.1,3.2,3.8,6.7,4.8,10.4c1.1,3.7,1.5,7.5,1.4,11.2C7.4,58.4,7.3,58.5,7.1,58.5z"/>
					<path class="st5" d="M7.7,58.6L7.7,58.6c-0.1,0-0.2-0.1-0.2-0.2l0.9-9.2c0.3-3.2,0.6-6.5,1.8-9.7c0-0.1,0.2-0.2,0.3-0.1
						c0.1,0,0.2,0.2,0.1,0.3c-1.1,3.1-1.5,6.4-1.8,9.5l-0.9,9.2C7.9,58.5,7.8,58.6,7.7,58.6z"/>
					<path class="st5" d="M6.9,58.8c-0.1,0-0.2-0.1-0.2-0.2c-0.3-4.7-2.6-9.2-6.2-12.5c-0.1-0.1-0.1-0.2,0-0.3s0.2-0.1,0.3,0
						c3.7,3.3,6,8,6.3,12.8C7.1,58.7,7,58.8,6.9,58.8L6.9,58.8z"/>
					<path class="st8" d="M12.4,59.2c0,0.1-0.1,0.1-0.1,0.1H2.6c-0.1,0-0.1,0-0.1-0.1v-1.5c0-0.1,0.1-0.1,0.1-0.1h9.7
						c0.1,0,0.1,0,0.1,0.1V59.2z"/>
					<path class="st9" d="M-2,53.3c-1,2.5-1.3,5.9,0.1,6.4s3.7-2.2,4.7-4.7C3.8,52.6-0.9,50.8-2,53.3z"/>
					<path class="st4" d="M-1.4,57.5l0.1-0.4c0.5-1.4,0.9-2.4,1.3-3.2c0.5-0.9,0.9-1.4,1.4-1.6c0.5-0.2,1-0.1,1.7,0.2
						C4.2,53,5,54,5.5,55.4C5.8,56,6,56.8,6,57.6H5.6c-0.2-1.8-1-4-2.7-4.8c-0.6-0.2-1-0.3-1.3-0.1c-0.9,0.4-1.5,1.9-2.5,4.6
						L-1,57.6c0,0.1-0.2,0.2-0.3,0.1C-1.4,57.7-1.5,57.6-1.4,57.5z"/>
				</g>
			</g>
		</g>
	</g>
</g>
<g>
	<path class="st10" d="M128,64c0,35.3-28.6,64-64,64C28.6,128,0,99.3,0,64C0,28.6,28.6,0,64,0C99.3,0,128,28.6,128,64z"/>
	<g>
		<g id="XMLID_22_">
			<g id="XMLID_45_">
				<path id="XMLID_51_" class="st11" d="M16.3,93.4c0,0,4,0.2,5.1,3.6h-1C20.3,97,19,94.2,16.3,93.4z"/>
				<path id="XMLID_50_" class="st11" d="M16.9,88.5c0,0,3.7,2.3,3.8,8.5H22C22,97,21.7,90.8,16.9,88.5z"/>
				<path id="XMLID_49_" class="st11" d="M17.5,91.1c0,0,3.8,1.4,4.5,5.9h-1.1C20.9,97,20.9,93.4,17.5,91.1z"/>
				<path id="XMLID_48_" class="st11" d="M28,89.6c0,0-5.4,0.9-5.3,7.4h-1.5C21.2,97,21.1,90.2,28,89.6z"/>
				<path id="XMLID_47_" class="st11" d="M21.9,97h1.5c0,0-1-4.8,1.3-8.7C24.7,88.3,21.4,92.1,21.9,97z"/>
				<path id="XMLID_46_" class="st11" d="M27.4,91.5c0,0-3.8,2.5-3.4,5.5h-1.5C22.5,97,22.1,93.7,27.4,91.5z"/>
			</g>
			<g id="XMLID_38_">
				<path id="XMLID_44_" class="st11" d="M30.6,93.4c0,0-4,0.2-5.1,3.6h1C26.5,97,27.9,94.2,30.6,93.4z"/>
				<path id="XMLID_43_" class="st11" d="M30,88.5c0,0-3.7,2.3-3.8,8.5h-1.3C24.9,97,25.2,90.8,30,88.5z"/>
				<path id="XMLID_42_" class="st11" d="M29.4,91.1c0,0-3.8,1.4-4.5,5.9h1.1C25.9,97,25.9,93.4,29.4,91.1z"/>
				<path id="XMLID_41_" class="st11" d="M18.8,89.6c0,0,5.4,0.9,5.3,7.4h1.5C25.6,97,25.8,90.2,18.8,89.6z"/>
				<path id="XMLID_40_" class="st12" d="M25,97h-1.5c0,0,1-4.8-1.3-8.7C22.1,88.3,25.4,92.1,25,97z"/>
				<path id="XMLID_39_" class="st11" d="M19.4,91.5c0,0,3.8,2.5,3.4,5.5h1.5C24.4,97,24.7,93.7,19.4,91.5z"/>
			</g>
		</g>
	</g>
	<g>
		<g id="XMLID_4_">
			<g id="XMLID_10_">
				<path id="XMLID_16_" class="st12" d="M10.6,93.4c0,0,4,0.2,5.1,3.6h-1C14.7,97,13.4,94.2,10.6,93.4z"/>
				<path id="XMLID_14_" class="st12" d="M11.8,91.1c0,0,3.8,1.4,4.5,5.9h-1.1C15.3,97,15.3,93.4,11.8,91.1z"/>
				<path id="XMLID_11_" class="st12" d="M21.8,91.5c0,0-3.8,2.5-3.4,5.5h-1.5C16.9,97,16.5,93.7,21.8,91.5z"/>
			</g>
			<g id="XMLID_6_">
				<path id="XMLID_8_" class="st12" d="M13.2,89.6c0,0,5.4,0.9,5.3,7.4H20C20,97,20.1,90.2,13.2,89.6z"/>
				<path id="XMLID_7_" class="st11" d="M13.8,91.5c0,0,3.8,2.5,3.4,5.5h1.5C18.7,97,19.1,93.7,13.8,91.5z"/>
			</g>
		</g>
		<path id="XMLID_2_" class="st12" d="M13.2,97.1c-0.2,0-0.4,0-0.6,0c-0.2,0-0.3,0-0.4,0c-0.1,0-0.1,0-0.1,0s0,0,0.1,0
			c0.1,0,0.2,0,0.4,0c0.2,0,0.3,0,0.6,0c0.2,0,0.5,0,0.7,0c0.1,0,0.3,0,0.4,0c0.1,0,0.3,0,0.4,0c0.3,0,0.6,0,0.9,0
			c0.2,0,0.3,0,0.5,0c0.2,0,0.3,0,0.5,0c0.3,0,0.7,0,1,0c0.4,0,0.7,0,1,0c0.2,0,0.3,0,0.5,0c0.2,0,0.3,0,0.5,0c0.3,0,0.6,0,0.9,0
			c0.2,0,0.3,0,0.4,0c0.1,0,0.3,0,0.4,0c0.3,0,0.5,0,0.7,0c0.2,0,0.4,0,0.6,0c0.2,0,0.3,0,0.4,0c0.1,0,3.8,0,3.8,0s-3.7,0-3.8,0
			c-0.1,0,3.5,0,3.3,0c-0.2,0-0.3,0-0.6,0"/>
	</g>
	<g>
		<linearGradient id="SVGID_2_" gradientUnits="userSpaceOnUse" x1="130.777" y1="90.4047" x2="20.436" y2="47.9321">
			<stop  offset="0" style="stop-color:#2A717E;stop-opacity:0"/>
			<stop  offset="1" style="stop-color:#0071BC"/>
		</linearGradient>
		<path class="st13" d="M31.8,96.4l63.4,23.4c26.4-14.4,34.4-43.1,32.4-62.3c-0.4-4.3-1.3-8.4-2.6-12.4L96.9,33.3l-5.6,1.3
			l-0.6,27.9L31.8,96.4z"/>
	</g>
	<g>
		<g>
			<polygon class="st14" points="66.6,95.3 66.9,95.3 89.6,95.3 92,87.1 85.6,78.8 70.7,84.8 			"/>
			<path class="st15" d="M41.3,72h15.3h6.7l7-5.1l6.4,3.3l2.5,1.2c0,0-7.8,6.8-14.3,10c-6.4,3.2-19.1,3.6-28.2,1.1
				C38.1,79.4,39.9,75.2,41.3,72z"/>
			<path class="st16" d="M31,89l-1-4.7c0,0,11.7-7.8,21.8-9c10.1-1.2,20.4,2,20.4,2S64.7,83.9,54,87.8C43.4,91.7,35,90.7,31,89z"/>
			<path class="st17" d="M32.1,87c0,0,12.9-7.3,24-7.4c11.1-0.1,15.6,3.4,15.6,3.4l-2.5,0.5c0,0-8.2-4.9-19.4-2.7
				C38.8,83,33,87,33,87L32.1,87z"/>
			<path class="st15" d="M91.4,92.7l13.4-2.6l2.5-26L75.8,76.8l3.4,5.9c7.2-3.2,9.6,1.7,9.6,1.7L91.4,92.7z"/>
			<path class="st14" d="M28.4,95.1c0,0-2.1-7.9,4.8-10.2c6.9-2.3,12.4,4.1,13.9,6.5c1.5,2.4,2.3,4.7,2.3,4.7S37.3,96.7,28.4,95.1z"
				/>
			<path class="st16" d="M90.7,62.5l1.3-16.8l0,0l0.4-8.3l0,0c0,0,0-3.1,2.2-3.2c3-0.1,4.3,0,4.4,0c0.4,0,0.8-0.3,0.8-0.8
				c0-0.4-0.3-0.8-0.8-0.8c0,0-1.4-0.1-4.5,0c-3.6,0.1-3.8,4.3-3.8,4.8l0,0l-0.4,8.3l0,0l-1.2,16l0,0l0,0L47.9,94
				c-0.3,0.3-0.4,0.8-0.1,1.1c0.3,0.3,0.8,0.4,1.1,0.1L90.7,62.5L90.7,62.5"/>
			<path class="st18" d="M90.8,58.8c-0.3-3.8,1.8-20,1.8-20l0.6,0.1c0,0-2,13.5-1.8,19.9c0,0.8-0.9,1.3-1.6,1.9
				c-0.7,0.6-0.5,0.4-2.9,2.4c-5.3,4.4-11.5,9.5-13.3,11c-2.9,2.5-4.9,4.8-4.9,4.8l-0.5-0.4c0,0,2-2.3,5-4.8c1.8-1.5,8-6.6,13.3-11
				c3.7-3,1.8-1.5,2.9-2.4C89.4,60.2,90.6,59.3,90.8,58.8z"/>
			
				<rect x="85" y="63.3" transform="matrix(0.7914 -0.6114 0.6114 0.7914 -21.8457 65.8897)" class="st18" width="1.2" height="3.2"/>
			
				<rect x="90.2" y="50.7" transform="matrix(5.554429e-02 -0.9985 0.9985 5.554429e-02 33.5842 140.0578)" class="st18" width="1.2" height="3.2"/>
			<path class="st19" d="M77.4,75.2c0,0,7.1-7.3,17.1-11c10-3.7,14.6-2.5,14.6-2.5l-0.2,3.7L79.6,77.8L77.4,75.2z"/>
			<path class="st20" d="M83.9,77.2l20.4-6.3l-0.1,0.9l-20,6.2L83.9,77.2L83.9,77.2z M92.7,89.4l10.3-3.2l-0.1,0.9l-10,3.1
				L92.7,89.4L92.7,89.4z M92.2,87.9l0.2,0.8l10.6-3.3l0.1-0.9L92.2,87.9L92.2,87.9z M91.8,86.4l0.2,0.8l11.2-3.5l0.1-0.9L91.8,86.4
				L91.8,86.4z M91.3,84.9l12.1-3.8l-0.1,0.9l-11.8,3.7L91.3,84.9L91.3,84.9z M90.8,83.4l12.8-4l-0.1,0.9l-12.4,3.9l-0.2-0.6
				C90.9,83.5,90.8,83.4,90.8,83.4L90.8,83.4z M89.8,82c0.2,0.2,0.4,0.5,0.6,0.7l13.3-4.1l0.1-0.9L89.8,82L89.8,82z M88.3,80.8
				c0.3,0.2,0.6,0.4,0.8,0.6l14.7-4.6l0.1-0.9L88.3,80.8L88.3,80.8z M86.1,79.8c0.4,0.1,0.8,0.3,1.2,0.5l16.6-5.2l0.1-0.9L86.1,79.8
				L86.1,79.8z M84.6,78.7l0.3,0.7l19.3-6l0.1-0.9L84.6,78.7z"/>
			<g>
				
					<ellipse transform="matrix(0.9867 -0.1627 0.1627 0.9867 -13.8921 14.4778)" class="st21" cx="81.5" cy="92.1" rx="7.4" ry="7.4"/>
				
					<ellipse transform="matrix(0.6384 -0.7697 0.7697 0.6384 -41.4133 95.996)" class="st22" cx="81.5" cy="92.1" rx="6.4" ry="6.4"/>
			</g>
			<path class="st19" d="M40.5,90.2V97h28.6c1.3-5.8,2.7-10.7,9.8-14.1c2-1,3.6-1.3,5-1.3c-0.4-1,0.9,1.4-1.4-2.8
				c-2.3-4.2-4-7.8-5-7.2c-1,0.6-10,7.6-19.7,12.9C48,89.9,40.5,90.2,40.5,90.2z"/>
			<g>
				
					<ellipse transform="matrix(0.6937 -0.7203 0.7203 0.6937 -57.2918 51.7033)" class="st21" cx="32.1" cy="93.2" rx="6.3" ry="6.3"/>
				
					<ellipse transform="matrix(0.7733 -0.634 0.634 0.7733 -51.8081 41.5031)" class="st22" cx="32.1" cy="93.2" rx="5.4" ry="5.4"/>
			</g>
			<g>
				<path class="st19" d="M90.7,38.7c0,0,4.7,0.1,6.6,0.8c1.9,0.6,3.8,2.6,2.1,5.3c-1.7,2.6-9,2-9.6,1.9
					C89.2,46.4,89.6,39.3,90.7,38.7z"/>
			</g>
		</g>
		<line class="st23" x1="73.1" y1="80.5" x2="107.3" y2="66.3"/>
	</g>
</g>
</svg>
