<?xml version="1.0" encoding="utf-8"?>
<!-- Generator: Adobe Illustrator 22.1.0, SVG Export Plug-In . SVG Version: 6.00 Build 0)  -->
<svg version="1.1" id="Calque_3" xmlns="http://www.w3.org/2000/svg" xmlns:xlink="http://www.w3.org/1999/xlink" x="0px" y="0px"
	 viewBox="0 0 128 128" style="enable-background:new 0 0 128 128;" xml:space="preserve">
<style type="text/css">
	.st0{fill:none;}
	.st1{fill:#572A2D;}
	.st2{display:none;}
	.st3{display:inline;fill:url(#SVGID_1_);}
	.st4{display:inline;fill:#1B681F;}
	.st5{display:inline;fill:#114F12;}
	.st6{display:inline;fill:#1E7224;}
	.st7{display:inline;fill:#2B892F;}
	.st8{display:inline;fill:#33322D;}
	.st9{display:inline;fill:#2A912F;}
	.st10{fill:#184655;}
	.st11{fill:url(#SVGID_2_);}
	.st12{fill:url(#SVGID_3_);}
	.st13{fill:url(#SVGID_4_);}
	.st14{display:none;fill:#666666;}
	.st15{fill:#FFFFFF;}
	.st16{display:none;fill:url(#SVGID_6_);}
	.st17{fill:#4D4D4D;}
	.st18{fill:url(#SVGID_7_);}
	.st19{fill:#1A1A1A;}
	.st20{opacity:0;fill:#FFFFFF;}
	.st21{opacity:1.298701e-02;fill:#FEFEFE;}
	.st22{opacity:2.597403e-02;fill:#FDFDFD;}
	.st23{opacity:3.896104e-02;fill:#FCFCFC;}
	.st24{opacity:5.194805e-02;fill:#FBFBFB;}
	.st25{opacity:6.493507e-02;fill:#FAFAFA;}
	.st26{opacity:7.792208e-02;fill:#F9F9F9;}
	.st27{opacity:9.090909e-02;fill:#F8F8F8;}
	.st28{opacity:0.1039;fill:#F7F7F7;}
	.st29{opacity:0.1169;fill:#F6F6F6;}
	.st30{opacity:0.1299;fill:#F5F5F5;}
	.st31{opacity:0.1429;fill:#F4F4F4;}
	.st32{opacity:0.1558;fill:#F3F3F3;}
	.st33{opacity:0.1688;fill:#F2F2F2;}
	.st34{opacity:0.1818;fill:#F1F1F1;}
	.st35{opacity:0.1948;fill:#F0F0F0;}
	.st36{opacity:0.2078;fill:#EFEFEF;}
	.st37{opacity:0.2208;fill:#EEEEEE;}
	.st38{opacity:0.2338;fill:#EDEDED;}
	.st39{opacity:0.2468;fill:#ECECEC;}
	.st40{opacity:0.2597;fill:#EBEBEB;}
	.st41{opacity:0.2727;fill:#EAEAEA;}
	.st42{opacity:0.2857;fill:#E9E9E9;}
	.st43{opacity:0.2987;fill:#E8E8E8;}
	.st44{opacity:0.3117;fill:#E7E7E7;}
	.st45{opacity:0.3247;fill:#E6E6E6;}
	.st46{opacity:0.3377;fill:#E5E5E5;}
	.st47{opacity:0.3506;fill:#E4E4E4;}
	.st48{opacity:0.3636;fill:#E3E3E3;}
	.st49{opacity:0.3766;fill:#E2E2E2;}
	.st50{opacity:0.3896;fill:#E1E1E1;}
	.st51{opacity:0.4026;fill:#E0E0E0;}
	.st52{opacity:0.4156;fill:#DFDFDF;}
	.st53{opacity:0.4286;fill:#DEDEDE;}
	.st54{opacity:0.4416;fill:#DDDDDD;}
	.st55{opacity:0.4545;fill:#DCDCDC;}
	.st56{opacity:0.4675;fill:#DBDBDB;}
	.st57{opacity:0.4805;fill:#DADADA;}
	.st58{opacity:0.4935;fill:#D9D9D9;}
	.st59{opacity:0.5065;fill:#D9D9D9;}
	.st60{opacity:0.5195;fill:#D8D8D8;}
	.st61{opacity:0.5325;fill:#D7D7D7;}
	.st62{opacity:0.5455;fill:#D6D6D6;}
	.st63{opacity:0.5584;fill:#D5D5D5;}
	.st64{opacity:0.5714;fill:#D4D4D4;}
	.st65{opacity:0.5844;fill:#D3D3D3;}
	.st66{opacity:0.5974;fill:#D2D2D2;}
	.st67{opacity:0.6104;fill:#D1D1D1;}
	.st68{opacity:0.6234;fill:#D0D0D0;}
	.st69{opacity:0.6364;fill:#CFCFCF;}
	.st70{opacity:0.6494;fill:#CECECE;}
	.st71{opacity:0.6623;fill:#CDCDCD;}
	.st72{opacity:0.6753;fill:#CCCCCC;}
	.st73{opacity:0.6883;fill:#CBCBCB;}
	.st74{opacity:0.7013;fill:#CACACA;}
	.st75{opacity:0.7143;fill:#C9C9C9;}
	.st76{opacity:0.7273;fill:#C8C8C8;}
	.st77{opacity:0.7403;fill:#C7C7C7;}
	.st78{opacity:0.7532;fill:#C6C6C6;}
	.st79{opacity:0.7662;fill:#C5C5C5;}
	.st80{opacity:0.7792;fill:#C4C4C4;}
	.st81{opacity:0.7922;fill:#C3C3C3;}
	.st82{opacity:0.8052;fill:#C2C2C2;}
	.st83{opacity:0.8182;fill:#C1C1C1;}
	.st84{opacity:0.8312;fill:#C0C0C0;}
	.st85{opacity:0.8442;fill:#BFBFBF;}
	.st86{opacity:0.8571;fill:#BEBEBE;}
	.st87{opacity:0.8701;fill:#BDBDBD;}
	.st88{opacity:0.8831;fill:#BCBCBC;}
	.st89{opacity:0.8961;fill:#BBBBBB;}
	.st90{opacity:0.9091;fill:#BABABA;}
	.st91{opacity:0.9221;fill:#B9B9B9;}
	.st92{opacity:0.9351;fill:#B8B8B8;}
	.st93{opacity:0.9481;fill:#B7B7B7;}
	.st94{opacity:0.961;fill:#B6B6B6;}
	.st95{opacity:0.974;fill:#B5B5B5;}
	.st96{opacity:0.987;fill:#B4B4B4;}
	.st97{fill:#B3B3B3;}
	.st98{opacity:3.571429e-02;fill:#FCFCFC;}
	.st99{opacity:7.142857e-02;fill:#FAFAFA;}
	.st100{opacity:0.1071;fill:#F7F7F7;}
	.st101{opacity:0.1786;fill:#F1F1F1;}
	.st102{opacity:0.2143;fill:#EFEFEF;}
	.st103{opacity:0.25;fill:#ECECEC;}
	.st104{opacity:0.3214;fill:#E7E7E7;}
	.st105{opacity:0.3571;fill:#E4E4E4;}
	.st106{opacity:0.3929;fill:#E1E1E1;}
	.st107{opacity:0.4643;fill:#DCDCDC;}
	.st108{opacity:0.5;fill:#D9D9D9;}
	.st109{opacity:0.5357;fill:#D6D6D6;}
	.st110{opacity:0.6071;fill:#D1D1D1;}
	.st111{opacity:0.6429;fill:#CECECE;}
	.st112{opacity:0.6786;fill:#CBCBCB;}
	.st113{opacity:0.75;fill:#C6C6C6;}
	.st114{opacity:0.7857;fill:#C3C3C3;}
	.st115{opacity:0.8214;fill:#C1C1C1;}
	.st116{opacity:0.8929;fill:#BBBBBB;}
	.st117{opacity:0.9286;fill:#B8B8B8;}
	.st118{opacity:0.9643;fill:#B6B6B6;}
	.st119{opacity:3.225806e-02;fill:#FAFAFA;}
	.st120{opacity:6.451613e-02;fill:#F5F5F5;}
	.st121{opacity:9.677419e-02;fill:#F0F0F0;}
	.st122{opacity:0.129;fill:#EBEBEB;}
	.st123{opacity:0.1613;fill:#E6E6E6;}
	.st124{opacity:0.1935;fill:#E1E1E1;}
	.st125{opacity:0.2258;fill:#DCDCDC;}
	.st126{opacity:0.2581;fill:#D8D8D8;}
	.st127{opacity:0.2903;fill:#D3D3D3;}
	.st128{opacity:0.3226;fill:#CECECE;}
	.st129{opacity:0.3548;fill:#C9C9C9;}
	.st130{opacity:0.3871;fill:#C4C4C4;}
	.st131{opacity:0.4194;fill:#BFBFBF;}
	.st132{opacity:0.4516;fill:#BABABA;}
	.st133{opacity:0.4839;fill:#B5B5B5;}
	.st134{opacity:0.5161;fill:#B0B0B0;}
	.st135{opacity:0.5484;fill:#ABABAB;}
	.st136{opacity:0.5806;fill:#A6A6A6;}
	.st137{opacity:0.6129;fill:#A1A1A1;}
	.st138{opacity:0.6452;fill:#9C9C9C;}
	.st139{opacity:0.6774;fill:#979797;}
	.st140{opacity:0.7097;fill:#929292;}
	.st141{opacity:0.7419;fill:#8D8D8D;}
	.st142{opacity:0.7742;fill:#898989;}
	.st143{opacity:0.8065;fill:#848484;}
	.st144{opacity:0.8387;fill:#7F7F7F;}
	.st145{opacity:0.871;fill:#7A7A7A;}
	.st146{opacity:0.9032;fill:#757575;}
	.st147{opacity:0.9355;fill:#707070;}
	.st148{opacity:0.9677;fill:#6B6B6B;}
	.st149{fill:#666666;}
	.st150{fill:#CCCCCC;}
	.st151{fill:url(#SVGID_8_);}
	.st152{fill:url(#SVGID_9_);}
	.st153{fill:url(#SVGID_10_);}
	.st154{fill:url(#SVGID_11_);}
	.st155{fill:url(#SVGID_12_);}
	.st156{fill:url(#SVGID_13_);}
	.st157{fill:url(#SVGID_14_);}
	.st158{fill:#29ABE2;}
</style>
<pattern  y="128" width="32.2" height="34.5" patternUnits="userSpaceOnUse" id="SVGID_5_" viewBox="0 -34.5 32.2 34.5" style="overflow:visible;">
	<g>
		<rect y="-34.5" class="st0" width="32.2" height="34.5"/>
		<g>
			<rect y="-34.5" class="st0" width="32.2" height="34.5"/>
			<g>
				<rect y="-34.5" class="st0" width="32.2" height="34.5"/>
				<g>
					<rect y="-34.5" class="st0" width="32.2" height="34.5"/>
					<rect y="-34.5" class="st1" width="32.2" height="34.5"/>
				</g>
			</g>
		</g>
	</g>
</pattern>
<g>
	<g>
		<g>
			<g>
				<g class="st2">
					<pattern  id="SVGID_1_" xlink:href="#SVGID_5_" patternTransform="matrix(1.7808 0 0 -1.6549 12481.9463 -26075.9785)">
					</pattern>
					<path class="st3" d="M11.1,68.1L11,68.2H3.9c-0.1,0-0.1,0-0.1-0.1L2.7,59c0-0.1,0-0.1,0.1-0.1H12c0.1,0,0.1,0.1,0.1,0.1
						L11.1,68.1z"/>
					<path class="st4" d="M4.8,40.6c-0.8-3.3-0.6-7.5,0.9-7.8c1.4-0.3,3.6,3.5,4.4,6.7c0.8,3.3-0.1,4.8-1.5,5.1
						C7.1,44.9,5.6,43.8,4.8,40.6z"/>
					<path class="st5" d="M8.5,58.7L8.5,58.7c-0.1,0-0.2-0.1-0.2-0.3c0.8-3.6,1.1-7.4,0.8-11.1c-0.3-3.8-1.2-7.4-2.7-10.9
						c0-0.1,0-0.2,0.1-0.3c0.1,0,0.3,0,0.3,0.1c1.5,3.5,2.4,7.2,2.7,11s0.1,7.6-0.8,11.3C8.7,58.6,8.6,58.7,8.5,58.7z"/>
					<path class="st6" d="M0.1,41.3c-1.4-3.1-2-7.3-0.7-7.8C0.8,33,3.6,36.3,5,39.4c1.4,3.1,0.8,4.7-0.5,5.2
						C3.1,45.2,1.5,44.4,0.1,41.3z"/>
					<path class="st6" d="M-0.1,48.5c-1.8-2.1-3.2-5.2-2.3-5.9s3.9,1.3,5.6,3.4C5,48.1,5,49.5,4,50.1C3.1,50.8,1.7,50.5-0.1,48.5z"
						/>
					<path class="st6" d="M16.9,48.5c2.2-1.9,4.2-4.9,3.4-5.8c-0.8-0.8-4.2,0.8-6.4,2.7s-2.4,3.3-1.5,4.2
						C13.1,50.4,14.7,50.4,16.9,48.5z"/>
					<path class="st7" d="M12.7,42.4c1-3.2,1.2-7.5-0.3-7.8C11,34.2,8.6,37.8,7.5,41c-1,3.2-0.3,4.8,1.1,5.2
						C10.1,46.5,11.7,45.6,12.7,42.4z"/>
					<path class="st5" d="M8.9,58.7L8.9,58.7c-0.1,0-0.2-0.1-0.2-0.2c0.2-2.7,1.1-5.4,2.6-7.9c1.5-2.4,3.6-4.5,6-6
						c0.1-0.1,0.2,0,0.3,0.1c0.1,0.1,0,0.2-0.1,0.3c-2.4,1.5-4.4,3.5-5.9,5.9s-2.4,5-2.6,7.7C9.1,58.7,9,58.7,8.9,58.7z"/>
					<path class="st5" d="M7.1,58.5L7.1,58.5c-0.1,0-0.2-0.1-0.2-0.2c0.1-3.7-0.3-7.5-1.4-11.1c-1-3.6-2.7-7.1-4.8-10.2
						c-0.1-0.1,0-0.2,0.1-0.3s0.2,0,0.3,0.1c2.1,3.2,3.8,6.7,4.8,10.4c1.1,3.7,1.5,7.5,1.4,11.2C7.4,58.4,7.3,58.5,7.1,58.5z"/>
					<path class="st5" d="M7.7,58.6L7.7,58.6c-0.1,0-0.2-0.1-0.2-0.2l0.9-9.2c0.3-3.2,0.6-6.5,1.8-9.7c0-0.1,0.2-0.2,0.3-0.1
						c0.1,0,0.2,0.2,0.1,0.3c-1.1,3.1-1.5,6.4-1.8,9.5l-0.9,9.2C7.9,58.5,7.8,58.6,7.7,58.6z"/>
					<path class="st5" d="M6.9,58.8c-0.1,0-0.2-0.1-0.2-0.2c-0.3-4.7-2.6-9.2-6.2-12.5c-0.1-0.1-0.1-0.2,0-0.3s0.2-0.1,0.3,0
						c3.7,3.3,6,8,6.3,12.8C7.1,58.7,7,58.8,6.9,58.8L6.9,58.8z"/>
					<path class="st8" d="M12.4,59.2c0,0.1-0.1,0.1-0.1,0.1H2.6c-0.1,0-0.1,0-0.1-0.1v-1.5c0-0.1,0.1-0.1,0.1-0.1h9.7
						c0.1,0,0.1,0,0.1,0.1V59.2z"/>
					<path class="st9" d="M-2,53.3c-1,2.5-1.3,5.9,0.1,6.4s3.7-2.2,4.7-4.7C3.8,52.6-0.9,50.8-2,53.3z"/>
					<path class="st4" d="M-1.4,57.5l0.1-0.4c0.5-1.4,0.9-2.4,1.3-3.2c0.5-0.9,0.9-1.4,1.4-1.6c0.5-0.2,1-0.1,1.7,0.2
						C4.2,53,5,54,5.5,55.4C5.8,56,6,56.8,6,57.6H5.6c-0.2-1.8-1-4-2.7-4.8c-0.6-0.2-1-0.3-1.3-0.1c-0.9,0.4-1.5,1.9-2.5,4.6
						L-1,57.6c0,0.1-0.2,0.2-0.3,0.1C-1.4,57.7-1.5,57.6-1.4,57.5z"/>
				</g>
			</g>
		</g>
	</g>
</g>
<g>
	<path class="st10" d="M128,64c0,35.3-28.7,64-64,64C28.7,128,0,99.3,0,64C0,28.7,28.7,0,64,0C99.3,0,128,28.7,128,64z"/>
	<g>
		
			<linearGradient id="SVGID_2_" gradientUnits="userSpaceOnUse" x1="126.7236" y1="107.9805" x2="126.7236" y2="107.9805" gradientTransform="matrix(0.9974 -0.103 0.1027 0.9947 -101.1389 3.519)">
			<stop  offset="0" style="stop-color:#1C1B19;stop-opacity:0"/>
			<stop  offset="1" style="stop-color:#33322D"/>
		</linearGradient>
		<path class="st11" d="M36.3,97.9"/>
		
			<linearGradient id="SVGID_3_" gradientUnits="userSpaceOnUse" x1="223.369" y1="104.5101" x2="163.6897" y2="87.4588" gradientTransform="matrix(0.9974 -0.103 0.1027 0.9947 -101.1389 3.519)">
			<stop  offset="0" style="stop-color:#1C1B19;stop-opacity:0"/>
			<stop  offset="1" style="stop-color:#33322D"/>
		</linearGradient>
		<path class="st12" d="M48,39.6l-2.9,3.2L45,101.4L96.7,119c24.6-14.5,32.6-40.1,31-61.2c-0.3-4-0.7-5-1.2-7.7L90.3,36.2l-13.6,10"
			/>
	</g>
	<g>
		<g>
			<linearGradient id="SVGID_4_" gradientUnits="userSpaceOnUse" x1="37.5177" y1="38.4385" x2="90.4801" y2="38.4385">
				<stop  offset="0" style="stop-color:#999999"/>
				<stop  offset="1.001168e-03" style="stop-color:#A0A0A0"/>
				<stop  offset="6.071331e-03" style="stop-color:#BDBDBD"/>
				<stop  offset="1.144228e-02" style="stop-color:#D5D5D5"/>
				<stop  offset="1.718562e-02" style="stop-color:#E5E5E5"/>
				<stop  offset="2.355640e-02" style="stop-color:#EFEFEF"/>
				<stop  offset="3.180210e-02" style="stop-color:#F2F2F2"/>
				<stop  offset="5.501346e-02" style="stop-color:#EAEAEA"/>
				<stop  offset="8.657240e-02" style="stop-color:#E6E6E6"/>
				<stop  offset="0.8288" style="stop-color:#E6E6E6"/>
				<stop  offset="0.9546" style="stop-color:#E6E6E6"/>
				<stop  offset="0.9675" style="stop-color:#F6F6F6"/>
				<stop  offset="0.9732" style="stop-color:#FFFFFF"/>
				<stop  offset="0.9852" style="stop-color:#FDFDFD"/>
				<stop  offset="0.9895" style="stop-color:#F6F6F6"/>
				<stop  offset="0.9926" style="stop-color:#EBEBEB"/>
				<stop  offset="0.9951" style="stop-color:#DADADA"/>
				<stop  offset="0.9972" style="stop-color:#C4C4C4"/>
				<stop  offset="0.9991" style="stop-color:#A9A9A9"/>
				<stop  offset="1" style="stop-color:#999999"/>
			</linearGradient>
			<path class="st13" d="M90.3,40.6H37.7c-0.1,0-0.2-0.1-0.2-0.2v-4.1c0-0.1,0.1-0.2,0.2-0.2h52.6c0.1,0,0.2,0.1,0.2,0.2v4.1
				C90.5,40.6,90.4,40.6,90.3,40.6z"/>
			<rect x="38.2" y="40.6" class="st14" width="51.6" height="3"/>
			<rect x="38.2" y="41.1" class="st15" width="51.6" height="62.9"/>
			<linearGradient id="SVGID_6_" gradientUnits="userSpaceOnUse" x1="63.9989" y1="43.5505" x2="63.9989" y2="40.7444">
				<stop  offset="0" style="stop-color:#FFFFFF"/>
				<stop  offset="0.2506" style="stop-color:#FCFCFC"/>
				<stop  offset="0.4396" style="stop-color:#F2F2F2"/>
				<stop  offset="0.6085" style="stop-color:#E2E2E2"/>
				<stop  offset="0.7655" style="stop-color:#CBCBCB"/>
				<stop  offset="0.9131" style="stop-color:#AEAEAE"/>
				<stop  offset="1" style="stop-color:#999999"/>
			</linearGradient>
			<rect x="38.2" y="40.7" class="st16" width="51.6" height="2.8"/>
			<g>
				<rect x="62.4" y="37.5" class="st17" width="3.3" height="1.9"/>
				<linearGradient id="SVGID_7_" gradientUnits="userSpaceOnUse" x1="62.7816" y1="37.2131" x2="65.2651" y2="39.6966">
					<stop  offset="0" style="stop-color:#D5EDF4"/>
					<stop  offset="0.603" style="stop-color:#9AE0F4"/>
					<stop  offset="0.9922" style="stop-color:#78D8F4"/>
				</linearGradient>
				<rect x="62.4" y="37.6" class="st18" width="3.2" height="1.8"/>
				<g>
					<g>
						<g>
							<polygon class="st19" points="64.8,38.5 64.8,38.5 64.8,38.4 64.4,38.4 64.3,38.5 64.4,38.5 							"/>
							<polygon class="st19" points="64.3,38.4 64.3,38.4 64.4,38.4 64.4,37.9 64.3,37.8 64.3,37.9 							"/>
							<polygon class="st19" points="64.8,38.4 64.8,38.4 64.9,38.4 64.9,37.9 64.8,37.8 64.8,37.9 							"/>
							<polygon class="st19" points="64.8,39 64.8,39.1 64.9,39 64.9,38.6 64.8,38.5 64.8,38.6 							"/>
						</g>
						<g>
							<polygon class="st19" points="64.1,38.4 64,38.4 64,38.4 64,38 64,37.9 64.1,38 							"/>
							<polygon class="st19" points="63.4,39 63.4,39 63.5,39 63.5,38.6 63.4,38.5 63.4,38.6 							"/>
							<polygon class="st19" points="63.9,37.9 64,37.9 63.9,37.8 63.6,37.8 63.5,37.9 63.6,37.9 							"/>
							<polygon class="st19" points="63.9,39.1 64,39.1 63.9,39 63.6,39 63.5,39.1 63.6,39.1 							"/>
							<polygon class="st19" points="63.9,38.5 64,38.5 63.9,38.4 63.6,38.4 63.5,38.5 63.6,38.5 							"/>
							<polygon class="st19" points="63.1,38.5 63.2,38.5 63.1,38.4 62.8,38.4 62.7,38.5 62.8,38.5 							"/>
						</g>
					</g>
					<g>
						<polygon class="st19" points="65.1,38 65.1,38 65.2,38 65.2,37.9 65.1,37.9 65.1,37.9 						"/>
						<polygon class="st19" points="65.4,38 65.4,38 65.3,38 65.3,37.9 65.4,37.9 65.4,37.9 						"/>
						<polygon class="st19" points="65.3,37.9 65.3,37.8 65.3,37.8 65.2,37.8 65.2,37.8 65.2,37.9 						"/>
						<polygon class="st19" points="65.3,38.1 65.3,38.1 65.3,38 65.2,38 65.2,38.1 65.2,38.1 						"/>
					</g>
				</g>
			</g>
			<g>
				<path class="st20" d="M39.1,64.8V45.4c0-0.1,0.1-0.3,0.3-0.3h3.2c0.1,0,0.3,0.1,0.3,0.3v19.5c0,0.1-0.1,0.3-0.3,0.3h-3.2
					C39.2,65.1,39.1,65,39.1,64.8z"/>
				<path class="st21" d="M39.1,64.8V45.4c0-0.1,0.1-0.3,0.3-0.3h3.2c0.1,0,0.3,0.1,0.3,0.3v19.4c0,0.1-0.1,0.3-0.3,0.3h-3.2
					C39.2,65.1,39.1,65,39.1,64.8z"/>
				<path class="st22" d="M39.1,64.8V45.4c0-0.1,0.1-0.3,0.3-0.3h3.2c0.1,0,0.3,0.1,0.3,0.3v19.4c0,0.1-0.1,0.3-0.3,0.3h-3.2
					C39.2,65.1,39.1,65,39.1,64.8z"/>
				<path class="st23" d="M39.1,64.8V45.4c0-0.1,0.1-0.3,0.3-0.3h3.2c0.1,0,0.3,0.1,0.3,0.3v19.4c0,0.1-0.1,0.3-0.3,0.3h-3.2
					C39.2,65.1,39.1,65,39.1,64.8z"/>
				<path class="st24" d="M39.1,64.8V45.4c0-0.1,0.1-0.3,0.3-0.3h3.2c0.1,0,0.3,0.1,0.3,0.3v19.4c0,0.1-0.1,0.3-0.3,0.3h-3.2
					C39.2,65.1,39.1,65,39.1,64.8z"/>
				<path class="st25" d="M39.1,64.8V45.4c0-0.1,0.1-0.3,0.3-0.3h3.2c0.1,0,0.3,0.1,0.3,0.3v19.4c0,0.1-0.1,0.3-0.3,0.3h-3.2
					C39.2,65.1,39.1,65,39.1,64.8z"/>
				<path class="st26" d="M39.1,64.8V45.4c0-0.1,0.1-0.3,0.3-0.3h3.2c0.1,0,0.3,0.1,0.3,0.3v19.4c0,0.1-0.1,0.3-0.3,0.3h-3.2
					C39.2,65.1,39.1,65,39.1,64.8z"/>
				<path class="st27" d="M39.1,64.8V45.4c0-0.1,0.1-0.3,0.3-0.3h3.2c0.1,0,0.3,0.1,0.3,0.3v19.4c0,0.1-0.1,0.3-0.3,0.3h-3.2
					C39.2,65.1,39.1,64.9,39.1,64.8z"/>
				<path class="st28" d="M39.1,64.8V45.4c0-0.1,0.1-0.2,0.2-0.2h3.2c0.1,0,0.2,0.1,0.2,0.2v19.4c0,0.1-0.1,0.2-0.2,0.2h-3.2
					C39.2,65.1,39.1,64.9,39.1,64.8z"/>
				<path class="st29" d="M39.1,64.8V45.4c0-0.1,0.1-0.2,0.2-0.2h3.1c0.1,0,0.2,0.1,0.2,0.2v19.4c0,0.1-0.1,0.2-0.2,0.2h-3.1
					C39.2,65,39.1,64.9,39.1,64.8z"/>
				<path class="st30" d="M39.1,64.8V45.5c0-0.1,0.1-0.2,0.2-0.2h3.1c0.1,0,0.2,0.1,0.2,0.2v19.3c0,0.1-0.1,0.2-0.2,0.2h-3.1
					C39.3,65,39.1,64.9,39.1,64.8z"/>
				<path class="st31" d="M39.2,64.8V45.5c0-0.1,0.1-0.2,0.2-0.2h3.1c0.1,0,0.2,0.1,0.2,0.2v19.3c0,0.1-0.1,0.2-0.2,0.2h-3.1
					C39.3,65,39.2,64.9,39.2,64.8z"/>
				<path class="st32" d="M39.2,64.8V45.5c0-0.1,0.1-0.2,0.2-0.2h3.1c0.1,0,0.2,0.1,0.2,0.2v19.3c0,0.1-0.1,0.2-0.2,0.2h-3.1
					C39.3,65,39.2,64.9,39.2,64.8z"/>
				<path class="st33" d="M39.2,64.8V45.5c0-0.1,0.1-0.2,0.2-0.2h3.1c0.1,0,0.2,0.1,0.2,0.2v19.3c0,0.1-0.1,0.2-0.2,0.2h-3.1
					C39.3,65,39.2,64.9,39.2,64.8z"/>
				<path class="st34" d="M39.2,64.8V45.5c0-0.1,0.1-0.2,0.2-0.2h3.1c0.1,0,0.2,0.1,0.2,0.2v19.3c0,0.1-0.1,0.2-0.2,0.2h-3.1
					C39.3,65,39.2,64.9,39.2,64.8z"/>
				<path class="st35" d="M39.2,64.8V45.5c0-0.1,0.1-0.2,0.2-0.2h3.1c0.1,0,0.2,0.1,0.2,0.2v19.3c0,0.1-0.1,0.2-0.2,0.2h-3.1
					C39.3,65,39.2,64.9,39.2,64.8z"/>
				<path class="st36" d="M39.2,64.8V45.5c0-0.1,0.1-0.2,0.2-0.2h3.1c0.1,0,0.2,0.1,0.2,0.2v19.3c0,0.1-0.1,0.2-0.2,0.2h-3.1
					C39.3,65,39.2,64.9,39.2,64.8z"/>
				<path class="st37" d="M39.2,64.8V45.5c0-0.1,0.1-0.2,0.2-0.2h3c0.1,0,0.2,0.1,0.2,0.2v19.3c0,0.1-0.1,0.2-0.2,0.2h-3
					C39.3,65,39.2,64.9,39.2,64.8z"/>
				<path class="st38" d="M39.2,64.7V45.5c0-0.1,0.1-0.2,0.2-0.2h3c0.1,0,0.2,0.1,0.2,0.2v19.2c0,0.1-0.1,0.2-0.2,0.2h-3
					C39.3,65,39.2,64.9,39.2,64.7z"/>
				<path class="st39" d="M39.2,64.7V45.5c0-0.1,0.1-0.2,0.2-0.2h3c0.1,0,0.2,0.1,0.2,0.2v19.2c0,0.1-0.1,0.2-0.2,0.2h-3
					C39.3,65,39.2,64.9,39.2,64.7z"/>
				<path class="st40" d="M39.2,64.7V45.5c0-0.1,0.1-0.2,0.2-0.2h3c0.1,0,0.2,0.1,0.2,0.2v19.2c0,0.1-0.1,0.2-0.2,0.2h-3
					C39.3,65,39.2,64.9,39.2,64.7z"/>
				<path class="st41" d="M39.2,64.7V45.5c0-0.1,0.1-0.2,0.2-0.2h3c0.1,0,0.2,0.1,0.2,0.2v19.2c0,0.1-0.1,0.2-0.2,0.2h-3
					C39.3,64.9,39.2,64.8,39.2,64.7z"/>
				<path class="st42" d="M39.2,64.7V45.5c0-0.1,0.1-0.2,0.2-0.2h3c0.1,0,0.2,0.1,0.2,0.2v19.2c0,0.1-0.1,0.2-0.2,0.2h-3
					C39.3,64.9,39.2,64.8,39.2,64.7z"/>
				<path class="st43" d="M39.2,64.7V45.5c0-0.1,0.1-0.2,0.2-0.2h3c0.1,0,0.2,0.1,0.2,0.2v19.2c0,0.1-0.1,0.2-0.2,0.2h-3
					C39.3,64.9,39.2,64.8,39.2,64.7z"/>
				<path class="st44" d="M39.3,64.7V45.5c0-0.1,0.1-0.2,0.2-0.2h3c0.1,0,0.2,0.1,0.2,0.2v19.2c0,0.1-0.1,0.2-0.2,0.2h-3
					C39.4,64.9,39.3,64.8,39.3,64.7z"/>
				<path class="st45" d="M39.3,64.7V45.5c0-0.1,0.1-0.2,0.2-0.2h3c0.1,0,0.2,0.1,0.2,0.2v19.2c0,0.1-0.1,0.2-0.2,0.2h-3
					C39.4,64.9,39.3,64.8,39.3,64.7z"/>
				<path class="st46" d="M39.3,64.7V45.5c0-0.1,0.1-0.2,0.2-0.2h2.9c0.1,0,0.2,0.1,0.2,0.2v19.2c0,0.1-0.1,0.2-0.2,0.2h-2.9
					C39.4,64.9,39.3,64.8,39.3,64.7z"/>
				<path class="st47" d="M39.3,64.7V45.6c0-0.1,0.1-0.2,0.2-0.2h2.9c0.1,0,0.2,0.1,0.2,0.2v19.1c0,0.1-0.1,0.2-0.2,0.2h-2.9
					C39.4,64.9,39.3,64.8,39.3,64.7z"/>
				<path class="st48" d="M39.3,64.7V45.6c0-0.1,0.1-0.2,0.2-0.2h2.9c0.1,0,0.2,0.1,0.2,0.2v19.1c0,0.1-0.1,0.2-0.2,0.2h-2.9
					C39.4,64.9,39.3,64.8,39.3,64.7z"/>
				<path class="st49" d="M39.3,64.7V45.6c0-0.1,0.1-0.2,0.2-0.2h2.9c0.1,0,0.2,0.1,0.2,0.2v19.1c0,0.1-0.1,0.2-0.2,0.2h-2.9
					C39.4,64.9,39.3,64.8,39.3,64.7z"/>
				<path class="st50" d="M39.3,64.7V45.6c0-0.1,0.1-0.2,0.2-0.2h2.9c0.1,0,0.2,0.1,0.2,0.2v19.1c0,0.1-0.1,0.2-0.2,0.2h-2.9
					C39.4,64.9,39.3,64.8,39.3,64.7z"/>
				<path class="st51" d="M39.3,64.7V45.6c0-0.1,0.1-0.2,0.2-0.2h2.9c0.1,0,0.2,0.1,0.2,0.2v19.1c0,0.1-0.1,0.2-0.2,0.2h-2.9
					C39.4,64.9,39.3,64.8,39.3,64.7z"/>
				<path class="st52" d="M39.3,64.7V45.6c0-0.1,0.1-0.2,0.2-0.2h2.9c0.1,0,0.2,0.1,0.2,0.2v19.1c0,0.1-0.1,0.2-0.2,0.2h-2.9
					C39.4,64.9,39.3,64.8,39.3,64.7z"/>
				<path class="st53" d="M39.3,64.7V45.6c0-0.1,0.1-0.2,0.2-0.2h2.9c0.1,0,0.2,0.1,0.2,0.2v19.1c0,0.1-0.1,0.2-0.2,0.2h-2.9
					C39.4,64.8,39.3,64.8,39.3,64.7z"/>
				<path class="st54" d="M39.3,64.7V45.6c0-0.1,0.1-0.2,0.2-0.2h2.8c0.1,0,0.2,0.1,0.2,0.2v19.1c0,0.1-0.1,0.2-0.2,0.2h-2.8
					C39.4,64.8,39.3,64.8,39.3,64.7z"/>
				<path class="st55" d="M39.3,64.6v-19c0-0.1,0.1-0.2,0.2-0.2h2.8c0.1,0,0.2,0.1,0.2,0.2v19c0,0.1-0.1,0.2-0.2,0.2h-2.8
					C39.4,64.8,39.3,64.7,39.3,64.6z"/>
				<path class="st56" d="M39.4,64.6v-19c0-0.1,0.1-0.2,0.2-0.2h2.8c0.1,0,0.2,0.1,0.2,0.2v19c0,0.1-0.1,0.2-0.2,0.2h-2.8
					C39.4,64.8,39.4,64.7,39.4,64.6z"/>
				<path class="st57" d="M39.4,64.6v-19c0-0.1,0.1-0.2,0.2-0.2h2.8c0.1,0,0.2,0.1,0.2,0.2v19c0,0.1-0.1,0.2-0.2,0.2h-2.8
					C39.4,64.8,39.4,64.7,39.4,64.6z"/>
				<path class="st58" d="M39.4,64.6v-19c0-0.1,0.1-0.2,0.2-0.2h2.8c0.1,0,0.2,0.1,0.2,0.2v19c0,0.1-0.1,0.2-0.2,0.2h-2.8
					C39.5,64.8,39.4,64.7,39.4,64.6z"/>
				<path class="st59" d="M39.4,64.6v-19c0-0.1,0.1-0.2,0.2-0.2h2.8c0.1,0,0.2,0.1,0.2,0.2v19c0,0.1-0.1,0.2-0.2,0.2h-2.8
					C39.5,64.8,39.4,64.7,39.4,64.6z"/>
				<path class="st60" d="M39.4,64.6v-19c0-0.1,0.1-0.2,0.2-0.2h2.8c0.1,0,0.2,0.1,0.2,0.2v19c0,0.1-0.1,0.2-0.2,0.2h-2.8
					C39.5,64.8,39.4,64.7,39.4,64.6z"/>
				<path class="st61" d="M39.4,64.6v-19c0-0.1,0.1-0.2,0.2-0.2h2.8c0.1,0,0.2,0.1,0.2,0.2v19c0,0.1-0.1,0.2-0.2,0.2h-2.8
					C39.5,64.8,39.4,64.7,39.4,64.6z"/>
				<path class="st62" d="M39.4,64.6v-19c0-0.1,0.1-0.2,0.2-0.2h2.8c0.1,0,0.2,0.1,0.2,0.2v19c0,0.1-0.1,0.2-0.2,0.2h-2.8
					C39.5,64.8,39.4,64.7,39.4,64.6z"/>
				<path class="st63" d="M39.4,64.6v-19c0-0.1,0.1-0.2,0.2-0.2h2.7c0.1,0,0.2,0.1,0.2,0.2v19c0,0.1-0.1,0.2-0.2,0.2h-2.7
					C39.5,64.8,39.4,64.7,39.4,64.6z"/>
				<path class="st64" d="M39.4,64.6V45.7c0-0.1,0.1-0.2,0.2-0.2h2.7c0.1,0,0.2,0.1,0.2,0.2v18.9c0,0.1-0.1,0.2-0.2,0.2h-2.7
					C39.5,64.8,39.4,64.7,39.4,64.6z"/>
				<path class="st65" d="M39.4,64.6V45.7c0-0.1,0.1-0.2,0.2-0.2h2.7c0.1,0,0.2,0.1,0.2,0.2v18.9c0,0.1-0.1,0.2-0.2,0.2h-2.7
					C39.5,64.7,39.4,64.7,39.4,64.6z"/>
				<path class="st66" d="M39.4,64.6V45.7c0-0.1,0.1-0.2,0.2-0.2h2.7c0.1,0,0.2,0.1,0.2,0.2v18.9c0,0.1-0.1,0.2-0.2,0.2h-2.7
					C39.5,64.7,39.4,64.7,39.4,64.6z"/>
				<path class="st67" d="M39.4,64.6V45.7c0-0.1,0.1-0.2,0.2-0.2h2.7c0.1,0,0.2,0.1,0.2,0.2v18.9c0,0.1-0.1,0.2-0.2,0.2h-2.7
					C39.5,64.7,39.4,64.7,39.4,64.6z"/>
				<path class="st68" d="M39.5,64.6V45.7c0-0.1,0.1-0.2,0.2-0.2h2.7c0.1,0,0.2,0.1,0.2,0.2v18.9c0,0.1-0.1,0.2-0.2,0.2h-2.7
					C39.5,64.7,39.5,64.7,39.5,64.6z"/>
				<path class="st69" d="M39.5,64.6V45.7c0-0.1,0.1-0.2,0.2-0.2h2.7c0.1,0,0.2,0.1,0.2,0.2v18.9c0,0.1-0.1,0.2-0.2,0.2h-2.7
					C39.5,64.7,39.5,64.6,39.5,64.6z"/>
				<path class="st70" d="M39.5,64.6V45.7c0-0.1,0.1-0.2,0.2-0.2h2.7c0.1,0,0.2,0.1,0.2,0.2v18.9c0,0.1-0.1,0.2-0.2,0.2h-2.7
					C39.5,64.7,39.5,64.6,39.5,64.6z"/>
				<path class="st71" d="M39.5,64.6V45.7c0-0.1,0.1-0.1,0.1-0.1h2.6c0.1,0,0.1,0.1,0.1,0.1v18.9c0,0.1-0.1,0.1-0.1,0.1h-2.6
					C39.5,64.7,39.5,64.6,39.5,64.6z"/>
				<path class="st72" d="M39.5,64.5V45.7c0-0.1,0.1-0.1,0.1-0.1h2.6c0.1,0,0.1,0.1,0.1,0.1v18.8c0,0.1-0.1,0.1-0.1,0.1h-2.6
					C39.6,64.7,39.5,64.6,39.5,64.5z"/>
				<path class="st73" d="M39.5,64.5V45.7c0-0.1,0.1-0.1,0.1-0.1h2.6c0.1,0,0.1,0.1,0.1,0.1v18.8c0,0.1-0.1,0.1-0.1,0.1h-2.6
					C39.6,64.7,39.5,64.6,39.5,64.5z"/>
				<path class="st74" d="M39.5,64.5V45.7c0-0.1,0.1-0.1,0.1-0.1h2.6c0.1,0,0.1,0.1,0.1,0.1v18.8c0,0.1-0.1,0.1-0.1,0.1h-2.6
					C39.6,64.7,39.5,64.6,39.5,64.5z"/>
				<path class="st75" d="M39.5,64.5V45.7c0-0.1,0.1-0.1,0.1-0.1h2.6c0.1,0,0.1,0.1,0.1,0.1v18.8c0,0.1-0.1,0.1-0.1,0.1h-2.6
					C39.6,64.7,39.5,64.6,39.5,64.5z"/>
				<path class="st76" d="M39.5,64.5V45.7c0-0.1,0.1-0.1,0.1-0.1h2.6c0.1,0,0.1,0.1,0.1,0.1v18.8c0,0.1-0.1,0.1-0.1,0.1h-2.6
					C39.6,64.7,39.5,64.6,39.5,64.5z"/>
				<path class="st77" d="M39.5,64.5V45.7c0-0.1,0.1-0.1,0.1-0.1h2.6c0.1,0,0.1,0.1,0.1,0.1v18.8c0,0.1-0.1,0.1-0.1,0.1h-2.6
					C39.6,64.7,39.5,64.6,39.5,64.5z"/>
				<path class="st78" d="M39.5,64.5V45.7c0-0.1,0.1-0.1,0.1-0.1h2.6c0.1,0,0.1,0.1,0.1,0.1v18.8c0,0.1-0.1,0.1-0.1,0.1h-2.6
					C39.6,64.6,39.5,64.6,39.5,64.5z"/>
				<path class="st79" d="M39.5,64.5V45.7c0-0.1,0.1-0.1,0.1-0.1h2.6c0.1,0,0.1,0.1,0.1,0.1v18.8c0,0.1-0.1,0.1-0.1,0.1h-2.6
					C39.6,64.6,39.5,64.6,39.5,64.5z"/>
				<path class="st80" d="M39.6,64.5V45.7c0-0.1,0.1-0.1,0.1-0.1h2.5c0.1,0,0.1,0.1,0.1,0.1v18.8c0,0.1-0.1,0.1-0.1,0.1h-2.5
					C39.6,64.6,39.6,64.6,39.6,64.5z"/>
				<path class="st81" d="M39.6,64.5V45.8c0-0.1,0.1-0.1,0.1-0.1h2.5c0.1,0,0.1,0.1,0.1,0.1v18.7c0,0.1-0.1,0.1-0.1,0.1h-2.5
					C39.6,64.6,39.6,64.6,39.6,64.5z"/>
				<path class="st82" d="M39.6,64.5V45.8c0-0.1,0.1-0.1,0.1-0.1h2.5c0.1,0,0.1,0.1,0.1,0.1v18.7c0,0.1-0.1,0.1-0.1,0.1h-2.5
					C39.6,64.6,39.6,64.6,39.6,64.5z"/>
				<path class="st83" d="M39.6,64.5V45.8c0-0.1,0.1-0.1,0.1-0.1h2.5c0.1,0,0.1,0.1,0.1,0.1v18.7c0,0.1-0.1,0.1-0.1,0.1h-2.5
					C39.6,64.6,39.6,64.5,39.6,64.5z"/>
				<path class="st84" d="M39.6,64.5V45.8c0-0.1,0.1-0.1,0.1-0.1h2.5c0.1,0,0.1,0.1,0.1,0.1v18.7c0,0.1-0.1,0.1-0.1,0.1h-2.5
					C39.6,64.6,39.6,64.5,39.6,64.5z"/>
				<path class="st85" d="M39.6,64.5V45.8c0-0.1,0.1-0.1,0.1-0.1h2.5c0.1,0,0.1,0.1,0.1,0.1v18.7c0,0.1-0.1,0.1-0.1,0.1h-2.5
					C39.6,64.6,39.6,64.5,39.6,64.5z"/>
				<path class="st86" d="M39.6,64.5V45.8c0-0.1,0.1-0.1,0.1-0.1h2.5c0.1,0,0.1,0.1,0.1,0.1v18.7c0,0.1-0.1,0.1-0.1,0.1h-2.5
					C39.7,64.6,39.6,64.5,39.6,64.5z"/>
				<path class="st87" d="M39.6,64.5V45.8c0-0.1,0.1-0.1,0.1-0.1h2.5c0.1,0,0.1,0.1,0.1,0.1v18.7c0,0.1-0.1,0.1-0.1,0.1h-2.5
					C39.7,64.6,39.6,64.5,39.6,64.5z"/>
				<path class="st88" d="M39.6,64.5V45.8c0-0.1,0-0.1,0.1-0.1h2.4c0.1,0,0.1,0,0.1,0.1v18.7c0,0.1,0,0.1-0.1,0.1h-2.4
					C39.7,64.6,39.6,64.5,39.6,64.5z"/>
				<path class="st89" d="M39.6,64.4V45.8c0-0.1,0-0.1,0.1-0.1h2.4c0.1,0,0.1,0,0.1,0.1v18.6c0,0.1,0,0.1-0.1,0.1h-2.4
					C39.7,64.6,39.6,64.5,39.6,64.4z"/>
				<path class="st90" d="M39.6,64.4V45.8c0-0.1,0-0.1,0.1-0.1h2.4c0.1,0,0.1,0,0.1,0.1v18.6c0,0.1,0,0.1-0.1,0.1h-2.4
					C39.7,64.5,39.6,64.5,39.6,64.4z"/>
				<path class="st91" d="M39.6,64.4V45.8c0-0.1,0-0.1,0.1-0.1h2.4c0.1,0,0.1,0,0.1,0.1v18.6c0,0.1,0,0.1-0.1,0.1h-2.4
					C39.7,64.5,39.6,64.5,39.6,64.4z"/>
				<path class="st92" d="M39.6,64.4V45.8c0-0.1,0-0.1,0.1-0.1h2.4c0.1,0,0.1,0,0.1,0.1v18.6c0,0.1,0,0.1-0.1,0.1h-2.4
					C39.7,64.5,39.6,64.5,39.6,64.4z"/>
				<path class="st93" d="M39.7,64.4V45.8c0-0.1,0-0.1,0.1-0.1h2.4c0.1,0,0.1,0,0.1,0.1v18.6c0,0.1,0,0.1-0.1,0.1L39.7,64.4
					C39.7,64.5,39.7,64.5,39.7,64.4z"/>
				<path class="st94" d="M39.7,64.4V45.8c0-0.1,0-0.1,0.1-0.1h2.4c0.1,0,0.1,0,0.1,0.1v18.6c0,0.1,0,0.1-0.1,0.1L39.7,64.4
					C39.7,64.5,39.7,64.5,39.7,64.4z"/>
				<path class="st95" d="M39.7,64.4V45.8c0-0.1,0-0.1,0.1-0.1h2.4c0.1,0,0.1,0,0.1,0.1v18.6c0,0.1,0,0.1-0.1,0.1L39.7,64.4
					C39.7,64.5,39.7,64.5,39.7,64.4z"/>
				<path class="st96" d="M39.7,64.4V45.8c0-0.1,0-0.1,0.1-0.1h2.4c0.1,0,0.1,0,0.1,0.1v18.6c0,0.1,0,0.1-0.1,0.1L39.7,64.4
					C39.7,64.5,39.7,64.5,39.7,64.4z"/>
				<path class="st97" d="M42.1,64.5h-2.3c0,0-0.1,0-0.1-0.1V45.8c0,0,0-0.1,0.1-0.1h2.3c0,0,0.1,0,0.1,0.1L42.1,64.5
					C42.2,64.4,42.2,64.5,42.1,64.5z"/>
			</g>
			<g>
				<path class="st20" d="M37.8,49.7V47c0-0.1,0.1-0.2,0.2-0.2h2.9c0.1,0,0.2,0.1,0.2,0.2v2.7c0,0.1-0.1,0.2-0.2,0.2H38
					C37.9,50,37.8,49.9,37.8,49.7z"/>
				<path class="st98" d="M37.8,49.7V47c0-0.1,0.1-0.2,0.2-0.2h2.9c0.1,0,0.2,0.1,0.2,0.2v2.7c0,0.1-0.1,0.2-0.2,0.2H38
					C37.9,49.9,37.8,49.8,37.8,49.7z"/>
				<path class="st99" d="M37.8,49.7V47c0-0.1,0.1-0.2,0.2-0.2h2.9c0.1,0,0.2,0.1,0.2,0.2v2.6c0,0.1-0.1,0.2-0.2,0.2H38
					C37.9,49.9,37.8,49.8,37.8,49.7z"/>
				<path class="st100" d="M37.8,49.7v-2.6c0-0.1,0.1-0.2,0.2-0.2h2.8c0.1,0,0.2,0.1,0.2,0.2v2.6c0,0.1-0.1,0.2-0.2,0.2h-2.8
					C37.9,49.9,37.8,49.8,37.8,49.7z"/>
				<path class="st31" d="M37.9,49.7v-2.6c0-0.1,0.1-0.2,0.2-0.2h2.8c0.1,0,0.2,0.1,0.2,0.2v2.6c0,0.1-0.1,0.2-0.2,0.2h-2.8
					C38,49.9,37.9,49.8,37.9,49.7z"/>
				<path class="st101" d="M37.9,49.6v-2.6c0-0.1,0.1-0.2,0.2-0.2h2.8c0.1,0,0.2,0.1,0.2,0.2v2.6c0,0.1-0.1,0.2-0.2,0.2h-2.8
					C38,49.9,37.9,49.8,37.9,49.6z"/>
				<path class="st102" d="M37.9,49.6v-2.5c0-0.1,0.1-0.2,0.2-0.2h2.7c0.1,0,0.2,0.1,0.2,0.2v2.5c0,0.1-0.1,0.2-0.2,0.2h-2.7
					C38,49.8,37.9,49.7,37.9,49.6z"/>
				<path class="st103" d="M37.9,49.6v-2.5c0-0.1,0.1-0.2,0.2-0.2h2.7c0.1,0,0.2,0.1,0.2,0.2v2.5c0,0.1-0.1,0.2-0.2,0.2h-2.7
					C38,49.8,37.9,49.7,37.9,49.6z"/>
				<path class="st42" d="M37.9,49.6v-2.5c0-0.1,0.1-0.2,0.2-0.2h2.7c0.1,0,0.2,0.1,0.2,0.2v2.5c0,0.1-0.1,0.2-0.2,0.2h-2.7
					C38,49.8,37.9,49.7,37.9,49.6z"/>
				<path class="st104" d="M38,49.6v-2.4C38,47,38,47,38.1,47h2.7c0.1,0,0.2,0.1,0.2,0.2v2.4c0,0.1-0.1,0.2-0.2,0.2h-2.7
					C38,49.8,38,49.7,38,49.6z"/>
				<path class="st105" d="M38,49.6v-2.4c0-0.1,0.1-0.2,0.2-0.2h2.6c0.1,0,0.2,0.1,0.2,0.2v2.4c0,0.1-0.1,0.2-0.2,0.2h-2.6
					C38.1,49.8,38,49.7,38,49.6z"/>
				<path class="st106" d="M38,49.6v-2.4c0-0.1,0.1-0.2,0.2-0.2h2.6c0.1,0,0.2,0.1,0.2,0.2v2.4c0,0.1-0.1,0.2-0.2,0.2h-2.6
					C38.1,49.7,38,49.7,38,49.6z"/>
				<path class="st53" d="M38,49.5v-2.4c0-0.1,0.1-0.2,0.2-0.2h2.6c0.1,0,0.2,0.1,0.2,0.2v2.4c0,0.1-0.1,0.2-0.2,0.2h-2.6
					C38.1,49.7,38,49.6,38,49.5z"/>
				<path class="st107" d="M38,49.5v-2.3c0-0.1,0.1-0.2,0.2-0.2h2.5c0.1,0,0.2,0.1,0.2,0.2v2.3c0,0.1-0.1,0.2-0.2,0.2h-2.5
					C38.1,49.7,38,49.6,38,49.5z"/>
				<path class="st108" d="M38.1,49.5v-2.3c0-0.1,0.1-0.2,0.2-0.2h2.5c0.1,0,0.2,0.1,0.2,0.2v2.3c0,0.1-0.1,0.2-0.2,0.2h-2.5
					C38.1,49.7,38.1,49.6,38.1,49.5z"/>
				<path class="st109" d="M38.1,49.5v-2.3c0-0.1,0.1-0.2,0.2-0.2h2.5c0.1,0,0.2,0.1,0.2,0.2v2.3c0,0.1-0.1,0.2-0.2,0.2h-2.5
					C38.2,49.7,38.1,49.6,38.1,49.5z"/>
				<path class="st64" d="M38.1,49.5v-2.2c0-0.1,0.1-0.1,0.1-0.1h2.4c0.1,0,0.1,0.1,0.1,0.1v2.2c0,0.1-0.1,0.1-0.1,0.1h-2.4
					C38.2,49.6,38.1,49.6,38.1,49.5z"/>
				<path class="st110" d="M38.1,49.5v-2.2c0-0.1,0.1-0.1,0.1-0.1h2.4c0.1,0,0.1,0.1,0.1,0.1v2.2c0,0.1-0.1,0.1-0.1,0.1h-2.4
					C38.2,49.6,38.1,49.6,38.1,49.5z"/>
				<path class="st111" d="M38.1,49.5v-2.2c0-0.1,0.1-0.1,0.1-0.1h2.4c0.1,0,0.1,0.1,0.1,0.1v2.2c0,0.1-0.1,0.1-0.1,0.1h-2.4
					C38.2,49.6,38.1,49.5,38.1,49.5z"/>
				<path class="st112" d="M38.2,49.4v-2.2c0-0.1,0.1-0.1,0.1-0.1h2.4c0.1,0,0.1,0.1,0.1,0.1v2.2c0,0.1-0.1,0.1-0.1,0.1h-2.4
					C38.2,49.6,38.2,49.5,38.2,49.4z"/>
				<path class="st75" d="M38.2,49.4v-2.1c0-0.1,0.1-0.1,0.1-0.1h2.3c0.1,0,0.1,0.1,0.1,0.1v2.1c0,0.1-0.1,0.1-0.1,0.1h-2.3
					C38.2,49.6,38.2,49.5,38.2,49.4z"/>
				<path class="st113" d="M38.2,49.4v-2.1c0-0.1,0.1-0.1,0.1-0.1h2.3c0.1,0,0.1,0.1,0.1,0.1v2.1c0,0.1-0.1,0.1-0.1,0.1h-2.3
					C38.3,49.5,38.2,49.5,38.2,49.4z"/>
				<path class="st114" d="M38.2,49.4v-2.1c0-0.1,0.1-0.1,0.1-0.1h2.3c0.1,0,0.1,0.1,0.1,0.1v2.1c0,0.1-0.1,0.1-0.1,0.1h-2.3
					C38.3,49.5,38.2,49.5,38.2,49.4z"/>
				<path class="st115" d="M38.2,49.4v-2c0-0.1,0-0.1,0.1-0.1h2.2c0.1,0,0.1,0,0.1,0.1v2c0,0.1,0,0.1-0.1,0.1h-2.2
					C38.3,49.5,38.2,49.4,38.2,49.4z"/>
				<path class="st86" d="M38.3,49.4v-2c0-0.1,0-0.1,0.1-0.1h2.2c0.1,0,0.1,0,0.1,0.1v2c0,0.1,0,0.1-0.1,0.1h-2.2
					C38.3,49.5,38.3,49.4,38.3,49.4z"/>
				<path class="st116" d="M38.3,49.4v-2c0-0.1,0-0.1,0.1-0.1h2.2c0.1,0,0.1,0,0.1,0.1v2c0,0.1,0,0.1-0.1,0.1L38.3,49.4
					C38.3,49.5,38.3,49.4,38.3,49.4z"/>
				<path class="st117" d="M38.3,49.3v-2c0-0.1,0-0.1,0.1-0.1h2.2c0.1,0,0.1,0,0.1,0.1v2c0,0.1,0,0.1-0.1,0.1L38.3,49.3
					C38.3,49.4,38.3,49.4,38.3,49.3z"/>
				<path class="st118" d="M38.3,49.3v-1.9c0,0,0-0.1,0.1-0.1h2.1c0,0,0.1,0,0.1,0.1v1.9c0,0,0,0.1-0.1,0.1L38.3,49.3
					C38.4,49.4,38.3,49.4,38.3,49.3z"/>
				<path class="st97" d="M40.5,49.4h-2.1c0,0-0.1,0-0.1-0.1v-1.9c0,0,0-0.1,0.1-0.1h2.1c0,0,0.1,0,0.1,0.1L40.5,49.4
					C40.6,49.4,40.6,49.4,40.5,49.4z"/>
			</g>
			<g>
				<path class="st20" d="M37.8,63.2v-2.7c0-0.1,0.1-0.2,0.2-0.2h2.9c0.1,0,0.2,0.1,0.2,0.2v2.7c0,0.1-0.1,0.2-0.2,0.2H38
					C37.9,63.5,37.8,63.4,37.8,63.2z"/>
				<path class="st98" d="M37.8,63.2v-2.7c0-0.1,0.1-0.2,0.2-0.2h2.9c0.1,0,0.2,0.1,0.2,0.2v2.7c0,0.1-0.1,0.2-0.2,0.2H38
					C37.9,63.5,37.8,63.4,37.8,63.2z"/>
				<path class="st99" d="M37.8,63.2v-2.6c0-0.1,0.1-0.2,0.2-0.2h2.9c0.1,0,0.2,0.1,0.2,0.2v2.6c0,0.1-0.1,0.2-0.2,0.2H38
					C37.9,63.4,37.8,63.3,37.8,63.2z"/>
				<path class="st100" d="M37.8,63.2v-2.6c0-0.1,0.1-0.2,0.2-0.2h2.8c0.1,0,0.2,0.1,0.2,0.2v2.6c0,0.1-0.1,0.2-0.2,0.2h-2.8
					C37.9,63.4,37.8,63.3,37.8,63.2z"/>
				<path class="st31" d="M37.9,63.2v-2.6c0-0.1,0.1-0.2,0.2-0.2h2.8c0.1,0,0.2,0.1,0.2,0.2v2.6c0,0.1-0.1,0.2-0.2,0.2h-2.8
					C38,63.4,37.9,63.3,37.9,63.2z"/>
				<path class="st101" d="M37.9,63.2v-2.6c0-0.1,0.1-0.2,0.2-0.2h2.8c0.1,0,0.2,0.1,0.2,0.2v2.6c0,0.1-0.1,0.2-0.2,0.2h-2.8
					C38,63.4,37.9,63.3,37.9,63.2z"/>
				<path class="st102" d="M37.9,63.2v-2.5c0-0.1,0.1-0.2,0.2-0.2h2.7c0.1,0,0.2,0.1,0.2,0.2v2.5c0,0.1-0.1,0.2-0.2,0.2h-2.7
					C38,63.4,37.9,63.3,37.9,63.2z"/>
				<path class="st103" d="M37.9,63.1v-2.5c0-0.1,0.1-0.2,0.2-0.2h2.7c0.1,0,0.2,0.1,0.2,0.2v2.5c0,0.1-0.1,0.2-0.2,0.2h-2.7
					C38,63.3,37.9,63.3,37.9,63.1z"/>
				<path class="st42" d="M37.9,63.1v-2.5c0-0.1,0.1-0.2,0.2-0.2h2.7c0.1,0,0.2,0.1,0.2,0.2v2.5c0,0.1-0.1,0.2-0.2,0.2h-2.7
					C38,63.3,37.9,63.2,37.9,63.1z"/>
				<path class="st104" d="M38,63.1v-2.4c0-0.1,0.1-0.2,0.2-0.2h2.7c0.1,0,0.2,0.1,0.2,0.2v2.4c0,0.1-0.1,0.2-0.2,0.2h-2.7
					C38,63.3,38,63.2,38,63.1z"/>
				<path class="st105" d="M38,63.1v-2.4c0-0.1,0.1-0.2,0.2-0.2h2.6c0.1,0,0.2,0.1,0.2,0.2v2.4c0,0.1-0.1,0.2-0.2,0.2h-2.6
					C38.1,63.3,38,63.2,38,63.1z"/>
				<path class="st106" d="M38,63.1v-2.4c0-0.1,0.1-0.2,0.2-0.2h2.6c0.1,0,0.2,0.1,0.2,0.2v2.4c0,0.1-0.1,0.2-0.2,0.2h-2.6
					C38.1,63.3,38,63.2,38,63.1z"/>
				<path class="st53" d="M38,63.1v-2.4c0-0.1,0.1-0.2,0.2-0.2h2.6c0.1,0,0.2,0.1,0.2,0.2v2.4c0,0.1-0.1,0.2-0.2,0.2h-2.6
					C38.1,63.2,38,63.2,38,63.1z"/>
				<path class="st107" d="M38,63.1v-2.3c0-0.1,0.1-0.2,0.2-0.2h2.5c0.1,0,0.2,0.1,0.2,0.2v2.3c0,0.1-0.1,0.2-0.2,0.2h-2.5
					C38.1,63.2,38,63.1,38,63.1z"/>
				<path class="st108" d="M38.1,63v-2.3c0-0.1,0.1-0.2,0.2-0.2h2.5c0.1,0,0.2,0.1,0.2,0.2V63c0,0.1-0.1,0.2-0.2,0.2h-2.5
					C38.1,63.2,38.1,63.1,38.1,63z"/>
				<path class="st109" d="M38.1,63v-2.3c0-0.1,0.1-0.2,0.2-0.2h2.5c0.1,0,0.2,0.1,0.2,0.2V63c0,0.1-0.1,0.2-0.2,0.2h-2.5
					C38.2,63.2,38.1,63.1,38.1,63z"/>
				<path class="st64" d="M38.1,63v-2.2c0-0.1,0.1-0.1,0.1-0.1h2.4c0.1,0,0.1,0.1,0.1,0.1V63c0,0.1-0.1,0.1-0.1,0.1h-2.4
					C38.2,63.2,38.1,63.1,38.1,63z"/>
				<path class="st110" d="M38.1,63v-2.2c0-0.1,0.1-0.1,0.1-0.1h2.4c0.1,0,0.1,0.1,0.1,0.1V63c0,0.1-0.1,0.1-0.1,0.1h-2.4
					C38.2,63.1,38.1,63.1,38.1,63z"/>
				<path class="st111" d="M38.1,63v-2.2c0-0.1,0.1-0.1,0.1-0.1h2.4c0.1,0,0.1,0.1,0.1,0.1V63c0,0.1-0.1,0.1-0.1,0.1h-2.4
					C38.2,63.1,38.1,63.1,38.1,63z"/>
				<path class="st112" d="M38.2,63v-2.2c0-0.1,0.1-0.1,0.1-0.1h2.4c0.1,0,0.1,0.1,0.1,0.1V63c0,0.1-0.1,0.1-0.1,0.1h-2.4
					C38.2,63.1,38.2,63,38.2,63z"/>
				<path class="st75" d="M38.2,63v-2.1c0-0.1,0.1-0.1,0.1-0.1h2.3c0.1,0,0.1,0.1,0.1,0.1V63c0,0.1-0.1,0.1-0.1,0.1h-2.3
					C38.2,63.1,38.2,63,38.2,63z"/>
				<path class="st113" d="M38.2,62.9v-2.1c0-0.1,0.1-0.1,0.1-0.1h2.3c0.1,0,0.1,0.1,0.1,0.1v2.1c0,0.1-0.1,0.1-0.1,0.1h-2.3
					C38.3,63.1,38.2,63,38.2,62.9z"/>
				<path class="st114" d="M38.2,62.9v-2.1c0-0.1,0.1-0.1,0.1-0.1h2.3c0.1,0,0.1,0.1,0.1,0.1v2.1c0,0.1-0.1,0.1-0.1,0.1h-2.3
					C38.3,63,38.2,63,38.2,62.9z"/>
				<path class="st115" d="M38.2,62.9v-2c0-0.1,0-0.1,0.1-0.1h2.2c0.1,0,0.1,0,0.1,0.1v2c0,0.1,0,0.1-0.1,0.1h-2.2
					C38.3,63,38.2,63,38.2,62.9z"/>
				<path class="st86" d="M38.3,62.9v-2c0-0.1,0-0.1,0.1-0.1h2.2c0.1,0,0.1,0,0.1,0.1v2c0,0.1,0,0.1-0.1,0.1h-2.2
					C38.3,63,38.3,63,38.3,62.9z"/>
				<path class="st116" d="M38.3,62.9v-2c0-0.1,0-0.1,0.1-0.1h2.2c0.1,0,0.1,0,0.1,0.1v2c0,0.1,0,0.1-0.1,0.1L38.3,62.9
					C38.3,63,38.3,62.9,38.3,62.9z"/>
				<path class="st117" d="M38.3,62.9v-2c0-0.1,0-0.1,0.1-0.1h2.2c0.1,0,0.1,0,0.1,0.1v2c0,0.1,0,0.1-0.1,0.1L38.3,62.9
					C38.3,63,38.3,62.9,38.3,62.9z"/>
				<path class="st118" d="M38.3,62.9v-1.9c0,0,0-0.1,0.1-0.1h2.1c0,0,0.1,0,0.1,0.1v1.9c0,0,0,0.1-0.1,0.1L38.3,62.9
					C38.4,62.9,38.3,62.9,38.3,62.9z"/>
				<path class="st97" d="M40.5,62.9h-2.1c0,0-0.1,0-0.1-0.1v-1.9c0,0,0-0.1,0.1-0.1h2.1c0,0,0.1,0,0.1,0.1L40.5,62.9
					C40.6,62.9,40.6,62.9,40.5,62.9z"/>
			</g>
			<g>
				<g>
					<path class="st20" d="M61.1,39.2h-2.2c0,0-0.1,0-0.1-0.1v-1.5c0,0,0-0.1,0.1-0.1h2.2c0,0,0.1,0,0.1,0.1L61.1,39.2
						C61.2,39.2,61.2,39.2,61.1,39.2z"/>
					<path class="st119" d="M61.1,39.2h-2.2c0,0-0.1,0-0.1-0.1v-1.5c0,0,0-0.1,0.1-0.1h2.2c0,0,0.1,0,0.1,0.1L61.1,39.2
						C61.2,39.2,61.2,39.2,61.1,39.2z"/>
					<path class="st120" d="M61.1,39.2h-2.2c0,0-0.1,0-0.1-0.1v-1.5c0,0,0-0.1,0.1-0.1h2.2c0,0,0.1,0,0.1,0.1L61.1,39.2
						C61.2,39.2,61.2,39.2,61.1,39.2z"/>
					<path class="st121" d="M61.1,39.2h-2.2c0,0-0.1,0-0.1-0.1v-1.5c0,0,0-0.1,0.1-0.1h2.2c0,0,0.1,0,0.1,0.1L61.1,39.2
						C61.2,39.2,61.2,39.2,61.1,39.2z"/>
					<path class="st122" d="M61.1,39.2H59c0,0-0.1,0-0.1-0.1v-1.5c0,0,0-0.1,0.1-0.1h2.2c0,0,0.1,0,0.1,0.1L61.1,39.2
						C61.2,39.2,61.2,39.2,61.1,39.2z"/>
					<path class="st123" d="M61.1,39.2H59c0,0-0.1,0-0.1-0.1v-1.5c0,0,0-0.1,0.1-0.1h2.2c0,0,0.1,0,0.1,0.1L61.1,39.2
						C61.2,39.2,61.2,39.2,61.1,39.2z"/>
					<path class="st124" d="M61.1,39.2H59c0,0-0.1,0-0.1-0.1v-1.4c0,0,0-0.1,0.1-0.1h2.2c0,0,0.1,0,0.1,0.1L61.1,39.2
						C61.2,39.2,61.2,39.2,61.1,39.2z"/>
					<path class="st125" d="M61.1,39.2H59c0,0-0.1,0-0.1-0.1v-1.4c0,0,0-0.1,0.1-0.1h2.2c0,0,0.1,0,0.1,0.1L61.1,39.2
						C61.2,39.2,61.1,39.2,61.1,39.2z"/>
					<path class="st126" d="M61.1,39.2H59c0,0-0.1,0-0.1-0.1v-1.4c0,0,0-0.1,0.1-0.1h2.2c0,0,0.1,0,0.1,0.1L61.1,39.2
						C61.2,39.2,61.1,39.2,61.1,39.2z"/>
					<path class="st127" d="M61.1,39.2H59c0,0-0.1,0-0.1-0.1v-1.4c0,0,0-0.1,0.1-0.1h2.2c0,0,0.1,0,0.1,0.1L61.1,39.2
						C61.2,39.2,61.1,39.2,61.1,39.2z"/>
					<path class="st128" d="M61.1,39.2H59c0,0-0.1,0-0.1-0.1v-1.4c0,0,0-0.1,0.1-0.1h2.1c0,0,0.1,0,0.1,0.1L61.1,39.2
						C61.2,39.2,61.1,39.2,61.1,39.2z"/>
					<path class="st129" d="M61.1,39.2H59c0,0-0.1,0-0.1-0.1v-1.4c0,0,0-0.1,0.1-0.1h2.1c0,0,0.1,0,0.1,0.1L61.1,39.2
						C61.2,39.2,61.1,39.2,61.1,39.2z"/>
					<path class="st130" d="M61.1,39.2H59c0,0-0.1,0-0.1-0.1v-1.4c0,0,0-0.1,0.1-0.1h2.1c0,0,0.1,0,0.1,0.1L61.1,39.2
						C61.2,39.2,61.1,39.2,61.1,39.2z"/>
					<path class="st131" d="M61.1,39.2H59c0,0-0.1,0-0.1-0.1v-1.4c0,0,0-0.1,0.1-0.1h2.1c0,0,0.1,0,0.1,0.1L61.1,39.2
						C61.2,39.2,61.1,39.2,61.1,39.2z"/>
					<path class="st132" d="M61.1,39.2H59c0,0-0.1,0-0.1-0.1v-1.4c0,0,0-0.1,0.1-0.1h2.1c0,0,0.1,0,0.1,0.1L61.1,39.2
						C61.1,39.2,61.1,39.2,61.1,39.2z"/>
					<path class="st133" d="M61.1,39.2H59c0,0-0.1,0-0.1-0.1v-1.4c0,0,0-0.1,0.1-0.1h2.1c0,0,0.1,0,0.1,0.1L61.1,39.2
						C61.1,39.2,61.1,39.2,61.1,39.2z"/>
					<path class="st134" d="M61.1,39.2H59c0,0-0.1,0-0.1-0.1v-1.4c0,0,0-0.1,0.1-0.1h2.1c0,0,0.1,0,0.1,0.1L61.1,39.2
						C61.1,39.2,61.1,39.2,61.1,39.2z"/>
					<path class="st135" d="M61.1,39.2H59c0,0-0.1,0-0.1-0.1v-1.4c0,0,0-0.1,0.1-0.1h2.1c0,0,0.1,0,0.1,0.1L61.1,39.2
						C61.1,39.2,61.1,39.2,61.1,39.2z"/>
					<path class="st136" d="M61.1,39.2H59c0,0-0.1,0-0.1-0.1v-1.4c0,0,0-0.1,0.1-0.1h2.1c0,0,0.1,0,0.1,0.1L61.1,39.2
						C61.1,39.2,61.1,39.2,61.1,39.2z"/>
					<path class="st137" d="M61.1,39.2H59c0,0-0.1,0-0.1-0.1v-1.4c0,0,0-0.1,0.1-0.1h2.1c0,0,0.1,0,0.1,0.1L61.1,39.2
						C61.1,39.1,61.1,39.2,61.1,39.2z"/>
					<path class="st138" d="M61.1,39.2H59c0,0-0.1,0-0.1-0.1v-1.4c0,0,0-0.1,0.1-0.1h2.1c0,0,0.1,0,0.1,0.1L61.1,39.2
						C61.1,39.1,61.1,39.2,61.1,39.2z"/>
					<path class="st139" d="M61.1,39.2H59c0,0-0.1,0-0.1-0.1v-1.4c0,0,0-0.1,0.1-0.1h2.1c0,0,0.1,0,0.1,0.1L61.1,39.2
						C61.1,39.1,61.1,39.2,61.1,39.2z"/>
					<path class="st140" d="M61.1,39.2H59c0,0,0,0,0,0v-1.4c0,0,0,0,0,0h2.1c0,0,0,0,0,0L61.1,39.2C61.1,39.1,61.1,39.2,61.1,39.2z"
						/>
					<path class="st141" d="M61.1,39.2H59c0,0,0,0,0,0v-1.4c0,0,0,0,0,0h2.1c0,0,0,0,0,0L61.1,39.2C61.1,39.1,61.1,39.2,61.1,39.2z"
						/>
					<path class="st142" d="M61.1,39.2H59c0,0,0,0,0,0v-1.3c0,0,0,0,0,0h2.1c0,0,0,0,0,0L61.1,39.2C61.1,39.1,61.1,39.2,61.1,39.2z"
						/>
					<path class="st143" d="M61.1,39.2H59c0,0,0,0,0,0v-1.3c0,0,0,0,0,0h2.1c0,0,0,0,0,0L61.1,39.2C61.1,39.1,61.1,39.2,61.1,39.2z"
						/>
					<path class="st144" d="M61.1,39.1H59c0,0,0,0,0,0v-1.3c0,0,0,0,0,0h2.1c0,0,0,0,0,0L61.1,39.1C61.1,39.1,61.1,39.1,61.1,39.1z"
						/>
					<path class="st145" d="M61.1,39.1h-2c0,0,0,0,0,0v-1.3c0,0,0,0,0,0h2c0,0,0,0,0,0L61.1,39.1C61.1,39.1,61.1,39.1,61.1,39.1z"/>
					<path class="st146" d="M61,39.1h-2c0,0,0,0,0,0v-1.3c0,0,0,0,0,0h2c0,0,0,0,0,0L61,39.1C61.1,39.1,61.1,39.1,61,39.1z"/>
					<path class="st147" d="M61,39.1h-2c0,0,0,0,0,0v-1.3c0,0,0,0,0,0h2c0,0,0,0,0,0L61,39.1C61.1,39.1,61.1,39.1,61,39.1z"/>
					<path class="st148" d="M61,39.1h-2c0,0,0,0,0,0v-1.3c0,0,0,0,0,0h2c0,0,0,0,0,0L61,39.1C61.1,39.1,61.1,39.1,61,39.1z"/>
					<path class="st149" d="M61,39.1h-2c0,0,0,0,0,0v-1.3c0,0,0,0,0,0h2c0,0,0,0,0,0L61,39.1C61.1,39.1,61.1,39.1,61,39.1z"/>
				</g>
				<path class="st150" d="M61,39.1h-2c0,0,0,0,0,0v-1.3c0,0,0,0,0,0h2c0,0,0,0,0,0L61,39.1C61.1,39.1,61.1,39.1,61,39.1z"/>
				<linearGradient id="SVGID_8_" gradientUnits="userSpaceOnUse" x1="58.9822" y1="38.4353" x2="61.0842" y2="38.4353">
					<stop  offset="0" style="stop-color:#CCCCCC"/>
					<stop  offset="1.449600e-02" style="stop-color:#DEDEDE"/>
					<stop  offset="3.518180e-02" style="stop-color:#F0F0F0"/>
					<stop  offset="5.672836e-02" style="stop-color:#FBFBFB"/>
					<stop  offset="8.031090e-02" style="stop-color:#FFFFFF"/>
					<stop  offset="0.1374" style="stop-color:#FFFFFF"/>
					<stop  offset="0.4845" style="stop-color:#FFFFFF"/>
					<stop  offset="0.8626" style="stop-color:#FFFFFF"/>
					<stop  offset="0.9249" style="stop-color:#FFFFFF"/>
					<stop  offset="0.9464" style="stop-color:#FBFBFB"/>
					<stop  offset="0.967" style="stop-color:#F0F0F0"/>
					<stop  offset="0.9871" style="stop-color:#DCDCDC"/>
					<stop  offset="1" style="stop-color:#CCCCCC"/>
				</linearGradient>
				<path class="st151" d="M61,39.1h-2c0,0,0,0,0,0v-1.3c0,0,0,0,0,0h2c0,0,0,0,0,0L61,39.1C61.1,39.1,61.1,39.1,61,39.1z"/>
				<linearGradient id="SVGID_9_" gradientUnits="userSpaceOnUse" x1="60.0332" y1="39.1406" x2="60.0332" y2="37.7365">
					<stop  offset="0" style="stop-color:#CCCCCC"/>
					<stop  offset="1.449600e-02" style="stop-color:#DEDEDE"/>
					<stop  offset="3.518180e-02" style="stop-color:#F0F0F0"/>
					<stop  offset="5.672836e-02" style="stop-color:#FBFBFB"/>
					<stop  offset="8.031090e-02" style="stop-color:#FFFFFF"/>
					<stop  offset="0.1374" style="stop-color:#FFFFFF"/>
					<stop  offset="0.4845" style="stop-color:#FFFFFF"/>
					<stop  offset="0.8626" style="stop-color:#FFFFFF"/>
					<stop  offset="0.9249" style="stop-color:#FFFFFF"/>
					<stop  offset="0.9464" style="stop-color:#FBFBFB"/>
					<stop  offset="0.967" style="stop-color:#F0F0F0"/>
					<stop  offset="0.9871" style="stop-color:#DCDCDC"/>
					<stop  offset="1" style="stop-color:#CCCCCC"/>
				</linearGradient>
				<path class="st152" d="M61,39.1h-2c0,0,0,0,0,0v-1.3c0,0,0,0,0,0h2c0,0,0,0,0,0L61,39.1C61.1,39.1,61.1,39.1,61,39.1z"/>
				<rect x="59.6" y="38.3" width="1" height="0.2"/>
			</g>
			<g>
				<g>
					<path class="st20" d="M69.1,39.2h-2.2c0,0-0.1,0-0.1-0.1v-1.5c0,0,0-0.1,0.1-0.1h2.2c0,0,0.1,0,0.1,0.1L69.1,39.2
						C69.1,39.2,69.1,39.2,69.1,39.2z"/>
					<path class="st119" d="M69.1,39.2h-2.2c0,0-0.1,0-0.1-0.1v-1.5c0,0,0-0.1,0.1-0.1h2.2c0,0,0.1,0,0.1,0.1L69.1,39.2
						C69.1,39.2,69.1,39.2,69.1,39.2z"/>
					<path class="st120" d="M69,39.2h-2.2c0,0-0.1,0-0.1-0.1v-1.5c0,0,0-0.1,0.1-0.1H69c0,0,0.1,0,0.1,0.1L69,39.2
						C69.1,39.2,69.1,39.2,69,39.2z"/>
					<path class="st121" d="M69,39.2h-2.2c0,0-0.1,0-0.1-0.1v-1.5c0,0,0-0.1,0.1-0.1H69c0,0,0.1,0,0.1,0.1L69,39.2
						C69.1,39.2,69.1,39.2,69,39.2z"/>
					<path class="st122" d="M69,39.2h-2.2c0,0-0.1,0-0.1-0.1v-1.5c0,0,0-0.1,0.1-0.1H69c0,0,0.1,0,0.1,0.1L69,39.2
						C69.1,39.2,69.1,39.2,69,39.2z"/>
					<path class="st123" d="M69,39.2h-2.2c0,0-0.1,0-0.1-0.1v-1.5c0,0,0-0.1,0.1-0.1H69c0,0,0.1,0,0.1,0.1L69,39.2
						C69.1,39.2,69.1,39.2,69,39.2z"/>
					<path class="st124" d="M69,39.2h-2.2c0,0-0.1,0-0.1-0.1v-1.4c0,0,0-0.1,0.1-0.1H69c0,0,0.1,0,0.1,0.1L69,39.2
						C69.1,39.2,69.1,39.2,69,39.2z"/>
					<path class="st125" d="M69,39.2h-2.2c0,0-0.1,0-0.1-0.1v-1.4c0,0,0-0.1,0.1-0.1H69c0,0,0.1,0,0.1,0.1L69,39.2
						C69.1,39.2,69.1,39.2,69,39.2z"/>
					<path class="st126" d="M69,39.2h-2.2c0,0-0.1,0-0.1-0.1v-1.4c0,0,0-0.1,0.1-0.1H69c0,0,0.1,0,0.1,0.1L69,39.2
						C69.1,39.2,69.1,39.2,69,39.2z"/>
					<path class="st127" d="M69,39.2h-2.2c0,0-0.1,0-0.1-0.1v-1.4c0,0,0-0.1,0.1-0.1H69c0,0,0.1,0,0.1,0.1L69,39.2
						C69.1,39.2,69.1,39.2,69,39.2z"/>
					<path class="st128" d="M69,39.2h-2.1c0,0-0.1,0-0.1-0.1v-1.4c0,0,0-0.1,0.1-0.1H69c0,0,0.1,0,0.1,0.1L69,39.2
						C69.1,39.2,69.1,39.2,69,39.2z"/>
					<path class="st129" d="M69,39.2h-2.1c0,0-0.1,0-0.1-0.1v-1.4c0,0,0-0.1,0.1-0.1H69c0,0,0.1,0,0.1,0.1L69,39.2
						C69.1,39.2,69,39.2,69,39.2z"/>
					<path class="st130" d="M69,39.2h-2.1c0,0-0.1,0-0.1-0.1v-1.4c0,0,0-0.1,0.1-0.1H69c0,0,0.1,0,0.1,0.1L69,39.2
						C69.1,39.2,69,39.2,69,39.2z"/>
					<path class="st131" d="M69,39.2h-2.1c0,0-0.1,0-0.1-0.1v-1.4c0,0,0-0.1,0.1-0.1H69c0,0,0.1,0,0.1,0.1L69,39.2
						C69.1,39.2,69,39.2,69,39.2z"/>
					<path class="st132" d="M69,39.2h-2.1c0,0-0.1,0-0.1-0.1v-1.4c0,0,0-0.1,0.1-0.1H69c0,0,0.1,0,0.1,0.1L69,39.2
						C69.1,39.2,69,39.2,69,39.2z"/>
					<path class="st133" d="M69,39.2h-2.1c0,0-0.1,0-0.1-0.1v-1.4c0,0,0-0.1,0.1-0.1H69c0,0,0.1,0,0.1,0.1L69,39.2
						C69.1,39.2,69,39.2,69,39.2z"/>
					<path class="st134" d="M69,39.2h-2.1c0,0-0.1,0-0.1-0.1v-1.4c0,0,0-0.1,0.1-0.1H69c0,0,0.1,0,0.1,0.1L69,39.2
						C69.1,39.2,69,39.2,69,39.2z"/>
					<path class="st135" d="M69,39.2h-2.1c0,0-0.1,0-0.1-0.1v-1.4c0,0,0-0.1,0.1-0.1H69c0,0,0.1,0,0.1,0.1L69,39.2
						C69,39.2,69,39.2,69,39.2z"/>
					<path class="st136" d="M69,39.2h-2.1c0,0-0.1,0-0.1-0.1v-1.4c0,0,0-0.1,0.1-0.1H69c0,0,0.1,0,0.1,0.1L69,39.2
						C69,39.2,69,39.2,69,39.2z"/>
					<path class="st137" d="M69,39.2h-2.1c0,0-0.1,0-0.1-0.1v-1.4c0,0,0-0.1,0.1-0.1H69c0,0,0.1,0,0.1,0.1L69,39.2
						C69,39.1,69,39.2,69,39.2z"/>
					<path class="st138" d="M69,39.2h-2.1c0,0-0.1,0-0.1-0.1v-1.4c0,0,0-0.1,0.1-0.1H69c0,0,0.1,0,0.1,0.1L69,39.2
						C69,39.1,69,39.2,69,39.2z"/>
					<path class="st139" d="M69,39.2h-2.1c0,0-0.1,0-0.1-0.1v-1.4c0,0,0-0.1,0.1-0.1H69c0,0,0.1,0,0.1,0.1L69,39.2
						C69,39.1,69,39.2,69,39.2z"/>
					<path class="st140" d="M69,39.2h-2.1c0,0,0,0,0,0v-1.4c0,0,0,0,0,0H69c0,0,0,0,0,0L69,39.2C69,39.1,69,39.2,69,39.2z"/>
					<path class="st141" d="M69,39.2h-2.1c0,0,0,0,0,0v-1.4c0,0,0,0,0,0H69c0,0,0,0,0,0L69,39.2C69,39.1,69,39.2,69,39.2z"/>
					<path class="st142" d="M69,39.2h-2.1c0,0,0,0,0,0v-1.3c0,0,0,0,0,0H69c0,0,0,0,0,0L69,39.2C69,39.1,69,39.2,69,39.2z"/>
					<path class="st143" d="M69,39.2h-2.1c0,0,0,0,0,0v-1.3c0,0,0,0,0,0H69c0,0,0,0,0,0L69,39.2C69,39.1,69,39.2,69,39.2z"/>
					<path class="st144" d="M69,39.1h-2.1c0,0,0,0,0,0v-1.3c0,0,0,0,0,0H69c0,0,0,0,0,0L69,39.1C69,39.1,69,39.1,69,39.1z"/>
					<path class="st145" d="M69,39.1h-2c0,0,0,0,0,0v-1.3c0,0,0,0,0,0h2c0,0,0,0,0,0L69,39.1C69,39.1,69,39.1,69,39.1z"/>
					<path class="st146" d="M69,39.1h-2c0,0,0,0,0,0v-1.3c0,0,0,0,0,0h2c0,0,0,0,0,0L69,39.1C69,39.1,69,39.1,69,39.1z"/>
					<path class="st147" d="M69,39.1h-2c0,0,0,0,0,0v-1.3c0,0,0,0,0,0h2c0,0,0,0,0,0L69,39.1C69,39.1,69,39.1,69,39.1z"/>
					<path class="st148" d="M69,39.1h-2c0,0,0,0,0,0v-1.3c0,0,0,0,0,0h2c0,0,0,0,0,0L69,39.1C69,39.1,69,39.1,69,39.1z"/>
					<path class="st149" d="M68.9,39.1h-2c0,0,0,0,0,0v-1.3c0,0,0,0,0,0h2c0,0,0,0,0,0L68.9,39.1C69,39.1,69,39.1,68.9,39.1z"/>
				</g>
				<path class="st150" d="M68.9,39.1h-2c0,0,0,0,0,0v-1.3c0,0,0,0,0,0h2c0,0,0,0,0,0L68.9,39.1C69,39.1,69,39.1,68.9,39.1z"/>
				
					<linearGradient id="SVGID_10_" gradientUnits="userSpaceOnUse" x1="31.1389" y1="38.4353" x2="33.2408" y2="38.4353" gradientTransform="matrix(1 0 0 1 35.7555 0)">
					<stop  offset="0" style="stop-color:#CCCCCC"/>
					<stop  offset="1.449600e-02" style="stop-color:#DEDEDE"/>
					<stop  offset="3.518180e-02" style="stop-color:#F0F0F0"/>
					<stop  offset="5.672836e-02" style="stop-color:#FBFBFB"/>
					<stop  offset="8.031090e-02" style="stop-color:#FFFFFF"/>
					<stop  offset="0.1374" style="stop-color:#FFFFFF"/>
					<stop  offset="0.4845" style="stop-color:#FFFFFF"/>
					<stop  offset="0.8626" style="stop-color:#FFFFFF"/>
					<stop  offset="0.9249" style="stop-color:#FFFFFF"/>
					<stop  offset="0.9464" style="stop-color:#FBFBFB"/>
					<stop  offset="0.967" style="stop-color:#F0F0F0"/>
					<stop  offset="0.9871" style="stop-color:#DCDCDC"/>
					<stop  offset="1" style="stop-color:#CCCCCC"/>
				</linearGradient>
				<path class="st153" d="M68.9,39.1h-2c0,0,0,0,0,0v-1.3c0,0,0,0,0,0h2c0,0,0,0,0,0L68.9,39.1C69,39.1,69,39.1,68.9,39.1z"/>
				
					<linearGradient id="SVGID_11_" gradientUnits="userSpaceOnUse" x1="32.1899" y1="39.1374" x2="32.1899" y2="37.7333" gradientTransform="matrix(1 0 0 1 35.7555 0)">
					<stop  offset="0" style="stop-color:#CCCCCC"/>
					<stop  offset="1.449600e-02" style="stop-color:#DEDEDE"/>
					<stop  offset="3.518180e-02" style="stop-color:#F0F0F0"/>
					<stop  offset="5.672836e-02" style="stop-color:#FBFBFB"/>
					<stop  offset="8.031090e-02" style="stop-color:#FFFFFF"/>
					<stop  offset="0.1374" style="stop-color:#FFFFFF"/>
					<stop  offset="0.4845" style="stop-color:#FFFFFF"/>
					<stop  offset="0.8626" style="stop-color:#FFFFFF"/>
					<stop  offset="0.9249" style="stop-color:#FFFFFF"/>
					<stop  offset="0.9464" style="stop-color:#FBFBFB"/>
					<stop  offset="0.967" style="stop-color:#F0F0F0"/>
					<stop  offset="0.9871" style="stop-color:#DCDCDC"/>
					<stop  offset="1" style="stop-color:#CCCCCC"/>
				</linearGradient>
				<path class="st154" d="M68.9,39.1h-2c0,0,0,0,0,0v-1.3c0,0,0,0,0,0h2c0,0,0,0,0,0L68.9,39.1C69,39.1,69,39.1,68.9,39.1z"/>
				<polygon points="68.4,38.3 68,38.3 68,38 67.9,38 67.9,38.3 67.5,38.3 67.5,38.5 67.9,38.5 67.9,38.9 68,38.9 68,38.5 
					68.4,38.5 				"/>
			</g>
			<linearGradient id="SVGID_12_" gradientUnits="userSpaceOnUse" x1="40.0196" y1="55.1218" x2="42.692" y2="55.1218">
				<stop  offset="0" style="stop-color:#808080"/>
				<stop  offset="9.629603e-03" style="stop-color:#A0A0A0"/>
				<stop  offset="2.091324e-02" style="stop-color:#BDBDBD"/>
				<stop  offset="3.288168e-02" style="stop-color:#D5D5D5"/>
				<stop  offset="4.567169e-02" style="stop-color:#E5E5E5"/>
				<stop  offset="5.985850e-02" style="stop-color:#EFEFEF"/>
				<stop  offset="7.822311e-02" style="stop-color:#F2F2F2"/>
				<stop  offset="0.2193" style="stop-color:#EAEAEA"/>
				<stop  offset="0.6668" style="stop-color:#D4D4D4"/>
				<stop  offset="0.9564" style="stop-color:#CCCCCC"/>
			</linearGradient>
			<path class="st155" d="M42.1,64.5h-2.3c0,0-0.1,0-0.1-0.1V45.8c0,0,0-0.1,0.1-0.1h2.3c0,0,0.1,0,0.1,0.1L42.1,64.5
				C42.2,64.4,42.2,64.5,42.1,64.5z"/>
			<linearGradient id="SVGID_13_" gradientUnits="userSpaceOnUse" x1="37.7776" y1="48.3539" x2="39.6898" y2="48.3539">
				<stop  offset="0" style="stop-color:#808080"/>
				<stop  offset="1.371041e-02" style="stop-color:#888888"/>
				<stop  offset="8.252730e-02" style="stop-color:#ACACAC"/>
				<stop  offset="0.155" style="stop-color:#CACACA"/>
				<stop  offset="0.2311" style="stop-color:#E2E2E2"/>
				<stop  offset="0.3124" style="stop-color:#F2F2F2"/>
				<stop  offset="0.4027" style="stop-color:#FCFCFC"/>
				<stop  offset="0.5194" style="stop-color:#FFFFFF"/>
				<stop  offset="0.7347" style="stop-color:#FDFDFD"/>
				<stop  offset="0.8122" style="stop-color:#F6F6F6"/>
				<stop  offset="0.8675" style="stop-color:#EBEBEB"/>
				<stop  offset="0.9122" style="stop-color:#DADADA"/>
				<stop  offset="0.9505" style="stop-color:#C4C4C4"/>
				<stop  offset="0.9838" style="stop-color:#A9A9A9"/>
				<stop  offset="1" style="stop-color:#999999"/>
			</linearGradient>
			<path class="st156" d="M39.7,49.4h-1.8c0,0-0.1,0-0.1-0.1v-1.9c0,0,0-0.1,0.1-0.1h1.8V49.4z"/>
			
				<linearGradient id="SVGID_14_" gradientUnits="userSpaceOnUse" x1="37.7776" y1="191.3269" x2="39.6898" y2="191.3269" gradientTransform="matrix(1 0 0 -1 0 253.2165)">
				<stop  offset="0" style="stop-color:#808080"/>
				<stop  offset="1.371041e-02" style="stop-color:#888888"/>
				<stop  offset="8.252730e-02" style="stop-color:#ACACAC"/>
				<stop  offset="0.155" style="stop-color:#CACACA"/>
				<stop  offset="0.2311" style="stop-color:#E2E2E2"/>
				<stop  offset="0.3124" style="stop-color:#F2F2F2"/>
				<stop  offset="0.4027" style="stop-color:#FCFCFC"/>
				<stop  offset="0.5194" style="stop-color:#FFFFFF"/>
				<stop  offset="0.7347" style="stop-color:#FDFDFD"/>
				<stop  offset="0.8122" style="stop-color:#F6F6F6"/>
				<stop  offset="0.8675" style="stop-color:#EBEBEB"/>
				<stop  offset="0.9122" style="stop-color:#DADADA"/>
				<stop  offset="0.9505" style="stop-color:#C4C4C4"/>
				<stop  offset="0.9838" style="stop-color:#A9A9A9"/>
				<stop  offset="1" style="stop-color:#999999"/>
			</linearGradient>
			<path class="st157" d="M39.7,60.9h-1.8c0,0-0.1,0-0.1,0.1v1.9c0,0,0,0.1,0.1,0.1h1.8V60.9z"/>
		</g>
		<g>
			<g>
				<g>
					<path class="st158" d="M74.6,78c-0.1,0-0.2,0-0.3-0.1L53.1,65.7c-0.3-0.2-0.4-0.5-0.2-0.8c0.2-0.3,0.5-0.4,0.8-0.2L74.9,77
						c0.3,0.2,0.4,0.5,0.2,0.8C75,77.9,74.8,78,74.6,78z"/>
				</g>
				<g>
					<g>
						<path class="st158" d="M70.9,81.2c-0.3,0-0.6-0.2-0.6-0.6l-0.1-5.3c0-0.3,0.2-0.6,0.6-0.6c0.3,0,0.6,0.2,0.6,0.6l0.1,5.3
							C71.5,80.9,71.3,81.2,70.9,81.2C70.9,81.2,70.9,81.2,70.9,81.2z"/>
					</g>
					<g>
						<path class="st158" d="M70.8,75.8c-0.2,0-0.4-0.1-0.5-0.3c-0.2-0.3-0.1-0.6,0.2-0.8l4.7-2.6c0.3-0.2,0.6-0.1,0.8,0.2
							c0.2,0.3,0.1,0.6-0.2,0.8l-4.7,2.6C71,75.8,70.9,75.8,70.8,75.8z"/>
					</g>
				</g>
				<g>
					<g>
						<path class="st158" d="M52.5,70.5c-0.2,0-0.4-0.1-0.5-0.3c-0.2-0.3-0.1-0.6,0.2-0.8l4.7-2.6c0.3-0.2,0.6-0.1,0.8,0.2
							c0.2,0.3,0.1,0.6-0.2,0.8l-4.7,2.6C52.7,70.5,52.6,70.5,52.5,70.5z"/>
					</g>
					<g>
						<path class="st158" d="M57.2,68c-0.3,0-0.6-0.2-0.6-0.6l-0.1-5.3c0-0.3,0.2-0.6,0.6-0.6c0.3,0,0.6,0.2,0.6,0.6l0.1,5.3
							C57.7,67.7,57.5,68,57.2,68C57.2,68,57.2,68,57.2,68z"/>
					</g>
				</g>
			</g>
			<g>
				<g>
					<path class="st158" d="M53.4,78c-0.2,0-0.4-0.1-0.5-0.3c-0.2-0.3-0.1-0.6,0.2-0.8l21.2-12.2c0.3-0.2,0.6-0.1,0.8,0.2
						c0.2,0.3,0.1,0.6-0.2,0.8L53.7,78C53.6,78,53.5,78,53.4,78z"/>
				</g>
				<g>
					<g>
						<path class="st158" d="M70.8,68C70.8,68,70.8,68,70.8,68c-0.3,0-0.6-0.3-0.6-0.6l0.1-5.3c0-0.3,0.3-0.6,0.6-0.6
							c0.3,0,0.6,0.3,0.6,0.6l-0.1,5.3C71.4,67.7,71.1,68,70.8,68z"/>
					</g>
					<g>
						<path class="st158" d="M75.5,70.5c-0.1,0-0.2,0-0.3-0.1l-4.7-2.6c-0.3-0.2-0.4-0.5-0.2-0.8c0.2-0.3,0.5-0.4,0.8-0.2l4.7,2.6
							c0.3,0.2,0.4,0.5,0.2,0.8C75.9,70.4,75.7,70.5,75.5,70.5z"/>
					</g>
				</g>
				<g>
					<g>
						<path class="st158" d="M57.2,75.8c-0.1,0-0.2,0-0.3-0.1l-4.7-2.6C52,73,51.9,72.7,52,72.4s0.5-0.4,0.8-0.2l4.7,2.6
							c0.3,0.2,0.4,0.5,0.2,0.8C57.6,75.7,57.4,75.8,57.2,75.8z"/>
					</g>
					<g>
						<path class="st158" d="M57.1,81.2C57.1,81.2,57.1,81.2,57.1,81.2c-0.3,0-0.6-0.3-0.6-0.6l0.1-5.3c0-0.3,0.3-0.6,0.6-0.6
							c0.3,0,0.6,0.3,0.6,0.6l-0.1,5.3C57.6,80.9,57.4,81.2,57.1,81.2z"/>
					</g>
				</g>
			</g>
			<g>
				<g>
					<path class="st158" d="M64,84.2c-0.3,0-0.6-0.3-0.6-0.6V59.1c0-0.3,0.3-0.6,0.6-0.6s0.6,0.3,0.6,0.6v24.5
						C64.6,83.9,64.3,84.2,64,84.2z"/>
				</g>
				<g>
					<g>
						<path class="st158" d="M64,64c-0.1,0-0.2,0-0.3-0.1l-4.6-2.7c-0.3-0.2-0.4-0.5-0.2-0.8c0.2-0.3,0.5-0.4,0.8-0.2l4.6,2.7
							c0.3,0.2,0.4,0.5,0.2,0.8C64.4,63.9,64.2,64,64,64z"/>
					</g>
					<g>
						<path class="st158" d="M64,64c-0.2,0-0.4-0.1-0.5-0.3c-0.2-0.3-0.1-0.6,0.2-0.8l4.6-2.7c0.3-0.2,0.6-0.1,0.8,0.2
							c0.2,0.3,0.1,0.6-0.2,0.8l-4.6,2.7C64.2,64,64.1,64,64,64z"/>
					</g>
				</g>
				<g>
					<g>
						<path class="st158" d="M59.4,82.5c-0.2,0-0.4-0.1-0.5-0.3c-0.2-0.3-0.1-0.6,0.2-0.8l4.6-2.7c0.3-0.2,0.6-0.1,0.8,0.2
							c0.2,0.3,0.1,0.6-0.2,0.8l-4.6,2.7C59.6,82.5,59.5,82.5,59.4,82.5z"/>
					</g>
					<g>
						<path class="st158" d="M68.6,82.5c-0.1,0-0.2,0-0.3-0.1l-4.6-2.7c-0.3-0.2-0.4-0.5-0.2-0.8c0.2-0.3,0.5-0.4,0.8-0.2l4.6,2.7
							c0.3,0.2,0.4,0.5,0.2,0.8C68.9,82.5,68.8,82.5,68.6,82.5z"/>
					</g>
				</g>
			</g>
		</g>
	</g>
</g>
</svg>
