<?xml version="1.0" encoding="UTF-8" standalone="no"?>
<!-- Generator: Adobe Illustrator 19.0.0, SVG Export Plug-In . SVG Version: 6.00 Build 0)  -->

<svg
   version="1.1"
   id="Layer_1"
   x="0px"
   y="0px"
   width="512" height="512"
   viewBox="0 0 512 512"
   style="enable-background:new 0 0 512 512;"
   xml:space="preserve"
   sodipodi:docname="syn_chauffage.svg"
   inkscape:version="1.4.2 (ebf0e940d0, 2025-05-08)"
   xmlns:inkscape="http://www.inkscape.org/namespaces/inkscape"
   xmlns:sodipodi="http://sodipodi.sourceforge.net/DTD/sodipodi-0.dtd"
   xmlns="http://www.w3.org/2000/svg"
   xmlns:svg="http://www.w3.org/2000/svg"><defs
   id="defs75">
	
	
	
	
</defs><sodipodi:namedview
   id="namedview73"
   pagecolor="#747474"
   bordercolor="#666666"
   borderopacity="1.0"
   inkscape:pageshadow="2"
   inkscape:pageopacity="0.0"
   inkscape:pagecheckerboard="true"
   showgrid="false"
   inkscape:zoom="1.03125"
   inkscape:cx="255.0303"
   inkscape:cy="234.66667"
   inkscape:window-width="1920"
   inkscape:window-height="1043"
   inkscape:window-x="0"
   inkscape:window-y="0"
   inkscape:window-maximized="1"
   inkscape:current-layer="Layer_1"
   inkscape:showpageshadow="2"
   inkscape:deskcolor="#d1d1d1" />







<ellipse
   style="fill:#13375b;fill-opacity:1;stroke:#ffc322;stroke-width:0.717534;stroke-dasharray:0.717534, 0.717534"
   id="path1"
   cx="255.9995"
   cy="256.00015"
   rx="255.642"
   ry="255.64191" /><g
   id="g2"
   transform="matrix(0.679706,0,0,0.679706,108.48011,87.385404)"><g
     id="g14"
     transform="matrix(1,0,0,1.0672032,3.2912158e-7,-24.998523)">
	<rect
   x="164.571"
   y="140.01601"
   style="fill:#e2563d"
   width="52.244999"
   height="31.347"
   id="rect2" />
	<rect
   x="60.082001"
   y="140.01601"
   style="fill:#e2563d"
   width="52.244999"
   height="31.347"
   id="rect4" />
	<rect
   x="269.061"
   y="140.01601"
   style="fill:#e2563d"
   width="52.244999"
   height="31.347"
   id="rect6" />
	<rect
   x="164.571"
   y="340.63699"
   style="fill:#e2563d"
   width="52.244999"
   height="31.347"
   id="rect8" />
	<rect
   x="60.082001"
   y="340.63699"
   style="fill:#e2563d"
   width="52.244999"
   height="31.347"
   id="rect10" />
	<rect
   x="269.061"
   y="340.63699"
   style="fill:#e2563d"
   width="52.244999"
   height="31.347"
   id="rect12" />
</g><path
     style="fill:#f4c0b3;fill-opacity:1"
     d="m 138.449,425.273 v 0 c -14.427,0 -26.122,-11.696 -26.122,-26.122 V 112.849 c 0,-14.427 11.696,-26.122 26.122,-26.122 v 0 c 14.427,0 26.122,11.696 26.122,26.122 v 286.302 c 0,14.427 -11.695,26.122 -26.122,26.122 z"
     id="path16" /><path
     style="fill:#f4c0b3;fill-opacity:1"
     d="m 242.939,425.273 v 0 c -14.427,0 -26.122,-11.696 -26.122,-26.122 V 112.849 c 0,-14.427 11.696,-26.122 26.122,-26.122 v 0 c 14.427,0 26.122,11.696 26.122,26.122 v 286.302 c 0,14.427 -11.695,26.122 -26.122,26.122 z"
     id="path18" /><path
     style="fill:#f4c0b3;fill-opacity:1"
     d="m 347.429,425.273 v 0 c -14.427,0 -26.122,-11.696 -26.122,-26.122 V 112.849 c 0,-14.427 11.696,-26.122 26.122,-26.122 v 0 c 14.427,0 26.122,11.696 26.122,26.122 v 286.302 c 0,14.427 -11.696,26.122 -26.122,26.122 z"
     id="path20" /><path
     style="fill:#f4c0b3;fill-opacity:1"
     d="m 33.959,425.273 v 0 c -14.427,0 -26.122,-11.696 -26.122,-26.122 V 112.849 c 0,-14.427 11.696,-26.122 26.122,-26.122 v 0 c 14.427,0 26.122,11.696 26.122,26.122 v 286.302 c 10e-4,14.427 -11.695,26.122 -26.122,26.122 z"
     id="path22" /><circle
     style="fill:#e2563d;fill-opacity:1"
     cx="410.64499"
     cy="243.66"
     id="circle26"
     r="78.366997" /><g
     id="g32">
	<path
   style="fill:#ffffff"
   d="m 465.502,243.658 h -15.673 c 0,-21.606 -17.577,-39.184 -39.184,-39.184 -21.606,0 -39.184,17.577 -39.184,39.184 h -15.673 c 0,-30.248 24.609,-54.857 54.857,-54.857 30.248,0 54.857,24.608 54.857,54.857 z"
   id="path28" />
	<path
   style="fill:#ffffff"
   d="m 504.163,308.898 c 0,17.313 -14.034,31.347 -31.347,31.347 -17.313,0 -31.347,-14.034 -31.347,-31.347 0,-17.313 31.347,-52.898 31.347,-52.898 0,0 31.347,35.585 31.347,52.898 z"
   id="path30" />
</g><path
     d="m 410.645,314.19 c -38.891,0 -70.531,-31.64 -70.531,-70.531 0,-38.891 31.64,-70.531 70.531,-70.531 38.454,0 70.09,31.277 70.52,69.72 l 15.673,-0.176 c -0.256,-22.817 -9.336,-44.228 -25.568,-60.29 -16.243,-16.075 -37.774,-24.928 -60.626,-24.928 -47.532,0 -86.204,38.672 -86.204,86.204 0,47.532 38.672,86.204 86.204,86.204 4.188,0 8.404,-0.305 12.531,-0.907 l -2.263,-15.51 c -3.379,0.496 -6.835,0.745 -10.267,0.745 z"
     id="path36" /><g
     id="g1"
     transform="translate(-1.4266418,-7.1332088)"><path
       d="m 365.714,398.261 c 0,10.082 -8.203,18.28601 -18.286,18.28601 -10.083,0 -18.286,-8.203 -18.286,-18.28601 V 285.997 H 313.469 V 331.91 H 276.898 V 178.31001 h 36.571 v 21.232 h 15.673 V 111.959 c 0,-10.082 8.203,-18.286 18.286,-18.286 4.888,0 9.48,1.901 12.933,5.354 3.452,3.451 5.353,8.044 5.353,12.932 v 38.745 h 15.673 v -38.745 c 0,-9.075 -3.532,-17.604 -9.944,-24.014 C 365.033,81.531 356.503,78 347.428,78 328.702,78 313.469,93.234 313.469,111.959 V 131.29 H 276.898 V 111.959 C 276.898,93.233 261.664,78 242.939,78 224.214,78 208.98,93.234 208.98,111.959 V 131.29 H 172.409 V 111.959 C 172.409,93.233 157.174,78 138.45,78 119.726,78 104.491,93.234 104.491,111.959 V 131.29 H 80.98 v 15.673 h 23.51 v 15.673 H 80.98 v 15.674 h 23.51 v 153.6 H 67.918 V 111.959 C 67.918,93.233 52.683,78 33.959,78 15.235,78 0,93.233 0,111.959 v 286.302 c 0,18.726 15.235,33.95901 33.959,33.95901 18.724,0 33.959,-15.234 33.959,-33.95901 V 378.93 h 36.571 v 19.331 c 0,18.726 15.235,33.95901 33.959,33.95901 18.724,0 33.959,-15.234 33.959,-33.95901 V 378.93 h 23.51 v -15.673 h -23.51 v -15.673 h 23.51 V 331.91 h -23.51 V 178.31001 h 36.571 V 398.261 c 0,18.726 15.235,33.95901 33.959,33.95901 18.726,0 33.959,-15.234 33.959,-33.95901 V 378.93 h 36.571 v 19.331 c 0,18.726 15.234,33.95901 33.959,33.95901 18.725,0 33.959,-15.234 33.959,-33.95901 v -63.425 h -15.673 v 63.425 z m -313.469,0 c 0,10.082 -8.203,18.28601 -18.286,18.28601 -10.083,0 -18.286,-8.203 -18.286,-18.28601 V 111.959 c 0,-10.082 8.203,-18.286 18.286,-18.286 10.083,0 18.286,8.203 18.286,18.286 z m 15.673,-35.004 v -15.673 h 36.571 v 15.673 z m 88.817,35.004 c 0,10.082 -8.203,18.28601 -18.286,18.28601 -10.082,0 -18.286,-8.203 -18.286,-18.28601 V 111.959 c 0,-10.082 8.203,-18.286 18.286,-18.286 10.082,0 18.286,8.203 18.286,18.286 z m 15.673,-235.62399 v -15.673 h 36.571 v 15.673 z M 261.224,398.261 c 0,10.082 -8.204,18.28601 -18.286,18.28601 -10.082,0 -18.286,-8.203 -18.286,-18.28601 V 111.959 c 0,-10.082 8.203,-18.286 18.286,-18.286 10.082,0 18.286,8.203 18.286,18.286 z m 52.245,-251.298 v 15.673 h -36.571 v -15.673 z m -36.571,216.294 v -15.673 h 36.571 v 15.673 z"
       id="path34" /></g><path
     d="m 478.697,250.819 -5.881,-6.676 -5.881,6.676 c -5.561,6.313 -33.303,38.785 -33.303,58.079 0,21.606 17.577,39.184 39.184,39.184 21.607,0 39.184,-17.578 39.184,-39.184 0,-19.294 -27.742,-51.765 -33.303,-58.079 z m -5.881,81.589 c -12.963,0 -23.51,-10.547 -23.51,-23.51 0,-8.368 12.326,-26.839 23.512,-40.723 11.186,13.874 23.508,32.341 23.508,40.723 10e-4,12.963 -10.547,23.51 -23.51,23.51 z"
     id="path38" /><path
     d="m 390.40161,244.49923 c 5.09596,-3.88505 42.67939,-17.94743 42.67939,-17.94743 0,0 -23.51407,32.51697 -28.61003,36.40202 -5.09597,3.88504 -12.37692,2.90335 -16.26197,-2.19262 -3.88445,-5.09517 -2.90415,-12.37631 2.19261,-16.26197 z"
     id="path40" /></g>
<g
   id="g42">
</g>
<g
   id="g44">
</g>
<g
   id="g46">
</g>
<g
   id="g48">
</g>
<g
   id="g50">
</g>
<g
   id="g52">
</g>
<g
   id="g54">
</g>
<g
   id="g56">
</g>
<g
   id="g58">
</g>
<g
   id="g60">
</g>
<g
   id="g62">
</g>
<g
   id="g64">
</g>
<g
   id="g66">
</g>
<g
   id="g68">
</g>
<g
   id="g70">
</g>
</svg>
