<?xml version="1.0" encoding="utf-8"?>
<!-- Generator: Adobe Illustrator 22.1.0, SVG Export Plug-In . SVG Version: 6.00 Build 0)  -->
<svg version="1.1" id="Calque_3" xmlns="http://www.w3.org/2000/svg" xmlns:xlink="http://www.w3.org/1999/xlink" x="0px" y="0px"
	 viewBox="0 0 128 128" style="enable-background:new 0 0 128 128;" xml:space="preserve">
<style type="text/css">
	.st0{fill:none;}
	.st1{fill:#572A2D;}
	.st2{display:none;}
	.st3{display:inline;fill:url(#SVGID_1_);}
	.st4{display:inline;fill:#1B681F;}
	.st5{display:inline;fill:#114F12;}
	.st6{display:inline;fill:#1E7224;}
	.st7{display:inline;fill:#2B892F;}
	.st8{display:inline;fill:#33322D;}
	.st9{display:inline;fill:#2A912F;}
	.st10{fill:#566100;}
	.st11{fill:url(#SVGID_2_);}
	.st12{fill:#FCFBFA;}
	.st13{fill:#FFCE85;}
	.st14{fill:#332006;}
	.st15{fill:#666666;}
	.st16{fill:#350609;}
	.st17{fill:#EB9B3B;}
	.st18{fill:#846613;}
	.st19{fill:#C7EEFF;}
	.st20{fill:#A3BEC0;}
	.st21{fill:#E7F3EF;}
	.st22{fill:#71939B;}
	.st23{fill:none;stroke:#474E63;stroke-width:0.25;stroke-miterlimit:10;}
	.st24{fill:#474E63;stroke:#000000;stroke-width:0.25;stroke-miterlimit:10;}
	.st25{fill:#A9A9A9;}
</style>
<pattern  y="128" width="32.2" height="34.5" patternUnits="userSpaceOnUse" id="SVGID_5_" viewBox="0 -34.5 32.2 34.5" style="overflow:visible;">
	<g>
		<rect y="-34.5" class="st0" width="32.2" height="34.5"/>
		<g>
			<rect y="-34.5" class="st0" width="32.2" height="34.5"/>
			<g>
				<rect y="-34.5" class="st0" width="32.2" height="34.5"/>
				<g>
					<rect y="-34.5" class="st0" width="32.2" height="34.5"/>
					<rect y="-34.5" class="st1" width="32.2" height="34.5"/>
				</g>
			</g>
		</g>
	</g>
</pattern>
<g>
	<g>
		<g>
			<g>
				<g class="st2">
					<pattern  id="SVGID_1_" xlink:href="#SVGID_5_" patternTransform="matrix(1.7808 0 0 -1.6549 12481.9463 -26075.9785)">
					</pattern>
					<path class="st3" d="M11.1,68.1L11,68.2H3.9c-0.1,0-0.1,0-0.1-0.1L2.7,59c0-0.1,0-0.1,0.1-0.1H12c0.1,0,0.1,0.1,0.1,0.1
						L11.1,68.1z"/>
					<path class="st4" d="M4.8,40.6c-0.8-3.3-0.6-7.5,0.9-7.8c1.4-0.3,3.6,3.5,4.4,6.7c0.8,3.3-0.1,4.8-1.5,5.1
						C7.1,44.9,5.6,43.8,4.8,40.6z"/>
					<path class="st5" d="M8.5,58.7L8.5,58.7c-0.1,0-0.2-0.1-0.2-0.3c0.8-3.6,1.1-7.4,0.8-11.1c-0.3-3.8-1.2-7.4-2.7-10.9
						c0-0.1,0-0.2,0.1-0.3c0.1,0,0.3,0,0.3,0.1c1.5,3.5,2.4,7.2,2.7,11s0.1,7.6-0.8,11.3C8.7,58.6,8.6,58.7,8.5,58.7z"/>
					<path class="st6" d="M0.1,41.3c-1.4-3.1-2-7.3-0.7-7.8C0.8,33,3.6,36.3,5,39.4c1.4,3.1,0.8,4.7-0.5,5.2
						C3.1,45.2,1.5,44.4,0.1,41.3z"/>
					<path class="st6" d="M-0.1,48.5c-1.8-2.1-3.2-5.2-2.3-5.9s3.9,1.3,5.6,3.4C5,48.1,5,49.5,4,50.1C3.1,50.8,1.7,50.5-0.1,48.5z"
						/>
					<path class="st6" d="M16.9,48.5c2.2-1.9,4.2-4.9,3.4-5.8c-0.8-0.8-4.2,0.8-6.4,2.7s-2.4,3.3-1.5,4.2
						C13.1,50.4,14.7,50.4,16.9,48.5z"/>
					<path class="st7" d="M12.7,42.4c1-3.2,1.2-7.5-0.3-7.8C11,34.2,8.6,37.8,7.5,41c-1,3.2-0.3,4.8,1.1,5.2
						C10.1,46.5,11.7,45.6,12.7,42.4z"/>
					<path class="st5" d="M8.9,58.7L8.9,58.7c-0.1,0-0.2-0.1-0.2-0.2c0.2-2.7,1.1-5.4,2.6-7.9c1.5-2.4,3.6-4.5,6-6
						c0.1-0.1,0.2,0,0.3,0.1c0.1,0.1,0,0.2-0.1,0.3c-2.4,1.5-4.4,3.5-5.9,5.9s-2.4,5-2.6,7.7C9.1,58.7,9,58.7,8.9,58.7z"/>
					<path class="st5" d="M7.1,58.5L7.1,58.5c-0.1,0-0.2-0.1-0.2-0.2c0.1-3.7-0.3-7.5-1.4-11.1c-1-3.6-2.7-7.1-4.8-10.2
						c-0.1-0.1,0-0.2,0.1-0.3s0.2,0,0.3,0.1c2.1,3.2,3.8,6.7,4.8,10.4c1.1,3.7,1.5,7.5,1.4,11.2C7.4,58.4,7.3,58.5,7.1,58.5z"/>
					<path class="st5" d="M7.7,58.6L7.7,58.6c-0.1,0-0.2-0.1-0.2-0.2l0.9-9.2c0.3-3.2,0.6-6.5,1.8-9.7c0-0.1,0.2-0.2,0.3-0.1
						c0.1,0,0.2,0.2,0.1,0.3c-1.1,3.1-1.5,6.4-1.8,9.5l-0.9,9.2C7.9,58.5,7.8,58.6,7.7,58.6z"/>
					<path class="st5" d="M6.9,58.8c-0.1,0-0.2-0.1-0.2-0.2c-0.3-4.7-2.6-9.2-6.2-12.5c-0.1-0.1-0.1-0.2,0-0.3s0.2-0.1,0.3,0
						c3.7,3.3,6,8,6.3,12.8C7.1,58.7,7,58.8,6.9,58.8L6.9,58.8z"/>
					<path class="st8" d="M12.4,59.2c0,0.1-0.1,0.1-0.1,0.1H2.6c-0.1,0-0.1,0-0.1-0.1v-1.5c0-0.1,0.1-0.1,0.1-0.1h9.7
						c0.1,0,0.1,0,0.1,0.1V59.2z"/>
					<path class="st9" d="M-2,53.3c-1,2.5-1.3,5.9,0.1,6.4s3.7-2.2,4.7-4.7C3.8,52.6-0.9,50.8-2,53.3z"/>
					<path class="st4" d="M-1.4,57.5l0.1-0.4c0.5-1.4,0.9-2.4,1.3-3.2c0.5-0.9,0.9-1.4,1.4-1.6c0.5-0.2,1-0.1,1.7,0.2
						C4.2,53,5,54,5.5,55.4C5.8,56,6,56.8,6,57.6H5.6c-0.2-1.8-1-4-2.7-4.8c-0.6-0.2-1-0.3-1.3-0.1c-0.9,0.4-1.5,1.9-2.5,4.6
						L-1,57.6c0,0.1-0.2,0.2-0.3,0.1C-1.4,57.7-1.5,57.6-1.4,57.5z"/>
				</g>
			</g>
		</g>
	</g>
</g>
<g>
	<path class="st10" d="M128,64c0,35.3-28.6,64-64,64C28.6,128,0,99.3,0,64C0,28.6,28.6,0,64,0C99.3,0,128,28.6,128,64z"/>
	<g>
		<linearGradient id="SVGID_2_" gradientUnits="userSpaceOnUse" x1="130.5415" y1="89.6939" x2="13.9166" y2="45.3069">
			<stop  offset="0" style="stop-color:#1C1B19;stop-opacity:0"/>
			<stop  offset="1" style="stop-color:#33322D"/>
		</linearGradient>
		<path class="st11" d="M36.3,91.6l6.9-48.3l5.8-4.3l9.5-1.7l4.3-1.6l-0.2-4.3l13.2,6.2l10,10L93,33.1l32.5,13.2
			c1.3,4,2,8.4,2.4,13.2c1.6,19.3-6.3,44.4-31.2,59.7L34.5,94.7L36.3,91.6"/>
	</g>
	<g>
		<g>
			<polygon class="st12" points="79.8,92.7 91.4,38.9 50,38.9 38.4,92.7 			"/>
			<g>
				<polygon class="st13" points="89.2,61.8 70,78.9 70,82.6 88.8,66.3 				"/>
				<polyline class="st13" points="91.7,50.1 91.4,52.8 67.3,52.7 67.3,50.1 91.7,50.1 				"/>
				<polygon class="st14" points="93,48.1 66.1,48.1 67.3,50.1 92.7,50.1 				"/>
				<polygon class="st14" points="89.6,58.6 68.4,76.8 70,78.9 89.4,61.9 				"/>
				<polygon class="st15" points="88.7,63.9 70,80.1 70,81.5 88.6,65.3 				"/>
				<g>
					<path class="st13" d="M83.1,96H33.9l-1.3-2.5l14.1-57.1l47-2.5l2.6,0.6L83.1,96z M79.8,93.2l11.6-53.8H50L38.4,93.2H79.8z"/>
					<path class="st16" d="M80.9,93.5H32.6l12.9-59.6h48.3L80.9,93.5z M78.5,90.7l11.6-53.8H47.8L36.2,90.7H78.5z"/>
					<polygon class="st17" points="83.1,96 80.9,93.5 32.6,93.5 33.9,96 					"/>
					<polygon class="st17" points="47.8,36.8 50,39.3 38.9,90.7 36.2,90.7 					"/>
				</g>
				<polygon class="st17" points="70,82.6 70,78.9 19.6,78.8 19.6,82.6 				"/>
				<polygon class="st17" points="67.3,50.1 67.3,52.7 32.2,76.7 27.9,76.7 				"/>
				<polygon class="st18" points="27.9,76.7 67.3,50.1 66.1,48.1 19.6,78.8 70,78.9 68.4,76.8 				"/>
				<rect x="19.6" y="80.1" class="st15" width="50.4" height="1.3"/>
				<polygon class="st19" points="67.3,52.7 86.7,52.7 84.5,63 68.4,76.8 32.2,76.7 				"/>
			</g>
		</g>
		<polygon class="st20" points="47.8,36.8 90.2,36.8 89.7,39 47.4,38.9 		"/>
		<polygon class="st21" points="47.5,38.8 89.7,38.8 89.3,40.9 47,40.9 		"/>
		<polygon class="st22" points="47.6,37.7 90,37.7 89.8,38.4 47.4,38.4 		"/>
		<polygon class="st21" points="42.6,31.8 98.2,31.8 97.2,36.8 41.5,36.8 		"/>
		<polygon class="st20" points="47,40.6 89.3,40.6 88.9,42.7 46.5,42.7 		"/>
		<polygon class="st21" points="46.5,42.7 88.9,42.7 88.4,44.9 46,44.9 		"/>
		<polygon class="st22" points="46.7,42.1 89,42 88.9,42.7 46.5,42.7 		"/>
		<polygon class="st20" points="46,44.8 88.4,44.8 88,47 45.6,46.9 		"/>
		<polygon class="st21" points="45.6,47 88,47 87.5,49.1 45.1,49.1 		"/>
		<polygon class="st22" points="45.7,46.3 88.1,46.3 88,47 45.6,47 		"/>
		<polygon class="st20" points="45.1,49 87.5,49 87,51.2 44.7,51.1 		"/>
		<polygon class="st21" points="44.6,51.2 87,51.2 86.5,53.3 44.2,53.3 		"/>
		<polygon class="st22" points="44.8,50.5 87.2,50.5 87,51.2 44.6,51.2 		"/>
		<polygon class="st22" points="44.2,53.3 86.5,53.3 86.4,54 44,54 		"/>
		<line class="st23" x1="44" y1="54" x2="86.4" y2="54"/>
		<line class="st24" x1="44.1" y1="54" x2="47.8" y2="36.8"/>
		<path class="st23" d="M45,35.8"/>
		<polygon class="st25" points="97.2,36.8 97.2,36.8 99.6,37.8 100.6,32.9 98.2,31.8 		"/>
		<polygon class="st20" points="99.6,37.8 43.4,37.8 41.5,36.8 97.2,36.8 		"/>
	</g>
</g>
</svg>
