<?xml version="1.0" encoding="utf-8"?>
<!-- Generator: Adobe Illustrator 22.1.0, SVG Export Plug-In . SVG Version: 6.00 Build 0)  -->
<svg version="1.1" id="Calque_3" xmlns="http://www.w3.org/2000/svg" xmlns:xlink="http://www.w3.org/1999/xlink" x="0px" y="0px"
	 viewBox="0 0 128 128" style="enable-background:new 0 0 128 128;" xml:space="preserve">
<style type="text/css">
	.st0{fill:none;}
	.st1{fill:#572A2D;}
	.st2{display:none;}
	.st3{display:inline;fill:url(#SVGID_2_);}
	.st4{display:inline;fill:#1B681F;}
	.st5{display:inline;fill:#114F12;}
	.st6{display:inline;fill:#1E7224;}
	.st7{display:inline;fill:#2B892F;}
	.st8{display:inline;fill:#33322D;}
	.st9{display:inline;fill:#2A912F;}
	.st10{fill:#B6FFFF;}
	.st11{fill:url(#SVGID_3_);}
	.st12{fill:#00582B;}
	.st13{fill:#009245;}
	.st14{fill:#8CC63F;}
	.st15{fill:url(#SVGID_4_);}
	.st16{fill:url(#SVGID_5_);stroke:url(#SVGID_6_);stroke-width:1.000000e-02;stroke-miterlimit:10;}
	.st17{fill:none;stroke:#000000;stroke-width:1.000000e-02;stroke-miterlimit:10;}
	.st18{fill:#1B5741;}
	.st19{fill:url(#SVGID_7_);}
	.st20{fill:url(#SVGID_8_);stroke:url(#SVGID_9_);stroke-width:1.000000e-02;stroke-miterlimit:10;}
	.st21{fill:url(#SVGID_10_);}
	.st22{fill:none;stroke:#29ABE2;stroke-width:0.1;stroke-miterlimit:10;stroke-dasharray:2,0.6;}
	.st23{fill:url(#SVGID_11_);}
</style>
<pattern  y="128" width="32.2" height="34.5" patternUnits="userSpaceOnUse" id="SVGID_1_" viewBox="0 -34.5 32.2 34.5" style="overflow:visible;">
	<g>
		<rect y="-34.5" class="st0" width="32.2" height="34.5"/>
		<g>
			<rect y="-34.5" class="st0" width="32.2" height="34.5"/>
			<g>
				<rect y="-34.5" class="st0" width="32.2" height="34.5"/>
				<g>
					<rect y="-34.5" class="st0" width="32.2" height="34.5"/>
					<g>
						<rect y="-34.5" class="st0" width="32.2" height="34.5"/>
						<rect y="-34.5" class="st1" width="32.2" height="34.5"/>
					</g>
				</g>
			</g>
		</g>
	</g>
</pattern>
<g>
	<g>
		<g>
			<g>
				<g class="st2">
					<pattern  id="SVGID_2_" xlink:href="#SVGID_1_" patternTransform="matrix(1.7808 0 0 1.6549 18840.748 32522.4707)">
					</pattern>
					<path class="st3" d="M11.1,68.1L11,68.2H3.9c-0.1,0-0.1,0-0.1-0.1L2.7,59c0-0.1,0-0.1,0.1-0.1H12c0.1,0,0.1,0.1,0.1,0.1
						L11.1,68.1z"/>
					<path class="st4" d="M4.8,40.6c-0.8-3.3-0.6-7.5,0.9-7.8c1.4-0.3,3.6,3.5,4.4,6.7c0.8,3.3-0.1,4.8-1.5,5.1
						C7.1,44.9,5.6,43.8,4.8,40.6z"/>
					<path class="st5" d="M8.5,58.7L8.5,58.7c-0.1,0-0.2-0.1-0.2-0.3c0.8-3.6,1.1-7.4,0.8-11.1c-0.3-3.8-1.2-7.4-2.7-10.9
						c0-0.1,0-0.2,0.1-0.3c0.1,0,0.3,0,0.3,0.1c1.5,3.5,2.4,7.2,2.7,11s0.1,7.6-0.8,11.3C8.7,58.6,8.6,58.7,8.5,58.7z"/>
					<path class="st6" d="M0.1,41.3c-1.4-3.1-2-7.3-0.7-7.8C0.8,33,3.6,36.3,5,39.4c1.4,3.1,0.8,4.7-0.5,5.2
						C3.1,45.2,1.5,44.4,0.1,41.3z"/>
					<path class="st6" d="M-0.1,48.5c-1.8-2.1-3.2-5.2-2.3-5.9s3.9,1.3,5.6,3.4C5,48.1,5,49.5,4,50.1C3.1,50.8,1.7,50.5-0.1,48.5z"
						/>
					<path class="st6" d="M16.9,48.5c2.2-1.9,4.2-4.9,3.4-5.8c-0.8-0.8-4.2,0.8-6.4,2.7s-2.4,3.3-1.5,4.2
						C13.1,50.4,14.7,50.4,16.9,48.5z"/>
					<path class="st7" d="M12.7,42.4c1-3.2,1.2-7.5-0.3-7.8C11,34.2,8.6,37.8,7.5,41c-1,3.2-0.3,4.8,1.1,5.2
						C10.1,46.5,11.7,45.6,12.7,42.4z"/>
					<path class="st5" d="M8.9,58.7L8.9,58.7c-0.1,0-0.2-0.1-0.2-0.2c0.2-2.7,1.1-5.4,2.6-7.9c1.5-2.4,3.6-4.5,6-6
						c0.1-0.1,0.2,0,0.3,0.1c0.1,0.1,0,0.2-0.1,0.3c-2.4,1.5-4.4,3.5-5.9,5.9s-2.4,5-2.6,7.7C9.1,58.7,9,58.7,8.9,58.7z"/>
					<path class="st5" d="M7.1,58.5L7.1,58.5c-0.1,0-0.2-0.1-0.2-0.2c0.1-3.7-0.3-7.5-1.4-11.1c-1-3.6-2.7-7.1-4.8-10.2
						c-0.1-0.1,0-0.2,0.1-0.3s0.2,0,0.3,0.1c2.1,3.2,3.8,6.7,4.8,10.4c1.1,3.7,1.5,7.5,1.4,11.2C7.4,58.4,7.3,58.5,7.1,58.5z"/>
					<path class="st5" d="M7.7,58.6L7.7,58.6c-0.1,0-0.2-0.1-0.2-0.2l0.9-9.2c0.3-3.2,0.6-6.5,1.8-9.7c0-0.1,0.2-0.2,0.3-0.1
						c0.1,0,0.2,0.2,0.1,0.3c-1.1,3.1-1.5,6.4-1.8,9.5l-0.9,9.2C7.9,58.5,7.8,58.6,7.7,58.6z"/>
					<path class="st5" d="M6.9,58.8c-0.1,0-0.2-0.1-0.2-0.2c-0.3-4.7-2.6-9.2-6.2-12.5c-0.1-0.1-0.1-0.2,0-0.3s0.2-0.1,0.3,0
						c3.7,3.3,6,8,6.3,12.8C7.1,58.7,7,58.8,6.9,58.8L6.9,58.8z"/>
					<path class="st8" d="M12.4,59.2c0,0.1-0.1,0.1-0.1,0.1H2.6c-0.1,0-0.1,0-0.1-0.1v-1.5c0-0.1,0.1-0.1,0.1-0.1h9.7
						c0.1,0,0.1,0,0.1,0.1V59.2z"/>
					<path class="st9" d="M-2,53.3c-1,2.5-1.3,5.9,0.1,6.4s3.7-2.2,4.7-4.7C3.8,52.6-0.9,50.8-2,53.3z"/>
					<path class="st4" d="M-1.4,57.5l0.1-0.4c0.5-1.4,0.9-2.4,1.3-3.2c0.5-0.9,0.9-1.4,1.4-1.6c0.5-0.2,1-0.1,1.7,0.2
						C4.2,53,5,54,5.5,55.4C5.8,56,6,56.8,6,57.6H5.6c-0.2-1.8-1-4-2.7-4.8c-0.6-0.2-1-0.3-1.3-0.1c-0.9,0.4-1.5,1.9-2.5,4.6
						L-1,57.6c0,0.1-0.2,0.2-0.3,0.1C-1.4,57.7-1.5,57.6-1.4,57.5z"/>
				</g>
			</g>
		</g>
	</g>
</g>
<g>
	<g>
		<path class="st10" d="M128,64c0,35.3-28.7,64-64,64C28.7,128,0,99.3,0,64C0,28.7,28.7,0,64,0C99.3,0,128,28.7,128,64z"/>
	</g>
	<g>
		<linearGradient id="SVGID_3_" gradientUnits="userSpaceOnUse" x1="9.094947e-13" y1="76.9815" x2="127.8984" y2="76.9815">
			<stop  offset="0" style="stop-color:#65C8D0;stop-opacity:0"/>
			<stop  offset="1" style="stop-color:#84E9D9"/>
		</linearGradient>
		<path class="st11" d="M97,118.8c21.2-11.8,33.4-37.2,30.5-62.1L70.2,30.4C34,14.8-2,45.1,0.1,70.9c1.3,16.4,13.5,40.8,37.1,51.2
			c12.6,5.5,24,6.4,34.4,5.3C81,126.5,88.5,123.4,97,118.8z"/>
	</g>
	<g>
		<g>
			<g id="XMLID_344_">
				<g id="XMLID_391_">
					<path id="XMLID_397_" class="st12" d="M57.7,103.2c0,0,4.6,0.3,5.9,4.1h-1.2C62.4,107.3,60.9,104.1,57.7,103.2z"/>
					<path id="XMLID_396_" class="st12" d="M58.4,97.5c0,0,4.3,2.7,4.4,9.8h1.5C64.4,107.3,64,100.1,58.4,97.5z"/>
					<path id="XMLID_395_" class="st12" d="M59.1,100.5c0,0,4.4,1.7,5.2,6.8h-1.2C63.1,107.3,63.1,103.2,59.1,100.5z"/>
					<path id="XMLID_394_" class="st12" d="M71.3,98.8c0,0-6.2,1-6.1,8.6h-1.7C63.5,107.3,63.3,99.5,71.3,98.8z"/>
					<path id="XMLID_393_" class="st12" d="M64.2,107.3H66c0,0-1.1-5.5,1.5-10.1C67.5,97.3,63.7,101.7,64.2,107.3z"/>
					<path id="XMLID_392_" class="st12" d="M70.6,100.9c0,0-4.4,2.8-4,6.4h-1.7C64.9,107.3,64.5,103.4,70.6,100.9z"/>
				</g>
				<g id="XMLID_345_">
					<path id="XMLID_390_" class="st12" d="M74.3,103.2c0,0-4.6,0.3-5.9,4.1h1.2C69.6,107.3,71.1,104.1,74.3,103.2z"/>
					<path id="XMLID_389_" class="st12" d="M73.6,97.5c0,0-4.3,2.7-4.4,9.8h-1.5C67.7,107.3,68.1,100.1,73.6,97.5z"/>
					<path id="XMLID_388_" class="st12" d="M72.9,100.5c0,0-4.4,1.7-5.2,6.8h1.2C68.9,107.3,68.9,103.2,72.9,100.5z"/>
					<path id="XMLID_348_" class="st12" d="M60.7,98.8c0,0,6.2,1,6.1,8.6h1.7C68.6,107.3,68.7,99.5,60.7,98.8z"/>
					<path id="XMLID_347_" class="st13" d="M67.8,107.3h-1.8c0,0,1.1-5.5-1.5-10.1C64.5,97.3,68.3,101.7,67.8,107.3z"/>
					<path id="XMLID_346_" class="st12" d="M61.4,100.9c0,0,4.4,2.8,4,6.4h1.7C67.1,107.3,67.5,103.4,61.4,100.9z"/>
				</g>
			</g>
		</g>
		<g>
			<g id="XMLID_336_">
				<g id="XMLID_340_">
					<path id="XMLID_343_" class="st13" d="M51.2,103.2c0,0,4.6,0.3,5.9,4.1h-1.2C55.9,107.3,54.4,104.1,51.2,103.2z"/>
					<path id="XMLID_342_" class="st13" d="M52.6,100.5c0,0,4.4,1.7,5.2,6.8h-1.2C56.6,107.3,56.6,103.2,52.6,100.5z"/>
					<path id="XMLID_341_" class="st13" d="M64.1,100.9c0,0-4.4,2.8-4,6.4h-1.7C58.4,107.3,58,103.4,64.1,100.9z"/>
				</g>
				<g id="XMLID_337_">
					<path id="XMLID_339_" class="st14" d="M54.2,98.8c0,0,6.2,1,6.1,8.6H62C62,107.3,62.2,99.5,54.2,98.8z"/>
					<path id="XMLID_338_" class="st12" d="M54.9,100.9c0,0,4.4,2.8,4,6.4h1.7C60.6,107.3,61,103.4,54.9,100.9z"/>
				</g>
			</g>
			<path id="XMLID_335_" class="st13" d="M54.2,107.4c-0.2,0-0.5,0-0.6,0c-0.2,0-0.3,0-0.4,0c-0.1,0-0.1,0-0.1,0s0.1,0,0.1,0
				c0.1,0,0.2,0,0.4,0c0.2,0,0.4,0,0.6,0c0.2,0,0.5,0,0.8,0c0.2,0,0.3,0,0.5,0c0.2,0,0.3,0,0.5,0c0.3,0,0.7,0,1.1,0
				c0.2,0,0.4,0,0.6,0c0.2,0,0.4,0,0.6,0c0.4,0,0.8,0,1.2,0c0.4,0,0.8,0,1.2,0c0.2,0,0.4,0,0.6,0c0.2,0,0.4,0,0.6,0
				c0.4,0,0.7,0,1.1,0c0.2,0,0.3,0,0.5,0c0.2,0,0.3,0,0.5,0c0.3,0,0.6,0,0.8,0c0.2,0,0.5,0,0.6,0c0.2,0,0.3,0,0.4,0
				c0.1,0,4.4,0,4.4,0s-4.3,0-4.4,0c-0.1,0,4.1,0,3.9,0c-0.2,0-0.4,0-0.6,0"/>
		</g>
	</g>
	<g>
		<g>
			<g id="XMLID_246_">
				<g id="XMLID_254_">
					<path id="XMLID_260_" class="st12" d="M83.7,105.9c0,0,6.6,0.4,8.3,5.9h-1.7C90.3,111.7,88.2,107.1,83.7,105.9z"/>
					<path id="XMLID_259_" class="st12" d="M84.6,97.8c0,0,6,3.8,6.3,13.9h2.2C93.1,111.7,92.5,101.5,84.6,97.8z"/>
					<path id="XMLID_258_" class="st12" d="M85.7,102.1c0,0,6.3,2.3,7.4,9.6h-1.7C91.3,111.7,91.3,105.8,85.7,102.1z"/>
					<path id="XMLID_257_" class="st12" d="M102.9,99.6c0,0-8.8,1.5-8.7,12.1h-2.5C91.8,111.7,91.6,100.6,102.9,99.6z"/>
					<path id="XMLID_256_" class="st12" d="M92.8,111.7h2.5c0,0-1.6-7.8,2.2-14.3C97.5,97.5,92.1,103.7,92.8,111.7z"/>
					<path id="XMLID_255_" class="st12" d="M101.9,102.7c0,0-6.3,4-5.6,9.1h-2.4C93.9,111.7,93.3,106.2,101.9,102.7z"/>
				</g>
				<g id="XMLID_247_">
					<path id="XMLID_253_" class="st12" d="M107.2,105.9c0,0-6.6,0.4-8.3,5.9l2-0.3C100.9,111.4,102.7,107.1,107.2,105.9z"/>
					<path id="XMLID_252_" class="st12" d="M106.2,97.8c0,0-6,3.8-6.3,13.9h-2.2C97.8,111.7,98.3,101.5,106.2,97.8z"/>
					<path id="XMLID_251_" class="st12" d="M105.2,102.1c0,0-6.3,2.3-7.4,9.6h1.7C99.5,111.7,99.5,105.8,105.2,102.1z"/>
					<path id="XMLID_250_" class="st12" d="M87.9,99.6c0,0,8.8,1.5,8.7,12.1H99C99,111.7,99.2,100.6,87.9,99.6z"/>
					<path id="XMLID_249_" class="st14" d="M98,111.7h-2.5c0,0,1.6-7.8-2.2-14.3C93.3,97.5,98.7,103.7,98,111.7z"/>
					<path id="XMLID_248_" class="st12" d="M88.9,102.7c0,0,6.3,4,5.6,9.1h2.4C96.9,111.7,97.6,106.2,88.9,102.7z"/>
				</g>
			</g>
		</g>
		<g>
			<g id="XMLID_238_">
				<g id="XMLID_242_">
					<path id="XMLID_245_" class="st13" d="M74.4,105.9c0,0,6.6,0.4,8.3,5.9h-1.7C81.1,111.7,78.9,107.1,74.4,105.9z"/>
					<path id="XMLID_244_" class="st14" d="M76.4,102.1c0,0,6.3,2.3,7.4,9.6h-1.7C82.1,111.7,82,105.8,76.4,102.1z"/>
					<path id="XMLID_243_" class="st13" d="M92.7,102.7c0,0-6.3,4-5.6,9.1h-2.4C84.6,111.7,84,106.2,92.7,102.7z"/>
				</g>
				<g id="XMLID_239_">
					<path id="XMLID_241_" class="st13" d="M78.6,99.6c0,0,8.8,1.5,8.7,12.1h2.5C89.8,111.7,90,100.6,78.6,99.6z"/>
					<path id="XMLID_240_" class="st12" d="M79.6,102.7c0,0,6.3,4,5.6,9.1h2.4C87.7,111.7,88.3,106.2,79.6,102.7z"/>
				</g>
			</g>
		</g>
	</g>
	<path class="st10" d="M100.9,111.4l-0.4,0.3c-8,5.2-21.2,8.7-36.3,8.7c-15.2,0-28.7-3.5-36.6-8.9c0,0,41.9-11.8,71.9-0.3
		L100.9,111.4z"/>
	<g>
		<linearGradient id="SVGID_4_" gradientUnits="userSpaceOnUse" x1="48.4254" y1="91.949" x2="59.3543" y2="91.7347">
			<stop  offset="0" style="stop-color:#CACBCE"/>
			<stop  offset="0.2683" style="stop-color:#E9E9EB"/>
			<stop  offset="0.4614" style="stop-color:#FFFFFF"/>
			<stop  offset="0.7857" style="stop-color:#AAACB2"/>
			<stop  offset="0.9035" style="stop-color:#F4F4F4"/>
			<stop  offset="1" style="stop-color:#BFC0C5"/>
		</linearGradient>
		<path class="st15" d="M41.5,91.2c0,0.9,2.8,1.7,6.6,2c1.2,0.1,2.4,0.1,3.8,0.1c1.1,0,2.2,0,3.2-0.1c4.2-0.3,7.3-1.1,7.3-2v-0.6
			H41.5L41.5,91.2z"/>
		<linearGradient id="SVGID_5_" gradientUnits="userSpaceOnUse" x1="48.4085" y1="90.3345" x2="59.3309" y2="90.1203">
			<stop  offset="0" style="stop-color:#CACBCE"/>
			<stop  offset="0.2683" style="stop-color:#E9E9EB"/>
			<stop  offset="0.6495" style="stop-color:#FFFFFF"/>
			<stop  offset="0.9035" style="stop-color:#F4F4F4"/>
		</linearGradient>
		<linearGradient id="SVGID_6_" gradientUnits="userSpaceOnUse" x1="41.4477" y1="90.2674" x2="62.2994" y2="90.2674">
			<stop  offset="0" style="stop-color:#CACBCE"/>
			<stop  offset="0.5233" style="stop-color:#FFFFFF"/>
			<stop  offset="1" style="stop-color:#BFC0C5"/>
		</linearGradient>
		<path class="st16" d="M51.9,88.1c-5.8,0-10.4,1-10.4,2.1c0,0.9,2.8,1.7,6.6,2c1.2,0.1,2.4,0.1,3.8,0.1c1.1,0,2.2,0,3.2-0.1
			c4.2-0.3,7.3-1.1,7.3-2C62.3,89.1,57.6,88.1,51.9,88.1z"/>
		<g>
			<line class="st17" x1="53.2" y1="90.5" x2="57.6" y2="91.6"/>
			<line class="st17" x1="50.5" y1="90.5" x2="46.2" y2="91.6"/>
		</g>
		<g>
			<line class="st17" x1="53.2" y1="89.8" x2="57.6" y2="88.7"/>
			<line class="st17" x1="50.5" y1="89.8" x2="46.2" y2="88.7"/>
		</g>
		<g>
			<line class="st17" x1="53.3" y1="90" x2="60.6" y2="90"/>
			<line class="st17" x1="43.1" y1="90" x2="50.4" y2="90"/>
		</g>
		<ellipse cx="51.9" cy="89.9" rx="0.8" ry="0.3"/>
	</g>
	<path class="st18" d="M55.4,108.7V93.3c-1,0.1-2.1,0.1-3.2,0.1c-1.3,0-2.6-0.1-3.8-0.1v15.4c-0.1,0.1-0.1,0.1-0.1,0.2
		c0,0.4,1.6,0.8,3.6,0.8c2,0,3.6-0.3,3.6-0.8C55.5,108.8,55.5,108.7,55.4,108.7z"/>
	<g>
		<g id="XMLID_266_">
			<g id="XMLID_274_">
				<path id="XMLID_280_" class="st12" d="M28.6,106.7c0,0,5.6,0.3,7.1,5h-1.4C34.3,111.7,32.5,107.8,28.6,106.7z"/>
				<path id="XMLID_279_" class="st12" d="M29.5,99.9c0,0,5.1,3.3,5.3,11.8h1.8C36.6,111.7,36.2,103,29.5,99.9z"/>
				<path id="XMLID_278_" class="st12" d="M30.3,103.5c0,0,5.4,2,6.3,8.2h-1.5C35.2,111.7,35.1,106.7,30.3,103.5z"/>
				<path id="XMLID_277_" class="st12" d="M45.1,101.4c0,0-7.5,1.3-7.4,10.3h-2.1C35.6,111.7,35.4,102.2,45.1,101.4z"/>
				<path id="XMLID_276_" class="st12" d="M36.5,111.7h2.1c0,0-1.3-6.7,1.8-12.2C40.4,99.5,35.8,104.9,36.5,111.7z"/>
				<path id="XMLID_275_" class="st12" d="M44.2,104c0,0-5.4,3.4-4.8,7.7h-2C37.3,111.7,36.8,107,44.2,104z"/>
			</g>
			<g id="XMLID_267_">
				<path id="XMLID_273_" class="st12" d="M48.7,106.7c0,0-5.6,0.3-7.1,5H43C43,111.7,44.8,107.8,48.7,106.7z"/>
				<path id="XMLID_272_" class="st12" d="M47.8,99.9c0,0-5.1,3.3-5.3,11.8h-1.8C40.6,111.7,41.1,103,47.8,99.9z"/>
				<path id="XMLID_271_" class="st12" d="M47,103.5c0,0-5.4,2-6.3,8.2h1.5C42.1,111.7,42.2,106.7,47,103.5z"/>
				<path id="XMLID_270_" class="st12" d="M32.2,101.4c0,0,7.5,1.3,7.4,10.3h2.1C41.7,111.7,41.9,102.2,32.2,101.4z"/>
				<path id="XMLID_269_" class="st14" d="M40.8,111.7h-2.1c0,0,1.3-6.7-1.8-12.2C36.8,99.5,41.4,104.9,40.8,111.7z"/>
				<path id="XMLID_268_" class="st12" d="M33.1,104c0,0,5.4,3.4,4.8,7.7h2C39.9,111.7,40.5,107,33.1,104z"/>
			</g>
		</g>
	</g>
	<g>
		<linearGradient id="SVGID_7_" gradientUnits="userSpaceOnUse" x1="82.5896" y1="91.949" x2="93.5185" y2="91.7347">
			<stop  offset="0" style="stop-color:#CACBCE"/>
			<stop  offset="0.2683" style="stop-color:#E9E9EB"/>
			<stop  offset="0.4614" style="stop-color:#FFFFFF"/>
			<stop  offset="0.7857" style="stop-color:#AAACB2"/>
			<stop  offset="0.9035" style="stop-color:#F4F4F4"/>
			<stop  offset="1" style="stop-color:#BFC0C5"/>
		</linearGradient>
		<path class="st19" d="M75.6,91.2c0,0.9,2.8,1.7,6.6,2c1.2,0.1,2.4,0.1,3.8,0.1c1.1,0,2.2,0,3.2-0.1c4.2-0.3,7.3-1.1,7.3-2v-0.6
			H75.6L75.6,91.2z"/>
		<linearGradient id="SVGID_8_" gradientUnits="userSpaceOnUse" x1="82.5726" y1="90.3345" x2="93.495" y2="90.1203">
			<stop  offset="0" style="stop-color:#CACBCE"/>
			<stop  offset="0.2683" style="stop-color:#E9E9EB"/>
			<stop  offset="0.6495" style="stop-color:#FFFFFF"/>
			<stop  offset="0.9035" style="stop-color:#F4F4F4"/>
		</linearGradient>
		<linearGradient id="SVGID_9_" gradientUnits="userSpaceOnUse" x1="75.6118" y1="90.2674" x2="96.4636" y2="90.2674">
			<stop  offset="0" style="stop-color:#CACBCE"/>
			<stop  offset="0.5233" style="stop-color:#FFFFFF"/>
			<stop  offset="1" style="stop-color:#BFC0C5"/>
		</linearGradient>
		<path class="st20" d="M86,88.1c-5.8,0-10.4,1-10.4,2.1c0,0.9,2.8,1.7,6.6,2c1.2,0.1,2.4,0.1,3.8,0.1c1.1,0,2.2,0,3.2-0.1
			c4.2-0.3,7.3-1.1,7.3-2C96.5,89.1,91.8,88.1,86,88.1z"/>
		<g>
			<line class="st17" x1="87.4" y1="90.5" x2="91.7" y2="91.6"/>
			<line class="st17" x1="84.7" y1="90.5" x2="80.3" y2="91.6"/>
		</g>
		<g>
			<line class="st17" x1="87.4" y1="89.8" x2="91.7" y2="88.7"/>
			<line class="st17" x1="84.7" y1="89.8" x2="80.3" y2="88.7"/>
		</g>
		<g>
			<line class="st17" x1="87.5" y1="90" x2="94.8" y2="90"/>
			<line class="st17" x1="77.3" y1="90" x2="84.6" y2="90"/>
		</g>
		<ellipse cx="86" cy="89.9" rx="0.8" ry="0.3"/>
	</g>
	<path class="st18" d="M89.5,108.7V93.3c-1,0.1-2.1,0.1-3.2,0.1c-1.3,0-2.6-0.1-3.8-0.1v15.4c-0.1,0.1-0.1,0.1-0.1,0.2
		c0,0.4,1.6,0.8,3.6,0.8c2,0,3.6-0.3,3.6-0.8C89.7,108.8,89.6,108.7,89.5,108.7z"/>
	<g>
		<g id="XMLID_221_">
			<g id="XMLID_229_">
				<path id="XMLID_235_" class="st12" d="M61.6,103.5c0,0,5.6,0.3,7.1,5h-1.4C67.2,108.5,65.4,104.6,61.6,103.5z"/>
				<path id="XMLID_234_" class="st12" d="M62.4,96.7c0,0,5.1,3.3,5.3,11.8h1.8C69.6,108.5,69.1,99.8,62.4,96.7z"/>
				<path id="XMLID_233_" class="st12" d="M63.3,100.3c0,0,5.4,2,6.3,8.2h-1.5C68.1,108.5,68,103.5,63.3,100.3z"/>
				<path id="XMLID_232_" class="st12" d="M78,98.2c0,0-7.5,1.3-7.4,10.3h-2.1C68.5,108.5,68.3,99.1,78,98.2z"/>
				<path id="XMLID_231_" class="st12" d="M69.4,108.5h2.1c0,0-1.3-6.7,1.8-12.2C73.4,96.4,68.8,101.7,69.4,108.5z"/>
				<path id="XMLID_230_" class="st12" d="M77.1,100.8c0,0-5.4,3.4-4.8,7.7h-2C70.3,108.5,69.7,103.8,77.1,100.8z"/>
			</g>
			<g id="XMLID_222_">
				<path id="XMLID_228_" class="st12" d="M81.6,103.5c0,0-5.6,0.3-7.1,5h1.4C75.9,108.5,77.8,104.6,81.6,103.5z"/>
				<path id="XMLID_227_" class="st12" d="M80.8,96.7c0,0-5.1,3.3-5.3,11.8h-1.8C73.6,108.5,74,99.8,80.8,96.7z"/>
				<path id="XMLID_226_" class="st12" d="M79.9,100.3c0,0-5.4,2-6.3,8.2h1.5C75.1,108.5,75.1,103.5,79.9,100.3z"/>
				<path id="XMLID_225_" class="st12" d="M65.2,98.2c0,0,7.5,1.3,7.4,10.3h2.1C74.7,108.5,74.9,99.1,65.2,98.2z"/>
				<path id="XMLID_224_" class="st14" d="M73.8,108.5h-2.1c0,0,1.3-6.7-1.8-12.2C69.8,96.4,74.4,101.7,73.8,108.5z"/>
				<path id="XMLID_223_" class="st12" d="M66,100.8c0,0,5.4,3.4,4.8,7.7h2C72.9,108.5,73.4,103.8,66,100.8z"/>
			</g>
		</g>
	</g>
	<g>
		<linearGradient id="SVGID_10_" gradientUnits="userSpaceOnUse" x1="52.6347" y1="58.8462" x2="117.9446" y2="58.8462">
			<stop  offset="0" style="stop-color:#65C8D0;stop-opacity:0"/>
			<stop  offset="1" style="stop-color:#84E9D9"/>
		</linearGradient>
		<path class="st21" d="M96.5,90.6l21.5-51.6l-7.7-4.9c-7.8-4.4-16.8-6.9-26.4-6.9c-11.7,0-22.4,3.7-31.2,10l23,53.4H96.5z"/>
		<g>
			<line class="st22" x1="93.7" y1="86.1" x2="102.9" y2="62.7"/>
			<line class="st22" x1="80" y1="86.1" x2="70.7" y2="62.7"/>
			<line class="st22" x1="86.3" y1="85.4" x2="86.3" y2="59.8"/>
			<line class="st22" x1="90.2" y1="85.3" x2="95" y2="61.3"/>
			<line class="st22" x1="82.7" y1="85.3" x2="78" y2="61.3"/>
		</g>
		<linearGradient id="SVGID_11_" gradientUnits="userSpaceOnUse" x1="18.8898" y1="57.9859" x2="83.457" y2="57.9859">
			<stop  offset="0" style="stop-color:#65C8D0;stop-opacity:0"/>
			<stop  offset="1" style="stop-color:#84E9D9"/>
		</linearGradient>
		<path class="st23" d="M62.6,89.8l20.9-53.3l-9.5-4.4c-8-3.8-15-5.9-24.5-5.9c-11.5,0-21.9,3.6-30.6,9.8l22,53.9H62.6z"/>
	</g>
	<g>
		<line class="st22" x1="59.9" y1="86.1" x2="69.1" y2="62.7"/>
		<line class="st22" x1="46.2" y1="86.1" x2="37" y2="62.7"/>
		<line class="st22" x1="52.6" y1="85.4" x2="52.6" y2="59.8"/>
		<line class="st22" x1="56.5" y1="85.3" x2="61.3" y2="61.3"/>
		<line class="st22" x1="49" y1="85.3" x2="44.2" y2="61.3"/>
	</g>
</g>
</svg>
