<?xml version="1.0" encoding="utf-8"?>
<!-- Generator: Adobe Illustrator 22.1.0, SVG Export Plug-In . SVG Version: 6.00 Build 0)  -->
<svg version="1.1" id="Calque_3" xmlns="http://www.w3.org/2000/svg" xmlns:xlink="http://www.w3.org/1999/xlink" x="0px" y="0px"
	 viewBox="0 0 128 128" style="enable-background:new 0 0 128 128;" xml:space="preserve">
<style type="text/css">
	.st0{fill:none;}
	.st1{fill:#572A2D;}
	.st2{display:none;}
	.st3{display:inline;fill:url(#SVGID_1_);}
	.st4{display:inline;fill:#1B681F;}
	.st5{display:inline;fill:#114F12;}
	.st6{display:inline;fill:#1E7224;}
	.st7{display:inline;fill:#2B892F;}
	.st8{display:inline;fill:#33322D;}
	.st9{display:inline;fill:#2A912F;}
	.st10{fill:url(#SVGID_2_);}
	.st11{fill:#42210B;}
	.st12{fill:#C67252;}
	.st13{fill:#9E4F30;}
	.st14{fill:#7E98A5;}
	.st15{fill:#516F82;}
	.st16{fill:#677275;}
	.st17{fill:#949EAA;}
	.st18{fill:#5A6568;}
	.st19{fill:#B6FFFF;}
	.st20{fill:#475356;}
	.st21{fill:#9B6131;}
	.st22{fill:#E8D3BA;}
</style>
<pattern  y="128" width="32.2" height="34.5" patternUnits="userSpaceOnUse" id="SVGID_11_2" viewBox="0 -34.5 32.2 34.5" style="overflow:visible;">
	<g>
		<rect y="-34.5" class="st0" width="32.2" height="34.5"/>
		<g>
			<rect y="-34.5" class="st0" width="32.2" height="34.5"/>
			<g>
				<rect y="-34.5" class="st0" width="32.2" height="34.5"/>
				<rect y="-34.5" class="st1" width="32.2" height="34.5"/>
			</g>
		</g>
	</g>
</pattern>
<pattern  y="128" width="32.2" height="34.5" patternUnits="userSpaceOnUse" id="SVGID_5_" viewBox="0 -34.5 32.2 34.5" style="overflow:visible;">
	<g>
		<rect y="-34.5" class="st0" width="32.2" height="34.5"/>
		<g>
			<rect y="-34.5" class="st0" width="32.2" height="34.5"/>
			<g>
				<rect y="-34.5" class="st0" width="32.2" height="34.5"/>
				<g>
					<rect y="-34.5" class="st0" width="32.2" height="34.5"/>
					<rect y="-34.5" class="st1" width="32.2" height="34.5"/>
				</g>
			</g>
		</g>
	</g>
</pattern>
<g>
	<g>
		<g>
			<g>
				<g class="st2">
					<pattern  id="SVGID_1_" xlink:href="#SVGID_5_" patternTransform="matrix(1.7808 0 0 -1.6549 12481.9463 -26075.9785)">
					</pattern>
					<path class="st3" d="M11.1,68.1L11,68.2H3.9c-0.1,0-0.1,0-0.1-0.1L2.7,59c0-0.1,0-0.1,0.1-0.1H12c0.1,0,0.1,0.1,0.1,0.1
						L11.1,68.1z"/>
					<path class="st4" d="M4.8,40.6c-0.8-3.3-0.6-7.5,0.9-7.8c1.4-0.3,3.6,3.5,4.4,6.7c0.8,3.3-0.1,4.8-1.5,5.1
						C7.1,44.9,5.6,43.8,4.8,40.6z"/>
					<path class="st5" d="M8.5,58.7L8.5,58.7c-0.1,0-0.2-0.1-0.2-0.3c0.8-3.6,1.1-7.4,0.8-11.1c-0.3-3.8-1.2-7.4-2.7-10.9
						c0-0.1,0-0.2,0.1-0.3c0.1,0,0.3,0,0.3,0.1c1.5,3.5,2.4,7.2,2.7,11s0.1,7.6-0.8,11.3C8.7,58.6,8.6,58.7,8.5,58.7z"/>
					<path class="st6" d="M0.1,41.3c-1.4-3.1-2-7.3-0.7-7.8C0.8,33,3.6,36.3,5,39.4c1.4,3.1,0.8,4.7-0.5,5.2
						C3.1,45.2,1.5,44.4,0.1,41.3z"/>
					<path class="st6" d="M-0.1,48.5c-1.8-2.1-3.2-5.2-2.3-5.9s3.9,1.3,5.6,3.4C5,48.1,5,49.5,4,50.1C3.1,50.8,1.7,50.5-0.1,48.5z"
						/>
					<path class="st6" d="M16.9,48.5c2.2-1.9,4.2-4.9,3.4-5.8c-0.8-0.8-4.2,0.8-6.4,2.7s-2.4,3.3-1.5,4.2
						C13.1,50.4,14.7,50.4,16.9,48.5z"/>
					<path class="st7" d="M12.7,42.4c1-3.2,1.2-7.5-0.3-7.8C11,34.2,8.6,37.8,7.5,41c-1,3.2-0.3,4.8,1.1,5.2
						C10.1,46.5,11.7,45.6,12.7,42.4z"/>
					<path class="st5" d="M8.9,58.7L8.9,58.7c-0.1,0-0.2-0.1-0.2-0.2c0.2-2.7,1.1-5.4,2.6-7.9c1.5-2.4,3.6-4.5,6-6
						c0.1-0.1,0.2,0,0.3,0.1c0.1,0.1,0,0.2-0.1,0.3c-2.4,1.5-4.4,3.5-5.9,5.9s-2.4,5-2.6,7.7C9.1,58.7,9,58.7,8.9,58.7z"/>
					<path class="st5" d="M7.1,58.5L7.1,58.5c-0.1,0-0.2-0.1-0.2-0.2c0.1-3.7-0.3-7.5-1.4-11.1c-1-3.6-2.7-7.1-4.8-10.2
						c-0.1-0.1,0-0.2,0.1-0.3s0.2,0,0.3,0.1c2.1,3.2,3.8,6.7,4.8,10.4c1.1,3.7,1.5,7.5,1.4,11.2C7.4,58.4,7.3,58.5,7.1,58.5z"/>
					<path class="st5" d="M7.7,58.6L7.7,58.6c-0.1,0-0.2-0.1-0.2-0.2l0.9-9.2c0.3-3.2,0.6-6.5,1.8-9.7c0-0.1,0.2-0.2,0.3-0.1
						c0.1,0,0.2,0.2,0.1,0.3c-1.1,3.1-1.5,6.4-1.8,9.5l-0.9,9.2C7.9,58.5,7.8,58.6,7.7,58.6z"/>
					<path class="st5" d="M6.9,58.8c-0.1,0-0.2-0.1-0.2-0.2c-0.3-4.7-2.6-9.2-6.2-12.5c-0.1-0.1-0.1-0.2,0-0.3s0.2-0.1,0.3,0
						c3.7,3.3,6,8,6.3,12.8C7.1,58.7,7,58.8,6.9,58.8L6.9,58.8z"/>
					<path class="st8" d="M12.4,59.2c0,0.1-0.1,0.1-0.1,0.1H2.6c-0.1,0-0.1,0-0.1-0.1v-1.5c0-0.1,0.1-0.1,0.1-0.1h9.7
						c0.1,0,0.1,0,0.1,0.1V59.2z"/>
					<path class="st9" d="M-2,53.3c-1,2.5-1.3,5.9,0.1,6.4s3.7-2.2,4.7-4.7C3.8,52.6-0.9,50.8-2,53.3z"/>
					<path class="st4" d="M-1.4,57.5l0.1-0.4c0.5-1.4,0.9-2.4,1.3-3.2c0.5-0.9,0.9-1.4,1.4-1.6c0.5-0.2,1-0.1,1.7,0.2
						C4.2,53,5,54,5.5,55.4C5.8,56,6,56.8,6,57.6H5.6c-0.2-1.8-1-4-2.7-4.8c-0.6-0.2-1-0.3-1.3-0.1c-0.9,0.4-1.5,1.9-2.5,4.6
						L-1,57.6c0,0.1-0.2,0.2-0.3,0.1C-1.4,57.7-1.5,57.6-1.4,57.5z"/>
				</g>
			</g>
		</g>
	</g>
</g>
<g>
	<g>
		<pattern  id="SVGID_2_" xlink:href="#SVGID_11_2" patternTransform="matrix(1 0 0 1 7.0541 -103.3893)">
		</pattern>
		<path class="st10" d="M128,64c0,35.3-28.7,64-64,64C28.7,128,0,99.3,0,64C0,28.7,28.7,0,64,0C99.4,0,128,28.7,128,64z"/>
		<g>
			<path class="st11" d="M104.1,40.1l-7.3,16.1L32.1,96.6l63.1,23.2c26-14.4,34.6-41.9,32.6-61.1c-0.4-4.3-0.9-8-1.8-10.8
				L104.1,40.1"/>
		</g>
		<g>
			<g>
				<g>
					<g>
						<rect x="35.4" y="42.6" class="st12" width="62.9" height="2.8"/>
					</g>
					<g>
						<rect x="35.4" y="44.5" class="st13" width="62.9" height="0.9"/>
					</g>
					<g>
						<g>
							<path class="st14" d="M91.6,64.5L91.4,67l-0.5,6.2l-0.1,1.3l-0.5,6.1L90.2,82l-0.5,6.2l-0.1,1.6l-0.5,5.6
								c0,0.3-1.3,0.8-3.7,1.3c-0.6,0.1-1.3,0.3-2,0.4c-0.1,0-0.2,0-0.4,0.1c-4.1,0.8-9.9,1.4-16.4,1.4c-7.3,0-13.9-0.9-18-1.7
								c0,0-0.1,0-0.1,0c-1.6-0.3-2.9-0.7-3.7-1c0,0,0,0,0,0c-0.3-0.1-0.5-0.2-0.7-0.3C44,95.5,44,95.4,44,95.4l-0.2-2.9l-0.2-3
								l-0.1-1.2l-0.5-6.1l-0.1-1.5l-0.5-6.2l-0.1-0.9l-0.5-6.3l-0.2-2.6H91.6z"/>
						</g>
						<g>
							<ellipse class="st15" cx="66.5" cy="65.2" rx="25.1" ry="3.8"/>
						</g>
						<g>
							<g>
								<path class="st16" d="M93,62.9C93,62.8,93,62.8,93,62.9c0-2.2-11.9-4-26.5-4c-14.6,0-26.5,1.8-26.5,4c0,0,0,0,0,0
									c0,0,0,0,0,0c0,0,0,0,0,0c0,0,0,0,0,0c0,0,0,0,0,0c0,0,0,0,0,0c0,0,0,0,0,0c0,0,0,0,0,0c0,0,0,0,0,0c0,0,0,0,0,0
									c0,0,0,0,0,0c0,0,0,0,0,0c0,0,0,0,0,0c0,0,0,0,0,0c0,0,0,0,0,0c0,0,0,0,0,0c0,0,0,0,0,0c0,0,0,0,0,0c0,0,0,0,0,0
									c0,0,0,0,0,0c0,0,0,0,0,0c0,0,0,0,0,0c0,0,0,0,0,0c0,0,0,0,0,0c0,0,0,0,0,0c0,0,0,0,0,0c0,0,0,0,0,0c0,0,0,0,0,0
									c0,0,0,0,0,0c0,0,0,0,0,0c0,0,0,0,0,0c0,0,0,0,0,0c0,0,0,0,0,0c0,0,0,0,0,0c0,0,0,0,0,0c0,0,0,0,0,0c0,0,0,0,0,0
									c0,0,0,0,0,0c0,0,0,0,0,0c0,0,0,0,0,0c0,0,0,0,0,0c0,0,0,0,0,0c0,0,0,0,0,0c0,0,0,0,0,0c0,0,0,0,0,0c0,0,0,0,0,0
									c0,0,0,0,0,0c0,0,0,0,0,0c0,0,0,0,0,0c0,0,0,0,0,0c0,0,0,0,0,0c0,0,0,0,0,0c0,0,0,0,0,0c0,0,0,0,0,0c0,0,0,0,0,0
									c0,0,0,0,0,0c0,0,0,0,0,0c0,0,0,0,0,0c0,0,0,0,0,0c0,0,0,0,0,0c0,0,0,0,0,0c0,0,0,0,0,0c0,0,0,0,0,0c0,0,0,0,0,0
									c0,0,0,0,0,0c0,0,0,0,0,0c0,0,0,0,0,0c0,0,0,0,0,0c0,0,0,0,0,0c0,0,0,0,0,0c0,0,0,0,0,0c0,0,0,0,0,0c0,0,0,0,0,0
									c0,0,0,0,0,0c0,0,0,0,0,0c0,0,0,0,0,0c0,0,0,0,0,0c0,0,0,0,0,0c0,0,0,0,0,0c0,0,0,0,0,0c0,0,0,0,0,0c0,0,0,0,0,0
									c0,0,0,0,0,0c0,0,0,0,0,0c0,0,0,0,0,0c0,0,0,0,0,0c0,0,0,0,0,0c0,0,0,0,0,0c0,0,0,0,0,0c0,0,0,0,0,0c0,0,0,0,0,0
									c0,0,0,0,0,0c0,0,0,0,0,0c0,0,0,0,0,0c0,0,0,0,0,0c0,0,0,0,0,0c0,0,0,0,0,0c0,0,0,0,0,0c0,0,0,0,0,0c0,0,0,0,0,0
									c0,0,0,0,0,0c0,0,0,0,0,0c0,0,0,0,0,0c0,0,0,0,0,0c0,0,0,0,0,0c0,0,0,0,0,0c0,0,0,0,0,0c0,0,0,0,0,0c0,0,0,0,0,0
									c0,0,0,0,0,0c0,0,0,0,0,0c0,0,0,0,0,0c0,0,0,0,0,0c0,0,0,0,0,0c0,0,0,0,0,0c0,0,0,0,0,0c0,0,0,0,0,0c0,0,0,0,0,0
									c0,0,0,0,0,0c0,0,0,0,0,0c0,0,0,0,0,0c0,0,0,0,0,0c0,2.2,11.9,4,26.5,4C81.2,71,93,69.2,93,67c0,0,0,0,0,0c0,0,0,0,0,0
									c0,0,0,0,0,0c0,0,0,0,0,0c0,0,0,0,0,0c0,0,0,0,0,0c0,0,0,0,0,0c0,0,0,0,0,0c0,0,0,0,0,0c0,0,0,0,0,0c0,0,0,0,0,0
									c0,0,0,0,0,0c0,0,0,0,0,0c0,0,0,0,0,0c0,0,0,0,0,0c0,0,0,0,0,0c0,0,0,0,0,0c0,0,0,0,0,0c0,0,0,0,0,0c0,0,0,0,0,0
									c0,0,0,0,0,0c0,0,0,0,0,0c0,0,0,0,0,0c0,0,0,0,0,0c0,0,0,0,0,0c0,0,0,0,0,0c0,0,0,0,0,0c0,0,0,0,0,0c0,0,0,0,0,0
									c0,0,0,0,0,0c0,0,0,0,0,0c0,0,0,0,0,0c0,0,0,0,0,0c0,0,0,0,0,0c0,0,0,0,0,0c0,0,0,0,0,0c0,0,0,0,0,0c0,0,0,0,0,0
									c0,0,0,0,0,0c0,0,0,0,0,0c0,0,0,0,0,0c0,0,0,0,0,0c0,0,0,0,0,0c0,0,0,0,0,0c0,0,0,0,0,0c0,0,0,0,0,0c0,0,0,0,0,0
									c0,0,0,0,0,0c0,0,0,0,0,0c0,0,0,0,0,0c0,0,0,0,0,0c0,0,0,0,0,0c0,0,0,0,0,0c0,0,0,0,0,0c0,0,0,0,0,0c0,0,0,0,0,0
									c0,0,0,0,0,0c0,0,0,0,0,0c0,0,0,0,0,0c0,0,0,0,0,0c0,0,0,0,0,0c0,0,0,0,0,0c0,0,0,0,0,0c0,0,0,0,0,0c0,0,0,0,0,0
									c0,0,0,0,0,0c0,0,0,0,0,0c0,0,0,0,0,0c0,0,0,0,0,0c0,0,0,0,0,0c0,0,0,0,0,0c0,0,0,0,0,0c0,0,0,0,0,0c0,0,0,0,0,0
									c0,0,0,0,0,0c0,0,0,0,0,0c0,0,0,0,0,0c0,0,0,0,0,0c0,0,0,0,0,0c0,0,0,0,0,0c0,0,0,0,0,0c0,0,0,0,0,0c0,0,0,0,0,0
									c0,0,0,0,0,0c0,0,0,0,0,0c0,0,0,0,0,0c0,0,0,0,0,0c0,0,0,0,0,0c0,0,0,0,0,0c0,0,0,0,0,0c0,0,0,0,0,0c0,0,0,0,0,0
									c0,0,0,0,0,0c0,0,0,0,0,0c0,0,0,0,0,0c0,0,0,0,0,0c0,0,0,0,0,0c0,0,0,0,0,0c0,0,0,0,0,0c0,0,0,0,0,0c0,0,0,0,0,0
									c0,0,0,0,0,0c0,0,0,0,0,0c0,0,0,0,0,0c0,0,0,0,0,0c0,0,0,0,0,0c0,0,0,0,0,0c0,0,0,0,0,0c0,0,0,0,0,0c0,0,0,0,0,0
									c0,0,0,0,0,0c0,0,0,0,0,0c0,0,0,0,0,0c0,0,0,0,0,0c0,0,0,0,0,0c0,0,0,0,0,0c0,0,0,0,0,0c0,0,0,0,0,0
									C93,62.9,93,62.9,93,62.9C93,62.9,93,62.9,93,62.9C93,62.9,93,62.9,93,62.9z"/>
							</g>
							<g>
								<ellipse class="st17" cx="66.5" cy="62.8" rx="26.5" ry="4"/>
							</g>
							<g>
								<path class="st18" d="M87.7,62.1c0,0.6-1.8,1.1-4.7,1.6c-3.9,0.6-9.9,0.9-16.5,0.9c-6.6,0-12.5-0.4-16.4-0.9
									c-3-0.4-4.9-1-4.9-1.6c0-1.4,9.5-2.5,21.2-2.5C78.2,59.6,87.7,60.7,87.7,62.1z"/>
							</g>
							<g>
								<path class="st19" d="M83.1,63.7c-3.9,0.6-9.9,0.9-16.5,0.9c-6.6,0-12.5-0.4-16.4-0.9c3.9-0.6,9.8-0.9,16.5-0.9
									C73.3,62.8,79.2,63.1,83.1,63.7z"/>
							</g>
						</g>
						<g>
							<g>
								<path class="st20" d="M79.9,83.1C79.9,83.1,79.9,83.1,79.9,83.1C79.9,83.1,79.9,83.1,79.9,83.1L79.9,83.1
									c0.3,0,0.6-0.1,0.9,0c0.2,0,0.3,0.1,0.5,0.1c0.2,0,0.3-0.1,0.5-0.1c0.2-0.1,0.3-0.1,0.5-0.1c0.2,0,0.3-0.1,0.5-0.1
									c0.3,0,0.6-0.1,1,0l0,0c-0.3,0.2-0.6,0.3-0.9,0.4c-0.2,0-0.3,0.1-0.5,0.1c-0.2,0-0.3,0-0.5,0c-0.2,0-0.3,0-0.5,0
									c-0.2,0-0.3,0.1-0.5,0.1c-0.3,0.1-0.7,0-1-0.1l0,0C79.8,83.2,79.8,83.2,79.9,83.1C79.8,83.1,79.9,83,79.9,83.1L79.9,83.1z"
									/>
							</g>
							<g>
								<path class="st20" d="M51.3,73.8l-0.2,0.9c0,0.2-0.1,0.3-0.1,0.5c-0.1,0.1-0.2,0.3-0.3,0.3c-0.3,0.1-0.6,0-0.9,0
									c-0.3-0.1-0.6-0.1-0.8-0.1c-1.1-0.1-2.2-0.3-3.3-0.5c-1.1-0.2-2.2-0.5-3.3-0.8l0,0c1.1,0.1,2.2,0.3,3.3,0.5
									c1.1,0.2,2.2,0.5,3.3,0.7c0.3,0.1,0.5,0.1,0.8,0.2c0.3,0.1,0.6,0.1,0.8,0c0.2-0.1,0.3-0.4,0.3-0.7l0.1-0.9"/>
							</g>
							<g>
								<path class="st20" d="M51,90.5l0,0.1l-0.1,0c-0.6-0.1-1.1-0.2-1.7-0.4c-0.6-0.1-1.1-0.2-1.7-0.2c-0.6-0.1-1.1-0.2-1.7-0.4
									c-0.6-0.1-1.1-0.3-1.7-0.5l0,0c0.6,0.1,1.1,0.2,1.7,0.3c0.6,0.1,1.1,0.2,1.7,0.4c0.6,0.1,1.1,0.3,1.7,0.4
									c0.6,0.1,1.1,0.2,1.7,0.2l-0.1,0.1"/>
							</g>
							<g>
								<path class="st20" d="M55.8,76.1c0.8-0.1,1.6-0.1,2.4,0c0.4,0.1,0.8,0.1,1.2,0.2c0.4,0,0.8,0,1.2,0c0.8,0,1.6,0,2.4,0.1
									c0.8,0.1,1.6,0.2,2.3,0.3l0,0c-0.8,0.1-1.6,0.1-2.4,0c-0.8-0.1-1.6-0.1-2.3-0.2c-0.4-0.1-0.8-0.1-1.2-0.1
									c-0.4,0-0.8,0-1.2,0C57.3,76.4,56.5,76.4,55.8,76.1L55.8,76.1z"/>
							</g>
						</g>
					</g>
					<g>
						<path class="st21" d="M35.8,95.6l-0.4,0.2c-1.7,0.8-3.6,0.8-5.3,0.1l-0.7-0.3V40.1h6.4V95.6z"/>
					</g>
					<g>
						<path class="st21" d="M97.8,95.6l0.4,0.2c1.7,0.8,3.6,0.8,5.3,0.1l0.7-0.3V40.1h-6.4V95.6z"/>
					</g>
					<g>
						<g>
							<g>
								<polygon class="st22" points="70.5,45.8 70.1,45.8 70.3,42.1 70.6,42.1 								"/>
							</g>
							<g>
								<polygon class="st22" points="69.6,45.8 69.2,45.8 69.4,42.1 69.7,42.1 								"/>
							</g>
							<g>
								<polygon class="st22" points="68.7,45.8 68.4,45.8 68.5,42.1 68.8,42.1 								"/>
							</g>
							<g>
								<polygon class="st22" points="67.8,45.8 67.5,45.8 67.6,42.1 67.9,42.1 								"/>
							</g>
							<g>
								<polygon class="st22" points="66.9,45.8 66.6,45.8 66.7,42.1 67.1,42.1 								"/>
							</g>
							<g>
								<polygon class="st22" points="66.1,45.8 65.7,45.8 65.8,42.1 66.2,42.1 								"/>
							</g>
						</g>
						<g>
							<g>
								<g>
									<path class="st22" d="M50.7,62.6c1.5-0.7,6.2-1.2,9.7-1.5c1.4-0.1,2.7-0.3,3.2-0.4c1.3-0.2,1.4-11.7,1.3-18.8l0.4,0
										c0.1,3.1,0.4,18.9-1.6,19.2c-0.6,0.1-1.8,0.2-3.2,0.4c-3.2,0.3-8.1,0.8-9.6,1.5c-0.3,0.1-0.6,0.2-0.8,0.2"/>
								</g>
							</g>
						</g>
					</g>
				</g>
			</g>
		</g>
	</g>
	<path class="st20" d="M82.5,74.3c0,0.4,0,0.7-0.1,1.1c-0.1,0.4-0.4,0.6-0.7,0.8c-0.6,0.3-1.3,0.2-1.9,0.3c-1.3,0.1-2.6,0.2-3.8,0.3
		c-1.3,0-2.6,0.1-3.9,0l0,0c1.3-0.2,2.6-0.3,3.8-0.4c1.3-0.1,2.6-0.1,3.8-0.1c0.6,0,1.3,0.1,1.9-0.2c0.3-0.1,0.5-0.4,0.6-0.7
		c0.1-0.3,0-0.7,0-1"/>
</g>
</svg>
