<?xml version="1.0" encoding="UTF-8" standalone="no"?>
<!-- Generator: Adobe Illustrator 22.1.0, SVG Export Plug-In . SVG Version: 6.00 Build 0)  -->

<svg
   version="1.1"
   id="Calque_12"
   x="0px"
   y="0px"
   viewBox="0 0 57.599998 53"
   xml:space="preserve"
   sodipodi:docname="valise.svg"
   width="57.599998"
   height="53"
   inkscape:version="1.3 (0e150ed6c4, 2023-07-21)"
   xmlns:inkscape="http://www.inkscape.org/namespaces/inkscape"
   xmlns:sodipodi="http://sodipodi.sourceforge.net/DTD/sodipodi-0.dtd"
   xmlns="http://www.w3.org/2000/svg"
   xmlns:svg="http://www.w3.org/2000/svg"><defs
   id="defs26">&#10;	&#10;	&#10;	&#10;	&#10;</defs><sodipodi:namedview
   id="namedview26"
   pagecolor="#ffffff"
   bordercolor="#666666"
   borderopacity="1.0"
   inkscape:showpageshadow="2"
   inkscape:pageopacity="0.0"
   inkscape:pagecheckerboard="0"
   inkscape:deskcolor="#d1d1d1"
   inkscape:zoom="6.0390625"
   inkscape:cx="28.481242"
   inkscape:cy="27.736093"
   inkscape:window-width="1920"
   inkscape:window-height="979"
   inkscape:window-x="0"
   inkscape:window-y="0"
   inkscape:window-maximized="1"
   inkscape:current-layer="Calque_12" />&#10;<style
   type="text/css"
   id="style1">&#10;	.st0{fill:none;}&#10;	.st1{fill:#8A4F4F;}&#10;	.st2{fill:#572A2D;}&#10;	.st3{fill:#455665;}&#10;	.st4{fill:#85CBCB;}&#10;	.st5{fill:#568282;}&#10;	.st6{fill:#EFE2B8;}&#10;	.st7{fill:#703E3E;}&#10;	.st8{fill:none;stroke:url(#SVGID_1_);stroke-width:2;stroke-miterlimit:10;}&#10;	.st9{fill:none;stroke:url(#SVGID_2_);stroke-width:0.75;stroke-miterlimit:10;}&#10;	.st10{fill:url(#SVGID_3_);}&#10;	.st11{fill:url(#SVGID_4_);}&#10;	.st12{fill:#33322D;}&#10;	.st13{fill:#523131;}&#10;	.st14{fill:#966464;}&#10;	.st15{fill:#47280C;}&#10;</style>&#10;<pattern
   y="128"
   width="32.2"
   height="34.5"
   patternUnits="userSpaceOnUse"
   id="Nouvelle_nuance_de_motif_10"
   viewBox="0 -34.5 32.2 34.5"
   style="overflow:visible">&#10;	<g
   id="g2">&#10;		<rect
   y="-34.5"
   class="st0"
   width="32.2"
   height="34.5"
   id="rect1" />&#10;		<rect
   y="-34.5"
   class="st1"
   width="32.2"
   height="34.5"
   id="rect2" />&#10;	</g>&#10;</pattern>&#10;<pattern
   y="128"
   width="32.2"
   height="34.5"
   patternUnits="userSpaceOnUse"
   id="Nouvelle_nuance_de_motif_11"
   viewBox="0 -34.5 32.2 34.5"
   style="overflow:visible">&#10;	<g
   id="g4">&#10;		<rect
   y="-34.5"
   class="st0"
   width="32.2"
   height="34.5"
   id="rect3" />&#10;		<rect
   y="-34.5"
   class="st2"
   width="32.2"
   height="34.5"
   id="rect4" />&#10;	</g>&#10;</pattern>&#10;<pattern
   y="128"
   width="32.2"
   height="34.5"
   patternUnits="userSpaceOnUse"
   id="Nouvelle_nuance_de_motif_20"
   viewBox="0 -34.5 32.2 34.5"
   style="overflow:visible">&#10;	<g
   id="g6">&#10;		<rect
   y="-34.5"
   class="st0"
   width="32.2"
   height="34.5"
   id="rect5" />&#10;		<rect
   y="-34.5"
   class="st3"
   width="32.2"
   height="34.5"
   id="rect6" />&#10;	</g>&#10;</pattern>&#10;<g
   id="g25"
   transform="translate(-45.8,-59.1)">&#10;		<g
   id="g17">&#10;			<path
   class="st13"
   d="m 67.2,67.5 v -2.9 c 0,-0.8 0.6,-1.4 1.4,-1.4 h 12 c 0.8,0 1.4,0.6 1.4,1.4 v 2.9 h 4.1 v -2.9 c 0,-3 -2.5,-5.5 -5.5,-5.5 h -12 c -3,0 -5.5,2.5 -5.5,5.5 v 2.9 z"
   id="path16" />&#10;		</g>&#10;		<path
   class="st7"
   d="m 50.7,67.5 c -2.7,0 -4.9,2.2 -4.9,4.9 v 34.8 c 0,2.7 2.2,4.9 4.9,4.9 h 2.4 V 67.5 Z"
   id="path17" />&#10;		<rect
   x="56.5"
   y="67.5"
   class="st7"
   width="36.299999"
   height="44.5"
   id="rect17" />&#10;		<path
   class="st7"
   d="M 98.5,67.5 H 96.1 V 112 h 2.4 c 2.7,0 4.9,-2.2 4.9,-4.9 V 72.4 c 0,-2.7 -2.2,-4.9 -4.9,-4.9 z"
   id="path18" />&#10;		<g
   id="g19">&#10;			<rect
   x="53.099998"
   y="67.5"
   class="st13"
   width="3.4000001"
   height="44.5"
   id="rect18" />&#10;			<rect
   x="92.800003"
   y="67.5"
   class="st13"
   width="3.4000001"
   height="44.5"
   id="rect19" />&#10;		</g>&#10;		<path
   class="st14"
   d="m 50.7,107.8 c 0,0.7 -0.6,1.3 -1.3,1.3 v 0 c -0.7,0 -1.3,-0.6 -1.3,-1.3 V 71.9 c 0,-0.7 0.6,-1.3 1.3,-1.3 v 0 c 0.7,0 1.3,0.6 1.3,1.3 z"
   id="path19" />&#10;		<path
   class="st14"
   d="m 101,107.8 c 0,0.7 -0.6,1.3 -1.3,1.3 v 0 c -0.7,0 -1.3,-0.6 -1.3,-1.3 V 71.9 c 0,-0.7 0.6,-1.3 1.3,-1.3 v 0 c 0.7,0 1.3,0.6 1.3,1.3 z"
   id="path20" />&#10;		<g
   id="g22">&#10;			<polygon
   class="st14"
   points="53.1,67.5 53.1,79.7 54.8,81.9 56.5,79.7 56.5,67.5 "
   id="polygon20" />&#10;			<g
   id="g21">&#10;				<path
   class="st6"
   d="m 56.2,77.2 h -2.9 c -1.2,0 -2.1,-0.9 -2.1,-2.1 v -2.9 c 0,-1.2 0.9,-2.1 2.1,-2.1 h 2.9 c 1.2,0 2.1,0.9 2.1,2.1 v 2.9 c 0,1.1 -0.9,2.1 -2.1,2.1 z m -2.9,-5.3 c -0.1,0 -0.2,0.1 -0.2,0.2 V 75 c 0,0.1 0.1,0.2 0.2,0.2 h 2.9 c 0.1,0 0.2,-0.1 0.2,-0.2 v -2.9 c 0,-0.1 -0.1,-0.2 -0.2,-0.2 z"
   id="path21" />&#10;			</g>&#10;		</g>&#10;		<g
   id="g24">&#10;			<polygon
   class="st14"
   points="92.7,67.5 92.7,79.7 94.5,81.9 96.2,79.7 96.2,67.5 "
   id="polygon22" />&#10;			<g
   id="g23">&#10;				<path
   class="st6"
   d="M 95.9,77.2 H 93 c -1.2,0 -2.1,-0.9 -2.1,-2.1 v -2.9 c 0,-1.2 0.9,-2.1 2.1,-2.1 h 2.9 c 1.2,0 2.1,0.9 2.1,2.1 v 2.9 c 0,1.1 -0.9,2.1 -2.1,2.1 z M 93,71.9 c -0.1,0 -0.2,0.1 -0.2,0.2 V 75 c 0,0.1 0.1,0.2 0.2,0.2 h 2.9 c 0.1,0 0.2,-0.1 0.2,-0.2 V 72.1 C 96.1,72 96,71.9 95.9,71.9 Z"
   id="path22" />&#10;			</g>&#10;		</g>&#10;	</g>&#10;</svg>
